<svg width="31" height="28" viewBox="0 0 31 28" fill="none" xmlns="http://www.w3.org/2000/svg">
<path id="Vector" d="M23.4129 4.88636C23.4129 4.88636 22.798 4.27143 21.5681 3.04156C20.3382 1.8117 17.9822 1.19677 14.4998 1.19677C11.0175 1.19677 8.04651 2.42663 5.58679 4.88636C3.12706 7.34609 1.89719 10.3171 1.89719 13.7994C1.89719 17.2817 3.12706 20.2528 5.58679 22.7125C8.04651 25.1722 11.0175 26.4021 14.4998 26.4021C14.638 26.4021 14.7555 26.4573 14.8522 26.5679C14.949 26.6784 14.9973 26.8028 14.9973 26.941C14.9973 27.0792 14.949 27.1966 14.8522 27.2934C14.7555 27.3901 14.638 27.4385 14.4998 27.4385C12.0125 27.4385 9.72549 26.8305 7.63886 25.6144C5.55224 24.3984 3.894 22.747 2.66413 20.6604C1.43427 18.5738 0.819336 16.2937 0.819336 13.8201C0.819336 11.3466 1.43427 9.05961 2.66413 6.95917C3.894 4.85872 5.55224 3.20048 7.63886 1.98443C9.72549 0.768389 12.0056 0.160366 14.4791 0.160366C16.9527 0.160366 19.2397 0.768389 21.3401 1.98443C23.4405 3.20048 25.0988 4.85872 26.3148 6.95917C27.5309 9.05961 28.1389 11.3397 28.1389 13.7994C28.1389 13.9652 28.0836 14.0965 27.9731 14.1933C27.8625 14.29 27.7382 14.3384 27.6 14.3384C27.4618 14.3384 27.3443 14.29 27.2476 14.1933C27.1509 14.0965 27.1025 13.9652 27.1025 13.7994C27.1025 10.3171 25.8726 7.34609 23.4129 4.88636ZM29.8801 10.1927C30.1012 9.91637 30.343 9.89564 30.6055 10.1306C30.8681 10.3655 30.8888 10.6073 30.6677 10.856L27.9731 14.0896C27.752 14.3384 27.5032 14.3522 27.2269 14.1311L24.0347 11.4364C23.7584 11.2153 23.7376 10.9735 23.9726 10.7109C24.2075 10.4484 24.4493 10.4277 24.698 10.6488L27.5171 13.0118L29.8801 10.1927ZM7.16212 16.121L9.0691 14.0482C9.37311 13.7165 9.59421 13.4332 9.7324 13.1983C9.87058 12.9634 9.93968 12.7354 9.93968 12.5143C9.93968 12.2655 9.85676 12.0721 9.69094 11.9339C9.55275 11.7957 9.34547 11.7266 9.0691 11.7266C8.57163 11.7266 8.08797 11.9754 7.61814 12.4728L7.16212 11.6022C7.41086 11.3259 7.70105 11.1048 8.0327 10.9389C8.36435 10.8008 8.73745 10.7317 9.15201 10.7317C9.5113 10.7317 9.84295 10.8008 10.147 10.9389C10.4233 11.0771 10.6375 11.2706 10.7895 11.5193C10.9415 11.7681 11.0175 12.0583 11.0175 12.3899C11.0175 12.7492 10.9208 13.0947 10.7273 13.4263C10.5339 13.7303 10.2437 14.1034 9.85676 14.5456L8.73745 15.7893H11.2248V16.7428H7.16212V16.121ZM14.5413 15.582H11.971V14.8358L14.5828 10.8146H15.6192V14.67H16.3239V15.582H15.6192V16.7428H14.5413V15.582ZM14.5413 14.67V12.307L13.0074 14.67H14.5413ZM19.8891 12.4314C20.3866 12.4314 20.7597 12.5696 21.0085 12.8459C21.2572 13.1223 21.3816 13.523 21.3816 14.0482V16.7428H20.3452V14.4627C20.3452 14.0758 20.2761 13.7994 20.1379 13.6336C19.9997 13.4401 19.7786 13.3434 19.4746 13.3434C19.1429 13.3434 18.8804 13.454 18.6869 13.6751C18.5211 13.8685 18.4382 14.1449 18.4382 14.5042V16.7428H17.3603V10.4415H18.4382V13.1776C18.5764 12.9288 18.7698 12.7492 19.0186 12.6386C19.2673 12.5005 19.5575 12.4314 19.8891 12.4314Z" fill="#FF203E"/>
</svg>
