<?xml version="1.0" encoding="UTF-8"?>
<svg height="100%" width="100%" xmlns="http://www.w3.org/2000/svg">
	<defs>
		<font horiz-adv-x="630" id="web">
			<font-face alphabetic="0" ascent="1167" descent="-259" font-family="" panose-1="2 11 7 2 2 2 2 9 2 4"/>
			<missing-glyph d="M118 752H658L488 -210H-52ZM175 682L31 -140H431L575 682Z" horiz-adv-x="600"/>
			<glyph d="" horiz-adv-x="224" unicode=" "/>
			<glyph d="M170 710H316L211 248H109ZM130 141Q162 141 185 118T208 62Q208 30 185 7T130 -15Q98 -15 75 7T52 62Q52 95 75 118T130 141Z" horiz-adv-x="329" unicode="!"/>
			<glyph d="M325 710H444L383 474H300ZM132 710H251L190 474H107Z" horiz-adv-x="416" unicode="&quot;"/>
			<glyph d="M321 710H416L354 533H486L548 710H642L580 533H707L690 441H548L489 270H611L594 178H457L395 0H299L361 178H229L166 0H72L134 178H7L23 270H167L227 441H103L120 533H259ZM321 441L261 270H394L454 441Z" horiz-adv-x="697" unicode="#"/>
			<glyph d="M342 773H420L406 698Q491 688 558 652L514 544Q478 565 449 577T387 595L352 406L354 405Q419 381 455 356T508 300T525 222Q525 121 460 70T279 14L263 -69H185L201 17Q85 29 7 84L47 192Q80 168 125 150T221 126L257 316Q198 338 163 358T108 411T88 494Q88 587 154 641T328 700ZM309 598Q262 593 236 571T211 512Q211 482 227 465T279 433ZM330 289L299 124Q402 132 402 209Q402 238 385 255T330 289Z" horiz-adv-x="575" unicode="$"/>
			<glyph d="M280 716Q346 716 386 676T426 566Q426 505 406 450T344 359T236 323Q169 323 126 364T83 481Q83 544 105 597T171 683T280 716ZM687 710H801L276 0H162ZM271 629Q232 629 209 583T187 484Q187 450 201 430T240 410Q280 410 301 455T323 555Q323 629 271 629ZM732 383Q798 383 838 343T878 233Q878 172 858 117T796 26T688 -10Q621 -10 578 31T535 148Q535 211 557 264T623 350T732 383ZM723 296Q684 296 661 250T639 151Q639 117 653 97T692 77Q732 77 753 122T775 222Q775 296 723 296Z" horiz-adv-x="925" unicode="%"/>
			<glyph d="M339 721Q396 721 438 700T504 644T527 564Q527 494 485 448T361 366L486 224Q551 299 595 405L705 350Q647 223 563 136L683 0H522L471 60Q363 -10 228 -10Q160 -10 110 14T33 82T7 180Q7 259 52 306T188 394Q159 432 143 468T128 545Q128 595 152 635T225 698T339 721ZM331 622Q293 622 271 601T250 545Q250 520 261 495T296 441Q358 469 381 493T404 553Q404 582 384 602T331 622ZM252 317Q194 289 170 262T146 196Q146 155 175 129T250 103Q329 103 397 146Z" horiz-adv-x="730" unicode="&amp;"/>
			<glyph d="M132 710H251L190 474H107Z" horiz-adv-x="223" unicode="'"/>
			<glyph d="M452 752L434 656Q376 656 339 632T273 555Q235 488 210 371T185 160Q185 71 214 22T313 -32L296 -128Q182 -121 128 -49T74 159Q74 267 103 395T177 603Q221 679 285 715T452 752Z" horiz-adv-x="389" unicode="("/>
			<glyph d="M114 752Q226 745 281 673T336 472Q336 358 307 229T232 21Q189 -56 123 -92T-42 -128L-25 -32Q31 -32 69 -8T137 69Q174 136 199 253T225 466Q225 555 195 602T96 656Z" horiz-adv-x="389" unicode=")"/>
			<glyph d="M248 717L351 699L317 571L445 603L459 500L328 493L398 381L304 336L257 459L172 358L99 432L201 515L80 565L128 657L239 585Z" horiz-adv-x="449" unicode="*"/>
			<glyph d="M262 575H363V401H537V300H363V125H262V300H87V401H262Z" horiz-adv-x="591" unicode="+"/>
			<glyph d="M80 125H218L73 -143H-39Z" horiz-adv-x="289" unicode=","/>
			<glyph d="M58 325H407L388 221H39Z" horiz-adv-x="439" unicode="-"/>
			<glyph d="M115 141Q147 141 170 118T193 62Q193 30 170 7T115 -15Q83 -15 60 7T37 62Q37 95 60 118T115 141Z" horiz-adv-x="298" unicode="."/>
			<glyph d="M425 752H544L54 -168H-65Z" horiz-adv-x="466" unicode="/"/>
			<glyph d="M360 720Q465 720 519 656T573 471Q573 344 538 227T442 52Q409 21 369 5T278 -10Q173 -10 116 57T60 244Q60 366 93 480T184 652Q250 720 360 720ZM350 603Q303 603 271 562Q236 517 213 419T190 236Q190 175 215 140T284 106Q309 106 327 114T361 141Q394 183 418 283T442 472Q442 535 420 569T350 603Z" horiz-adv-x="596" unicode="0"/>
			<glyph d="M341 717H391L265 0H135L231 547L71 460L92 582Z" horiz-adv-x="419" unicode="1"/>
			<glyph d="M335 720Q435 720 490 667T545 530Q545 456 504 394T385 262L221 114H522L502 0H17L32 87L283 321Q351 384 380 425T410 510Q410 552 386 577T313 603Q268 603 224 580T142 518L89 620Q197 720 335 720Z" horiz-adv-x="578" unicode="2"/>
			<glyph d="M332 720Q426 720 482 673T538 549Q538 409 378 372Q442 358 476 315T510 210Q510 143 476 93T382 16T248 -10Q162 -10 106 14T8 84L77 183Q108 148 152 126T247 105Q311 105 345 134T380 212Q380 268 333 292T194 316L208 421Q307 422 355 450T403 525Q403 562 378 583T303 604Q261 604 224 587T149 537L99 633Q147 674 202 697T332 720Z" horiz-adv-x="563" unicode="3"/>
			<glyph d="M413 710H541L459 247H546L527 140H440L415 0H286L311 140H4L21 239ZM378 516L156 247H330Z" horiz-adv-x="596" unicode="4"/>
			<glyph d="M180 710H561L545 596H266L229 429Q273 447 324 447Q385 447 432 422T506 353T533 247Q533 169 498 111T400 21T254 -10Q109 -10 14 83L86 183Q116 150 159 129T254 108Q325 108 363 142T401 236Q401 281 369 308T283 335Q214 335 163 305L93 335Z" horiz-adv-x="579" unicode="5"/>
			<glyph d="M546 718L557 610Q409 610 316 556T189 396Q256 456 351 456Q443 456 496 399T550 251Q550 176 519 117T429 24T291 -10Q179 -10 114 62T49 262Q49 401 108 503T279 662T546 718ZM312 353Q268 353 231 335T171 287V265Q171 184 206 143T297 102Q357 102 391 140T426 242Q426 291 396 322T312 353Z" horiz-adv-x="586" unicode="6"/>
			<glyph d="M98 710H587L573 634L186 0H36L412 595H78Z" horiz-adv-x="538" unicode="7"/>
			<glyph d="M352 720Q449 720 507 674T565 550Q565 487 529 440T432 375Q542 332 542 218Q542 155 511 103T421 21T277 -10Q165 -10 99 43T34 188Q34 263 80 317T208 389Q122 429 122 526Q122 583 150 627T230 695T352 720ZM347 617Q302 617 275 590T248 521Q248 484 272 461T339 438Q384 438 411 465T438 534Q438 571 413 594T347 617ZM297 320Q238 320 203 286T168 201Q168 152 199 123T283 95Q341 95 374 129T408 216Q408 264 378 292T297 320Z" horiz-adv-x="594" unicode="8"/>
			<glyph d="M331 719Q443 719 508 646T573 447Q573 308 514 205T343 47T76 -9L65 99Q213 99 306 152T433 313Q366 253 271 253Q179 253 125 310T72 458Q72 533 103 592T192 685T331 719ZM325 607Q265 607 230 568T196 467Q196 418 226 387T310 356Q354 356 391 373T451 422V444Q451 525 416 566T325 607Z" horiz-adv-x="586" unicode="9"/>
			<glyph d="M177 486Q209 486 231 463T254 409Q254 376 231 353T177 331Q144 331 121 353T99 409Q99 441 121 463T177 486ZM116 141Q148 141 171 118T194 63Q194 31 171 8T116 -15Q84 -15 61 8T38 63Q38 95 61 118T116 141ZZ" horiz-adv-x="299" unicode=":"/>
			<glyph d="M176 487Q208 487 231 464T254 408Q254 376 231 353T176 331Q144 331 121 353T98 408Q98 441 121 464T176 487ZM80 125H218L73 -143H-39ZZ" horiz-adv-x="289" unicode=";"/>
			<glyph d="M524 567V466L162 350L524 234V133L74 286V414Z" horiz-adv-x="591" unicode="&lt;"/>
			<glyph d="M88 510H538V408H88ZM88 292H538V191H88Z" horiz-adv-x="591" unicode="="/>
			<glyph d="M101 567L551 414V286L101 133V234L464 350L101 466Z" horiz-adv-x="591" unicode="&gt;"/>
			<glyph d="M304 724Q398 724 452 678T507 555Q507 491 477 445T391 359Q349 329 328 305T303 249H193Q199 298 218 332T292 408Q326 436 343 452T370 487T381 533Q381 570 357 591T291 613Q201 613 164 522L69 575Q97 645 156 684T304 724ZM231 141Q263 141 286 118T309 62Q309 30 286 7T231 -15Q199 -15 176 7T153 62Q153 95 176 118T231 141Z" horiz-adv-x="516" unicode="?"/>
			<glyph d="M537 740Q653 740 742 693T881 563T931 378Q931 301 903 221T829 82H591L600 142Q574 112 535 93T449 75Q393 75 349 100T280 173T256 282Q256 352 286 409T368 500T484 533Q537 533 579 510T639 452L652 523H756L697 175H779Q806 215 822 265T838 371Q838 457 798 520T688 618T530 652Q416 652 327 600T189 461T141 272Q141 182 180 111T291 0T456 -40Q514 -40 575 -25T676 12L682 -77Q645 -99 578 -114T445 -129Q330 -129 239 -79T98 60T47 262Q47 391 110 500T285 675T537 740ZM502 435Q445 435 406 396T368 294Q368 239 398 207T481 176Q524 176 554 196T601 249T617 318Q617 370 586 402T502 435Z" horiz-adv-x="954" unicode="@"/>
			<glyph d="M351 710H498L636 0H500L465 200H209L105 0H-38ZM401 568L265 307H446Z" horiz-adv-x="688" unicode="A"/>
			<glyph d="M163 710H384Q479 710 532 664T585 543Q585 487 556 441T467 371Q523 357 554 316T586 215Q586 151 555 102T467 27T333 0H37ZM278 602L245 411H325Q384 411 417 441T451 519Q451 602 348 602ZM227 306L193 108H324Q384 108 418 137T452 214Q452 257 426 281T354 306Z" horiz-adv-x="620" unicode="B"/>
			<glyph d="M459 720Q606 720 700 641L644 519Q560 593 456 593Q383 593 324 558T231 465T198 336Q198 272 224 222T300 144T413 117Q512 117 621 187L653 67Q536 -10 400 -10Q299 -10 221 31T100 148T57 325Q57 442 110 531T255 670T459 720Z" horiz-adv-x="701" unicode="C"/>
			<glyph d="M162 710H400Q503 710 578 674T693 569T733 406Q733 289 684 197T540 53T309 0H38ZM277 593L192 117H321Q407 117 468 154T560 255T591 394Q591 491 534 542T366 593Z" horiz-adv-x="752" unicode="D"/>
			<glyph d="M163 710H588L567 591H277L246 413H527L506 298H225L193 119H491L470 0H37Z" horiz-adv-x="576" unicode="E"/>
			<glyph d="M163 710H586L565 591H277L245 409H518L497 291H224L172 0H37Z" horiz-adv-x="545" unicode="F"/>
			<glyph d="M467 720Q611 720 726 639L667 522Q622 555 573 574T464 593Q387 593 326 558T231 462T197 324Q197 225 251 169T395 113Q478 113 534 156T613 262H410L430 370H758L692 -1H569L584 80Q502 -9 362 -9Q273 -9 203 30T94 141T55 312Q55 429 106 522T252 667T467 720Z" horiz-adv-x="789" unicode="G"/>
			<glyph d="M163 710H298L245 414H567L620 710H754L628 0H494L547 296H225L172 0H37Z" horiz-adv-x="756" unicode="H"/>
			<glyph d="M163 710H298L172 0H37Z" horiz-adv-x="300" unicode="I"/>
			<glyph d="M290 710H425L344 249Q320 112 261 51T96 -10Q21 -10 -33 17L2 133Q48 111 88 111Q140 111 167 142T208 247Z" horiz-adv-x="416" unicode="J"/>
			<glyph d="M163 710H298L237 363L563 710H726L386 357L624 0H466L237 362L172 0H37Z" horiz-adv-x="679" unicode="K"/>
			<glyph d="M163 710H298L193 121H480L459 0H37Z" horiz-adv-x="527" unicode="L"/>
			<glyph d="M163 710H330L460 365L714 710H890L764 0H632L729 545L486 212H389L265 546L169 0H37Z" horiz-adv-x="892" unicode="M"/>
			<glyph d="M163 710H293L554 202L644 710H773L647 0H518L256 508L166 0H37Z" horiz-adv-x="774" unicode="N"/>
			<glyph d="M465 720Q567 720 644 680T763 565T806 388Q806 287 760 195T624 47T405 -10Q301 -10 222 31T100 148T57 326Q57 434 106 524T247 667T465 720ZM452 593Q372 593 314 556T227 460T198 333Q198 235 257 176T414 117Q490 117 547 154T634 253T665 383Q665 446 638 493T563 567T452 593Z" horiz-adv-x="827" unicode="O"/>
			<glyph d="M163 710H375Q495 710 555 654T616 502Q616 430 583 372T484 282T326 249H217L173 0H38ZM278 599L236 360H325Q395 360 435 396T475 495Q475 549 442 574T342 599Z" horiz-adv-x="600" unicode="P"/>
			<glyph d="M465 720Q567 720 644 680T763 565T806 388Q806 308 776 232T691 100L781 -11H631L596 32Q514 -10 405 -10Q301 -10 222 31T100 148T57 326Q57 434 106 524T247 667T465 720ZM452 593Q372 593 314 556T227 460T198 333Q198 235 257 176T414 117Q465 117 511 136L412 257L562 259L604 207Q634 243 649 289T665 383Q665 446 638 493T563 567T452 593Z" horiz-adv-x="834" unicode="Q"/>
			<glyph d="M163 710H410Q513 710 569 659T625 523Q625 442 579 381T451 294L590 0H438L321 277H221L172 0H37ZM278 599L240 383H348Q407 383 445 414T484 506Q484 554 455 576T375 599Z" horiz-adv-x="645" unicode="R"/>
			<glyph d="M353 720Q413 720 468 705T561 668L510 555Q477 577 434 590T350 604Q295 604 263 581T232 518Q232 480 259 458T359 405Q414 382 448 359T504 301T525 215Q525 109 457 49T258 -10Q114 -10 12 68L61 186Q101 152 153 130T265 109Q321 109 353 131T386 198Q386 223 374 239T340 269T268 306Q207 334 170 359T113 420T93 506Q93 610 165 665T353 720Z" horiz-adv-x="568" unicode="S"/>
			<glyph d="M101 710H610L589 592H405L300 0H165L270 592H80Z" horiz-adv-x="552" unicode="T"/>
			<glyph d="M152 710H287L214 292Q210 258 210 241Q210 181 245 149T342 117Q417 117 461 158T520 279L596 710H731L653 269Q630 138 548 64T333 -10Q212 -10 143 52T74 224Q74 261 80 297Z" horiz-adv-x="723" unicode="U"/>
			<glyph d="M85 710H224L313 157L595 710H745L365 0H216Z" horiz-adv-x="670" unicode="V"/>
			<glyph d="M98 710H237L286 181L532 710H664L723 182L957 710H1101L767 0H627L565 522L320 0H180Z" horiz-adv-x="1040" unicode="W"/>
			<glyph d="M105 710H250L360 463L547 710H703L420 355L585 0H440L327 254L132 0H-27L268 363Z" horiz-adv-x="644" unicode="X"/>
			<glyph d="M89 710H229L338 399L552 710H703L388 277L339 0H202L251 278Z" horiz-adv-x="632" unicode="Y"/>
			<glyph d="M146 710H641L628 636L212 117H540L519 0H2L16 74L431 592H125Z" horiz-adv-x="599" unicode="Z"/>
			<glyph d="M208 752H462L445 656H301L179 -34H324L306 -130H52L191 656Z" horiz-adv-x="389" unicode="["/>
			<glyph d="M99 752H211L432 -168H320Z" horiz-adv-x="517" unicode="\"/>
			<glyph d="M103 752H357L218 -34L201 -130H-53L-36 -34H108L230 656H85Z" horiz-adv-x="389" unicode="]"/>
			<glyph d="M233 710H361L514 260H413L297 623L181 260H80Z" horiz-adv-x="591" unicode="^"/>
			<glyph d="M-5 -92H455V-137H-5Z" horiz-adv-x="450" unicode="_"/>
			<glyph d="M168 739H289L383 576H278Z" horiz-adv-x="450" unicode="`"/>
			<glyph d="M309 516Q403 516 458 472T514 343Q514 320 510 293T505 261L458 0H333L344 63Q276 -11 177 -11Q111 -11 68 25T26 128Q26 227 117 265T387 306L389 333Q389 371 364 392T289 413Q210 413 124 362L100 460Q141 484 195 500T309 516ZM375 231Q262 230 209 210T157 144Q157 113 176 98T230 83Q281 83 321 112T370 202Z" horiz-adv-x="566" unicode="a"/>
			<glyph d="M161 752H286L233 453Q294 516 393 516Q456 516 505 486T582 403T610 284Q610 202 574 134T475 28T338 -10Q277 -10 232 17T170 95L154 0H29ZM354 403Q284 403 239 355T195 236Q195 179 230 141T322 103Q368 103 404 125T460 185T480 271Q480 328 445 365T354 403Z" horiz-adv-x="648" unicode="b"/>
			<glyph d="M334 516Q428 516 498 469L453 364Q400 404 335 404Q260 404 215 357T170 239Q170 175 206 138T309 102Q374 102 441 143L462 38Q430 17 383 3T287 -10Q212 -10 156 19T69 103T39 229Q39 311 75 376T178 479T334 516Z" horiz-adv-x="509" unicode="c"/>
			<glyph d="M538 752H663L532 -1H407L417 55Q388 23 347 6T259 -10Q194 -10 144 20T66 104T39 228Q39 312 74 377T172 479T310 516Q371 516 415 493T482 428ZM323 403Q277 403 241 381T186 322T166 239Q166 179 201 141T295 103Q341 103 377 125T433 184T453 265Q453 324 418 363T323 403Z" horiz-adv-x="649" unicode="d"/>
			<glyph d="M318 516Q422 516 481 454T541 287Q541 261 537 226H163Q167 159 206 127T309 95Q356 95 398 109T481 149L498 47Q407 -10 291 -10Q214 -10 157 19T70 101T40 227Q40 312 74 377T172 479T318 516ZM313 419Q261 419 225 390T174 312H419Q416 359 388 389T313 419Z" horiz-adv-x="579" unicode="e"/>
			<glyph d="M351 759Q381 759 411 751T461 733L423 630Q391 647 361 647Q299 647 285 568L273 506H393L374 401H255L185 0H60L131 401H46L65 506H149L161 574Q191 759 351 759Z" horiz-adv-x="364" unicode="f"/>
			<glyph d="M309 516Q367 516 412 491T483 417L500 506H624L539 22Q516 -103 447 -161T251 -220Q121 -220 25 -161L70 -51Q155 -109 251 -109Q324 -109 363 -75T415 24L427 86Q396 45 352 24T255 4Q192 4 143 31T66 110T39 233Q39 313 73 377T168 479T309 516ZM328 409Q282 409 245 388T187 330T166 245Q166 184 202 147T299 111Q345 111 381 133T437 193T458 275Q458 335 422 372T328 409Z" horiz-adv-x="653" unicode="g"/>
			<glyph d="M161 752H286L229 429Q262 472 309 494T413 517Q485 517 526 475T568 359Q568 329 561 297L509 0H384L432 274Q437 302 437 320Q437 361 416 383T353 405Q295 405 253 368T202 271L154 0H29Z" horiz-adv-x="620" unicode="h"/>
			<glyph d="M118 506H242L153 0H28ZM207 745Q239 745 261 722T283 668Q283 636 261 614T207 592Q175 592 153 614T131 668Q131 700 153 722T207 745Z" horiz-adv-x="271" unicode="i"/>
			<glyph d="M120 506H244L148 -46Q132 -133 90 -175T-20 -217Q-75 -217 -112 -203L-91 -95Q-62 -105 -37 -105Q-13 -105 2 -86T26 -23ZM209 745Q241 745 263 722T285 668Q285 636 263 614T209 592Q177 592 155 614T133 668Q133 700 155 722T209 745Z" horiz-adv-x="274" unicode="j"/>
			<glyph d="M161 752H286L200 263L432 506H592L335 258L509 0H361L199 254L154 0H29Z" horiz-adv-x="560" unicode="k"/>
			<glyph d="M158 752H282L179 165Q176 153 176 138Q176 117 186 108T216 99Q236 99 261 108L265 5Q224 -10 178 -10Q117 -10 82 20T48 110Q48 130 53 155Z" horiz-adv-x="310" unicode="l"/>
			<glyph d="M398 517Q455 517 491 491T539 414Q571 465 619 491T723 517Q795 517 833 476T872 362Q872 333 866 300L814 0H690L738 274Q743 306 743 324Q743 363 723 384T665 405Q617 405 581 372T533 282L484 0H359L407 274Q413 303 413 324Q413 363 394 384T336 405Q284 405 247 366T201 271L153 0H28L118 506H242L230 433Q261 474 304 495T398 517Z" horiz-adv-x="925" unicode="m"/>
			<glyph d="M406 517Q482 517 523 476T565 357Q565 330 560 298L507 0H383L431 271Q436 301 436 321Q436 405 349 405Q292 405 252 368T201 270L153 0H28L118 506H242L229 427Q261 470 307 493T406 517Z" horiz-adv-x="618" unicode="n"/>
			<glyph d="M340 516Q415 516 472 486T560 401T592 277Q592 200 555 134T450 29T291 -10Q218 -10 160 20T71 105T39 235Q39 310 75 374T179 477T340 516ZM326 402Q277 402 241 379T186 320T168 243Q168 179 205 141T304 104Q353 104 389 126T444 185T463 268Q463 329 425 365T326 402Z" unicode="o"/>
			<glyph d="M392 516Q457 516 506 486T583 403T610 283Q610 202 574 135T475 29T339 -10Q279 -10 234 15T168 88L116 -210H-8L118 506H242L231 448Q260 480 301 498T392 516ZM352 403Q282 403 238 356T195 237Q195 178 230 140T324 103Q369 103 404 125T460 185T480 270Q480 328 445 365T352 403Z" horiz-adv-x="648" unicode="p"/>
			<glyph d="M313 516Q370 516 414 492T482 426L495 506H619L494 -210H369L416 53Q358 -10 260 -10Q195 -10 144 20T66 102T38 222Q38 307 74 374T173 478T313 516ZM329 403Q282 403 245 381T188 321T168 235Q168 178 204 140T297 103Q367 103 410 150T454 270Q454 328 419 365T329 403Z" horiz-adv-x="648" unicode="q"/>
			<glyph d="M363 516Q393 516 424 505L385 385Q362 395 334 395Q222 395 194 240L152 0H28L118 506H241L227 424Q281 516 363 516Z" horiz-adv-x="384" unicode="r"/>
			<glyph d="M278 517Q327 517 372 505T448 476L412 381Q339 423 270 423Q236 423 215 412T195 377Q195 357 215 342T297 301Q343 281 368 264T409 223T424 160Q424 79 365 34T206 -10Q149 -10 98 4T15 42L54 138Q87 115 131 99T217 84Q255 84 276 98T298 138Q298 155 287 167T260 187T206 212Q157 234 128 252T84 294T69 355Q69 430 126 473T278 517Z" horiz-adv-x="475" unicode="s"/>
			<glyph d="M289 664L261 506H403L384 401H242L203 179Q200 158 200 150Q200 127 214 115T252 103Q294 103 342 129L357 27Q290 -10 210 -10Q148 -10 111 23T74 124Q74 145 79 177L117 401H45L64 506H136L161 648Z" horiz-adv-x="402" unicode="t"/>
			<glyph d="M111 506H236L188 232Q183 202 183 179Q183 141 205 119T270 98Q327 98 367 135T418 236L466 506H590L501 0H376L388 67Q357 30 314 9T223 -11Q145 -11 99 32T54 151Q54 183 61 225Z" horiz-adv-x="619" unicode="u"/>
			<glyph d="M47 506H177L241 149L431 506H566L280 0H156Z" horiz-adv-x="523" unicode="v"/>
			<glyph d="M54 506H187L230 147L402 506H508L557 150L721 506H854L603 0H477L428 337L265 0H134Z" horiz-adv-x="818" unicode="w"/>
			<glyph d="M58 506H199L285 343L422 506H573L349 259L496 0H357L264 174L116 0H-37L200 260Z" horiz-adv-x="548" unicode="x"/>
			<glyph d="M39 506H170L246 156L427 506H561L258 -50Q212 -135 159 -173T29 -212Q-29 -212 -62 -198L-28 -92Q-9 -100 22 -100Q96 -100 138 -27L162 14Z" horiz-adv-x="518" unicode="y"/>
			<glyph d="M88 506H500L490 453L201 105H438L419 0H-11L-2 52L296 401H69Z" horiz-adv-x="492" unicode="z"/>
			<glyph d="M350 752H431L414 656H356Q315 656 300 637T285 571Q285 555 286 541T288 516Q292 474 292 452Q292 318 179 305Q256 290 256 224Q256 211 247 187T221 121Q181 29 181 4Q181 -34 239 -34H293L275 -130H204Q140 -130 104 -102T69 -25Q69 4 80 35T115 114Q132 148 140 171T149 210Q149 235 128 249T69 263H40L57 359H86Q141 359 166 383T191 459Q191 477 190 492T188 518Q184 564 184 588Q184 672 225 712T350 752Z" horiz-adv-x="368" unicode="{"/>
			<glyph d="M87 752H195V-210H87Z" horiz-adv-x="276" unicode="|"/>
			<glyph d="M113 753H184Q248 753 283 725T319 648Q319 619 307 587T273 509Q256 475 247 452T239 413Q239 388 259 374T319 360H348L331 264H302Q247 264 222 240T197 164Q197 146 198 131T200 105Q204 59 204 35Q204 -49 162 -89T38 -129H-43L-26 -33H32Q73 -33 88 -14T103 52Q103 68 102 82T100 107Q96 149 96 171Q96 305 209 318Q132 333 132 399Q132 412 141 436T167 502Q207 594 207 619Q207 657 149 657H95Z" horiz-adv-x="368" unicode="}"/>
			<glyph d="M187 412Q208 412 232 407T279 395T309 387L333 381Q378 369 392 369Q433 369 440 412H519Q516 345 487 310T408 276Q386 276 361 282T294 300Q229 319 207 319Q188 319 177 309T161 276H82Q85 346 112 379T187 412Z" horiz-adv-x="591" unicode="~"/>
			<glyph d="" horiz-adv-x="224" unicode=" "/>
			<glyph d="M199 517Q231 517 254 494T277 440Q277 407 254 384T199 361Q167 361 144 384T121 440Q121 472 144 494T199 517ZM118 254H220L159 -208H13Z" horiz-adv-x="329" unicode="¡"/>
			<glyph d="M352 710H430L416 631Q488 623 536 588L488 481Q447 513 396 519L344 221H347Q413 221 479 262L498 157Q465 135 420 121T325 108H324L305 0H227L247 115Q156 134 107 193T58 342Q58 419 92 482T189 586T338 633ZM318 517Q257 504 223 460T190 353Q190 262 268 233Z" horiz-adv-x="520" unicode="¢"/>
			<glyph d="M413 720Q477 720 520 701T597 648L530 539Q484 600 411 600Q363 600 333 569T290 467L278 401H465L447 299H260L247 227Q240 192 222 162T173 114H522L502 0H-14L6 114Q50 121 77 150T113 225L126 299H39L57 401H145L159 479Q181 604 244 662T413 720Z" horiz-adv-x="571" unicode="£"/>
			<glyph d="M157 610L213 548Q269 577 327 577Q386 577 436 548L505 610L583 524L513 462Q532 419 532 373Q532 301 490 238L546 176L451 90L395 152Q339 123 280 123Q222 123 172 152L103 90L25 176L95 239Q76 280 76 327Q76 399 118 462L62 524ZM316 455Q268 455 233 421T198 339Q198 298 224 271T292 245Q323 245 350 261T393 303T409 361Q409 401 383 428T316 455Z" horiz-adv-x="573" unicode="¤"/>
			<glyph d="M89 710H229L338 399L552 710H703L426 330H570L558 264H385L373 196H547L535 130H362L339 0H202L225 130H53L65 196H236L248 264H76L88 330H231Z" horiz-adv-x="632" unicode="¥"/>
			<glyph d="M87 752H195V368H87ZM87 174H195V-210H87Z" horiz-adv-x="276" unicode="¦"/>
			<glyph d="M314 762Q360 762 402 750T477 719L442 624Q411 644 375 656T303 669Q267 669 246 655T225 618Q225 600 236 588T263 569T319 549Q368 531 396 515T439 477T454 417Q454 370 431 331T368 269Q419 231 419 164Q419 85 357 37T192 -10Q137 -10 87 4T7 42L47 142Q79 116 121 99T205 83Q247 83 270 98T294 141Q294 165 273 178T197 211Q119 240 88 267T58 345Q58 393 82 431T150 491Q126 509 113 533T101 590Q101 642 128 681T203 741T314 762ZM259 441Q225 441 204 422T183 377Q183 355 200 342T258 316Q292 317 310 336T329 382Q329 406 314 417T266 441Z" horiz-adv-x="465" unicode="§"/>
			<glyph d="M180 734Q208 734 227 715T247 668Q247 640 227 620T180 601Q152 601 133 620T114 668Q114 696 133 715T180 734ZM393 734Q421 734 440 715T459 668Q459 640 440 620T393 601Q364 601 345 620T326 668Q326 696 345 715T393 734Z" horiz-adv-x="450" unicode="¨"/>
			<glyph d="M412 720Q514 720 597 672T729 540T777 355Q777 252 729 169T598 38T412 -10Q310 -10 226 38T95 169T47 355Q47 457 95 540T226 672T412 720ZM412 652Q328 652 260 613T154 507T116 355Q116 271 154 203T260 96T412 58Q496 58 564 96T670 203T709 355Q709 439 670 507T564 613T412 652ZM422 580Q466 580 506 566T579 527L548 442Q490 491 422 491Q366 491 327 452T289 355Q289 318 307 286T355 237T423 219Q492 219 556 265L583 180Q549 155 510 142T422 130Q357 130 304 159T222 240T192 356Q192 419 222 470T304 550T422 580Z" horiz-adv-x="789" unicode="©"/>
			<glyph d="M239 722Q301 722 332 694T364 616Q364 596 361 579L332 412H248L254 444Q237 426 213 415T162 405Q119 405 94 427T70 488Q70 548 123 573T280 600Q281 604 281 609Q281 655 228 655Q175 655 128 622L107 688Q131 702 165 712T239 722ZM272 548Q204 547 178 535T153 498Q153 482 163 473T191 464Q222 464 243 483T271 541Z" horiz-adv-x="342" unicode="ª"/>
			<glyph d="M230 460H372L158 253L298 60H165L29 260ZM493 460H635L421 253L561 60H428L292 260Z" horiz-adv-x="626" unicode="«"/>
			<glyph d="M88 508H538V193H437V407H88Z" horiz-adv-x="591" unicode="¬"/>
			<glyph d="M58 325H407L388 221H39Z" horiz-adv-x="439" unicode="­"/>
			<glyph d="M272 710Q330 710 375 684T446 613T472 510Q472 453 446 407T375 335T272 310Q215 310 169 336T98 407T72 510Q72 567 98 612T169 684T272 710ZM272 664Q204 664 161 621T119 510Q119 442 161 399T272 356Q341 356 383 399T426 510Q426 578 383 621T272 664ZM197 622H276Q311 622 332 603T353 554Q353 533 343 517T316 492L375 398H316L266 481H249V398H197ZM249 577V524H270Q299 524 299 551Q299 577 271 577Z" horiz-adv-x="454" unicode="®"/>
			<glyph d="M144 695H463L448 613H129Z" horiz-adv-x="450" unicode="¯"/>
			<glyph d="M243 710Q288 710 326 689T386 631T408 549Q408 503 386 466T326 408T243 387Q198 387 160 408T101 466T79 549Q79 594 101 631T160 689T243 710ZM243 620Q214 620 193 599T172 549Q172 519 193 498T243 477Q273 477 294 498T315 549Q315 578 294 599T243 620Z" horiz-adv-x="383" unicode="°"/>
			<glyph d="M251 583H353V460H527V369H353V246H251V369H77V460H251ZM77 216H527V125H77Z" horiz-adv-x="591" unicode="±"/>
			<glyph d="M284 871Q348 871 385 840T423 757Q423 712 394 672T314 590L228 517H414L397 435H79L89 489L252 632Q293 667 310 692T327 740Q327 761 312 773T269 786Q211 786 152 733L119 806Q151 837 193 854T284 871Z" horiz-adv-x="396" unicode="²"/>
			<glyph d="M287 870Q348 870 382 842T416 769Q416 731 391 702T323 661Q370 651 392 627T414 563Q414 502 365 463T234 425Q185 425 144 439T80 479L126 550Q175 508 238 508Q278 508 299 523T320 566Q320 596 294 607T207 619L217 690Q273 690 298 707T323 748Q323 766 309 776T270 786Q243 786 214 774T161 745L128 814Q159 839 200 854T287 870Z" horiz-adv-x="400" unicode="³"/>
			<glyph d="M331 739H457L289 576H179Z" horiz-adv-x="450" unicode="´"/>
			<glyph d="M111 506H236L188 232Q183 202 183 179Q183 141 205 119T270 98Q327 98 367 135T418 236L466 506H590L501 0H376L388 67Q357 30 314 9T223 -11Q183 -11 147 2L110 -209H-15Z" horiz-adv-x="619" unicode="µ"/>
			<glyph d="M301 710H679V636H599V-210H522V636H419V-210H341V151H301Q225 151 167 185T78 283T47 431Q47 514 78 577T167 675T301 710Z" horiz-adv-x="691" unicode="¶"/>
			<glyph d="M159 390Q191 390 214 367T237 311Q237 279 214 256T159 234Q127 234 104 256T81 311Q81 344 104 367T159 390Z" horiz-adv-x="298" unicode="·"/>
			<glyph d="M154 0H228L219 -39Q274 -58 274 -115Q274 -224 84 -224L96 -155Q144 -155 163 -145T183 -116Q183 -98 171 -91T137 -85Z" horiz-adv-x="450" unicode="¸"/>
			<glyph d="M296 866H332L254 435H161L221 744L110 696L125 787Z" horiz-adv-x="323" unicode="¹"/>
			<glyph d="M267 720Q334 720 377 679T420 575Q420 526 396 487T329 426T236 404Q170 404 127 444T85 548Q85 596 109 635T176 697T267 720ZM260 645Q222 645 195 619T169 555Q169 521 190 500T245 479Q283 479 309 505T335 570Q335 605 314 625T260 645Z" horiz-adv-x="396" unicode="º"/>
			<glyph d="M67 461H200L336 261L135 61H-7L207 268ZM319 461H452L588 261L387 61H245L459 268Z" horiz-adv-x="614" unicode="»"/>
			<glyph d="M270 716H306L228 285H135L195 594L84 546L99 637ZM644 710H752L203 0H95ZM695 428H788L739 154H794L781 79H726L712 0H619L634 79H436L447 144ZM673 306L539 154H647Z" horiz-adv-x="850" unicode="¼"/>
			<glyph d="M270 716H306L228 285H135L195 594L84 546L99 637ZM644 710H752L203 0H95ZM716 436Q780 436 817 405T855 322Q855 277 826 237T746 155L660 82H846L829 0H511L521 54L684 197Q725 232 742 257T759 305Q759 326 744 338T701 351Q643 351 584 298L551 371Q583 402 625 419T716 436Z" horiz-adv-x="905" unicode="½"/>
			<glyph d="M261 720Q322 720 356 692T390 619Q390 581 365 552T297 511Q344 501 366 477T388 413Q388 352 339 313T208 275Q159 275 118 289T54 329L100 400Q150 358 212 358Q252 358 273 373T294 416Q294 446 268 457T181 469L191 540Q247 540 272 557T297 598Q297 616 283 626T244 636Q217 636 188 624T135 595L102 664Q133 689 174 704T261 720ZM721 710H829L280 0H172ZM772 428H865L816 154H871L858 79H803L789 0H696L711 79H513L524 144ZM750 306L616 154H724Z" horiz-adv-x="927" unicode="¾"/>
			<glyph d="M285 517Q317 517 340 494T363 440Q363 407 340 384T285 361Q253 361 230 384T207 440Q207 472 230 494T285 517ZM213 253H323Q317 204 297 170T224 94Q190 66 173 50T145 14T135 -31Q135 -68 159 -89T225 -111Q315 -111 352 -20L447 -73Q419 -143 359 -182T212 -222Q118 -222 63 -176T9 -53Q9 11 38 56T125 143Q167 173 188 197T213 253Z" horiz-adv-x="516" unicode="¿"/>
			<glyph d="M351 710H498L636 0H500L465 200H209L105 0H-38ZM401 568L265 307H446ZM286 921H406L516 769H411Z" horiz-adv-x="688" unicode="À"/>
			<glyph d="M351 710H498L636 0H500L465 200H209L105 0H-38ZM401 568L265 307H446ZM506 921H631L472 769H362Z" horiz-adv-x="688" unicode="Á"/>
			<glyph d="M351 710H498L636 0H500L465 200H209L105 0H-38ZM401 568L265 307H446ZM392 914H519L629 769H523L451 853L348 769H229Z" horiz-adv-x="688" unicode="Â"/>
			<glyph d="M351 710H498L636 0H500L465 200H209L105 0H-38ZM401 568L265 307H446ZM364 893Q385 893 404 887T459 868Q468 865 481 859T502 852T519 850Q536 850 547 860T563 893H643Q630 832 598 800T518 769Q495 769 473 775T426 793Q403 803 390 807T366 812Q331 812 319 769H239Q252 831 285 862T364 893Z" horiz-adv-x="688" unicode="Ã"/>
			<glyph d="M351 710H498L636 0H500L465 200H209L105 0H-38ZM401 568L265 307H446ZM330 917Q358 917 377 898T397 851Q397 823 377 803T330 784Q302 784 283 803T264 851Q264 879 283 898T330 917ZM543 917Q571 917 590 898T609 851Q609 823 590 803T543 784Q514 784 495 803T476 851Q476 879 495 898T543 917Z" horiz-adv-x="688" unicode="Ä"/>
			<glyph d="M351 710H498L636 0H500L465 200H209L105 0H-38ZM401 568L265 307H446ZM448 955Q495 955 523 925T552 853Q552 806 519 772T437 739Q390 739 361 766T332 839Q332 887 365 921T448 955ZM445 887Q425 887 413 875T402 845Q402 829 412 817T440 806Q458 806 470 818T483 849Q483 866 472 876T445 887Z" horiz-adv-x="688" unicode="Å"/>
			<glyph d="M338 710H927L906 591H616L585 413H866L845 298H564L532 119H830L809 0H376L411 200H208L103 0H-38ZM413 591L264 307H430L481 591Z" horiz-adv-x="915" unicode="Æ"/>
			<glyph d="M459 720Q606 720 700 641L644 519Q560 593 456 593Q383 593 324 558T231 465T198 336Q198 272 224 222T300 144T413 117Q512 117 621 187L653 67Q540 -7 412 -10L405 -39Q460 -58 460 -115Q460 -224 270 -224L282 -155Q330 -155 349 -145T369 -116Q369 -98 357 -91T323 -85L339 -6Q254 6 190 49T92 163T57 325Q57 442 110 531T255 670T459 720Z" horiz-adv-x="701" unicode="Ç"/>
			<glyph d="M163 710H588L567 591H277L246 413H527L506 298H225L193 119H491L470 0H37ZM233 921H353L463 769H358Z" horiz-adv-x="576" unicode="È"/>
			<glyph d="M163 710H588L567 591H277L246 413H527L506 298H225L193 119H491L470 0H37ZM453 921H578L419 769H309Z" horiz-adv-x="576" unicode="É"/>
			<glyph d="M163 710H588L567 591H277L246 413H527L506 298H225L193 119H491L470 0H37ZM339 914H466L576 769H470L398 853L295 769H176Z" horiz-adv-x="576" unicode="Ê"/>
			<glyph d="M163 710H588L567 591H277L246 413H527L506 298H225L193 119H491L470 0H37ZM277 917Q305 917 324 898T344 851Q344 823 324 803T277 784Q249 784 230 803T211 851Q211 879 230 898T277 917ZM490 917Q518 917 537 898T556 851Q556 823 537 803T490 784Q461 784 442 803T423 851Q423 879 442 898T490 917Z" horiz-adv-x="576" unicode="Ë"/>
			<glyph d="M163 710H298L172 0H37ZM90 921H210L320 769H215Z" horiz-adv-x="300" unicode="Ì"/>
			<glyph d="M163 710H298L172 0H37ZM310 921H435L276 769H166Z" horiz-adv-x="300" unicode="Í"/>
			<glyph d="M163 710H298L172 0H37ZM196 914H323L433 769H327L255 853L152 769H33Z" horiz-adv-x="300" unicode="Î"/>
			<glyph d="M163 710H298L172 0H37ZM134 917Q162 917 181 898T201 851Q201 823 181 803T134 784Q106 784 87 803T68 851Q68 879 87 898T134 917ZM347 917Q375 917 394 898T413 851Q413 823 394 803T347 784Q318 784 299 803T280 851Q280 879 299 898T347 917Z" horiz-adv-x="300" unicode="Ï"/>
			<glyph d="M175 710H413Q516 710 591 674T706 569T746 406Q746 289 697 197T553 53T322 0H51L104 302H21L39 408H122ZM290 593L257 408H407L389 302H238L205 117H334Q420 117 481 154T573 255T604 394Q604 491 547 542T379 593Z" horiz-adv-x="766" unicode="Ð"/>
			<glyph d="M163 710H293L554 202L644 710H773L647 0H518L256 508L166 0H37ZM409 893Q430 893 449 887T504 868Q513 865 526 859T547 852T564 850Q581 850 592 860T608 893H688Q675 832 643 800T563 769Q540 769 518 775T471 793Q448 803 435 807T411 812Q376 812 364 769H284Q297 831 330 862T409 893Z" horiz-adv-x="774" unicode="Ñ"/>
			<glyph d="M465 720Q567 720 644 680T763 565T806 388Q806 287 760 195T624 47T405 -10Q301 -10 222 31T100 148T57 326Q57 434 106 524T247 667T465 720ZM452 593Q372 593 314 556T227 460T198 333Q198 235 257 176T414 117Q490 117 547 154T634 253T665 383Q665 446 638 493T563 567T452 593ZM325 921H445L555 769H450Z" horiz-adv-x="827" unicode="Ò"/>
			<glyph d="M465 720Q567 720 644 680T763 565T806 388Q806 287 760 195T624 47T405 -10Q301 -10 222 31T100 148T57 326Q57 434 106 524T247 667T465 720ZM452 593Q372 593 314 556T227 460T198 333Q198 235 257 176T414 117Q490 117 547 154T634 253T665 383Q665 446 638 493T563 567T452 593ZM545 921H670L511 769H401Z" horiz-adv-x="827" unicode="Ó"/>
			<glyph d="M465 720Q567 720 644 680T763 565T806 388Q806 287 760 195T624 47T405 -10Q301 -10 222 31T100 148T57 326Q57 434 106 524T247 667T465 720ZM452 593Q372 593 314 556T227 460T198 333Q198 235 257 176T414 117Q490 117 547 154T634 253T665 383Q665 446 638 493T563 567T452 593ZM431 914H558L668 769H562L490 853L387 769H268Z" horiz-adv-x="827" unicode="Ô"/>
			<glyph d="M465 720Q567 720 644 680T763 565T806 388Q806 287 760 195T624 47T405 -10Q301 -10 222 31T100 148T57 326Q57 434 106 524T247 667T465 720ZM452 593Q372 593 314 556T227 460T198 333Q198 235 257 176T414 117Q490 117 547 154T634 253T665 383Q665 446 638 493T563 567T452 593ZM403 893Q424 893 443 887T498 868Q507 865 520 859T541 852T558 850Q575 850 586 860T602 893H682Q669 832 637 800T557 769Q534 769 512 775T465 793Q442 803 429 807T405 812Q370 812 358 769H278Q291 831 324 862T403 893Z" horiz-adv-x="827" unicode="Õ"/>
			<glyph d="M465 720Q567 720 644 680T763 565T806 388Q806 287 760 195T624 47T405 -10Q301 -10 222 31T100 148T57 326Q57 434 106 524T247 667T465 720ZM452 593Q372 593 314 556T227 460T198 333Q198 235 257 176T414 117Q490 117 547 154T634 253T665 383Q665 446 638 493T563 567T452 593ZM369 917Q397 917 416 898T436 851Q436 823 416 803T369 784Q341 784 322 803T303 851Q303 879 322 898T369 917ZM582 917Q610 917 629 898T648 851Q648 823 629 803T582 784Q553 784 534 803T515 851Q515 879 534 898T582 917Z" horiz-adv-x="827" unicode="Ö"/>
			<glyph d="M448 557L519 486L383 350L519 214L448 143L312 279L177 144L106 215L241 350L106 485L177 556L312 421Z" horiz-adv-x="591" unicode="×"/>
			<glyph d="M710 761H827L716 627Q760 583 783 523T806 388Q806 287 760 195T624 47T405 -10Q300 -10 223 31L156 -50H39L149 83Q104 128 80 189T57 326Q57 434 106 524T247 667T465 720Q566 720 643 680ZM452 593Q372 593 314 556T227 460T198 333Q198 249 241 194L554 572Q509 593 452 593ZM624 515L312 138Q356 117 414 117Q490 117 547 154T634 253T665 383Q665 461 624 515Z" horiz-adv-x="827" unicode="Ø"/>
			<glyph d="M152 710H287L214 292Q210 258 210 241Q210 181 245 149T342 117Q417 117 461 158T520 279L596 710H731L653 269Q630 138 548 64T333 -10Q212 -10 143 52T74 224Q74 261 80 297ZM296 921H416L526 769H421Z" horiz-adv-x="723" unicode="Ù"/>
			<glyph d="M152 710H287L214 292Q210 258 210 241Q210 181 245 149T342 117Q417 117 461 158T520 279L596 710H731L653 269Q630 138 548 64T333 -10Q212 -10 143 52T74 224Q74 261 80 297ZM516 921H641L482 769H372Z" horiz-adv-x="723" unicode="Ú"/>
			<glyph d="M152 710H287L214 292Q210 258 210 241Q210 181 245 149T342 117Q417 117 461 158T520 279L596 710H731L653 269Q630 138 548 64T333 -10Q212 -10 143 52T74 224Q74 261 80 297ZM402 914H529L639 769H533L461 853L358 769H239Z" horiz-adv-x="723" unicode="Û"/>
			<glyph d="M152 710H287L214 292Q210 258 210 241Q210 181 245 149T342 117Q417 117 461 158T520 279L596 710H731L653 269Q630 138 548 64T333 -10Q212 -10 143 52T74 224Q74 261 80 297ZM340 917Q368 917 387 898T407 851Q407 823 387 803T340 784Q312 784 293 803T274 851Q274 879 293 898T340 917ZM553 917Q581 917 600 898T619 851Q619 823 600 803T553 784Q524 784 505 803T486 851Q486 879 505 898T553 917Z" horiz-adv-x="723" unicode="Ü"/>
			<glyph d="M89 710H229L338 399L552 710H703L388 277L339 0H202L251 278ZM473 921H598L439 769H329Z" horiz-adv-x="632" unicode="Ý"/>
			<glyph d="M163 710H298L276 587H346Q465 587 526 531T587 379Q587 307 553 249T455 159T297 126H194L172 0H37ZM256 475L214 237H296Q366 237 406 273T446 372Q446 426 413 450T313 475Z" horiz-adv-x="593" unicode="Þ"/>
			<glyph d="M378 758Q471 758 523 711T575 586Q575 524 542 481T453 413Q568 379 568 238Q568 169 540 113T456 24T316 -9Q246 -9 205 13L227 124Q266 100 312 100Q377 100 408 137T440 233Q440 293 407 321T308 349H294L312 451L332 452Q378 455 415 481T452 559Q452 597 429 621T363 645Q321 645 288 616T244 518L151 0H28L123 529Q143 644 211 701T378 758Z" horiz-adv-x="613" unicode="ß"/>
			<glyph d="M309 516Q403 516 458 472T514 343Q514 320 510 293T505 261L458 0H333L344 63Q276 -11 177 -11Q111 -11 68 25T26 128Q26 227 117 265T387 306L389 333Q389 371 364 392T289 413Q210 413 124 362L100 460Q141 484 195 500T309 516ZM375 231Q262 230 209 210T157 144Q157 113 176 98T230 83Q281 83 321 112T370 202ZM200 739H321L415 576H310Z" horiz-adv-x="566" unicode="à"/>
			<glyph d="M309 516Q403 516 458 472T514 343Q514 320 510 293T505 261L458 0H333L344 63Q276 -11 177 -11Q111 -11 68 25T26 128Q26 227 117 265T387 306L389 333Q389 371 364 392T289 413Q210 413 124 362L100 460Q141 484 195 500T309 516ZM375 231Q262 230 209 210T157 144Q157 113 176 98T230 83Q281 83 321 112T370 202ZM398 739H524L356 576H246Z" horiz-adv-x="566" unicode="á"/>
			<glyph d="M309 516Q403 516 458 472T514 343Q514 320 510 293T505 261L458 0H333L344 63Q276 -11 177 -11Q111 -11 68 25T26 128Q26 227 117 265T387 306L389 333Q389 371 364 392T289 413Q210 413 124 362L100 460Q141 484 195 500T309 516ZM375 231Q262 230 209 210T157 144Q157 113 176 98T230 83Q281 83 321 112T370 202ZM298 739H416L521 576H417L349 667L253 576H144Z" horiz-adv-x="566" unicode="â"/>
			<glyph d="M309 516Q403 516 458 472T514 343Q514 320 510 293T505 261L458 0H333L344 63Q276 -11 177 -11Q111 -11 68 25T26 128Q26 227 117 265T387 306L389 333Q389 371 364 392T289 413Q210 413 124 362L100 460Q141 484 195 500T309 516ZM375 231Q262 230 209 210T157 144Q157 113 176 98T230 83Q281 83 321 112T370 202ZM273 722Q292 722 311 716T360 697Q377 689 391 684T416 679Q431 679 440 688T456 722H529Q518 661 489 629T415 598Q378 598 330 622Q313 630 298 635T274 641Q241 641 231 598H158Q169 660 200 691T273 722Z" horiz-adv-x="566" unicode="ã"/>
			<glyph d="M309 516Q403 516 458 472T514 343Q514 320 510 293T505 261L458 0H333L344 63Q276 -11 177 -11Q111 -11 68 25T26 128Q26 227 117 265T387 306L389 333Q389 371 364 392T289 413Q210 413 124 362L100 460Q141 484 195 500T309 516ZM375 231Q262 230 209 210T157 144Q157 113 176 98T230 83Q281 83 321 112T370 202ZM238 734Q266 734 285 715T305 668Q305 640 285 620T238 601Q210 601 191 620T172 668Q172 696 191 715T238 734ZM451 734Q479 734 498 715T517 668Q517 640 498 620T451 601Q422 601 403 620T384 668Q384 696 403 715T451 734Z" horiz-adv-x="566" unicode="ä"/>
			<glyph d="M309 516Q403 516 458 472T514 343Q514 320 510 293T505 261L458 0H333L344 63Q276 -11 177 -11Q111 -11 68 25T26 128Q26 227 117 265T387 306L389 333Q389 371 364 392T289 413Q210 413 124 362L100 460Q141 484 195 500T309 516ZM375 231Q262 230 209 210T157 144Q157 113 176 98T230 83Q281 83 321 112T370 202ZM354 777Q398 777 426 750T454 677Q454 624 418 593T331 562Q285 562 256 589T228 659Q228 712 264 744T354 777ZM346 712Q324 712 311 699T298 665Q298 648 309 637T338 627Q357 627 371 640T385 673Q385 690 374 701T346 712Z" horiz-adv-x="566" unicode="å"/>
			<glyph d="M308 516Q421 516 475 454Q550 516 658 516Q762 516 821 454T881 287Q881 261 877 226H503Q507 159 546 127T649 95Q696 95 738 109T821 149L838 47Q747 -10 631 -10Q558 -10 503 16T417 91Q383 48 329 19T199 -10Q119 -10 72 23T26 127Q26 226 120 265T387 306L389 331Q389 413 288 413Q208 413 124 362L99 460Q140 484 194 500T308 516ZM653 419Q601 419 565 390T514 312H759Q756 359 728 389T653 419ZM375 230Q262 229 209 208T157 142Q157 111 178 96T233 82Q284 82 322 111T370 202Z" horiz-adv-x="919" unicode="æ"/>
			<glyph d="M334 516Q428 516 498 469L453 364Q400 404 335 404Q260 404 215 357T170 239Q170 175 206 138T309 102Q374 102 441 143L462 38Q432 19 390 5T303 -10L296 -39Q351 -58 351 -115Q351 -224 161 -224L173 -155Q221 -155 240 -145T260 -116Q260 -98 248 -91T214 -85L230 -5Q141 10 90 72T39 229Q39 311 75 376T178 479T334 516Z" horiz-adv-x="509" unicode="ç"/>
			<glyph d="M318 516Q422 516 481 454T541 287Q541 261 537 226H163Q167 159 206 127T309 95Q356 95 398 109T481 149L498 47Q407 -10 291 -10Q214 -10 157 19T70 101T40 227Q40 312 74 377T172 479T318 516ZM313 419Q261 419 225 390T174 312H419Q416 359 388 389T313 419ZM197 739H318L412 576H307Z" horiz-adv-x="579" unicode="è"/>
			<glyph d="M318 516Q422 516 481 454T541 287Q541 261 537 226H163Q167 159 206 127T309 95Q356 95 398 109T481 149L498 47Q407 -10 291 -10Q214 -10 157 19T70 101T40 227Q40 312 74 377T172 479T318 516ZM313 419Q261 419 225 390T174 312H419Q416 359 388 389T313 419ZM395 739H521L353 576H243Z" horiz-adv-x="579" unicode="é"/>
			<glyph d="M318 516Q422 516 481 454T541 287Q541 261 537 226H163Q167 159 206 127T309 95Q356 95 398 109T481 149L498 47Q407 -10 291 -10Q214 -10 157 19T70 101T40 227Q40 312 74 377T172 479T318 516ZM313 419Q261 419 225 390T174 312H419Q416 359 388 389T313 419ZM295 739H413L518 576H414L346 667L250 576H141Z" horiz-adv-x="579" unicode="ê"/>
			<glyph d="M318 516Q422 516 481 454T541 287Q541 261 537 226H163Q167 159 206 127T309 95Q356 95 398 109T481 149L498 47Q407 -10 291 -10Q214 -10 157 19T70 101T40 227Q40 312 74 377T172 479T318 516ZM313 419Q261 419 225 390T174 312H419Q416 359 388 389T313 419ZM235 734Q263 734 282 715T302 668Q302 640 282 620T235 601Q207 601 188 620T169 668Q169 696 188 715T235 734ZM448 734Q476 734 495 715T514 668Q514 640 495 620T448 601Q419 601 400 620T381 668Q381 696 400 715T448 734Z" horiz-adv-x="579" unicode="ë"/>
			<glyph d="M118 506H242L153 0H28ZM59 739H180L274 576H169Z" horiz-adv-x="271" unicode="ì"/>
			<glyph d="M118 506H242L153 0H28ZM257 739H383L215 576H105Z" horiz-adv-x="271" unicode="í"/>
			<glyph d="M118 506H242L153 0H28ZM159 744H279L362 576H258L212 672L134 576H25Z" horiz-adv-x="271" unicode="î"/>
			<glyph d="M118 506H242L153 0H28ZM107 739Q137 739 158 718T179 668Q179 637 158 616T107 596Q77 596 56 616T36 668Q36 698 56 718T107 739ZM299 739Q330 739 350 718T371 668Q371 637 350 616T299 596Q269 596 248 616T228 668Q228 698 248 718T299 739Z" horiz-adv-x="271" unicode="ï"/>
			<glyph d="M258 762Q317 726 370 684L500 739L532 665L437 625Q591 471 591 291Q591 206 552 137T446 29T291 -10Q219 -10 161 19T71 104T39 233Q39 311 76 373T176 471T316 506Q390 506 444 459Q398 528 335 583L191 523L159 595L263 639Q224 666 193 683ZM328 400Q258 400 214 355T171 243Q171 180 208 143T306 106Q351 106 386 127T441 186T461 268Q461 329 425 364T328 400Z" horiz-adv-x="628" unicode="ð"/>
			<glyph d="M406 517Q482 517 523 476T565 357Q565 330 560 298L507 0H383L431 271Q436 301 436 321Q436 405 349 405Q292 405 252 368T201 270L153 0H28L118 506H242L229 427Q261 470 307 493T406 517ZM309 722Q328 722 347 716T396 697Q413 689 427 684T452 679Q467 679 476 688T492 722H565Q554 661 525 629T451 598Q414 598 366 622Q349 630 334 635T310 641Q277 641 267 598H194Q205 660 236 691T309 722Z" horiz-adv-x="618" unicode="ñ"/>
			<glyph d="M340 516Q415 516 472 486T560 401T592 277Q592 200 555 134T450 29T291 -10Q218 -10 160 20T71 105T39 235Q39 310 75 374T179 477T340 516ZM326 402Q277 402 241 379T186 320T168 243Q168 179 205 141T304 104Q353 104 389 126T444 185T463 268Q463 329 425 365T326 402ZM229 739H350L444 576H339Z" unicode="ò"/>
			<glyph d="M340 516Q415 516 472 486T560 401T592 277Q592 200 555 134T450 29T291 -10Q218 -10 160 20T71 105T39 235Q39 310 75 374T179 477T340 516ZM326 402Q277 402 241 379T186 320T168 243Q168 179 205 141T304 104Q353 104 389 126T444 185T463 268Q463 329 425 365T326 402ZM427 739H553L385 576H275Z" unicode="ó"/>
			<glyph d="M340 516Q415 516 472 486T560 401T592 277Q592 200 555 134T450 29T291 -10Q218 -10 160 20T71 105T39 235Q39 310 75 374T179 477T340 516ZM326 402Q277 402 241 379T186 320T168 243Q168 179 205 141T304 104Q353 104 389 126T444 185T463 268Q463 329 425 365T326 402ZM327 739H445L550 576H446L378 667L282 576H173Z" unicode="ô"/>
			<glyph d="M340 516Q415 516 472 486T560 401T592 277Q592 200 555 134T450 29T291 -10Q218 -10 160 20T71 105T39 235Q39 310 75 374T179 477T340 516ZM326 402Q277 402 241 379T186 320T168 243Q168 179 205 141T304 104Q353 104 389 126T444 185T463 268Q463 329 425 365T326 402ZM302 722Q321 722 340 716T389 697Q406 689 420 684T445 679Q460 679 469 688T485 722H558Q547 661 518 629T444 598Q407 598 359 622Q342 630 327 635T303 641Q270 641 260 598H187Q198 660 229 691T302 722Z" unicode="õ"/>
			<glyph d="M340 516Q415 516 472 486T560 401T592 277Q592 200 555 134T450 29T291 -10Q218 -10 160 20T71 105T39 235Q39 310 75 374T179 477T340 516ZM326 402Q277 402 241 379T186 320T168 243Q168 179 205 141T304 104Q353 104 389 126T444 185T463 268Q463 329 425 365T326 402ZM267 734Q295 734 314 715T334 668Q334 640 314 620T267 601Q239 601 220 620T201 668Q201 696 220 715T267 734ZM480 734Q508 734 527 715T546 668Q546 640 527 620T480 601Q451 601 432 620T413 668Q413 696 432 715T480 734Z" unicode="ö"/>
			<glyph d="M313 590Q341 590 361 570T381 523Q381 495 361 475T313 455Q285 455 265 475T245 523Q245 551 265 570T313 590ZM88 401H538V300H88ZM313 245Q342 245 361 225T381 178Q381 150 361 130T313 110Q285 110 265 130T245 178Q245 206 264 225T313 245Z" horiz-adv-x="591" unicode="÷"/>
			<glyph d="M504 554H598L519 454Q554 422 573 377T592 278Q592 201 555 135T451 29T293 -10Q227 -10 172 15L117 -54H23L110 56Q76 88 57 133T39 233Q39 309 75 373T179 477T338 516Q404 516 456 493ZM326 404Q276 404 240 381T185 322T166 243Q166 192 190 157L379 396Q353 404 326 404ZM439 353L248 112Q272 102 305 102Q354 102 390 124T445 185T465 268Q465 319 439 353Z" unicode="ø"/>
			<glyph d="M111 506H236L188 232Q183 202 183 179Q183 141 205 119T270 98Q327 98 367 135T418 236L466 506H590L501 0H376L388 67Q357 30 314 9T223 -11Q145 -11 99 32T54 151Q54 183 61 225ZM228 739H349L443 576H338Z" horiz-adv-x="619" unicode="ù"/>
			<glyph d="M111 506H236L188 232Q183 202 183 179Q183 141 205 119T270 98Q327 98 367 135T418 236L466 506H590L501 0H376L388 67Q357 30 314 9T223 -11Q145 -11 99 32T54 151Q54 183 61 225ZM426 739H552L384 576H274Z" horiz-adv-x="619" unicode="ú"/>
			<glyph d="M111 506H236L188 232Q183 202 183 179Q183 141 205 119T270 98Q327 98 367 135T418 236L466 506H590L501 0H376L388 67Q357 30 314 9T223 -11Q145 -11 99 32T54 151Q54 183 61 225ZM326 739H444L549 576H445L377 667L281 576H172Z" horiz-adv-x="619" unicode="û"/>
			<glyph d="M111 506H236L188 232Q183 202 183 179Q183 141 205 119T270 98Q327 98 367 135T418 236L466 506H590L501 0H376L388 67Q357 30 314 9T223 -11Q145 -11 99 32T54 151Q54 183 61 225ZM266 734Q294 734 313 715T333 668Q333 640 313 620T266 601Q238 601 219 620T200 668Q200 696 219 715T266 734ZM479 734Q507 734 526 715T545 668Q545 640 526 620T479 601Q450 601 431 620T412 668Q412 696 431 715T479 734Z" horiz-adv-x="619" unicode="ü"/>
			<glyph d="M39 506H170L246 156L427 506H561L258 -50Q212 -135 159 -173T29 -212Q-29 -212 -62 -198L-28 -92Q-9 -100 22 -100Q96 -100 138 -27L162 14ZM378 739H504L336 576H226Z" horiz-adv-x="518" unicode="ý"/>
			<glyph d="M161 752H286L233 453Q294 516 393 516Q456 516 505 486T582 403T610 284Q610 201 575 134T478 28T338 -10Q280 -10 234 15T168 87L116 -210H-8ZM354 403Q283 403 239 356T195 236Q195 178 230 140T322 103Q368 103 404 125T460 185T480 271Q480 328 445 365T354 403Z" horiz-adv-x="649" unicode="þ"/>
			<glyph d="M39 506H170L246 156L427 506H561L258 -50Q212 -135 159 -173T29 -212Q-29 -212 -62 -198L-28 -92Q-9 -100 22 -100Q96 -100 138 -27L162 14ZM218 734Q246 734 265 715T285 668Q285 640 265 620T218 601Q190 601 171 620T152 668Q152 696 171 715T218 734ZM431 734Q459 734 478 715T497 668Q497 640 478 620T431 601Q402 601 383 620T364 668Q364 696 383 715T431 734Z" horiz-adv-x="518" unicode="ÿ"/>
			<glyph d="M351 710H498L636 0H500L465 200H209L105 0H-38ZM401 568L265 307H446ZM289 884H608L593 802H274Z" horiz-adv-x="688" unicode="Ā"/>
			<glyph d="M309 516Q403 516 458 472T514 343Q514 320 510 293T505 261L458 0H333L344 63Q276 -11 177 -11Q111 -11 68 25T26 128Q26 227 117 265T387 306L389 333Q389 371 364 392T289 413Q210 413 124 362L100 460Q141 484 195 500T309 516ZM375 231Q262 230 209 210T157 144Q157 113 176 98T230 83Q281 83 321 112T370 202ZM190 695H509L494 613H175Z" horiz-adv-x="566" unicode="ā"/>
			<glyph d="M351 710H498L636 0H500L465 200H209L105 0H-38ZM401 568L265 307H446ZM298 908H387Q386 904 386 895Q386 872 402 860T453 849Q523 849 534 908H623Q611 845 566 808T441 771Q371 771 333 800T295 877Q295 893 298 908Z" horiz-adv-x="688" unicode="Ă"/>
			<glyph d="M309 516Q403 516 458 472T514 343Q514 320 510 293T505 261L458 0H333L344 63Q276 -11 177 -11Q111 -11 68 25T26 128Q26 227 117 265T387 306L389 333Q389 371 364 392T289 413Q210 413 124 362L100 460Q141 484 195 500T309 516ZM375 231Q262 230 209 210T157 144Q157 113 176 98T230 83Q281 83 321 112T370 202ZM194 739H284Q282 731 282 724Q282 692 301 676T352 660Q425 660 436 739H524Q512 665 466 621T340 578Q271 578 231 614T191 709Q191 724 194 739Z" horiz-adv-x="566" unicode="ă"/>
			<glyph d="M351 710H498L636 0H500L465 200H209L105 0H-38ZM401 568L265 307H446ZM563 0H636Q604 -17 584 -41T564 -92Q564 -111 575 -121T608 -132Q623 -132 648 -123L653 -190Q616 -204 578 -204Q529 -204 501 -179T473 -113Q473 -42 563 0Z" horiz-adv-x="688" unicode="Ą"/>
			<glyph d="M309 516Q403 516 458 472T514 343Q514 320 510 293T505 261L458 0Q426 -17 406 -41T386 -92Q386 -111 397 -121T430 -132Q445 -132 470 -123L475 -190Q438 -204 400 -204Q351 -204 323 -179T295 -113Q295 -42 385 0H333L344 63Q276 -11 177 -11Q111 -11 68 25T26 128Q26 227 117 265T387 306L389 333Q389 371 364 392T289 413Q210 413 124 362L100 460Q141 484 195 500T309 516ZM375 231Q262 230 209 210T157 144Q157 113 176 98T230 83Q281 83 321 112T370 202Z" horiz-adv-x="566" unicode="ą"/>
			<glyph d="M459 720Q606 720 700 641L644 519Q560 593 456 593Q383 593 324 558T231 465T198 336Q198 272 224 222T300 144T413 117Q512 117 621 187L653 67Q536 -10 400 -10Q299 -10 221 31T100 148T57 325Q57 442 110 531T255 670T459 720ZM531 921H656L497 769H387Z" horiz-adv-x="701" unicode="Ć"/>
			<glyph d="M334 516Q428 516 498 469L453 364Q400 404 335 404Q260 404 215 357T170 239Q170 175 206 138T309 102Q374 102 441 143L462 38Q430 17 383 3T287 -10Q212 -10 156 19T69 103T39 229Q39 311 75 376T178 479T334 516ZM395 739H521L353 576H243Z" horiz-adv-x="509" unicode="ć"/>
			<glyph d="M459 720Q606 720 700 641L644 519Q560 593 456 593Q383 593 324 558T231 465T198 336Q198 272 224 222T300 144T413 117Q512 117 621 187L653 67Q536 -10 400 -10Q299 -10 221 31T100 148T57 325Q57 442 110 531T255 670T459 720ZM417 914H544L654 769H548L476 853L373 769H254Z" horiz-adv-x="701" unicode="Ĉ"/>
			<glyph d="M334 516Q428 516 498 469L453 364Q400 404 335 404Q260 404 215 357T170 239Q170 175 206 138T309 102Q374 102 441 143L462 38Q430 17 383 3T287 -10Q212 -10 156 19T69 103T39 229Q39 311 75 376T178 479T334 516ZM295 739H413L518 576H414L346 667L250 576H141Z" horiz-adv-x="509" unicode="ĉ"/>
			<glyph d="M459 720Q606 720 700 641L644 519Q560 593 456 593Q383 593 324 558T231 465T198 336Q198 272 224 222T300 144T413 117Q512 117 621 187L653 67Q536 -10 400 -10Q299 -10 221 31T100 148T57 325Q57 442 110 531T255 670T459 720ZM477 931Q509 931 531 908T553 854Q553 822 531 800T477 778Q445 778 423 800T401 854Q401 886 423 908T477 931Z" horiz-adv-x="701" unicode="Ċ"/>
			<glyph d="M334 516Q428 516 498 469L453 364Q400 404 335 404Q260 404 215 357T170 239Q170 175 206 138T309 102Q374 102 441 143L462 38Q430 17 383 3T287 -10Q212 -10 156 19T69 103T39 229Q39 311 75 376T178 479T334 516ZM345 745Q377 745 399 722T421 668Q421 636 399 614T345 592Q313 592 291 614T269 668Q269 700 291 722T345 745Z" horiz-adv-x="509" unicode="ċ"/>
			<glyph d="M459 720Q606 720 700 641L644 519Q560 593 456 593Q383 593 324 558T231 465T198 336Q198 272 224 222T300 144T413 117Q512 117 621 187L653 67Q536 -10 400 -10Q299 -10 221 31T100 148T57 325Q57 442 110 531T255 670T459 720ZM290 919H396L468 835L571 919H690L527 774H400Z" horiz-adv-x="701" unicode="Č"/>
			<glyph d="M334 516Q428 516 498 469L453 364Q400 404 335 404Q260 404 215 357T170 239Q170 175 206 138T309 102Q374 102 441 143L462 38Q430 17 383 3T287 -10Q212 -10 156 19T69 103T39 229Q39 311 75 376T178 479T334 516ZM170 739H274L342 648L438 739H547L393 576H275Z" horiz-adv-x="509" unicode="č"/>
			<glyph d="M162 710H400Q503 710 578 674T693 569T733 406Q733 289 684 197T540 53T309 0H38ZM277 593L192 117H321Q407 117 468 154T560 255T591 394Q591 491 534 542T366 593ZM284 919H390L462 835L565 919H684L521 774H394Z" horiz-adv-x="752" unicode="Ď"/>
			<glyph d="M538 752H663L532 -1H407L417 55Q388 23 347 6T259 -10Q194 -10 144 20T66 104T39 228Q39 312 74 377T172 479T310 516Q371 516 415 493T482 428ZM323 403Q277 403 241 381T186 322T166 239Q166 179 201 141T295 103Q341 103 377 125T433 184T453 265Q453 324 418 363T323 403ZM761 752H883L772 539H666Z" horiz-adv-x="766" unicode="ď"/>
			<glyph d="M175 710H413Q516 710 591 674T706 569T746 406Q746 289 697 197T553 53T322 0H51L104 302H21L39 408H122ZM290 593L257 408H407L389 302H238L205 117H334Q420 117 481 154T573 255T604 394Q604 491 547 542T379 593Z" horiz-adv-x="766" unicode="Đ"/>
			<glyph d="M536 752H661L645 662H710L693 569H629L530 -1H405L415 56Q386 23 345 6T258 -10Q193 -10 143 20T65 103T37 223Q37 300 73 364T171 467T308 505Q370 505 414 479T478 407L506 569H339L356 662H521ZM320 392Q279 392 244 372T188 317T168 238Q168 179 202 141T295 104Q338 104 373 125T429 181T450 259Q450 314 415 353T320 392Z" horiz-adv-x="644" unicode="đ"/>
			<glyph d="M163 710H588L567 591H277L246 413H527L506 298H225L193 119H491L470 0H37ZM236 884H555L540 802H221Z" horiz-adv-x="576" unicode="Ē"/>
			<glyph d="M318 516Q422 516 481 454T541 287Q541 261 537 226H163Q167 159 206 127T309 95Q356 95 398 109T481 149L498 47Q407 -10 291 -10Q214 -10 157 19T70 101T40 227Q40 312 74 377T172 479T318 516ZM313 419Q261 419 225 390T174 312H419Q416 359 388 389T313 419ZM187 695H506L491 613H172Z" horiz-adv-x="579" unicode="ē"/>
			<glyph d="M163 710H588L567 591H277L246 413H527L506 298H225L193 119H491L470 0H37ZM245 908H334Q333 904 333 895Q333 872 349 860T400 849Q470 849 481 908H570Q558 845 513 808T388 771Q318 771 280 800T242 877Q242 893 245 908Z" horiz-adv-x="576" unicode="Ĕ"/>
			<glyph d="M318 516Q422 516 481 454T541 287Q541 261 537 226H163Q167 159 206 127T309 95Q356 95 398 109T481 149L498 47Q407 -10 291 -10Q214 -10 157 19T70 101T40 227Q40 312 74 377T172 479T318 516ZM313 419Q261 419 225 390T174 312H419Q416 359 388 389T313 419ZM191 739H281Q279 731 279 724Q279 692 298 676T349 660Q422 660 433 739H521Q509 665 463 621T337 578Q268 578 228 614T188 709Q188 724 191 739Z" horiz-adv-x="579" unicode="ĕ"/>
			<glyph d="M163 710H588L567 591H277L246 413H527L506 298H225L193 119H491L470 0H37ZM399 931Q431 931 453 908T475 854Q475 822 453 800T399 778Q367 778 345 800T323 854Q323 886 345 908T399 931Z" horiz-adv-x="576" unicode="Ė"/>
			<glyph d="M318 516Q422 516 481 454T541 287Q541 261 537 226H163Q167 159 206 127T309 95Q356 95 398 109T481 149L498 47Q407 -10 291 -10Q214 -10 157 19T70 101T40 227Q40 312 74 377T172 479T318 516ZM313 419Q261 419 225 390T174 312H419Q416 359 388 389T313 419ZM345 745Q377 745 399 722T421 668Q421 636 399 614T345 592Q313 592 291 614T269 668Q269 700 291 722T345 745Z" horiz-adv-x="579" unicode="ė"/>
			<glyph d="M163 710H588L567 591H277L246 413H527L506 298H225L193 119H491L470 0H37ZM396 0H469Q437 -17 417 -41T397 -92Q397 -111 408 -121T441 -132Q456 -132 481 -123L486 -190Q449 -204 411 -204Q362 -204 334 -179T306 -113Q306 -42 396 0Z" horiz-adv-x="576" unicode="Ę"/>
			<glyph d="M317 516Q422 516 481 454T541 289Q541 261 537 226H161Q165 162 204 128T314 95Q360 95 399 109T480 149L498 47L473 33Q410 -3 378 -29T346 -92Q346 -111 357 -121T390 -132Q405 -132 430 -123L435 -190Q398 -204 360 -204Q311 -204 283 -179T255 -114Q255 -51 327 -8Q303 -10 291 -10Q215 -10 158 19T70 102T39 227Q39 308 73 374T171 478T317 516ZM313 419Q265 419 227 390T173 312H418Q415 359 387 389T313 419Z" horiz-adv-x="579" unicode="ę"/>
			<glyph d="M163 710H588L567 591H277L246 413H527L506 298H225L193 119H491L470 0H37ZM212 919H318L390 835L493 919H612L449 774H322Z" horiz-adv-x="576" unicode="Ě"/>
			<glyph d="M318 516Q422 516 481 454T541 287Q541 261 537 226H163Q167 159 206 127T309 95Q356 95 398 109T481 149L498 47Q407 -10 291 -10Q214 -10 157 19T70 101T40 227Q40 312 74 377T172 479T318 516ZM313 419Q261 419 225 390T174 312H419Q416 359 388 389T313 419ZM170 739H274L342 648L438 739H547L393 576H275Z" horiz-adv-x="579" unicode="ě"/>
			<glyph d="M467 720Q611 720 726 639L667 522Q622 555 573 574T464 593Q387 593 326 558T231 462T197 324Q197 225 251 169T395 113Q478 113 534 156T613 262H410L430 370H758L692 -1H569L584 80Q502 -9 362 -9Q273 -9 203 30T94 141T55 312Q55 429 106 522T252 667T467 720ZM443 914H570L680 769H574L502 853L399 769H280Z" horiz-adv-x="789" unicode="Ĝ"/>
			<glyph d="M309 516Q367 516 412 491T483 417L500 506H624L539 22Q516 -103 447 -161T251 -220Q121 -220 25 -161L70 -51Q155 -109 251 -109Q324 -109 363 -75T415 24L427 86Q396 45 352 24T255 4Q192 4 143 31T66 110T39 233Q39 313 73 377T168 479T309 516ZM328 409Q282 409 245 388T187 330T166 245Q166 184 202 147T299 111Q345 111 381 133T437 193T458 275Q458 335 422 372T328 409ZM332 739H450L555 576H451L383 667L287 576H178Z" horiz-adv-x="653" unicode="ĝ"/>
			<glyph d="M467 720Q611 720 726 639L667 522Q622 555 573 574T464 593Q387 593 326 558T231 462T197 324Q197 225 251 169T395 113Q478 113 534 156T613 262H410L430 370H758L692 -1H569L584 80Q502 -9 362 -9Q273 -9 203 30T94 141T55 312Q55 429 106 522T252 667T467 720ZM349 908H438Q437 904 437 895Q437 872 453 860T504 849Q574 849 585 908H674Q662 845 617 808T492 771Q422 771 384 800T346 877Q346 893 349 908Z" horiz-adv-x="789" unicode="Ğ"/>
			<glyph d="M309 516Q367 516 412 491T483 417L500 506H624L539 22Q516 -103 447 -161T251 -220Q121 -220 25 -161L70 -51Q155 -109 251 -109Q324 -109 363 -75T415 24L427 86Q396 45 352 24T255 4Q192 4 143 31T66 110T39 233Q39 313 73 377T168 479T309 516ZM328 409Q282 409 245 388T187 330T166 245Q166 184 202 147T299 111Q345 111 381 133T437 193T458 275Q458 335 422 372T328 409ZM228 739H318Q316 731 316 724Q316 692 335 676T386 660Q459 660 470 739H558Q546 665 500 621T374 578Q305 578 265 614T225 709Q225 724 228 739Z" horiz-adv-x="653" unicode="ğ"/>
			<glyph d="M467 720Q611 720 726 639L667 522Q622 555 573 574T464 593Q387 593 326 558T231 462T197 324Q197 225 251 169T395 113Q478 113 534 156T613 262H410L430 370H758L692 -1H569L584 80Q502 -9 362 -9Q273 -9 203 30T94 141T55 312Q55 429 106 522T252 667T467 720ZM503 931Q535 931 557 908T579 854Q579 822 557 800T503 778Q471 778 449 800T427 854Q427 886 449 908T503 931Z" horiz-adv-x="789" unicode="Ġ"/>
			<glyph d="M309 516Q367 516 412 491T483 417L500 506H624L539 22Q516 -103 447 -161T251 -220Q121 -220 25 -161L70 -51Q155 -109 251 -109Q324 -109 363 -75T415 24L427 86Q396 45 352 24T255 4Q192 4 143 31T66 110T39 233Q39 313 73 377T168 479T309 516ZM328 409Q282 409 245 388T187 330T166 245Q166 184 202 147T299 111Q345 111 381 133T437 193T458 275Q458 335 422 372T328 409ZM382 745Q414 745 436 722T458 668Q458 636 436 614T382 592Q350 592 328 614T306 668Q306 700 328 722T382 745Z" horiz-adv-x="653" unicode="ġ"/>
			<glyph d="M467 720Q611 720 726 639L667 522Q622 555 573 574T464 593Q387 593 326 558T231 462T197 324Q197 225 251 169T395 113Q478 113 534 156T613 262H410L430 370H758L692 -1H569L584 80Q502 -9 362 -9Q273 -9 203 30T94 141T55 312Q55 429 106 522T252 667T467 720ZM306 -49H430L347 -220H238Z" horiz-adv-x="789" unicode="Ģ"/>
			<glyph d="M309 516Q367 516 412 491T483 417L500 506H624L539 22Q516 -103 447 -161T251 -220Q121 -220 25 -161L70 -51Q155 -109 251 -109Q324 -109 363 -75T415 24L427 86Q396 45 352 24T255 4Q192 4 143 31T66 110T39 233Q39 313 73 377T168 479T309 516ZM328 409Q282 409 245 388T187 330T166 245Q166 184 202 147T299 111Q345 111 381 133T437 193T458 275Q458 335 422 372T328 409ZM392 754H495L395 576H275Z" horiz-adv-x="653" unicode="ģ"/>
			<glyph d="M163 710H298L245 414H567L620 710H754L628 0H494L547 296H225L172 0H37ZM422 914H549L659 769H553L481 853L378 769H259Z" horiz-adv-x="756" unicode="Ĥ"/>
			<glyph d="M161 752H286L229 429Q262 472 309 494T413 517Q485 517 526 475T568 359Q568 329 561 297L509 0H384L432 274Q437 302 437 320Q437 361 416 383T353 405Q295 405 253 368T202 271L154 0H29ZM189 939H316L426 794H320L248 878L145 794H26Z" horiz-adv-x="620" unicode="ĥ"/>
			<glyph d="M163 710H298L282 619H604L620 710H754L628 0H494L547 296H225L172 0H37ZM263 513L245 414H567L585 513Z" horiz-adv-x="756" unicode="Ħ"/>
			<glyph d="M161 752H286L270 662H431L414 569H254L226 413Q259 456 306 478T410 501Q482 501 523 459T565 343Q565 313 558 281L509 0H384L429 258Q434 286 434 304Q434 345 413 367T350 389Q292 389 250 352T199 254L154 0H29L129 569H63L79 662H145Z" horiz-adv-x="620" unicode="ħ"/>
			<glyph d="M163 710H298L172 0H37ZM168 893Q189 893 208 887T263 868Q272 865 285 859T306 852T323 850Q340 850 351 860T367 893H447Q434 832 402 800T322 769Q299 769 277 775T230 793Q207 803 194 807T170 812Q135 812 123 769H43Q56 831 89 862T168 893Z" horiz-adv-x="300" unicode="Ĩ"/>
			<glyph d="M118 506H242L153 0H28ZM136 722Q154 722 170 716T212 697Q231 687 242 683T264 679Q278 679 285 688T298 722H368Q357 661 330 629T262 598Q244 598 227 604T189 622Q173 630 159 635T137 641Q123 641 115 631T101 598H32Q43 660 71 691T136 722Z" horiz-adv-x="271" unicode="ĩ"/>
			<glyph d="M163 710H298L172 0H37ZM93 884H412L397 802H78Z" horiz-adv-x="300" unicode="Ī"/>
			<glyph d="M118 506H242L153 0H28ZM65 695H350L335 613H50Z" horiz-adv-x="271" unicode="ī"/>
			<glyph d="M163 710H298L172 0H37ZM102 908H191Q190 904 190 895Q190 872 206 860T257 849Q327 849 338 908H427Q415 845 370 808T245 771Q175 771 137 800T99 877Q99 893 102 908Z" horiz-adv-x="300" unicode="Ĭ"/>
			<glyph d="M118 506H242L153 0H28ZM65 736H154Q153 729 153 717Q153 687 166 671T207 655Q271 655 281 736H369Q358 665 316 621T199 578Q134 578 98 611T62 704Q62 721 65 736Z" horiz-adv-x="271" unicode="ĭ"/>
			<glyph d="M163 710H298L172 0H37ZM98 0H171Q139 -17 119 -41T99 -92Q99 -111 110 -121T143 -132Q158 -132 183 -123L188 -190Q151 -204 113 -204Q64 -204 36 -179T8 -113Q8 -42 98 0Z" horiz-adv-x="300" unicode="Į"/>
			<glyph d="M118 506H242L153 0H28ZM207 745Q239 745 261 722T283 668Q283 636 261 614T207 592Q175 592 153 614T131 668Q131 700 153 722T207 745ZM80 0H153Q121 -17 101 -41T81 -92Q81 -111 92 -121T125 -132Q140 -132 165 -123L170 -190Q133 -204 95 -204Q46 -204 18 -179T-10 -113Q-10 -42 80 0Z" horiz-adv-x="271" unicode="į"/>
			<glyph d="M163 710H298L172 0H37ZM256 931Q288 931 310 908T332 854Q332 822 310 800T256 778Q224 778 202 800T180 854Q180 886 202 908T256 931Z" horiz-adv-x="300" unicode="İ"/>
			<glyph d="M118 506H242L153 0H28Z" horiz-adv-x="271" unicode="ı"/>
			<glyph d="M163 710H298L172 0H37ZM590 710H725L644 249Q620 112 561 51T396 -10Q321 -10 267 17L302 133Q348 111 388 111Q440 111 467 142T508 247Z" horiz-adv-x="716" unicode="Ĳ"/>
			<glyph d="M118 506H242L153 0H28ZM207 745Q239 745 261 722T283 668Q283 636 261 614T207 592Q175 592 153 614T131 668Q131 700 153 722T207 745ZM391 506H515L419 -46Q403 -133 361 -175T251 -217Q196 -217 159 -203L180 -95Q209 -105 234 -105Q258 -105 273 -86T297 -23ZM480 745Q512 745 534 722T556 668Q556 636 534 614T480 592Q448 592 426 614T404 668Q404 700 426 722T480 745Z" horiz-adv-x="545" unicode="ĳ"/>
			<glyph d="M290 710H425L344 249Q320 112 261 51T96 -10Q21 -10 -33 17L2 133Q48 111 88 111Q140 111 167 142T208 247ZM322 914H449L559 769H453L381 853L278 769H159Z" horiz-adv-x="416" unicode="Ĵ"/>
			<glyph d="M120 506H244L148 -46Q132 -133 90 -175T-20 -217Q-75 -217 -112 -203L-91 -95Q-62 -105 -37 -105Q-13 -105 2 -86T26 -23ZM161 744H281L364 576H260L214 672L136 576H27Z" horiz-adv-x="274" unicode="ĵ"/>
			<glyph d="M163 710H298L237 363L563 710H726L386 357L624 0H466L237 362L172 0H37ZM256 -49H380L297 -220H188Z" horiz-adv-x="679" unicode="Ķ"/>
			<glyph d="M161 752H286L200 263L432 506H592L335 258L509 0H361L199 254L154 0H29ZM194 -49H318L235 -220H126Z" horiz-adv-x="560" unicode="ķ"/>
			<glyph d="M118 506H242L199 263L441 506H591L332 256L510 0H369L198 254L153 0H28Z" horiz-adv-x="561" unicode="ĸ"/>
			<glyph d="M163 710H298L193 121H480L459 0H37ZM322 921H447L288 769H178Z" horiz-adv-x="527" unicode="Ĺ"/>
			<glyph d="M158 752H282L179 165Q176 153 176 138Q176 117 186 108T216 99Q236 99 261 108L265 5Q224 -10 178 -10Q117 -10 82 20T48 110Q48 130 53 155ZM324 946H449L290 794H180Z" horiz-adv-x="310" unicode="ĺ"/>
			<glyph d="M163 710H298L193 121H480L459 0H37ZM190 -49H314L231 -220H122Z" horiz-adv-x="527" unicode="Ļ"/>
			<glyph d="M158 752H282L179 165Q176 153 176 138Q176 117 186 108T216 99Q236 99 261 108L265 5Q224 -10 178 -10Q117 -10 82 20T48 110Q48 130 53 155ZM80 -49H204L121 -220H12Z" horiz-adv-x="310" unicode="ļ"/>
			<glyph d="M163 710H298L193 121H480L459 0H37ZM458 710H580L469 497H363Z" horiz-adv-x="527" unicode="Ľ"/>
			<glyph d="M158 752H282L179 165Q176 153 176 138Q176 117 186 108T216 99Q236 99 261 108L265 5Q224 -10 178 -10Q117 -10 82 20T48 110Q48 130 53 155ZM382 752H504L393 539H287Z" horiz-adv-x="386" unicode="ľ"/>
			<glyph d="M163 710H298L193 121H480L459 0H37ZM436 468Q468 468 490 445T512 391Q512 359 490 337T436 315Q404 315 382 337T360 391Q360 423 382 445T436 468Z" horiz-adv-x="527" unicode="Ŀ"/>
			<glyph d="M158 752H282L179 165Q176 153 176 138Q176 117 186 108T216 99Q236 99 261 108L265 5Q224 -10 178 -10Q117 -10 82 20T48 110Q48 130 53 155ZM345 483Q377 483 399 460T421 406Q421 374 399 352T345 330Q313 330 291 352T269 406Q269 438 291 460T345 483Z" horiz-adv-x="368" unicode="ŀ"/>
			<glyph d="M168 710H303L258 457L371 521L350 395L236 330L198 121H485L464 0H42L85 244L10 201L31 327L108 371Z" horiz-adv-x="532" unicode="Ł"/>
			<glyph d="M159 752H283L234 474L325 520L304 398L213 352L180 165Q177 153 177 138Q177 117 187 108T217 99Q237 99 262 108L266 5Q225 -10 179 -10Q118 -10 83 20T49 110Q49 130 54 155L76 283L6 247L27 369L98 405Z" horiz-adv-x="311" unicode="ł"/>
			<glyph d="M163 710H293L554 202L644 710H773L647 0H518L256 508L166 0H37ZM551 921H676L517 769H407Z" horiz-adv-x="774" unicode="Ń"/>
			<glyph d="M406 517Q482 517 523 476T565 357Q565 330 560 298L507 0H383L431 271Q436 301 436 321Q436 405 349 405Q292 405 252 368T201 270L153 0H28L118 506H242L229 427Q261 470 307 493T406 517ZM434 739H560L392 576H282Z" horiz-adv-x="618" unicode="ń"/>
			<glyph d="M163 710H293L554 202L644 710H773L647 0H518L256 508L166 0H37ZM279 -49H403L320 -220H211Z" horiz-adv-x="774" unicode="Ņ"/>
			<glyph d="M406 517Q482 517 523 476T565 357Q565 330 560 298L507 0H383L431 271Q436 301 436 321Q436 405 349 405Q292 405 252 368T201 270L153 0H28L118 506H242L229 427Q261 470 307 493T406 517ZM205 -49H329L246 -220H137Z" horiz-adv-x="618" unicode="ņ"/>
			<glyph d="M163 710H293L554 202L644 710H773L647 0H518L256 508L166 0H37ZM310 919H416L488 835L591 919H710L547 774H420Z" horiz-adv-x="774" unicode="Ň"/>
			<glyph d="M406 517Q482 517 523 476T565 357Q565 330 560 298L507 0H383L431 271Q436 301 436 321Q436 405 349 405Q292 405 252 368T201 270L153 0H28L118 506H242L229 427Q261 470 307 493T406 517ZM209 739H313L381 648L477 739H586L432 576H314Z" horiz-adv-x="618" unicode="ň"/>
			<glyph d="M543 517Q619 517 660 476T702 357Q702 330 697 298L644 0H520L568 271Q573 301 573 321Q573 405 486 405Q429 405 389 368T338 270L290 0H165L255 506H379L366 427Q398 470 444 493T543 517ZM171 710H302L182 490H75Z" horiz-adv-x="755" unicode="ŉ"/>
			<glyph d="M163 710H293L553 202L565 268L644 710H773L734 489L646 -6Q628 -109 561 -164T385 -220Q320 -220 267 -199L307 -92Q342 -108 383 -108Q488 -108 517 2L256 508L166 0H37Z" horiz-adv-x="774" unicode="Ŋ"/>
			<glyph d="M406 517Q482 517 523 476T565 357Q565 330 560 298L525 101L501 -37Q484 -130 440 -173T324 -217Q278 -217 239 -205L275 -98Q292 -105 311 -105Q339 -105 355 -86T379 -23L383 0L399 90L406 130L431 271Q436 301 436 321Q436 405 349 405Q292 405 252 368T201 270L153 0H28L118 506H242L229 427Q261 470 307 493T406 517Z" horiz-adv-x="618" unicode="ŋ"/>
			<glyph d="M465 720Q567 720 644 680T763 565T806 388Q806 287 760 195T624 47T405 -10Q301 -10 222 31T100 148T57 326Q57 434 106 524T247 667T465 720ZM452 593Q372 593 314 556T227 460T198 333Q198 235 257 176T414 117Q490 117 547 154T634 253T665 383Q665 446 638 493T563 567T452 593ZM328 884H647L632 802H313Z" horiz-adv-x="827" unicode="Ō"/>
			<glyph d="M340 516Q415 516 472 486T560 401T592 277Q592 200 555 134T450 29T291 -10Q218 -10 160 20T71 105T39 235Q39 310 75 374T179 477T340 516ZM326 402Q277 402 241 379T186 320T168 243Q168 179 205 141T304 104Q353 104 389 126T444 185T463 268Q463 329 425 365T326 402ZM219 695H538L523 613H204Z" unicode="ō"/>
			<glyph d="M465 720Q567 720 644 680T763 565T806 388Q806 287 760 195T624 47T405 -10Q301 -10 222 31T100 148T57 326Q57 434 106 524T247 667T465 720ZM452 593Q372 593 314 556T227 460T198 333Q198 235 257 176T414 117Q490 117 547 154T634 253T665 383Q665 446 638 493T563 567T452 593ZM337 908H426Q425 904 425 895Q425 872 441 860T492 849Q562 849 573 908H662Q650 845 605 808T480 771Q410 771 372 800T334 877Q334 893 337 908Z" horiz-adv-x="827" unicode="Ŏ"/>
			<glyph d="M340 516Q415 516 472 486T560 401T592 277Q592 200 555 134T450 29T291 -10Q218 -10 160 20T71 105T39 235Q39 310 75 374T179 477T340 516ZM326 402Q277 402 241 379T186 320T168 243Q168 179 205 141T304 104Q353 104 389 126T444 185T463 268Q463 329 425 365T326 402ZM223 739H313Q311 731 311 724Q311 692 330 676T381 660Q454 660 465 739H553Q541 665 495 621T369 578Q300 578 260 614T220 709Q220 724 223 739Z" unicode="ŏ"/>
			<glyph d="M465 720Q567 720 644 680T763 565T806 388Q806 287 760 195T624 47T405 -10Q301 -10 222 31T100 148T57 326Q57 434 106 524T247 667T465 720ZM452 593Q372 593 314 556T227 460T198 333Q198 235 257 176T414 117Q490 117 547 154T634 253T665 383Q665 446 638 493T563 567T452 593ZM446 921H566L415 769H308ZM630 921H751L600 769H492Z" horiz-adv-x="827" unicode="Ő"/>
			<glyph d="M340 516Q415 516 472 486T560 401T592 277Q592 200 555 134T450 29T291 -10Q218 -10 160 20T71 105T39 235Q39 310 75 374T179 477T340 516ZM326 402Q277 402 241 379T186 320T168 243Q168 179 205 141T304 104Q353 104 389 126T444 185T463 268Q463 329 425 365T326 402ZM330 735H450L304 576H197ZM514 735H634L488 576H381Z" unicode="ő"/>
			<glyph d="M458 720Q538 720 602 690T710 609L728 710H1153L1132 591H842L811 413H1092L1071 298H790L758 119H1056L1035 0H602L613 64Q563 29 504 9T381 -10Q288 -10 214 30T97 143T55 315Q55 426 109 519T255 666T458 720ZM454 591Q383 591 324 556T231 462T197 331Q197 268 223 220T296 145T406 119Q479 119 538 153T630 247T664 378Q664 441 637 489T562 564T454 591Z" horiz-adv-x="1141" unicode="Œ"/>
			<glyph d="M334 516Q399 516 449 492T532 426Q568 469 622 492T743 516Q847 516 906 454T966 287Q966 261 962 226H588Q592 159 631 127T734 95Q781 95 823 109T906 149L923 47Q832 -10 716 -10Q646 -10 593 14T508 83Q470 39 413 14T286 -10Q214 -10 158 20T71 105T40 235Q40 310 75 374T177 477T334 516ZM738 419Q686 419 650 390T599 312H844Q841 359 813 389T738 419ZM327 402Q277 402 241 379T187 320T169 243Q169 179 205 141T305 104Q353 104 389 126T444 185T463 268Q463 329 426 365T327 402Z" horiz-adv-x="1004" unicode="œ"/>
			<glyph d="M163 710H410Q513 710 569 659T625 523Q625 442 579 381T451 294L590 0H438L321 277H221L172 0H37ZM278 599L240 383H348Q407 383 445 414T484 506Q484 554 455 576T375 599ZM468 921H593L434 769H324Z" horiz-adv-x="645" unicode="Ŕ"/>
			<glyph d="M363 516Q393 516 424 505L385 385Q362 395 334 395Q222 395 194 240L152 0H28L118 506H241L227 424Q281 516 363 516ZM341 739H467L299 576H189Z" horiz-adv-x="384" unicode="ŕ"/>
			<glyph d="M163 710H410Q513 710 569 659T625 523Q625 442 579 381T451 294L590 0H438L321 277H221L172 0H37ZM278 599L240 383H348Q407 383 445 414T484 506Q484 554 455 576T375 599ZM239 -49H363L280 -220H171Z" horiz-adv-x="645" unicode="Ŗ"/>
			<glyph d="M363 516Q393 516 424 505L385 385Q362 395 334 395Q222 395 194 240L152 0H28L118 506H241L227 424Q281 516 363 516ZM26 -49H150L67 -220H-42Z" horiz-adv-x="384" unicode="ŗ"/>
			<glyph d="M163 710H410Q513 710 569 659T625 523Q625 442 579 381T451 294L590 0H438L321 277H221L172 0H37ZM278 599L240 383H348Q407 383 445 414T484 506Q484 554 455 576T375 599ZM227 919H333L405 835L508 919H627L464 774H337Z" horiz-adv-x="645" unicode="Ř"/>
			<glyph d="M363 516Q393 516 424 505L385 385Q362 395 334 395Q222 395 194 240L152 0H28L118 506H241L227 424Q281 516 363 516ZM138 744H242L288 648L366 744H475L341 576H221Z" horiz-adv-x="384" unicode="ř"/>
			<glyph d="M353 720Q413 720 468 705T561 668L510 555Q477 577 434 590T350 604Q295 604 263 581T232 518Q232 480 259 458T359 405Q414 382 448 359T504 301T525 215Q525 109 457 49T258 -10Q114 -10 12 68L61 186Q101 152 153 130T265 109Q321 109 353 131T386 198Q386 223 374 239T340 269T268 306Q207 334 170 359T113 420T93 506Q93 610 165 665T353 720ZM433 921H558L399 769H289Z" horiz-adv-x="568" unicode="Ś"/>
			<glyph d="M278 517Q327 517 372 505T448 476L412 381Q339 423 270 423Q236 423 215 412T195 377Q195 357 215 342T297 301Q343 281 368 264T409 223T424 160Q424 79 365 34T206 -10Q149 -10 98 4T15 42L54 138Q87 115 131 99T217 84Q255 84 276 98T298 138Q298 155 287 167T260 187T206 212Q157 234 128 252T84 294T69 355Q69 430 126 473T278 517ZM356 739H482L314 576H204Z" horiz-adv-x="475" unicode="ś"/>
			<glyph d="M353 720Q413 720 468 705T561 668L510 555Q477 577 434 590T350 604Q295 604 263 581T232 518Q232 480 259 458T359 405Q414 382 448 359T504 301T525 215Q525 109 457 49T258 -10Q114 -10 12 68L61 186Q101 152 153 130T265 109Q321 109 353 131T386 198Q386 223 374 239T340 269T268 306Q207 334 170 359T113 420T93 506Q93 610 165 665T353 720ZM319 914H446L556 769H450L378 853L275 769H156Z" horiz-adv-x="568" unicode="Ŝ"/>
			<glyph d="M278 517Q327 517 372 505T448 476L412 381Q339 423 270 423Q236 423 215 412T195 377Q195 357 215 342T297 301Q343 281 368 264T409 223T424 160Q424 79 365 34T206 -10Q149 -10 98 4T15 42L54 138Q87 115 131 99T217 84Q255 84 276 98T298 138Q298 155 287 167T260 187T206 212Q157 234 128 252T84 294T69 355Q69 430 126 473T278 517ZM256 739H374L479 576H375L307 667L211 576H102Z" horiz-adv-x="475" unicode="ŝ"/>
			<glyph d="M353 720Q413 720 468 705T561 668L510 555Q477 577 434 590T350 604Q295 604 263 581T232 518Q232 480 259 458T359 405Q414 382 448 359T504 301T525 215Q525 114 462 54T280 -10L273 -39Q328 -58 328 -115Q328 -224 138 -224L150 -155Q198 -155 217 -145T237 -116Q237 -98 225 -91T191 -85L207 -7Q95 5 12 68L61 186Q101 152 153 130T265 109Q321 109 353 131T386 198Q386 223 374 239T340 269T268 306Q207 334 170 359T113 420T93 506Q93 610 165 665T353 720Z" horiz-adv-x="568" unicode="Ş"/>
			<glyph d="M278 517Q327 517 372 505T448 476L412 381Q339 423 270 423Q236 423 215 412T195 377Q195 357 215 342T297 301Q343 281 368 264T409 223T424 160Q424 88 376 44T244 -8L237 -39Q292 -58 292 -115Q292 -224 102 -224L114 -155Q162 -155 181 -145T201 -116Q201 -98 189 -91T155 -85L170 -8Q123 -4 82 9T15 42L54 138Q87 115 131 99T217 84Q255 84 276 98T298 138Q298 155 287 167T260 187T206 212Q157 234 128 252T84 294T69 355Q69 430 126 473T278 517Z" horiz-adv-x="475" unicode="ş"/>
			<glyph d="M353 720Q413 720 468 705T561 668L510 555Q477 577 434 590T350 604Q295 604 263 581T232 518Q232 480 259 458T359 405Q414 382 448 359T504 301T525 215Q525 109 457 49T258 -10Q114 -10 12 68L61 186Q101 152 153 130T265 109Q321 109 353 131T386 198Q386 223 374 239T340 269T268 306Q207 334 170 359T113 420T93 506Q93 610 165 665T353 720ZM192 919H298L370 835L473 919H592L429 774H302Z" horiz-adv-x="568" unicode="Š"/>
			<glyph d="M278 517Q327 517 372 505T448 476L412 381Q339 423 270 423Q236 423 215 412T195 377Q195 357 215 342T297 301Q343 281 368 264T409 223T424 160Q424 79 365 34T206 -10Q149 -10 98 4T15 42L54 138Q87 115 131 99T217 84Q255 84 276 98T298 138Q298 155 287 167T260 187T206 212Q157 234 128 252T84 294T69 355Q69 430 126 473T278 517ZM131 739H235L303 648L399 739H508L354 576H236Z" horiz-adv-x="475" unicode="š"/>
			<glyph d="M101 710H610L589 592H405L300 0H165L270 592H80ZM196 0H270L261 -39Q316 -58 316 -115Q316 -224 126 -224L138 -155Q186 -155 205 -145T225 -116Q225 -98 213 -91T179 -85Z" horiz-adv-x="552" unicode="Ţ"/>
			<glyph d="M289 664L261 506H403L384 401H242L203 179Q200 158 200 150Q200 127 214 115T252 103Q294 103 342 129L357 27Q291 -9 217 -10L210 -39Q265 -58 265 -115Q265 -224 75 -224L87 -155Q135 -155 154 -145T174 -116Q174 -98 162 -91T128 -85L145 0H149Q113 13 93 44T74 124Q74 145 79 177L117 401H45L64 506H136L161 648Z" horiz-adv-x="402" unicode="ţ"/>
			<glyph d="M101 710H610L589 592H405L300 0H165L270 592H80ZM197 919H303L375 835L478 919H597L434 774H307Z" horiz-adv-x="552" unicode="Ť"/>
			<glyph d="M289 664L261 506H403L384 401H242L203 179Q200 158 200 150Q200 127 214 115T252 103Q294 103 342 129L357 27Q290 -10 210 -10Q148 -10 111 23T74 124Q74 145 79 177L117 401H45L64 506H136L161 648ZM437 786H559L448 573H342Z" horiz-adv-x="410" unicode="ť"/>
			<glyph d="M101 710H610L589 592H405L375 424H524L504 306H354L300 0H165L219 306H73L93 424H240L270 592H80Z" horiz-adv-x="552" unicode="Ŧ"/>
			<glyph d="M291 664L263 506H405L386 401H244L230 320H372L357 233H214L205 179Q202 158 202 150Q202 127 216 115T254 103Q296 103 344 129L359 27Q292 -10 212 -10Q150 -10 113 23T76 124Q76 145 81 177L91 233H17L32 320H105L119 401H47L66 506H138L163 648Z" horiz-adv-x="404" unicode="ŧ"/>
			<glyph d="M152 710H287L214 292Q210 258 210 241Q210 181 245 149T342 117Q417 117 461 158T520 279L596 710H731L653 269Q630 138 548 64T333 -10Q212 -10 143 52T74 224Q74 261 80 297ZM374 893Q395 893 414 887T469 868Q478 865 491 859T512 852T529 850Q546 850 557 860T573 893H653Q640 832 608 800T528 769Q505 769 483 775T436 793Q413 803 400 807T376 812Q341 812 329 769H249Q262 831 295 862T374 893Z" horiz-adv-x="723" unicode="Ũ"/>
			<glyph d="M111 506H236L188 232Q183 202 183 179Q183 141 205 119T270 98Q327 98 367 135T418 236L466 506H590L501 0H376L388 67Q357 30 314 9T223 -11Q145 -11 99 32T54 151Q54 183 61 225ZM301 722Q320 722 339 716T388 697Q405 689 419 684T444 679Q459 679 468 688T484 722H557Q546 661 517 629T443 598Q406 598 358 622Q341 630 326 635T302 641Q269 641 259 598H186Q197 660 228 691T301 722Z" horiz-adv-x="619" unicode="ũ"/>
			<glyph d="M152 710H287L214 292Q210 258 210 241Q210 181 245 149T342 117Q417 117 461 158T520 279L596 710H731L653 269Q630 138 548 64T333 -10Q212 -10 143 52T74 224Q74 261 80 297ZM299 884H618L603 802H284Z" horiz-adv-x="723" unicode="Ū"/>
			<glyph d="M111 506H236L188 232Q183 202 183 179Q183 141 205 119T270 98Q327 98 367 135T418 236L466 506H590L501 0H376L388 67Q357 30 314 9T223 -11Q145 -11 99 32T54 151Q54 183 61 225ZM218 695H537L522 613H203Z" horiz-adv-x="619" unicode="ū"/>
			<glyph d="M152 710H287L214 292Q210 258 210 241Q210 181 245 149T342 117Q417 117 461 158T520 279L596 710H731L653 269Q630 138 548 64T333 -10Q212 -10 143 52T74 224Q74 261 80 297ZM308 908H397Q396 904 396 895Q396 872 412 860T463 849Q533 849 544 908H633Q621 845 576 808T451 771Q381 771 343 800T305 877Q305 893 308 908Z" horiz-adv-x="723" unicode="Ŭ"/>
			<glyph d="M111 506H236L188 232Q183 202 183 179Q183 141 205 119T270 98Q327 98 367 135T418 236L466 506H590L501 0H376L388 67Q357 30 314 9T223 -11Q145 -11 99 32T54 151Q54 183 61 225ZM222 739H312Q310 731 310 724Q310 692 329 676T380 660Q453 660 464 739H552Q540 665 494 621T368 578Q299 578 259 614T219 709Q219 724 222 739Z" horiz-adv-x="619" unicode="ŭ"/>
			<glyph d="M152 710H287L214 292Q210 258 210 241Q210 181 245 149T342 117Q417 117 461 158T520 279L596 710H731L653 269Q630 138 548 64T333 -10Q212 -10 143 52T74 224Q74 261 80 297ZM458 955Q505 955 533 925T562 853Q562 806 529 772T447 739Q400 739 371 766T342 839Q342 887 375 921T458 955ZM455 887Q435 887 423 875T412 845Q412 829 422 817T450 806Q468 806 480 818T493 849Q493 866 482 876T455 887Z" horiz-adv-x="723" unicode="Ů"/>
			<glyph d="M111 506H236L188 232Q183 202 183 179Q183 141 205 119T270 98Q327 98 367 135T418 236L466 506H590L501 0H376L388 67Q357 30 314 9T223 -11Q145 -11 99 32T54 151Q54 183 61 225ZM382 777Q426 777 454 750T482 677Q482 624 446 593T359 562Q313 562 284 589T256 659Q256 712 292 744T382 777ZM374 712Q352 712 339 699T326 665Q326 648 337 637T366 627Q385 627 399 640T413 673Q413 690 402 701T374 712Z" horiz-adv-x="619" unicode="ů"/>
			<glyph d="M152 710H287L214 292Q210 258 210 241Q210 181 245 149T342 117Q417 117 461 158T520 279L596 710H731L653 269Q630 138 548 64T333 -10Q212 -10 143 52T74 224Q74 261 80 297ZM417 921H537L386 769H279ZM601 921H722L571 769H463Z" horiz-adv-x="723" unicode="Ű"/>
			<glyph d="M111 506H236L188 232Q183 202 183 179Q183 141 205 119T270 98Q327 98 367 135T418 236L466 506H590L501 0H376L388 67Q357 30 314 9T223 -11Q145 -11 99 32T54 151Q54 183 61 225ZM329 735H449L303 576H196ZM513 735H633L487 576H380Z" horiz-adv-x="619" unicode="ű"/>
			<glyph d="M152 710H287L214 292Q210 258 210 242Q210 181 245 149T344 117Q417 117 462 158T520 279L596 710H731L653 269Q636 174 597 122T501 30Q460 2 435 -25T411 -89Q411 -132 454 -132Q470 -132 495 -123L500 -190Q463 -204 425 -204Q376 -204 348 -179T320 -113Q320 -81 336 -54T383 -7Q359 -10 331 -10Q253 -10 195 18T105 99T74 223Q74 261 80 297Z" horiz-adv-x="723" unicode="Ų"/>
			<glyph d="M111 506H236L188 232Q183 202 183 179Q183 141 205 119T270 98Q327 98 367 135T418 236L466 506H590L501 0Q469 -17 449 -41T429 -92Q429 -111 440 -121T473 -132Q488 -132 513 -123L518 -190Q481 -204 443 -204Q394 -204 366 -179T338 -113Q338 -42 428 0H376L388 67Q357 30 314 9T223 -11Q145 -11 99 32T54 151Q54 183 61 225Z" horiz-adv-x="619" unicode="ų"/>
			<glyph d="M98 710H237L286 181L532 710H664L723 182L957 710H1101L767 0H627L565 522L320 0H180ZM565 914H692L802 769H696L624 853L521 769H402Z" horiz-adv-x="1040" unicode="Ŵ"/>
			<glyph d="M54 506H187L230 147L402 506H508L557 150L721 506H854L603 0H477L428 337L265 0H134ZM428 739H546L651 576H547L479 667L383 576H274Z" horiz-adv-x="818" unicode="ŵ"/>
			<glyph d="M89 710H229L338 399L552 710H703L388 277L339 0H202L251 278ZM359 914H486L596 769H490L418 853L315 769H196Z" horiz-adv-x="632" unicode="Ŷ"/>
			<glyph d="M39 506H170L246 156L427 506H561L258 -50Q212 -135 159 -173T29 -212Q-29 -212 -62 -198L-28 -92Q-9 -100 22 -100Q96 -100 138 -27L162 14ZM278 739H396L501 576H397L329 667L233 576H124Z" horiz-adv-x="518" unicode="ŷ"/>
			<glyph d="M89 710H229L338 399L552 710H703L388 277L339 0H202L251 278ZM297 917Q325 917 344 898T364 851Q364 823 344 803T297 784Q269 784 250 803T231 851Q231 879 250 898T297 917ZM510 917Q538 917 557 898T576 851Q576 823 557 803T510 784Q481 784 462 803T443 851Q443 879 462 898T510 917Z" horiz-adv-x="632" unicode="Ÿ"/>
			<glyph d="M146 710H641L628 636L212 117H540L519 0H2L16 74L431 592H125ZM468 921H593L434 769H324Z" horiz-adv-x="599" unicode="Ź"/>
			<glyph d="M88 506H500L490 453L201 105H438L419 0H-11L-2 52L296 401H69ZM363 739H489L321 576H211Z" horiz-adv-x="492" unicode="ź"/>
			<glyph d="M146 710H641L628 636L212 117H540L519 0H2L16 74L431 592H125ZM414 931Q446 931 468 908T490 854Q490 822 468 800T414 778Q382 778 360 800T338 854Q338 886 360 908T414 931Z" horiz-adv-x="599" unicode="Ż"/>
			<glyph d="M88 506H500L490 453L201 105H438L419 0H-11L-2 52L296 401H69ZM313 745Q345 745 367 722T389 668Q389 636 367 614T313 592Q281 592 259 614T237 668Q237 700 259 722T313 745Z" horiz-adv-x="492" unicode="ż"/>
			<glyph d="M146 710H641L628 636L212 117H540L519 0H2L16 74L431 592H125ZM227 919H333L405 835L508 919H627L464 774H337Z" horiz-adv-x="599" unicode="Ž"/>
			<glyph d="M88 506H500L490 453L201 105H438L419 0H-11L-2 52L296 401H69ZM138 739H242L310 648L406 739H515L361 576H243Z" horiz-adv-x="492" unicode="ž"/>
			<glyph d="M365 720Q467 720 545 679T666 563T709 383Q709 267 663 178T535 39T345 -10Q202 -10 124 74T47 306Q47 348 52 388H566Q561 482 503 537T352 593Q254 593 145 523L113 643Q230 720 365 720ZM184 284Q187 197 228 150T349 104Q432 104 485 153T558 284Z" horiz-adv-x="730" unicode="Ə"/>
			<glyph d="M426 759Q454 759 483 751T533 732L492 629Q479 637 461 642T426 647Q368 647 354 568L344 506H462L443 401H325L254 -3Q237 -99 185 -144T58 -190Q30 -190 0 -182T-50 -165L-8 -60Q24 -79 58 -79Q116 -79 132 10L200 401H115L134 506H219L230 572Q247 668 298 713T426 759Z" horiz-adv-x="472" unicode="ƒ"/>
			<glyph d="M837 861Q845 829 845 797Q845 663 718 625Q761 582 783 523T806 392Q806 285 757 193T617 45T403 -10Q299 -10 221 30T100 145T57 320Q57 428 107 519T250 665T466 720Q508 720 538 714T598 699Q631 688 649 688Q695 688 720 715T746 790Q746 815 739 836ZM451 593Q375 593 317 556T229 459T198 331Q198 267 225 218T300 143T412 117Q488 117 545 154T634 253T665 383Q665 446 638 493T562 567T451 593Z" horiz-adv-x="827" unicode="Ơ"/>
			<glyph d="M650 657Q658 628 658 602Q658 470 538 433Q592 370 592 277Q592 200 555 134T450 29T291 -10Q218 -10 160 20T71 105T39 235Q39 310 75 374T179 477T340 516Q388 516 430 502Q451 496 465 496Q515 496 537 518T560 590Q560 613 552 632ZM326 402Q277 402 241 379T186 320T168 243Q168 179 205 141T304 104Q353 104 389 126T444 185T463 268Q463 329 425 365T326 402Z" unicode="ơ"/>
			<glyph d="M845 861Q853 832 853 806Q853 667 718 639L653 269Q630 138 548 64T333 -10Q212 -10 143 52T74 224Q74 261 80 297L152 710H287L214 292Q210 258 210 241Q210 181 245 149T342 117Q417 117 461 158T520 279L596 710H655Q705 710 730 729T755 794Q755 817 747 836Z" horiz-adv-x="723" unicode="Ư"/>
			<glyph d="M688 657Q696 628 696 602Q696 472 578 439L501 0H376L388 67Q357 30 314 9T223 -11Q145 -11 99 32T54 151Q54 183 61 225L111 506H236L188 232Q183 202 183 179Q183 141 205 119T270 98Q327 98 367 135T418 236L466 506H498Q548 506 573 525T598 590Q598 613 590 632Z" horiz-adv-x="619" unicode="ư"/>
			<glyph d="M511 1034H636L477 882H367ZM435 867Q482 867 510 837T539 765Q539 715 504 682L636 0H500L465 200H209L105 0H-38L339 688Q319 714 319 751Q319 799 352 833T435 867ZM432 799Q412 799 400 787T389 757Q389 741 399 729T427 718Q445 718 457 730T470 761Q470 778 459 788T432 799ZM401 568L265 307H446Z" horiz-adv-x="688" unicode="Ǻ"/>
			<glyph d="M309 516Q403 516 458 472T514 343Q514 320 510 293T505 261L458 0H333L344 63Q276 -11 177 -11Q111 -11 68 25T26 128Q26 227 117 265T387 306L389 333Q389 371 364 392T289 413Q210 413 124 362L100 460Q141 484 195 500T309 516ZM375 231Q262 230 209 210T157 144Q157 113 176 98T230 83Q281 83 321 112T370 202ZM354 777Q398 777 426 750T454 677Q454 624 418 593T331 562Q285 562 256 589T228 659Q228 712 264 744T354 777ZM346 712Q324 712 311 699T298 665Q298 648 309 637T338 627Q357 627 371 640T385 673Q385 690 374 701T346 712ZM447 1006H573L405 843H295Z" horiz-adv-x="566" unicode="ǻ"/>
			<glyph d="M338 710H927L906 591H616L585 413H866L845 298H564L532 119H830L809 0H376L411 200H208L103 0H-38ZM413 591L264 307H430L481 591ZM622 921H747L588 769H478Z" horiz-adv-x="915" unicode="Ǽ"/>
			<glyph d="M308 516Q421 516 475 454Q550 516 658 516Q762 516 821 454T881 287Q881 261 877 226H503Q507 159 546 127T649 95Q696 95 738 109T821 149L838 47Q747 -10 631 -10Q558 -10 503 16T417 91Q383 48 329 19T199 -10Q119 -10 72 23T26 127Q26 226 120 265T387 306L389 331Q389 413 288 413Q208 413 124 362L99 460Q140 484 194 500T308 516ZM653 419Q601 419 565 390T514 312H759Q756 359 728 389T653 419ZM375 230Q262 229 209 208T157 142Q157 111 178 96T233 82Q284 82 322 111T370 202ZM568 739H694L526 576H416Z" horiz-adv-x="919" unicode="ǽ"/>
			<glyph d="M710 761H827L716 627Q760 583 783 523T806 388Q806 287 760 195T624 47T405 -10Q300 -10 223 31L156 -50H39L149 83Q104 128 80 189T57 326Q57 434 106 524T247 667T465 720Q566 720 643 680ZM452 593Q372 593 314 556T227 460T198 333Q198 249 241 194L554 572Q509 593 452 593ZM624 515L312 138Q356 117 414 117Q490 117 547 154T634 253T665 383Q665 461 624 515ZM545 921H670L511 769H401Z" horiz-adv-x="827" unicode="Ǿ"/>
			<glyph d="M504 554H598L519 454Q554 422 573 377T592 278Q592 201 555 135T451 29T293 -10Q227 -10 172 15L117 -54H23L110 56Q76 88 57 133T39 233Q39 309 75 373T179 477T338 516Q404 516 456 493ZM326 404Q276 404 240 381T185 322T166 243Q166 192 190 157L379 396Q353 404 326 404ZM439 353L248 112Q272 102 305 102Q354 102 390 124T445 185T465 268Q465 319 439 353ZM426 739H552L384 576H274Z" unicode="ǿ"/>
			<glyph d="M353 720Q413 720 468 705T561 668L510 555Q477 577 434 590T350 604Q295 604 263 581T232 518Q232 480 259 458T359 405Q414 382 448 359T504 301T525 215Q525 109 457 49T258 -10Q114 -10 12 68L61 186Q101 152 153 130T265 109Q321 109 353 131T386 198Q386 223 374 239T340 269T268 306Q207 334 170 359T113 420T93 506Q93 610 165 665T353 720ZM186 -49H310L227 -220H118Z" horiz-adv-x="568" unicode="Ș"/>
			<glyph d="M278 517Q327 517 372 505T448 476L412 381Q339 423 270 423Q236 423 215 412T195 377Q195 357 215 342T297 301Q343 281 368 264T409 223T424 160Q424 79 365 34T206 -10Q149 -10 98 4T15 42L54 138Q87 115 131 99T217 84Q255 84 276 98T298 138Q298 155 287 167T260 187T206 212Q157 234 128 252T84 294T69 355Q69 430 126 473T278 517ZM150 -49H274L191 -220H82Z" horiz-adv-x="475" unicode="ș"/>
			<glyph d="M101 710H610L589 592H405L300 0H165L270 592H80ZM174 -49H298L215 -220H106Z" horiz-adv-x="552" unicode="Ț"/>
			<glyph d="M289 664L261 506H403L384 401H242L203 179Q200 158 200 150Q200 127 214 115T252 103Q294 103 342 129L357 27Q290 -10 210 -10Q148 -10 111 23T74 124Q74 145 79 177L117 401H45L64 506H136L161 648ZM123 -49H247L164 -220H55Z" horiz-adv-x="402" unicode="ț"/>
			<glyph d="M120 506H244L148 -46Q132 -133 90 -175T-20 -217Q-75 -217 -112 -203L-91 -95Q-62 -105 -37 -105Q-13 -105 2 -86T26 -23Z" horiz-adv-x="274" unicode="ȷ"/>
			<glyph d="M288 516Q365 516 421 487T508 404T539 279Q539 194 504 128T407 26T261 -10Q157 -10 97 52T38 219Q38 245 42 280H416Q412 347 372 379T270 411Q223 411 181 397T98 357L81 459Q172 516 288 516ZM160 194Q163 147 190 117T266 87Q318 87 354 115T405 194Z" horiz-adv-x="579" unicode="ə"/>
			<glyph d="M171 710H302L182 490H75Z" horiz-adv-x="257" unicode="ʼ"/>
			<glyph d="M247 739H365L470 576H366L298 667L202 576H93Z" horiz-adv-x="450" unicode="ˆ"/>
			<glyph d="M122 739H226L294 648L390 739H499L345 576H227Z" horiz-adv-x="450" unicode="ˇ"/>
			<glyph d="M144 695H463L448 613H129Z" horiz-adv-x="450" unicode="ˉ"/>
			<glyph d="M143 739H233Q231 731 231 724Q231 692 250 676T301 660Q374 660 385 739H473Q461 665 415 621T289 578Q220 578 180 614T140 709Q140 724 143 739Z" horiz-adv-x="450" unicode="˘"/>
			<glyph d="M296 745Q328 745 350 722T372 668Q372 636 350 614T296 592Q264 592 242 614T220 668Q220 700 242 722T296 745Z" horiz-adv-x="450" unicode="˙"/>
			<glyph d="M309 777Q353 777 381 750T409 677Q409 624 373 593T286 562Q240 562 211 589T183 659Q183 712 219 744T309 777ZM301 712Q279 712 266 699T253 665Q253 648 264 637T293 627Q312 627 326 640T340 673Q340 690 329 701T301 712Z" horiz-adv-x="450" unicode="˚"/>
			<glyph d="M178 0H251Q219 -17 199 -41T179 -92Q179 -111 190 -121T223 -132Q238 -132 263 -123L268 -190Q231 -204 193 -204Q144 -204 116 -179T88 -113Q88 -42 178 0Z" horiz-adv-x="450" unicode="˛"/>
			<glyph d="M227 722Q246 722 265 716T314 697Q331 689 345 684T370 679Q385 679 394 688T410 722H483Q472 661 443 629T369 598Q332 598 284 622Q267 630 252 635T228 641Q195 641 185 598H112Q123 660 154 691T227 722Z" horiz-adv-x="450" unicode="˜"/>
			<glyph d="M210 735H330L184 576H77ZM394 735H514L368 576H261Z" horiz-adv-x="450" unicode="˝"/>
			<glyph d="M-208 739H-87L7 576H-98Z" horiz-adv-x="0" unicode="̀"/>
			<glyph d="M-90 739H36L-132 576H-242Z" horiz-adv-x="0" unicode="́"/>
			<glyph d="M-216 739H-98L7 576H-97L-165 667L-261 576H-370Z" horiz-adv-x="0" unicode="̂"/>
			<glyph d="M-224 722Q-205 722 -185 716T-137 697Q-120 689 -106 684T-81 679Q-66 679 -56 688T-41 722H32Q21 661 -8 629T-82 598Q-119 598 -167 622Q-184 630 -198 635T-223 641Q-256 641 -266 598H-339Q-328 660 -297 691T-224 722Z" horiz-adv-x="0" unicode="̃"/>
			<glyph d="M-291 695H28L13 613H-306Z" horiz-adv-x="0" unicode="̄"/>
			<glyph d="M-294 739H-204Q-206 731 -206 724Q-206 692 -187 676T-136 660Q-63 660 -52 739H36Q24 665 -21 621T-148 578Q-217 578 -257 614T-297 709Q-297 724 -294 739Z" horiz-adv-x="0" unicode="̆"/>
			<glyph d="M-54 745Q-22 745 0 722T22 668Q22 636 0 614T-54 592Q-86 592 -108 614T-130 668Q-130 700 -108 722T-54 745Z" horiz-adv-x="0" unicode="̇"/>
			<glyph d="M-257 734Q-229 734 -209 715T-190 668Q-190 640 -209 620T-257 601Q-285 601 -304 620T-323 668Q-323 696 -304 715T-257 734ZM-44 734Q-16 734 3 715T22 668Q22 640 3 620T-44 601Q-73 601 -92 620T-111 668Q-111 696 -91 715T-44 734Z" horiz-adv-x="0" unicode="̈"/>
			<glyph d="M-69 769Q-27 769 0 751T27 694Q27 661 8 641T-47 601Q-64 591 -69 585T-80 568H-168Q-162 595 -150 607T-115 630Q-88 642 -75 651T-63 676Q-63 689 -72 694T-100 700Q-129 700 -160 688L-161 752Q-141 760 -116 764T-69 769Z" horiz-adv-x="0" unicode="̉"/>
			<glyph d="M-78 777Q-34 777 -6 750T22 677Q22 624 -13 593T-101 562Q-147 562 -175 589T-204 659Q-204 712 -167 744T-78 777ZM-86 712Q-108 712 -121 699T-134 665Q-134 648 -123 637T-94 627Q-75 627 -61 640T-47 673Q-47 690 -58 701T-86 712Z" horiz-adv-x="0" unicode="̊"/>
			<glyph d="M-269 735H-149L-295 576H-402ZM-85 735H35L-111 576H-218Z" horiz-adv-x="0" unicode="̋"/>
			<glyph d="M-341 739H-237L-169 648L-73 739H36L-118 576H-236Z" horiz-adv-x="0" unicode="̌"/>
			<glyph d="M-65 754H38L-62 576H-182Z" horiz-adv-x="0" unicode="̒"/>
			<glyph d="M-1 657Q7 628 7 602Q7 428 -204 428L-191 506Q-141 506 -116 525T-91 590Q-91 613 -99 632Z" horiz-adv-x="0" unicode="̛"/>
			<glyph d="M-199 -74Q-167 -74 -145 -96T-123 -151Q-123 -183 -145 -205T-199 -227Q-231 -227 -253 -205T-275 -151Q-275 -119 -253 -96T-199 -74Z" horiz-adv-x="0" unicode="̣"/>
			<glyph d="M-227 -49H-103L-186 -220H-295Z" horiz-adv-x="0" unicode="̦"/>
			<glyph d="M-237 0H-163L-172 -39Q-117 -58 -117 -115Q-117 -224 -307 -224L-295 -155Q-247 -155 -227 -145T-208 -116Q-208 -98 -220 -91T-254 -85Z" horiz-adv-x="0" unicode="̧"/>
			<glyph d="M-218 0H-145Q-177 -17 -197 -41T-217 -92Q-217 -111 -205 -121T-173 -132Q-158 -132 -133 -123L-128 -190Q-165 -204 -203 -204Q-252 -204 -280 -179T-308 -113Q-308 -42 -218 0Z" horiz-adv-x="0" unicode="̨"/>
			<glyph d="M-381 325H-32L-51 221H-400Z" horiz-adv-x="0" unicode="̵"/>
			<glyph d="M226 746H362L197 432H89Z" horiz-adv-x="330" unicode="ʹ"/>
			<glyph d="M124 178H260L95 -136H-13Z" horiz-adv-x="330" unicode="͵"/>
			<glyph d="M176 487Q208 487 231 464T254 408Q254 376 231 353T176 331Q144 331 121 353T98 408Q98 441 121 464T176 487ZM80 125H218L73 -143H-39ZZ" horiz-adv-x="289" unicode=";"/>
			<glyph d="M187 746H317L211 576H107Z" horiz-adv-x="280" unicode="΄"/>
			<glyph d="M317 806H425L330 642H257ZM183 720Q209 720 226 703T244 660Q244 634 226 616T183 599Q157 599 140 616T123 660Q123 686 140 703T183 720ZM432 720Q458 720 475 703T492 660Q492 634 475 616T432 599Q406 599 388 616T371 660Q371 685 388 702T432 720Z" horiz-adv-x="472" unicode="΅"/>
			<glyph d="M351 710H498L636 0H500L465 200H209L105 0H-38ZM401 568L265 307H446ZM140 746H270L164 576H60Z" horiz-adv-x="688" unicode="Ά"/>
			<glyph d="M159 390Q191 390 214 367T237 311Q237 279 214 256T159 234Q127 234 104 256T81 311Q81 344 104 367T159 390Z" horiz-adv-x="298" unicode="·"/>
			<glyph d="M273 710H698L677 591H387L356 413H637L616 298H335L303 119H601L580 0H147ZM100 746H230L124 576H20Z" horiz-adv-x="686" unicode="Έ"/>
			<glyph d="M283 710H418L365 414H687L740 710H874L748 0H614L667 296H345L292 0H157ZM100 746H230L124 576H20Z" horiz-adv-x="876" unicode="Ή"/>
			<glyph d="M283 710H418L292 0H157ZM100 746H230L124 576H20Z" horiz-adv-x="419" unicode="Ί"/>
			<glyph d="M555 720Q657 720 734 680T853 565T896 388Q896 287 850 195T714 47T495 -10Q391 -10 312 31T190 148T147 326Q147 434 196 524T337 667T555 720ZM542 593Q462 593 404 556T317 460T288 333Q288 235 347 176T504 117Q580 117 637 154T724 253T755 383Q755 446 728 493T653 567T542 593ZM118 746H248L142 576H38Z" horiz-adv-x="916" unicode="Ό"/>
			<glyph d="M253 710H393L502 399L716 710H867L552 277L503 0H366L415 278ZM118 746H248L142 576H38Z" horiz-adv-x="796" unicode="Ύ"/>
			<glyph d="M561 720Q661 720 739 685T862 586T906 437Q906 337 846 262T686 149L679 118H874L854 0H537L572 202Q658 221 709 277T761 409Q761 463 734 504T658 568T547 591Q479 591 422 564T331 489T297 375Q297 307 336 263T448 202L414 0H97L117 118H315L320 151Q243 182 200 240T158 385Q158 484 212 560T358 678T561 720ZM118 746H248L142 576H38Z" horiz-adv-x="936" unicode="Ώ"/>
			<glyph d="M118 506H243L185 175Q181 159 181 144Q181 98 224 98Q247 98 275 110L290 11Q238 -10 183 -10Q124 -10 89 21T55 119Q55 148 60 172ZM219 806H327L232 642H159ZM85 720Q111 720 128 703T146 660Q146 634 128 616T85 599Q59 599 42 616T25 660Q25 686 42 703T85 720ZM334 720Q360 720 377 703T394 660Q394 634 377 616T334 599Q308 599 290 616T273 660Q273 685 290 702T334 720Z" horiz-adv-x="327" unicode="ΐ"/>
			<glyph d="M351 710H498L636 0H500L465 200H209L105 0H-38ZM401 568L265 307H446Z" horiz-adv-x="688" unicode="Α"/>
			<glyph d="M163 710H384Q479 710 532 664T585 543Q585 487 556 441T467 371Q523 357 554 316T586 215Q586 151 555 102T467 27T333 0H37ZM278 602L245 411H325Q384 411 417 441T451 519Q451 602 348 602ZM227 306L193 108H324Q384 108 418 137T452 214Q452 257 426 281T354 306Z" horiz-adv-x="620" unicode="Β"/>
			<glyph d="M163 710H581L560 589H277L172 0H37Z" horiz-adv-x="523" unicode="Γ"/>
			<glyph d="M359 710H506L625 117L604 0H9L30 117ZM410 562L171 117H492Z" horiz-adv-x="702" unicode="Δ"/>
			<glyph d="M163 710H588L567 591H277L246 413H527L506 298H225L193 119H491L470 0H37Z" horiz-adv-x="576" unicode="Ε"/>
			<glyph d="M146 710H641L628 636L212 117H540L519 0H2L16 74L431 592H125Z" horiz-adv-x="599" unicode="Ζ"/>
			<glyph d="M163 710H298L245 414H567L620 710H754L628 0H494L547 296H225L172 0H37Z" horiz-adv-x="756" unicode="Η"/>
			<glyph d="M465 720Q567 720 644 680T763 565T806 388Q806 287 760 195T624 47T405 -10Q301 -10 222 31T100 148T57 326Q57 434 106 524T247 667T465 720ZM452 593Q372 593 314 556T227 460T198 333Q198 235 257 176T414 117Q490 117 547 154T634 253T665 383Q665 446 638 493T563 567T452 593ZM306 413H583L562 299H285Z" horiz-adv-x="827" unicode="Θ"/>
			<glyph d="M163 710H298L172 0H37Z" horiz-adv-x="300" unicode="Ι"/>
			<glyph d="M163 710H298L237 363L563 710H726L386 357L624 0H466L237 362L172 0H37Z" horiz-adv-x="679" unicode="Κ"/>
			<glyph d="M343 710H494L620 0H482L393 553L112 0H-40Z" horiz-adv-x="681" unicode="Λ"/>
			<glyph d="M163 710H330L460 365L714 710H890L764 0H632L729 545L486 212H389L265 546L169 0H37Z" horiz-adv-x="892" unicode="Μ"/>
			<glyph d="M163 710H293L554 202L644 710H773L647 0H518L256 508L166 0H37Z" horiz-adv-x="774" unicode="Ν"/>
			<glyph d="M166 710H611L590 591H145ZM161 415H512L491 298H140ZM37 118H530L509 0H16Z" horiz-adv-x="615" unicode="Ξ"/>
			<glyph d="M465 720Q567 720 644 680T763 565T806 388Q806 287 760 195T624 47T405 -10Q301 -10 222 31T100 148T57 326Q57 434 106 524T247 667T465 720ZM452 593Q372 593 314 556T227 460T198 333Q198 235 257 176T414 117Q490 117 547 154T634 253T665 383Q665 446 638 493T563 567T452 593Z" horiz-adv-x="827" unicode="Ο"/>
			<glyph d="M163 710H744L618 0H484L589 592H277L172 0H37Z" horiz-adv-x="746" unicode="Π"/>
			<glyph d="M163 710H375Q495 710 555 654T616 502Q616 430 583 372T484 282T326 249H217L173 0H38ZM278 599L236 360H325Q395 360 435 396T475 495Q475 549 442 574T342 599Z" horiz-adv-x="600" unicode="Ρ"/>
			<glyph d="M138 710H571L550 591H281L418 392L406 329L197 119H504L483 0H2L20 96L293 368L122 616Z" horiz-adv-x="563" unicode="Σ"/>
			<glyph d="M101 710H610L589 592H405L300 0H165L270 592H80Z" horiz-adv-x="552" unicode="Τ"/>
			<glyph d="M89 710H229L338 399L552 710H703L388 277L339 0H202L251 278Z" horiz-adv-x="632" unicode="Υ"/>
			<glyph d="M459 726H587L573 646Q711 632 785 565T859 387Q859 292 809 221T672 109T471 62L457 -16H329L343 64Q206 79 131 146T56 328Q56 422 106 492T244 601T445 648ZM426 538Q320 529 257 479T194 342Q194 275 236 232T363 176ZM553 534L490 172Q599 180 660 231T722 370Q722 436 680 478T553 534Z" horiz-adv-x="878" unicode="Φ"/>
			<glyph d="M105 710H250L360 463L547 710H703L420 355L585 0H440L327 254L132 0H-27L268 363Z" horiz-adv-x="644" unicode="Χ"/>
			<glyph d="M138 710H266L228 497Q224 474 224 449Q224 387 261 349T374 302L446 710H574L502 302Q682 311 714 490L754 710H882L840 472Q817 344 724 268T483 191L448 0H320L355 191Q231 203 162 265T94 432Q94 462 100 493Z" horiz-adv-x="860" unicode="Ψ"/>
			<glyph d="M469 720Q569 720 647 685T770 586T814 437Q814 337 754 262T594 149L587 118H782L762 0H445L480 202Q566 221 617 277T669 409Q669 463 642 504T566 568T455 591Q387 591 330 564T239 489T205 375Q205 307 244 263T356 202L322 0H5L25 118H223L228 151Q151 182 108 240T66 385Q66 484 120 560T266 678T469 720Z" horiz-adv-x="845" unicode="Ω"/>
			<glyph d="M163 710H298L172 0H37ZM134 917Q162 917 181 898T201 851Q201 823 181 803T134 784Q106 784 87 803T68 851Q68 879 87 898T134 917ZM347 917Q375 917 394 898T413 851Q413 823 394 803T347 784Q318 784 299 803T280 851Q280 879 299 898T347 917Z" horiz-adv-x="300" unicode="Ϊ"/>
			<glyph d="M89 710H229L338 399L552 710H703L388 277L339 0H202L251 278ZM297 917Q325 917 344 898T364 851Q364 823 344 803T297 784Q269 784 250 803T231 851Q231 879 250 898T297 917ZM510 917Q538 917 557 898T576 851Q576 823 557 803T510 784Q481 784 462 803T443 851Q443 879 462 898T510 917Z" horiz-adv-x="632" unicode="Ϋ"/>
			<glyph d="M305 516Q370 516 416 488T483 417Q490 448 514 506H638Q623 465 612 422T588 315Q586 308 584 292Q572 232 565 194T559 142Q559 99 595 99Q610 99 632 108L639 14Q597 -10 545 -10Q462 -10 445 64Q444 68 443 72T441 82Q414 41 366 15T257 -10Q194 -10 143 19T63 102T34 232Q34 317 71 381T170 481T305 516ZM322 402Q280 402 245 382T190 325T170 243Q170 179 206 142T299 105Q344 105 379 128T433 189T452 269Q452 327 416 364T322 402ZM388 746H518L412 576H308Z" horiz-adv-x="677" unicode="ά"/>
			<glyph d="M290 516Q346 516 394 505T478 477L446 382Q374 419 294 419Q197 419 197 365Q197 335 231 320T357 305L347 216Q275 216 235 210T176 190T158 149Q158 120 185 106T260 92Q312 92 353 103T431 134L449 37Q407 16 358 3T239 -10Q138 -10 78 25T19 131Q19 189 59 222T172 262Q123 271 97 301T72 370Q72 438 128 477T290 516ZM329 746H459L353 576H249Z" horiz-adv-x="496" unicode="έ"/>
			<glyph d="M406 517Q482 517 523 476T565 357Q565 330 560 298L470 -210H346L431 271Q436 301 436 321Q436 405 349 405Q292 405 252 368T201 270L153 0H28L118 506H242L229 427Q261 470 307 493T406 517ZM389 746H519L413 576H309Z" horiz-adv-x="618" unicode="ή"/>
			<glyph d="M118 506H243L185 175Q181 159 181 144Q181 98 224 98Q247 98 275 110L290 11Q238 -10 183 -10Q124 -10 89 21T55 119Q55 148 60 172ZM213 746H343L237 576H133Z" horiz-adv-x="327" unicode="ί"/>
			<glyph d="M115 506H239L194 252Q188 216 188 191Q188 148 213 124T287 101Q351 101 380 134T421 237L469 506H594L543 217Q502 -10 283 -10Q177 -10 120 40T64 185Q64 219 74 277ZM389 806H497L402 642H329ZM255 720Q281 720 298 703T316 660Q316 634 298 616T255 599Q229 599 212 616T195 660Q195 686 212 703T255 720ZM504 720Q530 720 547 703T564 660Q564 634 547 616T504 599Q478 599 460 616T443 660Q443 685 460 702T504 720Z" horiz-adv-x="617" unicode="ΰ"/>
			<glyph d="M305 516Q370 516 416 488T483 417Q490 448 514 506H638Q623 465 612 422T588 315Q586 308 584 292Q572 232 565 194T559 142Q559 99 595 99Q610 99 632 108L639 14Q597 -10 545 -10Q462 -10 445 64Q444 68 443 72T441 82Q414 41 366 15T257 -10Q194 -10 143 19T63 102T34 232Q34 317 71 381T170 481T305 516ZM322 402Q280 402 245 382T190 325T170 243Q170 179 206 142T299 105Q344 105 379 128T433 189T452 269Q452 327 416 364T322 402Z" horiz-adv-x="677" unicode="α"/>
			<glyph d="M372 760Q467 760 522 711T577 584Q577 515 541 470T447 406Q504 388 541 345T579 230Q579 160 546 105T455 21T318 -9Q226 -9 152 31L110 -210H-13L118 535Q139 654 204 707T372 760ZM360 649Q312 649 281 621T239 525L171 138Q228 100 307 100Q374 100 412 135T451 232Q451 285 414 316T309 348H291L308 451H329Q380 453 417 481T454 561Q454 600 429 624T360 649Z" horiz-adv-x="610" unicode="β"/>
			<glyph d="M39 506H171L240 122Q392 309 426 506H558Q535 382 462 257T273 0H272L236 -210H111L149 1Z" horiz-adv-x="533" unicode="γ"/>
			<glyph d="M169 752H621L602 647H331L485 486Q534 436 561 385T588 269Q588 193 550 129T446 27T294 -10Q215 -10 157 21T69 109T38 238Q38 314 72 373T167 466T299 499Q314 499 321 498L153 671ZM325 402Q255 402 211 357T167 243Q167 179 204 141T303 104Q349 104 385 125T441 182T461 264Q461 325 425 363T325 402Z" horiz-adv-x="621" unicode="δ"/>
			<glyph d="M290 516Q346 516 394 505T478 477L446 382Q374 419 294 419Q197 419 197 365Q197 335 231 320T357 305L347 216Q275 216 235 210T176 190T158 149Q158 120 185 106T260 92Q312 92 353 103T431 134L449 37Q407 16 358 3T239 -10Q138 -10 78 25T19 131Q19 189 59 222T172 262Q123 271 97 301T72 370Q72 438 128 477T290 516Z" horiz-adv-x="496" unicode="ε"/>
			<glyph d="M133 752H557L543 673L273 415Q217 362 191 323T165 239Q165 198 181 174T225 136T305 106Q386 82 420 49T455 -39Q455 -114 378 -211L278 -175Q303 -145 317 -120T332 -70Q332 -49 322 -35T289 -9T218 15Q130 41 80 87T31 221Q31 274 49 317T99 396T187 483L368 647H114Z" horiz-adv-x="489" unicode="ζ"/>
			<glyph d="M406 517Q482 517 523 476T565 357Q565 330 560 298L470 -210H346L431 271Q436 301 436 321Q436 405 349 405Q292 405 252 368T201 270L153 0H28L118 506H242L229 427Q261 470 307 493T406 517Z" horiz-adv-x="618" unicode="η"/>
			<glyph d="M381 760Q493 760 550 692T607 494Q607 364 569 238T466 54Q396 -10 291 -10Q179 -10 119 58T60 260Q60 383 96 504T194 689Q265 760 381 760ZM372 645Q342 645 320 633T280 600Q258 572 239 526T210 426H474Q477 464 477 496Q477 569 452 607T372 645ZM193 325Q189 290 189 252Q189 178 216 141T299 105Q356 105 392 150Q436 207 460 325Z" horiz-adv-x="634" unicode="θ"/>
			<glyph d="M118 506H243L185 175Q181 159 181 144Q181 98 224 98Q247 98 275 110L290 11Q238 -10 183 -10Q124 -10 89 21T55 119Q55 148 60 172Z" horiz-adv-x="327" unicode="ι"/>
			<glyph d="M118 506H242L202 282L441 506H591L346 279L509 0H371L254 206L178 143L153 0H28Z" horiz-adv-x="560" unicode="κ"/>
			<glyph d="M208 754Q283 754 324 714T381 587L494 0H366L308 347L96 0H-43L279 493L265 560Q256 605 232 623T172 642Q144 642 122 634L109 735Q152 754 208 754Z" horiz-adv-x="532" unicode="λ"/>
			<glyph d="M111 506H236L188 232Q183 202 183 179Q183 141 205 119T270 98Q327 98 367 135T418 236L466 506H590L501 0H376L388 67Q357 30 314 9T223 -11Q183 -11 147 2L110 -209H-15Z" horiz-adv-x="619" unicode="μ"/>
			<glyph d="M47 506H179L248 122Q400 309 434 506H566Q543 382 470 257T281 0H157Z" horiz-adv-x="541" unicode="ν"/>
			<glyph d="M387 762Q443 762 487 748T562 713L514 609Q490 626 458 637T390 649Q339 649 309 624T279 557Q279 514 311 488T401 444L385 357Q269 357 216 325T164 232Q164 195 182 171T232 132T321 101Q365 88 392 74T437 36T455 -27Q455 -114 351 -210L252 -180Q287 -148 306 -119T326 -63Q326 -33 302 -18T222 13Q161 32 121 53T56 114T30 220Q30 309 91 363T251 425Q150 467 150 573Q150 629 179 672T262 738T387 762Z" horiz-adv-x="487" unicode="ξ"/>
			<glyph d="M340 516Q415 516 472 486T560 401T592 277Q592 200 555 134T450 29T291 -10Q218 -10 160 20T71 105T39 235Q39 310 75 374T179 477T340 516ZM326 402Q277 402 241 379T186 320T168 243Q168 179 205 141T304 104Q353 104 389 126T444 185T463 268Q463 329 425 365T326 402Z" unicode="ο"/>
			<glyph d="M78 506H738L719 401H586L543 161Q541 147 541 142Q541 99 582 99Q607 99 643 112L641 16Q594 -10 532 -10Q474 -10 442 16T411 97Q411 115 414 134L461 401H288L218 0H93L164 401H44Z" horiz-adv-x="716" unicode="π"/>
			<glyph d="M366 516Q446 516 503 485T589 400T619 275Q619 196 585 131T489 28T347 -10Q289 -10 246 10T177 67L126 -210H2L82 255Q102 374 175 445T366 516ZM360 402Q292 402 249 357T206 242Q206 177 243 140T340 104Q409 104 451 150T493 266Q493 328 457 365T360 402Z" horiz-adv-x="658" unicode="ρ"/>
			<glyph d="M331 516Q427 516 501 469L457 360Q395 403 326 403Q257 403 213 356T170 238Q170 181 199 151T288 98Q362 69 393 42T424 -30Q424 -79 398 -122T333 -210L235 -180Q267 -143 282 -119T298 -70Q298 -45 274 -27T192 13Q119 41 79 91T39 229Q39 315 77 380T181 481T331 516Z" horiz-adv-x="491" unicode="ς"/>
			<glyph d="M351 506H667L648 401H530Q559 372 574 332T590 247Q590 177 553 118T449 24T299 -10Q224 -10 165 19T72 103T39 234Q39 312 75 373T182 469T351 506ZM347 400Q260 400 214 357T168 244Q168 178 205 141T305 105Q353 105 388 125T443 179T463 254Q463 304 437 343T373 400Z" horiz-adv-x="655" unicode="σ"/>
			<glyph d="M88 506H479L460 401H292L250 184Q245 151 245 133Q245 118 254 109T283 101Q310 101 361 116V16Q340 5 308 -2T238 -10Q181 -10 148 18T115 96Q115 126 123 169L168 401H44Z" horiz-adv-x="458" unicode="τ"/>
			<glyph d="M115 506H239L194 252Q188 216 188 191Q188 148 213 124T287 101Q351 101 380 134T421 237L469 506H594L543 217Q502 -10 283 -10Q177 -10 120 40T64 185Q64 219 74 277Z" horiz-adv-x="617" unicode="υ"/>
			<glyph d="M381 710H497L462 508Q564 490 621 429T678 278Q678 194 640 131T533 31T370 -9L335 -210H219L256 -2Q154 16 96 77T39 233Q39 311 76 373T184 473T347 515ZM329 415Q251 405 210 356T170 241Q170 187 196 150T273 97ZM444 408L388 91Q465 103 505 150T546 265Q546 319 520 355T444 408Z" horiz-adv-x="716" unicode="φ"/>
			<glyph d="M141 514Q196 514 227 484T275 400L308 288L445 506H583L344 164L454 -210H326L253 63L70 -210H-64L216 183L169 347Q160 377 145 390T109 403Q90 403 66 395L69 502Q100 514 141 514Z" horiz-adv-x="535" unicode="χ"/>
			<glyph d="M407 710H523L415 99Q492 108 526 147T576 271L619 506H743L702 270Q685 176 649 117T552 27T396 -9L361 -210H245L281 -6Q69 21 69 208Q69 248 82 321L115 506H239L203 302Q192 243 192 210Q192 165 216 137T300 100Z" horiz-adv-x="767" unicode="ψ"/>
			<glyph d="M147 506H281Q234 439 201 352T169 194Q169 109 222 109Q299 109 342 351H460Q459 343 449 291T440 203Q440 110 496 110Q547 110 571 182T596 347Q596 395 589 437T573 506H698Q708 480 715 437T723 349Q723 250 699 169T623 39T492 -10Q429 -10 395 28T362 127V130Q342 65 297 27T190 -10Q115 -10 76 38T38 182Q38 269 68 355T147 506Z" horiz-adv-x="760" unicode="ω"/>
			<glyph d="M118 506H243L185 175Q181 159 181 144Q181 98 224 98Q247 98 275 110L290 11Q238 -10 183 -10Q124 -10 89 21T55 119Q55 148 60 172ZM111 739Q141 739 162 718T183 668Q183 637 162 616T111 596Q81 596 60 616T40 668Q40 698 60 718T111 739ZM303 739Q334 739 354 718T375 668Q375 637 354 616T303 596Q273 596 252 616T232 668Q232 698 252 718T303 739Z" horiz-adv-x="327" unicode="ϊ"/>
			<glyph d="M115 506H239L194 252Q188 216 188 191Q188 148 213 124T287 101Q351 101 380 134T421 237L469 506H594L543 217Q502 -10 283 -10Q177 -10 120 40T64 185Q64 219 74 277ZM270 734Q298 734 317 715T337 668Q337 640 317 620T270 601Q242 601 223 620T204 668Q204 696 223 715T270 734ZM483 734Q511 734 530 715T549 668Q549 640 530 620T483 601Q454 601 435 620T416 668Q416 696 435 715T483 734Z" horiz-adv-x="617" unicode="ϋ"/>
			<glyph d="M340 516Q415 516 472 486T560 401T592 277Q592 200 555 134T450 29T291 -10Q218 -10 160 20T71 105T39 235Q39 310 75 374T179 477T340 516ZM326 402Q277 402 241 379T186 320T168 243Q168 179 205 141T304 104Q353 104 389 126T444 185T463 268Q463 329 425 365T326 402ZM371 746H501L395 576H291Z" unicode="ό"/>
			<glyph d="M115 506H239L194 252Q188 216 188 191Q188 148 213 124T287 101Q351 101 380 134T421 237L469 506H594L543 217Q502 -10 283 -10Q177 -10 120 40T64 185Q64 219 74 277ZM383 746H513L407 576H303Z" horiz-adv-x="617" unicode="ύ"/>
			<glyph d="M147 506H281Q234 439 201 352T169 194Q169 109 222 109Q299 109 342 351H460Q459 343 449 291T440 203Q440 110 496 110Q547 110 571 182T596 347Q596 395 589 437T573 506H698Q708 480 715 437T723 349Q723 250 699 169T623 39T492 -10Q429 -10 395 28T362 127V130Q342 65 297 27T190 -10Q115 -10 76 38T38 182Q38 269 68 355T147 506ZM458 746H588L482 576H378Z" horiz-adv-x="760" unicode="ώ"/>
			<glyph d="M299 710H424L388 506H586L573 432L551 312H449L465 406H370L298 0H173L245 406H146L130 312H27L44 406L62 506H263Z" horiz-adv-x="560" unicode="ϯ"/>
			<glyph d="M163 710H588L567 591H277L246 413H527L506 298H225L193 119H491L470 0H37ZM233 921H353L463 769H358Z" horiz-adv-x="576" unicode="Ѐ"/>
			<glyph d="M163 710H588L567 591H277L246 413H527L506 298H225L193 119H491L470 0H37ZM277 917Q305 917 324 898T344 851Q344 823 324 803T277 784Q249 784 230 803T211 851Q211 879 230 898T277 917ZM490 917Q518 917 537 898T556 851Q556 823 537 803T490 784Q461 784 442 803T423 851Q423 879 442 898T490 917Z" horiz-adv-x="576" unicode="Ё"/>
			<glyph d="M101 710H610L589 592H405L371 401Q419 428 469 444T579 460Q678 460 732 408T787 257Q787 178 753 117T656 23T512 -10Q449 -10 393 12L436 129Q472 111 519 111Q583 111 616 147T649 239Q649 290 619 317T533 345Q493 345 446 331T352 293L300 0H165L270 592H80Z" horiz-adv-x="814" unicode="Ђ"/>
			<glyph d="M163 710H581L560 589H277L172 0H37ZM441 921H566L407 769H297Z" horiz-adv-x="523" unicode="Ѓ"/>
			<glyph d="M462 720Q604 720 699 641L643 525Q557 599 456 599Q360 599 291 547T201 411H531L511 296H194Q205 210 263 160T413 111Q469 111 520 130T621 181L653 67Q535 -10 396 -10Q294 -10 217 30T99 145T57 325Q57 439 108 529T251 669T462 720Z" horiz-adv-x="700" unicode="Є"/>
			<glyph d="M353 720Q413 720 468 705T561 668L510 555Q477 577 434 590T350 604Q295 604 263 581T232 518Q232 480 259 458T359 405Q414 382 448 359T504 301T525 215Q525 109 457 49T258 -10Q114 -10 12 68L61 186Q101 152 153 130T265 109Q321 109 353 131T386 198Q386 223 374 239T340 269T268 306Q207 334 170 359T113 420T93 506Q93 610 165 665T353 720Z" horiz-adv-x="568" unicode="Ѕ"/>
			<glyph d="M163 710H298L172 0H37Z" horiz-adv-x="300" unicode="І"/>
			<glyph d="M163 710H298L172 0H37ZM134 917Q162 917 181 898T201 851Q201 823 181 803T134 784Q106 784 87 803T68 851Q68 879 87 898T134 917ZM347 917Q375 917 394 898T413 851Q413 823 394 803T347 784Q318 784 299 803T280 851Q280 879 299 898T347 917Z" horiz-adv-x="300" unicode="Ї"/>
			<glyph d="M290 710H425L344 249Q320 112 261 51T96 -10Q21 -10 -33 17L2 133Q48 111 88 111Q140 111 167 142T208 247Z" horiz-adv-x="416" unicode="Ј"/>
			<glyph d="M256 710H697L647 426H786Q886 426 939 376T992 243Q992 172 956 116T855 30T710 0H436L541 592H353L236 168Q211 76 164 33T38 -9Q-9 -9 -47 7L-4 120Q2 115 15 111T41 107Q69 107 85 128T115 200ZM627 315L591 111H706Q773 111 810 142T848 228Q848 315 742 315Z" horiz-adv-x="1021" unicode="Љ"/>
			<glyph d="M163 710H298L248 428H551L601 710H736L686 426H825Q925 426 978 376T1031 243Q1031 172 995 116T894 30T749 0H475L531 313H228L172 0H37ZM666 315L630 111H745Q812 111 849 142T887 228Q887 315 781 315Z" horiz-adv-x="1060" unicode="Њ"/>
			<glyph d="M101 710H610L589 592H405L370 396Q477 454 585 454Q677 454 724 415T772 303Q772 282 767 252L723 1H588L629 229Q631 249 631 259Q631 336 531 336Q490 336 442 324T351 290L300 0H165L270 592H80Z" horiz-adv-x="840" unicode="Ћ"/>
			<glyph d="M163 710H298L244 406H297L576 710H733L405 365L627 0H473L292 304H226L172 0H37ZM518 921H643L484 769H374Z" horiz-adv-x="682" unicode="Ќ"/>
			<glyph d="M163 710H292L204 209L643 710H773L647 0H518L607 501L166 0H37ZM316 921H436L546 769H441Z" horiz-adv-x="774" unicode="Ѝ"/>
			<glyph d="M104 710H250L370 308L607 710H750L428 184Q386 116 353 77T273 14T156 -10Q89 -10 33 12L80 123Q118 105 163 105Q198 105 225 120T282 176ZM265 908H354Q353 904 353 894Q353 872 376 860T439 849Q530 849 541 908H630Q616 844 568 807T430 771Q351 771 306 799T262 877Q262 893 265 908Z" horiz-adv-x="674" unicode="Ў"/>
			<glyph d="M162 710H297L193 118H505L609 710H743L618 0H388L357 -176H245L276 0H37Z" horiz-adv-x="745" unicode="Џ"/>
			<glyph d="M351 710H498L636 0H500L465 200H209L105 0H-38ZM401 568L265 307H446Z" horiz-adv-x="688" unicode="А"/>
			<glyph d="M163 710H567L545 589H277L248 426H387Q487 426 540 376T593 243Q593 172 557 116T456 30T311 0H37ZM228 315L192 111H307Q374 111 411 142T449 228Q449 315 343 315Z" horiz-adv-x="622" unicode="Б"/>
			<glyph d="M163 710H384Q479 710 532 664T585 543Q585 487 556 441T467 371Q523 357 554 316T586 215Q586 151 555 102T467 27T333 0H37ZM278 602L245 411H325Q384 411 417 441T451 519Q451 602 348 602ZM227 306L193 108H324Q384 108 418 137T452 214Q452 257 426 281T354 306Z" horiz-adv-x="620" unicode="В"/>
			<glyph d="M163 710H581L560 589H277L172 0H37Z" horiz-adv-x="523" unicode="Г"/>
			<glyph d="M278 710H718L613 118H714L662 -176H550L581 0H82L51 -176H-61L-9 118H34Q55 118 80 135T127 189T164 280ZM376 592L290 269Q259 150 199 118H478L562 592Z" horiz-adv-x="776" unicode="Д"/>
			<glyph d="M163 710H588L567 591H277L246 413H527L506 298H225L193 119H491L470 0H37Z" horiz-adv-x="576" unicode="Е"/>
			<glyph d="M119 710H267L442 406H505L559 710H688L634 406H697L977 710H1129L807 371L1030 0H875L693 303H616L562 0H433L487 303H413L125 0H-35L321 371Z" horiz-adv-x="1085" unicode="Ж"/>
			<glyph d="M334 720Q437 720 492 673T548 546Q548 476 507 431T391 368Q456 352 491 311T526 208Q526 106 450 48T242 -10Q158 -10 95 15T-4 80L72 180Q101 147 146 127T247 107Q316 107 353 135T390 210Q390 265 341 289T188 313L205 418Q309 419 358 446T407 524Q407 563 380 583T302 604Q209 604 126 539L84 644Q192 720 334 720Z" horiz-adv-x="568" unicode="З"/>
			<glyph d="M163 710H292L204 209L643 710H773L647 0H518L607 501L166 0H37Z" horiz-adv-x="774" unicode="И"/>
			<glyph d="M163 710H292L204 209L643 710H773L647 0H518L607 501L166 0H37ZM308 908H397Q396 904 396 894Q396 872 419 860T482 849Q573 849 584 908H673Q659 844 611 807T473 771Q394 771 349 799T305 877Q305 893 308 908Z" horiz-adv-x="774" unicode="Й"/>
			<glyph d="M163 710H298L244 406H297L576 710H733L405 365L627 0H473L292 304H226L172 0H37Z" horiz-adv-x="682" unicode="К"/>
			<glyph d="M256 710H704L578 0H443L548 592H353L236 168Q211 76 164 33T38 -9Q-9 -9 -47 7L-4 120Q2 116 14 111T37 107Q67 107 84 128T115 200Z" horiz-adv-x="705" unicode="Л"/>
			<glyph d="M163 710H330L460 365L714 710H890L764 0H632L729 545L486 212H389L265 546L169 0H37Z" horiz-adv-x="892" unicode="М"/>
			<glyph d="M163 710H298L245 414H567L620 710H754L628 0H494L547 296H225L172 0H37Z" horiz-adv-x="756" unicode="Н"/>
			<glyph d="M465 720Q567 720 644 680T763 565T806 388Q806 287 760 195T624 47T405 -10Q301 -10 222 31T100 148T57 326Q57 434 106 524T247 667T465 720ZM452 593Q372 593 314 556T227 460T198 333Q198 235 257 176T414 117Q490 117 547 154T634 253T665 383Q665 446 638 493T563 567T452 593Z" horiz-adv-x="827" unicode="О"/>
			<glyph d="M163 710H744L618 0H484L589 592H277L172 0H37Z" horiz-adv-x="746" unicode="П"/>
			<glyph d="M163 710H375Q495 710 555 654T616 502Q616 430 583 372T484 282T326 249H217L173 0H38ZM278 599L236 360H325Q395 360 435 396T475 495Q475 549 442 574T342 599Z" horiz-adv-x="600" unicode="Р"/>
			<glyph d="M459 720Q606 720 700 641L644 519Q560 593 456 593Q383 593 324 558T231 465T198 336Q198 272 224 222T300 144T413 117Q512 117 621 187L653 67Q536 -10 400 -10Q299 -10 221 31T100 148T57 325Q57 442 110 531T255 670T459 720Z" horiz-adv-x="701" unicode="С"/>
			<glyph d="M101 710H610L589 592H405L300 0H165L270 592H80Z" horiz-adv-x="552" unicode="Т"/>
			<glyph d="M104 710H250L370 308L607 710H750L428 184Q386 116 353 77T273 14T156 -10Q89 -10 33 12L80 123Q118 105 163 105Q198 105 225 120T282 176Z" horiz-adv-x="674" unicode="У"/>
			<glyph d="M459 726H587L573 646Q711 632 785 565T859 387Q859 292 809 221T672 109T471 62L457 -16H329L343 64Q206 79 131 146T56 328Q56 422 106 492T244 601T445 648ZM426 538Q320 529 257 479T194 342Q194 275 236 232T363 176ZM553 534L490 172Q599 180 660 231T722 370Q722 436 680 478T553 534Z" horiz-adv-x="878" unicode="Ф"/>
			<glyph d="M105 710H250L360 463L547 710H703L420 355L585 0H440L327 254L132 0H-27L268 363Z" horiz-adv-x="644" unicode="Х"/>
			<glyph d="M162 710H297L193 118H496L601 710H736L631 118H732L679 -176H567L599 0H37Z" horiz-adv-x="793" unicode="Ц"/>
			<glyph d="M140 710H275L236 491Q231 468 231 449Q231 355 338 355Q385 355 432 370T519 411L573 710H707L581 0H447L501 306Q459 279 403 261T285 243Q192 243 142 286T92 409Q92 435 97 470Z" horiz-adv-x="709" unicode="Ч"/>
			<glyph d="M163 710H298L193 118H473L578 710H712L607 118H887L992 710H1127L1001 0H37Z" horiz-adv-x="1128" unicode="Ш"/>
			<glyph d="M163 710H298L193 118H473L578 710H712L607 118H887L992 710H1127L1022 118H1150L1097 -176H985L1017 0H37Z" horiz-adv-x="1211" unicode="Щ"/>
			<glyph d="M101 710H440L390 426H529Q629 426 682 376T735 243Q735 172 699 116T598 30T453 0H179L284 589H79ZM370 315L334 111H449Q516 111 553 142T591 228Q591 315 485 315Z" horiz-adv-x="763" unicode="Ъ"/>
			<glyph d="M163 710H298L248 426H387Q487 426 540 376T593 243Q593 172 557 116T456 30T311 0H37ZM228 315L192 111H307Q374 111 411 142T449 228Q449 315 343 315ZM785 710H920L794 0H659Z" horiz-adv-x="922" unicode="Ы"/>
			<glyph d="M163 710H298L248 426H387Q487 426 540 376T593 243Q593 172 557 116T456 30T311 0H37ZM228 315L192 111H307Q374 111 411 142T449 228Q449 315 343 315Z" horiz-adv-x="622" unicode="Ь"/>
			<glyph d="M340 720Q442 720 518 680T637 564T679 385Q679 271 628 181T484 40T274 -10Q132 -10 37 69L93 185Q179 111 280 111Q376 111 444 162T535 299H205L225 414H542Q531 500 473 549T323 599Q267 599 216 580T115 529L83 643Q201 720 340 720Z" horiz-adv-x="700" unicode="Э"/>
			<glyph d="M757 720Q859 720 936 680T1055 565T1098 388Q1098 287 1052 195T916 47T697 -10Q598 -10 521 27T400 133T350 296H225L172 0H37L163 710H298L245 414H358Q376 502 428 571T565 680T757 720ZM744 593Q664 593 606 556T519 460T490 333Q490 235 549 176T706 117Q782 117 839 154T926 253T957 383Q957 446 930 493T855 567T744 593Z" horiz-adv-x="1118" unicode="Ю"/>
			<glyph d="M385 710H633L507 0H372L421 277H330H312L120 0H-34L195 309Q152 334 130 375T108 471Q108 539 142 593T238 678T385 710ZM385 599Q316 599 282 565T248 478Q248 384 348 384H440L478 599Z" horiz-adv-x="634" unicode="Я"/>
			<glyph d="M309 516Q403 516 458 472T514 343Q514 320 510 293T505 261L458 0H333L344 63Q276 -11 177 -11Q111 -11 68 25T26 128Q26 227 117 265T387 306L389 333Q389 371 364 392T289 413Q210 413 124 362L100 460Q141 484 195 500T309 516ZM375 231Q262 230 209 210T157 144Q157 113 176 98T230 83Q281 83 321 112T370 202Z" horiz-adv-x="566" unicode="а"/>
			<glyph d="M581 762L593 654Q559 647 478 639Q404 630 388 627Q331 617 296 596T241 538T205 437Q283 504 382 504Q476 504 532 445T588 282Q588 201 553 134T456 29T313 -10Q244 -10 188 20T98 116T64 283Q64 322 71 378Q90 530 153 617T352 729Q407 739 482 748ZM344 398Q293 398 251 373T185 311Q183 287 183 277Q183 188 221 145T319 102Q383 102 423 149T463 269Q463 332 431 365T344 398Z" horiz-adv-x="627" unicode="б"/>
			<glyph d="M118 506H345Q422 506 460 474T499 391Q499 344 469 311T387 268Q435 260 462 229T490 148Q490 74 431 37T274 0H28ZM227 419L207 302H289Q333 302 356 322T380 372Q380 419 316 419ZM191 217L168 86H269Q317 86 341 104T365 157Q365 189 343 203T273 217Z" horiz-adv-x="549" unicode="в"/>
			<glyph d="M294 517Q370 517 414 482T458 380Q458 328 433 295T369 245T273 213Q227 201 205 194T167 173T151 136Q151 90 217 90Q256 90 306 103T394 138L405 42Q365 19 311 4T204 -10Q121 -10 75 26T30 130Q30 203 79 242T211 301Q260 313 284 320T322 341T336 374Q336 417 275 417Q242 417 202 407T128 381L121 476Q153 493 201 505T294 517Z" horiz-adv-x="475" unicode="г"/>
			<glyph d="M231 765Q272 724 343 679Q437 619 490 565T567 452T591 315Q591 219 554 145T450 30T292 -10Q216 -10 159 20T70 104T39 231Q39 310 74 371T169 467T302 501Q348 501 387 483T454 437Q429 476 389 507T276 585L248 603Q210 626 189 641T150 676ZM328 398Q286 398 249 379T191 325T169 241Q169 179 205 142T302 106Q349 106 385 127T440 186T460 267Q460 329 423 363T328 398Z" horiz-adv-x="625" unicode="д"/>
			<glyph d="M318 516Q422 516 481 454T541 287Q541 261 537 226H163Q167 159 206 127T309 95Q356 95 398 109T481 149L498 47Q407 -10 291 -10Q214 -10 157 19T70 101T40 227Q40 312 74 377T172 479T318 516ZM313 419Q261 419 225 390T174 312H419Q416 359 388 389T313 419Z" horiz-adv-x="579" unicode="е"/>
			<glyph d="M57 506H186L319 310H360L394 506H513L479 310H517L711 506H847L605 260L769 0H638L503 220H463L424 0H305L344 220H307L102 0H-39L224 272Z" horiz-adv-x="819" unicode="ж"/>
			<glyph d="M266 516Q357 516 408 481T460 388Q460 335 423 302T317 261Q440 238 440 142Q440 65 375 27T202 -10Q143 -10 90 4T-1 42L34 143Q114 93 205 93Q308 93 308 155Q308 186 273 201T155 217L172 306Q260 306 297 322T334 368Q334 418 246 418Q207 418 168 408T96 379L80 475Q165 516 266 516Z" horiz-adv-x="500" unicode="з"/>
			<glyph d="M111 506H236L188 232Q183 202 183 179Q183 141 205 119T270 98Q327 98 367 135T418 236L466 506H590L501 0H376L388 67Q357 30 314 9T223 -11Q145 -11 99 32T54 151Q54 183 61 225Z" horiz-adv-x="619" unicode="и"/>
			<glyph d="M111 506H236L188 232Q183 202 183 179Q183 141 205 119T270 98Q327 98 367 135T418 236L466 506H590L501 0H376L388 67Q357 30 314 9T223 -11Q145 -11 99 32T54 151Q54 183 61 225ZM209 739H299Q297 731 297 724Q297 692 318 676T377 660Q458 660 471 739H559Q546 665 498 621T365 578Q292 578 249 614T206 709Q206 724 209 739Z" horiz-adv-x="619" unicode="й"/>
			<glyph d="M118 506H236L202 311H240L435 506H573L324 258L492 0H359L220 220H186L147 0H28Z" horiz-adv-x="543" unicode="к"/>
			<glyph d="M211 506H616L526 0H401L472 401H303L220 125Q200 58 164 24T62 -9Q35 -9 9 -3T-30 10L2 114Q11 109 24 105T49 101Q73 101 87 119T115 182Z" horiz-adv-x="644" unicode="л"/>
			<glyph d="M118 506H258L373 201L590 506H742L653 0H530L591 342L404 83H301L207 342L147 0H28Z" horiz-adv-x="770" unicode="м"/>
			<glyph d="M118 506H242L207 309H435L470 506H595L505 0H381L417 205H189L153 0H28Z" horiz-adv-x="623" unicode="н"/>
			<glyph d="M340 516Q415 516 472 486T560 401T592 277Q592 200 555 134T450 29T291 -10Q218 -10 160 20T71 105T39 235Q39 310 75 374T179 477T340 516ZM326 402Q277 402 241 379T186 320T168 243Q168 179 205 141T304 104Q353 104 389 126T444 185T463 268Q463 329 425 365T326 402Z" unicode="о"/>
			<glyph d="M406 517Q482 517 523 476T565 357Q565 330 560 298L507 0H383L431 271Q436 301 436 321Q436 405 349 405Q292 405 252 368T201 270L153 0H28L118 506H242L229 427Q261 470 307 493T406 517Z" horiz-adv-x="618" unicode="п"/>
			<glyph d="M392 516Q457 516 506 486T583 403T610 283Q610 202 574 135T475 29T339 -10Q279 -10 234 15T168 88L116 -210H-8L118 506H242L231 448Q260 480 301 498T392 516ZM352 403Q282 403 238 356T195 237Q195 178 230 140T324 103Q369 103 404 125T460 185T480 270Q480 328 445 365T352 403Z" horiz-adv-x="648" unicode="р"/>
			<glyph d="M334 516Q428 516 498 469L453 364Q400 404 335 404Q260 404 215 357T170 239Q170 175 206 138T309 102Q374 102 441 143L462 38Q430 17 383 3T287 -10Q212 -10 156 19T69 103T39 229Q39 311 75 376T178 479T334 516Z" horiz-adv-x="509" unicode="с"/>
			<glyph d="M398 517Q455 517 491 491T539 414Q571 465 619 491T723 517Q795 517 833 476T872 362Q872 333 866 300L814 0H690L738 274Q743 306 743 324Q743 363 723 384T665 405Q617 405 581 372T533 282L484 0H359L407 274Q413 303 413 324Q413 363 394 384T336 405Q284 405 247 366T201 271L153 0H28L118 506H242L230 433Q261 474 304 495T398 517Z" horiz-adv-x="925" unicode="т"/>
			<glyph d="M39 506H170L246 156L427 506H561L258 -50Q212 -135 159 -173T29 -212Q-29 -212 -62 -198L-28 -92Q-9 -100 22 -100Q96 -100 138 -27L162 14Z" horiz-adv-x="518" unicode="у"/>
			<glyph d="M521 752H645L588 430Q645 516 747 516Q807 516 853 487T925 405T951 281Q951 204 920 137T831 30T694 -10Q563 -10 531 105L476 -210H351L399 62Q345 -10 247 -10Q184 -10 136 19T63 102T38 225Q38 304 71 370T163 476T298 516Q362 516 402 488T460 406ZM314 401Q274 401 241 381T189 324T170 239Q170 178 201 142T288 106Q331 106 364 129T415 191T433 272Q433 329 400 365T314 401ZM702 401Q662 401 629 378T577 318T558 237Q558 180 591 143T681 106Q743 106 781 152T819 267Q819 329 787 365T702 401Z" horiz-adv-x="990" unicode="ф"/>
			<glyph d="M58 506H199L285 343L422 506H573L349 259L496 0H357L264 174L116 0H-37L200 260Z" horiz-adv-x="548" unicode="х"/>
			<glyph d="M111 506H236L188 232Q183 202 183 179Q183 141 205 119T270 98Q327 98 367 135T418 236L466 506H590L519 103H615L570 -150H460L487 0H376L388 67Q357 30 314 9T223 -11Q145 -11 99 32T54 151Q54 183 61 225Z" horiz-adv-x="660" unicode="ц"/>
			<glyph d="M93 506H218L194 371Q188 337 188 313Q188 251 271 251Q339 251 401 288L440 506H564L475 0H350L384 190Q307 149 222 149Q145 149 102 186T59 289Q59 322 68 367Z" horiz-adv-x="593" unicode="ч"/>
			<glyph d="M118 506H242L194 232Q188 205 188 182Q188 143 208 122T266 101Q312 101 346 130T395 211L448 506H573L524 232Q519 202 519 182Q519 143 538 122T596 101Q648 101 684 139T731 235L779 506H903L814 0H690L702 73Q671 32 628 10T534 -11Q477 -11 440 14T393 92Q361 41 312 15T208 -11Q137 -11 98 29T60 144Q60 171 65 206Z" horiz-adv-x="932" unicode="ш"/>
			<glyph d="M118 506H242L194 232Q188 205 188 182Q188 143 208 122T266 101Q312 101 346 130T395 211L448 506H573L524 232Q519 202 519 182Q519 143 538 122T596 101Q648 101 684 139T731 235L779 506H903L832 103H947L902 -150H791L818 0H690L702 73Q671 32 628 10T534 -11Q477 -11 440 14T393 92Q361 41 312 15T208 -11Q137 -11 98 29T60 144Q60 171 65 206Z" horiz-adv-x="991" unicode="щ"/>
			<glyph d="M59 506H351L317 314H420Q507 314 553 274T600 166Q600 88 542 44T387 0H137L208 401H40ZM302 229L277 86H382Q426 86 451 106T477 163Q477 229 388 229Z" horiz-adv-x="635" unicode="ъ"/>
			<glyph d="M118 506H242L208 314H311Q398 314 444 274T491 166Q491 88 433 44T278 0H28ZM621 506H746L657 0H532ZM193 229L168 86H273Q317 86 342 106T368 163Q368 229 279 229Z" horiz-adv-x="774" unicode="ы"/>
			<glyph d="M118 506H242L208 314H311Q398 314 444 274T491 166Q491 88 433 44T278 0H28ZM193 229L168 86H273Q317 86 342 106T368 163Q368 229 279 229Z" horiz-adv-x="526" unicode="ь"/>
			<glyph d="M224 516Q295 516 349 488T435 408T466 285Q466 205 427 137T318 30T160 -10Q111 -10 69 3T-1 36L49 131Q101 91 163 91Q226 91 270 123T334 208H90L107 301H344Q336 354 298 384T200 415Q131 415 67 374L47 467Q81 489 128 502T224 516Z" horiz-adv-x="503" unicode="э"/>
			<glyph d="M594 516Q669 516 726 486T814 401T846 277Q846 200 809 134T704 29T545 -10Q441 -10 372 48T294 205H189L153 0H28L118 506H242L207 309H303Q327 400 403 458T594 516ZM580 402Q531 402 495 379T440 320T422 243Q422 179 459 141T558 104Q607 104 643 126T698 185T717 268Q717 329 679 365T580 402Z" horiz-adv-x="885" unicode="ю"/>
			<glyph d="M283 507H515L426 1H302L335 193H263L119 0H-23L149 210Q110 228 88 261T66 337Q66 419 126 463T283 507ZM289 421Q243 421 218 400T193 343Q193 312 214 295T277 278H351L376 421Z" horiz-adv-x="544" unicode="я"/>
			<glyph d="M318 516Q422 516 481 454T541 287Q541 261 537 226H163Q167 159 206 127T309 95Q356 95 398 109T481 149L498 47Q407 -10 291 -10Q214 -10 157 19T70 101T40 227Q40 312 74 377T172 479T318 516ZM313 419Q261 419 225 390T174 312H419Q416 359 388 389T313 419ZM197 739H318L412 576H307Z" horiz-adv-x="579" unicode="ѐ"/>
			<glyph d="M318 516Q422 516 481 454T541 287Q541 261 537 226H163Q167 159 206 127T309 95Q356 95 398 109T481 149L498 47Q407 -10 291 -10Q214 -10 157 19T70 101T40 227Q40 312 74 377T172 479T318 516ZM313 419Q261 419 225 390T174 312H419Q416 359 388 389T313 419ZM235 734Q263 734 282 715T302 668Q302 640 282 620T235 601Q207 601 188 620T169 668Q169 696 188 715T235 734ZM448 734Q476 734 495 715T514 668Q514 640 495 620T448 601Q419 601 400 620T381 668Q381 696 400 715T448 734Z" horiz-adv-x="579" unicode="ё"/>
			<glyph d="M161 752H286L270 662H431L414 569H254L226 413Q259 456 306 478T410 501Q482 501 523 459T565 343Q565 313 558 281L541 183L502 -46Q486 -133 444 -175T333 -217Q307 -217 282 -213T242 -203L263 -95Q292 -105 315 -105Q341 -105 356 -86T380 -23L384 0L429 258Q434 286 434 304Q434 345 413 367T350 389Q292 389 250 352T199 254L154 0H29L129 569H63L79 662H145Z" horiz-adv-x="621" unicode="ђ"/>
			<glyph d="M294 517Q370 517 414 482T458 380Q458 328 433 295T369 245T273 213Q227 201 205 194T167 173T151 136Q151 90 217 90Q256 90 306 103T394 138L405 42Q365 19 311 4T204 -10Q121 -10 75 26T30 130Q30 203 79 242T211 301Q260 313 284 320T322 341T336 374Q336 417 275 417Q242 417 202 407T128 381L121 476Q153 493 201 505T294 517ZM374 739H500L332 576H222Z" horiz-adv-x="475" unicode="ѓ"/>
			<glyph d="M343 516Q392 516 433 503T504 470L454 375Q402 415 340 415Q277 415 232 382T169 298H413L396 205H159Q167 152 205 121T303 91Q372 91 436 132L456 39Q422 17 375 3T279 -10Q208 -10 153 18T68 98T37 221Q37 301 76 368T185 476T343 516Z" horiz-adv-x="503" unicode="є"/>
			<glyph d="M278 517Q327 517 372 505T448 476L412 381Q339 423 270 423Q236 423 215 412T195 377Q195 357 215 342T297 301Q343 281 368 264T409 223T424 160Q424 79 365 34T206 -10Q149 -10 98 4T15 42L54 138Q87 115 131 99T217 84Q255 84 276 98T298 138Q298 155 287 167T260 187T206 212Q157 234 128 252T84 294T69 355Q69 430 126 473T278 517Z" horiz-adv-x="475" unicode="ѕ"/>
			<glyph d="M118 506H242L153 0H28ZM207 745Q239 745 261 722T283 668Q283 636 261 614T207 592Q175 592 153 614T131 668Q131 700 153 722T207 745Z" horiz-adv-x="271" unicode="і"/>
			<glyph d="M118 506H242L153 0H28ZM107 739Q137 739 158 718T179 668Q179 637 158 616T107 596Q77 596 56 616T36 668Q36 698 56 718T107 739ZM299 739Q330 739 350 718T371 668Q371 637 350 616T299 596Q269 596 248 616T228 668Q228 698 248 718T299 739Z" horiz-adv-x="271" unicode="ї"/>
			<glyph d="M120 506H244L148 -46Q132 -133 90 -175T-20 -217Q-75 -217 -112 -203L-91 -95Q-62 -105 -37 -105Q-13 -105 2 -86T26 -23ZM209 745Q241 745 263 722T285 668Q285 636 263 614T209 592Q177 592 155 614T133 668Q133 700 155 722T209 745Z" horiz-adv-x="274" unicode="ј"/>
			<glyph d="M211 506H591L557 314H660Q747 314 793 274T840 166Q840 88 782 44T627 0H377L448 401H303L220 125Q200 58 164 24T62 -9Q35 -9 9 -3T-30 10L2 114Q25 101 47 101Q71 101 86 122T118 199ZM542 229L517 86H622Q666 86 691 106T717 163Q717 229 628 229Z" horiz-adv-x="875" unicode="љ"/>
			<glyph d="M118 506H242L208 313H424L458 506H582L548 314H651Q738 314 784 274T831 166Q831 88 773 44T618 0H368L405 208H190L153 0H28ZM533 229L508 86H613Q657 86 682 106T708 163Q708 229 619 229Z" horiz-adv-x="866" unicode="њ"/>
			<glyph d="M161 752H286L270 662H431L414 569H254L226 413Q259 456 306 478T410 501Q482 501 523 459T565 343Q565 313 558 281L509 0H384L429 258Q434 286 434 304Q434 345 413 367T350 389Q292 389 250 352T199 254L154 0H29L129 569H63L79 662H145Z" horiz-adv-x="620" unicode="ћ"/>
			<glyph d="M118 506H236L202 311H240L435 506H573L324 258L492 0H359L220 220H186L147 0H28ZM405 739H531L363 576H253Z" horiz-adv-x="543" unicode="ќ"/>
			<glyph d="M111 506H236L188 232Q183 202 183 179Q183 141 205 119T270 98Q327 98 367 135T418 236L466 506H590L501 0H376L388 67Q357 30 314 9T223 -11Q145 -11 99 32T54 151Q54 183 61 225ZM228 739H349L443 576H338Z" horiz-adv-x="619" unicode="ѝ"/>
			<glyph d="M39 506H170L246 156L427 506H561L258 -50Q212 -135 159 -173T29 -212Q-29 -212 -62 -198L-28 -92Q-9 -100 22 -100Q96 -100 138 -27L162 14ZM150 739H240Q238 731 238 724Q238 692 259 676T318 660Q399 660 412 739H500Q487 665 439 621T306 578Q233 578 190 614T147 709Q147 724 150 739Z" horiz-adv-x="518" unicode="ў"/>
			<glyph d="M111 506H236L188 232Q183 202 183 179Q183 141 205 119T270 98Q327 98 367 135T418 236L466 506H590L501 0H376L388 67Q351 23 300 3L273 -150H162L187 -8Q124 1 89 43T54 151Q54 183 61 225Z" horiz-adv-x="619" unicode="џ"/>
			<glyph d="M494 850H606L560 589H277L172 0H37L163 710H469Z" horiz-adv-x="521" unicode="Ґ"/>
			<glyph d="M359 629H470L429 401H224L153 0H28L118 506H337Z" horiz-adv-x="428" unicode="ґ"/>
			<glyph d="M163 710H581L560 589H277L240 383H424L405 275H221L172 0H37L86 275H22L41 383H105Z" horiz-adv-x="523" unicode="Ғ"/>
			<glyph d="M118 506H446L429 401H224L202 274H357L341 182H185L153 0H28L60 182H3L19 274H77Z" horiz-adv-x="428" unicode="ғ"/>
			<glyph d="M119 710H267L442 406H505L559 710H688L634 406H697L977 710H1129L807 371L959 118H1072L1020 -176H908L939 0H875L693 303H616L562 0H433L487 303H413L125 0H-35L321 371Z" horiz-adv-x="1126" unicode="Җ"/>
			<glyph d="M57 506H186L319 310H360L394 506H513L479 310H517L711 506H847L605 260L704 103H809L764 -150H654L680 0H638L503 220H463L424 0H305L344 220H307L102 0H-39L224 272Z" horiz-adv-x="854" unicode="җ"/>
			<glyph d="M163 710H298L244 406H297L576 710H733L405 365L555 118H670L617 -176H505L537 0H473L292 304H226L172 0H37Z" horiz-adv-x="724" unicode="Қ"/>
			<glyph d="M118 506H236L202 311H240L435 506H573L324 258L425 103H533L488 -150H378L404 0H359L220 220H186L147 0H28Z" horiz-adv-x="578" unicode="қ"/>
			<glyph d="M149 710H284L230 406H286L317 582H406L378 425L613 710H770L475 363L662 0H513L364 304H357L323 112H234L268 304H212L158 0H23Z" horiz-adv-x="716" unicode="Ҝ"/>
			<glyph d="M118 506H236L202 311H251L269 413H339L321 311H330L481 506H615L419 261L524 0H397L317 220H305L284 104H214L235 220H186L147 0H28Z" horiz-adv-x="577" unicode="ҝ"/>
			<glyph d="M163 710H298L245 414H567L620 710H754L649 118H753L700 -176H588L620 0H494L547 296H225L172 0H37Z" horiz-adv-x="814" unicode="Ң"/>
			<glyph d="M118 506H242L207 309H435L470 506H595L523 103H624L579 -150H468L495 0H381L417 205H189L153 0H28Z" horiz-adv-x="668" unicode="ң"/>
			<glyph d="M89 710H229L338 399L552 710H703L388 277L339 0H202L251 278Z" horiz-adv-x="632" unicode="Ү"/>
			<glyph d="M47 506H177L242 157L431 506H566L282 11L243 -210H119L157 11Z" horiz-adv-x="523" unicode="ү"/>
			<glyph d="M105 710H250L360 463L547 710H703L420 355L530 118H635L582 -176H470L502 0H440L327 254L132 0H-27L268 363Z" horiz-adv-x="689" unicode="Ҳ"/>
			<glyph d="M58 506H199L285 343L422 506H573L349 259L437 103H542L497 -150H386L413 0H357L264 174L116 0H-37L200 260Z" horiz-adv-x="586" unicode="ҳ"/>
			<glyph d="M140 710H275L236 491Q231 468 231 449Q231 365 316 356L351 555H440L406 363Q467 378 519 411L573 710H707L581 0H447L501 306Q453 275 387 256L357 85H269L297 243H285Q192 243 142 286T92 409Q92 435 97 470Z" horiz-adv-x="709" unicode="Ҹ"/>
			<glyph d="M93 506H218L194 371Q188 337 188 313Q188 261 248 252L267 363H337L318 255Q360 264 401 288L440 506H564L475 0H350L384 190Q348 170 301 158L283 54H213L230 149H222Q145 149 102 186T59 289Q59 322 68 367Z" horiz-adv-x="600" unicode="ҹ"/>
			<glyph d="M164 710H298L244 404Q286 431 341 449T460 467Q553 467 603 423T653 301Q653 275 648 240L605 0H470L509 219Q514 242 514 261Q514 355 407 355Q360 355 313 340T226 299L172 0H38Z" horiz-adv-x="709" unicode="Һ"/>
			<glyph d="M161 752H286L229 429Q262 472 309 494T413 517Q485 517 526 475T568 359Q568 329 561 297L509 0H384L432 274Q437 302 437 320Q437 361 416 383T353 405Q295 405 253 368T202 271L154 0H29Z" horiz-adv-x="620" unicode="һ"/>
			<glyph d="M163 710H298L172 0H37Z" horiz-adv-x="300" unicode="Ӏ"/>
			<glyph d="M161 752H286L154 0H29Z" horiz-adv-x="272" unicode="ӏ"/>
			<glyph d="M365 720Q467 720 545 679T666 563T709 383Q709 267 663 178T535 39T345 -10Q202 -10 124 74T47 306Q47 348 52 388H566Q561 482 503 537T352 593Q254 593 145 523L113 643Q230 720 365 720ZM184 284Q187 197 228 150T349 104Q432 104 485 153T558 284Z" horiz-adv-x="730" unicode="Ә"/>
			<glyph d="M288 516Q365 516 421 487T508 404T539 279Q539 194 504 128T407 26T261 -10Q157 -10 97 52T38 219Q38 245 42 280H416Q412 347 372 379T270 411Q223 411 181 397T98 357L81 459Q172 516 288 516ZM160 194Q163 147 190 117T266 87Q318 87 354 115T405 194Z" horiz-adv-x="579" unicode="ә"/>
			<glyph d="M465 720Q567 720 644 680T763 565T806 388Q806 287 760 195T624 47T405 -10Q301 -10 222 31T100 148T57 326Q57 434 106 524T247 667T465 720ZM452 593Q356 593 292 541T208 409H664Q656 493 598 543T452 593ZM200 300Q210 216 267 166T414 117Q504 117 566 168T653 300Z" horiz-adv-x="827" unicode="Ө"/>
			<glyph d="M340 516Q415 516 472 486T560 401T592 277Q592 200 555 134T450 29T291 -10Q218 -10 160 20T71 105T39 235Q39 310 75 374T179 477T340 516ZM326 414Q265 414 225 381T172 296H463Q455 352 419 383T326 414ZM167 212Q175 156 210 124T303 92Q364 92 404 125T458 212Z" unicode="ө"/>
			<glyph d="M98 710H237L286 181L532 710H664L723 182L957 710H1101L767 0H627L565 522L320 0H180ZM459 921H579L689 769H584Z" horiz-adv-x="1040" unicode="Ẁ"/>
			<glyph d="M54 506H187L230 147L402 506H508L557 150L721 506H854L603 0H477L428 337L265 0H134ZM330 739H451L545 576H440Z" horiz-adv-x="818" unicode="ẁ"/>
			<glyph d="M98 710H237L286 181L532 710H664L723 182L957 710H1101L767 0H627L565 522L320 0H180ZM679 921H804L645 769H535Z" horiz-adv-x="1040" unicode="Ẃ"/>
			<glyph d="M54 506H187L230 147L402 506H508L557 150L721 506H854L603 0H477L428 337L265 0H134ZM528 739H654L486 576H376Z" horiz-adv-x="818" unicode="ẃ"/>
			<glyph d="M98 710H237L286 181L532 710H664L723 182L957 710H1101L767 0H627L565 522L320 0H180ZM503 917Q531 917 550 898T570 851Q570 823 550 803T503 784Q475 784 456 803T437 851Q437 879 456 898T503 917ZM716 917Q744 917 763 898T782 851Q782 823 763 803T716 784Q687 784 668 803T649 851Q649 879 668 898T716 917Z" horiz-adv-x="1040" unicode="Ẅ"/>
			<glyph d="M54 506H187L230 147L402 506H508L557 150L721 506H854L603 0H477L428 337L265 0H134ZM368 734Q396 734 415 715T435 668Q435 640 415 620T368 601Q340 601 321 620T302 668Q302 696 321 715T368 734ZM581 734Q609 734 628 715T647 668Q647 640 628 620T581 601Q552 601 533 620T514 668Q514 696 533 715T581 734Z" horiz-adv-x="818" unicode="ẅ"/>
			<glyph d="M453 720Q540 720 607 692T719 620L703 523L500 430Q618 398 671 349T724 219Q724 150 688 98T588 18T438 -10Q373 -10 327 6T235 52L296 161Q358 101 449 101Q510 101 549 128T588 207Q588 261 533 296T348 356L367 464L583 567Q553 589 520 601T446 613Q358 613 304 558T230 389L161 0H28L99 402Q127 560 218 640T453 720Z" horiz-adv-x="748" unicode="ẞ"/>
			<glyph d="M351 710H498L636 0H500L465 200H209L105 0H-38ZM401 568L265 307H446ZM292 -74Q324 -74 346 -96T368 -151Q368 -183 346 -205T292 -227Q260 -227 238 -205T216 -151Q216 -119 238 -96T292 -74Z" horiz-adv-x="688" unicode="Ạ"/>
			<glyph d="M309 516Q403 516 458 472T514 343Q514 320 510 293T505 261L458 0H333L344 63Q276 -11 177 -11Q111 -11 68 25T26 128Q26 227 117 265T387 306L389 333Q389 371 364 392T289 413Q210 413 124 362L100 460Q141 484 195 500T309 516ZM375 231Q262 230 209 210T157 144Q157 113 176 98T230 83Q281 83 321 112T370 202ZM214 -74Q246 -74 268 -96T290 -151Q290 -183 268 -205T214 -227Q182 -227 160 -205T138 -151Q138 -119 160 -96T214 -74Z" horiz-adv-x="566" unicode="ạ"/>
			<glyph d="M351 710H498L636 0H500L465 200H209L105 0H-38ZM401 568L265 307H446ZM487 973Q529 973 556 955T583 898Q583 865 564 845T509 805Q492 795 486 789T476 772H388Q394 799 406 811T441 834Q468 846 480 855T493 880Q493 893 484 898T456 904Q427 904 396 892L395 956Q415 964 440 968T487 973Z" horiz-adv-x="688" unicode="Ả"/>
			<glyph d="M309 516Q403 516 458 472T514 343Q514 320 510 293T505 261L458 0H333L344 63Q276 -11 177 -11Q111 -11 68 25T26 128Q26 227 117 265T387 306L389 333Q389 371 364 392T289 413Q210 413 124 362L100 460Q141 484 195 500T309 516ZM375 231Q262 230 209 210T157 144Q157 113 176 98T230 83Q281 83 321 112T370 202ZM382 769Q424 769 451 751T478 694Q478 661 459 641T404 601Q387 591 381 585T371 568H283Q289 595 301 607T336 630Q363 642 375 651T388 676Q388 689 379 694T351 700Q322 700 291 688L290 752Q310 760 335 764T382 769Z" horiz-adv-x="566" unicode="ả"/>
			<glyph d="M351 710H498L636 0H500L465 200H209L105 0H-38ZM401 568L265 307H446ZM654 970H755L662 868H579ZM395 914H509L608 769H512L448 853L355 769H248Z" horiz-adv-x="688" unicode="Ấ"/>
			<glyph d="M309 516Q403 516 458 472T514 343Q514 320 510 293T505 261L458 0H333L344 63Q276 -11 177 -11Q111 -11 68 25T26 128Q26 227 117 265T387 306L389 333Q389 371 364 392T289 413Q210 413 124 362L100 460Q141 484 195 500T309 516ZM375 231Q262 230 209 210T157 144Q157 113 176 98T230 83Q281 83 321 112T370 202ZM545 791H646L553 689H470ZM301 739H407L502 576H408L347 667L260 576H162Z" horiz-adv-x="566" unicode="ấ"/>
			<glyph d="M351 710H498L636 0H500L465 200H209L105 0H-38ZM401 568L265 307H446ZM161 970H261L315 868H232ZM396 914H510L609 769H513L449 853L356 769H249Z" horiz-adv-x="688" unicode="Ầ"/>
			<glyph d="M309 516Q403 516 458 472T514 343Q514 320 510 293T505 261L458 0H333L344 63Q276 -11 177 -11Q111 -11 68 25T26 128Q26 227 117 265T387 306L389 333Q389 371 364 392T289 413Q210 413 124 362L100 460Q141 484 195 500T309 516ZM375 231Q262 230 209 210T157 144Q157 113 176 98T230 83Q281 83 321 112T370 202ZM59 791H159L213 689H130ZM301 739H407L502 576H408L347 667L260 576H162Z" horiz-adv-x="566" unicode="ầ"/>
			<glyph d="M351 710H498L636 0H500L465 200H209L105 0H-38ZM401 568L265 307H446ZM694 1029Q732 1029 756 1013T780 962Q780 932 763 914T714 878Q698 869 693 864T684 848H605Q611 872 621 883T653 904Q677 915 688 923T699 945Q699 957 691 962T666 967Q642 967 612 956L611 1014Q628 1021 651 1025T694 1029ZM403 914H517L616 769H520L456 853L363 769H256Z" horiz-adv-x="688" unicode="Ẩ"/>
			<glyph d="M309 516Q403 516 458 472T514 343Q514 320 510 293T505 261L458 0H333L344 63Q276 -11 177 -11Q111 -11 68 25T26 128Q26 227 117 265T387 306L389 333Q389 371 364 392T289 413Q210 413 124 362L100 460Q141 484 195 500T309 516ZM375 231Q262 230 209 210T157 144Q157 113 176 98T230 83Q281 83 321 112T370 202ZM575 852Q613 852 637 836T661 785Q661 755 644 737T595 701Q579 692 574 687T565 671H486Q492 695 502 706T534 727Q558 738 569 746T580 768Q580 780 572 785T547 790Q523 790 493 779L492 837Q509 844 532 848T575 852ZM305 739H411L506 576H412L351 667L264 576H166Z" horiz-adv-x="566" unicode="ẩ"/>
			<glyph d="M351 710H498L636 0H500L465 200H209L105 0H-38ZM401 568L265 307H446ZM418 1064Q436 1064 453 1058T497 1041Q512 1034 524 1029T547 1025Q561 1025 569 1034T583 1064H649Q627 952 546 952Q512 952 470 974Q454 982 441 986T419 991Q390 991 381 952H315Q325 1008 353 1036T418 1064ZM406 914H533L643 769H537L465 853L362 769H243Z" horiz-adv-x="688" unicode="Ẫ"/>
			<glyph d="M309 516Q403 516 458 472T514 343Q514 320 510 293T505 261L458 0H333L344 63Q276 -11 177 -11Q111 -11 68 25T26 128Q26 227 117 265T387 306L389 333Q389 371 364 392T289 413Q210 413 124 362L100 460Q141 484 195 500T309 516ZM375 231Q262 230 209 210T157 144Q157 113 176 98T230 83Q281 83 321 112T370 202ZM300 895Q318 895 335 889T379 872Q394 865 406 860T429 856Q443 856 451 865T465 895H531Q509 783 428 783Q394 783 352 805Q336 813 323 817T301 822Q272 822 263 783H197Q207 839 235 867T300 895ZM294 739H412L517 576H413L345 667L249 576H140Z" horiz-adv-x="566" unicode="ẫ"/>
			<glyph d="M351 710H498L636 0H500L465 200H209L105 0H-38ZM401 568L265 307H446ZM392 914H519L629 769H523L451 853L348 769H229ZM292 -74Q324 -74 346 -96T368 -151Q368 -183 346 -205T292 -227Q260 -227 238 -205T216 -151Q216 -119 238 -96T292 -74Z" horiz-adv-x="688" unicode="Ậ"/>
			<glyph d="M309 516Q403 516 458 472T514 343Q514 320 510 293T505 261L458 0H333L344 63Q276 -11 177 -11Q111 -11 68 25T26 128Q26 227 117 265T387 306L389 333Q389 371 364 392T289 413Q210 413 124 362L100 460Q141 484 195 500T309 516ZM375 231Q262 230 209 210T157 144Q157 113 176 98T230 83Q281 83 321 112T370 202ZM298 739H416L521 576H417L349 667L253 576H144ZM214 -74Q246 -74 268 -96T290 -151Q290 -183 268 -205T214 -227Q182 -227 160 -205T138 -151Q138 -119 160 -96T214 -74Z" horiz-adv-x="566" unicode="ậ"/>
			<glyph d="M351 710H498L636 0H500L465 200H209L105 0H-38ZM401 568L265 307H446ZM471 1070H572L479 968H396ZM301 908H390Q389 904 389 895Q389 872 405 860T456 849Q526 849 537 908H626Q614 845 569 808T444 771Q374 771 336 800T298 877Q298 893 301 908Z" horiz-adv-x="688" unicode="Ắ"/>
			<glyph d="M309 516Q403 516 458 472T514 343Q514 320 510 293T505 261L458 0H333L344 63Q276 -11 177 -11Q111 -11 68 25T26 128Q26 227 117 265T387 306L389 333Q389 371 364 392T289 413Q210 413 124 362L100 460Q141 484 195 500T309 516ZM375 231Q262 230 209 210T157 144Q157 113 176 98T230 83Q281 83 321 112T370 202ZM372 882H473L380 780H297ZM197 739H287Q285 731 285 724Q285 692 304 676T355 660Q428 660 439 739H527Q515 665 469 621T343 578Q274 578 234 614T194 709Q194 724 197 739Z" horiz-adv-x="566" unicode="ắ"/>
			<glyph d="M351 710H498L636 0H500L465 200H209L105 0H-38ZM401 568L265 307H446ZM368 1070H468L522 968H439ZM310 908H399Q398 904 398 895Q398 872 414 860T465 849Q535 849 546 908H635Q623 845 578 808T453 771Q383 771 345 800T307 877Q307 893 310 908Z" horiz-adv-x="688" unicode="Ằ"/>
			<glyph d="M309 516Q403 516 458 472T514 343Q514 320 510 293T505 261L458 0H333L344 63Q276 -11 177 -11Q111 -11 68 25T26 128Q26 227 117 265T387 306L389 333Q389 371 364 392T289 413Q210 413 124 362L100 460Q141 484 195 500T309 516ZM375 231Q262 230 209 210T157 144Q157 113 176 98T230 83Q281 83 321 112T370 202ZM260 882H360L414 780H331ZM197 739H287Q285 731 285 724Q285 692 304 676T355 660Q428 660 439 739H527Q515 665 469 621T343 578Q274 578 234 614T194 709Q194 724 197 739Z" horiz-adv-x="566" unicode="ằ"/>
			<glyph d="M351 710H498L636 0H500L465 200H209L105 0H-38ZM401 568L265 307H446ZM521 1145Q559 1145 583 1129T607 1078Q607 1048 590 1030T541 994Q525 985 520 980T511 964H432Q438 988 448 999T480 1020Q504 1031 515 1039T526 1061Q526 1073 518 1078T493 1083Q469 1083 439 1072L438 1130Q455 1137 478 1141T521 1145ZM307 908H396Q395 904 395 895Q395 872 411 860T462 849Q532 849 543 908H632Q620 845 575 808T450 771Q380 771 342 800T304 877Q304 893 307 908Z" horiz-adv-x="688" unicode="Ẳ"/>
			<glyph d="M309 516Q403 516 458 472T514 343Q514 320 510 293T505 261L458 0H333L344 63Q276 -11 177 -11Q111 -11 68 25T26 128Q26 227 117 265T387 306L389 333Q389 371 364 392T289 413Q210 413 124 362L100 460Q141 484 195 500T309 516ZM375 231Q262 230 209 210T157 144Q157 113 176 98T230 83Q281 83 321 112T370 202ZM424 957Q462 957 486 941T510 890Q510 860 493 842T444 806Q428 797 423 792T414 776H335Q341 800 351 811T383 832Q407 843 418 851T429 873Q429 885 421 890T396 895Q372 895 342 884L341 942Q358 949 381 953T424 957ZM205 739H295Q293 731 293 724Q293 692 312 676T363 660Q436 660 447 739H535Q523 665 477 621T351 578Q282 578 242 614T202 709Q202 724 205 739Z" horiz-adv-x="566" unicode="ẳ"/>
			<glyph d="M351 710H498L636 0H500L465 200H209L105 0H-38ZM401 568L265 307H446ZM406 1103Q424 1103 441 1097T485 1080Q500 1073 512 1068T535 1064Q549 1064 557 1073T571 1103H637Q615 991 534 991Q500 991 458 1013Q442 1021 429 1025T407 1030Q378 1030 369 991H303Q313 1047 341 1075T406 1103ZM291 908H380Q379 904 379 895Q379 872 395 860T446 849Q516 849 527 908H616Q604 845 559 808T434 771Q364 771 326 800T288 877Q288 893 291 908Z" horiz-adv-x="688" unicode="Ẵ"/>
			<glyph d="M309 516Q403 516 458 472T514 343Q514 320 510 293T505 261L458 0H333L344 63Q276 -11 177 -11Q111 -11 68 25T26 128Q26 227 117 265T387 306L389 333Q389 371 364 392T289 413Q210 413 124 362L100 460Q141 484 195 500T309 516ZM375 231Q262 230 209 210T157 144Q157 113 176 98T230 83Q281 83 321 112T370 202ZM310 915Q328 915 345 909T389 892Q404 885 416 880T439 876Q453 876 461 885T475 915H541Q519 803 438 803Q404 803 362 825Q346 833 333 837T311 842Q282 842 273 803H207Q217 859 245 887T310 915ZM190 739H280Q278 731 278 724Q278 692 297 676T348 660Q421 660 432 739H520Q508 665 462 621T336 578Q267 578 227 614T187 709Q187 724 190 739Z" horiz-adv-x="566" unicode="ẵ"/>
			<glyph d="M351 710H498L636 0H500L465 200H209L105 0H-38ZM401 568L265 307H446ZM298 908H387Q386 904 386 895Q386 872 402 860T453 849Q523 849 534 908H623Q611 845 566 808T441 771Q371 771 333 800T295 877Q295 893 298 908ZM292 -74Q324 -74 346 -96T368 -151Q368 -183 346 -205T292 -227Q260 -227 238 -205T216 -151Q216 -119 238 -96T292 -74Z" horiz-adv-x="688" unicode="Ặ"/>
			<glyph d="M309 516Q403 516 458 472T514 343Q514 320 510 293T505 261L458 0H333L344 63Q276 -11 177 -11Q111 -11 68 25T26 128Q26 227 117 265T387 306L389 333Q389 371 364 392T289 413Q210 413 124 362L100 460Q141 484 195 500T309 516ZM375 231Q262 230 209 210T157 144Q157 113 176 98T230 83Q281 83 321 112T370 202ZM194 739H284Q282 731 282 724Q282 692 301 676T352 660Q425 660 436 739H524Q512 665 466 621T340 578Q271 578 231 614T191 709Q191 724 194 739ZM214 -74Q246 -74 268 -96T290 -151Q290 -183 268 -205T214 -227Q182 -227 160 -205T138 -151Q138 -119 160 -96T214 -74Z" horiz-adv-x="566" unicode="ặ"/>
			<glyph d="M163 710H588L567 591H277L246 413H527L506 298H225L193 119H491L470 0H37ZM253 -74Q285 -74 307 -96T329 -151Q329 -183 307 -205T253 -227Q221 -227 199 -205T177 -151Q177 -119 199 -96T253 -74Z" horiz-adv-x="576" unicode="Ẹ"/>
			<glyph d="M318 516Q422 516 481 454T541 287Q541 261 537 226H163Q167 159 206 127T309 95Q356 95 398 109T481 149L498 47Q407 -10 291 -10Q214 -10 157 19T70 101T40 227Q40 312 74 377T172 479T318 516ZM313 419Q261 419 225 390T174 312H419Q416 359 388 389T313 419ZM250 -74Q282 -74 304 -96T326 -151Q326 -183 304 -205T250 -227Q218 -227 196 -205T174 -151Q174 -119 196 -96T250 -74Z" horiz-adv-x="579" unicode="ẹ"/>
			<glyph d="M163 710H588L567 591H277L246 413H527L506 298H225L193 119H491L470 0H37ZM434 973Q476 973 503 955T530 898Q530 865 511 845T456 805Q439 795 433 789T423 772H335Q341 799 353 811T388 834Q415 846 427 855T440 880Q440 893 431 898T403 904Q374 904 343 892L342 956Q362 964 387 968T434 973Z" horiz-adv-x="576" unicode="Ẻ"/>
			<glyph d="M318 516Q422 516 481 454T541 287Q541 261 537 226H163Q167 159 206 127T309 95Q356 95 398 109T481 149L498 47Q407 -10 291 -10Q214 -10 157 19T70 101T40 227Q40 312 74 377T172 479T318 516ZM313 419Q261 419 225 390T174 312H419Q416 359 388 389T313 419ZM379 769Q421 769 448 751T475 694Q475 661 456 641T401 601Q384 591 378 585T368 568H280Q286 595 298 607T333 630Q360 642 372 651T385 676Q385 689 376 694T348 700Q319 700 288 688L287 752Q307 760 332 764T379 769Z" horiz-adv-x="579" unicode="ẻ"/>
			<glyph d="M163 710H588L567 591H277L246 413H527L506 298H225L193 119H491L470 0H37ZM311 893Q332 893 351 887T406 868Q415 865 428 859T449 852T466 850Q483 850 494 860T510 893H590Q577 832 545 800T465 769Q442 769 420 775T373 793Q350 803 337 807T313 812Q278 812 266 769H186Q199 831 232 862T311 893Z" horiz-adv-x="576" unicode="Ẽ"/>
			<glyph d="M318 516Q422 516 481 454T541 287Q541 261 537 226H163Q167 159 206 127T309 95Q356 95 398 109T481 149L498 47Q407 -10 291 -10Q214 -10 157 19T70 101T40 227Q40 312 74 377T172 479T318 516ZM313 419Q261 419 225 390T174 312H419Q416 359 388 389T313 419ZM270 722Q289 722 308 716T357 697Q374 689 388 684T413 679Q428 679 437 688T453 722H526Q515 661 486 629T412 598Q375 598 327 622Q310 630 295 635T271 641Q238 641 228 598H155Q166 660 197 691T270 722Z" horiz-adv-x="579" unicode="ẽ"/>
			<glyph d="M163 710H588L567 591H277L246 413H527L506 298H225L193 119H491L470 0H37ZM601 970H702L609 868H526ZM342 914H456L555 769H459L395 853L302 769H195Z" horiz-adv-x="576" unicode="Ế"/>
			<glyph d="M318 516Q422 516 481 454T541 287Q541 261 537 226H163Q167 159 206 127T309 95Q356 95 398 109T481 149L498 47Q407 -10 291 -10Q214 -10 157 19T70 101T40 227Q40 312 74 377T172 479T318 516ZM313 419Q261 419 225 390T174 312H419Q416 359 388 389T313 419ZM515 791H616L523 689H440ZM271 739H377L472 576H378L317 667L230 576H132Z" horiz-adv-x="579" unicode="ế"/>
			<glyph d="M163 710H588L567 591H277L246 413H527L506 298H225L193 119H491L470 0H37ZM108 970H208L262 868H179ZM343 914H457L556 769H460L396 853L303 769H196Z" horiz-adv-x="576" unicode="Ề"/>
			<glyph d="M318 516Q422 516 481 454T541 287Q541 261 537 226H163Q167 159 206 127T309 95Q356 95 398 109T481 149L498 47Q407 -10 291 -10Q214 -10 157 19T70 101T40 227Q40 312 74 377T172 479T318 516ZM313 419Q261 419 225 390T174 312H419Q416 359 388 389T313 419ZM24 791H124L178 689H95ZM266 739H372L467 576H373L312 667L225 576H127Z" horiz-adv-x="579" unicode="ề"/>
			<glyph d="M163 710H588L567 591H277L246 413H527L506 298H225L193 119H491L470 0H37ZM647 1029Q685 1029 709 1013T733 962Q733 932 716 914T667 878Q651 869 646 864T637 848H558Q564 872 574 883T606 904Q630 915 641 923T652 945Q652 957 644 962T619 967Q595 967 565 956L564 1014Q581 1021 604 1025T647 1029ZM356 914H470L569 769H473L409 853L316 769H209Z" horiz-adv-x="576" unicode="Ể"/>
			<glyph d="M318 516Q422 516 481 454T541 287Q541 261 537 226H163Q167 159 206 127T309 95Q356 95 398 109T481 149L498 47Q407 -10 291 -10Q214 -10 157 19T70 101T40 227Q40 312 74 377T172 479T318 516ZM313 419Q261 419 225 390T174 312H419Q416 359 388 389T313 419ZM572 852Q610 852 634 836T658 785Q658 755 641 737T592 701Q576 692 571 687T562 671H483Q489 695 499 706T531 727Q555 738 566 746T577 768Q577 780 569 785T544 790Q520 790 490 779L489 837Q506 844 529 848T572 852ZM302 739H408L503 576H409L348 667L261 576H163Z" horiz-adv-x="579" unicode="ể"/>
			<glyph d="M163 710H588L567 591H277L246 413H527L506 298H225L193 119H491L470 0H37ZM365 1064Q383 1064 400 1058T444 1041Q459 1034 471 1029T494 1025Q508 1025 516 1034T530 1064H596Q574 952 493 952Q459 952 417 974Q401 982 388 986T366 991Q337 991 328 952H262Q272 1008 300 1036T365 1064ZM353 914H480L590 769H484L412 853L309 769H190Z" horiz-adv-x="576" unicode="Ễ"/>
			<glyph d="M318 516Q422 516 481 454T541 287Q541 261 537 226H163Q167 159 206 127T309 95Q356 95 398 109T481 149L498 47Q407 -10 291 -10Q214 -10 157 19T70 101T40 227Q40 312 74 377T172 479T318 516ZM313 419Q261 419 225 390T174 312H419Q416 359 388 389T313 419ZM284 895Q302 895 319 889T363 872Q378 865 390 860T413 856Q427 856 435 865T449 895H515Q493 783 412 783Q378 783 336 805Q320 813 307 817T285 822Q256 822 247 783H181Q191 839 219 867T284 895ZM278 739H396L501 576H397L329 667L233 576H124Z" horiz-adv-x="579" unicode="ễ"/>
			<glyph d="M163 710H588L567 591H277L246 413H527L506 298H225L193 119H491L470 0H37ZM339 914H466L576 769H470L398 853L295 769H176ZM253 -74Q285 -74 307 -96T329 -151Q329 -183 307 -205T253 -227Q221 -227 199 -205T177 -151Q177 -119 199 -96T253 -74Z" horiz-adv-x="576" unicode="Ệ"/>
			<glyph d="M318 516Q422 516 481 454T541 287Q541 261 537 226H163Q167 159 206 127T309 95Q356 95 398 109T481 149L498 47Q407 -10 291 -10Q214 -10 157 19T70 101T40 227Q40 312 74 377T172 479T318 516ZM313 419Q261 419 225 390T174 312H419Q416 359 388 389T313 419ZM295 739H413L518 576H414L346 667L250 576H141ZM250 -74Q282 -74 304 -96T326 -151Q326 -183 304 -205T250 -227Q218 -227 196 -205T174 -151Q174 -119 196 -96T250 -74Z" horiz-adv-x="579" unicode="ệ"/>
			<glyph d="M163 710H298L172 0H37ZM291 973Q333 973 360 955T387 898Q387 865 368 845T313 805Q296 795 290 789T280 772H192Q198 799 210 811T245 834Q272 846 284 855T297 880Q297 893 288 898T260 904Q231 904 200 892L199 956Q219 964 244 968T291 973Z" horiz-adv-x="300" unicode="Ỉ"/>
			<glyph d="M118 506H242L153 0H28ZM240 769Q282 769 309 751T336 694Q336 661 317 641T262 601Q245 591 239 585T229 568H141Q147 595 159 607T194 630Q221 642 233 651T246 676Q246 689 237 694T209 700Q180 700 149 688L148 752Q168 760 193 764T240 769Z" horiz-adv-x="271" unicode="ỉ"/>
			<glyph d="M163 710H298L172 0H37ZM86 -74Q118 -74 140 -96T162 -151Q162 -183 140 -205T86 -227Q54 -227 32 -205T10 -151Q10 -119 32 -96T86 -74Z" horiz-adv-x="300" unicode="Ị"/>
			<glyph d="M118 506H242L153 0H28ZM207 745Q239 745 261 722T283 668Q283 636 261 614T207 592Q175 592 153 614T131 668Q131 700 153 722T207 745ZM67 -74Q99 -74 121 -96T143 -151Q143 -183 121 -205T67 -227Q35 -227 13 -205T-9 -151Q-9 -119 13 -96T67 -74Z" horiz-adv-x="271" unicode="ị"/>
			<glyph d="M465 720Q567 720 644 680T763 565T806 388Q806 287 760 195T624 47T405 -10Q301 -10 222 31T100 148T57 326Q57 434 106 524T247 667T465 720ZM452 593Q372 593 314 556T227 460T198 333Q198 235 257 176T414 117Q490 117 547 154T634 253T665 383Q665 446 638 493T563 567T452 593ZM364 -74Q396 -74 418 -96T440 -151Q440 -183 418 -205T364 -227Q332 -227 310 -205T288 -151Q288 -119 310 -96T364 -74Z" horiz-adv-x="827" unicode="Ọ"/>
			<glyph d="M340 516Q415 516 472 486T560 401T592 277Q592 200 555 134T450 29T291 -10Q218 -10 160 20T71 105T39 235Q39 310 75 374T179 477T340 516ZM326 402Q277 402 241 379T186 320T168 243Q168 179 205 141T304 104Q353 104 389 126T444 185T463 268Q463 329 425 365T326 402ZM262 -74Q294 -74 316 -96T338 -151Q338 -183 316 -205T262 -227Q230 -227 208 -205T186 -151Q186 -119 208 -96T262 -74Z" unicode="ọ"/>
			<glyph d="M465 720Q567 720 644 680T763 565T806 388Q806 287 760 195T624 47T405 -10Q301 -10 222 31T100 148T57 326Q57 434 106 524T247 667T465 720ZM452 593Q372 593 314 556T227 460T198 333Q198 235 257 176T414 117Q490 117 547 154T634 253T665 383Q665 446 638 493T563 567T452 593ZM526 973Q568 973 595 955T622 898Q622 865 603 845T548 805Q531 795 525 789T515 772H427Q433 799 445 811T480 834Q507 846 519 855T532 880Q532 893 523 898T495 904Q466 904 435 892L434 956Q454 964 479 968T526 973Z" horiz-adv-x="827" unicode="Ỏ"/>
			<glyph d="M340 516Q415 516 472 486T560 401T592 277Q592 200 555 134T450 29T291 -10Q218 -10 160 20T71 105T39 235Q39 310 75 374T179 477T340 516ZM326 402Q277 402 241 379T186 320T168 243Q168 179 205 141T304 104Q353 104 389 126T444 185T463 268Q463 329 425 365T326 402ZM411 769Q453 769 480 751T507 694Q507 661 488 641T433 601Q416 591 410 585T400 568H312Q318 595 330 607T365 630Q392 642 404 651T417 676Q417 689 408 694T380 700Q351 700 320 688L319 752Q339 760 364 764T411 769Z" unicode="ỏ"/>
			<glyph d="M465 720Q567 720 644 680T763 565T806 388Q806 287 760 195T624 47T405 -10Q301 -10 222 31T100 148T57 326Q57 434 106 524T247 667T465 720ZM452 593Q372 593 314 556T227 460T198 333Q198 235 257 176T414 117Q490 117 547 154T634 253T665 383Q665 446 638 493T563 567T452 593ZM693 970H794L701 868H618ZM434 914H548L647 769H551L487 853L394 769H287Z" horiz-adv-x="827" unicode="Ố"/>
			<glyph d="M340 516Q415 516 472 486T560 401T592 277Q592 200 555 134T450 29T291 -10Q218 -10 160 20T71 105T39 235Q39 310 75 374T179 477T340 516ZM326 402Q277 402 241 379T186 320T168 243Q168 179 205 141T304 104Q353 104 389 126T444 185T463 268Q463 329 425 365T326 402ZM547 791H648L555 689H472ZM303 739H409L504 576H410L349 667L262 576H164Z" unicode="ố"/>
			<glyph d="M465 720Q567 720 644 680T763 565T806 388Q806 287 760 195T624 47T405 -10Q301 -10 222 31T100 148T57 326Q57 434 106 524T247 667T465 720ZM452 593Q372 593 314 556T227 460T198 333Q198 235 257 176T414 117Q490 117 547 154T634 253T665 383Q665 446 638 493T563 567T452 593ZM200 970H300L354 868H271ZM435 914H549L648 769H552L488 853L395 769H288Z" horiz-adv-x="827" unicode="Ồ"/>
			<glyph d="M340 516Q415 516 472 486T560 401T592 277Q592 200 555 134T450 29T291 -10Q218 -10 160 20T71 105T39 235Q39 310 75 374T179 477T340 516ZM326 402Q277 402 241 379T186 320T168 243Q168 179 205 141T304 104Q353 104 389 126T444 185T463 268Q463 329 425 365T326 402ZM56 791H156L210 689H127ZM298 739H404L499 576H405L344 667L257 576H159Z" unicode="ồ"/>
			<glyph d="M465 720Q567 720 644 680T763 565T806 388Q806 287 760 195T624 47T405 -10Q301 -10 222 31T100 148T57 326Q57 434 106 524T247 667T465 720ZM452 593Q372 593 314 556T227 460T198 333Q198 235 257 176T414 117Q490 117 547 154T634 253T665 383Q665 446 638 493T563 567T452 593ZM733 1029Q771 1029 795 1013T819 962Q819 932 802 914T753 878Q737 869 732 864T723 848H644Q650 872 660 883T692 904Q716 915 727 923T738 945Q738 957 730 962T705 967Q681 967 651 956L650 1014Q667 1021 690 1025T733 1029ZM442 914H556L655 769H559L495 853L402 769H295Z" horiz-adv-x="827" unicode="Ổ"/>
			<glyph d="M340 516Q415 516 472 486T560 401T592 277Q592 200 555 134T450 29T291 -10Q218 -10 160 20T71 105T39 235Q39 310 75 374T179 477T340 516ZM326 402Q277 402 241 379T186 320T168 243Q168 179 205 141T304 104Q353 104 389 126T444 185T463 268Q463 329 425 365T326 402ZM604 852Q642 852 666 836T690 785Q690 755 673 737T624 701Q608 692 603 687T594 671H515Q521 695 531 706T563 727Q587 738 598 746T609 768Q609 780 601 785T576 790Q552 790 522 779L521 837Q538 844 561 848T604 852ZM334 739H440L535 576H441L380 667L293 576H195Z" unicode="ổ"/>
			<glyph d="M465 720Q567 720 644 680T763 565T806 388Q806 287 760 195T624 47T405 -10Q301 -10 222 31T100 148T57 326Q57 434 106 524T247 667T465 720ZM452 593Q372 593 314 556T227 460T198 333Q198 235 257 176T414 117Q490 117 547 154T634 253T665 383Q665 446 638 493T563 567T452 593ZM457 1064Q475 1064 492 1058T536 1041Q551 1034 563 1029T586 1025Q600 1025 608 1034T622 1064H688Q666 952 585 952Q551 952 509 974Q493 982 480 986T458 991Q429 991 420 952H354Q364 1008 392 1036T457 1064ZM445 914H572L682 769H576L504 853L401 769H282Z" horiz-adv-x="827" unicode="Ỗ"/>
			<glyph d="M340 516Q415 516 472 486T560 401T592 277Q592 200 555 134T450 29T291 -10Q218 -10 160 20T71 105T39 235Q39 310 75 374T179 477T340 516ZM326 402Q277 402 241 379T186 320T168 243Q168 179 205 141T304 104Q353 104 389 126T444 185T463 268Q463 329 425 365T326 402ZM329 895Q347 895 364 889T408 872Q423 865 435 860T458 856Q472 856 480 865T494 895H560Q538 783 457 783Q423 783 381 805Q365 813 352 817T330 822Q301 822 292 783H226Q236 839 264 867T329 895ZM323 739H441L546 576H442L374 667L278 576H169Z" unicode="ỗ"/>
			<glyph d="M465 720Q567 720 644 680T763 565T806 388Q806 287 760 195T624 47T405 -10Q301 -10 222 31T100 148T57 326Q57 434 106 524T247 667T465 720ZM452 593Q372 593 314 556T227 460T198 333Q198 235 257 176T414 117Q490 117 547 154T634 253T665 383Q665 446 638 493T563 567T452 593ZM431 914H558L668 769H562L490 853L387 769H268ZM364 -74Q396 -74 418 -96T440 -151Q440 -183 418 -205T364 -227Q332 -227 310 -205T288 -151Q288 -119 310 -96T364 -74Z" horiz-adv-x="827" unicode="Ộ"/>
			<glyph d="M340 516Q415 516 472 486T560 401T592 277Q592 200 555 134T450 29T291 -10Q218 -10 160 20T71 105T39 235Q39 310 75 374T179 477T340 516ZM326 402Q277 402 241 379T186 320T168 243Q168 179 205 141T304 104Q353 104 389 126T444 185T463 268Q463 329 425 365T326 402ZM327 739H445L550 576H446L378 667L282 576H173ZM262 -74Q294 -74 316 -96T338 -151Q338 -183 316 -205T262 -227Q230 -227 208 -205T186 -151Q186 -119 208 -96T262 -74Z" unicode="ộ"/>
			<glyph d="M837 861Q845 829 845 797Q845 663 718 625Q761 582 783 523T806 392Q806 285 757 193T617 45T403 -10Q299 -10 221 30T100 145T57 320Q57 428 107 519T250 665T466 720Q508 720 538 714T598 699Q631 688 649 688Q695 688 720 715T746 790Q746 815 739 836ZM451 593Q375 593 317 556T229 459T198 331Q198 267 225 218T300 143T412 117Q488 117 545 154T634 253T665 383Q665 446 638 493T562 567T451 593ZM530 921H655L496 769H386Z" horiz-adv-x="827" unicode="Ớ"/>
			<glyph d="M650 657Q658 628 658 602Q658 470 538 433Q592 370 592 277Q592 200 555 134T450 29T291 -10Q218 -10 160 20T71 105T39 235Q39 310 75 374T179 477T340 516Q388 516 430 502Q451 496 465 496Q515 496 537 518T560 590Q560 613 552 632ZM326 402Q277 402 241 379T186 320T168 243Q168 179 205 141T304 104Q353 104 389 126T444 185T463 268Q463 329 425 365T326 402ZM406 743H532L364 580H254Z" unicode="ớ"/>
			<glyph d="M837 861Q845 829 845 797Q845 663 718 625Q761 582 783 523T806 392Q806 285 757 193T617 45T403 -10Q299 -10 221 30T100 145T57 320Q57 428 107 519T250 665T466 720Q508 720 538 714T598 699Q631 688 649 688Q695 688 720 715T746 790Q746 815 739 836ZM451 593Q375 593 317 556T229 459T198 331Q198 267 225 218T300 143T412 117Q488 117 545 154T634 253T665 383Q665 446 638 493T562 567T451 593ZM310 921H430L540 769H435Z" horiz-adv-x="827" unicode="Ờ"/>
			<glyph d="M650 657Q658 628 658 602Q658 470 538 433Q592 370 592 277Q592 200 555 134T450 29T291 -10Q218 -10 160 20T71 105T39 235Q39 310 75 374T179 477T340 516Q388 516 430 502Q451 496 465 496Q515 496 537 518T560 590Q560 613 552 632ZM326 402Q277 402 241 379T186 320T168 243Q168 179 205 141T304 104Q353 104 389 126T444 185T463 268Q463 329 425 365T326 402ZM208 743H329L423 580H318Z" unicode="ờ"/>
			<glyph d="M837 861Q845 829 845 797Q845 663 718 625Q761 582 783 523T806 392Q806 285 757 193T617 45T403 -10Q299 -10 221 30T100 145T57 320Q57 428 107 519T250 665T466 720Q508 720 538 714T598 699Q631 688 649 688Q695 688 720 715T746 790Q746 815 739 836ZM451 593Q375 593 317 556T229 459T198 331Q198 267 225 218T300 143T412 117Q488 117 545 154T634 253T665 383Q665 446 638 493T562 567T451 593ZM511 973Q553 973 580 955T607 898Q607 865 588 845T533 805Q516 795 510 789T500 772H412Q418 799 430 811T465 834Q492 846 504 855T517 880Q517 893 508 898T480 904Q451 904 420 892L419 956Q439 964 464 968T511 973Z" horiz-adv-x="827" unicode="Ở"/>
			<glyph d="M650 657Q658 628 658 602Q658 470 538 433Q592 370 592 277Q592 200 555 134T450 29T291 -10Q218 -10 160 20T71 105T39 235Q39 310 75 374T179 477T340 516Q388 516 430 502Q451 496 465 496Q515 496 537 518T560 590Q560 613 552 632ZM326 402Q277 402 241 379T186 320T168 243Q168 179 205 141T304 104Q353 104 389 126T444 185T463 268Q463 329 425 365T326 402ZM390 773Q432 773 459 755T486 698Q486 665 467 645T412 605Q395 595 389 589T379 572H291Q297 599 309 611T344 634Q371 646 383 655T396 680Q396 693 387 698T359 704Q330 704 299 692L298 756Q318 764 343 768T390 773Z" unicode="ở"/>
			<glyph d="M837 861Q845 829 845 797Q845 663 718 625Q761 582 783 523T806 392Q806 285 757 193T617 45T403 -10Q299 -10 221 30T100 145T57 320Q57 428 107 519T250 665T466 720Q508 720 538 714T598 699Q631 688 649 688Q695 688 720 715T746 790Q746 815 739 836ZM451 593Q375 593 317 556T229 459T198 331Q198 267 225 218T300 143T412 117Q488 117 545 154T634 253T665 383Q665 446 638 493T562 567T451 593ZM388 893Q409 893 428 887T483 868Q492 865 505 859T526 852T543 850Q560 850 571 860T587 893H667Q654 832 622 800T542 769Q519 769 497 775T450 793Q427 803 414 807T390 812Q355 812 343 769H263Q276 831 309 862T388 893Z" horiz-adv-x="827" unicode="Ỡ"/>
			<glyph d="M650 657Q658 628 658 602Q658 470 538 433Q592 370 592 277Q592 200 555 134T450 29T291 -10Q218 -10 160 20T71 105T39 235Q39 310 75 374T179 477T340 516Q388 516 430 502Q451 496 465 496Q515 496 537 518T560 590Q560 613 552 632ZM326 402Q277 402 241 379T186 320T168 243Q168 179 205 141T304 104Q353 104 389 126T444 185T463 268Q463 329 425 365T326 402ZM281 726Q300 726 319 720T368 701Q385 693 399 688T424 683Q439 683 448 692T464 726H537Q526 665 497 633T423 602Q386 602 338 626Q321 634 306 639T282 645Q249 645 239 602H166Q177 664 208 695T281 726Z" unicode="ỡ"/>
			<glyph d="M837 861Q845 829 845 797Q845 663 718 625Q761 582 783 523T806 392Q806 285 757 193T617 45T403 -10Q299 -10 221 30T100 145T57 320Q57 428 107 519T250 665T466 720Q508 720 538 714T598 699Q631 688 649 688Q695 688 720 715T746 790Q746 815 739 836ZM451 593Q375 593 317 556T229 459T198 331Q198 267 225 218T300 143T412 117Q488 117 545 154T634 253T665 383Q665 446 638 493T562 567T451 593ZM393 -74Q425 -74 447 -96T469 -151Q469 -183 447 -205T393 -227Q361 -227 339 -205T317 -151Q317 -119 339 -96T393 -74Z" horiz-adv-x="827" unicode="Ợ"/>
			<glyph d="M650 657Q658 628 658 602Q658 470 538 433Q592 370 592 277Q592 200 555 134T450 29T291 -10Q218 -10 160 20T71 105T39 235Q39 310 75 374T179 477T340 516Q388 516 430 502Q451 496 465 496Q515 496 537 518T560 590Q560 613 552 632ZM326 402Q277 402 241 379T186 320T168 243Q168 179 205 141T304 104Q353 104 389 126T444 185T463 268Q463 329 425 365T326 402ZM267 -74Q299 -74 321 -96T343 -151Q343 -183 321 -205T267 -227Q235 -227 213 -205T191 -151Q191 -119 213 -96T267 -74Z" unicode="ợ"/>
			<glyph d="M152 710H287L214 292Q210 258 210 241Q210 181 245 149T342 117Q417 117 461 158T520 279L596 710H731L653 269Q630 138 548 64T333 -10Q212 -10 143 52T74 224Q74 261 80 297ZM302 -74Q334 -74 356 -96T378 -151Q378 -183 356 -205T302 -227Q270 -227 248 -205T226 -151Q226 -119 248 -96T302 -74Z" horiz-adv-x="723" unicode="Ụ"/>
			<glyph d="M111 506H236L188 232Q183 202 183 179Q183 141 205 119T270 98Q327 98 367 135T418 236L466 506H590L501 0H376L388 67Q357 30 314 9T223 -11Q145 -11 99 32T54 151Q54 183 61 225ZM237 -74Q269 -74 291 -96T313 -151Q313 -183 291 -205T237 -227Q205 -227 183 -205T161 -151Q161 -119 183 -96T237 -74Z" horiz-adv-x="619" unicode="ụ"/>
			<glyph d="M152 710H287L214 292Q210 258 210 241Q210 181 245 149T342 117Q417 117 461 158T520 279L596 710H731L653 269Q630 138 548 64T333 -10Q212 -10 143 52T74 224Q74 261 80 297ZM497 973Q539 973 566 955T593 898Q593 865 574 845T519 805Q502 795 496 789T486 772H398Q404 799 416 811T451 834Q478 846 490 855T503 880Q503 893 494 898T466 904Q437 904 406 892L405 956Q425 964 450 968T497 973Z" horiz-adv-x="723" unicode="Ủ"/>
			<glyph d="M111 506H236L188 232Q183 202 183 179Q183 141 205 119T270 98Q327 98 367 135T418 236L466 506H590L501 0H376L388 67Q357 30 314 9T223 -11Q145 -11 99 32T54 151Q54 183 61 225ZM410 769Q452 769 479 751T506 694Q506 661 487 641T432 601Q415 591 409 585T399 568H311Q317 595 329 607T364 630Q391 642 403 651T416 676Q416 689 407 694T379 700Q350 700 319 688L318 752Q338 760 363 764T410 769Z" horiz-adv-x="619" unicode="ủ"/>
			<glyph d="M845 861Q853 832 853 806Q853 667 718 639L653 269Q630 138 548 64T333 -10Q212 -10 143 52T74 224Q74 261 80 297L152 710H287L214 292Q210 258 210 241Q210 181 245 149T342 117Q417 117 461 158T520 279L596 710H655Q705 710 730 729T755 794Q755 817 747 836ZM516 921H641L482 769H372Z" horiz-adv-x="723" unicode="Ứ"/>
			<glyph d="M688 657Q696 628 696 602Q696 472 578 439L501 0H376L388 67Q357 30 314 9T223 -11Q145 -11 99 32T54 151Q54 183 61 225L111 506H236L188 232Q183 202 183 179Q183 141 205 119T270 98Q327 98 367 135T418 236L466 506H498Q548 506 573 525T598 590Q598 613 590 632ZM426 739H552L384 576H274Z" horiz-adv-x="619" unicode="ứ"/>
			<glyph d="M845 861Q853 832 853 806Q853 667 718 639L653 269Q630 138 548 64T333 -10Q212 -10 143 52T74 224Q74 261 80 297L152 710H287L214 292Q210 258 210 241Q210 181 245 149T342 117Q417 117 461 158T520 279L596 710H655Q705 710 730 729T755 794Q755 817 747 836ZM296 921H416L526 769H421Z" horiz-adv-x="723" unicode="Ừ"/>
			<glyph d="M688 657Q696 628 696 602Q696 472 578 439L501 0H376L388 67Q357 30 314 9T223 -11Q145 -11 99 32T54 151Q54 183 61 225L111 506H236L188 232Q183 202 183 179Q183 141 205 119T270 98Q327 98 367 135T418 236L466 506H498Q548 506 573 525T598 590Q598 613 590 632ZM228 739H349L443 576H338Z" horiz-adv-x="619" unicode="ừ"/>
			<glyph d="M845 861Q853 832 853 806Q853 667 718 639L653 269Q630 138 548 64T333 -10Q212 -10 143 52T74 224Q74 261 80 297L152 710H287L214 292Q210 258 210 241Q210 181 245 149T342 117Q417 117 461 158T520 279L596 710H655Q705 710 730 729T755 794Q755 817 747 836ZM497 973Q539 973 566 955T593 898Q593 865 574 845T519 805Q502 795 496 789T486 772H398Q404 799 416 811T451 834Q478 846 490 855T503 880Q503 893 494 898T466 904Q437 904 406 892L405 956Q425 964 450 968T497 973Z" horiz-adv-x="723" unicode="Ử"/>
			<glyph d="M688 657Q696 628 696 602Q696 472 578 439L501 0H376L388 67Q357 30 314 9T223 -11Q145 -11 99 32T54 151Q54 183 61 225L111 506H236L188 232Q183 202 183 179Q183 141 205 119T270 98Q327 98 367 135T418 236L466 506H498Q548 506 573 525T598 590Q598 613 590 632ZM410 769Q452 769 479 751T506 694Q506 661 487 641T432 601Q415 591 409 585T399 568H311Q317 595 329 607T364 630Q391 642 403 651T416 676Q416 689 407 694T379 700Q350 700 319 688L318 752Q338 760 363 764T410 769Z" horiz-adv-x="619" unicode="ử"/>
			<glyph d="M845 861Q853 832 853 806Q853 667 718 639L653 269Q630 138 548 64T333 -10Q212 -10 143 52T74 224Q74 261 80 297L152 710H287L214 292Q210 258 210 241Q210 181 245 149T342 117Q417 117 461 158T520 279L596 710H655Q705 710 730 729T755 794Q755 817 747 836ZM374 893Q395 893 414 887T469 868Q478 865 491 859T512 852T529 850Q546 850 557 860T573 893H653Q640 832 608 800T528 769Q505 769 483 775T436 793Q413 803 400 807T376 812Q341 812 329 769H249Q262 831 295 862T374 893Z" horiz-adv-x="723" unicode="Ữ"/>
			<glyph d="M688 657Q696 628 696 602Q696 472 578 439L501 0H376L388 67Q357 30 314 9T223 -11Q145 -11 99 32T54 151Q54 183 61 225L111 506H236L188 232Q183 202 183 179Q183 141 205 119T270 98Q327 98 367 135T418 236L466 506H498Q548 506 573 525T598 590Q598 613 590 632ZM301 722Q320 722 339 716T388 697Q405 689 419 684T444 679Q459 679 468 688T484 722H557Q546 661 517 629T443 598Q406 598 358 622Q341 630 326 635T302 641Q269 641 259 598H186Q197 660 228 691T301 722Z" horiz-adv-x="619" unicode="ữ"/>
			<glyph d="M845 861Q853 832 853 806Q853 667 718 639L653 269Q630 138 548 64T333 -10Q212 -10 143 52T74 224Q74 261 80 297L152 710H287L214 292Q210 258 210 241Q210 181 245 149T342 117Q417 117 461 158T520 279L596 710H655Q705 710 730 729T755 794Q755 817 747 836ZM302 -74Q334 -74 356 -96T378 -151Q378 -183 356 -205T302 -227Q270 -227 248 -205T226 -151Q226 -119 248 -96T302 -74Z" horiz-adv-x="723" unicode="Ự"/>
			<glyph d="M688 657Q696 628 696 602Q696 472 578 439L501 0H376L388 67Q357 30 314 9T223 -11Q145 -11 99 32T54 151Q54 183 61 225L111 506H236L188 232Q183 202 183 179Q183 141 205 119T270 98Q327 98 367 135T418 236L466 506H498Q548 506 573 525T598 590Q598 613 590 632ZM237 -74Q269 -74 291 -96T313 -151Q313 -183 291 -205T237 -227Q205 -227 183 -205T161 -151Q161 -119 183 -96T237 -74Z" horiz-adv-x="619" unicode="ự"/>
			<glyph d="M89 710H229L338 399L552 710H703L388 277L339 0H202L251 278ZM253 921H373L483 769H378Z" horiz-adv-x="632" unicode="Ỳ"/>
			<glyph d="M39 506H170L246 156L427 506H561L258 -50Q212 -135 159 -173T29 -212Q-29 -212 -62 -198L-28 -92Q-9 -100 22 -100Q96 -100 138 -27L162 14ZM180 739H301L395 576H290Z" horiz-adv-x="518" unicode="ỳ"/>
			<glyph d="M89 710H229L338 399L552 710H703L388 277L339 0H202L251 278ZM250 -74Q282 -74 304 -96T326 -151Q326 -183 304 -205T250 -227Q218 -227 196 -205T174 -151Q174 -119 196 -96T250 -74Z" horiz-adv-x="632" unicode="Ỵ"/>
			<glyph d="M39 506H170L246 156L427 506H561L258 -50Q212 -135 159 -173T29 -212Q-29 -212 -62 -198L-28 -92Q-9 -100 22 -100Q96 -100 138 -27L162 14ZM359 -49Q391 -49 413 -71T435 -126Q435 -158 413 -180T359 -202Q327 -202 305 -180T283 -126Q283 -94 305 -71T359 -49Z" horiz-adv-x="518" unicode="ỵ"/>
			<glyph d="M89 710H229L338 399L552 710H703L388 277L339 0H202L251 278ZM454 973Q496 973 523 955T550 898Q550 865 531 845T476 805Q459 795 453 789T443 772H355Q361 799 373 811T408 834Q435 846 447 855T460 880Q460 893 451 898T423 904Q394 904 363 892L362 956Q382 964 407 968T454 973Z" horiz-adv-x="632" unicode="Ỷ"/>
			<glyph d="M39 506H170L246 156L427 506H561L258 -50Q212 -135 159 -173T29 -212Q-29 -212 -62 -198L-28 -92Q-9 -100 22 -100Q96 -100 138 -27L162 14ZM362 769Q404 769 431 751T458 694Q458 661 439 641T384 601Q367 591 361 585T351 568H263Q269 595 281 607T316 630Q343 642 355 651T368 676Q368 689 359 694T331 700Q302 700 271 688L270 752Q290 760 315 764T362 769Z" horiz-adv-x="518" unicode="ỷ"/>
			<glyph d="M89 710H229L338 399L552 710H703L388 277L339 0H202L251 278ZM331 893Q352 893 371 887T426 868Q435 865 448 859T469 852T486 850Q503 850 514 860T530 893H610Q597 832 565 800T485 769Q462 769 440 775T393 793Q370 803 357 807T333 812Q298 812 286 769H206Q219 831 252 862T331 893Z" horiz-adv-x="632" unicode="Ỹ"/>
			<glyph d="M39 506H170L246 156L427 506H561L258 -50Q212 -135 159 -173T29 -212Q-29 -212 -62 -198L-28 -92Q-9 -100 22 -100Q96 -100 138 -27L162 14ZM253 722Q272 722 291 716T340 697Q357 689 371 684T396 679Q411 679 420 688T436 722H509Q498 661 469 629T395 598Q358 598 310 622Q293 630 278 635T254 641Q221 641 211 598H138Q149 660 180 691T253 722Z" horiz-adv-x="518" unicode="ỹ"/>
			<glyph d="M58 325H407L388 221H39Z" horiz-adv-x="439" unicode="‐"/>
			<glyph d="M58 325H518L499 221H39Z" horiz-adv-x="550" unicode="–"/>
			<glyph d="M58 325H1018L999 221H39Z" horiz-adv-x="1050" unicode="—"/>
			<glyph d="M58 325H1018L999 221H39Z" horiz-adv-x="1050" unicode="―"/>
			<glyph d="M-78 -187H382V-232H-78ZM-79 -92H381V-137H-79Z" horiz-adv-x="450" unicode="‗"/>
			<glyph d="M197 710H304L208 490H77Z" horiz-adv-x="257" unicode="‘"/>
			<glyph d="M171 710H302L182 490H75Z" horiz-adv-x="257" unicode="’"/>
			<glyph d="M65 110H196L76 -110H-31Z" horiz-adv-x="256" unicode="‚"/>
			<glyph d="M101 710H225L249 490H148Z" horiz-adv-x="257" unicode="‛"/>
			<glyph d="M407 710H514L418 490H287ZM197 710H304L208 490H77Z" horiz-adv-x="467" unicode="“"/>
			<glyph d="M381 710H512L392 490H285ZM171 710H302L182 490H75Z" horiz-adv-x="467" unicode="”"/>
			<glyph d="M275 110H406L286 -110H179ZM65 110H196L76 -110H-31Z" horiz-adv-x="466" unicode="„"/>
			<glyph d="M285 752H402L350 536L538 548L518 431L333 444L249 -115H132L245 444L56 431L76 548L260 535Z" horiz-adv-x="512" unicode="†"/>
			<glyph d="M285 752H402L350 536L538 548L518 431L331 444L295 238L486 251L466 134L282 146L249 -115H132L192 147L4 134L24 251L210 237L247 445L56 431L76 548L260 535Z" horiz-adv-x="512" unicode="‡"/>
			<glyph d="M210 442Q263 442 300 405T338 315Q338 262 300 225T210 188Q157 188 120 225T83 315Q83 368 120 405T210 442Z" horiz-adv-x="398" unicode="•"/>
			<glyph d="M361 141Q393 141 416 118T439 62Q439 30 416 7T361 -15Q329 -15 306 7T283 62Q283 95 306 118T361 141ZM115 141Q147 141 170 118T193 62Q193 30 170 7T115 -15Q83 -15 60 7T37 62Q37 95 60 118T115 141ZM606 141Q638 141 661 118T684 62Q684 30 661 7T606 -15Q574 -15 551 7T528 62Q528 95 551 118T606 141Z" horiz-adv-x="789" unicode="…"/>
			<glyph d="M280 716Q346 716 386 676T426 566Q426 505 406 450T344 359T236 323Q169 323 126 364T83 481Q83 544 105 597T171 683T280 716ZM687 710H801L276 0H162ZM271 629Q232 629 209 583T187 484Q187 450 201 430T240 410Q280 410 301 455T323 555Q323 629 271 629ZM732 383Q798 383 838 343T878 233Q878 172 858 117T796 26T688 -10Q621 -10 578 31T535 148Q535 211 557 264T623 350T732 383ZM1122 383Q1188 383 1228 343T1268 233Q1268 172 1248 117T1186 26T1078 -10Q1011 -10 968 31T925 148Q925 211 947 264T1013 350T1122 383ZM723 296Q684 296 661 250T639 151Q639 117 653 97T692 77Q732 77 753 122T775 222Q775 296 723 296ZM1113 296Q1074 296 1051 250T1029 151Q1029 117 1043 97T1082 77Q1122 77 1143 122T1165 222Q1165 296 1113 296Z" horiz-adv-x="1316" unicode="‰"/>
			<glyph d="M230 460H372L158 253L298 60H165L29 260Z" horiz-adv-x="363" unicode="‹"/>
			<glyph d="M67 460H200L336 260L135 60H-7L207 267Z" horiz-adv-x="362" unicode="›"/>
			<glyph d="M424 710H570L465 248H363ZM384 141Q416 141 439 118T462 62Q462 30 439 7T384 -15Q352 -15 329 7T306 62Q306 95 329 118T384 141ZM170 710H316L211 248H109ZM130 141Q162 141 185 118T208 62Q208 30 185 7T130 -15Q98 -15 75 7T52 62Q52 95 75 118T130 141Z" horiz-adv-x="582" unicode="‼"/>
			<glyph d="M304 724Q398 724 452 678T507 555Q507 490 476 446T386 361Q343 332 323 307T299 249H190L244 625Q180 605 151 532L69 575Q97 645 156 684T304 724ZM341 624L302 413Q355 450 377 477T399 545Q399 573 384 593T341 624ZM231 141Q263 141 286 118T309 62Q309 30 286 7T231 -15Q199 -15 176 7T153 62Q153 95 176 118T231 141Z" horiz-adv-x="516" unicode="‽"/>
			<glyph d="M92 828H552V783H92Z" horiz-adv-x="450" unicode="‾"/>
			<glyph d="M321 710H429L-120 0H-228Z" horiz-adv-x="166" unicode="⁄"/>
			<glyph d="M307 869Q375 869 408 826T442 703Q442 638 422 575T359 469T249 427Q181 427 145 472T110 595Q110 659 130 722T195 827T307 869ZM297 786Q267 786 246 756T214 681T204 593Q204 510 256 510Q286 510 307 540T338 616T349 703Q349 745 337 765T297 786Z" horiz-adv-x="412" unicode="⁰"/>
			<glyph d="M325 863H418L369 589H424L411 514H356L342 435H249L264 514H66L77 579ZM303 741L169 589H277Z" horiz-adv-x="403" unicode="⁴"/>
			<glyph d="M181 861H437L420 779H241L220 693Q244 706 282 706Q343 706 380 675T418 584Q418 512 366 470T229 429Q183 429 144 442T80 482L127 553Q171 509 238 509Q278 509 301 527T325 574Q325 602 306 616T254 631Q216 631 185 613L128 638Z" horiz-adv-x="398" unicode="⁵"/>
			<glyph d="M422 868L432 794Q244 794 201 674Q246 710 307 710Q367 710 402 676T438 585Q438 540 415 503T353 446T263 425Q191 425 145 470T99 594Q99 676 139 738T253 834T422 868ZM279 639Q251 639 227 628T189 600Q189 556 209 531T268 506Q305 506 326 525T348 577Q348 607 329 623T279 639Z" horiz-adv-x="410" unicode="⁶"/>
			<glyph d="M124 861H443L433 808L220 435H118L326 779H111Z" horiz-adv-x="366" unicode="⁷"/>
			<glyph d="M294 872Q355 872 391 842T427 767Q427 732 406 705T349 664Q423 636 423 565Q423 525 400 493T336 443T245 426Q175 426 133 459T91 545Q91 586 117 618T195 665Q136 695 136 750Q136 783 156 811T213 855T294 872ZM288 804Q261 804 243 789T225 753Q225 732 239 719T280 707Q307 707 325 722T344 759Q344 779 328 791T288 804ZM264 621Q230 621 207 603T185 557Q185 531 203 515T254 500Q288 500 310 518T333 564Q333 590 314 605T264 621Z" horiz-adv-x="408" unicode="⁸"/>
			<glyph d="M289 867Q359 867 404 822T450 699Q450 616 409 554T295 458T127 424L116 498Q305 498 347 617Q300 582 241 582Q182 582 146 616T111 706Q111 752 133 788T196 846T289 867ZM280 786Q244 786 222 766T201 715Q201 685 219 669T270 653Q298 653 322 664T359 692V694Q359 736 338 761T280 786Z" horiz-adv-x="410" unicode="⁹"/>
			<glyph d="M223 790H307V677H419V593H307V481H223V593H110V677H223Z" horiz-adv-x="393" unicode="⁺"/>
			<glyph d="M110 677H419V593H110Z" horiz-adv-x="393" unicode="⁻"/>
			<glyph d="M124 757H433V673H124ZM124 600H433V516H124Z" horiz-adv-x="421" unicode="⁼"/>
			<glyph d="M375 935L361 858Q323 857 299 843T258 797Q234 755 219 684T204 556Q204 494 224 468T287 440L273 363Q117 368 117 553Q117 622 135 704T183 837T257 911T375 935Z" horiz-adv-x="282" unicode="⁽"/>
			<glyph d="M148 935Q304 930 304 745Q304 676 285 594T238 461T163 386T46 363L60 440Q98 441 121 455T163 501Q187 543 202 614T217 742Q217 804 197 830T134 858Z" horiz-adv-x="282" unicode="⁾"/>
			<glyph d="M311 723Q356 723 381 698T406 627Q406 609 403 592L371 411H291L320 573Q323 590 323 604Q323 651 273 651Q239 651 216 630T187 572L158 411H78L132 716H212L204 669Q223 695 251 709T311 723Z" horiz-adv-x="392" unicode="ⁿ"/>
			<glyph d="M205 289Q273 289 306 246T340 123Q340 58 320 -5T257 -110T147 -153Q79 -153 43 -108T8 15Q8 79 28 142T93 247T205 289ZM195 206Q165 206 144 176T112 101T102 13Q102 -70 154 -70Q184 -70 205 -39T236 36T247 123Q247 165 235 185T195 206Z" horiz-adv-x="412" unicode="₀"/>
			<glyph d="M194 286H230L152 -145H59L119 164L8 116L23 207Z" horiz-adv-x="323" unicode="₁"/>
			<glyph d="M182 291Q246 291 283 260T321 177Q321 132 292 92T212 10L126 -63H312L295 -145H-23L-13 -91L150 52Q191 87 208 112T225 160Q225 181 210 193T167 206Q109 206 50 153L17 226Q49 257 91 274T182 291Z" horiz-adv-x="396" unicode="₂"/>
			<glyph d="M185 290Q246 290 280 262T314 189Q314 151 289 122T221 81Q268 71 290 47T312 -17Q312 -78 263 -116T132 -155Q83 -155 42 -140T-22 -101L24 -30Q73 -72 136 -72Q176 -72 197 -57T218 -14Q218 16 192 27T105 39L115 110Q171 110 196 127T221 168Q221 186 207 196T168 206Q141 206 112 194T59 165L26 234Q57 259 98 274T185 290Z" horiz-adv-x="400" unicode="₃"/>
			<glyph d="M223 283H316L267 9H322L309 -66H254L240 -145H147L162 -66H-36L-25 -1ZM201 161L67 9H175Z" horiz-adv-x="403" unicode="₄"/>
			<glyph d="M79 281H335L318 199H139L118 113Q142 126 180 126Q241 126 278 95T316 4Q316 -68 264 -109T127 -151Q81 -151 42 -137T-22 -98L25 -27Q69 -71 136 -71Q176 -71 199 -53T223 -6Q223 22 204 36T152 51Q114 51 83 33L26 58Z" horiz-adv-x="398" unicode="₅"/>
			<glyph d="M320 288L330 214Q142 214 99 94Q144 130 205 130Q265 130 300 96T336 5Q336 -40 313 -76T251 -134T161 -155Q89 -155 43 -110T-3 14Q-3 96 37 158T151 254T320 288ZM177 59Q149 59 125 48T87 20Q87 -24 107 -49T166 -74Q203 -74 224 -54T246 -3Q246 27 227 43T177 59Z" horiz-adv-x="410" unicode="₆"/>
			<glyph d="M22 281H341L331 228L118 -145H16L224 199H9Z" horiz-adv-x="366" unicode="₇"/>
			<glyph d="M192 292Q253 292 289 262T325 187Q325 152 304 125T247 84Q321 56 321 -15Q321 -55 298 -87T234 -136T143 -154Q73 -154 31 -121T-11 -35Q-11 6 15 38T93 85Q34 115 34 170Q34 203 54 231T111 275T192 292ZM186 224Q159 224 141 209T123 173Q123 152 137 139T178 127Q205 127 223 142T242 179Q242 199 226 211T186 224ZM162 41Q128 41 105 23T83 -23Q83 -49 101 -64T152 -80Q186 -80 208 -62T231 -16Q231 10 212 25T162 41Z" horiz-adv-x="408" unicode="₈"/>
			<glyph d="M187 287Q257 287 302 242T348 119Q348 36 307 -26T193 -122T25 -156L14 -82Q203 -82 245 37Q198 2 139 2Q80 2 44 36T9 126Q9 172 31 208T94 266T187 287ZM178 206Q142 206 120 186T99 135Q99 105 117 89T168 73Q196 73 220 84T257 112V114Q257 156 236 181T178 206Z" horiz-adv-x="410" unicode="₉"/>
			<glyph d="M120 208H204V95H316V11H204V-101H120V11H7V95H120Z" horiz-adv-x="393" unicode="₊"/>
			<glyph d="M7 95H316V11H7Z" horiz-adv-x="393" unicode="₋"/>
			<glyph d="M21 175H330V91H21ZM21 18H330V-66H21Z" horiz-adv-x="421" unicode="₌"/>
			<glyph d="M272 353L258 276Q220 275 196 261T155 215Q131 173 116 102T101 -26Q101 -88 121 -114T184 -142L170 -219Q14 -214 14 -29Q14 40 32 122T80 255T154 329T272 353Z" horiz-adv-x="281" unicode="₍"/>
			<glyph d="M74 355Q230 350 230 165Q230 96 211 14T164 -119T89 -193T-28 -217L-14 -140Q24 -139 47 -125T89 -79Q113 -37 128 34T143 162Q143 224 123 250T60 278Z" horiz-adv-x="281" unicode="₎"/>
			<glyph d="M222 710H620L599 591H336L305 421H555L534 303H284L268 211H408L390 107H250L231 0H96L115 107H22L40 211H133Z" horiz-adv-x="600" unicode="₣"/>
			<glyph d="M413 720Q476 720 520 702T600 651L530 548Q482 600 411 600Q364 600 334 570T291 472H473L458 387H276L262 313H444L429 227H247Q240 192 222 162T173 114H522L502 0H-14L6 114Q50 121 77 150T113 225V227H27L42 313H129L142 387H56L71 472H158L159 479Q181 604 244 662T413 720Z" horiz-adv-x="571" unicode="₤"/>
			<glyph d="M160 710H322Q439 710 499 652T565 494H634L617 398H557Q537 301 467 239T272 177H201L170 0H35L105 398H36L52 494H122ZM275 599L257 494H434Q428 548 394 573T297 599ZM240 398L221 288H274Q336 288 373 318T425 398Z" horiz-adv-x="605" unicode="₧"/>
			<glyph d="M456 729H550L539 663H589L577 594H527L452 157H356L363 201Q341 176 310 163T243 150Q167 150 119 200T72 328Q72 388 99 437T174 514T281 542Q329 542 362 522T411 468L433 594H307L319 663H445ZM290 459Q240 459 205 425T171 339Q171 293 198 263T271 234Q322 234 356 269T391 355Q391 398 364 428T290 459ZM36 94H460L444 -1H20Z" horiz-adv-x="560" unicode="₫"/>
			<glyph d="M429 720Q521 720 588 674L546 559Q521 580 489 591T423 602Q358 602 314 564T248 460H464L452 393H232Q227 363 226 332H441L428 265H227Q234 187 270 147T372 107Q413 107 446 121T512 162L542 55Q500 24 453 7T342 -10Q224 -10 157 61T86 265H9L21 332H86Q87 363 92 393H32L44 460H107Q140 581 223 650T429 720Z" horiz-adv-x="584" unicode="€"/>
			<glyph d="M125 710H614L599 622H481Q502 588 507 538H585L570 450H499Q481 387 428 344T297 286L492 0H334L151 277H50L65 365H208Q332 365 364 450H81L96 538H371Q364 583 331 602T234 622H110Z" horiz-adv-x="563" unicode="₹"/>
			<glyph d="M160 710H294L260 519L442 580L430 513L248 452L237 391L420 452L407 385L225 324L189 121H272Q392 121 412 240L423 298H547L534 221Q514 108 440 54T250 0H34L83 276L15 253L26 320L95 343L106 404L37 381L49 448L118 471Z" horiz-adv-x="564" unicode="₺"/>
			<glyph d="M376 710H479L461 610Q544 593 591 534T638 385Q638 348 632 312L577 0H454L511 324Q515 347 515 378Q515 421 495 449T440 490L374 117H271L338 493Q232 471 208 337L148 0H25L88 355Q108 472 177 539T359 616Z" horiz-adv-x="691" unicode="₼"/>
			<glyph d="M172 710H381Q500 710 560 656T621 507Q621 438 589 384T494 298T338 267H222L212 206H366L354 104H193L175 0H46L64 104H-12L6 206H83L93 267H17L37 378H113ZM281 599L242 378H336Q405 378 442 410T480 500Q480 552 447 575T347 599Z" horiz-adv-x="604" unicode="₽"/>
			<glyph d="M309 720Q381 720 434 685L400 605Q358 635 310 635Q253 635 218 599T184 509Q184 460 212 432T290 405Q340 405 391 436L407 355Q382 339 346 329T274 319Q187 319 135 368T84 501Q84 564 111 614T190 692T309 720ZM708 710H816L267 0H159ZM742 391Q799 391 842 368T910 303T934 209Q934 150 906 100T827 20T705 -10Q619 -10 565 40T512 176Q512 233 539 282T619 361T742 391ZM731 304Q675 304 643 268T611 182Q611 134 639 105T715 77Q770 77 803 113T836 202Q836 249 807 276T731 304Z" horiz-adv-x="981" unicode="℅"/>
			<glyph d="M324 715Q390 715 421 667T453 518Q453 396 410 303T281 164Q289 115 307 94T362 74Q405 74 434 90V-8Q393 -24 334 -24Q263 -24 226 13T176 127Q138 117 115 116V201Q144 203 168 212Q165 262 165 324Q165 469 180 554T230 677T324 715ZM319 614Q296 614 284 551T273 322L274 266Q314 302 333 370T352 525Q352 575 343 594T319 614Z" horiz-adv-x="600" unicode="ℓ"/>
			<glyph d="M962 711Q1026 711 1075 685T1150 613T1177 507Q1177 442 1146 385T1057 295T921 261Q858 261 808 287T731 360T704 471Q704 535 735 590T824 678T962 711ZM164 710H274L463 220L553 710H666L537 0H426L237 489L147 0H34ZM950 614Q908 614 877 595T831 544T815 478Q815 423 846 391T932 359Q994 359 1030 399T1067 499Q1067 552 1035 583T950 614ZM667 175H1118L1099 71H648Z" horiz-adv-x="1198" unicode="№"/>
			<glyph d="M413 720Q515 720 598 672T730 540T778 355Q778 252 730 169T599 38T413 -10Q311 -10 227 38T96 169T48 355Q48 457 96 540T227 672T413 720ZM413 652Q329 652 261 613T154 507T116 355Q116 271 154 203T261 96T413 58Q497 58 565 96T671 203T710 355Q710 439 671 507T565 613T413 652ZM288 574H440Q509 574 550 535T592 432Q592 368 549 327T440 286H381V136H288ZM381 495V364H427Q457 364 476 383T496 432Q496 462 477 478T427 495Z" horiz-adv-x="790" unicode="℗"/>
			<glyph d="M101 710H414V633H298V266H217V633H101ZM484 710H565L699 503L832 710H913V266H832V577L722 404H676L565 577V266H484Z" horiz-adv-x="992" unicode="™"/>
			<glyph d="M469 720Q569 720 647 685T770 586T814 437Q814 337 754 262T594 149L587 118H782L762 0H445L480 202Q566 221 617 277T669 409Q669 463 642 504T566 568T455 591Q387 591 330 564T239 489T205 375Q205 307 244 263T356 202L322 0H5L25 118H223L228 151Q151 182 108 240T66 385Q66 484 120 560T266 678T469 720Z" horiz-adv-x="845" unicode="Ω"/>
			<glyph d="M420 621Q529 621 606 574T723 452T762 297V293H210L203 284V77Q286 3 404 3Q478 3 535 30T634 104H695Q640 42 571 6T398 -29Q308 -29 231 10T107 121T61 292Q61 385 110 460T241 578T420 621ZM420 588Q286 588 203 510V333L210 326H613L621 333V518Q578 559 528 573T420 588Z" horiz-adv-x="804" unicode="℮"/>
			<glyph d="M270 716H306L228 285H135L195 594L84 546L99 637ZM644 710H752L203 0H95ZM706 437Q767 437 803 407T839 332Q839 297 818 270T761 229Q835 201 835 130Q835 90 812 58T748 8T657 -9Q587 -9 545 24T503 110Q503 151 529 183T607 230Q548 260 548 315Q548 348 568 376T625 420T706 437ZM700 369Q673 369 655 354T637 318Q637 297 651 284T692 272Q719 272 737 287T756 324Q756 344 740 356T700 369ZM676 186Q642 186 619 168T597 122Q597 96 615 80T666 65Q700 65 722 83T745 129Q745 155 726 170T676 186Z" horiz-adv-x="897" unicode="⅛"/>
			<glyph d="M261 720Q322 720 356 692T390 619Q390 581 365 552T297 511Q344 501 366 477T388 413Q388 352 339 313T208 275Q159 275 118 289T54 329L100 400Q150 358 212 358Q252 358 273 373T294 416Q294 446 268 457T181 469L191 540Q247 540 272 557T297 598Q297 616 283 626T244 636Q217 636 188 624T135 595L102 664Q133 689 174 704T261 720ZM721 710H829L280 0H172ZM783 437Q844 437 880 407T916 332Q916 297 895 270T838 229Q912 201 912 130Q912 90 889 58T825 8T734 -9Q664 -9 622 24T580 110Q580 151 606 183T684 230Q625 260 625 315Q625 348 645 376T702 420T783 437ZM777 369Q750 369 732 354T714 318Q714 297 728 284T769 272Q796 272 814 287T833 324Q833 344 817 356T777 369ZM753 186Q719 186 696 168T674 122Q674 96 692 80T743 65Q777 65 799 83T822 129Q822 155 803 170T753 186Z" horiz-adv-x="974" unicode="⅜"/>
			<glyph d="M155 711H411L394 629H215L194 543Q218 556 256 556Q317 556 354 525T392 434Q392 362 340 320T203 279Q157 279 118 292T54 332L101 403Q145 359 212 359Q252 359 275 377T299 424Q299 452 280 466T228 481Q190 481 159 463L102 488ZM719 710H827L278 0H170ZM781 437Q842 437 878 407T914 332Q914 297 893 270T836 229Q910 201 910 130Q910 90 887 58T823 8T732 -9Q662 -9 620 24T578 110Q578 151 604 183T682 230Q623 260 623 315Q623 348 643 376T700 420T781 437ZM775 369Q748 369 730 354T712 318Q712 297 726 284T767 272Q794 272 812 287T831 324Q831 344 815 356T775 369ZM751 186Q717 186 694 168T672 122Q672 96 690 80T741 65Q775 65 797 83T820 129Q820 155 801 170T751 186Z" horiz-adv-x="972" unicode="⅝"/>
			<glyph d="M98 711H417L407 658L194 285H92L300 629H85ZM687 710H795L246 0H138ZM749 437Q810 437 846 407T882 332Q882 297 861 270T804 229Q878 201 878 130Q878 90 855 58T791 8T700 -9Q630 -9 588 24T546 110Q546 151 572 183T650 230Q591 260 591 315Q591 348 611 376T668 420T749 437ZM743 369Q716 369 698 354T680 318Q680 297 694 284T735 272Q762 272 780 287T799 324Q799 344 783 356T743 369ZM719 186Q685 186 662 168T640 122Q640 96 658 80T709 65Q743 65 765 83T788 129Q788 155 769 170T719 186Z" horiz-adv-x="940" unicode="⅞"/>
			<glyph d="M85 710H224L313 157L595 710H745L365 0H216ZM833 710H968L842 0H707ZM1133 710H1268L1142 0H1007Z" horiz-adv-x="1270" unicode="Ⅶ"/>
			<glyph d="M239 742Q327 717 396 660T504 518T543 328Q543 222 510 139T413 10T254 -37Q156 -37 96 20T36 180Q36 261 66 330T154 440T285 481Q324 481 354 467T405 430H407Q382 510 319 569T169 659ZM308 394Q261 394 227 366T176 292T159 196Q159 133 189 97T272 61Q317 61 350 90T400 165T417 264Q417 326 387 360T308 394Z" horiz-adv-x="591" unicode="∂"/>
			<glyph d="M359 710H506L625 117L604 0H9L30 117ZM410 562L171 117H492Z" horiz-adv-x="702" unicode="∆"/>
			<glyph d="M85 710H666V-210H532V592H220V-210H85Z" horiz-adv-x="753" unicode="∏"/>
			<glyph d="M44 710H513V591H210L391 298V226L201 -91H547V-210H34V-114L259 265L44 616Z" horiz-adv-x="573" unicode="∑"/>
			<glyph d="M88 401H538V300H88Z" horiz-adv-x="591" unicode="−"/>
			<glyph d="M458 710H578L168 0H49Z" horiz-adv-x="591" unicode="∕"/>
			<glyph d="M299 350Q331 350 354 327T377 272Q377 240 354 217T299 194Q267 194 244 217T221 272Q221 304 244 327T299 350Z" horiz-adv-x="591" unicode="∙"/>
			<glyph d="M460 710H575L409 -76H243L143 248H41V362H230L290 154Q310 89 321 26L324 27L334 83Q337 99 340 119T348 161Z" horiz-adv-x="600" unicode="√"/>
			<glyph d="M222 482Q280 482 324 456T404 375Q470 482 590 482Q643 482 684 458T747 393T770 298Q770 212 717 159T580 107Q523 107 478 133T397 215Q362 159 316 133T211 107Q158 107 117 130T53 196T30 291Q30 377 83 429T222 482ZM234 388Q193 388 168 361T143 292Q143 252 169 226T239 200Q275 200 305 224T355 292Q334 341 304 364T234 388ZM565 388Q527 388 497 363T447 293Q489 200 569 200Q608 200 633 226T659 293Q659 335 634 361T565 388Z" horiz-adv-x="787" unicode="∞"/>
			<glyph d="M473 720Q508 720 539 709L516 616Q498 623 480 623Q418 623 404 543L308 0Q293 -85 248 -127T126 -170Q94 -170 60 -159L84 -66Q102 -72 120 -72Q150 -72 168 -53T194 7L290 552Q305 636 350 678T473 720Z" horiz-adv-x="591" unicode="∫"/>
			<glyph d="M191 522Q212 522 236 517T283 505T313 497L337 491Q382 479 396 479Q437 479 444 522H523Q520 455 491 420T412 386Q390 386 365 392T298 410Q233 429 211 429Q192 429 181 419T165 386H86Q89 456 116 489T191 522ZM191 304Q212 304 236 299T283 287T313 279L337 273Q382 261 396 261Q437 261 444 304H523Q520 237 491 202T412 168Q390 168 365 174T298 192Q233 211 211 211Q192 211 181 201T165 168H86Q89 238 116 271T191 304Z" horiz-adv-x="600" unicode="≈"/>
			<glyph d="M419 635H518L450 510H538V408H394L331 292H538V191H276L207 65H108L177 191H88V292H232L295 408H88V510H351Z" horiz-adv-x="591" unicode="≠"/>
			<glyph d="M528 603V502L152 411L528 320V219L78 338V483ZM78 189H528V97H78Z" horiz-adv-x="591" unicode="≤"/>
			<glyph d="M87 603L537 483V338L87 219V320L463 411L87 502ZM87 189H537V97H87Z" horiz-adv-x="591" unicode="≥"/>
			<glyph d="M180 710H308L461 347L308 0H180L27 347ZM244 639L128 347L244 67L360 347Z" horiz-adv-x="454" unicode="◊"/>
			<glyph d="M608 710Q762 710 888 663T1086 536T1159 355Q1159 259 1085 177T886 48T614 0Q463 0 335 48T134 180T60 361Q60 458 133 538T332 664T608 710ZM611 667Q525 667 451 651T335 610T293 554Q293 520 346 492T485 450Q499 543 533 601T611 660Q654 660 688 601T736 450Q822 464 875 492T928 554Q928 585 885 610T770 651T611 667ZM1978 617Q2049 617 2110 580T2207 483T2243 352Q2243 279 2207 217T2110 120T1975 85Q1902 85 1842 119T1747 214T1713 349Q1713 421 1748 482T1845 580T1978 617ZM3025 617Q3095 617 3156 580T3253 483T3289 352Q3289 279 3253 217T3157 120T3025 85Q2952 85 2891 119T2795 214T2760 349Q2760 421 2796 482T2893 580T3025 617ZM1264 601H1688V507H1530V102H1417V507H1264ZM2246 601H2380L2502 393L2632 601H2760L2560 286V102H2445V289ZM3314 601H3741V507H3582V102H3470V507H3314ZM3906 601H4046L4245 102H4124L4080 215H3869L3828 102H3704ZM611 577Q585 577 563 540T532 445Q565 441 611 441Q652 441 689 444Q679 503 658 540T611 577ZM199 535Q137 459 137 372Q137 287 194 214T350 96T568 44Q528 76 502 158T477 344V362Q350 381 274 427T199 535ZM1020 533Q1020 494 985 459T888 399T744 362V344Q744 241 719 158T654 44Q773 52 870 97T1024 215T1081 372Q1081 459 1020 533ZM1978 517Q1914 517 1874 471T1831 352Q1831 276 1871 230T1978 184Q2041 184 2081 231T2122 352Q2122 425 2081 471T1978 517ZM3028 517Q2962 517 2921 471T2881 352Q2881 275 2920 229T3025 184Q3090 184 3129 230T3168 352Q3168 425 3129 471T3028 517ZM3974 495L3903 302H4046ZM526 356Q527 300 538 253T569 179T611 152Q633 152 652 179T682 253T695 356Q659 352 610 352Q562 352 526 356Z" horiz-adv-x="4305" unicode=""/>
			<glyph d="M551 710Q655 710 740 678T874 592T923 472Q923 407 873 351T738 263T555 231Q453 231 368 264T233 353T183 475Q183 540 232 594T365 679T551 710ZM553 680Q495 680 446 670T368 643T339 605Q339 582 374 563T469 535Q477 597 501 636T553 676Q582 676 605 636T637 535Q696 545 731 563T767 605Q767 626 738 643T660 670T553 680ZM553 620Q536 620 521 596T499 532Q526 529 553 529Q572 529 606 531Q599 571 584 595T553 620ZM277 592Q235 542 235 483Q235 426 273 376T378 296T525 262Q498 283 480 339T462 464V476Q377 489 327 520T277 592ZM828 590Q828 551 777 520T643 476V464Q643 395 626 339T583 262Q663 267 728 298T832 377T870 483Q870 544 828 590ZM496 473Q497 416 513 375T553 335Q576 335 592 375T610 473Q592 470 553 470Q515 470 496 473ZM299 171Q334 171 360 144T387 83Q387 46 361 19T297 -7Q261 -7 235 18T210 81Q210 118 236 144T299 171ZM648 171Q683 171 709 144T735 83Q735 46 709 19T648 -7Q610 -7 584 18T559 81Q559 118 585 144T648 171ZM60 165H202V134H149V-1H112V134H60ZM388 165H431L472 96L516 165H559L493 61V-1H453V62ZM744 165H886V134H833V-1H796V134H744ZM941 165H987L1054 -1H1013L999 37H929L915 -1H873ZM299 137Q277 137 263 122T249 83Q249 57 263 41T299 26Q319 26 332 42T346 83Q346 107 332 122T299 137ZM648 137Q626 137 613 122T600 83Q600 57 613 41T648 26Q669 26 681 41T694 83Q694 107 681 122T648 137ZM963 130L939 66H987Z" horiz-adv-x="1114" unicode=""/>
			<glyph d="M608 710Q762 710 888 663T1086 536T1159 355Q1159 259 1085 177T886 48T614 0Q463 0 335 48T134 180T60 361Q60 458 133 538T332 664T608 710ZM611 667Q525 667 451 651T335 610T293 554Q293 520 346 492T485 450Q499 543 533 601T611 660Q654 660 688 601T736 450Q822 464 875 492T928 554Q928 585 885 610T770 651T611 667ZM611 577Q585 577 563 540T532 445Q565 441 611 441Q652 441 689 444Q679 503 658 540T611 577ZM199 535Q137 459 137 372Q137 287 194 214T350 96T568 44Q528 76 502 158T477 344V362Q350 381 274 427T199 535ZM1020 533Q1020 494 985 459T888 399T744 362V344Q744 241 719 158T654 44Q773 52 870 97T1024 215T1081 372Q1081 459 1020 533ZM526 356Q527 300 538 253T569 179T611 152Q633 152 652 179T682 253T695 356Q659 352 610 352Q562 352 526 356Z" horiz-adv-x="1219" unicode=""/>
			<glyph d="M1099 733Q1200 733 1286 681T1424 543T1476 357Q1476 252 1425 164T1287 26T1095 -24Q992 -24 907 25T772 161T723 352Q723 454 773 541T910 681T1099 733ZM2588 733Q2688 733 2774 681T2912 543T2964 357Q2964 252 2913 165T2776 27T2588 -24Q2485 -24 2398 25T2261 161T2211 352Q2211 454 2262 541T2401 681T2588 733ZM84 710H687V576H462V0H302V576H84ZM1480 710H1671L1844 414L2030 710H2211L1927 263V0H1763V267ZM2999 710H3607V576H3381V0H3222V576H2999ZM3841 710H4040L4324 0H4151L4088 160H3788L3730 0H3554ZM1099 591Q1038 591 992 561T919 478T890 357Q890 285 916 231T990 147T1099 117Q1158 117 1205 147T1278 232T1304 357Q1304 424 1278 477T1205 561T1099 591ZM2592 591Q2531 591 2483 561T2410 477T2384 357Q2384 285 2409 230T2480 146T2588 117Q2649 117 2695 147T2767 232T2792 357Q2792 425 2767 478T2696 561T2592 591ZM3938 559L3837 285H4040Z" horiz-adv-x="4379" unicode=""/>
			<glyph d="M351 759Q381 759 411 751T461 733L423 630Q391 647 361 647Q299 647 285 568L273 506H393L374 401H255L185 0H60L131 401H46L65 506H149L161 574Q191 759 351 759ZM488 506H612L523 0H398ZM577 745Q609 745 631 722T653 668Q653 636 631 614T577 592Q545 592 523 614T501 668Q501 700 523 722T577 745Z" horiz-adv-x="641" unicode=""/>
			<glyph d="M351 759Q381 759 411 751T461 733L423 630Q391 647 361 647Q299 647 285 568L273 506H393L374 401H255L185 0H60L131 401H46L65 506H149L161 574Q191 759 351 759ZM532 752H656L553 165Q550 153 550 138Q550 117 560 108T590 99Q610 99 635 108L639 5Q598 -10 552 -10Q491 -10 456 20T422 110Q422 130 427 155Z" horiz-adv-x="684" unicode=""/>
			<glyph d="M210 442Q263 442 300 405T338 315Q338 262 300 225T210 188Q157 188 120 225T83 315Q83 368 120 405T210 442Z" horiz-adv-x="398" unicode=""/>
			<glyph d="M351 759Q381 759 411 751T461 733L423 630Q391 647 361 647Q299 647 285 568L273 506H393L374 401H255L185 0H60L131 401H46L65 506H149L161 574Q191 759 351 759ZM715 759Q745 759 775 751T825 733L787 630Q755 647 725 647Q663 647 649 568L637 506H757L738 401H619L549 0H424L495 401H410L429 506H513L525 574Q555 759 715 759Z" horiz-adv-x="728" unicode="ﬀ"/>
			<glyph d="M351 759Q381 759 411 751T461 733L423 630Q391 647 361 647Q299 647 285 568L273 506H393L374 401H255L185 0H60L131 401H46L65 506H149L161 574Q191 759 351 759ZM488 506H612L523 0H398ZM577 745Q609 745 631 722T653 668Q653 636 631 614T577 592Q545 592 523 614T501 668Q501 700 523 722T577 745Z" horiz-adv-x="641" unicode="ﬁ"/>
			<glyph d="M351 759Q381 759 411 751T461 733L423 630Q391 647 361 647Q299 647 285 568L273 506H393L374 401H255L185 0H60L131 401H46L65 506H149L161 574Q191 759 351 759ZM532 752H656L553 165Q550 153 550 138Q550 117 560 108T590 99Q610 99 635 108L639 5Q598 -10 552 -10Q491 -10 456 20T422 110Q422 130 427 155Z" horiz-adv-x="684" unicode="ﬂ"/>
			</font>
</defs>
</svg>
