<?xml version="1.0" encoding="UTF-8"?>
<svg height="100%" width="100%" xmlns="http://www.w3.org/2000/svg">
	<defs>
		<font horiz-adv-x="624" id="web">
			<font-face alphabetic="0" ascent="1167" descent="-259" font-family="" panose-1="2 11 5 2 2 2 2 9 2 4"/>
			<missing-glyph d="M119 752H659L489 -210H-51ZM176 682L32 -140H432L576 682Z" horiz-adv-x="600"/>
			<glyph d="" horiz-adv-x="261" unicode=" "/>
			<glyph d="M193 710H278L176 217H118ZM119 93Q141 93 156 78T171 41Q171 19 156 4T119 -11Q97 -11 81 4T66 41Q66 63 81 78T119 93Z" horiz-adv-x="313" unicode="!"/>
			<glyph d="M302 710H377L323 474H269ZM134 710H209L155 474H101Z" horiz-adv-x="352" unicode="&quot;"/>
			<glyph d="M332 710H393L329 528H468L531 710H591L528 528H671L661 471H509L429 240H569L558 183H410L347 0H287L350 183H208L144 0H84L148 183H2L12 240H168L249 471H105L115 528H268ZM309 471L228 240H369L449 471Z" horiz-adv-x="668" unicode="#"/>
			<glyph d="M351 780H405L390 701Q463 692 532 658L507 594Q476 612 445 623T378 639L331 387Q393 364 428 342T483 290T502 213Q502 119 438 69T262 18L243 -83H189L208 20Q104 32 22 90L50 155Q81 129 124 110T221 85L268 340Q210 363 176 383T124 434T105 511Q105 603 171 652T337 703ZM325 641Q256 638 215 607T175 520Q175 476 201 451T281 406ZM319 320L274 83Q349 85 390 116T431 207Q431 249 406 272T319 320Z" horiz-adv-x="558" unicode="$"/>
			<glyph d="M263 716Q321 716 355 677T389 572Q389 515 371 465T316 383T224 352Q166 352 130 391T94 501Q94 557 112 606T169 686T263 716ZM641 710H711L215 0H145ZM258 663Q209 663 182 614T156 507Q156 457 175 431T228 405Q277 405 302 453T327 564Q327 612 309 637T258 663ZM637 354Q695 354 729 315T763 210Q763 153 745 103T690 21T598 -10Q540 -10 504 29T468 139Q468 195 486 244T543 324T637 354ZM632 301Q583 301 556 252T530 145Q530 95 549 69T602 43Q651 43 676 91T701 202Q701 250 683 275T632 301Z" horiz-adv-x="820" unicode="%"/>
			<glyph d="M326 721Q399 721 441 679T483 576Q483 508 441 464T312 378L476 187Q544 269 586 390L646 358Q595 223 519 136L635 0H546L472 88Q360 -11 218 -11Q159 -11 112 12T40 76T14 172Q14 230 40 270T107 338T214 395Q179 438 162 474T145 558Q145 603 167 640T230 699T326 721ZM320 662Q272 662 243 635T214 558Q214 521 229 490T275 422Q351 459 382 490T414 571Q414 610 388 636T320 662ZM252 351Q195 325 161 304T108 252T88 178Q88 122 127 88T227 54Q335 54 430 138Z" horiz-adv-x="683" unicode="&amp;"/>
			<glyph d="M134 710H209L155 474H101Z" horiz-adv-x="183" unicode="'"/>
			<glyph d="M424 752L413 693Q351 693 311 663T241 571Q206 498 180 359T155 125Q155 33 183 -13T279 -69L268 -128Q174 -118 131 -56T88 123Q88 230 116 373T184 599Q223 679 278 715T424 752Z" horiz-adv-x="343" unicode="("/>
			<glyph d="M96 752Q190 742 233 680T276 503Q276 395 248 252T179 25Q141 -55 85 -91T-60 -128L-49 -69Q13 -69 52 -39T122 53Q158 126 183 264T209 500Q209 591 180 637T84 693Z" horiz-adv-x="342" unicode=")"/>
			<glyph d="M240 714L306 703L274 573L404 604L413 538L281 528L351 415L290 385L240 508L154 407L106 456L208 541L85 592L116 652L229 581Z" horiz-adv-x="397" unicode="*"/>
			<glyph d="M279 575H337V380H533V321H337V125H279V321H83V380H279Z" horiz-adv-x="582" unicode="+"/>
			<glyph d="M71 88H157L33 -142H-32Z" horiz-adv-x="243" unicode=","/>
			<glyph d="M60 302H404L393 241H49Z" horiz-adv-x="445" unicode="-"/>
			<glyph d="M108 93Q130 93 145 78T160 41Q160 19 145 4T108 -11Q86 -11 70 4T55 41Q55 63 70 78T108 93Z" horiz-adv-x="290" unicode="."/>
			<glyph d="M428 752H497L5 -168H-64Z" horiz-adv-x="418" unicode="/"/>
			<glyph d="M354 720Q452 720 501 656T550 477Q550 339 516 224T425 53Q393 21 355 5T268 -10Q170 -10 119 57T69 236Q69 365 102 480T193 655Q224 687 265 703T354 720ZM349 653Q289 653 246 607Q198 557 169 451T141 235Q141 151 175 104T274 57Q307 57 332 67T378 100Q423 149 450 254T478 476Q478 653 349 653Z" horiz-adv-x="582" unicode="0"/>
			<glyph d="M323 716H353L227 0H154L262 613L83 502L96 576Z" horiz-adv-x="403" unicode="1"/>
			<glyph d="M327 720Q419 720 468 669T518 540Q518 469 479 409T356 270L146 66H491L479 0H35L42 52L307 311Q381 384 412 430T444 531Q444 586 413 620T319 654Q220 654 138 565L105 624Q201 720 327 720Z" horiz-adv-x="569" unicode="2"/>
			<glyph d="M325 720Q411 720 462 675T514 555Q514 487 473 442T351 379Q420 367 453 323T487 209Q487 144 456 94T370 16T240 -11Q163 -11 109 16T23 86L65 143Q93 104 138 79T243 55Q325 55 370 96T416 206Q416 280 359 313T206 347L212 408Q322 409 381 447T441 546Q441 596 408 625T313 654Q264 654 224 634T144 577L113 634Q157 675 208 697T325 720Z" horiz-adv-x="553" unicode="3"/>
			<glyph d="M449 710H504L417 223H522L511 159H406L378 0H305L334 159H12L22 212ZM405 567L110 223H345Z" horiz-adv-x="584" unicode="4"/>
			<glyph d="M186 710H531L522 644H237L190 412Q241 431 298 431Q394 431 451 378T508 237Q508 163 475 107T381 20T240 -11Q167 -11 114 17T30 85L73 141Q140 56 244 56Q334 56 385 104T436 232Q436 294 394 330T281 366Q196 366 137 329L108 342Z" horiz-adv-x="567" unicode="5"/>
			<glyph d="M529 715L537 653Q373 653 270 578T138 366Q172 405 220 428T330 452Q391 452 436 426T506 353T531 247Q531 176 501 117T415 24T282 -10Q219 -10 168 19T87 108T57 256Q57 396 114 499T277 659T529 715ZM316 390Q256 390 205 361T128 283Q127 275 127 257Q127 157 172 105T287 54Q370 54 415 106T460 241Q460 308 421 349T316 390Z" horiz-adv-x="574" unicode="6"/>
			<glyph d="M108 710H570L561 663L147 0H62L470 643H96Z" horiz-adv-x="534" unicode="7"/>
			<glyph d="M348 720Q433 720 486 677T539 557Q539 492 505 446T410 383Q464 364 492 323T521 219Q521 155 491 103T406 20T272 -10Q169 -10 108 41T47 183Q47 263 95 320T225 393Q184 411 160 446T137 529Q137 585 163 628T236 696T348 720ZM343 658Q279 658 243 622T208 528Q208 480 241 450T332 420Q394 420 431 457T468 550Q468 601 434 629T343 658ZM298 352Q217 352 168 307T120 193Q120 128 162 90T276 53Q356 53 402 99T448 217Q448 281 408 316T298 352Z" horiz-adv-x="587" unicode="8"/>
			<glyph d="M328 716Q391 716 442 686T523 597T553 450Q553 310 496 206T333 47T81 -9L73 53Q237 53 340 127T472 340Q438 301 389 277T280 254Q219 254 173 280T103 353T79 459Q79 530 108 588T194 681T328 716ZM323 652Q240 652 195 599T150 465Q150 398 189 357T294 316Q354 316 404 344T482 423Q483 431 483 449Q483 549 437 600T323 652Z" horiz-adv-x="574" unicode="9"/>
			<glyph d="M174 467Q196 467 211 452T226 415Q226 393 211 377T174 362Q152 362 137 377T122 415Q122 437 137 452T174 467ZM109 93Q131 93 146 78T161 41Q161 19 146 4T109 -11Q87 -11 71 4T56 41Q56 63 71 78T109 93ZZ" horiz-adv-x="291" unicode=":"/>
			<glyph d="M152 467Q174 467 189 452T204 415Q204 393 189 378T152 363Q130 363 114 378T99 415Q99 437 114 452T152 467ZM71 88H157L33 -142H-32ZZ" horiz-adv-x="243" unicode=";"/>
			<glyph d="M520 542V484L118 350L520 216V158L70 313V387Z" horiz-adv-x="582" unicode="&lt;"/>
			<glyph d="M84 476H534V418H84ZM84 283H534V225H84Z" horiz-adv-x="582" unicode="="/>
			<glyph d="M97 542L547 387V313L97 158V216L499 350L97 484Z" horiz-adv-x="582" unicode="&gt;"/>
			<glyph d="M290 718Q379 718 429 673T480 550Q480 485 449 440T357 344Q316 311 296 285T270 220H203Q210 270 230 301T303 378Q309 383 343 413T393 474T409 540Q409 593 376 623T284 654Q168 654 130 543L70 569Q93 638 148 678T290 718ZM221 93Q243 93 258 78T273 41Q273 19 258 4T221 -11Q199 -11 183 4T168 41Q168 63 183 78T221 93Z" horiz-adv-x="505" unicode="?"/>
			<glyph d="M532 727Q643 727 731 679T870 548T920 363Q920 291 894 213T828 78H612L625 150Q562 71 459 71Q370 71 315 126T261 278Q261 352 292 409T377 498T494 529Q554 529 601 501T666 424L683 519H746L682 136H796Q826 184 843 242T860 358Q860 447 817 518T698 629T527 670Q409 670 314 614T167 465T115 263Q115 167 157 92T276 -24T449 -66Q510 -66 568 -51T669 -12L672 -73Q635 -95 572 -110T443 -125Q331 -125 242 -77T104 58T55 256Q55 385 116 492T287 663T532 727ZM498 468Q422 468 375 416T328 284Q328 213 365 173T472 134Q530 134 570 160T629 229T649 318Q649 386 608 427T498 468Z" horiz-adv-x="953" unicode="@"/>
			<glyph d="M364 710H442L589 0H515L469 231H171L44 0H-35ZM389 626L205 293H456Z" horiz-adv-x="642" unicode="A"/>
			<glyph d="M176 710H329Q425 710 476 666T527 548Q527 489 498 442T407 370Q468 358 501 318T535 214Q535 114 468 57T285 0H51ZM238 645L194 390H285Q363 390 408 430T453 536Q453 592 417 618T311 645ZM183 326L137 65H292Q370 65 415 105T461 209Q461 266 427 296T333 326Z" horiz-adv-x="574" unicode="B"/>
			<glyph d="M474 720Q611 720 706 638L675 568Q634 607 582 628T470 649Q382 649 307 605T190 487T147 329Q147 251 180 190T273 95T409 61Q473 61 532 83T642 142L663 72Q545 -10 405 -10Q309 -10 233 31T115 148T72 321Q72 433 126 524T272 668T474 720Z" horiz-adv-x="728" unicode="C"/>
			<glyph d="M176 710H376Q532 710 619 630T707 407Q707 289 657 196T515 52T296 0H52ZM239 643L136 67H305Q404 67 478 111T591 231T631 400Q631 517 562 580T356 643Z" horiz-adv-x="742" unicode="D"/>
			<glyph d="M177 710H565L553 642H239L195 389H499L487 323H183L137 68H459L447 0H51Z" horiz-adv-x="569" unicode="E"/>
			<glyph d="M177 710H563L551 642H239L194 388H492L480 320H182L125 0H51Z" horiz-adv-x="533" unicode="F"/>
			<glyph d="M475 720Q550 720 609 698T726 640L694 572Q642 610 590 629T472 649Q378 649 303 604T187 484T146 319Q146 241 177 182T264 92T394 60Q469 60 528 90T623 169T672 272H425L436 336H750L691 0H623L645 115Q545 -10 379 -10Q290 -10 220 30T110 143T70 311Q70 425 122 518T266 666T475 720Z" horiz-adv-x="801" unicode="G"/>
			<glyph d="M177 710H251L194 389H597L654 710H728L602 0H528L585 322H182L125 0H51Z" horiz-adv-x="743" unicode="H"/>
			<glyph d="M177 710H251L125 0H51Z" horiz-adv-x="265" unicode="I"/>
			<glyph d="M305 710H379L294 226Q272 103 219 46T73 -10Q8 -10 -36 13L-13 79Q29 57 71 57Q134 57 169 97T221 229Z" horiz-adv-x="384" unicode="J"/>
			<glyph d="M177 710H251L189 360L564 710H656L277 357L557 0H467L189 359L125 0H51Z" horiz-adv-x="622" unicode="K"/>
			<glyph d="M177 710H251L137 68H454L442 0H51Z" horiz-adv-x="515" unicode="L"/>
			<glyph d="M177 710H257L434 342L743 710H831L705 0H631L738 604L448 258H396L231 604L124 0H51Z" horiz-adv-x="845" unicode="M"/>
			<glyph d="M177 710H247L568 116L673 710H746L620 0H550L229 593L124 0H51Z" horiz-adv-x="760" unicode="N"/>
			<glyph d="M478 720Q579 720 655 678T774 561T816 389Q816 281 766 189T624 44T412 -10Q312 -10 234 32T114 150T72 324Q72 435 123 525T267 667T478 720ZM471 649Q377 649 303 606T189 490T148 328Q148 250 182 189T278 95T420 61Q512 61 585 105T699 223T740 384Q740 462 706 522T611 615T471 649Z" horiz-adv-x="853" unicode="O"/>
			<glyph d="M176 710H352Q471 710 530 659T589 513Q589 441 556 384T460 296T307 265H172L126 0H52ZM238 644L184 330H314Q406 330 459 377T513 508Q513 582 468 613T335 644Z" horiz-adv-x="579" unicode="P"/>
			<glyph d="M478 720Q579 720 655 678T774 561T816 389Q816 302 783 225T690 93L775 -12H689L637 52Q538 -10 412 -10Q312 -10 234 32T114 150T72 324Q72 435 123 525T267 667T478 720ZM471 649Q377 649 303 606T189 490T148 328Q148 250 182 189T278 95T420 61Q514 61 591 109L493 229L579 230L644 150Q690 196 715 256T740 384Q740 462 706 522T611 615T471 649Z" horiz-adv-x="856" unicode="Q"/>
			<glyph d="M177 710H379Q475 710 529 662T584 532Q584 447 534 385T397 305L556 0H472L323 297H320H178L125 0H51ZM239 644L189 358H333Q378 358 418 376T483 431T508 524Q508 587 468 615T359 644Z" horiz-adv-x="618" unicode="R"/>
			<glyph d="M359 721Q411 721 458 708T542 674L514 605Q440 654 354 654Q280 654 235 621T190 529Q190 494 206 470T250 429T333 385Q396 355 429 333T482 278T502 194Q502 97 436 43T254 -10Q117 -10 24 66L54 136Q91 100 143 79T259 58Q336 58 381 91T427 190Q427 223 414 243T375 280T289 326Q224 359 189 382T135 439T115 521Q115 587 148 632T236 699T359 721Z" horiz-adv-x="561" unicode="S"/>
			<glyph d="M107 710H579L566 643H373L259 0H185L299 643H95Z" horiz-adv-x="527" unicode="T"/>
			<glyph d="M166 710H240L166 285Q161 247 161 218Q161 142 206 101T330 61Q525 61 560 270L638 710H712L633 258Q610 130 530 60T324 -10Q211 -10 148 49T86 214Q86 246 93 290Z" horiz-adv-x="717" unicode="U"/>
			<glyph d="M95 710H171L291 93L628 710H709L316 0H237Z" horiz-adv-x="646" unicode="V"/>
			<glyph d="M117 710H192L253 107L542 710H612L685 106L959 710H1039L709 0H634L559 605L270 0H195Z" horiz-adv-x="997" unicode="W"/>
			<glyph d="M121 710H202L351 414L593 710H680L382 352L560 0H480L331 299L79 0H-10L299 360Z" horiz-adv-x="637" unicode="X"/>
			<glyph d="M105 710H183L329 355L600 710H684L357 286L306 0H231L282 284Z" horiz-adv-x="628" unicode="Y"/>
			<glyph d="M152 710H626L618 672L136 67H516L504 0H16L23 38L507 643H140Z" horiz-adv-x="594" unicode="Z"/>
			<glyph d="M231 752H441L430 696H287L151 -74H295L285 -130H75Z" horiz-adv-x="371" unicode="["/>
			<glyph d="M99 752H164L379 -168H314Z" horiz-adv-x="463" unicode="\"/>
			<glyph d="M107 752H317L161 -130H-49L-38 -74H105L241 696H97Z" horiz-adv-x="371" unicode="]"/>
			<glyph d="M256 710H329L485 260H426L293 661L159 260H100Z" horiz-adv-x="582" unicode="^"/>
			<glyph d="M-5 -92H455V-137H-5Z" horiz-adv-x="450" unicode="_"/>
			<glyph d="M194 725H268L355 573H290Z" horiz-adv-x="450" unicode="`"/>
			<glyph d="M307 512Q392 512 442 469T493 344Q493 320 487 276L440 0H370L383 74Q352 37 305 13T199 -10Q129 -10 86 25T44 126Q44 222 139 260T422 301Q425 325 425 337Q425 392 394 421T302 450Q252 450 206 432T125 390L110 452Q146 477 197 494T307 512ZM415 250Q312 249 247 238T150 202T117 132Q117 89 144 68T218 48Q259 48 300 64T371 118T410 215Q411 223 412 232T415 250Z" horiz-adv-x="567" unicode="a"/>
			<glyph d="M182 752H251L193 429Q228 470 275 491T379 512Q442 512 491 482T567 398T595 278Q595 196 559 130T461 27T324 -10Q262 -10 211 21T136 110L119 0H50ZM362 446Q303 446 257 417T185 338T159 229Q159 180 179 140T236 78T320 55Q376 55 422 83T496 161T523 275Q523 323 502 362T445 423T362 446Z" horiz-adv-x="643" unicode="b"/>
			<glyph d="M329 512Q419 512 493 460L465 396Q403 446 325 446Q267 446 220 418T146 339T119 224Q119 147 163 101T288 55Q373 55 448 109L460 44Q428 21 381 5T281 -10Q209 -10 156 19T74 100T46 219Q46 303 82 370T183 474T329 512Z" horiz-adv-x="517" unicode="c"/>
			<glyph d="M568 752H637L506 -2H436L450 77Q417 32 369 11T270 -10Q205 -10 154 20T76 105T48 227Q48 306 83 371T180 474T316 512Q381 512 431 482T506 398ZM318 446Q261 446 215 417T144 340T118 233Q118 154 163 104T282 55Q338 55 384 83T458 160T485 266Q485 314 466 355T409 421T318 446Z" horiz-adv-x="643" unicode="d"/>
			<glyph d="M322 512Q387 512 435 484T509 406T535 291L533 247H118Q117 241 117 229Q117 146 165 99T294 53Q397 53 485 124L497 62Q458 29 404 9T286 -10Q212 -10 158 19T76 101T48 222Q48 309 83 374T180 476T322 512ZM317 450Q247 450 196 410T126 302H464Q462 366 423 408T317 450Z" horiz-adv-x="580" unicode="e"/>
			<glyph d="M333 754Q358 754 382 747T424 731L399 671Q365 690 334 690Q261 690 242 585L228 502H350L339 441H217L139 0H70L148 441H60L71 502H159L175 597Q188 673 229 713T333 754Z" horiz-adv-x="328" unicode="f"/>
			<glyph d="M324 512Q458 512 515 388L536 502H605L518 13Q497 -107 430 -163T245 -219Q117 -219 28 -153L58 -89Q98 -121 144 -137T247 -154Q334 -154 384 -113T449 14L464 94Q426 43 375 20T269 -3Q204 -3 153 25T75 105T47 227Q47 306 83 371T182 474T324 512ZM325 448Q267 448 220 420T145 343T118 235Q118 153 164 107T286 61Q343 61 390 90T465 168T493 276Q493 353 447 400T325 448Z" horiz-adv-x="654" unicode="g"/>
			<glyph d="M182 752H251L191 410Q224 459 275 486T390 513Q461 513 501 472T542 355Q542 322 535 287L485 0H416L467 290Q471 314 471 339Q471 393 443 421T361 450Q315 450 274 429T206 371T170 288L119 0H50Z" horiz-adv-x="613" unicode="h"/>
			<glyph d="M137 502H206L118 0H49ZM198 718Q220 718 235 703T250 665Q250 642 235 627T198 612Q175 612 160 627T145 665Q145 688 160 703T198 718Z" horiz-adv-x="255" unicode="i"/>
			<glyph d="M139 502H208L110 -61Q95 -144 60 -181T-32 -219Q-74 -219 -97 -209L-84 -146Q-64 -154 -33 -154Q-3 -154 14 -131T42 -49ZM197 718Q219 718 234 703T249 665Q249 642 234 627T197 612Q174 612 159 627T144 665Q144 688 159 703T197 718Z" horiz-adv-x="258" unicode="j"/>
			<glyph d="M182 752H251L165 264L440 502H536L248 259L457 0H370L164 257L119 0H50Z" horiz-adv-x="510" unicode="k"/>
			<glyph d="M180 752H248L138 124Q135 103 135 96Q135 54 174 54Q194 54 227 65L236 7Q198 -10 158 -10Q114 -10 88 13T63 81Q63 98 68 118Z" horiz-adv-x="283" unicode="l"/>
			<glyph d="M357 513Q415 513 451 486T498 406Q531 458 577 485T680 513Q749 513 788 474T827 360Q827 342 821 294L769 0H700L751 290Q757 320 757 343Q757 395 731 422T659 450Q598 450 551 403T494 286L444 0H374L425 290Q431 320 431 345Q431 395 406 422T335 450Q294 450 258 426T199 365T169 288L118 0H49L137 502H206L192 419Q220 463 262 488T357 513Z" horiz-adv-x="897" unicode="m"/>
			<glyph d="M378 512Q454 512 497 470T540 349Q540 320 534 288L484 0H414L465 283Q470 313 470 337Q470 448 358 448Q289 448 235 402T169 286L118 0H49L137 502H206L190 411Q222 459 270 485T378 512Z" horiz-adv-x="611" unicode="n"/>
			<glyph d="M336 512Q407 512 462 482T547 399T577 277Q577 203 544 137T446 30T290 -10Q220 -10 165 19T79 104T48 231Q48 303 80 367T178 471T336 512ZM328 446Q260 446 213 415T143 336T120 236Q120 153 168 104T298 56Q362 56 409 85T480 163T505 272Q505 352 456 399T328 446Z" unicode="o"/>
			<glyph d="M377 512Q442 512 491 482T568 398T595 277Q595 197 559 131T461 28T326 -10Q262 -10 211 20T136 112L82 -210H12L137 502H206L192 427Q226 468 273 490T377 512ZM359 446Q301 446 255 417T184 338T159 231Q159 154 204 104T324 55Q378 55 424 83T496 161T523 272Q523 349 478 397T359 446Z" horiz-adv-x="643" unicode="p"/>
			<glyph d="M322 512Q382 512 432 482T508 397L524 502H593L468 -210H399L451 74Q417 33 370 11T267 -10Q204 -10 154 20T76 103T48 224Q48 307 84 373T183 475T322 512ZM327 446Q270 446 222 418T147 340T120 227Q120 178 140 139T198 77T285 55Q343 55 388 84T459 163T484 272Q484 347 440 396T327 446Z" horiz-adv-x="642" unicode="q"/>
			<glyph d="M332 512Q364 512 390 501L367 434Q344 444 318 444Q258 444 218 396T165 268L117 0H49L137 502H206L191 418Q221 470 255 491T332 512Z" horiz-adv-x="358" unicode="r"/>
			<glyph d="M277 512Q365 512 433 469L408 409Q380 429 348 441T272 453Q223 453 190 435T158 380Q158 353 181 334T271 286Q325 261 348 248T389 210T406 148Q406 77 352 33T205 -10Q149 -10 103 5T32 44L58 104Q84 80 125 64T212 49Q268 49 301 73T335 137Q335 161 321 177T288 203T227 232Q177 253 148 270T103 312T87 371Q87 437 140 474T277 512Z" horiz-adv-x="471" unicode="s"/>
			<glyph d="M246 660L218 502H365L354 441H207L155 150Q152 132 152 114Q152 85 169 70T215 55Q238 55 262 63T305 84L316 24Q294 9 263 0T197 -10Q145 -10 113 17T82 104Q82 125 88 156L138 441H69L79 502H149L174 649Z" horiz-adv-x="365" unicode="t"/>
			<glyph d="M128 502H197L147 217Q142 187 142 160Q142 107 171 79T258 52Q326 52 378 98T443 216L494 502H563L475 0H405L420 85Q388 40 341 15T238 -10Q161 -10 116 31T72 150Q72 185 78 218Z" horiz-adv-x="612" unicode="u"/>
			<glyph d="M48 502H121L210 79L450 502H527L235 0H164Z" horiz-adv-x="487" unicode="v"/>
			<glyph d="M58 502H130L189 81L400 502H468L530 85L735 502H808L553 0H481L419 413L211 0H138Z" horiz-adv-x="777" unicode="w"/>
			<glyph d="M67 502H145L259 305L435 502H521L292 256L445 0H369L247 211L55 0H-31L213 261Z" horiz-adv-x="503" unicode="x"/>
			<glyph d="M43 502H115L224 103L450 502H526L197 -69Q151 -149 106 -182T-5 -215Q-46 -215 -68 -206L-47 -143Q-32 -149 -3 -149Q37 -149 67 -128T132 -50L177 23Z" horiz-adv-x="487" unicode="y"/>
			<glyph d="M92 502H468L462 467L121 60H407L396 0H4L11 33L355 441H82Z" horiz-adv-x="477" unicode="z"/>
			<glyph d="M325 752H397L386 696H330Q298 696 282 684T260 649T255 583Q255 564 257 522T259 460Q259 389 236 352T155 309Q223 292 223 228Q223 215 213 186T183 105Q139 -9 139 -35Q139 -74 196 -74H251L241 -130H179Q129 -130 101 -109T74 -49Q74 -24 86 11T122 104Q142 150 152 178T162 224Q162 252 141 267T81 283H52L63 339H92Q152 339 176 370T201 463Q201 493 198 526Q197 538 196 555T195 594Q195 675 224 713T325 752Z" horiz-adv-x="337" unicode="{"/>
			<glyph d="M80 752H143V-210H80Z" horiz-adv-x="216" unicode="|"/>
			<glyph d="M117 753H179Q229 753 256 732T284 672Q284 647 272 612T236 519Q216 473 206 444T196 399Q196 371 216 355T277 340H306L295 284H266Q206 284 181 253T157 160Q157 130 160 97Q161 85 162 68T163 29Q163 -52 133 -90T33 -129H-39L-28 -73H28Q60 -73 76 -61T97 -26T103 40Q103 59 101 101T99 163Q99 234 122 271T203 314Q135 331 135 395Q135 408 145 437T175 518Q219 632 219 658Q219 697 162 697H107Z" horiz-adv-x="336" unicode="}"/>
			<glyph d="M194 377Q215 377 241 371T310 353Q338 345 361 339T399 334Q445 334 454 377H507Q500 328 473 302T407 276Q386 276 359 282T294 300Q233 319 201 319Q180 319 168 308T149 276H96Q102 327 128 352T194 377Z" horiz-adv-x="582" unicode="~"/>
			<glyph d="" horiz-adv-x="261" unicode=" "/>
			<glyph d="M194 513Q216 513 231 498T247 461Q247 439 231 424T194 409Q172 409 157 424T142 461Q142 483 157 498T194 513ZM137 285H195L120 -208H35Z" horiz-adv-x="313" unicode="¡"/>
			<glyph d="M347 710H401L387 633Q464 626 523 582L494 518Q441 561 376 568L307 178H318Q402 178 478 231L490 166Q456 143 410 127T311 112H295L275 0H221L242 119Q160 137 114 196T68 341Q68 420 102 484T196 587T333 633ZM322 567Q241 556 190 495T140 346Q140 284 169 242T254 186Z" horiz-adv-x="519" unicode="¢"/>
			<glyph d="M393 720Q452 720 494 700T570 645L531 584Q477 652 388 652Q328 652 291 612T239 485L221 383H409L399 320H209L184 181Q170 101 108 66H496L485 0H-13L-2 66Q44 74 72 103T109 178L135 320H43L54 383H146L165 489Q206 720 393 720Z" horiz-adv-x="558" unicode="£"/>
			<glyph d="M122 578L174 520Q232 557 297 557Q363 557 414 519L479 578L523 528L458 469Q484 424 484 370Q484 331 470 295T433 230L485 172L430 122L378 181Q321 143 254 143Q188 143 139 181L74 122L29 172L95 230Q68 276 68 330Q68 409 119 471L67 528ZM292 488Q251 488 215 467T158 411T137 334Q137 279 172 245T261 212Q302 212 337 233T394 289T415 365Q415 418 381 453T292 488Z" horiz-adv-x="517" unicode="¤"/>
			<glyph d="M105 710H183L329 355L600 710H684L381 317H555L546 266H353L340 189H533L524 139H331L306 0H231L256 139H60L69 189H265L278 266H82L91 317H268Z" horiz-adv-x="628" unicode="¥"/>
			<glyph d="M80 752H143V381H80ZM80 161H143V-210H80Z" horiz-adv-x="216" unicode="¦"/>
			<glyph d="M306 762Q390 762 455 720L432 658Q369 703 297 703Q246 703 215 682T184 625Q184 600 197 583T231 557T285 534Q336 516 363 502T409 465T427 403Q427 353 398 314T320 256Q355 238 373 212T392 145Q392 74 335 32T184 -10Q128 -10 82 5T12 44L38 105Q64 80 104 64T193 49Q252 49 287 72T322 136Q322 170 295 187T210 225Q130 252 99 280T68 357Q68 410 99 448T186 503Q150 521 131 546T113 611Q113 680 167 721T306 762ZM255 470Q205 470 171 442T138 373Q138 338 162 320T243 285Q295 286 325 315T356 388Q356 422 336 438T273 469Q267 470 255 470Z" horiz-adv-x="450" unicode="§"/>
			<glyph d="M189 714Q210 714 224 699T239 665Q239 644 224 630T189 616Q169 616 154 630T140 665Q140 685 154 699T189 714ZM399 714Q420 714 434 699T449 665Q449 644 434 630T399 616Q379 616 364 630T350 665Q350 685 364 699T399 714Z" horiz-adv-x="450" unicode="¨"/>
			<glyph d="M417 720Q520 720 603 672T734 541T782 355Q782 252 734 168T603 37T417 -10Q314 -10 231 37T100 168T52 355Q52 458 100 541T231 672T417 720ZM417 672Q327 672 254 631T141 517T100 355Q100 265 141 192T254 79T417 38Q507 38 579 79T693 192T735 355Q735 445 693 517T579 631T417 672ZM426 580Q469 580 508 566T578 526L558 472Q532 497 497 511T426 525Q379 525 340 503T280 442T258 356Q258 309 280 270T341 208T426 185Q464 185 500 198T566 237L585 183Q514 130 426 130Q363 130 311 160T230 242T200 357Q200 419 230 470T311 550T426 580Z" horiz-adv-x="798" unicode="©"/>
			<glyph d="M244 724Q299 724 329 697T360 622Q360 602 357 585L328 416H274L281 452Q240 409 179 409Q135 409 109 431T83 492Q83 549 134 575T306 602Q307 609 307 617Q307 678 240 678Q180 678 132 639L119 686Q140 701 173 712T244 724ZM300 563Q235 563 199 555T151 533T138 497Q138 476 151 464T193 452Q230 452 260 475T298 549Q300 559 300 563Z" horiz-adv-x="349" unicode="ª"/>
			<glyph d="M231 460H316L105 254L241 60H165L27 260ZM437 460H522L311 254L447 60H371L233 260Z" horiz-adv-x="511" unicode="«"/>
			<glyph d="M84 508H534V193H475V449H84Z" horiz-adv-x="582" unicode="¬"/>
			<glyph d="M60 302H404L393 241H49Z" horiz-adv-x="445" unicode="­"/>
			<glyph d="M277 710Q335 710 380 684T451 613T477 510Q477 452 451 406T380 335T277 310Q219 310 173 335T102 406T77 510Q77 567 102 613T173 684T277 710ZM277 676Q204 676 158 630T112 510Q112 436 158 390T277 344Q351 344 397 390T443 510Q443 584 397 630T277 676ZM206 629H277Q312 629 333 609T354 558Q354 536 343 519T314 493L382 391H337L275 485H244V391H206ZM244 594V518H274Q294 518 305 528T317 557Q317 574 306 584T275 594Z" horiz-adv-x="463" unicode="®"/>
			<glyph d="M154 678H451L441 625H144Z" horiz-adv-x="450" unicode="¯"/>
			<glyph d="M237 710Q279 710 314 689T370 634T391 557Q391 515 370 480T314 424T237 404Q195 404 159 424T103 480T83 557Q83 599 103 634T159 689T237 710ZM237 653Q197 653 169 625T141 557Q141 517 169 489T237 461Q277 461 305 489T333 557Q333 597 305 625T237 653Z" horiz-adv-x="366" unicode="°"/>
			<glyph d="M267 568H326V426H522V373H326V231H267V373H72V426H267ZM72 201H522V149H72Z" horiz-adv-x="582" unicode="±"/>
			<glyph d="M285 870Q342 870 375 841T409 765Q409 723 381 683T300 595L182 488H396L385 435H89L96 471L263 626Q309 668 329 697T350 757Q350 784 331 800T276 816Q213 816 155 763L134 809Q162 838 201 854T285 870Z" horiz-adv-x="394" unicode="²"/>
			<glyph d="M286 870Q343 870 375 843T408 774Q408 735 381 706T309 665Q359 656 382 632T406 564Q406 500 359 462T235 425Q185 425 148 441T93 484L125 528Q166 478 239 478Q289 478 317 499T346 563Q346 605 316 620T223 636L229 683Q288 683 318 707T349 765Q349 790 331 803T280 817Q221 817 163 769L141 815Q207 870 286 870Z" horiz-adv-x="403" unicode="³"/>
			<glyph d="M344 725H425L273 573H205Z" horiz-adv-x="450" unicode="´"/>
			<glyph d="M128 502H197L147 217Q142 187 142 160Q142 107 171 79T258 52Q326 52 378 98T443 216L494 502H563L475 0H405L420 85Q388 40 341 15T238 -10Q158 -10 115 33L73 -210H4L74 191Q76 209 78 218Z" horiz-adv-x="612" unicode="µ"/>
			<glyph d="M302 710H636V660H557V-210H505V660H394V-210H342V151H302Q226 151 168 186T79 284T48 431Q48 514 79 577T168 675T302 710Z" horiz-adv-x="648" unicode="¶"/>
			<glyph d="M149 326Q171 326 186 311T201 274Q201 252 186 237T149 222Q127 222 111 237T96 274Q96 296 111 311T149 326Z" horiz-adv-x="290" unicode="·"/>
			<glyph d="M165 0H218L209 -48Q265 -60 265 -116Q265 -166 224 -190T96 -214L105 -162Q160 -162 182 -151T205 -118Q205 -85 148 -85Z" horiz-adv-x="450" unicode="¸"/>
			<glyph d="M277 865H300L223 435H165L230 780L118 720L129 783Z" horiz-adv-x="311" unicode="¹"/>
			<glyph d="M268 720Q334 720 375 680T417 575Q417 527 393 488T329 428T240 406Q175 406 134 446T93 549Q93 598 116 637T180 698T268 720ZM264 669Q216 669 182 636T149 554Q149 509 175 483T246 457Q295 457 327 490T360 573Q360 617 333 643T264 669Z" horiz-adv-x="400" unicode="º"/>
			<glyph d="M68 461H144L282 261L78 61H-7L204 267ZM270 461H346L484 261L280 61H195L406 267Z" horiz-adv-x="507" unicode="»"/>
			<glyph d="M251 715H274L197 285H139L204 630L92 570L103 633ZM633 710H701L154 0H86ZM678 429H729L678 140H742L734 91H669L653 0H594L610 91H402L408 130ZM653 337L476 140H619Z" horiz-adv-x="808" unicode="¼"/>
			<glyph d="M251 715H274L197 285H139L204 630L92 570L103 633ZM633 710H701L154 0H86ZM668 435Q725 435 758 406T792 330Q792 288 764 248T683 160L565 53H779L768 0H472L479 36L646 191Q692 233 712 262T733 322Q733 349 714 365T659 381Q596 381 538 328L517 374Q545 403 584 419T668 435Z" horiz-adv-x="854" unicode="½"/>
			<glyph d="M260 720Q317 720 349 693T382 624Q382 585 355 556T283 515Q333 506 356 482T380 414Q380 350 333 312T209 275Q159 275 122 291T67 334L99 378Q140 328 213 328Q263 328 291 349T320 413Q320 455 290 470T197 486L203 533Q262 533 292 557T323 615Q323 640 305 653T254 667Q195 667 137 619L115 665Q181 720 260 720ZM725 710H793L246 0H178ZM770 429H821L770 140H834L826 91H761L745 0H686L702 91H494L500 130ZM745 337L568 140H711Z" horiz-adv-x="900" unicode="¾"/>
			<glyph d="M284 513Q306 513 321 498T337 461Q337 439 321 424T284 409Q262 409 247 424T232 461Q232 483 247 498T284 513ZM235 282H302Q295 232 275 201T202 124Q196 119 162 89T112 28T96 -38Q96 -91 129 -121T221 -152Q337 -152 375 -41L435 -67Q412 -136 356 -176T215 -216Q126 -216 75 -171T25 -48Q25 17 56 62T148 158Q189 191 209 216T235 282Z" horiz-adv-x="505" unicode="¿"/>
			<glyph d="M364 710H442L589 0H515L469 231H171L44 0H-35ZM389 626L205 293H456ZM302 917H376L471 774H405Z" horiz-adv-x="642" unicode="À"/>
			<glyph d="M364 710H442L589 0H515L469 231H171L44 0H-35ZM389 626L205 293H456ZM482 917H564L421 774H353Z" horiz-adv-x="642" unicode="Á"/>
			<glyph d="M364 710H442L589 0H515L469 231H171L44 0H-35ZM389 626L205 293H456ZM392 903H470L572 774H503L429 863L319 774H241Z" horiz-adv-x="642" unicode="Â"/>
			<glyph d="M364 710H442L589 0H515L469 231H171L44 0H-35ZM389 626L205 293H456ZM339 872Q358 872 376 866T429 848Q438 845 452 839T476 831T494 829Q512 829 522 839T539 872H595Q581 822 557 798T494 774Q472 774 451 780T402 798Q382 806 366 811T339 817Q303 817 291 774H235Q247 823 275 847T339 872Z" horiz-adv-x="642" unicode="Ã"/>
			<glyph d="M364 710H442L589 0H515L469 231H171L44 0H-35ZM389 626L205 293H456ZM312 895Q333 895 347 880T362 846Q362 825 347 811T312 797Q292 797 277 811T263 846Q263 866 277 880T312 895ZM522 895Q543 895 557 880T572 846Q572 825 557 811T522 797Q502 797 487 811T473 846Q473 866 487 880T522 895Z" horiz-adv-x="642" unicode="Ä"/>
			<glyph d="M364 710H442L589 0H515L469 231H171L44 0H-35ZM389 626L205 293H456ZM421 942Q462 942 487 915T513 851Q513 808 483 778T410 749Q369 749 343 774T318 838Q318 881 347 911T421 942ZM418 893Q395 893 381 878T367 843Q367 824 379 810T412 797Q434 797 449 811T464 848Q464 867 451 880T418 893ZZ" horiz-adv-x="642" unicode="Å"/>
			<glyph d="M373 710H900L888 642H574L530 389H834L822 323H518L472 68H794L782 0H386L427 231H175L43 0H-35ZM410 642L210 293H438L500 642Z" horiz-adv-x="904" unicode="Æ"/>
			<glyph d="M474 720Q611 720 706 638L675 568Q634 607 582 628T470 649Q382 649 307 605T190 487T147 329Q147 251 180 190T273 95T409 61Q473 61 532 83T642 142L663 72Q548 -8 411 -10L404 -48Q460 -60 460 -116Q460 -166 419 -190T291 -214L300 -162Q355 -162 377 -151T400 -118Q400 -85 343 -85L359 -7Q275 2 210 45T108 160T72 321Q72 433 126 524T272 668T474 720Z" horiz-adv-x="728" unicode="Ç"/>
			<glyph d="M177 710H565L553 642H239L195 389H499L487 323H183L137 68H459L447 0H51ZM266 917H340L435 774H369Z" horiz-adv-x="569" unicode="È"/>
			<glyph d="M177 710H565L553 642H239L195 389H499L487 323H183L137 68H459L447 0H51ZM446 917H528L385 774H317Z" horiz-adv-x="569" unicode="É"/>
			<glyph d="M177 710H565L553 642H239L195 389H499L487 323H183L137 68H459L447 0H51ZM356 903H434L536 774H467L393 863L283 774H205Z" horiz-adv-x="569" unicode="Ê"/>
			<glyph d="M177 710H565L553 642H239L195 389H499L487 323H183L137 68H459L447 0H51ZM276 895Q297 895 311 880T326 846Q326 825 311 811T276 797Q256 797 241 811T227 846Q227 866 241 880T276 895ZM486 895Q507 895 521 880T536 846Q536 825 521 811T486 797Q466 797 451 811T437 846Q437 866 451 880T486 895Z" horiz-adv-x="569" unicode="Ë"/>
			<glyph d="M177 710H251L125 0H51ZM113 917H187L282 774H216Z" horiz-adv-x="265" unicode="Ì"/>
			<glyph d="M177 710H251L125 0H51ZM293 917H375L232 774H164Z" horiz-adv-x="265" unicode="Í"/>
			<glyph d="M177 710H251L125 0H51ZM203 903H281L383 774H314L240 863L130 774H52Z" horiz-adv-x="265" unicode="Î"/>
			<glyph d="M177 710H251L125 0H51ZM123 895Q144 895 158 880T173 846Q173 825 158 811T123 797Q103 797 88 811T74 846Q74 866 88 880T123 895ZM333 895Q354 895 368 880T383 846Q383 825 368 811T333 797Q313 797 298 811T284 846Q284 866 298 880T333 895Z" horiz-adv-x="265" unicode="Ï"/>
			<glyph d="M193 710H393Q549 710 636 630T724 407Q724 289 674 196T532 52T313 0H69L125 323H28L38 388H137ZM256 643L210 388H408L397 323H199L153 67H322Q421 67 495 111T608 231T648 400Q648 517 579 580T373 643Z" horiz-adv-x="759" unicode="Ð"/>
			<glyph d="M177 710H247L568 116L673 710H746L620 0H550L229 593L124 0H51ZM400 872Q419 872 437 866T490 848Q499 845 513 839T537 831T555 829Q573 829 583 839T600 872H656Q642 822 618 798T555 774Q533 774 512 780T463 798Q443 806 427 811T400 817Q364 817 352 774H296Q308 823 336 847T400 872Z" horiz-adv-x="760" unicode="Ñ"/>
			<glyph d="M478 720Q579 720 655 678T774 561T816 389Q816 281 766 189T624 44T412 -10Q312 -10 234 32T114 150T72 324Q72 435 123 525T267 667T478 720ZM471 649Q377 649 303 606T189 490T148 328Q148 250 182 189T278 95T420 61Q512 61 585 105T699 223T740 384Q740 462 706 522T611 615T471 649ZM379 917H453L548 774H482Z" horiz-adv-x="853" unicode="Ò"/>
			<glyph d="M478 720Q579 720 655 678T774 561T816 389Q816 281 766 189T624 44T412 -10Q312 -10 234 32T114 150T72 324Q72 435 123 525T267 667T478 720ZM471 649Q377 649 303 606T189 490T148 328Q148 250 182 189T278 95T420 61Q512 61 585 105T699 223T740 384Q740 462 706 522T611 615T471 649ZM559 917H641L498 774H430Z" horiz-adv-x="853" unicode="Ó"/>
			<glyph d="M478 720Q579 720 655 678T774 561T816 389Q816 281 766 189T624 44T412 -10Q312 -10 234 32T114 150T72 324Q72 435 123 525T267 667T478 720ZM471 649Q377 649 303 606T189 490T148 328Q148 250 182 189T278 95T420 61Q512 61 585 105T699 223T740 384Q740 462 706 522T611 615T471 649ZM469 903H547L649 774H580L506 863L396 774H318Z" horiz-adv-x="853" unicode="Ô"/>
			<glyph d="M478 720Q579 720 655 678T774 561T816 389Q816 281 766 189T624 44T412 -10Q312 -10 234 32T114 150T72 324Q72 435 123 525T267 667T478 720ZM471 649Q377 649 303 606T189 490T148 328Q148 250 182 189T278 95T420 61Q512 61 585 105T699 223T740 384Q740 462 706 522T611 615T471 649ZM416 872Q435 872 453 866T506 848Q515 845 529 839T553 831T571 829Q589 829 599 839T616 872H672Q658 822 634 798T571 774Q549 774 528 780T479 798Q459 806 443 811T416 817Q380 817 368 774H312Q324 823 352 847T416 872Z" horiz-adv-x="853" unicode="Õ"/>
			<glyph d="M478 720Q579 720 655 678T774 561T816 389Q816 281 766 189T624 44T412 -10Q312 -10 234 32T114 150T72 324Q72 435 123 525T267 667T478 720ZM471 649Q377 649 303 606T189 490T148 328Q148 250 182 189T278 95T420 61Q512 61 585 105T699 223T740 384Q740 462 706 522T611 615T471 649ZM389 895Q410 895 424 880T439 846Q439 825 424 811T389 797Q369 797 354 811T340 846Q340 866 354 880T389 895ZM599 895Q620 895 634 880T649 846Q649 825 634 811T599 797Q579 797 564 811T550 846Q550 866 564 880T599 895Z" horiz-adv-x="853" unicode="Ö"/>
			<glyph d="M449 534L490 493L349 351L491 208L450 167L308 309L166 167L125 209L266 351L125 492L167 533L308 392Z" horiz-adv-x="582" unicode="×"/>
			<glyph d="M752 760H828L719 632Q766 588 791 526T816 389Q816 281 766 189T624 44T412 -10Q300 -10 214 44L133 -50H57L169 80Q122 125 97 187T72 324Q72 435 123 525T267 667T478 720Q589 720 673 668ZM471 649Q377 649 303 606T189 490T148 328Q148 271 166 223T219 139L623 609Q558 649 471 649ZM668 573L264 103Q331 61 420 61Q512 61 585 105T699 223T740 384Q740 442 721 490T668 573Z" horiz-adv-x="853" unicode="Ø"/>
			<glyph d="M166 710H240L166 285Q161 247 161 218Q161 142 206 101T330 61Q525 61 560 270L638 710H712L633 258Q610 130 530 60T324 -10Q211 -10 148 49T86 214Q86 246 93 290ZM335 917H409L504 774H438Z" horiz-adv-x="717" unicode="Ù"/>
			<glyph d="M166 710H240L166 285Q161 247 161 218Q161 142 206 101T330 61Q525 61 560 270L638 710H712L633 258Q610 130 530 60T324 -10Q211 -10 148 49T86 214Q86 246 93 290ZM515 917H597L454 774H386Z" horiz-adv-x="717" unicode="Ú"/>
			<glyph d="M166 710H240L166 285Q161 247 161 218Q161 142 206 101T330 61Q525 61 560 270L638 710H712L633 258Q610 130 530 60T324 -10Q211 -10 148 49T86 214Q86 246 93 290ZM425 903H503L605 774H536L462 863L352 774H274Z" horiz-adv-x="717" unicode="Û"/>
			<glyph d="M166 710H240L166 285Q161 247 161 218Q161 142 206 101T330 61Q525 61 560 270L638 710H712L633 258Q610 130 530 60T324 -10Q211 -10 148 49T86 214Q86 246 93 290ZM345 895Q366 895 380 880T395 846Q395 825 380 811T345 797Q325 797 310 811T296 846Q296 866 310 880T345 895ZM555 895Q576 895 590 880T605 846Q605 825 590 811T555 797Q535 797 520 811T506 846Q506 866 520 880T555 895Z" horiz-adv-x="717" unicode="Ü"/>
			<glyph d="M105 710H183L329 355L600 710H684L357 286L306 0H231L282 284ZM470 917H552L409 774H341Z" horiz-adv-x="628" unicode="Ý"/>
			<glyph d="M177 710H251L227 575H315Q434 575 493 524T552 378Q552 306 519 249T423 161T270 130H148L125 0H51ZM216 510L160 195H277Q369 195 422 242T476 373Q476 447 430 478T298 510Z" horiz-adv-x="566" unicode="Þ"/>
			<glyph d="M377 754Q460 754 506 709T552 592Q552 525 514 480T418 415Q475 404 512 360T549 234Q549 166 522 111T439 24T300 -8Q233 -8 188 16L201 78Q245 54 302 54Q393 54 435 102T478 228Q478 310 434 343T304 377H286L296 434L319 435Q356 437 393 451T456 497T482 578Q482 629 452 659T368 689Q313 689 270 653T213 535L117 0H49L145 534Q165 645 226 699T377 754Z" horiz-adv-x="604" unicode="ß"/>
			<glyph d="M307 512Q392 512 442 469T493 344Q493 320 487 276L440 0H370L383 74Q352 37 305 13T199 -10Q129 -10 86 25T44 126Q44 222 139 260T422 301Q425 325 425 337Q425 392 394 421T302 450Q252 450 206 432T125 390L110 452Q146 477 197 494T307 512ZM415 250Q312 249 247 238T150 202T117 132Q117 89 144 68T218 48Q259 48 300 64T371 118T410 215Q411 223 412 232T415 250ZM224 725H298L385 573H320Z" horiz-adv-x="567" unicode="à"/>
			<glyph d="M307 512Q392 512 442 469T493 344Q493 320 487 276L440 0H370L383 74Q352 37 305 13T199 -10Q129 -10 86 25T44 126Q44 222 139 260T422 301Q425 325 425 337Q425 392 394 421T302 450Q252 450 206 432T125 390L110 452Q146 477 197 494T307 512ZM415 250Q312 249 247 238T150 202T117 132Q117 89 144 68T218 48Q259 48 300 64T371 118T410 215Q411 223 412 232T415 250ZM398 725H479L327 573H259Z" horiz-adv-x="567" unicode="á"/>
			<glyph d="M307 512Q392 512 442 469T493 344Q493 320 487 276L440 0H370L383 74Q352 37 305 13T199 -10Q129 -10 86 25T44 126Q44 222 139 260T422 301Q425 325 425 337Q425 392 394 421T302 450Q252 450 206 432T125 390L110 452Q146 477 197 494T307 512ZM415 250Q312 249 247 238T150 202T117 132Q117 89 144 68T218 48Q259 48 300 64T371 118T410 215Q411 223 412 232T415 250ZM313 725H385L483 573H418L344 680L237 573H167Z" horiz-adv-x="567" unicode="â"/>
			<glyph d="M307 512Q392 512 442 469T493 344Q493 320 487 276L440 0H370L383 74Q352 37 305 13T199 -10Q129 -10 86 25T44 126Q44 222 139 260T422 301Q425 325 425 337Q425 392 394 421T302 450Q252 450 206 432T125 390L110 452Q146 477 197 494T307 512ZM415 250Q312 249 247 238T150 202T117 132Q117 89 144 68T218 48Q259 48 300 64T371 118T410 215Q411 223 412 232T415 250ZM266 695Q284 695 302 689T349 671Q373 660 385 656T409 652Q426 652 434 661T450 695H501Q490 646 469 621T410 597Q390 597 370 603T324 621Q305 629 290 634T265 640Q231 640 221 597H170Q181 646 206 670T266 695Z" horiz-adv-x="567" unicode="ã"/>
			<glyph d="M307 512Q392 512 442 469T493 344Q493 320 487 276L440 0H370L383 74Q352 37 305 13T199 -10Q129 -10 86 25T44 126Q44 222 139 260T422 301Q425 325 425 337Q425 392 394 421T302 450Q252 450 206 432T125 390L110 452Q146 477 197 494T307 512ZM415 250Q312 249 247 238T150 202T117 132Q117 89 144 68T218 48Q259 48 300 64T371 118T410 215Q411 223 412 232T415 250ZM230 714Q251 714 265 699T280 665Q280 644 265 630T230 616Q210 616 195 630T181 665Q181 685 195 699T230 714ZM440 714Q461 714 475 699T490 665Q490 644 475 630T440 616Q420 616 405 630T391 665Q391 685 405 699T440 714Z" horiz-adv-x="567" unicode="ä"/>
			<glyph d="M307 512Q392 512 442 469T493 344Q493 320 487 276L440 0H370L383 74Q352 37 305 13T199 -10Q129 -10 86 25T44 126Q44 222 139 260T422 301Q425 325 425 337Q425 392 394 421T302 450Q252 450 206 432T125 390L110 452Q146 477 197 494T307 512ZM415 250Q312 249 247 238T150 202T117 132Q117 89 144 68T218 48Q259 48 300 64T371 118T410 215Q411 223 412 232T415 250ZM349 754Q390 754 414 730T438 665Q438 617 406 588T328 560Q286 560 261 583T237 646Q237 692 269 723T349 754ZM343 707Q319 707 303 691T287 651Q287 631 299 618T333 606Q356 606 372 621T388 661Q388 681 376 694T343 707Z" horiz-adv-x="567" unicode="å"/>
			<glyph d="M307 512Q371 512 415 488T479 417Q516 463 570 487T691 512Q756 512 804 484T878 406T904 291L902 247H487Q486 241 486 229Q486 146 534 99T663 53Q766 53 854 124L866 62Q827 29 773 9T655 -10Q575 -10 519 24T437 118Q410 67 352 28T211 -10Q135 -10 89 24T44 126Q44 222 140 260T422 301Q425 328 425 337Q425 392 394 421T301 450Q251 450 205 432T125 390L110 452Q145 476 197 494T307 512ZM686 450Q616 450 565 410T495 302H833Q831 366 792 408T686 450ZM415 250Q262 249 189 223T117 132Q117 89 147 68T224 47Q291 47 344 88T410 215Z" horiz-adv-x="948" unicode="æ"/>
			<glyph d="M329 512Q419 512 493 460L465 396Q403 446 325 446Q267 446 220 418T146 339T119 224Q119 147 163 101T288 55Q373 55 448 109L460 44Q430 22 386 6T291 -10L284 -48Q340 -60 340 -116Q340 -166 299 -190T171 -214L180 -162Q235 -162 257 -151T280 -118Q280 -85 223 -85L239 -7Q149 5 97 66T46 219Q46 303 82 370T183 474T329 512Z" horiz-adv-x="517" unicode="ç"/>
			<glyph d="M322 512Q387 512 435 484T509 406T535 291L533 247H118Q117 241 117 229Q117 146 165 99T294 53Q397 53 485 124L497 62Q458 29 404 9T286 -10Q212 -10 158 19T76 101T48 222Q48 309 83 374T180 476T322 512ZM317 450Q247 450 196 410T126 302H464Q462 366 423 408T317 450ZM230 725H304L391 573H326Z" horiz-adv-x="580" unicode="è"/>
			<glyph d="M322 512Q387 512 435 484T509 406T535 291L533 247H118Q117 241 117 229Q117 146 165 99T294 53Q397 53 485 124L497 62Q458 29 404 9T286 -10Q212 -10 158 19T76 101T48 222Q48 309 83 374T180 476T322 512ZM317 450Q247 450 196 410T126 302H464Q462 366 423 408T317 450ZM404 725H485L333 573H265Z" horiz-adv-x="580" unicode="é"/>
			<glyph d="M322 512Q387 512 435 484T509 406T535 291L533 247H118Q117 241 117 229Q117 146 165 99T294 53Q397 53 485 124L497 62Q458 29 404 9T286 -10Q212 -10 158 19T76 101T48 222Q48 309 83 374T180 476T322 512ZM317 450Q247 450 196 410T126 302H464Q462 366 423 408T317 450ZM319 725H391L489 573H424L350 680L243 573H173Z" horiz-adv-x="580" unicode="ê"/>
			<glyph d="M322 512Q387 512 435 484T509 406T535 291L533 247H118Q117 241 117 229Q117 146 165 99T294 53Q397 53 485 124L497 62Q458 29 404 9T286 -10Q212 -10 158 19T76 101T48 222Q48 309 83 374T180 476T322 512ZM317 450Q247 450 196 410T126 302H464Q462 366 423 408T317 450ZM236 714Q257 714 271 699T286 665Q286 644 271 630T236 616Q216 616 201 630T187 665Q187 685 201 699T236 714ZM446 714Q467 714 481 699T496 665Q496 644 481 630T446 616Q426 616 411 630T397 665Q397 685 411 699T446 714Z" horiz-adv-x="580" unicode="ë"/>
			<glyph d="M137 502H206L118 0H49ZM84 725H158L245 573H180Z" horiz-adv-x="255" unicode="ì"/>
			<glyph d="M137 502H206L118 0H49ZM258 725H339L187 573H119Z" horiz-adv-x="255" unicode="í"/>
			<glyph d="M137 502H206L118 0H49ZM175 735H248L328 573H262L207 690L114 573H44Z" horiz-adv-x="255" unicode="î"/>
			<glyph d="M137 502H206L118 0H49ZM112 715Q133 715 147 700T162 665Q162 644 147 629T112 614Q90 614 75 629T61 665Q61 686 75 700T112 715ZM280 715Q301 715 315 700T330 665Q330 644 315 629T280 614Q258 614 243 629T229 665Q229 686 243 700T280 715Z" horiz-adv-x="255" unicode="ï"/>
			<glyph d="M260 756Q319 715 373 665L504 711L522 662L414 623Q491 540 534 450T577 280Q577 198 540 131T439 27T293 -10Q223 -10 167 18T80 101T48 229Q48 308 84 372T185 472T330 509Q412 509 469 452Q422 534 354 602L198 546L180 596L312 643Q270 679 222 715ZM329 445Q267 445 219 417T146 342T120 236Q120 181 144 140T209 77T301 56Q360 56 406 84T479 161T505 272Q505 352 457 398T329 445Z" unicode="ð"/>
			<glyph d="M378 512Q454 512 497 470T540 349Q540 320 534 288L484 0H414L465 283Q470 313 470 337Q470 448 358 448Q289 448 235 402T169 286L118 0H49L137 502H206L190 411Q222 459 270 485T378 512ZM308 695Q326 695 344 689T391 671Q415 660 427 656T451 652Q468 652 476 661T492 695H543Q532 646 511 621T452 597Q432 597 412 603T366 621Q347 629 332 634T307 640Q273 640 263 597H212Q223 646 248 670T308 695Z" horiz-adv-x="611" unicode="ñ"/>
			<glyph d="M336 512Q407 512 462 482T547 399T577 277Q577 203 544 137T446 30T290 -10Q220 -10 165 19T79 104T48 231Q48 303 80 367T178 471T336 512ZM328 446Q260 446 213 415T143 336T120 236Q120 153 168 104T298 56Q362 56 409 85T480 163T505 272Q505 352 456 399T328 446ZM257 725H331L418 573H353Z" unicode="ò"/>
			<glyph d="M336 512Q407 512 462 482T547 399T577 277Q577 203 544 137T446 30T290 -10Q220 -10 165 19T79 104T48 231Q48 303 80 367T178 471T336 512ZM328 446Q260 446 213 415T143 336T120 236Q120 153 168 104T298 56Q362 56 409 85T480 163T505 272Q505 352 456 399T328 446ZM431 725H512L360 573H292Z" unicode="ó"/>
			<glyph d="M336 512Q407 512 462 482T547 399T577 277Q577 203 544 137T446 30T290 -10Q220 -10 165 19T79 104T48 231Q48 303 80 367T178 471T336 512ZM328 446Q260 446 213 415T143 336T120 236Q120 153 168 104T298 56Q362 56 409 85T480 163T505 272Q505 352 456 399T328 446ZM346 725H418L516 573H451L377 680L270 573H200Z" unicode="ô"/>
			<glyph d="M336 512Q407 512 462 482T547 399T577 277Q577 203 544 137T446 30T290 -10Q220 -10 165 19T79 104T48 231Q48 303 80 367T178 471T336 512ZM328 446Q260 446 213 415T143 336T120 236Q120 153 168 104T298 56Q362 56 409 85T480 163T505 272Q505 352 456 399T328 446ZM299 695Q317 695 335 689T382 671Q406 660 418 656T442 652Q459 652 467 661T483 695H534Q523 646 502 621T443 597Q423 597 403 603T357 621Q338 629 323 634T298 640Q264 640 254 597H203Q214 646 239 670T299 695Z" unicode="õ"/>
			<glyph d="M336 512Q407 512 462 482T547 399T577 277Q577 203 544 137T446 30T290 -10Q220 -10 165 19T79 104T48 231Q48 303 80 367T178 471T336 512ZM328 446Q260 446 213 415T143 336T120 236Q120 153 168 104T298 56Q362 56 409 85T480 163T505 272Q505 352 456 399T328 446ZM263 714Q284 714 298 699T313 665Q313 644 298 630T263 616Q243 616 228 630T214 665Q214 685 228 699T263 714ZM473 714Q494 714 508 699T523 665Q523 644 508 630T473 616Q453 616 438 630T424 665Q424 685 438 699T473 714Z" unicode="ö"/>
			<glyph d="M309 552Q329 552 343 537T358 502Q358 482 343 467T309 453Q288 453 273 467T259 502Q259 523 273 537T309 552ZM84 380H534V321H84ZM309 248Q329 248 343 233T358 198Q358 178 343 163T309 149Q288 149 273 163T259 198Q259 219 273 233T309 248Z" horiz-adv-x="582" unicode="÷"/>
			<glyph d="M516 554H582L503 454Q539 422 558 377T577 277Q577 203 544 137T446 30T290 -10Q217 -10 161 22L101 -54H35L119 52Q85 84 66 129T48 231Q48 302 80 366T178 471T335 512Q407 512 460 483ZM328 447Q260 447 212 416T142 336T119 236Q119 157 164 109L416 428Q376 447 328 447ZM459 398L204 77Q246 55 298 55Q362 55 409 84T481 163T506 272Q506 311 494 343T459 398Z" unicode="ø"/>
			<glyph d="M128 502H197L147 217Q142 187 142 160Q142 107 171 79T258 52Q326 52 378 98T443 216L494 502H563L475 0H405L420 85Q388 40 341 15T238 -10Q161 -10 116 31T72 150Q72 185 78 218ZM250 725H324L411 573H346Z" horiz-adv-x="612" unicode="ù"/>
			<glyph d="M128 502H197L147 217Q142 187 142 160Q142 107 171 79T258 52Q326 52 378 98T443 216L494 502H563L475 0H405L420 85Q388 40 341 15T238 -10Q161 -10 116 31T72 150Q72 185 78 218ZM424 725H505L353 573H285Z" horiz-adv-x="612" unicode="ú"/>
			<glyph d="M128 502H197L147 217Q142 187 142 160Q142 107 171 79T258 52Q326 52 378 98T443 216L494 502H563L475 0H405L420 85Q388 40 341 15T238 -10Q161 -10 116 31T72 150Q72 185 78 218ZM339 725H411L509 573H444L370 680L263 573H193Z" horiz-adv-x="612" unicode="û"/>
			<glyph d="M128 502H197L147 217Q142 187 142 160Q142 107 171 79T258 52Q326 52 378 98T443 216L494 502H563L475 0H405L420 85Q388 40 341 15T238 -10Q161 -10 116 31T72 150Q72 185 78 218ZM256 714Q277 714 291 699T306 665Q306 644 291 630T256 616Q236 616 221 630T207 665Q207 685 221 699T256 714ZM466 714Q487 714 501 699T516 665Q516 644 501 630T466 616Q446 616 431 630T417 665Q417 685 431 699T466 714Z" horiz-adv-x="612" unicode="ü"/>
			<glyph d="M43 502H115L224 103L450 502H526L197 -69Q151 -149 106 -182T-5 -215Q-46 -215 -68 -206L-47 -143Q-32 -149 -3 -149Q37 -149 67 -128T132 -50L177 23ZM369 725H450L298 573H230Z" horiz-adv-x="487" unicode="ý"/>
			<glyph d="M182 752H251L193 429Q228 470 275 491T379 512Q442 512 491 482T567 398T595 278Q595 196 559 130T461 27T324 -10Q263 -10 211 20T135 108L82 -210H12ZM362 446Q303 446 256 417T184 338T159 229Q159 180 179 140T236 78T320 55Q376 55 422 83T496 161T523 275Q523 323 502 362T445 423T362 446Z" horiz-adv-x="643" unicode="þ"/>
			<glyph d="M43 502H115L224 103L450 502H526L197 -69Q151 -149 106 -182T-5 -215Q-46 -215 -68 -206L-47 -143Q-32 -149 -3 -149Q37 -149 67 -128T132 -50L177 23ZM201 714Q222 714 236 699T251 665Q251 644 236 630T201 616Q181 616 166 630T152 665Q152 685 166 699T201 714ZM411 714Q432 714 446 699T461 665Q461 644 446 630T411 616Q391 616 376 630T362 665Q362 685 376 699T411 714Z" horiz-adv-x="487" unicode="ÿ"/>
			<glyph d="M364 710H442L589 0H515L469 231H171L44 0H-35ZM389 626L205 293H456ZM274 871H571L561 818H264ZZ" horiz-adv-x="642" unicode="Ā"/>
			<glyph d="M307 512Q392 512 442 469T493 344Q493 320 487 276L440 0H370L383 74Q352 37 305 13T199 -10Q129 -10 86 25T44 126Q44 222 139 260T422 301Q425 325 425 337Q425 392 394 421T302 450Q252 450 206 432T125 390L110 452Q146 477 197 494T307 512ZM415 250Q312 249 247 238T150 202T117 132Q117 89 144 68T218 48Q259 48 300 64T371 118T410 215Q411 223 412 232T415 250ZM197 678H494L484 625H187Z" horiz-adv-x="567" unicode="ā"/>
			<glyph d="M364 710H442L589 0H515L469 231H171L44 0H-35ZM389 626L205 293H456ZM291 890H347Q345 882 345 876Q345 850 365 839T424 828Q465 828 490 843T522 890H579Q568 838 526 808T419 778Q356 778 322 801T288 868Q288 880 291 890Z" horiz-adv-x="642" unicode="Ă"/>
			<glyph d="M307 512Q392 512 442 469T493 344Q493 320 487 276L440 0H370L383 74Q352 37 305 13T199 -10Q129 -10 86 25T44 126Q44 222 139 260T422 301Q425 325 425 337Q425 392 394 421T302 450Q252 450 206 432T125 390L110 452Q146 477 197 494T307 512ZM415 250Q312 249 247 238T150 202T117 132Q117 89 144 68T218 48Q259 48 300 64T371 118T410 215Q411 223 412 232T415 250ZM207 725H263Q261 715 261 706Q261 668 283 651T340 635Q381 635 406 657T438 725H494Q484 659 442 621T335 584Q277 584 240 614T204 699Q204 713 207 725Z" horiz-adv-x="567" unicode="ă"/>
			<glyph d="M364 710H442L589 0H515L469 231H171L44 0H-35ZM389 626L205 293H456ZM533 0H589Q507 -49 507 -102Q507 -123 519 -133T554 -144Q572 -144 598 -134L602 -181Q572 -195 535 -195Q493 -195 469 -173T445 -114Q445 -80 466 -52T533 0Z" horiz-adv-x="642" unicode="Ą"/>
			<glyph d="M307 512Q392 512 442 469T493 344Q493 320 487 276L440 0Q358 -49 358 -102Q358 -123 370 -133T405 -144Q423 -144 449 -134L453 -181Q423 -195 386 -195Q344 -195 320 -173T296 -114Q296 -80 317 -52T384 0H370L383 74Q352 37 305 13T199 -10Q129 -10 86 25T44 126Q44 222 139 260T422 301Q425 325 425 337Q425 392 394 421T302 450Q252 450 206 432T125 390L110 452Q146 477 197 494T307 512ZM415 250Q312 249 247 238T150 202T117 132Q117 89 144 68T218 48Q259 48 300 64T371 118T410 215Q411 223 412 232T415 250Z" horiz-adv-x="567" unicode="ą"/>
			<glyph d="M474 720Q611 720 706 638L675 568Q634 607 582 628T470 649Q382 649 307 605T190 487T147 329Q147 251 180 190T273 95T409 61Q473 61 532 83T642 142L663 72Q545 -10 405 -10Q309 -10 233 31T115 148T72 321Q72 433 126 524T272 668T474 720ZM543 917H625L482 774H414Z" horiz-adv-x="728" unicode="Ć"/>
			<glyph d="M329 512Q419 512 493 460L465 396Q403 446 325 446Q267 446 220 418T146 339T119 224Q119 147 163 101T288 55Q373 55 448 109L460 44Q428 21 381 5T281 -10Q209 -10 156 19T74 100T46 219Q46 303 82 370T183 474T329 512ZM397 725H478L326 573H258Z" horiz-adv-x="517" unicode="ć"/>
			<glyph d="M474 720Q611 720 706 638L675 568Q634 607 582 628T470 649Q382 649 307 605T190 487T147 329Q147 251 180 190T273 95T409 61Q473 61 532 83T642 142L663 72Q545 -10 405 -10Q309 -10 233 31T115 148T72 321Q72 433 126 524T272 668T474 720ZM453 903H531L633 774H564L490 863L380 774H302Z" horiz-adv-x="728" unicode="Ĉ"/>
			<glyph d="M329 512Q419 512 493 460L465 396Q403 446 325 446Q267 446 220 418T146 339T119 224Q119 147 163 101T288 55Q373 55 448 109L460 44Q428 21 381 5T281 -10Q209 -10 156 19T74 100T46 219Q46 303 82 370T183 474T329 512ZM312 725H384L482 573H417L343 680L236 573H166Z" horiz-adv-x="517" unicode="ĉ"/>
			<glyph d="M474 720Q611 720 706 638L675 568Q634 607 582 628T470 649Q382 649 307 605T190 487T147 329Q147 251 180 190T273 95T409 61Q473 61 532 83T642 142L663 72Q545 -10 405 -10Q309 -10 233 31T115 148T72 321Q72 433 126 524T272 668T474 720ZM488 900Q510 900 525 885T540 847Q540 824 525 809T488 794Q465 794 450 809T435 847Q435 870 450 885T488 900Z" horiz-adv-x="728" unicode="Ċ"/>
			<glyph d="M329 512Q419 512 493 460L465 396Q403 446 325 446Q267 446 220 418T146 339T119 224Q119 147 163 101T288 55Q373 55 448 109L460 44Q428 21 381 5T281 -10Q209 -10 156 19T74 100T46 219Q46 303 82 370T183 474T329 512ZM336 718Q358 718 373 703T388 665Q388 642 373 627T336 612Q313 612 298 627T283 665Q283 688 298 703T336 718Z" horiz-adv-x="517" unicode="ċ"/>
			<glyph d="M474 720Q611 720 706 638L675 568Q634 607 582 628T470 649Q382 649 307 605T190 487T147 329Q147 251 180 190T273 95T409 61Q473 61 532 83T642 142L663 72Q545 -10 405 -10Q309 -10 233 31T115 148T72 321Q72 433 126 524T272 668T474 720ZM336 905H405L479 816L589 905H667L516 776H438Z" horiz-adv-x="728" unicode="Č"/>
			<glyph d="M329 512Q419 512 493 460L465 396Q403 446 325 446Q267 446 220 418T146 339T119 224Q119 147 163 101T288 55Q373 55 448 109L460 44Q428 21 381 5T281 -10Q209 -10 156 19T74 100T46 219Q46 303 82 370T183 474T329 512ZM193 725H258L332 618L439 725H509L363 573H291Z" horiz-adv-x="517" unicode="č"/>
			<glyph d="M176 710H376Q532 710 619 630T707 407Q707 289 657 196T515 52T296 0H52ZM239 643L136 67H305Q404 67 478 111T591 231T631 400Q631 517 562 580T356 643ZM328 905H397L471 816L581 905H659L508 776H430Z" horiz-adv-x="742" unicode="Ď"/>
			<glyph d="M568 752H637L506 -2H436L450 77Q417 32 369 11T270 -10Q205 -10 154 20T76 105T48 227Q48 306 83 371T180 474T316 512Q381 512 431 482T506 398ZM318 446Q261 446 215 417T144 340T118 233Q118 154 163 104T282 55Q338 55 384 83T458 160T485 266Q485 314 466 355T409 421T318 446ZM753 752H828L715 540H652Z" horiz-adv-x="705" unicode="ď"/>
			<glyph d="M193 710H393Q549 710 636 630T724 407Q724 289 674 196T532 52T313 0H69L125 323H28L38 388H137ZM256 643L210 388H408L397 323H199L153 67H322Q421 67 495 111T608 231T648 400Q648 517 579 580T373 643Z" horiz-adv-x="759" unicode="Đ"/>
			<glyph d="M568 752H637L620 653H698L688 596H610L506 -2H436L449 76Q416 32 369 11T270 -10Q205 -10 154 20T75 104T47 226Q47 303 82 368T179 471T315 509Q381 509 430 478T505 391L541 596H375L385 653H551ZM317 443Q261 443 216 415T145 339T119 233Q119 154 164 105T283 56Q338 56 384 84T457 160T484 264Q484 311 465 352T408 418T317 443Z" horiz-adv-x="635" unicode="đ"/>
			<glyph d="M177 710H565L553 642H239L195 389H499L487 323H183L137 68H459L447 0H51ZM238 871H535L525 818H228ZZ" horiz-adv-x="569" unicode="Ē"/>
			<glyph d="M322 512Q387 512 435 484T509 406T535 291L533 247H118Q117 241 117 229Q117 146 165 99T294 53Q397 53 485 124L497 62Q458 29 404 9T286 -10Q212 -10 158 19T76 101T48 222Q48 309 83 374T180 476T322 512ZM317 450Q247 450 196 410T126 302H464Q462 366 423 408T317 450ZM203 678H500L490 625H193Z" horiz-adv-x="580" unicode="ē"/>
			<glyph d="M177 710H565L553 642H239L195 389H499L487 323H183L137 68H459L447 0H51ZM255 890H311Q309 882 309 876Q309 850 329 839T388 828Q429 828 454 843T486 890H543Q532 838 490 808T383 778Q320 778 286 801T252 868Q252 880 255 890Z" horiz-adv-x="569" unicode="Ĕ"/>
			<glyph d="M322 512Q387 512 435 484T509 406T535 291L533 247H118Q117 241 117 229Q117 146 165 99T294 53Q397 53 485 124L497 62Q458 29 404 9T286 -10Q212 -10 158 19T76 101T48 222Q48 309 83 374T180 476T322 512ZM317 450Q247 450 196 410T126 302H464Q462 366 423 408T317 450ZM213 725H269Q267 715 267 706Q267 668 289 651T346 635Q387 635 412 657T444 725H500Q490 659 448 621T341 584Q283 584 246 614T210 699Q210 713 213 725Z" horiz-adv-x="580" unicode="ĕ"/>
			<glyph d="M177 710H565L553 642H239L195 389H499L487 323H183L137 68H459L447 0H51ZM391 900Q413 900 428 885T443 847Q443 824 428 809T391 794Q368 794 353 809T338 847Q338 870 353 885T391 900Z" horiz-adv-x="569" unicode="Ė"/>
			<glyph d="M322 512Q387 512 435 484T509 406T535 291L533 247H118Q117 241 117 229Q117 146 165 99T294 53Q397 53 485 124L497 62Q458 29 404 9T286 -10Q212 -10 158 19T76 101T48 222Q48 309 83 374T180 476T322 512ZM317 450Q247 450 196 410T126 302H464Q462 366 423 408T317 450ZM343 718Q365 718 380 703T395 665Q395 642 380 627T343 612Q320 612 305 627T290 665Q290 688 305 703T343 718Z" horiz-adv-x="580" unicode="ė"/>
			<glyph d="M177 710H565L553 642H239L195 389H499L487 323H183L137 68H459L447 0H51ZM391 0H447Q365 -49 365 -102Q365 -123 377 -133T412 -144Q430 -144 456 -134L460 -181Q430 -195 393 -195Q351 -195 327 -173T303 -114Q303 -80 324 -52T391 0Z" horiz-adv-x="569" unicode="Ę"/>
			<glyph d="M320 512Q385 512 433 484T508 407T534 295Q534 283 532 247H118Q117 240 117 227Q117 145 164 99T295 53Q396 53 484 124L496 62Q486 54 451 31Q393 -8 362 -37T331 -102Q331 -123 343 -133T377 -144Q395 -144 421 -134L425 -181Q395 -195 358 -195Q317 -195 292 -174T268 -116Q268 -54 347 -4Q319 -10 287 -10Q214 -10 159 19T76 102T47 223Q47 301 82 367T180 473T320 512ZM317 450Q249 450 198 409T128 302H463Q461 366 423 408T317 450Z" horiz-adv-x="579" unicode="ę"/>
			<glyph d="M177 710H565L553 642H239L195 389H499L487 323H183L137 68H459L447 0H51ZM239 905H308L382 816L492 905H570L419 776H341Z" horiz-adv-x="569" unicode="Ě"/>
			<glyph d="M322 512Q387 512 435 484T509 406T535 291L533 247H118Q117 241 117 229Q117 146 165 99T294 53Q397 53 485 124L497 62Q458 29 404 9T286 -10Q212 -10 158 19T76 101T48 222Q48 309 83 374T180 476T322 512ZM317 450Q247 450 196 410T126 302H464Q462 366 423 408T317 450ZM200 725H265L339 618L446 725H516L370 573H298Z" horiz-adv-x="580" unicode="ě"/>
			<glyph d="M475 720Q550 720 609 698T726 640L694 572Q642 610 590 629T472 649Q378 649 303 604T187 484T146 319Q146 241 177 182T264 92T394 60Q469 60 528 90T623 169T672 272H425L436 336H750L691 0H623L645 115Q545 -10 379 -10Q290 -10 220 30T110 143T70 311Q70 425 122 518T266 666T475 720ZM474 903H552L654 774H585L511 863L401 774H323Z" horiz-adv-x="801" unicode="Ĝ"/>
			<glyph d="M324 512Q458 512 515 388L536 502H605L518 13Q497 -107 430 -163T245 -219Q117 -219 28 -153L58 -89Q98 -121 144 -137T247 -154Q334 -154 384 -113T449 14L464 94Q426 43 375 20T269 -3Q204 -3 153 25T75 105T47 227Q47 306 83 371T182 474T324 512ZM325 448Q267 448 220 420T145 343T118 235Q118 153 164 107T286 61Q343 61 390 90T465 168T493 276Q493 353 447 400T325 448ZM354 725H426L524 573H459L385 680L278 573H208Z" horiz-adv-x="654" unicode="ĝ"/>
			<glyph d="M475 720Q550 720 609 698T726 640L694 572Q642 610 590 629T472 649Q378 649 303 604T187 484T146 319Q146 241 177 182T264 92T394 60Q469 60 528 90T623 169T672 272H425L436 336H750L691 0H623L645 115Q545 -10 379 -10Q290 -10 220 30T110 143T70 311Q70 425 122 518T266 666T475 720ZM373 890H429Q427 882 427 876Q427 850 447 839T506 828Q547 828 572 843T604 890H661Q650 838 608 808T501 778Q438 778 404 801T370 868Q370 880 373 890Z" horiz-adv-x="801" unicode="Ğ"/>
			<glyph d="M324 512Q458 512 515 388L536 502H605L518 13Q497 -107 430 -163T245 -219Q117 -219 28 -153L58 -89Q98 -121 144 -137T247 -154Q334 -154 384 -113T449 14L464 94Q426 43 375 20T269 -3Q204 -3 153 25T75 105T47 227Q47 306 83 371T182 474T324 512ZM325 448Q267 448 220 420T145 343T118 235Q118 153 164 107T286 61Q343 61 390 90T465 168T493 276Q493 353 447 400T325 448ZM248 725H304Q302 715 302 706Q302 668 324 651T381 635Q422 635 447 657T479 725H535Q525 659 483 621T376 584Q318 584 281 614T245 699Q245 713 248 725Z" horiz-adv-x="654" unicode="ğ"/>
			<glyph d="M475 720Q550 720 609 698T726 640L694 572Q642 610 590 629T472 649Q378 649 303 604T187 484T146 319Q146 241 177 182T264 92T394 60Q469 60 528 90T623 169T672 272H425L436 336H750L691 0H623L645 115Q545 -10 379 -10Q290 -10 220 30T110 143T70 311Q70 425 122 518T266 666T475 720ZM509 900Q531 900 546 885T561 847Q561 824 546 809T509 794Q486 794 471 809T456 847Q456 870 471 885T509 900Z" horiz-adv-x="801" unicode="Ġ"/>
			<glyph d="M324 512Q458 512 515 388L536 502H605L518 13Q497 -107 430 -163T245 -219Q117 -219 28 -153L58 -89Q98 -121 144 -137T247 -154Q334 -154 384 -113T449 14L464 94Q426 43 375 20T269 -3Q204 -3 153 25T75 105T47 227Q47 306 83 371T182 474T324 512ZM325 448Q267 448 220 420T145 343T118 235Q118 153 164 107T286 61Q343 61 390 90T465 168T493 276Q493 353 447 400T325 448ZM378 718Q400 718 415 703T430 665Q430 642 415 627T378 612Q355 612 340 627T325 665Q325 688 340 703T378 718Z" horiz-adv-x="654" unicode="ġ"/>
			<glyph d="M475 720Q550 720 609 698T726 640L694 572Q642 610 590 629T472 649Q378 649 303 604T187 484T146 319Q146 241 177 182T264 92T394 60Q469 60 528 90T623 169T672 272H425L436 336H750L691 0H623L645 115Q545 -10 379 -10Q290 -10 220 30T110 143T70 311Q70 425 122 518T266 666T475 720ZM342 -56H420L350 -219H285Z" horiz-adv-x="801" unicode="Ģ"/>
			<glyph d="M324 512Q458 512 515 388L536 502H605L518 13Q497 -107 430 -163T245 -219Q117 -219 28 -153L58 -89Q98 -121 144 -137T247 -154Q334 -154 384 -113T449 14L464 94Q426 43 375 20T269 -3Q204 -3 153 25T75 105T47 227Q47 306 83 371T182 474T324 512ZM325 448Q267 448 220 420T145 343T118 235Q118 153 164 107T286 61Q343 61 390 90T465 168T493 276Q493 353 447 400T325 448ZM403 738H465L381 573H307Z" horiz-adv-x="654" unicode="ģ"/>
			<glyph d="M177 710H251L194 389H597L654 710H728L602 0H528L585 322H182L125 0H51ZM439 903H517L619 774H550L476 863L366 774H288Z" horiz-adv-x="743" unicode="Ĥ"/>
			<glyph d="M182 752H251L191 410Q224 459 275 486T390 513Q461 513 501 472T542 355Q542 322 535 287L485 0H416L467 290Q471 314 471 339Q471 393 443 421T361 450Q315 450 274 429T206 371T170 288L119 0H50ZM204 927H282L384 798H315L241 887L131 798H53Z" horiz-adv-x="613" unicode="ĥ"/>
			<glyph d="M177 710H251L229 586H632L654 710H728L602 0H528L585 322H182L125 0H51ZM218 522L194 389H597L621 522Z" horiz-adv-x="743" unicode="Ħ"/>
			<glyph d="M182 752H251L234 653H391L380 596H224L190 405Q223 453 274 480T389 508Q460 508 500 467T541 351Q541 321 535 283L485 0H416L466 286Q471 316 471 335Q471 389 442 417T360 446Q314 446 273 425T205 367T169 283L119 0H50L155 596H70L79 653H165Z" horiz-adv-x="613" unicode="ħ"/>
			<glyph d="M177 710H251L125 0H51ZM150 872Q169 872 187 866T240 848Q249 845 263 839T287 831T305 829Q323 829 333 839T350 872H406Q392 822 368 798T305 774Q283 774 262 780T213 798Q193 806 177 811T150 817Q114 817 102 774H46Q58 823 86 847T150 872Z" horiz-adv-x="265" unicode="Ĩ"/>
			<glyph d="M137 502H206L118 0H49ZM134 695Q150 695 166 689T207 671Q222 663 236 657T260 652Q274 652 281 662T295 695H344Q332 646 311 621T259 597Q242 597 226 603T186 621Q166 631 154 635T134 640Q120 640 112 630T97 597H48Q59 646 82 670T134 695Z" horiz-adv-x="255" unicode="ĩ"/>
			<glyph d="M177 710H251L125 0H51ZM85 871H382L372 818H75ZZ" horiz-adv-x="265" unicode="Ī"/>
			<glyph d="M137 502H206L118 0H49ZM75 678H333L324 625H65Z" horiz-adv-x="255" unicode="ī"/>
			<glyph d="M177 710H251L125 0H51ZM102 890H158Q156 882 156 876Q156 850 176 839T235 828Q276 828 301 843T333 890H390Q379 838 337 808T230 778Q167 778 133 801T99 868Q99 880 102 890Z" horiz-adv-x="265" unicode="Ĭ"/>
			<glyph d="M137 502H206L118 0H49ZM78 718H134Q132 708 132 700Q132 665 151 649T200 634Q237 634 260 656T287 718H344Q335 657 296 620T196 584Q142 584 108 612T75 693Q75 708 78 718Z" horiz-adv-x="255" unicode="ĭ"/>
			<glyph d="M177 710H251L125 0H51ZM69 0H125Q43 -49 43 -102Q43 -123 55 -133T90 -144Q108 -144 134 -134L138 -181Q108 -195 71 -195Q29 -195 5 -173T-19 -114Q-19 -80 2 -52T69 0Z" horiz-adv-x="265" unicode="Į"/>
			<glyph d="M137 502H206L118 0H49ZM198 718Q220 718 235 703T250 665Q250 642 235 627T198 612Q175 612 160 627T145 665Q145 688 160 703T198 718ZM62 0H118Q36 -49 36 -102Q36 -123 48 -133T83 -144Q101 -144 127 -134L131 -181Q101 -195 64 -195Q22 -195 -2 -173T-26 -114Q-26 -80 -4 -52T62 0Z" horiz-adv-x="255" unicode="į"/>
			<glyph d="M177 710H251L125 0H51ZM238 900Q260 900 275 885T290 847Q290 824 275 809T238 794Q215 794 200 809T185 847Q185 870 200 885T238 900Z" horiz-adv-x="265" unicode="İ"/>
			<glyph d="M137 502H206L118 0H49Z" horiz-adv-x="255" unicode="ı"/>
			<glyph d="M177 710H251L125 0H51ZM570 710H644L559 226Q537 103 484 46T338 -10Q273 -10 229 13L252 79Q294 57 336 57Q399 57 434 97T486 229Z" horiz-adv-x="649" unicode="Ĳ"/>
			<glyph d="M137 502H206L118 0H49ZM198 718Q220 718 235 703T250 665Q250 642 235 627T198 612Q175 612 160 627T145 665Q145 688 160 703T198 718ZM394 502H463L365 -61Q350 -144 315 -181T223 -219Q181 -219 158 -209L171 -146Q191 -154 222 -154Q252 -154 269 -131T297 -49ZM452 718Q474 718 489 703T504 665Q504 642 489 627T452 612Q429 612 414 627T399 665Q399 688 414 703T452 718Z" horiz-adv-x="513" unicode="ĳ"/>
			<glyph d="M305 710H379L294 226Q272 103 219 46T73 -10Q8 -10 -36 13L-13 79Q29 57 71 57Q134 57 169 97T221 229ZM330 903H408L510 774H441L367 863L257 774H179Z" horiz-adv-x="384" unicode="Ĵ"/>
			<glyph d="M139 502H208L110 -61Q95 -144 60 -181T-32 -219Q-74 -219 -97 -209L-84 -146Q-64 -154 -33 -154Q-3 -154 14 -131T42 -49ZM175 735H248L328 573H262L207 690L114 573H44Z" horiz-adv-x="258" unicode="ĵ"/>
			<glyph d="M177 710H251L189 360L564 710H656L277 357L557 0H467L189 359L125 0H51ZM251 -56H329L259 -219H194Z" horiz-adv-x="622" unicode="Ķ"/>
			<glyph d="M182 752H251L165 264L440 502H536L248 259L457 0H370L164 257L119 0H50ZM198 -56H276L206 -219H141Z" horiz-adv-x="510" unicode="ķ"/>
			<glyph d="M137 502H206L164 263L443 502H535L245 258L457 0H373L163 257L118 0H49Z" horiz-adv-x="510" unicode="ĸ"/>
			<glyph d="M177 710H251L137 68H454L442 0H51ZM303 917H385L242 774H174Z" horiz-adv-x="515" unicode="Ĺ"/>
			<glyph d="M180 752H248L138 124Q135 103 135 96Q135 54 174 54Q194 54 227 65L236 7Q198 -10 158 -10Q114 -10 88 13T63 81Q63 98 68 118ZM324 941H406L263 798H195Z" horiz-adv-x="283" unicode="ĺ"/>
			<glyph d="M177 710H251L137 68H454L442 0H51ZM208 -56H286L216 -219H151Z" horiz-adv-x="515" unicode="Ļ"/>
			<glyph d="M180 752H248L138 124Q135 103 135 96Q135 54 174 54Q194 54 227 65L236 7Q198 -10 158 -10Q114 -10 88 13T63 81Q63 98 68 118ZM91 -56H169L99 -219H34Z" horiz-adv-x="283" unicode="ļ"/>
			<glyph d="M177 710H251L137 68H454L442 0H51ZM468 710H543L430 498H367Z" horiz-adv-x="515" unicode="Ľ"/>
			<glyph d="M180 752H248L138 124Q135 103 135 96Q135 54 174 54Q194 54 227 65L236 7Q198 -10 158 -10Q114 -10 88 13T63 81Q63 98 68 118ZM368 752H443L330 540H267Z" horiz-adv-x="319" unicode="ľ"/>
			<glyph d="M177 710H251L137 68H454L442 0H51ZM410 429Q432 429 447 414T462 376Q462 353 447 338T410 323Q387 323 372 338T357 376Q357 399 372 414T410 429Z" horiz-adv-x="515" unicode="Ŀ"/>
			<glyph d="M180 752H248L138 124Q135 103 135 96Q135 54 174 54Q194 54 227 65L236 7Q198 -10 158 -10Q114 -10 88 13T63 81Q63 98 68 118ZM303 452Q325 452 340 437T355 399Q355 376 340 361T303 346Q280 346 265 361T250 399Q250 422 265 437T303 452Z" horiz-adv-x="295" unicode="ŀ"/>
			<glyph d="M186 710H260L206 407L344 486L332 410L192 330L146 68H463L451 0H60L110 282L25 233L37 309L124 359Z" horiz-adv-x="523" unicode="Ł"/>
			<glyph d="M172 752H240L185 440L283 495L270 422L172 366L130 124Q127 103 127 96Q127 54 166 54Q186 54 219 65L228 7Q190 -10 150 -10Q106 -10 80 13T55 81Q55 98 60 118L96 323L18 278L31 352L109 396Z" horiz-adv-x="275" unicode="ł"/>
			<glyph d="M177 710H247L568 116L673 710H746L620 0H550L229 593L124 0H51ZM543 917H625L482 774H414Z" horiz-adv-x="760" unicode="Ń"/>
			<glyph d="M378 512Q454 512 497 470T540 349Q540 320 534 288L484 0H414L465 283Q470 313 470 337Q470 448 358 448Q289 448 235 402T169 286L118 0H49L137 502H206L190 411Q222 459 270 485T378 512ZM440 725H521L369 573H301Z" horiz-adv-x="611" unicode="ń"/>
			<glyph d="M177 710H247L568 116L673 710H746L620 0H550L229 593L124 0H51ZM294 -56H372L302 -219H237Z" horiz-adv-x="760" unicode="Ņ"/>
			<glyph d="M378 512Q454 512 497 470T540 349Q540 320 534 288L484 0H414L465 283Q470 313 470 337Q470 448 358 448Q289 448 235 402T169 286L118 0H49L137 502H206L190 411Q222 459 270 485T378 512ZM219 -56H297L227 -219H162Z" horiz-adv-x="611" unicode="ņ"/>
			<glyph d="M177 710H247L568 116L673 710H746L620 0H550L229 593L124 0H51ZM336 905H405L479 816L589 905H667L516 776H438Z" horiz-adv-x="760" unicode="Ň"/>
			<glyph d="M378 512Q454 512 497 470T540 349Q540 320 534 288L484 0H414L465 283Q470 313 470 337Q470 448 358 448Q289 448 235 402T169 286L118 0H49L137 502H206L190 411Q222 459 270 485T378 512ZM236 725H301L375 618L482 725H552L406 573H334Z" horiz-adv-x="611" unicode="ň"/>
			<glyph d="M480 512Q556 512 599 470T642 349Q642 320 636 288L586 0H516L567 283Q572 313 572 337Q572 448 460 448Q391 448 337 402T271 286L220 0H151L239 502H308L292 411Q324 459 372 485T480 512ZM177 710H256L146 508H82Z" horiz-adv-x="713" unicode="ŉ"/>
			<glyph d="M177 710H247L568 116L673 710H746L620 0H619L617 -13Q599 -113 543 -166T391 -220Q331 -220 285 -200L310 -137Q348 -155 390 -155Q520 -155 547 -4L548 3L229 593L124 0H51Z" horiz-adv-x="760" unicode="Ŋ"/>
			<glyph d="M378 512Q454 512 497 470T540 349Q540 320 534 288L473 -59Q458 -144 421 -181T324 -219Q289 -219 264 -209L285 -147Q302 -154 323 -154Q358 -154 377 -129T407 -42L465 283Q470 313 470 337Q470 448 358 448Q289 448 235 402T169 286L118 0H49L137 502H206L190 411Q222 459 270 485T378 512Z" horiz-adv-x="611" unicode="ŋ"/>
			<glyph d="M478 720Q579 720 655 678T774 561T816 389Q816 281 766 189T624 44T412 -10Q312 -10 234 32T114 150T72 324Q72 435 123 525T267 667T478 720ZM471 649Q377 649 303 606T189 490T148 328Q148 250 182 189T278 95T420 61Q512 61 585 105T699 223T740 384Q740 462 706 522T611 615T471 649ZM351 871H648L638 818H341ZZ" horiz-adv-x="853" unicode="Ō"/>
			<glyph d="M336 512Q407 512 462 482T547 399T577 277Q577 203 544 137T446 30T290 -10Q220 -10 165 19T79 104T48 231Q48 303 80 367T178 471T336 512ZM328 446Q260 446 213 415T143 336T120 236Q120 153 168 104T298 56Q362 56 409 85T480 163T505 272Q505 352 456 399T328 446ZM230 678H527L517 625H220Z" unicode="ō"/>
			<glyph d="M478 720Q579 720 655 678T774 561T816 389Q816 281 766 189T624 44T412 -10Q312 -10 234 32T114 150T72 324Q72 435 123 525T267 667T478 720ZM471 649Q377 649 303 606T189 490T148 328Q148 250 182 189T278 95T420 61Q512 61 585 105T699 223T740 384Q740 462 706 522T611 615T471 649ZM368 890H424Q422 882 422 876Q422 850 442 839T501 828Q542 828 567 843T599 890H656Q645 838 603 808T496 778Q433 778 399 801T365 868Q365 880 368 890Z" horiz-adv-x="853" unicode="Ŏ"/>
			<glyph d="M336 512Q407 512 462 482T547 399T577 277Q577 203 544 137T446 30T290 -10Q220 -10 165 19T79 104T48 231Q48 303 80 367T178 471T336 512ZM328 446Q260 446 213 415T143 336T120 236Q120 153 168 104T298 56Q362 56 409 85T480 163T505 272Q505 352 456 399T328 446ZM240 725H296Q294 715 294 706Q294 668 316 651T373 635Q414 635 439 657T471 725H527Q517 659 475 621T368 584Q310 584 273 614T237 699Q237 713 240 725Z" unicode="ŏ"/>
			<glyph d="M478 720Q579 720 655 678T774 561T816 389Q816 281 766 189T624 44T412 -10Q312 -10 234 32T114 150T72 324Q72 435 123 525T267 667T478 720ZM471 649Q377 649 303 606T189 490T148 328Q148 250 182 189T278 95T420 61Q512 61 585 105T699 223T740 384Q740 462 706 522T611 615T471 649ZM493 917H568L428 774H362ZM639 917H714L574 774H507Z" horiz-adv-x="853" unicode="Ő"/>
			<glyph d="M336 512Q407 512 462 482T547 399T577 277Q577 203 544 137T446 30T290 -10Q220 -10 165 19T79 104T48 231Q48 303 80 367T178 471T336 512ZM328 446Q260 446 213 415T143 336T120 236Q120 153 168 104T298 56Q362 56 409 85T480 163T505 272Q505 352 456 399T328 446ZM354 717H428L299 573H233ZM500 717H574L445 573H379Z" unicode="ő"/>
			<glyph d="M477 720Q580 720 657 671T773 541L803 710H1191L1179 642H865L821 389H1125L1113 323H809L763 68H1085L1073 0H677L698 118Q643 58 566 24T402 -10Q306 -10 230 31T113 148T71 319Q71 428 125 520T272 666T477 720ZM472 649Q384 649 309 606T191 489T147 327Q147 250 180 189T274 95T414 61Q505 61 579 105T696 224T739 387Q739 463 705 523T610 616T472 649Z" horiz-adv-x="1195" unicode="Œ"/>
			<glyph d="M334 512Q410 512 465 478T547 386Q582 446 642 479T780 512Q845 512 893 484T967 406T993 291L991 247H576Q575 241 575 229Q575 146 623 99T752 53Q855 53 943 124L955 62Q916 29 862 9T744 -10Q665 -10 609 23T527 116Q492 58 432 24T289 -10Q219 -10 164 19T79 104T48 231Q48 302 80 366T178 471T334 512ZM775 450Q705 450 654 410T584 302H922Q920 366 881 408T775 450ZM328 446Q260 446 213 415T143 336T120 236Q120 154 168 105T298 56Q362 56 409 85T481 163T506 272Q506 352 457 399T328 446Z" horiz-adv-x="1038" unicode="œ"/>
			<glyph d="M177 710H379Q475 710 529 662T584 532Q584 447 534 385T397 305L556 0H472L323 297H320H178L125 0H51ZM239 644L189 358H333Q378 358 418 376T483 431T508 524Q508 587 468 615T359 644ZM453 917H535L392 774H324Z" horiz-adv-x="618" unicode="Ŕ"/>
			<glyph d="M332 512Q364 512 390 501L367 434Q344 444 318 444Q258 444 218 396T165 268L117 0H49L137 502H206L191 418Q221 470 255 491T332 512ZM345 725H426L274 573H206Z" horiz-adv-x="358" unicode="ŕ"/>
			<glyph d="M177 710H379Q475 710 529 662T584 532Q584 447 534 385T397 305L556 0H472L323 297H320H178L125 0H51ZM239 644L189 358H333Q378 358 418 376T483 431T508 524Q508 587 468 615T359 644ZM256 -56H334L264 -219H199Z" horiz-adv-x="618" unicode="Ŗ"/>
			<glyph d="M332 512Q364 512 390 501L367 434Q344 444 318 444Q258 444 218 396T165 268L117 0H49L137 502H206L191 418Q221 470 255 491T332 512ZM37 -56H115L45 -219H-20Z" horiz-adv-x="358" unicode="ŗ"/>
			<glyph d="M177 710H379Q475 710 529 662T584 532Q584 447 534 385T397 305L556 0H472L323 297H320H178L125 0H51ZM239 644L189 358H333Q378 358 418 376T483 431T508 524Q508 587 468 615T359 644ZM246 905H315L389 816L499 905H577L426 776H348Z" horiz-adv-x="618" unicode="Ř"/>
			<glyph d="M332 512Q364 512 390 501L367 434Q344 444 318 444Q258 444 218 396T165 268L117 0H49L137 502H206L191 418Q221 470 255 491T332 512ZM158 735H224L279 618L372 735H442L311 573H238Z" horiz-adv-x="358" unicode="ř"/>
			<glyph d="M359 721Q411 721 458 708T542 674L514 605Q440 654 354 654Q280 654 235 621T190 529Q190 494 206 470T250 429T333 385Q396 355 429 333T482 278T502 194Q502 97 436 43T254 -10Q117 -10 24 66L54 136Q91 100 143 79T259 58Q336 58 381 91T427 190Q427 223 414 243T375 280T289 326Q224 359 189 382T135 439T115 521Q115 587 148 632T236 699T359 721ZM431 917H513L370 774H302Z" horiz-adv-x="561" unicode="Ś"/>
			<glyph d="M277 512Q365 512 433 469L408 409Q380 429 348 441T272 453Q223 453 190 435T158 380Q158 353 181 334T271 286Q325 261 348 248T389 210T406 148Q406 77 352 33T205 -10Q149 -10 103 5T32 44L58 104Q84 80 125 64T212 49Q268 49 301 73T335 137Q335 161 321 177T288 203T227 232Q177 253 148 270T103 312T87 371Q87 437 140 474T277 512ZM362 725H443L291 573H223Z" horiz-adv-x="471" unicode="ś"/>
			<glyph d="M359 721Q411 721 458 708T542 674L514 605Q440 654 354 654Q280 654 235 621T190 529Q190 494 206 470T250 429T333 385Q396 355 429 333T482 278T502 194Q502 97 436 43T254 -10Q117 -10 24 66L54 136Q91 100 143 79T259 58Q336 58 381 91T427 190Q427 223 414 243T375 280T289 326Q224 359 189 382T135 439T115 521Q115 587 148 632T236 699T359 721ZM341 903H419L521 774H452L378 863L268 774H190Z" horiz-adv-x="561" unicode="Ŝ"/>
			<glyph d="M277 512Q365 512 433 469L408 409Q380 429 348 441T272 453Q223 453 190 435T158 380Q158 353 181 334T271 286Q325 261 348 248T389 210T406 148Q406 77 352 33T205 -10Q149 -10 103 5T32 44L58 104Q84 80 125 64T212 49Q268 49 301 73T335 137Q335 161 321 177T288 203T227 232Q177 253 148 270T103 312T87 371Q87 437 140 474T277 512ZM277 725H349L447 573H382L308 680L201 573H131Z" horiz-adv-x="471" unicode="ŝ"/>
			<glyph d="M359 721Q411 721 458 708T542 674L514 605Q440 654 354 654Q280 654 235 621T190 529Q190 494 206 470T250 429T333 385Q396 355 429 333T482 278T502 194Q502 100 441 47T272 -10L265 -48Q321 -60 321 -116Q321 -166 280 -190T152 -214L161 -162Q216 -162 238 -151T261 -118Q261 -85 204 -85L219 -9Q105 0 24 66L54 136Q91 100 143 79T259 58Q336 58 381 91T427 190Q427 223 414 243T375 280T289 326Q224 359 189 382T135 439T115 521Q115 587 148 632T236 699T359 721Z" horiz-adv-x="561" unicode="Ş"/>
			<glyph d="M277 512Q365 512 433 469L408 409Q380 429 348 441T272 453Q223 453 190 435T158 380Q158 353 181 334T271 286Q325 261 348 248T389 210T406 148Q406 84 361 41T238 -8L231 -48Q287 -60 287 -116Q287 -166 246 -190T118 -214L127 -162Q182 -162 204 -151T227 -118Q227 -85 170 -85L185 -9Q136 -7 95 8T32 44L58 104Q84 80 125 64T212 49Q268 49 301 73T335 137Q335 161 321 177T288 203T227 232Q177 253 148 270T103 312T87 371Q87 437 140 474T277 512Z" horiz-adv-x="471" unicode="ş"/>
			<glyph d="M359 721Q411 721 458 708T542 674L514 605Q440 654 354 654Q280 654 235 621T190 529Q190 494 206 470T250 429T333 385Q396 355 429 333T482 278T502 194Q502 97 436 43T254 -10Q117 -10 24 66L54 136Q91 100 143 79T259 58Q336 58 381 91T427 190Q427 223 414 243T375 280T289 326Q224 359 189 382T135 439T115 521Q115 587 148 632T236 699T359 721ZM224 905H293L367 816L477 905H555L404 776H326Z" horiz-adv-x="561" unicode="Š"/>
			<glyph d="M277 512Q365 512 433 469L408 409Q380 429 348 441T272 453Q223 453 190 435T158 380Q158 353 181 334T271 286Q325 261 348 248T389 210T406 148Q406 77 352 33T205 -10Q149 -10 103 5T32 44L58 104Q84 80 125 64T212 49Q268 49 301 73T335 137Q335 161 321 177T288 203T227 232Q177 253 148 270T103 312T87 371Q87 437 140 474T277 512ZM158 725H223L297 618L404 725H474L328 573H256Z" horiz-adv-x="471" unicode="š"/>
			<glyph d="M107 710H579L566 643H373L259 0H185L299 643H95ZM195 0H248L239 -48Q295 -60 295 -116Q295 -166 254 -190T126 -214L135 -162Q190 -162 212 -151T235 -118Q235 -85 178 -85Z" horiz-adv-x="527" unicode="Ţ"/>
			<glyph d="M246 660L218 502H365L354 441H207L155 150Q152 132 152 114Q152 85 169 70T215 55Q238 55 262 63T305 84L316 24Q294 9 263 0T197 -10H192L185 -48Q241 -60 241 -116Q241 -166 200 -190T72 -214L81 -162Q136 -162 158 -151T181 -118Q181 -85 124 -85L141 0Q82 25 82 104Q82 125 88 156L138 441H69L79 502H149L174 649Z" horiz-adv-x="365" unicode="ţ"/>
			<glyph d="M107 710H579L566 643H373L259 0H185L299 643H95ZM223 905H292L366 816L476 905H554L403 776H325Z" horiz-adv-x="527" unicode="Ť"/>
			<glyph d="M246 660L218 502H365L354 441H207L155 150Q152 132 152 114Q152 85 169 70T215 55Q238 55 262 63T305 84L316 24Q294 9 263 0T197 -10Q145 -10 113 17T82 104Q82 125 88 156L138 441H69L79 502H149L174 649ZM401 783H476L363 571H300Z" horiz-adv-x="361" unicode="ť"/>
			<glyph d="M107 710H579L566 643H373L334 423H504L492 356H322L259 0H185L248 356H85L97 423H260L299 643H95Z" horiz-adv-x="527" unicode="Ŧ"/>
			<glyph d="M250 660L222 502H369L358 441H211L189 320H333L323 265H180L159 150Q156 132 156 114Q156 85 173 70T219 55Q242 55 266 63T309 84L320 24Q298 9 267 0T201 -10Q149 -10 117 17T86 104Q86 125 92 156L111 265H38L47 320H121L142 441H73L83 502H153L178 649Z" horiz-adv-x="369" unicode="ŧ"/>
			<glyph d="M166 710H240L166 285Q161 247 161 218Q161 142 206 101T330 61Q525 61 560 270L638 710H712L633 258Q610 130 530 60T324 -10Q211 -10 148 49T86 214Q86 246 93 290ZM372 872Q391 872 409 866T462 848Q471 845 485 839T509 831T527 829Q545 829 555 839T572 872H628Q614 822 590 798T527 774Q505 774 484 780T435 798Q415 806 399 811T372 817Q336 817 324 774H268Q280 823 308 847T372 872Z" horiz-adv-x="717" unicode="Ũ"/>
			<glyph d="M128 502H197L147 217Q142 187 142 160Q142 107 171 79T258 52Q326 52 378 98T443 216L494 502H563L475 0H405L420 85Q388 40 341 15T238 -10Q161 -10 116 31T72 150Q72 185 78 218ZM292 695Q310 695 328 689T375 671Q399 660 411 656T435 652Q452 652 460 661T476 695H527Q516 646 495 621T436 597Q416 597 396 603T350 621Q331 629 316 634T291 640Q257 640 247 597H196Q207 646 232 670T292 695Z" horiz-adv-x="612" unicode="ũ"/>
			<glyph d="M166 710H240L166 285Q161 247 161 218Q161 142 206 101T330 61Q525 61 560 270L638 710H712L633 258Q610 130 530 60T324 -10Q211 -10 148 49T86 214Q86 246 93 290ZM307 871H604L594 818H297ZZ" horiz-adv-x="717" unicode="Ū"/>
			<glyph d="M128 502H197L147 217Q142 187 142 160Q142 107 171 79T258 52Q326 52 378 98T443 216L494 502H563L475 0H405L420 85Q388 40 341 15T238 -10Q161 -10 116 31T72 150Q72 185 78 218ZM223 678H520L510 625H213Z" horiz-adv-x="612" unicode="ū"/>
			<glyph d="M166 710H240L166 285Q161 247 161 218Q161 142 206 101T330 61Q525 61 560 270L638 710H712L633 258Q610 130 530 60T324 -10Q211 -10 148 49T86 214Q86 246 93 290ZM324 890H380Q378 882 378 876Q378 850 398 839T457 828Q498 828 523 843T555 890H612Q601 838 559 808T452 778Q389 778 355 801T321 868Q321 880 324 890Z" horiz-adv-x="717" unicode="Ŭ"/>
			<glyph d="M128 502H197L147 217Q142 187 142 160Q142 107 171 79T258 52Q326 52 378 98T443 216L494 502H563L475 0H405L420 85Q388 40 341 15T238 -10Q161 -10 116 31T72 150Q72 185 78 218ZM233 725H289Q287 715 287 706Q287 668 309 651T366 635Q407 635 432 657T464 725H520Q510 659 468 621T361 584Q303 584 266 614T230 699Q230 713 233 725Z" horiz-adv-x="612" unicode="ŭ"/>
			<glyph d="M166 710H240L166 285Q161 247 161 218Q161 142 206 101T330 61Q525 61 560 270L638 710H712L633 258Q610 130 530 60T324 -10Q211 -10 148 49T86 214Q86 246 93 290ZM454 942Q495 942 520 915T546 851Q546 808 516 778T443 749Q402 749 376 774T351 838Q351 881 380 911T454 942ZM451 893Q428 893 414 878T400 843Q400 824 412 810T445 797Q467 797 482 811T497 848Q497 867 484 880T451 893ZZ" horiz-adv-x="717" unicode="Ů"/>
			<glyph d="M128 502H197L147 217Q142 187 142 160Q142 107 171 79T258 52Q326 52 378 98T443 216L494 502H563L475 0H405L420 85Q388 40 341 15T238 -10Q161 -10 116 31T72 150Q72 185 78 218ZM375 754Q416 754 440 730T464 665Q464 617 432 588T354 560Q312 560 287 583T263 646Q263 692 295 723T375 754ZM369 707Q345 707 329 691T313 651Q313 631 325 618T359 606Q382 606 398 621T414 661Q414 681 402 694T369 707Z" horiz-adv-x="612" unicode="ů"/>
			<glyph d="M166 710H240L166 285Q161 247 161 218Q161 142 206 101T330 61Q525 61 560 270L638 710H712L633 258Q610 130 530 60T324 -10Q211 -10 148 49T86 214Q86 246 93 290ZM449 917H524L384 774H318ZM595 917H670L530 774H463Z" horiz-adv-x="717" unicode="Ű"/>
			<glyph d="M128 502H197L147 217Q142 187 142 160Q142 107 171 79T258 52Q326 52 378 98T443 216L494 502H563L475 0H405L420 85Q388 40 341 15T238 -10Q161 -10 116 31T72 150Q72 185 78 218ZM347 717H421L292 573H226ZM493 717H567L438 573H372Z" horiz-adv-x="612" unicode="ű"/>
			<glyph d="M166 710H240L166 285Q161 247 161 218Q161 141 206 101T334 61Q426 61 484 113T560 270L638 710H712L633 258Q618 175 583 123T494 34Q450 3 421 -27T393 -99Q393 -144 439 -144Q458 -144 484 -134L488 -181Q458 -195 421 -195Q379 -195 355 -174T331 -113Q331 -47 392 -4Q350 -10 323 -10Q211 -10 148 50T86 213Q86 246 93 290Z" horiz-adv-x="717" unicode="Ų"/>
			<glyph d="M128 502H197L147 217Q142 187 142 160Q142 107 171 79T258 52Q326 52 378 98T443 216L494 502H563L475 0Q393 -49 393 -102Q393 -123 405 -133T440 -144Q458 -144 484 -134L488 -181Q458 -195 421 -195Q379 -195 355 -173T331 -114Q331 -80 352 -52T419 0H405L420 85Q388 40 341 15T238 -10Q161 -10 116 31T72 150Q72 185 78 218Z" horiz-adv-x="612" unicode="ų"/>
			<glyph d="M117 710H192L253 107L542 710H612L685 106L959 710H1039L709 0H634L559 605L270 0H195ZM570 903H648L750 774H681L607 863L497 774H419Z" horiz-adv-x="997" unicode="Ŵ"/>
			<glyph d="M58 502H130L189 81L400 502H468L530 85L735 502H808L553 0H481L419 413L211 0H138ZM429 725H501L599 573H534L460 680L353 573H283Z" horiz-adv-x="777" unicode="ŵ"/>
			<glyph d="M105 710H183L329 355L600 710H684L357 286L306 0H231L282 284ZM380 903H458L560 774H491L417 863L307 774H229Z" horiz-adv-x="628" unicode="Ŷ"/>
			<glyph d="M43 502H115L224 103L450 502H526L197 -69Q151 -149 106 -182T-5 -215Q-46 -215 -68 -206L-47 -143Q-32 -149 -3 -149Q37 -149 67 -128T132 -50L177 23ZM284 725H356L454 573H389L315 680L208 573H138Z" horiz-adv-x="487" unicode="ŷ"/>
			<glyph d="M105 710H183L329 355L600 710H684L357 286L306 0H231L282 284ZM300 895Q321 895 335 880T350 846Q350 825 335 811T300 797Q280 797 265 811T251 846Q251 866 265 880T300 895ZM510 895Q531 895 545 880T560 846Q560 825 545 811T510 797Q490 797 475 811T461 846Q461 866 475 880T510 895Z" horiz-adv-x="628" unicode="Ÿ"/>
			<glyph d="M152 710H626L618 672L136 67H516L504 0H16L23 38L507 643H140ZM460 917H542L399 774H331Z" horiz-adv-x="594" unicode="Ź"/>
			<glyph d="M92 502H468L462 467L121 60H407L396 0H4L11 33L355 441H82ZM357 725H438L286 573H218Z" horiz-adv-x="477" unicode="ź"/>
			<glyph d="M152 710H626L618 672L136 67H516L504 0H16L23 38L507 643H140ZM405 900Q427 900 442 885T457 847Q457 824 442 809T405 794Q382 794 367 809T352 847Q352 870 367 885T405 900Z" horiz-adv-x="594" unicode="Ż"/>
			<glyph d="M92 502H468L462 467L121 60H407L396 0H4L11 33L355 441H82ZM296 718Q318 718 333 703T348 665Q348 642 333 627T296 612Q273 612 258 627T243 665Q243 688 258 703T296 718Z" horiz-adv-x="477" unicode="ż"/>
			<glyph d="M152 710H626L618 672L136 67H516L504 0H16L23 38L507 643H140ZM253 905H322L396 816L506 905H584L433 776H355Z" horiz-adv-x="594" unicode="Ž"/>
			<glyph d="M92 502H468L462 467L121 60H407L396 0H4L11 33L355 441H82ZM153 725H218L292 618L399 725H469L323 573H251Z" horiz-adv-x="477" unicode="ž"/>
			<glyph d="M381 720Q478 720 553 679T672 563T715 386Q715 268 668 178T538 39T352 -10Q208 -10 131 73T54 300Q54 320 56 360H638V380Q638 458 605 519T512 615T377 649Q313 649 254 627T144 568L123 638Q243 720 381 720ZM128 297Q131 182 188 120T356 58Q465 58 537 124T630 297Z" horiz-adv-x="750" unicode="Ə"/>
			<glyph d="M405 754Q428 754 453 747T495 729L471 671Q458 679 439 684T402 690Q331 690 314 585L299 502H422L411 441H288L209 -7Q195 -84 154 -126T51 -169Q27 -169 1 -163T-42 -147L-15 -86Q-2 -94 16 -99T53 -105Q124 -105 142 3L219 441H131L142 502H230L246 592Q260 670 300 712T405 754Z" horiz-adv-x="439" unicode="ƒ"/>
			<glyph d="M834 855Q843 831 843 796Q843 730 812 689T716 634Q764 590 790 527T816 388Q816 279 765 188T623 43T415 -10Q312 -10 234 32T114 150T72 324Q72 433 123 523T268 667T481 720Q524 720 555 713T618 695Q654 680 681 680Q729 680 753 712T778 794Q778 819 771 839ZM469 649Q378 649 304 606T189 489T148 329Q148 250 182 189T277 95T419 61Q512 61 585 105T700 223T741 384Q741 462 707 522T611 616T469 649Z" horiz-adv-x="853" unicode="Ơ"/>
			<glyph d="M624 647Q632 625 632 600Q632 469 517 440Q577 375 577 277Q577 203 544 137T446 30T290 -10Q220 -10 165 19T79 104T48 231Q48 303 80 367T178 471T336 512Q368 512 389 507T434 494Q456 486 470 486Q521 486 544 512T568 594Q568 616 562 631ZM328 446Q260 446 213 415T143 336T120 236Q120 153 168 104T298 56Q362 56 409 85T480 163T505 272Q505 352 456 399T328 446Z" unicode="ơ"/>
			<glyph d="M835 855Q842 835 842 808Q842 674 703 656L633 258Q610 130 530 60T324 -10Q211 -10 148 49T86 214Q86 246 93 290L166 710H240L166 285Q161 247 161 218Q161 142 206 101T330 61Q525 61 560 270L638 710H665Q725 710 751 732T778 802Q778 824 772 839Z" horiz-adv-x="717" unicode="Ư"/>
			<glyph d="M672 647Q679 627 679 600Q679 473 554 450L475 0H405L420 85Q388 40 341 15T238 -10Q161 -10 116 31T72 150Q72 185 78 218L128 502H197L147 217Q142 187 142 160Q142 107 171 79T258 52Q326 52 378 98T443 216L494 502H502Q562 502 588 524T615 594Q615 616 609 631Z" horiz-adv-x="612" unicode="ư"/>
			<glyph d="M499 1015H581L438 872H370ZM414 859Q455 859 480 832T506 768Q506 738 490 713T449 676L589 0H515L469 231H171L44 0H-35L348 682Q331 694 321 713T311 755Q311 798 340 828T414 859ZM411 810Q388 810 374 795T360 760Q360 741 372 727T405 714Q427 714 442 728T457 765Q457 784 444 797T411 810ZM389 626L205 293H456Z" horiz-adv-x="642" unicode="Ǻ"/>
			<glyph d="M307 512Q392 512 442 469T493 344Q493 320 487 276L440 0H370L383 74Q352 37 305 13T199 -10Q129 -10 86 25T44 126Q44 222 139 260T422 301Q425 325 425 337Q425 392 394 421T302 450Q252 450 206 432T125 390L110 452Q146 477 197 494T307 512ZM415 250Q312 249 247 238T150 202T117 132Q117 89 144 68T218 48Q259 48 300 64T371 118T410 215Q411 223 412 232T415 250ZM349 754Q390 754 414 730T438 665Q438 617 406 588T328 560Q286 560 261 583T237 646Q237 692 269 723T349 754ZM343 707Q319 707 303 691T287 651Q287 631 299 618T333 606Q356 606 372 621T388 661Q388 681 376 694T343 707ZM444 973H525L373 821H305Z" horiz-adv-x="567" unicode="ǻ"/>
			<glyph d="M373 710H900L888 642H574L530 389H834L822 323H518L472 68H794L782 0H386L427 231H175L43 0H-35ZM410 642L210 293H438L500 642ZM614 917H696L553 774H485Z" horiz-adv-x="904" unicode="Ǽ"/>
			<glyph d="M307 512Q371 512 415 488T479 417Q516 463 570 487T691 512Q756 512 804 484T878 406T904 291L902 247H487Q486 241 486 229Q486 146 534 99T663 53Q766 53 854 124L866 62Q827 29 773 9T655 -10Q575 -10 519 24T437 118Q410 67 352 28T211 -10Q135 -10 89 24T44 126Q44 222 140 260T422 301Q425 328 425 337Q425 392 394 421T301 450Q251 450 205 432T125 390L110 452Q145 476 197 494T307 512ZM686 450Q616 450 565 410T495 302H833Q831 366 792 408T686 450ZM415 250Q262 249 189 223T117 132Q117 89 147 68T224 47Q291 47 344 88T410 215ZM583 725H664L512 573H444Z" horiz-adv-x="948" unicode="ǽ"/>
			<glyph d="M752 760H828L719 632Q766 588 791 526T816 389Q816 281 766 189T624 44T412 -10Q300 -10 214 44L133 -50H57L169 80Q122 125 97 187T72 324Q72 435 123 525T267 667T478 720Q589 720 673 668ZM471 649Q377 649 303 606T189 490T148 328Q148 271 166 223T219 139L623 609Q558 649 471 649ZM668 573L264 103Q331 61 420 61Q512 61 585 105T699 223T740 384Q740 442 721 490T668 573ZM556 917H638L495 774H427Z" horiz-adv-x="853" unicode="Ǿ"/>
			<glyph d="M516 554H582L503 454Q539 422 558 377T577 277Q577 203 544 137T446 30T290 -10Q217 -10 161 22L101 -54H35L119 52Q85 84 66 129T48 231Q48 302 80 366T178 471T335 512Q407 512 460 483ZM328 447Q260 447 212 416T142 336T119 236Q119 157 164 109L416 428Q376 447 328 447ZM459 398L204 77Q246 55 298 55Q362 55 409 84T481 163T506 272Q506 311 494 343T459 398ZM433 725H514L362 573H294Z" unicode="ǿ"/>
			<glyph d="M359 721Q411 721 458 708T542 674L514 605Q440 654 354 654Q280 654 235 621T190 529Q190 494 206 470T250 429T333 385Q396 355 429 333T482 278T502 194Q502 97 436 43T254 -10Q117 -10 24 66L54 136Q91 100 143 79T259 58Q336 58 381 91T427 190Q427 223 414 243T375 280T289 326Q224 359 189 382T135 439T115 521Q115 587 148 632T236 699T359 721ZM201 -56H279L209 -219H144Z" horiz-adv-x="561" unicode="Ș"/>
			<glyph d="M277 512Q365 512 433 469L408 409Q380 429 348 441T272 453Q223 453 190 435T158 380Q158 353 181 334T271 286Q325 261 348 248T389 210T406 148Q406 77 352 33T205 -10Q149 -10 103 5T32 44L58 104Q84 80 125 64T212 49Q268 49 301 73T335 137Q335 161 321 177T288 203T227 232Q177 253 148 270T103 312T87 371Q87 437 140 474T277 512ZM167 -56H245L175 -219H110Z" horiz-adv-x="471" unicode="ș"/>
			<glyph d="M107 710H579L566 643H373L259 0H185L299 643H95ZM175 -56H253L183 -219H118Z" horiz-adv-x="527" unicode="Ț"/>
			<glyph d="M246 660L218 502H365L354 441H207L155 150Q152 132 152 114Q152 85 169 70T215 55Q238 55 262 63T305 84L316 24Q294 9 263 0T197 -10Q145 -10 113 17T82 104Q82 125 88 156L138 441H69L79 502H149L174 649ZM121 -56H199L129 -219H64Z" horiz-adv-x="365" unicode="ț"/>
			<glyph d="M139 502H208L110 -61Q95 -144 60 -181T-32 -219Q-74 -219 -97 -209L-84 -146Q-64 -154 -33 -154Q-3 -154 14 -131T42 -49Z" horiz-adv-x="258" unicode="ȷ"/>
			<glyph d="M294 512Q368 512 421 482T503 400T532 280Q532 193 497 127T400 26T258 -10Q193 -10 145 18T71 96T45 211L47 255H462Q463 261 463 273Q463 356 414 402T286 449Q183 449 95 378L83 440Q122 473 176 492T294 512ZM116 200Q118 136 156 94T263 52Q333 52 384 91T454 200Z" horiz-adv-x="580" unicode="ə"/>
			<glyph d="M177 710H256L146 508H82Z" horiz-adv-x="220" unicode="ʼ"/>
			<glyph d="M268 725H340L438 573H373L299 680L192 573H122Z" horiz-adv-x="450" unicode="ˆ"/>
			<glyph d="M151 725H216L290 618L397 725H467L321 573H249Z" horiz-adv-x="450" unicode="ˇ"/>
			<glyph d="M154 678H451L441 625H144Z" horiz-adv-x="450" unicode="ˉ"/>
			<glyph d="M162 725H218Q216 715 216 706Q216 668 238 651T295 635Q336 635 361 657T393 725H449Q439 659 397 621T290 584Q232 584 195 614T159 699Q159 713 162 725Z" horiz-adv-x="450" unicode="˘"/>
			<glyph d="M300 718Q322 718 337 703T352 665Q352 642 337 627T300 612Q277 612 262 627T247 665Q247 688 262 703T300 718Z" horiz-adv-x="450" unicode="˙"/>
			<glyph d="M306 754Q347 754 371 730T395 665Q395 617 363 588T285 560Q243 560 218 583T194 646Q194 692 226 723T306 754ZM300 707Q276 707 260 691T244 651Q244 631 256 618T290 606Q313 606 329 621T345 661Q345 681 333 694T300 707Z" horiz-adv-x="450" unicode="˚"/>
			<glyph d="M186 0H242Q160 -49 160 -102Q160 -123 172 -133T207 -144Q225 -144 251 -134L255 -181Q225 -195 188 -195Q146 -195 122 -173T98 -114Q98 -80 119 -52T186 0Z" horiz-adv-x="450" unicode="˛"/>
			<glyph d="M222 695Q240 695 258 689T305 671Q329 660 341 656T365 652Q382 652 390 661T406 695H457Q446 646 425 621T366 597Q346 597 326 603T280 621Q261 629 246 634T221 640Q187 640 177 597H126Q137 646 162 670T222 695Z" horiz-adv-x="450" unicode="˜"/>
			<glyph d="M249 717H323L194 573H128ZM395 717H469L340 573H274Z" horiz-adv-x="450" unicode="˝"/>
			<glyph d="M-154 725H-80L7 573H-58Z" horiz-adv-x="0" unicode="̀"/>
			<glyph d="M-47 725H34L-118 573H-186Z" horiz-adv-x="0" unicode="́"/>
			<glyph d="M-163 725H-91L7 573H-58L-132 680L-239 573H-309Z" horiz-adv-x="0" unicode="̂"/>
			<glyph d="M-207 695Q-189 695 -170 689T-124 671Q-100 660 -88 656T-64 652Q-47 652 -38 661T-23 695H28Q17 646 -3 621T-63 597Q-83 597 -103 603T-149 621Q-168 629 -183 634T-208 640Q-242 640 -252 597H-303Q-292 646 -266 670T-207 695Z" horiz-adv-x="0" unicode="̃"/>
			<glyph d="M-272 678H25L15 625H-282Z" horiz-adv-x="0" unicode="̄"/>
			<glyph d="M-254 725H-198Q-200 715 -200 706Q-200 668 -177 651T-121 635Q-80 635 -55 657T-23 725H33Q23 659 -19 621T-126 584Q-184 584 -220 614T-257 699Q-257 713 -254 725Z" horiz-adv-x="0" unicode="̆"/>
			<glyph d="M-30 718Q-8 718 7 703T22 665Q22 642 7 627T-30 612Q-53 612 -68 627T-83 665Q-83 688 -68 703T-30 718Z" horiz-adv-x="0" unicode="̇"/>
			<glyph d="M-238 714Q-217 714 -202 699T-188 665Q-188 644 -202 630T-238 616Q-258 616 -272 630T-287 665Q-287 685 -272 699T-238 714ZM-28 714Q-7 714 7 699T22 665Q22 644 7 630T-28 616Q-48 616 -62 630T-77 665Q-77 685 -62 699T-28 714Z" horiz-adv-x="0" unicode="̈"/>
			<glyph d="M-57 757Q-21 757 2 740T26 688Q26 656 6 637T-53 598Q-70 590 -74 584T-83 563H-141Q-135 592 -125 603T-88 628Q-57 644 -45 653T-34 679Q-34 707 -76 707Q-109 707 -140 693L-141 740Q-123 748 -99 752T-57 757Z" horiz-adv-x="0" unicode="̉"/>
			<glyph d="M-68 754Q-27 754 -3 730T21 665Q21 617 -11 588T-89 560Q-131 560 -155 583T-180 646Q-180 692 -147 723T-68 754ZM-74 707Q-98 707 -114 691T-130 651Q-130 631 -117 618T-84 606Q-61 606 -45 621T-29 661Q-29 681 -41 694T-74 707Z" horiz-adv-x="0" unicode="̊"/>
			<glyph d="M-188 717H-114L-243 573H-309ZM-42 717H32L-97 573H-163Z" horiz-adv-x="0" unicode="̋"/>
			<glyph d="M-282 725H-217L-143 618L-36 725H34L-112 573H-184Z" horiz-adv-x="0" unicode="̌"/>
			<glyph d="M-26 738H36L-48 573H-122Z" horiz-adv-x="0" unicode="̒"/>
			<glyph d="M1 647Q8 627 8 600Q8 445 -177 445L-169 502Q-109 502 -82 524T-56 594Q-56 616 -62 631Z" horiz-adv-x="0" unicode="̛"/>
			<glyph d="M-173 -89Q-151 -89 -136 -104T-121 -142Q-121 -165 -136 -180T-173 -195Q-196 -195 -211 -180T-226 -142Q-226 -120 -211 -104T-173 -89Z" horiz-adv-x="0" unicode="̣"/>
			<glyph d="M-181 -56H-103L-173 -219H-238Z" horiz-adv-x="0" unicode="̦"/>
			<glyph d="M-216 0H-163L-172 -48Q-116 -60 -116 -116Q-116 -166 -157 -190T-285 -214L-276 -162Q-221 -162 -198 -151T-176 -118Q-176 -85 -233 -85Z" horiz-adv-x="0" unicode="̧"/>
			<glyph d="M-195 0H-139Q-221 -49 -221 -102Q-221 -123 -208 -133T-174 -144Q-156 -144 -130 -134L-126 -181Q-156 -195 -193 -195Q-235 -195 -259 -173T-283 -114Q-283 -80 -261 -52T-195 0Z" horiz-adv-x="0" unicode="̨"/>
			<glyph d="M-385 302H-41L-52 241H-396Z" horiz-adv-x="0" unicode="̵"/>
			<glyph d="M242 726H322L167 428H103Z" horiz-adv-x="308" unicode="ʹ"/>
			<glyph d="M142 158H222L67 -140H3Z" horiz-adv-x="308" unicode="͵"/>
			<glyph d="M152 467Q174 467 189 452T204 415Q204 393 189 378T152 363Q130 363 114 378T99 415Q99 437 114 452T152 467ZM71 88H157L33 -142H-32ZZ" horiz-adv-x="243" unicode=";"/>
			<glyph d="M188 726H265L168 573H107Z" horiz-adv-x="231" unicode="΄"/>
			<glyph d="M288 768H355L276 628H225ZM165 690Q184 690 197 677T210 645Q210 626 197 613T165 600Q146 600 133 613T120 645Q120 664 133 677T165 690ZM362 690Q381 690 394 677T407 645Q407 626 394 613T362 600Q344 600 331 613T318 645Q318 664 331 677T362 690Z" horiz-adv-x="388" unicode="΅"/>
			<glyph d="M364 710H442L589 0H515L469 231H171L44 0H-35ZM389 626L205 293H456ZM164 727H241L144 574H83Z" horiz-adv-x="642" unicode="Ά"/>
			<glyph d="M149 326Q171 326 186 311T201 274Q201 252 186 237T149 222Q127 222 111 237T96 274Q96 296 111 311T149 326Z" horiz-adv-x="290" unicode="·"/>
			<glyph d="M253 710H641L629 642H315L271 389H575L563 323H259L213 68H535L523 0H127ZM115 726H192L95 573H34Z" horiz-adv-x="645" unicode="Έ"/>
			<glyph d="M261 710H335L278 389H681L738 710H812L686 0H612L669 322H266L209 0H135ZM115 726H192L95 573H34Z" horiz-adv-x="827" unicode="Ή"/>
			<glyph d="M261 710H335L209 0H135ZM115 726H192L95 573H34Z" horiz-adv-x="349" unicode="Ί"/>
			<glyph d="M527 720Q628 720 704 678T823 561T865 389Q865 281 815 189T673 44T461 -10Q361 -10 283 32T163 150T121 324Q121 435 172 525T316 667T527 720ZM520 649Q426 649 352 606T238 490T197 328Q197 250 231 189T327 95T469 61Q561 61 634 105T748 223T789 384Q789 462 755 522T660 615T520 649ZM120 726H197L100 573H39Z" horiz-adv-x="901" unicode="Ό"/>
			<glyph d="M222 710H300L446 355L717 710H801L474 286L423 0H348L399 284ZM120 726H197L100 573H39Z" horiz-adv-x="745" unicode="Ύ"/>
			<glyph d="M538 720Q636 720 713 683T834 581T878 429Q878 353 844 289T748 181T607 119L598 67H839L828 0H521L549 161Q664 181 733 250T802 417Q802 486 767 538T670 620T529 649Q445 649 372 616T255 521T211 378Q211 289 264 234T414 161L389 0H82L93 67H335L344 122Q249 148 193 213T137 379Q137 480 192 557T340 677T538 720ZM120 726H197L100 573H39Z" horiz-adv-x="926" unicode="Ώ"/>
			<glyph d="M137 502H206L144 145Q140 126 140 109Q140 53 188 53Q213 53 238 62L246 4Q209 -10 175 -10Q125 -10 97 15T70 96Q70 122 75 143ZM221 768H288L209 628H158ZM98 690Q117 690 130 677T143 645Q143 626 130 613T98 600Q79 600 66 613T53 645Q53 664 66 677T98 690ZM295 690Q314 690 327 677T340 645Q340 626 327 613T295 600Q277 600 264 613T251 645Q251 664 264 677T295 690Z" horiz-adv-x="288" unicode="ΐ"/>
			<glyph d="M364 710H442L589 0H515L469 231H171L44 0H-35ZM389 626L205 293H456Z" horiz-adv-x="642" unicode="Α"/>
			<glyph d="M176 710H329Q425 710 476 666T527 548Q527 489 498 442T407 370Q468 358 501 318T535 214Q535 114 468 57T285 0H51ZM238 645L194 390H285Q363 390 408 430T453 536Q453 592 417 618T311 645ZM183 326L137 65H292Q370 65 415 105T461 209Q461 266 427 296T333 326Z" horiz-adv-x="574" unicode="Β"/>
			<glyph d="M177 710H561L548 642H239L125 0H51Z" horiz-adv-x="509" unicode="Γ"/>
			<glyph d="M375 710H452L588 65L575 0H0L12 65ZM401 625L89 65H515Z" horiz-adv-x="665" unicode="Δ"/>
			<glyph d="M177 710H565L553 642H239L195 389H499L487 323H183L137 68H459L447 0H51Z" horiz-adv-x="569" unicode="Ε"/>
			<glyph d="M152 710H626L618 672L136 67H516L504 0H16L23 38L507 643H140Z" horiz-adv-x="594" unicode="Ζ"/>
			<glyph d="M177 710H251L194 389H597L654 710H728L602 0H528L585 322H182L125 0H51Z" horiz-adv-x="743" unicode="Η"/>
			<glyph d="M478 720Q579 720 655 678T774 561T816 389Q816 281 766 189T624 44T412 -10Q312 -10 234 32T114 150T72 324Q72 435 123 525T267 667T478 720ZM471 649Q377 649 303 606T189 490T148 328Q148 250 182 189T278 95T420 61Q512 61 585 105T699 223T740 384Q740 462 706 522T611 615T471 649ZM290 390H615L603 323H278Z" horiz-adv-x="853" unicode="Θ"/>
			<glyph d="M177 710H251L125 0H51Z" horiz-adv-x="265" unicode="Ι"/>
			<glyph d="M177 710H251L189 360L564 710H656L277 357L557 0H467L189 359L125 0H51Z" horiz-adv-x="622" unicode="Κ"/>
			<glyph d="M373 711H454L593 1H519L400 622L62 1H-21Z" horiz-adv-x="671" unicode="Λ"/>
			<glyph d="M177 710H257L434 342L743 710H831L705 0H631L738 604L448 258H396L231 604L124 0H51Z" horiz-adv-x="845" unicode="Μ"/>
			<glyph d="M177 710H247L568 116L673 710H746L620 0H550L229 593L124 0H51Z" horiz-adv-x="760" unicode="Ν"/>
			<glyph d="M184 710H585L573 642H172ZM152 389H503L492 323H141ZM47 66H496L483 0H34Z" horiz-adv-x="607" unicode="Ξ"/>
			<glyph d="M478 720Q579 720 655 678T774 561T816 389Q816 281 766 189T624 44T412 -10Q312 -10 234 32T114 150T72 324Q72 435 123 525T267 667T478 720ZM471 649Q377 649 303 606T189 490T148 328Q148 250 182 189T278 95T420 61Q512 61 585 105T699 223T740 384Q740 462 706 522T611 615T471 649Z" horiz-adv-x="853" unicode="Ο"/>
			<glyph d="M177 710H718L592 0H518L632 643H239L125 0H51Z" horiz-adv-x="733" unicode="Π"/>
			<glyph d="M176 710H352Q471 710 530 659T589 513Q589 441 556 384T460 296T307 265H172L126 0H52ZM238 644L184 330H314Q406 330 459 377T513 508Q513 582 468 613T335 644Z" horiz-adv-x="579" unicode="Ρ"/>
			<glyph d="M152 710H557L545 642H233L397 373L391 344L129 68H481L468 0H16L25 48L325 364L143 662Z" horiz-adv-x="559" unicode="Σ"/>
			<glyph d="M107 710H579L566 643H373L259 0H185L299 643H95Z" horiz-adv-x="527" unicode="Τ"/>
			<glyph d="M105 710H183L329 355L600 710H684L357 286L306 0H231L282 284Z" horiz-adv-x="628" unicode="Υ"/>
			<glyph d="M476 722H547L534 648Q671 636 749 569T827 386Q827 288 775 215T633 102T431 60L418 -12H347L360 62Q224 74 145 141T66 327Q66 425 117 497T259 608T463 650ZM452 587Q363 584 292 554T181 468T140 335Q140 243 201 190T371 126ZM523 584L442 123Q532 125 602 155T712 242T752 376Q752 468 691 520T523 584Z" horiz-adv-x="855" unicode="Φ"/>
			<glyph d="M121 710H202L351 414L593 710H680L382 352L560 0H480L331 299L79 0H-10L299 360Z" horiz-adv-x="637" unicode="Χ"/>
			<glyph d="M149 710H220L184 509Q179 485 179 455Q179 371 232 323T383 269L461 710H532L454 269Q574 273 644 331T732 494L771 710H842L803 489Q780 357 687 282T443 206L406 0H335L372 206Q251 213 179 276T108 448Q108 478 114 511Z" horiz-adv-x="831" unicode="Ψ"/>
			<glyph d="M482 720Q580 720 657 683T778 581T822 429Q822 353 788 289T692 181T551 119L542 67H783L772 0H465L493 161Q608 181 677 250T746 417Q746 486 711 538T614 620T473 649Q389 649 316 616T199 521T155 378Q155 289 208 234T358 161L333 0H26L37 67H279L288 122Q193 148 137 213T81 379Q81 480 136 557T284 677T482 720Z" horiz-adv-x="870" unicode="Ω"/>
			<glyph d="M177 710H251L125 0H51ZM123 895Q144 895 158 880T173 846Q173 825 158 811T123 797Q103 797 88 811T74 846Q74 866 88 880T123 895ZM333 895Q354 895 368 880T383 846Q383 825 368 811T333 797Q313 797 298 811T284 846Q284 866 298 880T333 895Z" horiz-adv-x="265" unicode="Ϊ"/>
			<glyph d="M105 710H183L329 355L600 710H684L357 286L306 0H231L282 284ZM300 895Q321 895 335 880T350 846Q350 825 335 811T300 797Q280 797 265 811T251 846Q251 866 265 880T300 895ZM510 895Q531 895 545 880T560 846Q560 825 545 811T510 797Q490 797 475 811T461 846Q461 866 475 880T510 895Z" horiz-adv-x="628" unicode="Ϋ"/>
			<glyph d="M315 512Q386 512 436 479T507 389Q513 420 531 474L540 502H609Q583 423 561 300Q546 217 538 169T530 102Q530 75 540 64T568 54Q585 54 603 62L609 6Q586 -10 549 -10Q467 -10 462 74Q461 80 461 93Q435 50 385 20T268 -10Q204 -10 152 19T71 102T42 229Q42 310 79 375T178 476T315 512ZM316 446Q261 446 215 418T142 342T116 233Q116 150 162 103T282 56Q342 56 388 88T459 170T485 274Q485 322 464 361T405 423T316 446ZM420 726H497L400 573H339Z" horiz-adv-x="655" unicode="ά"/>
			<glyph d="M281 512Q376 512 466 469L441 410Q402 430 364 440T279 451Q217 451 184 430T152 372Q152 331 193 309T339 288L333 231Q252 230 202 222T127 192T102 132Q102 91 140 71T239 52Q297 52 339 65T424 102L442 44Q398 20 347 5T227 -10Q139 -10 83 25T27 125Q27 186 72 221T198 261Q140 267 111 297T82 369Q82 437 135 474T281 512ZM357 726H434L337 573H276Z" horiz-adv-x="495" unicode="έ"/>
			<glyph d="M378 512Q454 512 497 470T540 349Q540 320 534 288L447 -210H377L465 283Q470 313 470 337Q470 448 358 448Q289 448 235 402T169 286L118 0H49L137 502H206L190 411Q222 459 270 485T378 512ZM408 726H485L388 573H327Z" horiz-adv-x="611" unicode="ή"/>
			<glyph d="M137 502H206L144 145Q140 126 140 109Q140 53 188 53Q213 53 238 62L246 4Q209 -10 175 -10Q125 -10 97 15T70 96Q70 122 75 143ZM227 726H304L207 573H146Z" horiz-adv-x="288" unicode="ί"/>
			<glyph d="M132 502H201L157 253Q148 204 148 169Q148 114 180 83T278 53Q356 53 394 92T447 216L498 502H567L516 211Q495 96 435 43T275 -10Q178 -10 128 37T79 166Q79 208 92 273ZM392 768H459L380 628H329ZM269 690Q288 690 301 677T314 645Q314 626 301 613T269 600Q250 600 237 613T224 645Q224 664 237 677T269 690ZM466 690Q485 690 498 677T511 645Q511 626 498 613T466 600Q448 600 435 613T422 645Q422 664 435 677T466 690Z" horiz-adv-x="608" unicode="ΰ"/>
			<glyph d="M315 512Q386 512 436 479T507 389Q513 420 531 474L540 502H609Q583 423 561 300Q546 217 538 169T530 102Q530 75 540 64T568 54Q585 54 603 62L609 6Q586 -10 549 -10Q467 -10 462 74Q461 80 461 93Q435 50 385 20T268 -10Q204 -10 152 19T71 102T42 229Q42 310 79 375T178 476T315 512ZM316 446Q261 446 215 418T142 342T116 233Q116 150 162 103T282 56Q342 56 388 88T459 170T485 274Q485 322 464 361T405 423T316 446Z" horiz-adv-x="655" unicode="α"/>
			<glyph d="M376 762Q465 762 516 714T567 592Q567 516 524 470T416 407Q477 393 520 348T563 226Q563 156 531 103T441 21T307 -8Q206 -8 118 39L74 -210H6L139 545Q159 657 221 709T376 762ZM370 698Q307 698 264 661T205 533L129 102Q205 55 305 55Q392 55 442 101T493 224Q493 297 443 335T308 374H287L297 433H320Q392 437 444 473T497 584Q497 635 463 666T370 698Z" horiz-adv-x="608" unicode="β"/>
			<glyph d="M43 502H115L207 65Q307 180 368 288T447 502H521Q498 383 423 260T227 1L189 -210H120L157 0Z" horiz-adv-x="497" unicode="γ"/>
			<glyph d="M185 752H606L595 692H272L480 473Q524 427 547 377T571 265Q571 187 534 124T433 25T289 -10Q214 -10 159 21T74 108T45 236Q45 314 80 375T177 470T318 504Q348 504 372 498L173 704ZM323 446Q264 446 217 420T143 346T116 237Q116 152 164 104T294 56Q354 56 401 83T474 158T501 265Q501 345 453 395T323 446Z" horiz-adv-x="613" unicode="δ"/>
			<glyph d="M281 512Q376 512 466 469L441 410Q402 430 364 440T279 451Q217 451 184 430T152 372Q152 331 193 309T339 288L333 231Q252 230 202 222T127 192T102 132Q102 91 140 71T239 52Q297 52 339 65T424 102L442 44Q398 20 347 5T227 -10Q139 -10 83 25T27 125Q27 186 72 221T198 261Q140 267 111 297T82 369Q82 437 135 474T281 512Z" horiz-adv-x="495" unicode="ε"/>
			<glyph d="M139 752H539L530 704L239 431Q177 374 146 328T116 229Q116 182 134 153T186 108T276 76Q360 52 395 22T430 -60Q430 -100 409 -136T354 -212L296 -189Q326 -157 343 -128T361 -71Q361 -48 351 -33T315 -5T237 21Q177 38 135 59T68 119T43 221Q43 292 79 347T192 473L430 692H129Z" horiz-adv-x="480" unicode="ζ"/>
			<glyph d="M378 512Q454 512 497 470T540 349Q540 320 534 288L447 -210H377L465 283Q470 313 470 337Q470 448 358 448Q289 448 235 402T169 286L118 0H49L137 502H206L190 411Q222 459 270 485T378 512Z" horiz-adv-x="611" unicode="η"/>
			<glyph d="M370 760Q474 760 526 693T578 503Q578 358 541 234T445 55Q411 22 371 6T281 -10Q178 -10 123 55T69 250Q69 385 104 507T201 693Q266 760 370 760ZM365 695Q330 695 303 682T252 646Q218 610 193 547T154 406H502Q507 459 507 503Q507 695 365 695ZM146 347Q140 298 140 248Q140 152 177 103T287 55Q354 55 400 104Q433 139 457 203T495 347Z" horiz-adv-x="605" unicode="θ"/>
			<glyph d="M137 502H206L144 145Q140 126 140 109Q140 53 188 53Q213 53 238 62L246 4Q209 -10 175 -10Q125 -10 97 15T70 96Q70 122 75 143Z" horiz-adv-x="288" unicode="ι"/>
			<glyph d="M137 502H206L162 254L446 502H535L269 272L456 0H376L218 232L149 177L118 0H49Z" horiz-adv-x="512" unicode="κ"/>
			<glyph d="M178 753Q243 753 282 718T339 605L462 0H389L312 398L40 0H-40L294 481L272 586Q260 643 233 665T163 688Q142 688 120 682L114 743Q140 753 178 753Z" horiz-adv-x="505" unicode="λ"/>
			<glyph d="M128 502H197L147 217Q142 187 142 160Q142 107 171 79T258 52Q326 52 378 98T443 216L494 502H563L475 0H405L420 85Q388 40 341 15T238 -10Q158 -10 115 33L73 -210H4L74 191Q76 209 78 218Z" horiz-adv-x="612" unicode="μ"/>
			<glyph d="M48 502H121L213 65Q312 180 373 288T452 502H527Q504 382 428 259T232 0H163Z" horiz-adv-x="503" unicode="ν"/>
			<glyph d="M380 762Q479 762 546 709L515 646Q455 697 374 697Q307 697 271 663T235 578Q235 523 271 494T377 441L368 391Q244 391 180 350T117 232Q117 183 138 153T196 107T295 73Q344 59 372 46T417 12T434 -46Q434 -90 409 -129T346 -210L283 -192Q319 -156 340 -124T361 -62Q361 -39 348 -25T312 -1T243 20Q180 38 138 59T70 119T44 222Q44 285 74 332T158 404T279 430Q222 452 192 486T163 579Q163 632 190 673T266 738T380 762Z" horiz-adv-x="481" unicode="ξ"/>
			<glyph d="M336 512Q407 512 462 482T547 399T577 277Q577 203 544 137T446 30T290 -10Q220 -10 165 19T79 104T48 231Q48 303 80 367T178 471T336 512ZM328 446Q260 446 213 415T143 336T120 236Q120 153 168 104T298 56Q362 56 409 85T480 163T505 272Q505 352 456 399T328 446Z" unicode="ο"/>
			<glyph d="M79 502H690L679 441H541L484 120Q482 104 482 99Q482 75 493 64T522 53Q553 53 587 67L588 9Q550 -10 502 -10Q461 -10 435 12T410 77Q410 92 413 108L472 441H248L171 0H102L179 441H60Z" horiz-adv-x="673" unicode="π"/>
			<glyph d="M380 512Q453 512 507 481T589 396T617 273Q617 193 583 128T488 27T349 -10Q277 -10 224 23T147 116L89 -210H20L106 268Q126 380 199 446T380 512ZM375 446Q318 446 273 418T202 343T177 235Q177 149 226 102T349 56Q408 56 452 84T521 160T546 269Q546 349 499 397T375 446Z" horiz-adv-x="665" unicode="ρ"/>
			<glyph d="M329 512Q423 512 495 460L467 395Q439 419 403 432T325 446Q268 446 221 418T147 341T120 228Q120 160 152 124T256 64Q312 43 340 28T383 -5T397 -53Q397 -95 373 -132T310 -210L251 -192Q288 -152 307 -124T327 -69Q327 -42 301 -26T204 14Q127 41 87 89T47 223Q47 308 84 373T186 475T329 512Z" horiz-adv-x="484" unicode="ς"/>
			<glyph d="M347 502H642L631 441H488Q528 411 552 361T577 253Q577 185 543 124T446 27T296 -10Q223 -10 167 19T80 104T49 232Q49 310 84 370T187 466T347 502ZM350 441Q237 441 178 384T120 237Q120 153 168 104T299 56Q363 56 410 83T481 155T506 253Q506 298 488 337T442 404T383 441Z" horiz-adv-x="631" unicode="σ"/>
			<glyph d="M92 502H452L441 441H264L213 159Q205 114 205 92Q205 53 247 53Q279 53 321 68L322 9Q278 -10 228 -10Q185 -10 159 12T133 73Q133 102 143 152L196 441H60Z" horiz-adv-x="436" unicode="τ"/>
			<glyph d="M132 502H201L157 253Q148 204 148 169Q148 114 180 83T278 53Q356 53 394 92T447 216L498 502H567L516 211Q495 96 435 43T275 -10Q178 -10 128 37T79 166Q79 208 92 273Z" horiz-adv-x="608" unicode="υ"/>
			<glyph d="M379 710H446L410 507Q505 492 560 430T615 277Q615 201 580 136T479 31T319 -10L284 -210H217L253 -5Q159 10 103 72T48 231Q48 303 81 366T182 470T344 512ZM333 450Q263 447 215 415T143 335T120 235Q120 164 158 117T264 56ZM399 445L330 51Q396 54 444 84T517 164T542 272Q542 341 504 386T399 445Z" horiz-adv-x="662" unicode="φ"/>
			<glyph d="M133 507Q173 507 196 484T232 419L284 244L459 502H537L305 174L420 -210H346L254 118L19 -210H-56L232 188L171 395Q156 444 117 444Q98 444 78 438L79 498Q104 507 133 507Z" horiz-adv-x="488" unicode="χ"/>
			<glyph d="M408 710H476L360 52Q424 55 464 76T526 137T561 245L607 502H676L630 236Q608 109 542 51T349 -10L314 -210H246L282 -8Q178 2 130 52T82 181Q82 203 85 227T94 282L132 502H201L162 282Q155 242 152 223T150 183Q150 68 292 53Z" horiz-adv-x="719" unicode="ψ"/>
			<glyph d="M155 502H231Q179 425 149 341T120 181Q120 60 195 60Q244 60 283 125T347 331H419Q402 233 402 189Q402 58 481 58Q546 58 578 141T610 343Q610 385 604 427T589 502H660Q669 472 675 429T682 345Q682 191 630 90T474 -10Q414 -10 382 29T351 137V157Q329 76 284 33T183 -10Q46 -10 46 175Q46 261 75 347T155 502Z" horiz-adv-x="729" unicode="ω"/>
			<glyph d="M137 502H206L144 145Q140 126 140 109Q140 53 188 53Q213 53 238 62L246 4Q209 -10 175 -10Q125 -10 97 15T70 96Q70 122 75 143ZM113 715Q134 715 148 700T163 665Q163 644 148 629T113 614Q91 614 76 629T62 665Q62 686 76 700T113 715ZM281 715Q302 715 316 700T331 665Q331 644 316 629T281 614Q259 614 244 629T230 665Q230 686 244 700T281 715Z" horiz-adv-x="288" unicode="ϊ"/>
			<glyph d="M132 502H201L157 253Q148 204 148 169Q148 114 180 83T278 53Q356 53 394 92T447 216L498 502H567L516 211Q495 96 435 43T275 -10Q178 -10 128 37T79 166Q79 208 92 273ZM262 714Q283 714 297 699T312 665Q312 644 297 630T262 616Q242 616 227 630T213 665Q213 685 227 699T262 714ZM472 714Q493 714 507 699T522 665Q522 644 507 630T472 616Q452 616 437 630T423 665Q423 685 437 699T472 714Z" horiz-adv-x="608" unicode="ϋ"/>
			<glyph d="M336 512Q407 512 462 482T547 399T577 277Q577 203 544 137T446 30T290 -10Q220 -10 165 19T79 104T48 231Q48 303 80 367T178 471T336 512ZM328 446Q260 446 213 415T143 336T120 236Q120 153 168 104T298 56Q362 56 409 85T480 163T505 272Q505 352 456 399T328 446ZM390 726H467L370 573H309Z" unicode="ό"/>
			<glyph d="M132 502H201L157 253Q148 204 148 169Q148 114 180 83T278 53Q356 53 394 92T447 216L498 502H567L516 211Q495 96 435 43T275 -10Q178 -10 128 37T79 166Q79 208 92 273ZM398 726H475L378 573H317Z" horiz-adv-x="608" unicode="ύ"/>
			<glyph d="M155 502H231Q179 425 149 341T120 181Q120 60 195 60Q244 60 283 125T347 331H419Q402 233 402 189Q402 58 481 58Q546 58 578 141T610 343Q610 385 604 427T589 502H660Q669 472 675 429T682 345Q682 191 630 90T474 -10Q414 -10 382 29T351 137V157Q329 76 284 33T183 -10Q46 -10 46 175Q46 261 75 347T155 502ZM464 726H541L444 573H383Z" horiz-adv-x="729" unicode="ώ"/>
			<glyph d="M310 710H382L345 502H544L517 349H452L469 443H335L256 0H184L263 443H123L106 349H41L69 502H273Z" horiz-adv-x="525" unicode="ϯ"/>
			<glyph d="M177 710H565L553 642H239L195 389H499L487 323H183L137 68H459L447 0H51ZM266 917H340L435 774H369Z" horiz-adv-x="569" unicode="Ѐ"/>
			<glyph d="M177 710H565L553 642H239L195 389H499L487 323H183L137 68H459L447 0H51ZM276 895Q297 895 311 880T326 846Q326 825 311 811T276 797Q256 797 241 811T227 846Q227 866 241 880T276 895ZM486 895Q507 895 521 880T536 846Q536 825 521 811T486 797Q466 797 451 811T437 846Q437 866 451 880T486 895Z" horiz-adv-x="569" unicode="Ё"/>
			<glyph d="M107 710H579L566 643H373L327 383Q441 452 552 452Q650 452 703 399T756 250Q756 177 725 118T635 24T493 -10Q430 -10 387 11L415 78Q450 57 505 57Q594 57 637 109T681 237Q681 309 642 347T532 385Q482 385 426 367T315 316L259 0H185L299 643H95Z" horiz-adv-x="793" unicode="Ђ"/>
			<glyph d="M177 710H561L548 642H239L125 0H51ZM444 917H526L383 774H315Z" horiz-adv-x="509" unicode="Ѓ"/>
			<glyph d="M475 720Q611 720 706 638L675 570Q634 608 582 629T470 650Q387 650 319 616T207 522T151 386H547L535 320H146Q149 199 219 129T409 60Q473 60 532 82T642 140L663 72Q543 -10 404 -10Q304 -10 229 29T113 143T72 321Q72 436 124 527T268 669T475 720Z" horiz-adv-x="728" unicode="Є"/>
			<glyph d="M359 721Q411 721 458 708T542 674L514 605Q440 654 354 654Q280 654 235 621T190 529Q190 494 206 470T250 429T333 385Q396 355 429 333T482 278T502 194Q502 97 436 43T254 -10Q117 -10 24 66L54 136Q91 100 143 79T259 58Q336 58 381 91T427 190Q427 223 414 243T375 280T289 326Q224 359 189 382T135 439T115 521Q115 587 148 632T236 699T359 721Z" horiz-adv-x="561" unicode="Ѕ"/>
			<glyph d="M177 710H251L125 0H51Z" horiz-adv-x="265" unicode="І"/>
			<glyph d="M177 710H251L125 0H51ZM123 895Q144 895 158 880T173 846Q173 825 158 811T123 797Q103 797 88 811T74 846Q74 866 88 880T123 895ZM333 895Q354 895 368 880T383 846Q383 825 368 811T333 797Q313 797 298 811T284 846Q284 866 298 880T333 895Z" horiz-adv-x="265" unicode="Ї"/>
			<glyph d="M305 710H379L294 226Q272 103 219 46T73 -10Q8 -10 -36 13L-13 79Q29 57 71 57Q134 57 169 97T221 229Z" horiz-adv-x="384" unicode="Ј"/>
			<glyph d="M252 710H620L566 406H724Q821 406 871 361T922 230Q922 159 888 107T794 27T652 0H420L534 643H306L166 131Q147 60 114 26T19 -7Q-13 -7 -44 5L-19 73Q-13 68 0 64T26 60Q55 60 70 81T100 154ZM555 341L506 66H653Q743 66 794 107T845 223Q845 341 702 341Z" horiz-adv-x="962" unicode="Љ"/>
			<glyph d="M177 710H251L197 407H574L628 710H702L648 406H806Q903 406 953 361T1004 230Q1004 159 970 107T876 27T734 0H502L563 341H186L125 0H51ZM637 341L588 66H735Q825 66 876 107T927 223Q927 341 784 341Z" horiz-adv-x="1043" unicode="Њ"/>
			<glyph d="M107 710H579L566 643H373L325 371Q377 407 438 428T563 450Q653 450 697 412T741 306Q741 286 736 256L691 0H617L661 250Q665 274 665 285Q665 383 541 383Q487 383 427 363T314 308L259 0H185L299 643H95Z" horiz-adv-x="821" unicode="Ћ"/>
			<glyph d="M177 709H251L194 388H244L569 709H663L303 362L565 -1H479L244 324H183L125 -1H51ZM491 917H573L430 774H362Z" horiz-adv-x="631" unicode="Ќ"/>
			<glyph d="M177 710H250L145 119L676 710H746L620 0H547L651 586L121 0H51ZM349 917H423L518 774H452Z" horiz-adv-x="760" unicode="Ѝ"/>
			<glyph d="M109 710H188L340 235L627 710H705L371 164Q334 103 305 67T235 11T138 -10Q80 -10 37 11L66 76Q101 56 148 56Q193 56 224 80T292 161ZM264 890H320Q318 882 318 874Q318 828 416 828Q471 828 500 843T535 890H592Q566 778 414 778Q345 778 303 801T261 866Q261 880 264 890Z" horiz-adv-x="632" unicode="Ў"/>
			<glyph d="M176 710H250L137 67H530L643 710H717L592 0H363L334 -167H266L296 0H51Z" horiz-adv-x="732" unicode="Џ"/>
			<glyph d="M364 710H442L589 0H515L469 231H171L44 0H-35ZM389 626L205 293H456Z" horiz-adv-x="642" unicode="А"/>
			<glyph d="M177 710H542L530 642H239L197 406H355Q452 406 502 361T553 230Q553 159 519 107T425 27T283 0H51ZM186 341L137 66H284Q374 66 425 107T476 223Q476 341 333 341Z" horiz-adv-x="593" unicode="Б"/>
			<glyph d="M176 710H329Q425 710 476 666T527 548Q527 489 498 442T407 370Q468 358 501 318T535 214Q535 114 468 57T285 0H51ZM238 645L194 390H285Q363 390 408 430T453 536Q453 592 417 618T311 645ZM183 326L137 65H292Q370 65 415 105T461 209Q461 266 427 296T333 326Z" horiz-adv-x="574" unicode="В"/>
			<glyph d="M177 710H561L548 642H239L125 0H51Z" horiz-adv-x="509" unicode="Г"/>
			<glyph d="M282 710H652L538 67H622L580 -167H512L541 0H42L13 -167H-55L-13 67H13Q31 67 61 84T123 144T171 257ZM338 643L240 248Q222 172 191 130T118 67H464L566 643Z" horiz-adv-x="700" unicode="Д"/>
			<glyph d="M177 710H565L553 642H239L195 389H499L487 323H183L137 68H459L447 0H51Z" horiz-adv-x="569" unicode="Е"/>
			<glyph d="M133 709H218L433 388H490L547 709H619L562 388H614L940 709H1033L674 364L937 -1H850L614 324H551L493 -1H421L479 324H419L71 -1H-23L369 364Z" horiz-adv-x="1002" unicode="Ж"/>
			<glyph d="M322 720Q420 720 471 675T523 550Q523 477 479 433T350 372Q425 359 462 315T499 204Q499 140 468 91T378 15T240 -11Q159 -11 99 15T8 84L52 142Q82 103 131 79T246 56Q332 56 379 95T426 199Q426 340 200 340L206 401Q325 402 386 439T448 545Q448 597 413 625T310 654Q256 654 212 636T124 584L95 642Q192 720 322 720Z" horiz-adv-x="548" unicode="З"/>
			<glyph d="M177 710H250L145 119L676 710H746L620 0H547L651 586L121 0H51Z" horiz-adv-x="760" unicode="И"/>
			<glyph d="M177 710H250L145 119L676 710H746L620 0H547L651 586L121 0H51ZM318 890H374Q372 882 372 874Q372 828 470 828Q525 828 554 843T589 890H646Q620 778 468 778Q399 778 357 801T315 866Q315 880 318 890Z" horiz-adv-x="760" unicode="Й"/>
			<glyph d="M177 709H251L194 388H244L569 709H663L303 362L565 -1H479L244 324H183L125 -1H51Z" horiz-adv-x="631" unicode="К"/>
			<glyph d="M252 710H641L516 0H442L555 643H306L166 131Q147 60 114 26T19 -7Q-13 -7 -44 5L-19 73Q-13 68 0 64T25 60Q54 60 70 81T100 154Z" horiz-adv-x="655" unicode="Л"/>
			<glyph d="M177 710H257L434 342L743 710H831L705 0H631L738 604L448 258H396L231 604L124 0H51Z" horiz-adv-x="845" unicode="М"/>
			<glyph d="M177 710H251L194 389H597L654 710H728L602 0H528L585 322H182L125 0H51Z" horiz-adv-x="743" unicode="Н"/>
			<glyph d="M478 720Q579 720 655 678T774 561T816 389Q816 281 766 189T624 44T412 -10Q312 -10 234 32T114 150T72 324Q72 435 123 525T267 667T478 720ZM471 649Q377 649 303 606T189 490T148 328Q148 250 182 189T278 95T420 61Q512 61 585 105T699 223T740 384Q740 462 706 522T611 615T471 649Z" horiz-adv-x="853" unicode="О"/>
			<glyph d="M177 710H718L592 0H518L632 643H239L125 0H51Z" horiz-adv-x="733" unicode="П"/>
			<glyph d="M176 710H352Q471 710 530 659T589 513Q589 441 556 384T460 296T307 265H172L126 0H52ZM238 644L184 330H314Q406 330 459 377T513 508Q513 582 468 613T335 644Z" horiz-adv-x="579" unicode="Р"/>
			<glyph d="M474 720Q611 720 706 638L675 568Q634 607 582 628T470 649Q382 649 307 605T190 487T147 329Q147 251 180 190T273 95T409 61Q473 61 532 83T642 142L663 72Q545 -10 405 -10Q309 -10 233 31T115 148T72 321Q72 433 126 524T272 668T474 720Z" horiz-adv-x="728" unicode="С"/>
			<glyph d="M107 710H579L566 643H373L259 0H185L299 643H95Z" horiz-adv-x="527" unicode="Т"/>
			<glyph d="M109 710H188L340 235L627 710H705L371 164Q334 103 305 67T235 11T138 -10Q80 -10 37 11L66 76Q101 56 148 56Q193 56 224 80T292 161Z" horiz-adv-x="632" unicode="У"/>
			<glyph d="M476 722H547L534 648Q671 636 749 569T827 386Q827 288 775 215T633 102T431 60L418 -12H347L360 62Q224 74 145 141T66 327Q66 425 117 497T259 608T463 650ZM452 587Q363 584 292 554T181 468T140 335Q140 243 201 190T371 126ZM523 584L442 123Q532 125 602 155T712 242T752 376Q752 468 691 520T523 584Z" horiz-adv-x="855" unicode="Ф"/>
			<glyph d="M121 710H202L351 414L593 710H680L382 352L560 0H480L331 299L79 0H-10L299 360Z" horiz-adv-x="637" unicode="Х"/>
			<glyph d="M176 710H250L137 67H514L627 710H701L588 67H671L629 -167H561L591 0H51Z" horiz-adv-x="750" unicode="Ц"/>
			<glyph d="M149 710H224L182 473Q177 448 177 425Q177 374 206 348T299 323Q357 323 420 344T537 404L592 710H666L540 1H466L527 341Q406 257 279 257Q195 257 147 295T100 403Q100 429 105 459Z" horiz-adv-x="680" unicode="Ч"/>
			<glyph d="M177 710H251L137 67H485L599 710H673L559 67H907L1021 710H1095L969 0H51Z" horiz-adv-x="1110" unicode="Ш"/>
			<glyph d="M177 710H251L137 67H485L599 710H673L559 67H907L1021 710H1095L981 67H1071L1030 -167H962L991 0H51Z" horiz-adv-x="1150" unicode="Щ"/>
			<glyph d="M107 710H383L329 406H487Q584 406 634 361T685 230Q685 159 651 107T557 27T415 0H183L297 642H95ZM318 341L269 66H416Q506 66 557 107T608 223Q608 341 465 341Z" horiz-adv-x="724" unicode="Ъ"/>
			<glyph d="M177 710H251L197 406H355Q452 406 502 361T553 230Q553 159 519 107T425 27T283 0H51ZM186 341L137 66H284Q374 66 425 107T476 223Q476 341 333 341ZM770 710H844L718 0H644Z" horiz-adv-x="858" unicode="Ы"/>
			<glyph d="M177 710H251L197 406H355Q452 406 502 361T553 230Q553 159 519 107T425 27T283 0H51ZM186 341L137 66H284Q374 66 425 107T476 223Q476 341 333 341Z" horiz-adv-x="593" unicode="Ь"/>
			<glyph d="M361 720Q461 720 536 680T652 566T693 389Q693 274 641 183T497 41T290 -10Q154 -10 59 72L90 140Q131 102 183 81T295 60Q378 60 446 94T558 188T614 324H218L230 390H619Q616 511 546 580T356 650Q292 650 232 628T123 570L102 638Q222 720 361 720Z" horiz-adv-x="728" unicode="Э"/>
			<glyph d="M733 720Q834 720 910 678T1029 561T1071 389Q1071 281 1021 189T879 44T667 -10Q567 -10 490 32T370 149T327 322H182L125 0H51L177 710H251L194 389H332Q347 484 400 559T540 677T733 720ZM726 649Q632 649 558 606T444 490T403 328Q403 250 437 189T533 95T675 61Q767 61 840 105T954 223T995 384Q995 462 961 522T866 615T726 649Z" horiz-adv-x="1108" unicode="Ю"/>
			<glyph d="M389 710H592L466 0H392L445 297H326Q314 297 294 299L62 0H-27L225 316Q177 337 151 379T125 480Q125 545 156 597T247 679T389 710ZM384 644Q292 644 246 600T200 484Q200 360 336 360H456L506 644Z" horiz-adv-x="606" unicode="Я"/>
			<glyph d="M307 512Q392 512 442 469T493 344Q493 320 487 276L440 0H370L383 74Q352 37 305 13T199 -10Q129 -10 86 25T44 126Q44 222 139 260T422 301Q425 325 425 337Q425 392 394 421T302 450Q252 450 206 432T125 390L110 452Q146 477 197 494T307 512ZM415 250Q312 249 247 238T150 202T117 132Q117 89 144 68T218 48Q259 48 300 64T371 118T410 215Q411 223 412 232T415 250Z" horiz-adv-x="567" unicode="а"/>
			<glyph d="M604 764L609 701Q585 696 503 688Q444 682 421 679Q335 668 286 638T212 553T168 403Q206 450 261 479T385 508Q483 508 542 448T602 279Q602 199 568 133T474 28T333 -10Q265 -10 209 19T120 114T86 280Q86 317 95 384Q112 497 143 568T236 682T408 739Q491 749 495 750Q577 759 604 764ZM371 445Q299 445 242 405T154 311L153 278Q153 163 206 108T339 54Q396 54 439 82T507 159T531 271Q531 355 488 400T371 445Z" horiz-adv-x="650" unicode="б"/>
			<glyph d="M137 502H337Q403 502 437 470T472 389Q472 342 441 309T364 268Q412 259 439 228T466 147Q466 76 411 38T264 0H49ZM196 446L169 287H284Q338 287 370 315T403 383Q403 413 382 429T323 446ZM159 234L128 55H265Q330 55 363 80T397 151Q397 193 368 213T279 234Z" horiz-adv-x="534" unicode="в"/>
			<glyph d="M289 512Q359 512 398 481T438 389Q438 337 412 305T347 257T252 227Q206 216 178 205T131 175T112 123Q112 88 137 69T210 50Q255 50 301 65T380 104L388 43Q356 20 307 5T205 -10Q127 -10 84 23T42 118Q42 192 94 227T226 283Q272 293 300 303T348 333T368 384Q368 417 345 434T278 452Q208 452 130 409L125 470Q157 488 200 500T289 512Z" horiz-adv-x="470" unicode="г"/>
			<glyph d="M205 764Q227 739 252 719T320 672Q420 608 475 557T554 448T579 312Q579 219 544 146T444 31T288 -10Q217 -10 162 18T77 100T47 226Q47 309 85 372T188 470T325 505Q430 505 500 421Q477 464 448 494T383 552T278 622Q230 653 208 669T162 711ZM331 442Q274 442 225 416T148 343T119 231Q119 149 166 102T292 56Q355 56 403 85T479 163T506 272Q506 352 456 397T331 442Z" horiz-adv-x="621" unicode="д"/>
			<glyph d="M322 512Q387 512 435 484T509 406T535 291L533 247H118Q117 241 117 229Q117 146 165 99T294 53Q397 53 485 124L497 62Q458 29 404 9T286 -10Q212 -10 158 19T76 101T48 222Q48 309 83 374T180 476T322 512ZM317 450Q247 450 196 410T126 302H464Q462 366 423 408T317 450Z" horiz-adv-x="580" unicode="е"/>
			<glyph d="M59 502H137L312 290H343L380 502H448L410 290H438L679 502H764L492 262L690 0H611L436 234H400L359 0H292L333 234H304L51 0H-35L256 266Z" horiz-adv-x="743" unicode="ж"/>
			<glyph d="M263 512Q343 512 390 479T437 391Q437 338 395 303T274 262Q417 245 417 140Q417 67 355 28T197 -10Q138 -10 87 6T0 46L24 106Q102 53 203 53Q268 53 306 76T345 145Q345 187 301 209T150 232L160 288Q366 288 366 381Q366 416 337 433T255 450Q171 450 102 406L89 465Q175 512 263 512Z" horiz-adv-x="485" unicode="з"/>
			<glyph d="M128 502H197L147 217Q142 187 142 160Q142 107 171 79T258 52Q326 52 378 98T443 216L494 502H563L475 0H405L420 85Q388 40 341 15T238 -10Q161 -10 116 31T72 150Q72 185 78 218Z" horiz-adv-x="612" unicode="и"/>
			<glyph d="M128 502H197L147 217Q142 187 142 160Q142 107 171 79T258 52Q326 52 378 98T443 216L494 502H563L475 0H405L420 85Q388 40 341 15T238 -10Q161 -10 116 31T72 150Q72 185 78 218ZM218 725H274Q272 715 272 706Q272 668 297 651T361 635Q406 635 434 657T469 725H525Q514 659 470 621T356 584Q293 584 254 614T215 699Q215 713 218 725Z" horiz-adv-x="612" unicode="й"/>
			<glyph d="M137 502H205L167 290H198L442 502H525L246 257L447 0H366L186 234H157L116 0H49Z" horiz-adv-x="500" unicode="к"/>
			<glyph d="M222 502H576L486 0H417L496 441H273L177 118Q157 52 129 22T52 -7Q11 -7 -17 9L5 71Q11 67 24 63T50 59Q73 59 87 78T116 148Z" unicode="л"/>
			<glyph d="M137 502H210L352 147L618 502H699L610 0H543L612 395L366 70H315L185 395L115 0H49Z" horiz-adv-x="747" unicode="м"/>
			<glyph d="M137 502H206L168 283H458L496 502H566L477 0H408L447 223H157L118 0H49Z" horiz-adv-x="614" unicode="н"/>
			<glyph d="M336 512Q407 512 462 482T547 399T577 277Q577 203 544 137T446 30T290 -10Q220 -10 165 19T79 104T48 231Q48 303 80 367T178 471T336 512ZM328 446Q260 446 213 415T143 336T120 236Q120 153 168 104T298 56Q362 56 409 85T480 163T505 272Q505 352 456 399T328 446Z" unicode="о"/>
			<glyph d="M378 512Q454 512 497 470T540 349Q540 320 534 288L484 0H414L465 283Q470 313 470 337Q470 448 358 448Q289 448 235 402T169 286L118 0H49L137 502H206L190 411Q222 459 270 485T378 512Z" horiz-adv-x="611" unicode="п"/>
			<glyph d="M377 512Q442 512 491 482T568 398T595 277Q595 197 559 131T461 28T326 -10Q262 -10 211 20T136 112L82 -210H12L137 502H206L192 427Q226 468 273 490T377 512ZM359 446Q301 446 255 417T184 338T159 231Q159 154 204 104T324 55Q378 55 424 83T496 161T523 272Q523 349 478 397T359 446Z" horiz-adv-x="643" unicode="р"/>
			<glyph d="M329 512Q419 512 493 460L465 396Q403 446 325 446Q267 446 220 418T146 339T119 224Q119 147 163 101T288 55Q373 55 448 109L460 44Q428 21 381 5T281 -10Q209 -10 156 19T74 100T46 219Q46 303 82 370T183 474T329 512Z" horiz-adv-x="517" unicode="с"/>
			<glyph d="M357 513Q415 513 451 486T498 406Q531 458 577 485T680 513Q749 513 788 474T827 360Q827 342 821 294L769 0H700L751 290Q757 320 757 343Q757 395 731 422T659 450Q598 450 551 403T494 286L444 0H374L425 290Q431 320 431 345Q431 395 406 422T335 450Q294 450 258 426T199 365T169 288L118 0H49L137 502H206L192 419Q220 463 262 488T357 513Z" horiz-adv-x="897" unicode="т"/>
			<glyph d="M43 502H115L224 103L450 502H526L197 -69Q151 -149 106 -182T-5 -215Q-46 -215 -68 -206L-47 -143Q-32 -149 -3 -149Q37 -149 67 -128T132 -50L177 23Z" horiz-adv-x="487" unicode="у"/>
			<glyph d="M542 752H610L550 408Q616 512 728 512Q787 512 832 483T902 402T928 280Q928 204 898 137T812 30T679 -10Q539 -10 501 130L441 -210H372L424 84Q362 -10 254 -10Q190 -10 143 20T72 102T48 223Q48 304 81 370T174 474T308 512Q372 512 414 480T476 380ZM307 446Q256 446 213 419T145 343T120 232Q120 152 160 104T269 56Q324 56 366 87T430 170T453 279Q453 355 414 400T307 446ZM710 446Q660 446 617 416T548 337T523 229Q523 154 565 105T678 56Q731 56 771 85T834 164T856 271Q856 352 815 399T710 446Z" horiz-adv-x="976" unicode="ф"/>
			<glyph d="M67 502H145L259 305L435 502H521L292 256L445 0H369L247 211L55 0H-31L213 261Z" horiz-adv-x="503" unicode="х"/>
			<glyph d="M128 502H197L147 217Q142 187 142 160Q142 107 171 79T258 52Q326 52 378 98T443 216L494 502H563L486 60H563L527 -146H461L488 0H405L420 85Q388 40 341 15T238 -10Q161 -10 116 31T72 150Q72 185 78 218Z" horiz-adv-x="623" unicode="ц"/>
			<glyph d="M101 502H170L147 370Q140 331 140 300Q140 219 252 219Q334 219 417 263L459 502H528L440 0H371L407 202Q374 185 329 172T234 159Q154 159 111 193T69 290Q69 320 77 370Z" horiz-adv-x="577" unicode="ч"/>
			<glyph d="M137 502H206L155 212Q149 182 149 159Q149 107 174 79T247 52Q304 52 349 93T410 200L411 208L463 502H532L481 212Q475 182 475 157Q475 106 499 79T571 52Q612 52 647 75T707 136T738 214L788 502H858L769 0H700L714 82Q686 38 643 13T549 -11Q492 -11 455 15T408 95Q341 -11 226 -11Q157 -11 118 27T79 141Q79 165 86 207Z" horiz-adv-x="906" unicode="ш"/>
			<glyph d="M137 502H206L155 212Q149 182 149 159Q149 107 174 79T247 52Q304 52 349 93T410 200L411 208L463 502H532L481 212Q475 182 475 157Q475 106 499 79T571 52Q612 52 647 75T707 136T738 214L788 502H858L780 60H861L824 -146H759L785 0H700L714 82Q686 38 643 13T549 -11Q492 -11 455 15T408 95Q341 -11 226 -11Q157 -11 118 27T79 141Q79 165 86 207Z" horiz-adv-x="921" unicode="щ"/>
			<glyph d="M63 502H306L269 291H401Q477 291 521 255T566 154Q566 82 513 41T372 0H149L226 441H52ZM259 237L228 55H373Q432 55 466 81T500 153Q500 194 471 215T388 237Z" horiz-adv-x="604" unicode="ъ"/>
			<glyph d="M137 502H206L169 291H301Q377 291 421 255T466 154Q466 82 413 41T272 0H49ZM609 502H678L590 0H521ZM159 237L128 55H273Q332 55 366 81T400 153Q400 194 371 215T288 237Z" horiz-adv-x="727" unicode="ы"/>
			<glyph d="M137 502H206L169 291H301Q377 291 421 255T466 154Q466 82 413 41T272 0H49ZM159 237L128 55H273Q332 55 366 81T400 153Q400 194 371 215T288 237Z" horiz-adv-x="505" unicode="ь"/>
			<glyph d="M242 512Q342 512 403 453T465 291Q465 209 426 140T318 30T165 -10Q72 -10 4 42L35 101Q95 51 172 51Q252 51 310 99T388 222H90L100 279H397V286Q397 362 352 406T231 451Q189 451 147 437T69 398L57 458Q92 482 141 497T242 512Z" horiz-adv-x="509" unicode="э"/>
			<glyph d="M582 512Q653 512 708 482T793 399T823 277Q823 203 790 137T692 30T536 -10Q467 -10 413 18T327 100T294 223H157L118 0H49L137 502H206L168 283H299Q309 345 344 397T440 480T582 512ZM574 446Q506 446 459 415T389 336T366 236Q366 153 414 104T544 56Q608 56 655 85T726 163T751 272Q751 352 702 399T574 446Z" horiz-adv-x="870" unicode="ю"/>
			<glyph d="M279 503H483L395 1H325L362 212H240L71 0H-9L172 220Q129 233 104 265T79 345Q79 420 135 461T279 503ZM279 448Q219 448 185 421T151 348Q151 308 176 287T251 266H372L405 448Z" horiz-adv-x="531" unicode="я"/>
			<glyph d="M322 512Q387 512 435 484T509 406T535 291L533 247H118Q117 241 117 229Q117 146 165 99T294 53Q397 53 485 124L497 62Q458 29 404 9T286 -10Q212 -10 158 19T76 101T48 222Q48 309 83 374T180 476T322 512ZM317 450Q247 450 196 410T126 302H464Q462 366 423 408T317 450ZM230 725H304L391 573H326Z" horiz-adv-x="580" unicode="ѐ"/>
			<glyph d="M322 512Q387 512 435 484T509 406T535 291L533 247H118Q117 241 117 229Q117 146 165 99T294 53Q397 53 485 124L497 62Q458 29 404 9T286 -10Q212 -10 158 19T76 101T48 222Q48 309 83 374T180 476T322 512ZM317 450Q247 450 196 410T126 302H464Q462 366 423 408T317 450ZM236 714Q257 714 271 699T286 665Q286 644 271 630T236 616Q216 616 201 630T187 665Q187 685 201 699T236 714ZM446 714Q467 714 481 699T496 665Q496 644 481 630T446 616Q426 616 411 630T397 665Q397 685 411 699T446 714Z" horiz-adv-x="580" unicode="ё"/>
			<glyph d="M182 752H251L234 653H391L380 596H224L190 405Q223 453 274 480T389 508Q460 508 500 467T541 351Q541 321 535 283L475 -61Q460 -143 424 -181T333 -219Q291 -219 268 -209L281 -146Q301 -154 331 -154Q361 -154 379 -131T407 -49L466 286Q471 316 471 335Q471 389 442 417T360 446Q314 446 273 425T205 367T169 283L119 0H50L155 596H70L79 653H165Z" horiz-adv-x="614" unicode="ђ"/>
			<glyph d="M289 512Q359 512 398 481T438 389Q438 337 412 305T347 257T252 227Q206 216 178 205T131 175T112 123Q112 88 137 69T210 50Q255 50 301 65T380 104L388 43Q356 20 307 5T205 -10Q127 -10 84 23T42 118Q42 192 94 227T226 283Q272 293 300 303T348 333T368 384Q368 417 345 434T278 452Q208 452 130 409L125 470Q157 488 200 500T289 512ZM376 725H457L305 573H237Z" horiz-adv-x="470" unicode="ѓ"/>
			<glyph d="M344 512Q437 512 505 460L474 401Q414 451 337 451Q257 451 199 402T121 280H419L409 223H112V216Q112 140 157 95T278 51Q320 51 362 65T440 104L452 44Q417 20 367 5T267 -10Q167 -10 105 48T44 211Q44 293 83 362T191 471T344 512Z" horiz-adv-x="509" unicode="є"/>
			<glyph d="M277 512Q365 512 433 469L408 409Q380 429 348 441T272 453Q223 453 190 435T158 380Q158 353 181 334T271 286Q325 261 348 248T389 210T406 148Q406 77 352 33T205 -10Q149 -10 103 5T32 44L58 104Q84 80 125 64T212 49Q268 49 301 73T335 137Q335 161 321 177T288 203T227 232Q177 253 148 270T103 312T87 371Q87 437 140 474T277 512Z" horiz-adv-x="471" unicode="ѕ"/>
			<glyph d="M137 502H206L118 0H49ZM198 718Q220 718 235 703T250 665Q250 642 235 627T198 612Q175 612 160 627T145 665Q145 688 160 703T198 718Z" horiz-adv-x="255" unicode="і"/>
			<glyph d="M137 502H206L118 0H49ZM112 715Q133 715 147 700T162 665Q162 644 147 629T112 614Q90 614 75 629T61 665Q61 686 75 700T112 715ZM280 715Q301 715 315 700T330 665Q330 644 315 629T280 614Q258 614 243 629T229 665Q229 686 243 700T280 715Z" horiz-adv-x="255" unicode="ї"/>
			<glyph d="M139 502H208L110 -61Q95 -144 60 -181T-32 -219Q-74 -219 -97 -209L-84 -146Q-64 -154 -33 -154Q-3 -154 14 -131T42 -49ZM197 718Q219 718 234 703T249 665Q249 642 234 627T197 612Q174 612 159 627T144 665Q144 688 159 703T197 718Z" horiz-adv-x="258" unicode="ј"/>
			<glyph d="M222 502H548L511 291H643Q719 291 763 255T808 154Q808 82 755 41T614 0H391L468 441H273L177 118Q157 52 129 22T52 -7Q11 -7 -17 9L5 71Q11 67 24 63T49 59Q73 59 87 79T117 152ZM501 237L470 55H615Q674 55 708 81T742 153Q742 194 713 215T630 237Z" horiz-adv-x="846" unicode="љ"/>
			<glyph d="M137 502H206L169 291H433L470 502H539L502 291H634Q710 291 754 255T799 154Q799 82 746 41T605 0H382L422 231H158L118 0H49ZM492 237L461 55H606Q665 55 699 81T733 153Q733 194 704 215T621 237Z" horiz-adv-x="838" unicode="њ"/>
			<glyph d="M182 752H251L234 653H391L380 596H224L190 405Q223 453 274 480T389 508Q460 508 500 467T541 351Q541 321 535 283L485 0H416L466 286Q471 316 471 335Q471 389 442 417T360 446Q314 446 273 425T205 367T169 283L119 0H50L155 596H70L79 653H165Z" horiz-adv-x="613" unicode="ћ"/>
			<glyph d="M137 502H205L167 290H198L442 502H525L246 257L447 0H366L186 234H157L116 0H49ZM398 725H479L327 573H259Z" horiz-adv-x="500" unicode="ќ"/>
			<glyph d="M128 502H197L147 217Q142 187 142 160Q142 107 171 79T258 52Q326 52 378 98T443 216L494 502H563L475 0H405L420 85Q388 40 341 15T238 -10Q161 -10 116 31T72 150Q72 185 78 218ZM250 725H324L411 573H346Z" horiz-adv-x="612" unicode="ѝ"/>
			<glyph d="M43 502H115L224 103L450 502H526L197 -69Q151 -149 106 -182T-5 -215Q-46 -215 -68 -206L-47 -143Q-32 -149 -3 -149Q37 -149 67 -128T132 -50L177 23ZM153 725H209Q207 715 207 706Q207 668 232 651T296 635Q341 635 369 657T404 725H460Q449 659 405 621T291 584Q228 584 189 614T150 699Q150 713 153 725Z" horiz-adv-x="487" unicode="ў"/>
			<glyph d="M128 502H197L147 217Q142 187 142 160Q142 107 171 79T258 52Q326 52 378 98T443 216L494 502H563L475 0H405L420 85Q395 50 359 26T281 -6L257 -146H191L216 -9Q148 -3 110 37T72 150Q72 185 78 218Z" horiz-adv-x="612" unicode="џ"/>
			<glyph d="M517 850H585L548 642H239L125 0H51L177 710H493Z" horiz-adv-x="505" unicode="Ґ"/>
			<glyph d="M390 624H456L424 441H196L118 0H49L137 502H369Z" horiz-adv-x="420" unicode="ґ"/>
			<glyph d="M177 710H561L548 642H239L191 370H411L400 305H179L125 0H51L105 305H28L39 370H117Z" horiz-adv-x="509" unicode="Ғ"/>
			<glyph d="M137 502H434L424 441H196L166 270H337L326 214H156L118 0H49L87 214H9L19 270H96Z" horiz-adv-x="420" unicode="ғ"/>
			<glyph d="M133 709H218L433 388H490L547 709H619L562 388H614L940 709H1033L674 364L888 67H981L939 -167H871L901 -1H850L614 324H551L493 -1H421L479 324H419L71 -1H-23L369 364Z" horiz-adv-x="1051" unicode="Җ"/>
			<glyph d="M59 502H137L312 290H343L380 502H448L410 290H438L679 502H764L492 262L645 60H727L690 -146H625L651 0H611L436 234H400L359 0H292L333 234H304L51 0H-35L256 266Z" horiz-adv-x="787" unicode="җ"/>
			<glyph d="M177 709H251L194 388H244L569 709H663L303 362L516 67H610L568 -167H500L530 -1H479L244 324H183L125 -1H51Z" horiz-adv-x="679" unicode="Қ"/>
			<glyph d="M137 502H205L167 290H198L442 502H525L246 257L400 60H482L445 -146H379L406 0H366L186 234H157L116 0H49Z" horiz-adv-x="542" unicode="қ"/>
			<glyph d="M167 709H241L184 388H260L294 584H352L320 404L607 709H697L364 359L595 -1H511L306 322L269 111H211L248 324H173L115 -1H41Z" horiz-adv-x="660" unicode="Ҝ"/>
			<glyph d="M137 502H205L167 290H230L251 407H302L281 290H293L482 502H562L343 260L475 0H401L287 234H272L249 105H197L220 234H157L116 0H49Z" horiz-adv-x="529" unicode="ҝ"/>
			<glyph d="M177 710H251L194 389H597L654 710H728L614 67H708L666 -167H598L628 0H528L585 322H182L125 0H51Z" horiz-adv-x="787" unicode="Ң"/>
			<glyph d="M137 502H206L168 283H458L496 502H566L488 60H570L533 -146H468L494 0H408L447 223H157L118 0H49Z" horiz-adv-x="631" unicode="ң"/>
			<glyph d="M105 710H183L329 355L600 710H684L357 286L306 0H231L282 284Z" horiz-adv-x="628" unicode="Ү"/>
			<glyph d="M48 502H121L213 89L450 502H527L235 11L196 -210H127L166 11Z" horiz-adv-x="487" unicode="ү"/>
			<glyph d="M121 710H202L351 414L593 710H680L382 352L526 67H611L570 -167H502L531 0H480L331 299L79 0H-10L299 360Z" horiz-adv-x="681" unicode="Ҳ"/>
			<glyph d="M67 502H145L259 305L435 502H521L292 256L409 60H496L460 -146H394L420 0H369L247 211L55 0H-31L213 261Z" horiz-adv-x="557" unicode="ҳ"/>
			<glyph d="M149 710H224L182 473Q177 448 177 425Q177 374 206 348T299 323H310L352 559H410L369 331Q459 348 537 404L592 710H666L540 1H466L527 341Q442 283 358 265L326 87H268L298 258Q292 257 279 257Q195 257 147 295T100 403Q100 429 105 459Z" horiz-adv-x="680" unicode="Ҹ"/>
			<glyph d="M101 502H170L147 370Q140 331 140 300Q140 224 239 219L262 351H314L291 221Q354 229 417 263L459 502H528L440 0H371L407 202Q346 170 281 162L261 49H209L228 159Q150 160 109 194T69 290Q69 320 77 370Z" horiz-adv-x="600" unicode="ҹ"/>
			<glyph d="M177 709H251L190 369Q311 453 438 453Q522 453 569 414T617 307Q617 281 612 251L568 0H493L535 237Q540 262 540 285Q540 336 511 361T418 387Q360 387 296 365T180 306L125 0H51Z" horiz-adv-x="680" unicode="Һ"/>
			<glyph d="M182 752H251L191 410Q224 459 275 486T390 513Q461 513 501 472T542 355Q542 322 535 287L485 0H416L467 290Q471 314 471 339Q471 393 443 421T361 450Q315 450 274 429T206 371T170 288L119 0H50Z" horiz-adv-x="613" unicode="һ"/>
			<glyph d="M177 710H251L125 0H51Z" horiz-adv-x="265" unicode="Ӏ"/>
			<glyph d="M182 752H251L119 0H50Z" horiz-adv-x="256" unicode="ӏ"/>
			<glyph d="M381 720Q478 720 553 679T672 563T715 386Q715 268 668 178T538 39T352 -10Q208 -10 131 73T54 300Q54 320 56 360H638V380Q638 458 605 519T512 615T377 649Q313 649 254 627T144 568L123 638Q243 720 381 720ZM128 297Q131 182 188 120T356 58Q465 58 537 124T630 297Z" horiz-adv-x="750" unicode="Ә"/>
			<glyph d="M294 512Q368 512 421 482T503 400T532 280Q532 193 497 127T400 26T258 -10Q193 -10 145 18T71 96T45 211L47 255H462Q463 261 463 273Q463 356 414 402T286 449Q183 449 95 378L83 440Q122 473 176 492T294 512ZM116 200Q118 136 156 94T263 52Q333 52 384 91T454 200Z" horiz-adv-x="580" unicode="ә"/>
			<glyph d="M478 720Q579 720 655 678T774 561T816 389Q816 281 766 189T624 44T412 -10Q312 -10 234 32T114 150T72 324Q72 435 123 525T267 667T478 720ZM471 649Q388 649 320 615T209 521T153 386H740Q740 464 706 523T611 616T471 649ZM148 321Q149 245 183 186T279 94T420 61Q501 61 567 95T677 189T734 321Z" horiz-adv-x="853" unicode="Ө"/>
			<glyph d="M336 512Q407 512 462 482T547 399T577 277Q577 203 544 137T446 30T290 -10Q220 -10 165 19T79 104T48 231Q48 303 80 367T178 471T336 512ZM327 449Q241 449 189 400T123 280H506Q504 358 455 403T327 449ZM119 226Q122 146 170 99T298 52Q381 52 435 101T502 226Z" unicode="ө"/>
			<glyph d="M117 710H192L253 107L542 710H612L685 106L959 710H1039L709 0H634L559 605L270 0H195ZM480 917H554L649 774H583Z" horiz-adv-x="997" unicode="Ẁ"/>
			<glyph d="M58 502H130L189 81L400 502H468L530 85L735 502H808L553 0H481L419 413L211 0H138ZM340 725H414L501 573H436Z" horiz-adv-x="777" unicode="ẁ"/>
			<glyph d="M117 710H192L253 107L542 710H612L685 106L959 710H1039L709 0H634L559 605L270 0H195ZM660 917H742L599 774H531Z" horiz-adv-x="997" unicode="Ẃ"/>
			<glyph d="M58 502H130L189 81L400 502H468L530 85L735 502H808L553 0H481L419 413L211 0H138ZM514 725H595L443 573H375Z" horiz-adv-x="777" unicode="ẃ"/>
			<glyph d="M117 710H192L253 107L542 710H612L685 106L959 710H1039L709 0H634L559 605L270 0H195ZM490 895Q511 895 525 880T540 846Q540 825 525 811T490 797Q470 797 455 811T441 846Q441 866 455 880T490 895ZM700 895Q721 895 735 880T750 846Q750 825 735 811T700 797Q680 797 665 811T651 846Q651 866 665 880T700 895Z" horiz-adv-x="997" unicode="Ẅ"/>
			<glyph d="M58 502H130L189 81L400 502H468L530 85L735 502H808L553 0H481L419 413L211 0H138ZM346 714Q367 714 381 699T396 665Q396 644 381 630T346 616Q326 616 311 630T297 665Q297 685 311 699T346 714ZM556 714Q577 714 591 699T606 665Q606 644 591 630T556 616Q536 616 521 630T507 665Q507 685 521 699T556 714Z" horiz-adv-x="777" unicode="ẅ"/>
			<glyph d="M438 720Q517 720 579 692T685 616L676 559L417 440Q556 406 619 349T683 205Q683 139 650 90T557 15T419 -10Q352 -10 303 8T211 59L249 122Q321 56 428 56Q508 56 558 94T608 200Q608 270 544 318T335 400L346 465L611 591Q544 657 436 657Q231 657 189 415L116 0H42L117 427Q142 569 226 644T438 720Z" horiz-adv-x="714" unicode="ẞ"/>
			<glyph d="M364 710H442L589 0H515L469 231H171L44 0H-35ZM389 626L205 293H456ZM264 -89Q286 -89 301 -104T316 -142Q316 -165 301 -180T264 -195Q241 -195 226 -180T211 -142Q211 -120 226 -104T264 -89Z" horiz-adv-x="642" unicode="Ạ"/>
			<glyph d="M307 512Q392 512 442 469T493 344Q493 320 487 276L440 0H370L383 74Q352 37 305 13T199 -10Q129 -10 86 25T44 126Q44 222 139 260T422 301Q425 325 425 337Q425 392 394 421T302 450Q252 450 206 432T125 390L110 452Q146 477 197 494T307 512ZM415 250Q312 249 247 238T150 202T117 132Q117 89 144 68T218 48Q259 48 300 64T371 118T410 215Q411 223 412 232T415 250ZM217 -89Q239 -89 254 -104T269 -142Q269 -165 254 -180T217 -195Q194 -195 179 -180T164 -142Q164 -120 179 -104T217 -89Z" horiz-adv-x="567" unicode="ạ"/>
			<glyph d="M364 710H442L589 0H515L469 231H171L44 0H-35ZM389 626L205 293H456ZM467 965Q503 965 526 948T550 896Q550 864 530 845T471 806Q454 798 449 792T441 771H383Q389 800 399 811T436 836Q467 852 478 861T490 887Q490 915 448 915Q415 915 384 901L383 948Q401 956 424 960T467 965Z" horiz-adv-x="642" unicode="Ả"/>
			<glyph d="M307 512Q392 512 442 469T493 344Q493 320 487 276L440 0H370L383 74Q352 37 305 13T199 -10Q129 -10 86 25T44 126Q44 222 139 260T422 301Q425 325 425 337Q425 392 394 421T302 450Q252 450 206 432T125 390L110 452Q146 477 197 494T307 512ZM415 250Q312 249 247 238T150 202T117 132Q117 89 144 68T218 48Q259 48 300 64T371 118T410 215Q411 223 412 232T415 250ZM377 757Q413 757 436 740T460 688Q460 656 440 637T381 598Q364 590 359 584T351 563H293Q299 592 309 603T346 628Q377 644 388 653T400 679Q400 707 358 707Q325 707 294 693L293 740Q311 748 334 752T377 757Z" horiz-adv-x="567" unicode="ả"/>
			<glyph d="M364 710H442L589 0H515L469 231H171L44 0H-35ZM389 626L205 293H456ZM601 965H669L582 866H527ZM392 903H462L554 774H491L425 863L326 774H256Z" horiz-adv-x="642" unicode="Ấ"/>
			<glyph d="M307 512Q392 512 442 469T493 344Q493 320 487 276L440 0H370L383 74Q352 37 305 13T199 -10Q129 -10 86 25T44 126Q44 222 139 260T422 301Q425 325 425 337Q425 392 394 421T302 450Q252 450 206 432T125 390L110 452Q146 477 197 494T307 512ZM415 250Q312 249 247 238T150 202T117 132Q117 89 144 68T218 48Q259 48 300 64T371 118T410 215Q411 223 412 232T415 250ZM506 779H574L487 680H432ZM312 725H376L465 573H406L340 680L243 573H180Z" horiz-adv-x="567" unicode="ấ"/>
			<glyph d="M364 710H442L589 0H515L469 231H171L44 0H-35ZM389 626L205 293H456ZM187 967H254L308 868H252ZM393 903H463L555 774H492L426 863L327 774H257Z" horiz-adv-x="642" unicode="Ầ"/>
			<glyph d="M307 512Q392 512 442 469T493 344Q493 320 487 276L440 0H370L383 74Q352 37 305 13T199 -10Q129 -10 86 25T44 126Q44 222 139 260T422 301Q425 325 425 337Q425 392 394 421T302 450Q252 450 206 432T125 390L110 452Q146 477 197 494T307 512ZM415 250Q312 249 247 238T150 202T117 132Q117 89 144 68T218 48Q259 48 300 64T371 118T410 215Q411 223 412 232T415 250ZM98 779H165L219 680H163ZM310 725H374L463 573H404L338 680L241 573H178Z" horiz-adv-x="567" unicode="ầ"/>
			<glyph d="M364 710H442L589 0H515L469 231H171L44 0H-35ZM389 626L205 293H456ZM624 1025Q657 1025 678 1009T699 963Q699 934 681 917T627 882Q612 874 608 869T600 851H548Q554 877 562 887T596 909Q624 923 634 931T645 955Q645 980 607 980Q576 980 549 968L548 1010Q585 1025 624 1025ZM398 903H468L560 774H497L431 863L332 774H262Z" horiz-adv-x="642" unicode="Ẩ"/>
			<glyph d="M307 512Q392 512 442 469T493 344Q493 320 487 276L440 0H370L383 74Q352 37 305 13T199 -10Q129 -10 86 25T44 126Q44 222 139 260T422 301Q425 325 425 337Q425 392 394 421T302 450Q252 450 206 432T125 390L110 452Q146 477 197 494T307 512ZM415 250Q312 249 247 238T150 202T117 132Q117 89 144 68T218 48Q259 48 300 64T371 118T410 215Q411 223 412 232T415 250ZM530 835Q563 835 584 819T605 773Q605 744 587 727T533 692Q518 684 514 679T506 661H454Q460 687 468 697T502 719Q530 733 540 741T551 765Q551 790 513 790Q482 790 455 778L454 820Q491 835 530 835ZM314 725H378L467 573H408L342 680L245 573H182Z" horiz-adv-x="567" unicode="ẩ"/>
			<glyph d="M364 710H442L589 0H515L469 231H171L44 0H-35ZM389 626L205 293H456ZM386 1033Q414 1033 461 1012Q481 1003 492 999T515 995Q530 995 538 1003T552 1033H598Q587 989 569 967T516 945Q498 945 480 950T438 967Q421 975 408 979T385 984Q355 984 346 945H300Q309 989 332 1011T386 1033ZM396 903H474L576 774H507L433 863L323 774H245Z" horiz-adv-x="642" unicode="Ẫ"/>
			<glyph d="M307 512Q392 512 442 469T493 344Q493 320 487 276L440 0H370L383 74Q352 37 305 13T199 -10Q129 -10 86 25T44 126Q44 222 139 260T422 301Q425 325 425 337Q425 392 394 421T302 450Q252 450 206 432T125 390L110 452Q146 477 197 494T307 512ZM415 250Q312 249 247 238T150 202T117 132Q117 89 144 68T218 48Q259 48 300 64T371 118T410 215Q411 223 412 232T415 250ZM296 855Q324 855 371 834Q391 825 403 821T425 817Q440 817 448 825T462 855H508Q497 811 479 789T426 767Q408 767 390 772T348 789Q331 797 318 801T295 806Q265 806 256 767H210Q219 811 242 833T296 855ZM312 725H384L482 573H417L343 680L236 573H166Z" horiz-adv-x="567" unicode="ẫ"/>
			<glyph d="M364 710H442L589 0H515L469 231H171L44 0H-35ZM389 626L205 293H456ZM392 903H470L572 774H503L429 863L319 774H241ZM264 -89Q286 -89 301 -104T316 -142Q316 -165 301 -180T264 -195Q241 -195 226 -180T211 -142Q211 -120 226 -104T264 -89Z" horiz-adv-x="642" unicode="Ậ"/>
			<glyph d="M307 512Q392 512 442 469T493 344Q493 320 487 276L440 0H370L383 74Q352 37 305 13T199 -10Q129 -10 86 25T44 126Q44 222 139 260T422 301Q425 325 425 337Q425 392 394 421T302 450Q252 450 206 432T125 390L110 452Q146 477 197 494T307 512ZM415 250Q312 249 247 238T150 202T117 132Q117 89 144 68T218 48Q259 48 300 64T371 118T410 215Q411 223 412 232T415 250ZM313 725H385L483 573H418L344 680L237 573H167ZM217 -89Q239 -89 254 -104T269 -142Q269 -165 254 -180T217 -195Q194 -195 179 -180T164 -142Q164 -120 179 -104T217 -89Z" horiz-adv-x="567" unicode="ậ"/>
			<glyph d="M364 710H442L589 0H515L469 231H171L44 0H-35ZM389 626L205 293H456ZM447 1048H515L428 949H373ZM292 890H348Q346 882 346 876Q346 850 366 839T425 828Q466 828 491 843T523 890H580Q569 838 527 808T420 778Q357 778 323 801T289 868Q289 880 292 890Z" horiz-adv-x="642" unicode="Ắ"/>
			<glyph d="M307 512Q392 512 442 469T493 344Q493 320 487 276L440 0H370L383 74Q352 37 305 13T199 -10Q129 -10 86 25T44 126Q44 222 139 260T422 301Q425 325 425 337Q425 392 394 421T302 450Q252 450 206 432T125 390L110 452Q146 477 197 494T307 512ZM415 250Q312 249 247 238T150 202T117 132Q117 89 144 68T218 48Q259 48 300 64T371 118T410 215Q411 223 412 232T415 250ZM362 843H430L343 744H288ZM207 725H263Q261 715 261 706Q261 668 283 651T340 635Q381 635 406 657T438 725H494Q484 659 442 621T335 584Q277 584 240 614T204 699Q204 713 207 725Z" horiz-adv-x="567" unicode="ắ"/>
			<glyph d="M364 710H442L589 0H515L469 231H171L44 0H-35ZM389 626L205 293H456ZM364 1048H431L485 949H429ZM294 890H350Q348 882 348 876Q348 850 368 839T427 828Q468 828 493 843T525 890H582Q571 838 529 808T422 778Q359 778 325 801T291 868Q291 880 294 890Z" horiz-adv-x="642" unicode="Ằ"/>
			<glyph d="M307 512Q392 512 442 469T493 344Q493 320 487 276L440 0H370L383 74Q352 37 305 13T199 -10Q129 -10 86 25T44 126Q44 222 139 260T422 301Q425 325 425 337Q425 392 394 421T302 450Q252 450 206 432T125 390L110 452Q146 477 197 494T307 512ZM415 250Q312 249 247 238T150 202T117 132Q117 89 144 68T218 48Q259 48 300 64T371 118T410 215Q411 223 412 232T415 250ZM277 843H344L398 744H342ZM207 725H263Q261 715 261 706Q261 668 283 651T340 635Q381 635 406 657T438 725H494Q484 659 442 621T335 584Q277 584 240 614T204 699Q204 713 207 725Z" horiz-adv-x="567" unicode="ằ"/>
			<glyph d="M364 710H442L589 0H515L469 231H171L44 0H-35ZM389 626L205 293H456ZM491 1119Q524 1119 545 1103T566 1057Q566 1028 548 1011T494 976Q479 968 475 963T467 945H415Q421 971 429 981T463 1003Q491 1017 501 1025T512 1049Q512 1074 474 1074Q443 1074 416 1062L415 1104Q452 1119 491 1119ZM297 890H353Q351 882 351 876Q351 850 371 839T430 828Q471 828 496 843T528 890H585Q574 838 532 808T425 778Q362 778 328 801T294 868Q294 880 297 890Z" horiz-adv-x="642" unicode="Ẳ"/>
			<glyph d="M307 512Q392 512 442 469T493 344Q493 320 487 276L440 0H370L383 74Q352 37 305 13T199 -10Q129 -10 86 25T44 126Q44 222 139 260T422 301Q425 325 425 337Q425 392 394 421T302 450Q252 450 206 432T125 390L110 452Q146 477 197 494T307 512ZM415 250Q312 249 247 238T150 202T117 132Q117 89 144 68T218 48Q259 48 300 64T371 118T410 215Q411 223 412 232T415 250ZM412 914Q445 914 466 898T487 852Q487 823 469 806T415 771Q400 763 396 758T388 740H336Q342 766 350 776T384 798Q412 812 422 820T433 844Q433 869 395 869Q364 869 337 857L336 899Q373 914 412 914ZM218 725H274Q272 715 272 706Q272 668 294 651T351 635Q392 635 417 657T449 725H505Q495 659 453 621T346 584Q288 584 251 614T215 699Q215 713 218 725Z" horiz-adv-x="567" unicode="ẳ"/>
			<glyph d="M364 710H442L589 0H515L469 231H171L44 0H-35ZM389 626L205 293H456ZM374 1063Q402 1063 449 1042Q469 1033 481 1029T503 1025Q518 1025 526 1033T540 1063H586Q575 1019 557 997T504 975Q486 975 468 980T426 997Q409 1005 396 1009T373 1014Q343 1014 334 975H288Q297 1019 320 1041T374 1063ZM281 890H337Q335 882 335 876Q335 850 355 839T414 828Q455 828 480 843T512 890H569Q558 838 516 808T409 778Q346 778 312 801T278 868Q278 880 281 890Z" horiz-adv-x="642" unicode="Ẵ"/>
			<glyph d="M307 512Q392 512 442 469T493 344Q493 320 487 276L440 0H370L383 74Q352 37 305 13T199 -10Q129 -10 86 25T44 126Q44 222 139 260T422 301Q425 325 425 337Q425 392 394 421T302 450Q252 450 206 432T125 390L110 452Q146 477 197 494T307 512ZM415 250Q312 249 247 238T150 202T117 132Q117 89 144 68T218 48Q259 48 300 64T371 118T410 215Q411 223 412 232T415 250ZM293 858Q321 858 368 837Q388 828 399 824T422 820Q437 820 445 828T459 858H505Q494 814 476 792T423 770Q405 770 387 775T345 792Q328 800 315 804T292 809Q262 809 253 770H207Q216 814 239 836T293 858ZM200 725H256Q254 715 254 706Q254 668 276 651T333 635Q374 635 399 657T431 725H487Q477 659 435 621T328 584Q270 584 233 614T197 699Q197 713 200 725Z" horiz-adv-x="567" unicode="ẵ"/>
			<glyph d="M364 710H442L589 0H515L469 231H171L44 0H-35ZM389 626L205 293H456ZM291 890H347Q345 882 345 876Q345 850 365 839T424 828Q465 828 490 843T522 890H579Q568 838 526 808T419 778Q356 778 322 801T288 868Q288 880 291 890ZM264 -89Q286 -89 301 -104T316 -142Q316 -165 301 -180T264 -195Q241 -195 226 -180T211 -142Q211 -120 226 -104T264 -89Z" horiz-adv-x="642" unicode="Ặ"/>
			<glyph d="M307 512Q392 512 442 469T493 344Q493 320 487 276L440 0H370L383 74Q352 37 305 13T199 -10Q129 -10 86 25T44 126Q44 222 139 260T422 301Q425 325 425 337Q425 392 394 421T302 450Q252 450 206 432T125 390L110 452Q146 477 197 494T307 512ZM415 250Q312 249 247 238T150 202T117 132Q117 89 144 68T218 48Q259 48 300 64T371 118T410 215Q411 223 412 232T415 250ZM207 725H263Q261 715 261 706Q261 668 283 651T340 635Q381 635 406 657T438 725H494Q484 659 442 621T335 584Q277 584 240 614T204 699Q204 713 207 725ZM217 -89Q239 -89 254 -104T269 -142Q269 -165 254 -180T217 -195Q194 -195 179 -180T164 -142Q164 -120 179 -104T217 -89Z" horiz-adv-x="567" unicode="ặ"/>
			<glyph d="M177 710H565L553 642H239L195 389H499L487 323H183L137 68H459L447 0H51ZM248 -89Q270 -89 285 -104T300 -142Q300 -165 285 -180T248 -195Q225 -195 210 -180T195 -142Q195 -120 210 -104T248 -89Z" horiz-adv-x="569" unicode="Ẹ"/>
			<glyph d="M322 512Q387 512 435 484T509 406T535 291L533 247H118Q117 241 117 229Q117 146 165 99T294 53Q397 53 485 124L497 62Q458 29 404 9T286 -10Q212 -10 158 19T76 101T48 222Q48 309 83 374T180 476T322 512ZM317 450Q247 450 196 410T126 302H464Q462 366 423 408T317 450ZM250 -89Q272 -89 287 -104T302 -142Q302 -165 287 -180T250 -195Q227 -195 212 -180T197 -142Q197 -120 212 -104T250 -89Z" horiz-adv-x="580" unicode="ẹ"/>
			<glyph d="M177 710H565L553 642H239L195 389H499L487 323H183L137 68H459L447 0H51ZM431 965Q467 965 490 948T514 896Q514 864 494 845T435 806Q418 798 413 792T405 771H347Q353 800 363 811T400 836Q431 852 442 861T454 887Q454 915 412 915Q379 915 348 901L347 948Q365 956 388 960T431 965Z" horiz-adv-x="569" unicode="Ẻ"/>
			<glyph d="M322 512Q387 512 435 484T509 406T535 291L533 247H118Q117 241 117 229Q117 146 165 99T294 53Q397 53 485 124L497 62Q458 29 404 9T286 -10Q212 -10 158 19T76 101T48 222Q48 309 83 374T180 476T322 512ZM317 450Q247 450 196 410T126 302H464Q462 366 423 408T317 450ZM383 757Q419 757 442 740T466 688Q466 656 446 637T387 598Q370 590 365 584T357 563H299Q305 592 315 603T352 628Q383 644 394 653T406 679Q406 707 364 707Q331 707 300 693L299 740Q317 748 340 752T383 757Z" horiz-adv-x="580" unicode="ẻ"/>
			<glyph d="M177 710H565L553 642H239L195 389H499L487 323H183L137 68H459L447 0H51ZM303 872Q322 872 340 866T393 848Q402 845 416 839T440 831T458 829Q476 829 486 839T503 872H559Q545 822 521 798T458 774Q436 774 415 780T366 798Q346 806 330 811T303 817Q267 817 255 774H199Q211 823 239 847T303 872Z" horiz-adv-x="569" unicode="Ẽ"/>
			<glyph d="M322 512Q387 512 435 484T509 406T535 291L533 247H118Q117 241 117 229Q117 146 165 99T294 53Q397 53 485 124L497 62Q458 29 404 9T286 -10Q212 -10 158 19T76 101T48 222Q48 309 83 374T180 476T322 512ZM317 450Q247 450 196 410T126 302H464Q462 366 423 408T317 450ZM272 695Q290 695 308 689T355 671Q379 660 391 656T415 652Q432 652 440 661T456 695H507Q496 646 475 621T416 597Q396 597 376 603T330 621Q311 629 296 634T271 640Q237 640 227 597H176Q187 646 212 670T272 695Z" horiz-adv-x="580" unicode="ẽ"/>
			<glyph d="M177 710H565L553 642H239L195 389H499L487 323H183L137 68H459L447 0H51ZM565 965H633L546 866H491ZM356 903H426L518 774H455L389 863L290 774H220Z" horiz-adv-x="569" unicode="Ế"/>
			<glyph d="M322 512Q387 512 435 484T509 406T535 291L533 247H118Q117 241 117 229Q117 146 165 99T294 53Q397 53 485 124L497 62Q458 29 404 9T286 -10Q212 -10 158 19T76 101T48 222Q48 309 83 374T180 476T322 512ZM317 450Q247 450 196 410T126 302H464Q462 366 423 408T317 450ZM484 779H552L465 680H410ZM290 725H354L443 573H384L318 680L221 573H158Z" horiz-adv-x="580" unicode="ế"/>
			<glyph d="M177 710H565L553 642H239L195 389H499L487 323H183L137 68H459L447 0H51ZM151 967H218L272 868H216ZM357 903H427L519 774H456L390 863L291 774H221Z" horiz-adv-x="569" unicode="Ề"/>
			<glyph d="M322 512Q387 512 435 484T509 406T535 291L533 247H118Q117 241 117 229Q117 146 165 99T294 53Q397 53 485 124L497 62Q458 29 404 9T286 -10Q212 -10 158 19T76 101T48 222Q48 309 83 374T180 476T322 512ZM317 450Q247 450 196 410T126 302H464Q462 366 423 408T317 450ZM70 779H137L191 680H135ZM282 725H346L435 573H376L310 680L213 573H150Z" horiz-adv-x="580" unicode="ề"/>
			<glyph d="M177 710H565L553 642H239L195 389H499L487 323H183L137 68H459L447 0H51ZM600 1025Q633 1025 654 1009T675 963Q675 934 657 917T603 882Q588 874 584 869T576 851H524Q530 877 538 887T572 909Q600 923 610 931T621 955Q621 980 583 980Q552 980 525 968L524 1010Q561 1025 600 1025ZM374 903H444L536 774H473L407 863L308 774H238Z" horiz-adv-x="569" unicode="Ể"/>
			<glyph d="M322 512Q387 512 435 484T509 406T535 291L533 247H118Q117 241 117 229Q117 146 165 99T294 53Q397 53 485 124L497 62Q458 29 404 9T286 -10Q212 -10 158 19T76 101T48 222Q48 309 83 374T180 476T322 512ZM317 450Q247 450 196 410T126 302H464Q462 366 423 408T317 450ZM536 835Q569 835 590 819T611 773Q611 744 593 727T539 692Q524 684 520 679T512 661H460Q466 687 474 697T508 719Q536 733 546 741T557 765Q557 790 519 790Q488 790 461 778L460 820Q497 835 536 835ZM320 725H384L473 573H414L348 680L251 573H188Z" horiz-adv-x="580" unicode="ể"/>
			<glyph d="M177 710H565L553 642H239L195 389H499L487 323H183L137 68H459L447 0H51ZM350 1033Q378 1033 425 1012Q445 1003 456 999T479 995Q494 995 502 1003T516 1033H562Q551 989 533 967T480 945Q462 945 444 950T402 967Q385 975 372 979T349 984Q319 984 310 945H264Q273 989 296 1011T350 1033ZM360 903H438L540 774H471L397 863L287 774H209Z" horiz-adv-x="569" unicode="Ễ"/>
			<glyph d="M322 512Q387 512 435 484T509 406T535 291L533 247H118Q117 241 117 229Q117 146 165 99T294 53Q397 53 485 124L497 62Q458 29 404 9T286 -10Q212 -10 158 19T76 101T48 222Q48 309 83 374T180 476T322 512ZM317 450Q247 450 196 410T126 302H464Q462 366 423 408T317 450ZM270 855Q298 855 345 834Q365 825 377 821T399 817Q414 817 422 825T436 855H482Q471 811 453 789T400 767Q382 767 364 772T322 789Q305 797 292 801T269 806Q239 806 230 767H184Q193 811 216 833T270 855ZM286 725H358L456 573H391L317 680L210 573H140Z" horiz-adv-x="580" unicode="ễ"/>
			<glyph d="M177 710H565L553 642H239L195 389H499L487 323H183L137 68H459L447 0H51ZM356 903H434L536 774H467L393 863L283 774H205ZM248 -89Q270 -89 285 -104T300 -142Q300 -165 285 -180T248 -195Q225 -195 210 -180T195 -142Q195 -120 210 -104T248 -89Z" horiz-adv-x="569" unicode="Ệ"/>
			<glyph d="M322 512Q387 512 435 484T509 406T535 291L533 247H118Q117 241 117 229Q117 146 165 99T294 53Q397 53 485 124L497 62Q458 29 404 9T286 -10Q212 -10 158 19T76 101T48 222Q48 309 83 374T180 476T322 512ZM317 450Q247 450 196 410T126 302H464Q462 366 423 408T317 450ZM319 725H391L489 573H424L350 680L243 573H173ZM250 -89Q272 -89 287 -104T302 -142Q302 -165 287 -180T250 -195Q227 -195 212 -180T197 -142Q197 -120 212 -104T250 -89Z" horiz-adv-x="580" unicode="ệ"/>
			<glyph d="M177 710H251L125 0H51ZM278 965Q314 965 337 948T361 896Q361 864 341 845T282 806Q265 798 260 792T252 771H194Q200 800 210 811T247 836Q278 852 289 861T301 887Q301 915 259 915Q226 915 195 901L194 948Q212 956 235 960T278 965Z" horiz-adv-x="265" unicode="Ỉ"/>
			<glyph d="M137 502H206L118 0H49ZM237 757Q273 757 296 740T320 688Q320 656 300 637T241 598Q224 590 219 584T211 563H153Q159 592 169 603T206 628Q237 644 248 653T260 679Q260 707 218 707Q185 707 154 693L153 740Q171 748 194 752T237 757Z" horiz-adv-x="255" unicode="ỉ"/>
			<glyph d="M177 710H251L125 0H51ZM67 -89Q89 -89 104 -104T119 -142Q119 -165 104 -180T67 -195Q44 -195 29 -180T14 -142Q14 -120 29 -104T67 -89Z" horiz-adv-x="265" unicode="Ị"/>
			<glyph d="M137 502H206L118 0H49ZM198 718Q220 718 235 703T250 665Q250 642 235 627T198 612Q175 612 160 627T145 665Q145 688 160 703T198 718ZM61 -89Q83 -89 98 -104T113 -142Q113 -165 98 -180T61 -195Q38 -195 23 -180T8 -142Q8 -120 23 -104T61 -89Z" horiz-adv-x="255" unicode="ị"/>
			<glyph d="M478 720Q579 720 655 678T774 561T816 389Q816 281 766 189T624 44T412 -10Q312 -10 234 32T114 150T72 324Q72 435 123 525T267 667T478 720ZM471 649Q377 649 303 606T189 490T148 328Q148 250 182 189T278 95T420 61Q512 61 585 105T699 223T740 384Q740 462 706 522T611 615T471 649ZM377 -89Q399 -89 414 -104T429 -142Q429 -165 414 -180T377 -195Q354 -195 339 -180T324 -142Q324 -120 339 -104T377 -89Z" horiz-adv-x="853" unicode="Ọ"/>
			<glyph d="M336 512Q407 512 462 482T547 399T577 277Q577 203 544 137T446 30T290 -10Q220 -10 165 19T79 104T48 231Q48 303 80 367T178 471T336 512ZM328 446Q260 446 213 415T143 336T120 236Q120 153 168 104T298 56Q362 56 409 85T480 163T505 272Q505 352 456 399T328 446ZM262 -89Q284 -89 299 -104T314 -142Q314 -165 299 -180T262 -195Q239 -195 224 -180T209 -142Q209 -120 224 -104T262 -89Z" unicode="ọ"/>
			<glyph d="M478 720Q579 720 655 678T774 561T816 389Q816 281 766 189T624 44T412 -10Q312 -10 234 32T114 150T72 324Q72 435 123 525T267 667T478 720ZM471 649Q377 649 303 606T189 490T148 328Q148 250 182 189T278 95T420 61Q512 61 585 105T699 223T740 384Q740 462 706 522T611 615T471 649ZM544 965Q580 965 603 948T627 896Q627 864 607 845T548 806Q531 798 526 792T518 771H460Q466 800 476 811T513 836Q544 852 555 861T567 887Q567 915 525 915Q492 915 461 901L460 948Q478 956 501 960T544 965Z" horiz-adv-x="853" unicode="Ỏ"/>
			<glyph d="M336 512Q407 512 462 482T547 399T577 277Q577 203 544 137T446 30T290 -10Q220 -10 165 19T79 104T48 231Q48 303 80 367T178 471T336 512ZM328 446Q260 446 213 415T143 336T120 236Q120 153 168 104T298 56Q362 56 409 85T480 163T505 272Q505 352 456 399T328 446ZM410 757Q446 757 469 740T493 688Q493 656 473 637T414 598Q397 590 392 584T384 563H326Q332 592 342 603T379 628Q410 644 421 653T433 679Q433 707 391 707Q358 707 327 693L326 740Q344 748 367 752T410 757Z" unicode="ỏ"/>
			<glyph d="M478 720Q579 720 655 678T774 561T816 389Q816 281 766 189T624 44T412 -10Q312 -10 234 32T114 150T72 324Q72 435 123 525T267 667T478 720ZM471 649Q377 649 303 606T189 490T148 328Q148 250 182 189T278 95T420 61Q512 61 585 105T699 223T740 384Q740 462 706 522T611 615T471 649ZM678 965H746L659 866H604ZM469 903H539L631 774H568L502 863L403 774H333Z" horiz-adv-x="853" unicode="Ố"/>
			<glyph d="M336 512Q407 512 462 482T547 399T577 277Q577 203 544 137T446 30T290 -10Q220 -10 165 19T79 104T48 231Q48 303 80 367T178 471T336 512ZM328 446Q260 446 213 415T143 336T120 236Q120 153 168 104T298 56Q362 56 409 85T480 163T505 272Q505 352 456 399T328 446ZM511 779H579L492 680H437ZM317 725H381L470 573H411L345 680L248 573H185Z" unicode="ố"/>
			<glyph d="M478 720Q579 720 655 678T774 561T816 389Q816 281 766 189T624 44T412 -10Q312 -10 234 32T114 150T72 324Q72 435 123 525T267 667T478 720ZM471 649Q377 649 303 606T189 490T148 328Q148 250 182 189T278 95T420 61Q512 61 585 105T699 223T740 384Q740 462 706 522T611 615T471 649ZM264 967H331L385 868H329ZM470 903H540L632 774H569L503 863L404 774H334Z" horiz-adv-x="853" unicode="Ồ"/>
			<glyph d="M336 512Q407 512 462 482T547 399T577 277Q577 203 544 137T446 30T290 -10Q220 -10 165 19T79 104T48 231Q48 303 80 367T178 471T336 512ZM328 446Q260 446 213 415T143 336T120 236Q120 153 168 104T298 56Q362 56 409 85T480 163T505 272Q505 352 456 399T328 446ZM97 779H164L218 680H162ZM309 725H373L462 573H403L337 680L240 573H177Z" unicode="ồ"/>
			<glyph d="M478 720Q579 720 655 678T774 561T816 389Q816 281 766 189T624 44T412 -10Q312 -10 234 32T114 150T72 324Q72 435 123 525T267 667T478 720ZM471 649Q377 649 303 606T189 490T148 328Q148 250 182 189T278 95T420 61Q512 61 585 105T699 223T740 384Q740 462 706 522T611 615T471 649ZM701 1025Q734 1025 755 1009T776 963Q776 934 758 917T704 882Q689 874 685 869T677 851H625Q631 877 639 887T673 909Q701 923 711 931T722 955Q722 980 684 980Q653 980 626 968L625 1010Q662 1025 701 1025ZM475 903H545L637 774H574L508 863L409 774H339Z" horiz-adv-x="853" unicode="Ổ"/>
			<glyph d="M336 512Q407 512 462 482T547 399T577 277Q577 203 544 137T446 30T290 -10Q220 -10 165 19T79 104T48 231Q48 303 80 367T178 471T336 512ZM328 446Q260 446 213 415T143 336T120 236Q120 153 168 104T298 56Q362 56 409 85T480 163T505 272Q505 352 456 399T328 446ZM563 835Q596 835 617 819T638 773Q638 744 620 727T566 692Q551 684 547 679T539 661H487Q493 687 501 697T535 719Q563 733 573 741T584 765Q584 790 546 790Q515 790 488 778L487 820Q524 835 563 835ZM347 725H411L500 573H441L375 680L278 573H215Z" unicode="ổ"/>
			<glyph d="M478 720Q579 720 655 678T774 561T816 389Q816 281 766 189T624 44T412 -10Q312 -10 234 32T114 150T72 324Q72 435 123 525T267 667T478 720ZM471 649Q377 649 303 606T189 490T148 328Q148 250 182 189T278 95T420 61Q512 61 585 105T699 223T740 384Q740 462 706 522T611 615T471 649ZM463 1033Q491 1033 538 1012Q558 1003 569 999T592 995Q607 995 615 1003T629 1033H675Q664 989 646 967T593 945Q575 945 557 950T515 967Q498 975 485 979T462 984Q432 984 423 945H377Q386 989 409 1011T463 1033ZM473 903H551L653 774H584L510 863L400 774H322Z" horiz-adv-x="853" unicode="Ỗ"/>
			<glyph d="M336 512Q407 512 462 482T547 399T577 277Q577 203 544 137T446 30T290 -10Q220 -10 165 19T79 104T48 231Q48 303 80 367T178 471T336 512ZM328 446Q260 446 213 415T143 336T120 236Q120 153 168 104T298 56Q362 56 409 85T480 163T505 272Q505 352 456 399T328 446ZM329 855Q357 855 404 834Q424 825 436 821T458 817Q473 817 481 825T495 855H541Q530 811 512 789T459 767Q441 767 423 772T381 789Q364 797 351 801T328 806Q298 806 289 767H243Q252 811 275 833T329 855ZM345 725H417L515 573H450L376 680L269 573H199Z" unicode="ỗ"/>
			<glyph d="M478 720Q579 720 655 678T774 561T816 389Q816 281 766 189T624 44T412 -10Q312 -10 234 32T114 150T72 324Q72 435 123 525T267 667T478 720ZM471 649Q377 649 303 606T189 490T148 328Q148 250 182 189T278 95T420 61Q512 61 585 105T699 223T740 384Q740 462 706 522T611 615T471 649ZM469 903H547L649 774H580L506 863L396 774H318ZM377 -89Q399 -89 414 -104T429 -142Q429 -165 414 -180T377 -195Q354 -195 339 -180T324 -142Q324 -120 339 -104T377 -89Z" horiz-adv-x="853" unicode="Ộ"/>
			<glyph d="M336 512Q407 512 462 482T547 399T577 277Q577 203 544 137T446 30T290 -10Q220 -10 165 19T79 104T48 231Q48 303 80 367T178 471T336 512ZM328 446Q260 446 213 415T143 336T120 236Q120 153 168 104T298 56Q362 56 409 85T480 163T505 272Q505 352 456 399T328 446ZM346 725H418L516 573H451L377 680L270 573H200ZM262 -89Q284 -89 299 -104T314 -142Q314 -165 299 -180T262 -195Q239 -195 224 -180T209 -142Q209 -120 224 -104T262 -89Z" unicode="ộ"/>
			<glyph d="M834 855Q843 831 843 796Q843 730 812 689T716 634Q764 590 790 527T816 388Q816 279 765 188T623 43T415 -10Q312 -10 234 32T114 150T72 324Q72 433 123 523T268 667T481 720Q524 720 555 713T618 695Q654 680 681 680Q729 680 753 712T778 794Q778 819 771 839ZM469 649Q378 649 304 606T189 489T148 329Q148 250 182 189T277 95T419 61Q512 61 585 105T700 223T741 384Q741 462 707 522T611 616T469 649ZM544 917H626L483 774H415Z" horiz-adv-x="853" unicode="Ớ"/>
			<glyph d="M624 647Q632 625 632 600Q632 469 517 440Q577 375 577 277Q577 203 544 137T446 30T290 -10Q220 -10 165 19T79 104T48 231Q48 303 80 367T178 471T336 512Q368 512 389 507T434 494Q456 486 470 486Q521 486 544 512T568 594Q568 616 562 631ZM328 446Q260 446 213 415T143 336T120 236Q120 153 168 104T298 56Q362 56 409 85T480 163T505 272Q505 352 456 399T328 446ZM410 733H491L339 581H271Z" unicode="ớ"/>
			<glyph d="M834 855Q843 831 843 796Q843 730 812 689T716 634Q764 590 790 527T816 388Q816 279 765 188T623 43T415 -10Q312 -10 234 32T114 150T72 324Q72 433 123 523T268 667T481 720Q524 720 555 713T618 695Q654 680 681 680Q729 680 753 712T778 794Q778 819 771 839ZM469 649Q378 649 304 606T189 489T148 329Q148 250 182 189T277 95T419 61Q512 61 585 105T700 223T741 384Q741 462 707 522T611 616T469 649ZM364 917H438L533 774H467Z" horiz-adv-x="853" unicode="Ờ"/>
			<glyph d="M624 647Q632 625 632 600Q632 469 517 440Q577 375 577 277Q577 203 544 137T446 30T290 -10Q220 -10 165 19T79 104T48 231Q48 303 80 367T178 471T336 512Q368 512 389 507T434 494Q456 486 470 486Q521 486 544 512T568 594Q568 616 562 631ZM328 446Q260 446 213 415T143 336T120 236Q120 153 168 104T298 56Q362 56 409 85T480 163T505 272Q505 352 456 399T328 446ZM236 733H310L397 581H332Z" unicode="ờ"/>
			<glyph d="M834 855Q843 831 843 796Q843 730 812 689T716 634Q764 590 790 527T816 388Q816 279 765 188T623 43T415 -10Q312 -10 234 32T114 150T72 324Q72 433 123 523T268 667T481 720Q524 720 555 713T618 695Q654 680 681 680Q729 680 753 712T778 794Q778 819 771 839ZM469 649Q378 649 304 606T189 489T148 329Q148 250 182 189T277 95T419 61Q512 61 585 105T700 223T741 384Q741 462 707 522T611 616T469 649ZM529 965Q565 965 588 948T612 896Q612 864 592 845T533 806Q516 798 511 792T503 771H445Q451 800 461 811T498 836Q529 852 540 861T552 887Q552 915 510 915Q477 915 446 901L445 948Q463 956 486 960T529 965Z" horiz-adv-x="853" unicode="Ở"/>
			<glyph d="M624 647Q632 625 632 600Q632 469 517 440Q577 375 577 277Q577 203 544 137T446 30T290 -10Q220 -10 165 19T79 104T48 231Q48 303 80 367T178 471T336 512Q368 512 389 507T434 494Q456 486 470 486Q521 486 544 512T568 594Q568 616 562 631ZM328 446Q260 446 213 415T143 336T120 236Q120 153 168 104T298 56Q362 56 409 85T480 163T505 272Q505 352 456 399T328 446ZM389 765Q425 765 448 748T472 696Q472 664 452 645T393 606Q376 598 371 592T363 571H305Q311 600 321 611T358 636Q389 652 400 661T412 687Q412 715 370 715Q337 715 306 701L305 748Q323 756 346 760T389 765Z" unicode="ở"/>
			<glyph d="M834 855Q843 831 843 796Q843 730 812 689T716 634Q764 590 790 527T816 388Q816 279 765 188T623 43T415 -10Q312 -10 234 32T114 150T72 324Q72 433 123 523T268 667T481 720Q524 720 555 713T618 695Q654 680 681 680Q729 680 753 712T778 794Q778 819 771 839ZM469 649Q378 649 304 606T189 489T148 329Q148 250 182 189T277 95T419 61Q512 61 585 105T700 223T741 384Q741 462 707 522T611 616T469 649ZM401 872Q420 872 438 866T491 848Q500 845 514 839T538 831T556 829Q574 829 584 839T601 872H657Q643 822 619 798T556 774Q534 774 513 780T464 798Q444 806 428 811T401 817Q365 817 353 774H297Q309 823 337 847T401 872Z" horiz-adv-x="853" unicode="Ỡ"/>
			<glyph d="M624 647Q632 625 632 600Q632 469 517 440Q577 375 577 277Q577 203 544 137T446 30T290 -10Q220 -10 165 19T79 104T48 231Q48 303 80 367T178 471T336 512Q368 512 389 507T434 494Q456 486 470 486Q521 486 544 512T568 594Q568 616 562 631ZM328 446Q260 446 213 415T143 336T120 236Q120 153 168 104T298 56Q362 56 409 85T480 163T505 272Q505 352 456 399T328 446ZM278 703Q296 703 314 697T361 679Q385 668 397 664T421 660Q438 660 446 669T462 703H513Q502 654 481 629T422 605Q402 605 382 611T336 629Q317 637 302 642T277 648Q243 648 233 605H182Q193 654 218 678T278 703Z" unicode="ỡ"/>
			<glyph d="M834 855Q843 831 843 796Q843 730 812 689T716 634Q764 590 790 527T816 388Q816 279 765 188T623 43T415 -10Q312 -10 234 32T114 150T72 324Q72 433 123 523T268 667T481 720Q524 720 555 713T618 695Q654 680 681 680Q729 680 753 712T778 794Q778 819 771 839ZM469 649Q378 649 304 606T189 489T148 329Q148 250 182 189T277 95T419 61Q512 61 585 105T700 223T741 384Q741 462 707 522T611 616T469 649ZM411 -89Q433 -89 448 -104T463 -142Q463 -165 448 -180T411 -195Q388 -195 373 -180T358 -142Q358 -120 373 -104T411 -89Z" horiz-adv-x="853" unicode="Ợ"/>
			<glyph d="M624 647Q632 625 632 600Q632 469 517 440Q577 375 577 277Q577 203 544 137T446 30T290 -10Q220 -10 165 19T79 104T48 231Q48 303 80 367T178 471T336 512Q368 512 389 507T434 494Q456 486 470 486Q521 486 544 512T568 594Q568 616 562 631ZM328 446Q260 446 213 415T143 336T120 236Q120 153 168 104T298 56Q362 56 409 85T480 163T505 272Q505 352 456 399T328 446ZM267 -89Q289 -89 304 -104T319 -142Q319 -165 304 -180T267 -195Q244 -195 229 -180T214 -142Q214 -120 229 -104T267 -89Z" unicode="ợ"/>
			<glyph d="M166 710H240L166 285Q161 247 161 218Q161 142 206 101T330 61Q525 61 560 270L638 710H712L633 258Q610 130 530 60T324 -10Q211 -10 148 49T86 214Q86 246 93 290ZM306 -89Q328 -89 343 -104T358 -142Q358 -165 343 -180T306 -195Q283 -195 268 -180T253 -142Q253 -120 268 -104T306 -89Z" horiz-adv-x="717" unicode="Ụ"/>
			<glyph d="M128 502H197L147 217Q142 187 142 160Q142 107 171 79T258 52Q326 52 378 98T443 216L494 502H563L475 0H405L420 85Q388 40 341 15T238 -10Q161 -10 116 31T72 150Q72 185 78 218ZM234 -89Q256 -89 271 -104T286 -142Q286 -165 271 -180T234 -195Q211 -195 196 -180T181 -142Q181 -120 196 -104T234 -89Z" horiz-adv-x="612" unicode="ụ"/>
			<glyph d="M166 710H240L166 285Q161 247 161 218Q161 142 206 101T330 61Q525 61 560 270L638 710H712L633 258Q610 130 530 60T324 -10Q211 -10 148 49T86 214Q86 246 93 290ZM500 965Q536 965 559 948T583 896Q583 864 563 845T504 806Q487 798 482 792T474 771H416Q422 800 432 811T469 836Q500 852 511 861T523 887Q523 915 481 915Q448 915 417 901L416 948Q434 956 457 960T500 965Z" horiz-adv-x="717" unicode="Ủ"/>
			<glyph d="M128 502H197L147 217Q142 187 142 160Q142 107 171 79T258 52Q326 52 378 98T443 216L494 502H563L475 0H405L420 85Q388 40 341 15T238 -10Q161 -10 116 31T72 150Q72 185 78 218ZM403 757Q439 757 462 740T486 688Q486 656 466 637T407 598Q390 590 385 584T377 563H319Q325 592 335 603T372 628Q403 644 414 653T426 679Q426 707 384 707Q351 707 320 693L319 740Q337 748 360 752T403 757Z" horiz-adv-x="612" unicode="ủ"/>
			<glyph d="M835 855Q842 835 842 808Q842 674 703 656L633 258Q610 130 530 60T324 -10Q211 -10 148 49T86 214Q86 246 93 290L166 710H240L166 285Q161 247 161 218Q161 142 206 101T330 61Q525 61 560 270L638 710H665Q725 710 751 732T778 802Q778 824 772 839ZM515 917H597L454 774H386Z" horiz-adv-x="717" unicode="Ứ"/>
			<glyph d="M672 647Q679 627 679 600Q679 473 554 450L475 0H405L420 85Q388 40 341 15T238 -10Q161 -10 116 31T72 150Q72 185 78 218L128 502H197L147 217Q142 187 142 160Q142 107 171 79T258 52Q326 52 378 98T443 216L494 502H502Q562 502 588 524T615 594Q615 616 609 631ZM424 725H505L353 573H285Z" horiz-adv-x="612" unicode="ứ"/>
			<glyph d="M835 855Q842 835 842 808Q842 674 703 656L633 258Q610 130 530 60T324 -10Q211 -10 148 49T86 214Q86 246 93 290L166 710H240L166 285Q161 247 161 218Q161 142 206 101T330 61Q525 61 560 270L638 710H665Q725 710 751 732T778 802Q778 824 772 839ZM335 917H409L504 774H438Z" horiz-adv-x="717" unicode="Ừ"/>
			<glyph d="M672 647Q679 627 679 600Q679 473 554 450L475 0H405L420 85Q388 40 341 15T238 -10Q161 -10 116 31T72 150Q72 185 78 218L128 502H197L147 217Q142 187 142 160Q142 107 171 79T258 52Q326 52 378 98T443 216L494 502H502Q562 502 588 524T615 594Q615 616 609 631ZM250 725H324L411 573H346Z" horiz-adv-x="612" unicode="ừ"/>
			<glyph d="M835 855Q842 835 842 808Q842 674 703 656L633 258Q610 130 530 60T324 -10Q211 -10 148 49T86 214Q86 246 93 290L166 710H240L166 285Q161 247 161 218Q161 142 206 101T330 61Q525 61 560 270L638 710H665Q725 710 751 732T778 802Q778 824 772 839ZM500 965Q536 965 559 948T583 896Q583 864 563 845T504 806Q487 798 482 792T474 771H416Q422 800 432 811T469 836Q500 852 511 861T523 887Q523 915 481 915Q448 915 417 901L416 948Q434 956 457 960T500 965Z" horiz-adv-x="717" unicode="Ử"/>
			<glyph d="M672 647Q679 627 679 600Q679 473 554 450L475 0H405L420 85Q388 40 341 15T238 -10Q161 -10 116 31T72 150Q72 185 78 218L128 502H197L147 217Q142 187 142 160Q142 107 171 79T258 52Q326 52 378 98T443 216L494 502H502Q562 502 588 524T615 594Q615 616 609 631ZM403 757Q439 757 462 740T486 688Q486 656 466 637T407 598Q390 590 385 584T377 563H319Q325 592 335 603T372 628Q403 644 414 653T426 679Q426 707 384 707Q351 707 320 693L319 740Q337 748 360 752T403 757Z" horiz-adv-x="612" unicode="ử"/>
			<glyph d="M835 855Q842 835 842 808Q842 674 703 656L633 258Q610 130 530 60T324 -10Q211 -10 148 49T86 214Q86 246 93 290L166 710H240L166 285Q161 247 161 218Q161 142 206 101T330 61Q525 61 560 270L638 710H665Q725 710 751 732T778 802Q778 824 772 839ZM372 872Q391 872 409 866T462 848Q471 845 485 839T509 831T527 829Q545 829 555 839T572 872H628Q614 822 590 798T527 774Q505 774 484 780T435 798Q415 806 399 811T372 817Q336 817 324 774H268Q280 823 308 847T372 872Z" horiz-adv-x="717" unicode="Ữ"/>
			<glyph d="M672 647Q679 627 679 600Q679 473 554 450L475 0H405L420 85Q388 40 341 15T238 -10Q161 -10 116 31T72 150Q72 185 78 218L128 502H197L147 217Q142 187 142 160Q142 107 171 79T258 52Q326 52 378 98T443 216L494 502H502Q562 502 588 524T615 594Q615 616 609 631ZM292 695Q310 695 328 689T375 671Q399 660 411 656T435 652Q452 652 460 661T476 695H527Q516 646 495 621T436 597Q416 597 396 603T350 621Q331 629 316 634T291 640Q257 640 247 597H196Q207 646 232 670T292 695Z" horiz-adv-x="612" unicode="ữ"/>
			<glyph d="M835 855Q842 835 842 808Q842 674 703 656L633 258Q610 130 530 60T324 -10Q211 -10 148 49T86 214Q86 246 93 290L166 710H240L166 285Q161 247 161 218Q161 142 206 101T330 61Q525 61 560 270L638 710H665Q725 710 751 732T778 802Q778 824 772 839ZM306 -89Q328 -89 343 -104T358 -142Q358 -165 343 -180T306 -195Q283 -195 268 -180T253 -142Q253 -120 268 -104T306 -89Z" horiz-adv-x="717" unicode="Ự"/>
			<glyph d="M672 647Q679 627 679 600Q679 473 554 450L475 0H405L420 85Q388 40 341 15T238 -10Q161 -10 116 31T72 150Q72 185 78 218L128 502H197L147 217Q142 187 142 160Q142 107 171 79T258 52Q326 52 378 98T443 216L494 502H502Q562 502 588 524T615 594Q615 616 609 631ZM234 -89Q256 -89 271 -104T286 -142Q286 -165 271 -180T234 -195Q211 -195 196 -180T181 -142Q181 -120 196 -104T234 -89Z" horiz-adv-x="612" unicode="ự"/>
			<glyph d="M105 710H183L329 355L600 710H684L357 286L306 0H231L282 284ZM290 917H364L459 774H393Z" horiz-adv-x="628" unicode="Ỳ"/>
			<glyph d="M43 502H115L224 103L450 502H526L197 -69Q151 -149 106 -182T-5 -215Q-46 -215 -68 -206L-47 -143Q-32 -149 -3 -149Q37 -149 67 -128T132 -50L177 23ZM195 725H269L356 573H291Z" horiz-adv-x="487" unicode="ỳ"/>
			<glyph d="M105 710H183L329 355L600 710H684L357 286L306 0H231L282 284ZM247 -89Q269 -89 284 -104T299 -142Q299 -165 284 -180T247 -195Q224 -195 209 -180T194 -142Q194 -120 209 -104T247 -89Z" horiz-adv-x="628" unicode="Ỵ"/>
			<glyph d="M43 502H115L224 103L450 502H526L197 -69Q151 -149 106 -182T-5 -215Q-46 -215 -68 -206L-47 -143Q-32 -149 -3 -149Q37 -149 67 -128T132 -50L177 23ZM311 -98Q333 -98 348 -113T363 -151Q363 -174 348 -189T311 -204Q288 -204 273 -189T258 -151Q258 -129 273 -113T311 -98Z" horiz-adv-x="487" unicode="ỵ"/>
			<glyph d="M105 710H183L329 355L600 710H684L357 286L306 0H231L282 284ZM455 965Q491 965 514 948T538 896Q538 864 518 845T459 806Q442 798 437 792T429 771H371Q377 800 387 811T424 836Q455 852 466 861T478 887Q478 915 436 915Q403 915 372 901L371 948Q389 956 412 960T455 965Z" horiz-adv-x="628" unicode="Ỷ"/>
			<glyph d="M43 502H115L224 103L450 502H526L197 -69Q151 -149 106 -182T-5 -215Q-46 -215 -68 -206L-47 -143Q-32 -149 -3 -149Q37 -149 67 -128T132 -50L177 23ZM348 757Q384 757 407 740T431 688Q431 656 411 637T352 598Q335 590 330 584T322 563H264Q270 592 280 603T317 628Q348 644 359 653T371 679Q371 707 329 707Q296 707 265 693L264 740Q282 748 305 752T348 757Z" horiz-adv-x="487" unicode="ỷ"/>
			<glyph d="M105 710H183L329 355L600 710H684L357 286L306 0H231L282 284ZM327 872Q346 872 364 866T417 848Q426 845 440 839T464 831T482 829Q500 829 510 839T527 872H583Q569 822 545 798T482 774Q460 774 439 780T390 798Q370 806 354 811T327 817Q291 817 279 774H223Q235 823 263 847T327 872Z" horiz-adv-x="628" unicode="Ỹ"/>
			<glyph d="M43 502H115L224 103L450 502H526L197 -69Q151 -149 106 -182T-5 -215Q-46 -215 -68 -206L-47 -143Q-32 -149 -3 -149Q37 -149 67 -128T132 -50L177 23ZM237 695Q255 695 273 689T320 671Q344 660 356 656T380 652Q397 652 405 661T421 695H472Q461 646 440 621T381 597Q361 597 341 603T295 621Q276 629 261 634T236 640Q202 640 192 597H141Q152 646 177 670T237 695Z" horiz-adv-x="487" unicode="ỹ"/>
			<glyph d="M60 302H404L393 241H49Z" horiz-adv-x="445" unicode="‐"/>
			<glyph d="M60 302H520L509 241H49Z" horiz-adv-x="560" unicode="–"/>
			<glyph d="M60 302H1020L1009 241H49Z" horiz-adv-x="1060" unicode="—"/>
			<glyph d="M60 302H1020L1009 241H49Z" horiz-adv-x="1060" unicode="―"/>
			<glyph d="M-78 -187H382V-232H-78ZM-78 -92H382V-137H-78Z" horiz-adv-x="450" unicode="‗"/>
			<glyph d="M196 710H261L165 508H86Z" horiz-adv-x="220" unicode="‘"/>
			<glyph d="M177 710H256L146 508H82Z" horiz-adv-x="220" unicode="’"/>
			<glyph d="M69 101H148L38 -101H-26Z" horiz-adv-x="220" unicode="‚"/>
			<glyph d="M113 710H185L219 508H160Z" horiz-adv-x="220" unicode="‛"/>
			<glyph d="M361 710H426L330 508H251ZM196 710H261L165 508H86Z" horiz-adv-x="386" unicode="“"/>
			<glyph d="M342 710H421L311 508H247ZM177 710H256L146 508H82Z" horiz-adv-x="386" unicode="”"/>
			<glyph d="M234 101H313L203 -101H139ZM69 101H148L38 -101H-26Z" horiz-adv-x="385" unicode="„"/>
			<glyph d="M305 752H375L327 538L531 549L519 479L318 489L223 -113H152L270 489L65 479L78 549L278 538Z" horiz-adv-x="503" unicode="†"/>
			<glyph d="M305 752H375L327 538L531 549L519 479L317 489L272 229L477 240L464 170L264 180L223 -113H152L215 180L11 170L23 240L225 229L270 489L65 479L78 549L278 538Z" horiz-adv-x="503" unicode="‡"/>
			<glyph d="M214 427Q259 427 290 395T322 319Q322 274 290 242T214 211Q169 211 137 242T106 319Q106 364 137 395T214 427Z" horiz-adv-x="403" unicode="•"/>
			<glyph d="M310 93Q332 93 347 78T362 41Q362 19 347 4T310 -11Q288 -11 272 4T257 41Q257 63 272 78T310 93ZM108 93Q130 93 145 78T160 41Q160 19 145 4T108 -11Q86 -11 70 4T55 41Q55 63 70 78T108 93ZM512 93Q534 93 549 78T564 41Q564 19 549 4T512 -11Q490 -11 474 4T459 41Q459 63 474 78T512 93Z" horiz-adv-x="694" unicode="…"/>
			<glyph d="M263 716Q321 716 355 677T389 572Q389 515 371 465T316 383T224 352Q166 352 130 391T94 501Q94 557 112 606T169 686T263 716ZM641 710H711L215 0H145ZM258 663Q209 663 182 614T156 507Q156 457 175 431T228 405Q277 405 302 453T327 564Q327 612 309 637T258 663ZM637 354Q695 354 729 315T763 210Q763 153 745 103T690 21T598 -10Q540 -10 504 29T468 139Q468 195 486 244T543 324T637 354ZM977 354Q1035 354 1069 315T1103 210Q1103 153 1085 103T1030 21T938 -10Q880 -10 844 29T808 139Q808 195 826 244T883 324T977 354ZM632 301Q583 301 556 252T530 145Q530 95 549 69T602 43Q651 43 676 91T701 202Q701 250 683 275T632 301ZM972 301Q923 301 896 252T870 145Q870 95 889 69T942 43Q991 43 1016 91T1041 202Q1041 250 1023 275T972 301Z" horiz-adv-x="1160" unicode="‰"/>
			<glyph d="M231 460H316L105 254L241 60H165L27 260Z" horiz-adv-x="305" unicode="‹"/>
			<glyph d="M67 460H143L280 260L77 60H-8L203 266Z" horiz-adv-x="304" unicode="›"/>
			<glyph d="M443 710H528L426 217H368ZM369 93Q391 93 406 78T421 41Q421 19 406 4T369 -11Q347 -11 331 4T316 41Q316 63 331 78T369 93ZM193 710H278L176 217H118ZM119 93Q141 93 156 78T171 41Q171 19 156 4T119 -11Q97 -11 81 4T66 41Q66 63 81 78T119 93Z" horiz-adv-x="563" unicode="‼"/>
			<glyph d="M290 718Q379 718 429 673T480 550Q480 484 448 439T355 345Q315 313 295 286T269 220H200L261 658Q161 647 126 546L70 569Q93 638 148 678T290 718ZM326 655L275 353L305 379Q347 414 367 433T400 480T414 544Q414 587 391 616T326 655ZM221 93Q243 93 258 78T273 41Q273 19 258 4T221 -11Q199 -11 183 4T168 41Q168 63 183 78T221 93Z" horiz-adv-x="505" unicode="‽"/>
			<glyph d="M93 828H553V783H93Z" horiz-adv-x="450" unicode="‾"/>
			<glyph d="M322 710H390L-157 0H-225Z" horiz-adv-x="129" unicode="⁄"/>
			<glyph d="M310 869Q376 869 404 827T433 711Q433 637 412 572T349 467T244 427Q179 427 148 470T117 586Q117 658 138 722T202 828T310 869ZM302 816Q260 816 232 783T190 698T176 592Q176 540 194 510T251 480Q292 480 320 513T361 599T375 706Q375 760 358 788T302 816Z" horiz-adv-x="411" unicode="⁰"/>
			<glyph d="M348 864H399L348 575H412L404 526H339L323 435H264L280 526H72L78 565ZM323 772L146 575H289Z" horiz-adv-x="401" unicode="⁴"/>
			<glyph d="M191 861H422L411 808H231L203 682Q235 698 272 698Q333 698 369 665T406 577Q406 511 359 470T231 429Q187 429 150 444T95 484L128 531Q167 480 237 480Q289 480 318 505T348 570Q348 607 324 627T258 647Q211 647 175 626L142 639Z" horiz-adv-x="397" unicode="⁵"/>
			<glyph d="M415 868L422 819Q318 819 253 774T170 655Q192 678 224 693T295 708Q353 708 388 674T423 582Q423 515 377 471T261 427Q193 427 150 470T107 596Q107 674 145 736T254 833T415 868ZM280 660Q242 660 210 641T163 597Q163 538 190 508T264 479Q312 479 339 506T366 577Q366 616 343 638T280 660Z" horiz-adv-x="401" unicode="⁶"/>
			<glyph d="M132 861H437L432 825L204 435H139L363 808H126Z" horiz-adv-x="373" unicode="⁷"/>
			<glyph d="M297 872Q352 872 386 843T421 771Q421 737 400 709T340 668Q419 641 419 564Q419 501 371 463T250 425Q184 425 144 457T104 545Q104 589 131 620T213 668Q151 696 151 754Q151 787 170 814T223 856T297 872ZM293 824Q257 824 233 804T209 755Q209 729 228 711T281 694Q317 694 341 714T365 764Q365 791 345 807T293 824ZM269 639Q225 639 194 614T164 551Q164 516 189 495T255 475Q300 475 330 499T360 562Q360 597 334 618T269 639Z" horiz-adv-x="416" unicode="⁸"/>
			<glyph d="M285 865Q350 865 392 821T434 700Q434 619 395 556T287 459T126 424L119 473Q222 473 286 516T370 635Q347 612 315 598T246 584Q188 584 153 617T118 708Q118 777 164 821T285 865ZM281 813Q231 813 203 785T175 715Q175 676 198 654T261 632Q299 632 331 650T377 695V698Q377 754 351 783T281 813Z" horiz-adv-x="401" unicode="⁹"/>
			<glyph d="M241 784H293V662H414V610H293V489H241V610H119V662H241Z" horiz-adv-x="396" unicode="⁺"/>
			<glyph d="M119 662H414V610H119Z" horiz-adv-x="396" unicode="⁻"/>
			<glyph d="M130 727H425V675H130ZM130 597H425V545H130Z" horiz-adv-x="419" unicode="⁼"/>
			<glyph d="M336 925L326 875Q288 874 264 858T223 805Q201 761 185 677T170 536Q170 477 188 451T248 422L239 372Q176 377 145 416T115 534Q115 599 132 688T175 829T238 902T336 925Z" horiz-adv-x="247" unicode="⁽"/>
			<glyph d="M148 925Q211 920 241 880T272 763Q272 698 254 608T212 468T149 394T51 372L61 422Q99 423 122 438T164 492Q186 536 201 620T217 761Q217 820 198 845T139 875Z" horiz-adv-x="247" unicode="⁾"/>
			<glyph d="M295 726Q341 726 366 701T392 628Q392 611 389 591L358 415H306L336 584Q339 601 339 616Q339 678 276 678Q236 678 206 652T169 585L138 415H86L140 720H191L182 666Q202 694 231 710T295 726Z" horiz-adv-x="386" unicode="ⁿ"/>
			<glyph d="M208 289Q274 289 302 247T331 131Q331 57 310 -7T247 -112T142 -153Q77 -153 46 -109T15 6Q15 78 36 142T100 248T208 289ZM200 236Q158 236 130 203T88 118T74 12Q74 -40 92 -70T149 -100Q190 -100 218 -66T259 19T273 126Q273 180 256 208T200 236Z" horiz-adv-x="411" unicode="₀"/>
			<glyph d="M175 285H198L121 -145H63L128 200L16 140L27 203Z" horiz-adv-x="311" unicode="₁"/>
			<glyph d="M183 290Q240 290 273 261T307 185Q307 143 279 103T198 15L80 -92H294L283 -145H-13L-6 -109L161 46Q207 88 227 117T248 177Q248 204 229 220T174 236Q111 236 53 183L32 229Q60 258 99 274T183 290Z" horiz-adv-x="394" unicode="₂"/>
			<glyph d="M184 290Q241 290 273 263T306 194Q306 155 279 126T207 85Q257 76 280 52T304 -16Q304 -80 257 -117T133 -155Q83 -155 46 -139T-9 -96L23 -52Q64 -102 137 -102Q187 -102 215 -80T244 -17Q244 25 214 40T121 56L127 103Q186 103 216 127T247 185Q247 210 229 223T178 237Q119 237 61 189L39 235Q105 290 184 290Z" horiz-adv-x="403" unicode="₃"/>
			<glyph d="M246 284H297L246 -5H310L302 -54H237L221 -145H162L178 -54H-30L-24 -15ZM221 192L44 -5H187Z" horiz-adv-x="401" unicode="₄"/>
			<glyph d="M89 281H320L309 228H129L101 102Q133 118 170 118Q231 118 267 85T304 -3Q304 -69 257 -110T129 -151Q85 -151 48 -136T-7 -96L26 -49Q65 -100 135 -100Q187 -100 216 -74T246 -10Q246 27 222 47T156 67Q109 67 73 46L40 59Z" horiz-adv-x="397" unicode="₅"/>
			<glyph d="M313 288L320 239Q216 239 151 194T68 75Q90 98 122 113T193 128Q251 128 286 94T321 2Q321 -65 275 -109T159 -153Q91 -153 48 -109T5 16Q5 94 43 156T152 253T313 288ZM178 80Q140 80 108 61T61 17Q61 -42 88 -71T162 -101Q210 -101 237 -73T264 -3Q264 36 241 58T178 80Z" horiz-adv-x="401" unicode="₆"/>
			<glyph d="M30 281H335L330 245L102 -145H37L261 228H24Z" horiz-adv-x="373" unicode="₇"/>
			<glyph d="M195 292Q250 292 284 263T319 191Q319 157 298 129T238 88Q317 61 317 -16Q317 -79 269 -117T148 -155Q82 -155 42 -122T2 -35Q2 9 29 40T111 88Q49 116 49 174Q49 207 68 234T121 276T195 292ZM191 244Q155 244 131 224T107 175Q107 149 126 131T179 114Q215 114 239 134T263 184Q263 211 243 227T191 244ZM167 59Q123 59 92 34T62 -29Q62 -64 87 -84T153 -105Q198 -105 228 -80T258 -18Q258 17 232 38T167 59Z" horiz-adv-x="416" unicode="₈"/>
			<glyph d="M183 285Q248 285 290 241T332 120Q332 39 293 -23T185 -121T24 -156L17 -107Q120 -107 184 -64T268 55Q245 32 213 18T144 4Q86 4 51 37T16 128Q16 197 62 241T183 285ZM179 233Q129 233 101 205T73 135Q73 96 96 74T159 52Q197 52 229 70T275 115V118Q275 174 249 203T179 233Z" horiz-adv-x="401" unicode="₉"/>
			<glyph d="M138 202H190V80H311V28H190V-93H138V28H16V80H138Z" horiz-adv-x="396" unicode="₊"/>
			<glyph d="M16 80H311V28H16Z" horiz-adv-x="396" unicode="₋"/>
			<glyph d="M28 145H323V93H28ZM28 15H323V-37H28Z" horiz-adv-x="419" unicode="₌"/>
			<glyph d="M233 343L223 293Q185 292 161 276T120 223Q98 179 82 95T67 -46Q67 -105 85 -130T145 -160L136 -210Q73 -205 42 -165T12 -48Q12 17 29 106T72 247T135 320T233 343Z" horiz-adv-x="246" unicode="₍"/>
			<glyph d="M72 345Q135 340 165 300T196 183Q196 118 178 28T136 -112T73 -185T-25 -208L-15 -158Q23 -157 46 -141T88 -88Q110 -44 125 40T141 181Q141 240 122 265T63 295Z" horiz-adv-x="246" unicode="₎"/>
			<glyph d="M249 710H607L595 642H311L266 391H536L524 323H255L235 210H398L387 149H224L197 0H123L149 149H37L48 210H160Z" horiz-adv-x="600" unicode="₣"/>
			<glyph d="M393 720Q452 720 494 700T571 646L531 586Q476 652 388 652Q328 652 291 612T239 485L234 456H422L412 398H223L205 297H392L382 239H194L184 181Q170 101 108 66H496L485 0H-13L-2 66Q44 74 72 103T109 178L120 239H28L38 297H130L149 398H58L68 456H159L165 489Q206 720 393 720Z" horiz-adv-x="558" unicode="₤"/>
			<glyph d="M175 710H301Q423 710 479 650T536 489H607L597 430H532Q516 330 447 266T257 202H160L125 0H51L126 430H45L55 489H136ZM237 644L210 489H463Q461 567 418 605T286 644ZM200 430L172 267H265Q347 267 396 312T458 430Z" horiz-adv-x="585" unicode="₧"/>
			<glyph d="M494 746H549L535 667H599L591 622H528L444 139H388L400 203Q372 167 333 149T253 132Q200 132 159 156T96 224T74 323Q74 385 102 437T180 519T290 550Q343 550 383 525T444 455L473 622H339L347 667H480ZM291 499Q246 499 209 476T151 414T130 328Q130 264 167 223T264 183Q309 183 346 206T405 268T427 354Q427 392 411 425T365 478T291 499ZM31 57H462L451 -2H21Z" horiz-adv-x="561" unicode="₫"/>
			<glyph d="M406 720Q501 720 568 663L542 596Q515 623 478 638T401 653Q321 653 267 598T190 449H446L436 396H179Q175 362 173 324H423L412 271H172Q177 165 220 110T342 56Q394 56 432 75T506 127L524 65Q484 30 438 10T330 -10Q221 -10 162 62T98 271H13L23 324H99Q101 362 105 396H35L45 449H115Q144 575 219 647T406 720Z" horiz-adv-x="566" unicode="€"/>
			<glyph d="M108 710H598L587 651H447Q491 608 496 533H567L557 474H492Q478 396 410 348T235 296L447 0H356L146 295H35L46 354H218Q300 354 352 385T417 474H67L77 533H420Q414 597 369 624T241 651H98Z" horiz-adv-x="540" unicode="₹"/>
			<glyph d="M172 710H246L201 454L415 525L406 472L191 401L178 328L394 400L384 347L169 275L132 68H258Q408 68 435 224L442 267H511L503 219Q483 106 419 53T246 0H46L90 249L14 224L23 277L100 302L112 374L36 349L45 402L122 428Z" horiz-adv-x="537" unicode="₺"/>
			<glyph d="M406 710H467L448 602Q539 591 589 533T640 381Q640 349 633 305L579 0H508L563 312Q569 345 569 380Q569 446 534 485T436 534L364 127H303L375 535Q204 523 170 327L111 0H40L101 341Q123 463 197 531T387 605Z" horiz-adv-x="708" unicode="₼"/>
			<glyph d="M187 710H367Q486 710 545 659T604 514Q604 443 572 388T477 301T324 270H181L169 201H344L335 138H157L133 0H61L85 138H-1L10 201H97L109 270H22L34 335H120ZM247 644L192 335H331Q423 335 475 381T528 510Q528 583 483 613T350 644Z" horiz-adv-x="594" unicode="₽"/>
			<glyph d="M301 722Q372 722 426 682L405 634Q357 672 298 672Q254 672 218 650T161 591T141 503Q141 444 175 409T270 374Q336 374 392 415L401 365Q376 348 340 336T265 324Q182 324 134 372T86 499Q86 563 113 613T190 693T301 722ZM709 710H777L230 0H162ZM705 388Q787 388 838 338T889 209Q889 152 864 102T789 21T670 -10Q617 -10 575 12T509 77T486 174Q486 228 511 277T585 357T705 388ZM699 338Q647 338 611 314T557 254T540 177Q540 115 577 77T676 40Q725 40 760 62T815 122T834 205Q834 266 797 302T699 338Z" horiz-adv-x="938" unicode="℅"/>
			<glyph d="M326 721Q381 721 406 677T432 535Q432 406 388 305T263 160Q270 96 288 69T343 43Q368 43 388 48T418 62V-2Q380 -17 333 -17Q275 -17 244 19T202 135Q161 121 125 120V176Q165 178 197 193Q194 243 194 307Q194 475 208 564T251 687T326 721ZM323 662Q290 662 273 584T257 304Q257 270 259 226Q314 265 342 352T370 537Q370 607 358 634T323 662Z" horiz-adv-x="600" unicode="ℓ"/>
			<glyph d="M948 714Q1009 714 1056 688T1130 617T1156 513Q1156 448 1127 391T1043 300T909 265Q848 265 800 291T726 364T700 473Q700 534 728 589T813 679T948 714ZM172 710H233L470 132L573 710H640L513 0H452L214 578L111 0H45ZM941 658Q882 658 841 631T781 563T762 477Q762 406 803 364T916 322Q971 322 1011 347T1073 415T1094 509Q1094 577 1052 617T941 658ZM652 149H1092L1081 88H641Z" horiz-adv-x="1182" unicode="№"/>
			<glyph d="M417 720Q520 720 603 672T734 541T782 355Q782 252 734 168T603 37T417 -10Q314 -10 231 37T100 168T52 355Q52 458 100 541T231 672T417 720ZM417 672Q327 672 254 631T141 517T100 355Q100 265 141 192T254 79T417 38Q507 38 579 79T693 192T735 355Q735 445 693 517T579 631T417 672ZM308 574H432Q502 574 541 537T581 437Q581 375 539 335T432 295H364V136H308ZM364 523V346H428Q471 346 497 371T524 437Q524 479 499 501T428 523Z" horiz-adv-x="798" unicode="℗"/>
			<glyph d="M107 710H393V659H277V266H223V659H107ZM463 710H518L665 490L811 710H866V266H811V621L679 422H651L518 621V266H463Z" horiz-adv-x="958" unicode="™"/>
			<glyph d="M482 720Q580 720 657 683T778 581T822 429Q822 353 788 289T692 181T551 119L542 67H783L772 0H465L493 161Q608 181 677 250T746 417Q746 486 711 538T614 620T473 649Q389 649 316 616T199 521T155 378Q155 289 208 234T358 161L333 0H26L37 67H279L288 122Q193 148 137 213T81 379Q81 480 136 557T284 677T482 720Z" horiz-adv-x="870" unicode="Ω"/>
			<glyph d="M420 621Q529 621 606 574T723 452T762 297V293H210L203 284V77Q286 3 404 3Q478 3 535 30T634 104H695Q640 42 571 6T398 -29Q308 -29 231 10T107 121T61 292Q61 385 110 460T241 578T420 621ZM420 588Q286 588 203 510V333L210 326H613L621 333V518Q578 559 528 573T420 588Z" horiz-adv-x="803" unicode="℮"/>
			<glyph d="M251 715H274L197 285H139L204 630L92 570L103 633ZM633 710H701L154 0H86ZM660 437Q715 437 749 408T784 336Q784 302 763 274T703 233Q782 206 782 129Q782 66 734 28T613 -10Q547 -10 507 22T467 110Q467 154 494 185T576 233Q514 261 514 319Q514 352 533 379T586 421T660 437ZM656 389Q620 389 596 369T572 320Q572 294 591 276T644 259Q680 259 704 279T728 329Q728 356 708 372T656 389ZM632 204Q588 204 557 179T527 116Q527 81 552 60T618 40Q663 40 693 64T723 127Q723 162 697 183T632 204Z" horiz-adv-x="856" unicode="⅛"/>
			<glyph d="M260 720Q317 720 349 693T382 624Q382 585 355 556T283 515Q333 506 356 482T380 414Q380 350 333 312T209 275Q159 275 122 291T67 334L99 378Q140 328 213 328Q263 328 291 349T320 413Q320 455 290 470T197 486L203 533Q262 533 292 557T323 615Q323 640 305 653T254 667Q195 667 137 619L115 665Q181 720 260 720ZM725 710H793L246 0H178ZM752 437Q807 437 841 408T876 336Q876 302 855 274T795 233Q874 206 874 129Q874 66 826 28T705 -10Q639 -10 599 22T559 110Q559 154 586 185T668 233Q606 261 606 319Q606 352 625 379T678 421T752 437ZM748 389Q712 389 688 369T664 320Q664 294 683 276T736 259Q772 259 796 279T820 329Q820 356 800 372T748 389ZM724 204Q680 204 649 179T619 116Q619 81 644 60T710 40Q755 40 785 64T815 127Q815 162 789 183T724 204Z" horiz-adv-x="948" unicode="⅜"/>
			<glyph d="M165 711H396L385 658H205L177 532Q209 548 246 548Q307 548 343 515T380 427Q380 361 333 320T205 279Q161 279 124 294T69 334L102 381Q141 330 211 330Q263 330 292 355T322 420Q322 457 298 477T232 497Q185 497 149 476L116 489ZM719 710H787L240 0H172ZM746 437Q801 437 835 408T870 336Q870 302 849 274T789 233Q868 206 868 129Q868 66 820 28T699 -10Q633 -10 593 22T553 110Q553 154 580 185T662 233Q600 261 600 319Q600 352 619 379T672 421T746 437ZM742 389Q706 389 682 369T658 320Q658 294 677 276T730 259Q766 259 790 279T814 329Q814 356 794 372T742 389ZM718 204Q674 204 643 179T613 116Q613 81 638 60T704 40Q749 40 779 64T809 127Q809 162 783 183T718 204Z" horiz-adv-x="942" unicode="⅝"/>
			<glyph d="M106 711H411L406 675L178 285H113L337 658H100ZM695 710H763L216 0H148ZM722 437Q777 437 811 408T846 336Q846 302 825 274T765 233Q844 206 844 129Q844 66 796 28T675 -10Q609 -10 569 22T529 110Q529 154 556 185T638 233Q576 261 576 319Q576 352 595 379T648 421T722 437ZM718 389Q682 389 658 369T634 320Q634 294 653 276T706 259Q742 259 766 279T790 329Q790 356 770 372T718 389ZM694 204Q650 204 619 179T589 116Q589 81 614 60T680 40Q725 40 755 64T785 127Q785 162 759 183T694 204Z" horiz-adv-x="918" unicode="⅞"/>
			<glyph d="M95 710H171L291 93L628 710H709L316 0H237ZM823 710H897L771 0H697ZM1088 710H1162L1036 0H962Z" horiz-adv-x="1176" unicode="Ⅶ"/>
			<glyph d="M233 746Q375 706 455 599T535 335Q535 228 503 147T410 22T259 -22Q162 -22 105 37T48 199Q48 284 81 353T175 464T315 505Q404 505 453 437H454Q432 532 364 599T196 693ZM315 450Q253 450 208 416T139 326T116 205Q116 128 156 82T267 37Q328 37 372 71T439 163T462 288Q462 363 422 406T315 450Z" horiz-adv-x="582" unicode="∂"/>
			<glyph d="M375 710H452L588 65L575 0H0L12 65ZM401 625L89 65H515Z" horiz-adv-x="665" unicode="∆"/>
			<glyph d="M103 710H645V-210H571V643H178V-210H103Z" horiz-adv-x="749" unicode="∏"/>
			<glyph d="M54 710H517V642H148L362 275V238L139 -142H557V-210H44V-162L288 258L54 662Z" horiz-adv-x="586" unicode="∑"/>
			<glyph d="M84 380H534V321H84Z" horiz-adv-x="582" unicode="−"/>
			<glyph d="M479 710H548L138 0H69Z" horiz-adv-x="582" unicode="∕"/>
			<glyph d="M299 350Q321 350 336 335T351 298Q351 276 336 260T299 245Q277 245 262 260T247 298Q247 320 262 335T299 350Z" horiz-adv-x="582" unicode="∙"/>
			<glyph d="M478 710H546L369 -60H281L166 278H52V343H217L287 126Q307 64 322 8L325 9Q341 94 350 136Z" horiz-adv-x="600" unicode="√"/>
			<glyph d="M212 473Q273 473 320 443T403 352Q434 411 482 442T591 473Q642 473 682 450T746 387T769 297Q769 248 746 208T683 145T593 123Q533 123 485 153T401 244Q335 123 213 123Q162 123 121 145T58 208T35 298Q35 348 57 388T120 450T212 473ZM215 415Q165 415 132 381T100 296Q100 244 133 212T220 180Q270 180 308 210T370 297Q343 355 303 385T215 415ZM584 415Q535 415 497 384T434 296Q490 180 590 180Q639 180 671 213T704 298Q704 350 671 382T584 415Z" horiz-adv-x="789" unicode="∞"/>
			<glyph d="M467 720Q502 720 524 709L507 653Q491 663 467 663Q397 663 380 571L276 -23Q263 -98 227 -134T125 -170Q97 -170 67 -161L85 -104Q105 -112 130 -112Q164 -112 184 -90T214 -21L319 578Q346 720 467 720Z" horiz-adv-x="582" unicode="∫"/>
			<glyph d="M203 487Q224 487 250 481T319 463Q347 455 370 449T408 444Q454 444 463 487H516Q509 438 482 412T416 386Q395 386 368 392T303 410Q242 429 210 429Q189 429 177 418T158 386H105Q111 437 137 462T203 487ZM203 271Q224 271 250 265T319 247Q347 239 370 233T408 228Q454 228 463 271H516Q509 222 482 196T416 170Q395 170 368 176T303 194Q242 213 210 213Q189 213 177 202T158 170H105Q111 221 137 246T203 271Z" horiz-adv-x="600" unicode="≈"/>
			<glyph d="M442 630H504L413 476H534V418H379L300 283H534V225H266L175 71H113L204 225H84V283H238L317 418H84V476H351Z" horiz-adv-x="582" unicode="≠"/>
			<glyph d="M522 559V500L112 392L522 283V225L72 350V433ZM72 195H522V142H72Z" horiz-adv-x="582" unicode="≤"/>
			<glyph d="M83 559L533 433V350L83 225V283L493 392L83 500ZM83 195H533V142H83Z" horiz-adv-x="582" unicode="≥"/>
			<glyph d="M181 710H254L410 338L254 0H181L25 338ZM218 669L84 338L218 37L351 338Z" horiz-adv-x="404" unicode="◊"/>
			<glyph d="M608 710Q762 710 888 663T1086 536T1159 355Q1159 259 1085 177T886 48T614 0Q463 0 335 48T134 180T60 361Q60 458 133 538T332 664T608 710ZM611 667Q525 667 451 651T335 610T293 554Q293 520 346 492T485 450Q499 543 533 601T611 660Q654 660 688 601T736 450Q822 464 875 492T928 554Q928 585 885 610T770 651T611 667ZM1978 617Q2049 617 2110 580T2207 483T2243 352Q2243 279 2207 217T2110 120T1975 85Q1902 85 1842 119T1747 214T1713 349Q1713 421 1748 482T1845 580T1978 617ZM3025 617Q3095 617 3156 580T3253 483T3289 352Q3289 279 3253 217T3157 120T3025 85Q2952 85 2891 119T2795 214T2760 349Q2760 421 2796 482T2893 580T3025 617ZM1264 601H1688V507H1530V102H1417V507H1264ZM2246 601H2380L2502 393L2632 601H2760L2560 286V102H2445V289ZM3314 601H3741V507H3582V102H3470V507H3314ZM3906 601H4046L4245 102H4124L4080 215H3869L3828 102H3704ZM611 577Q585 577 563 540T532 445Q565 441 611 441Q652 441 689 444Q679 503 658 540T611 577ZM199 535Q137 459 137 372Q137 287 194 214T350 96T568 44Q528 76 502 158T477 344V362Q350 381 274 427T199 535ZM1020 533Q1020 494 985 459T888 399T744 362V344Q744 241 719 158T654 44Q773 52 870 97T1024 215T1081 372Q1081 459 1020 533ZM1978 517Q1914 517 1874 471T1831 352Q1831 276 1871 230T1978 184Q2041 184 2081 231T2122 352Q2122 425 2081 471T1978 517ZM3028 517Q2962 517 2921 471T2881 352Q2881 275 2920 229T3025 184Q3090 184 3129 230T3168 352Q3168 425 3129 471T3028 517ZM3974 495L3903 302H4046ZM526 356Q527 300 538 253T569 179T611 152Q633 152 652 179T682 253T695 356Q659 352 610 352Q562 352 526 356Z" horiz-adv-x="4305" unicode=""/>
			<glyph d="M551 710Q655 710 740 678T874 592T923 472Q923 407 873 351T738 263T555 231Q453 231 368 264T233 353T183 475Q183 540 232 594T365 679T551 710ZM553 680Q495 680 446 670T368 643T339 605Q339 582 374 563T469 535Q477 597 501 636T553 676Q582 676 605 636T637 535Q696 545 731 563T767 605Q767 626 738 643T660 670T553 680ZM553 620Q536 620 521 596T499 532Q526 529 553 529Q572 529 606 531Q599 571 584 595T553 620ZM277 592Q235 542 235 483Q235 426 273 376T378 296T525 262Q498 283 480 339T462 464V476Q377 489 327 520T277 592ZM828 590Q828 551 777 520T643 476V464Q643 395 626 339T583 262Q663 267 728 298T832 377T870 483Q870 544 828 590ZM496 473Q497 416 513 375T553 335Q576 335 592 375T610 473Q592 470 553 470Q515 470 496 473ZM299 171Q334 171 360 144T387 83Q387 46 361 19T297 -7Q261 -7 235 18T210 81Q210 118 236 144T299 171ZM648 171Q683 171 709 144T735 83Q735 46 709 19T648 -7Q610 -7 584 18T559 81Q559 118 585 144T648 171ZM60 165H202V134H149V-1H112V134H60ZM388 165H431L472 96L516 165H559L493 61V-1H453V62ZM744 165H886V134H833V-1H796V134H744ZM941 165H987L1054 -1H1013L999 37H929L915 -1H873ZM299 137Q277 137 263 122T249 83Q249 57 263 41T299 26Q319 26 332 42T346 83Q346 107 332 122T299 137ZM648 137Q626 137 613 122T600 83Q600 57 613 41T648 26Q669 26 681 41T694 83Q694 107 681 122T648 137ZM963 130L939 66H987Z" horiz-adv-x="1114" unicode=""/>
			<glyph d="M608 710Q762 710 888 663T1086 536T1159 355Q1159 259 1085 177T886 48T614 0Q463 0 335 48T134 180T60 361Q60 458 133 538T332 664T608 710ZM611 667Q525 667 451 651T335 610T293 554Q293 520 346 492T485 450Q499 543 533 601T611 660Q654 660 688 601T736 450Q822 464 875 492T928 554Q928 585 885 610T770 651T611 667ZM611 577Q585 577 563 540T532 445Q565 441 611 441Q652 441 689 444Q679 503 658 540T611 577ZM199 535Q137 459 137 372Q137 287 194 214T350 96T568 44Q528 76 502 158T477 344V362Q350 381 274 427T199 535ZM1020 533Q1020 494 985 459T888 399T744 362V344Q744 241 719 158T654 44Q773 52 870 97T1024 215T1081 372Q1081 459 1020 533ZM526 356Q527 300 538 253T569 179T611 152Q633 152 652 179T682 253T695 356Q659 352 610 352Q562 352 526 356Z" horiz-adv-x="1219" unicode=""/>
			</font>
</defs>
</svg>
