<svg width="25" height="25" viewBox="0 0 25 25" fill="none" xmlns="http://www.w3.org/2000/svg">
<path id="Solid" fill-rule="evenodd" clip-rule="evenodd" d="M12.1055 0.919922C5.47805 0.919922 0.105469 6.2925 0.105469 12.9199C0.105469 19.5473 5.47805 24.9199 12.1055 24.9199C18.7329 24.9199 24.1055 19.5473 24.1055 12.9199C24.1055 6.2925 18.7329 0.919922 12.1055 0.919922ZM17.7859 10.4186C18.212 9.99256 18.212 9.30183 17.7859 8.87581C17.3599 8.44978 16.6692 8.44978 16.2432 8.87581L10.4691 14.6499L7.96777 12.1485C7.54174 11.7225 6.85102 11.7225 6.42499 12.1485C5.99896 12.5746 5.99896 13.2653 6.42499 13.6913L9.69772 16.964C10.1237 17.3901 10.8145 17.3901 11.2405 16.964L17.7859 10.4186Z" fill="black"/>
</svg>
