<svg width="31" height="21" viewBox="0 0 31 21" fill="none" xmlns="http://www.w3.org/2000/svg">
<path id="Vector" d="M27.1974 4.08043H29.8681C30.1364 4.08043 30.362 4.1719 30.5449 4.35483C30.7279 4.53775 30.8193 4.75117 30.8193 4.99507V5.94629C30.8193 6.21458 30.7279 6.44019 30.5449 6.62312C30.362 6.80605 30.1364 6.89751 29.8681 6.89751H26.5388L29.3559 9.23897C29.6974 9.50727 29.8681 9.86092 29.8681 10.2999V15.4951C29.8681 16.0804 29.5876 16.4951 29.0267 16.739V16.7756L28.0023 17.0682V19.5195C28.0023 19.9097 27.862 20.2451 27.5815 20.5256C27.301 20.806 26.9657 20.9463 26.5754 20.9463H23.3193C22.9291 20.9463 22.5937 20.806 22.3132 20.5256C22.0328 20.2451 21.8925 19.9097 21.8925 19.5195V18.6048H9.74617V19.5195C9.74617 19.9097 9.60592 20.2451 9.32543 20.5256C9.04495 20.806 8.70958 20.9463 8.31934 20.9463H5.06324C4.67299 20.9463 4.33763 20.806 4.05714 20.5256C3.77665 20.2451 3.63641 19.9097 3.63641 19.5195V17.0682L2.61202 16.7756V16.739C2.05104 16.4951 1.77056 16.0804 1.77056 15.4951V10.2999C1.77056 9.86092 1.94129 9.50727 2.28275 9.23897L5.09982 6.89751H1.77056C1.50226 6.89751 1.27665 6.80605 1.09373 6.62312C0.910799 6.44019 0.819336 6.21458 0.819336 5.94629V4.99507C0.819336 4.75117 0.910799 4.53775 1.09373 4.35483C1.27665 4.1719 1.50226 4.08043 1.77056 4.08043H4.47787C4.79495 4.08043 5.05104 4.21458 5.24617 4.48287L5.86812 5.43409C5.9169 5.48287 5.95348 5.54385 5.97787 5.61702L8.17299 1.11702C8.49007 0.580435 8.85592 0.312143 9.27056 0.312143H21.8559C22.2949 0.312143 22.6608 0.580435 22.9535 1.11702L25.6242 5.72678C25.6486 5.62922 25.6974 5.53166 25.7706 5.43409L26.3925 4.48287C26.5876 4.21458 26.8559 4.08043 27.1974 4.08043ZM1.77056 5.03166V5.94629H5.09982L4.44129 5.03166H1.77056ZM9.1608 1.29995C9.11202 1.37312 9.05104 1.47068 8.97787 1.59263L6.89251 5.94629H24.673L22.1852 1.59263C22.0876 1.47068 22.0145 1.37312 21.9657 1.29995C21.9169 1.27556 21.8803 1.26336 21.8559 1.26336H9.27056C9.24617 1.26336 9.20958 1.27556 9.1608 1.29995ZM8.31934 19.9951C8.44129 19.9951 8.55104 19.9524 8.6486 19.867C8.74617 19.7817 8.79495 19.6658 8.79495 19.5195V18.6048C8.72178 18.5804 8.63641 18.556 8.53885 18.5317L4.58763 17.3609V19.5195C4.58763 19.6658 4.63031 19.7817 4.71568 19.867C4.80104 19.9524 4.9169 19.9951 5.06324 19.9951H8.31934ZM26.5754 19.9951C26.7218 19.9951 26.8376 19.9524 26.923 19.867C27.0084 19.7817 27.051 19.6658 27.051 19.5195V17.3609L23.0998 18.5317C23.0023 18.556 22.9169 18.5682 22.8437 18.5682V19.5195C22.8437 19.6658 22.8925 19.7817 22.9901 19.867C23.0876 19.9524 23.1974 19.9951 23.3193 19.9951H26.5754ZM28.9169 10.2999C28.9169 10.1536 28.8681 10.0438 28.7706 9.97068L25.734 7.44629C25.612 7.34873 25.5145 7.22678 25.4413 7.08044L25.2949 6.89751H6.34373L6.23397 7.08044C6.1608 7.20239 6.06324 7.32434 5.94129 7.44629L2.86812 9.97068C2.77056 10.0438 2.72177 10.1536 2.72177 10.2999V15.4951C2.72177 15.6658 2.80714 15.7999 2.97787 15.8975L8.83153 17.6536C8.85592 17.6536 8.89251 17.6536 8.94129 17.6536H22.6974C22.7462 17.6536 22.7949 17.6536 22.8437 17.6536L28.6974 15.8975C28.8437 15.7999 28.9169 15.6658 28.9169 15.4951V10.2999ZM26.5388 5.94629H29.8681V5.03166H27.1608L26.5388 5.94629ZM21.0145 12.9707C20.8925 12.6292 20.8986 12.2878 21.0328 11.9463C21.1669 11.6048 21.4169 11.3609 21.7828 11.2146L25.112 9.82434C25.5754 9.62922 26.0145 9.6658 26.4291 9.93409C26.8437 10.2024 27.051 10.5926 27.051 11.1048V12.4951C27.051 12.8853 26.9169 13.2207 26.6486 13.5012C26.3803 13.7817 26.051 13.9219 25.6608 13.9219H19.9901C19.9169 13.9219 19.8437 13.9341 19.7706 13.9585L18.1974 14.7268C18.0023 14.7999 17.7949 14.8365 17.5754 14.8365H14.0632C13.8437 14.8365 13.6364 14.7999 13.4413 14.7268L11.8681 13.9585C11.7949 13.9341 11.7218 13.9219 11.6486 13.9219H5.97787C5.58763 13.9219 5.25836 13.7817 4.99007 13.5012C4.72178 13.2207 4.58763 12.8853 4.58763 12.4951V11.1048C4.58763 10.617 4.79495 10.2329 5.20958 9.95239C5.62421 9.6719 6.06324 9.62922 6.52665 9.82434L9.85592 11.2146C10.2218 11.3609 10.4718 11.6048 10.6059 11.9463C10.7401 12.2878 10.7462 12.6292 10.6242 12.9707H11.6486C11.8681 12.9707 12.0754 13.0195 12.2706 13.117L13.8437 13.8487C13.9169 13.8975 13.9901 13.9219 14.0632 13.9219H17.5754C17.6486 13.9219 17.7218 13.8975 17.7949 13.8487L19.3681 13.117C19.5632 13.0195 19.7706 12.9707 19.9901 12.9707H21.0145ZM5.97787 12.9707H9.30714C9.57543 12.9707 9.73397 12.8487 9.78275 12.6048C9.83153 12.3609 9.73397 12.1902 9.49007 12.0926L6.1608 10.6658C6.01446 10.617 5.86812 10.6353 5.72178 10.7207C5.57543 10.806 5.50226 10.9341 5.50226 11.1048V12.4951C5.50226 12.6414 5.55104 12.7573 5.6486 12.8426C5.74617 12.928 5.85592 12.9707 5.97787 12.9707ZM26.1364 12.4951V11.1048C26.1364 10.9341 26.0632 10.806 25.9169 10.7207C25.7706 10.6353 25.6242 10.617 25.4779 10.6658L22.1486 12.0926C21.9047 12.1902 21.8071 12.3609 21.8559 12.6048C21.9047 12.8487 22.0632 12.9707 22.3315 12.9707H25.6608C25.7828 12.9707 25.8925 12.928 25.9901 12.8426C26.0876 12.7573 26.1364 12.6414 26.1364 12.4951Z" fill="#FF203E"/>
</svg>
