<svg width="31" height="34" viewBox="0 0 31 34" fill="none" xmlns="http://www.w3.org/2000/svg">
<path id="Vector" d="M17.9451 12.6427C18.3565 12.2656 18.5622 11.7514 18.5622 11.1C18.5622 10.6543 18.4593 10.2944 18.2537 10.0201C18.048 9.74589 17.7909 9.5402 17.4823 9.40308C17.2081 9.26595 16.831 9.12883 16.351 8.9917V7.08908C16.831 7.15765 17.3452 7.31191 17.8937 7.55188L18.2537 6.4206C18.0137 6.28347 17.7223 6.16349 17.3795 6.06064C17.0367 5.99208 16.6939 5.94066 16.351 5.90638V5.08363H15.4254V5.90638C14.7398 5.97494 14.2084 6.19777 13.8314 6.57487C13.4543 6.95196 13.2657 7.44904 13.2657 8.0661C13.2657 8.68317 13.4543 9.14597 13.8314 9.4545C14.2427 9.72875 14.7741 9.96872 15.4254 10.1744V12.1284C15.0483 12.0942 14.6884 12.017 14.3456 11.897C14.0028 11.7771 13.7114 11.6314 13.4714 11.46L13.1114 12.6427C13.3857 12.8484 13.7285 13.0198 14.1399 13.1569C14.5513 13.294 14.9798 13.3626 15.4254 13.3626V14.1853H16.351V13.3626C17.0367 13.2597 17.568 13.0198 17.9451 12.6427ZM14.8084 8.37464C14.6712 8.23751 14.6027 8.08325 14.6027 7.91184C14.6027 7.46618 14.8769 7.19193 15.4254 7.08908V8.68317C15.1512 8.61461 14.9455 8.51176 14.8084 8.37464ZM17.1738 11.3057C17.1738 11.7856 16.8995 12.0599 16.351 12.1284V10.4315C16.6596 10.5344 16.8653 10.6543 16.9681 10.7915C17.1052 10.8943 17.1738 11.0657 17.1738 11.3057ZM22.5988 2.94961C22.5988 2.94961 22.1317 2.48252 21.1976 1.54836C20.2634 0.614189 18.4679 0.147106 15.8111 0.147106C13.1543 0.147106 10.8917 1.08128 9.02339 2.94961C7.15506 4.81794 6.22089 7.08051 6.22089 9.73732C6.22089 12.3941 7.15506 14.6567 9.02339 16.525C10.8917 18.3934 13.1543 19.3275 15.8111 19.3275C18.4679 19.3275 20.7305 18.3934 22.5988 16.525C24.4672 14.6567 25.4013 12.3941 25.4013 9.73732C25.4013 7.08051 24.4672 4.81794 22.5988 2.94961ZM9.9747 15.5994C9.9747 15.5994 9.57189 15.1923 8.76628 14.3782C7.96067 13.564 7.55786 12.017 7.55786 9.73732C7.55786 7.45761 8.36347 5.50357 9.9747 3.87521C11.5859 2.24684 13.5314 1.43266 15.8111 1.43266C18.0908 1.43266 20.0449 2.24684 21.6732 3.87521C23.3016 5.50357 24.1158 7.45761 24.1158 9.73732C24.1158 12.017 23.3016 13.9711 21.6732 15.5994C20.0449 17.2278 18.0908 18.042 15.8111 18.042C13.5314 18.042 11.5859 17.2278 9.9747 15.5994ZM11.3631 19.7389C10.6775 19.3961 10.0261 19.4475 9.40906 19.8932L1.64432 25.3439C1.19867 25.6525 0.932986 26.0724 0.847283 26.6038C0.761579 27.1351 0.872994 27.6236 1.18153 28.0693L4.47254 32.6459C4.81535 33.1258 5.27815 33.3915 5.86093 33.4429C6.44372 33.4943 6.9408 33.3315 7.35217 32.9544L9.30621 31.1546C9.47762 30.9832 9.68331 30.9318 9.92328 31.0003L17.8423 32.9544C18.4593 33.0915 19.0078 32.9715 19.4878 32.5944L30.0293 24.7269C30.475 24.4183 30.7321 24.0069 30.8006 23.4927C30.8692 22.9785 30.7492 22.4986 30.4407 22.0529L30.0807 21.4873C29.8065 21.1102 29.438 20.8616 28.9752 20.7416C28.5124 20.6217 28.0581 20.6817 27.6125 20.9216L20.9276 24.2641L11.3631 19.7389ZM10.1804 20.973C10.3861 20.8016 10.5918 20.7845 10.7975 20.9216L20.6705 25.5496C21.0819 25.7553 21.1676 26.0638 20.9276 26.4752L20.4134 27.4008C20.242 27.7436 19.9849 27.8465 19.642 27.7093L14.1913 25.6525C13.7799 25.481 13.4971 25.601 13.3428 26.0124C13.1886 26.4238 13.3171 26.7152 13.7285 26.8866L19.1793 28.9435C19.6249 29.1149 20.0791 29.1149 20.5419 28.9435C21.0047 28.7721 21.3561 28.4635 21.5961 28.0179L22.1103 27.0923C22.4531 26.4409 22.436 25.7896 22.0589 25.1382L28.1781 22.0529C28.5209 21.8815 28.7952 21.9501 29.0009 22.2586L29.4122 22.8242C29.6522 23.1671 29.6008 23.4584 29.258 23.6984L18.7165 31.566C18.545 31.6688 18.3565 31.7031 18.1508 31.6688L10.2318 29.7148C9.54618 29.5777 8.94626 29.7319 8.43204 30.1776L6.478 31.9774C6.34087 32.1145 6.17804 32.1745 5.98949 32.1573C5.80094 32.1402 5.63811 32.0459 5.50098 31.8745L2.26139 27.3494C1.98714 26.9723 2.03856 26.6638 2.41566 26.4238L10.1804 20.973Z" fill="#FF203E"/>
</svg>
