<svg width="12" height="12" viewBox="0 0 12 12" fill="none" xmlns="http://www.w3.org/2000/svg">
<path id="Solid" fill-rule="evenodd" clip-rule="evenodd" d="M6.15039 0.919922C3.11282 0.919922 0.650391 3.38236 0.650391 6.41992C0.650391 9.45749 3.11282 11.9199 6.15039 11.9199C9.18796 11.9199 11.6504 9.45749 11.6504 6.41992C11.6504 3.38236 9.18796 0.919922 6.15039 0.919922ZM8.75394 5.27348C8.94921 5.07821 8.94921 4.76163 8.75394 4.56637C8.55868 4.37111 8.2421 4.37111 8.04684 4.56637L5.40039 7.21282L4.25394 6.06637C4.05868 5.87111 3.7421 5.87111 3.54684 6.06637C3.35158 6.26163 3.35158 6.57821 3.54684 6.77348L5.04684 8.27348C5.2421 8.46874 5.55868 8.46874 5.75394 8.27348L8.75394 5.27348Z" fill="black"/>
</svg>
