<svg width="16" height="16" viewBox="0 0 16 16" fill="none" xmlns="http://www.w3.org/2000/svg">
<path id="Vector" d="M7.91188 0.208984L8.30942 1.43677H9.5971L8.55572 2.19591L8.95326 3.4237L7.91263 2.66456L6.87051 3.4237L7.26804 2.19591L6.22741 1.43603H7.51435L7.91188 0.208984ZM2.62415 2.40553L3.77109 2.99173L4.68145 2.07837L4.47931 3.35407L5.62625 3.94027L4.35504 4.1424L4.15365 5.41736L3.5697 4.26593L2.29849 4.46807L3.2081 3.55471L2.62415 2.40553ZM0.433594 7.70973L1.65764 7.30995V6.01928L2.41378 7.06365L3.63857 6.66461L2.88244 7.70898L3.63857 8.75335L2.41453 8.35432L1.65839 9.39869V8.10802L0.433594 7.70973ZM2.62415 13.0124L3.2081 11.8618L2.29849 10.9492L3.5697 11.1513L4.15365 10.0014L4.35578 11.2763L5.62625 11.4784L4.48006 12.0639L4.68145 13.3389L3.77109 12.4262L2.62415 13.0124ZM7.91188 15.209L7.51435 13.9812H6.22667L7.26804 13.2221L6.87051 11.9943L7.91188 12.7542L8.95326 11.9958L8.55572 13.2236L9.59635 13.9819H8.30942L7.91188 15.209ZM13.1996 13.0124L12.0527 12.4262L11.1431 13.3396L11.3445 12.0639L10.1975 11.4777L11.4687 11.2756L11.6701 10.0014L12.2541 11.1513L13.5253 10.9492L12.6157 11.8625L13.1996 13.0124ZM15.3902 7.70973L14.1661 8.10802V9.39869L13.41 8.35432L12.1852 8.75335L12.9413 7.70898L12.1852 6.66461L13.4092 7.06365L14.1654 6.01928V7.30995L15.3902 7.70973ZM13.1996 2.40553L12.6157 3.55621L13.5253 4.46957L12.2541 4.26743L11.6701 5.41736L11.468 4.1424L10.1975 3.94027L11.3445 3.35407L11.1423 2.07912L12.0527 2.99247L13.1996 2.40553Z" fill="#FEFEFE"/>
</svg>
