<svg width="17" height="17" viewBox="0 0 17 17" fill="none" xmlns="http://www.w3.org/2000/svg">
<g id="info-circle">
<path id="Solid" fill-rule="evenodd" clip-rule="evenodd" d="M8.19466 1.58594C4.14457 1.58594 0.861328 4.86918 0.861328 8.91927C0.861328 12.9694 4.14457 16.2526 8.19466 16.2526C12.2448 16.2526 15.528 12.9694 15.528 8.91927C15.528 4.86918 12.2448 1.58594 8.19466 1.58594ZM8.19466 5.58594C7.82647 5.58594 7.528 5.88441 7.528 6.2526C7.528 6.62079 7.82647 6.91927 8.19466 6.91927H8.20133C8.56952 6.91927 8.868 6.62079 8.868 6.2526C8.868 5.88441 8.56952 5.58594 8.20133 5.58594H8.19466ZM8.86133 8.91927C8.86133 8.55108 8.56285 8.2526 8.19466 8.2526C7.82647 8.2526 7.528 8.55108 7.528 8.91927V11.5859C7.528 11.9541 7.82647 12.2526 8.19466 12.2526C8.56285 12.2526 8.86133 11.9541 8.86133 11.5859V8.91927Z" fill="#A8AAAC"/>
</g>
</svg>
