<svg width="31" height="24" viewBox="0 0 31 24" fill="none" xmlns="http://www.w3.org/2000/svg">
<path id="Vector" d="M2.72177 0.799637H28.9169C29.4535 0.799637 29.9047 0.982563 30.2706 1.34842C30.6364 1.71427 30.8193 2.1533 30.8193 2.66549V12.9826C30.8193 13.1045 30.7706 13.2143 30.673 13.3118C30.5754 13.4094 30.4657 13.4582 30.3437 13.4582C30.2218 13.4582 30.112 13.4094 30.0145 13.3118C29.9169 13.2143 29.8681 13.1045 29.8681 12.9826V6.83622C28.1608 6.61671 26.8437 5.87281 25.9169 4.60452C25.3315 3.77525 24.9535 2.82403 24.7828 1.75086H6.85592C6.68519 2.82403 6.30714 3.77525 5.72178 4.60452C4.77056 5.8972 3.45348 6.6411 1.77056 6.83622V13.4948C3.47787 13.7143 4.79495 14.4704 5.72178 15.7631C6.30714 16.5679 6.68519 17.507 6.85592 18.5801H16.7706C16.8925 18.5801 16.9962 18.6289 17.0815 18.7265C17.1669 18.824 17.2096 18.9338 17.2096 19.0557C17.2096 19.1777 17.1669 19.2874 17.0815 19.385C16.9962 19.4826 16.8925 19.5313 16.7706 19.5313H2.72177C2.18519 19.5313 1.73397 19.3484 1.36812 18.9826C1.00226 18.6167 0.819336 18.1777 0.819336 17.6655V2.66549C0.819336 2.1533 1.00226 1.71427 1.36812 1.34842C1.73397 0.982563 2.18519 0.799637 2.72177 0.799637ZM5.9047 18.5801C5.73397 17.7265 5.4169 16.9582 4.95348 16.2752C4.19738 15.2509 3.13641 14.6411 1.77056 14.446V17.6655C1.77056 17.9094 1.86202 18.1228 2.04495 18.3057C2.22787 18.4887 2.45348 18.5801 2.72177 18.5801H5.9047ZM1.77056 5.885C3.13641 5.68988 4.19738 5.08012 4.95348 4.05573C5.4169 3.37281 5.73397 2.60452 5.9047 1.75086H2.72177C2.45348 1.75086 2.22787 1.84232 2.04495 2.02525C1.86202 2.20817 1.77056 2.42159 1.77056 2.66549V5.885ZM26.6852 4.05573C27.4413 5.08012 28.5023 5.68988 29.8681 5.885V2.66549C29.8681 2.42159 29.7767 2.20817 29.5937 2.02525C29.4108 1.84232 29.1852 1.75086 28.9169 1.75086H25.734C25.9047 2.60452 26.2218 3.37281 26.6852 4.05573ZM23.2828 18.7265C23.2828 18.4094 23.3925 18.1411 23.612 17.9216C23.8315 17.7021 24.1059 17.5923 24.4352 17.5923C24.7645 17.5923 25.0388 17.7021 25.2584 17.9216C25.4779 18.1411 25.5876 18.4094 25.5876 18.7265V20.5923C25.5876 20.9094 25.4779 21.1838 25.2584 21.4155C25.0388 21.6472 24.7645 21.7631 24.4352 21.7631C24.1059 21.7631 23.8315 21.6472 23.612 21.4155C23.3925 21.1838 23.2828 20.9094 23.2828 20.5923V18.7265ZM24.1974 20.5923C24.1974 20.7387 24.2767 20.8118 24.4352 20.8118C24.5937 20.8118 24.673 20.7387 24.673 20.5923V18.7631C24.673 18.5923 24.5937 18.507 24.4352 18.507C24.2767 18.507 24.1974 18.5923 24.1974 18.7631V20.5923ZM18.4535 7.53134C18.4535 7.53134 18.2706 7.34842 17.9047 6.98256C17.5388 6.61671 16.8437 6.43378 15.8193 6.43378C14.7949 6.43378 13.9169 6.79964 13.1852 7.53134C12.4535 8.26305 12.0876 9.1411 12.0876 10.1655C12.0876 11.1899 12.4535 12.0679 13.1852 12.7996C13.9169 13.5313 14.7949 13.8972 15.8193 13.8972C16.8437 13.8972 17.7218 13.5313 18.4535 12.7996C19.1852 12.0679 19.551 11.1899 19.551 10.1655C19.551 9.1411 19.1852 8.26305 18.4535 7.53134ZM17.8132 12.1594C17.8132 12.1594 17.676 12.2966 17.4017 12.571C17.1273 12.8454 16.5998 12.9826 15.8193 12.9826C15.0388 12.9826 14.3742 12.7082 13.8254 12.1594C13.2767 11.6106 13.0023 10.946 13.0023 10.1655C13.0023 9.385 13.2767 8.72037 13.8254 8.17159C14.3742 7.62281 15.0388 7.34842 15.8193 7.34842C16.5998 7.34842 17.2645 7.62281 17.8132 8.17159C18.362 8.72037 18.6364 9.385 18.6364 10.1655C18.6364 10.946 18.362 11.6106 17.8132 12.1594ZM27.673 15.7265H27.8925C28.2828 15.7265 28.6181 15.8667 28.8986 16.1472C29.1791 16.4277 29.3193 16.7509 29.3193 17.1167V22.2021C29.3193 22.5923 29.1791 22.9277 28.8986 23.2082C28.6181 23.4887 28.2828 23.6289 27.8925 23.6289H20.9779C20.5876 23.6289 20.2523 23.4887 19.9718 23.2082C19.6913 22.9277 19.551 22.5923 19.551 22.2021V17.1167C19.551 16.7509 19.6913 16.4277 19.9718 16.1472C20.2523 15.8667 20.5876 15.7265 20.9779 15.7265H21.1974V13.4216C21.1974 12.5191 21.5145 11.7509 22.1486 11.1167C22.7828 10.4826 23.5449 10.1655 24.4352 10.1655C25.3254 10.1655 26.0876 10.4826 26.7218 11.1167C27.3559 11.7509 27.673 12.5191 27.673 13.4216V15.7265ZM26.0815 11.7935C26.0815 11.7935 25.9687 11.6807 25.7431 11.4551C25.5175 11.2295 25.0815 11.1167 24.4352 11.1167C23.7888 11.1167 23.2401 11.3423 22.7888 11.7935C22.3376 12.2448 22.112 12.7874 22.112 13.4216V15.7265H26.7584V13.4216C26.7584 12.7874 26.5328 12.2448 26.0815 11.7935ZM27.8925 22.6777C28.0388 22.6777 28.1547 22.635 28.2401 22.5496C28.3254 22.4643 28.3681 22.3484 28.3681 22.2021V17.1167C28.3681 16.9948 28.3254 16.8911 28.2401 16.8057C28.1547 16.7204 28.0388 16.6777 27.8925 16.6777H20.9779C20.8559 16.6777 20.7462 16.7204 20.6486 16.8057C20.551 16.8911 20.5023 16.9948 20.5023 17.1167V22.2021C20.5023 22.3484 20.551 22.4643 20.6486 22.5496C20.7462 22.635 20.8559 22.6777 20.9779 22.6777H27.8925Z" fill="#FF203E"/>
</svg>
