<svg width="14" height="16" viewBox="0 0 14 16" fill="none" xmlns="http://www.w3.org/2000/svg">
<g id="SVG">
<path id="Vector" fill-rule="evenodd" clip-rule="evenodd" d="M6.6 4.06641C6.25856 4.06641 5.92047 4.13366 5.60502 4.26432C5.28958 4.39498 5.00295 4.5865 4.76152 4.82793C4.52009 5.06936 4.32858 5.35598 4.19791 5.67143C4.06725 5.98688 4 6.32497 4 6.66641C4 7.00784 4.06725 7.34594 4.19791 7.66138C4.32858 7.97683 4.52009 8.26345 4.76152 8.50488C5.00295 8.74632 5.28958 8.93783 5.60502 9.06849C5.92047 9.19916 6.25856 9.26641 6.6 9.26641C7.28956 9.26641 7.95088 8.99248 8.43848 8.50488C8.92607 8.01729 9.2 7.35597 9.2 6.66641C9.2 5.97684 8.92607 5.31552 8.43848 4.82793C7.95088 4.34033 7.28956 4.06641 6.6 4.06641ZM5.2 6.66641C5.2 6.48256 5.23621 6.30051 5.30657 6.13065C5.37693 5.96079 5.48005 5.80646 5.61005 5.67646C5.74005 5.54645 5.89439 5.44333 6.06424 5.37297C6.2341 5.30262 6.41615 5.26641 6.6 5.26641C6.78385 5.26641 6.9659 5.30262 7.13576 5.37297C7.30561 5.44333 7.45995 5.54645 7.58995 5.67646C7.71995 5.80646 7.82307 5.96079 7.89343 6.13065C7.96379 6.30051 8 6.48256 8 6.66641C8 7.03771 7.8525 7.39381 7.58995 7.65636C7.3274 7.91891 6.9713 8.06641 6.6 8.06641C6.2287 8.06641 5.8726 7.91891 5.61005 7.65636C5.3475 7.39381 5.2 7.03771 5.2 6.66641Z" fill="#282830"/>
<path id="Vector_2" fill-rule="evenodd" clip-rule="evenodd" d="M6.267 15.8324L6.6 15.3334L6.267 15.8334C6.3656 15.8992 6.48147 15.9343 6.6 15.9343C6.71853 15.9343 6.8344 15.8992 6.933 15.8334V15.8324L6.935 15.8314L6.939 15.8284L6.954 15.8184C7.0399 15.7597 7.12491 15.6997 7.209 15.6384C8.22348 14.8997 9.16931 14.071 10.035 13.1624C11.56 11.5544 13.2 9.24141 13.2 6.66641C13.2 4.91598 12.5046 3.23724 11.2669 1.9995C10.0292 0.761761 8.35043 0.0664063 6.6 0.0664062C4.84957 0.0664062 3.17084 0.761761 1.9331 1.9995C0.695355 3.23724 2.60834e-08 4.91598 0 6.66641C0 9.24141 1.64 11.5544 3.164 13.1624C4.08686 14.13 5.10051 15.0067 6.191 15.7804L6.246 15.8184L6.261 15.8284L6.265 15.8314L6.267 15.8324ZM2.782 2.84841C3.5372 2.09335 4.49932 1.57918 5.54672 1.37088C6.59412 1.16258 7.67976 1.26952 8.66639 1.67817C9.65302 2.08682 10.4963 2.77883 11.0897 3.66672C11.6831 4.55461 11.9999 5.5985 12 6.66641C12 8.75941 10.64 10.7794 9.164 12.3374C8.37649 13.1637 7.51859 13.9199 6.6 14.5974C5.68143 13.9198 4.82353 13.1637 4.036 12.3374C2.558 10.7804 1.2 8.76041 1.2 6.66741C1.19997 5.95814 1.33966 5.25581 1.61111 4.60054C1.88255 3.94526 2.28042 3.34989 2.782 2.84841Z" fill="#282830"/>
</g>
</svg>
