<?xml version="1.0" encoding="UTF-8"?>
<svg height="100%" width="100%" xmlns="http://www.w3.org/2000/svg">
	<defs>
		<font horiz-adv-x="600" id="web">
			<font-face alphabetic="0" ascent="1167" descent="-259" font-family="" panose-1="2 11 10 2 2 2 2 2 2 4"/>
			<missing-glyph d="M30 752H570V-210H30ZM100 682V-140H500V682Z"/>
			<glyph d="" horiz-adv-x="190" unicode=" "/>
			<glyph d="M70 710H272L242 275H100ZM172 184Q214 184 243 154T273 83Q273 41 243 11T172 -18Q130 -18 100 11T71 83Q71 125 100 154T172 184Z" horiz-adv-x="343" unicode="!"/>
			<glyph d="M266 710H425L400 474H291ZM50 710H209L184 474H75Z" horiz-adv-x="475" unicode="&quot;"/>
			<glyph d="M235 710H362L331 537H456L487 710H613L583 537H693V413H561L540 298H647V174H519L488 0H361L392 174H267L236 0H110L141 174H30V298H162L183 413H76V537H205ZM309 413L289 298H414L434 413Z" horiz-adv-x="723" unicode="#"/>
			<glyph d="M244 767H364V698Q418 693 467 679T550 647L501 506Q443 531 404 541T319 552Q280 552 260 542T241 509Q241 484 268 470T365 437Q433 418 477 395T546 332T572 231Q572 143 518 87T364 15V-56H244V12Q181 16 121 33T18 78L64 226Q107 197 163 181T278 165Q373 165 373 212Q373 237 344 250T244 283Q151 307 95 352T40 484Q40 570 93 625T244 695ZZ" unicode="$"/>
			<glyph d="M226 716Q282 716 325 690T392 616T416 507Q416 445 392 397T325 323T226 297Q170 297 126 323T59 397T35 507Q35 569 59 616T126 690T226 716ZM656 710H795L325 0H186ZM226 599Q175 599 175 507Q175 414 226 414Q276 414 276 507Q276 599 226 599ZM753 413Q809 413 852 387T920 313T944 204Q944 142 920 94T852 20T753 -6Q697 -6 653 20T586 94T562 204Q562 266 586 313T653 387T753 413ZM753 296Q702 296 702 204Q702 111 753 111Q804 111 804 204Q804 296 753 296Z" horiz-adv-x="979" unicode="%"/>
			<glyph d="M321 721Q387 721 439 697T520 633T549 547Q549 493 516 447T408 357L497 268Q548 335 579 429L743 353Q695 235 617 150L767 0H541L494 49Q394 -10 277 -10Q200 -10 142 14T52 83T20 187Q20 254 53 299T166 388Q131 429 112 466T94 543Q94 590 120 631T197 696T321 721ZM322 585Q295 585 279 571T264 537Q264 520 273 502T306 460Q351 486 365 503T380 540Q380 558 364 571T322 585ZM270 279Q239 258 228 240T217 202Q217 177 237 162T292 148Q335 148 378 167Z" horiz-adv-x="777" unicode="&amp;"/>
			<glyph d="M50 710H209L184 474H75Z" horiz-adv-x="259" unicode="'"/>
			<glyph d="M389 752V623Q297 623 255 535T214 310Q214 174 255 87T389 1V-128Q276 -128 203 -69T96 87T62 310Q62 434 96 533T203 692T389 752Z" horiz-adv-x="431" unicode="("/>
			<glyph d="M42 752Q154 752 227 692T335 533T369 310Q369 186 335 87T228 -69T42 -128V1Q134 1 175 87T217 310Q217 448 175 535T42 623Z" horiz-adv-x="431" unicode=")"/>
			<glyph d="M179 710H317L303 580L422 633L464 503L337 476L424 379L313 299L248 413L183 299L72 379L159 476L32 503L74 633L193 580Z" horiz-adv-x="496" unicode="*"/>
			<glyph d="M230 575H370V420H525V280H370V125H230V280H75V420H230Z" unicode="+"/>
			<glyph d="M99 159H278L160 -144H2Z" horiz-adv-x="312" unicode=","/>
			<glyph d="M40 347H393V203H40Z" horiz-adv-x="433" unicode="-"/>
			<glyph d="M156 184Q198 184 227 154T257 83Q257 41 227 11T156 -18Q114 -18 84 11T55 83Q55 125 84 154T156 184Z" horiz-adv-x="312" unicode="."/>
			<glyph d="M345 751H499L164 -169H10Z" horiz-adv-x="509" unicode="/"/>
			<glyph d="M301 720Q434 720 496 627T558 354Q558 173 496 81T301 -10Q167 -10 104 82T42 354Q42 535 105 627T301 720ZM301 558Q269 558 252 535T231 469T226 355Q226 248 240 200T301 152Q333 152 349 175T371 242T376 357Q376 461 361 509T301 558Z" unicode="0"/>
			<glyph d="M293 717H361V0H180V491L48 421V588Z" horiz-adv-x="446" unicode="1"/>
			<glyph d="M292 720Q365 720 421 693T509 618T540 510Q540 460 522 417T475 338T399 251L311 158H565V0H44V103L267 333Q316 384 335 419T355 485Q355 516 333 535T276 555Q196 555 111 468L32 611Q81 663 146 691T292 720Z" unicode="2"/>
			<glyph d="M305 720Q367 720 417 697T496 633T525 539Q525 477 494 437T404 374Q553 329 553 201Q553 139 521 91T429 16T292 -10Q203 -10 140 11T30 75L115 222Q159 185 199 168T287 151Q328 151 351 169T374 217Q374 288 207 288V433Q285 433 315 452T346 503Q346 529 328 544T279 559Q243 559 202 539T127 486L50 625Q158 720 305 720Z" unicode="3"/>
			<glyph d="M304 710H494V268H565V123H494V0H313V123H20V249ZM313 485L187 268H313Z" unicode="4"/>
			<glyph d="M115 710H531V552H249L237 445Q268 462 322 462Q387 462 440 436T525 358T557 230Q557 115 482 52T276 -10Q197 -10 136 12T25 76L111 224Q149 188 188 169T270 151Q320 151 348 173T377 233Q377 269 351 288T283 307Q233 307 192 280L73 329Z" unicode="5"/>
			<glyph d="M490 721L526 571Q394 571 319 533T217 417Q277 455 355 455Q417 455 465 428T541 351T569 234Q569 164 537 108T446 21T312 -10Q232 -10 168 26T68 135T32 314Q32 435 82 526T234 669T490 721ZM303 317Q274 317 247 309T201 288Q207 145 304 145Q346 145 370 169T395 231Q395 269 370 293T303 317Z" unicode="6"/>
			<glyph d="M44 710H552V608L297 0H102L350 551H44Z" unicode="7"/>
			<glyph d="M300 720Q369 720 422 695T505 627T535 532Q535 478 508 439T433 377Q562 325 562 201Q562 143 529 95T436 18T300 -10Q224 -10 164 18T71 94T38 199Q38 325 167 377Q120 400 92 439T65 532Q65 584 94 627T177 695T300 720ZM304 576Q279 576 262 559T245 516Q245 491 262 474T304 458Q329 458 346 474T363 516Q363 541 346 558T304 576ZM303 292Q270 292 247 269T225 213Q225 181 247 158T303 136Q336 136 358 158T381 213Q381 247 358 269T303 292Z" unicode="8"/>
			<glyph d="M287 720Q365 720 428 685T530 578T568 397Q568 276 518 184T368 40T120 -11L84 139Q212 139 284 176T382 289Q324 252 254 252Q188 252 137 280T59 359T31 476Q31 547 63 602T153 689T287 720ZM295 565Q252 565 228 541T205 480Q205 442 229 418T296 395Q326 395 353 404T398 430Q394 503 367 534T295 565Z" unicode="9"/>
			<glyph d="M156 504Q198 504 227 474T257 403Q257 361 227 331T156 302Q114 302 84 331T55 403Q55 445 84 474T156 504ZM156 184Q198 184 227 154T257 83Q257 41 227 11T156 -18Q114 -18 84 11T55 83Q55 125 84 154T156 184Z" horiz-adv-x="312" unicode=":"/>
			<glyph d="M156 504Q198 504 227 474T257 403Q257 361 227 331T156 302Q114 302 84 331T55 403Q55 445 84 474T156 504ZM86 159H265L147 -144H-11Z" horiz-adv-x="312" unicode=";"/>
			<glyph d="M525 590V450L199 350L525 250V110L75 262V438Z" unicode="&lt;"/>
			<glyph d="M75 540H525V400H75ZM75 300H525V160H75Z" unicode="="/>
			<glyph d="M75 590L525 438V262L75 110V250L401 350L75 450Z" unicode="&gt;"/>
			<glyph d="M274 730Q340 730 390 706T467 639T494 544Q494 488 473 451T412 379Q327 306 327 275H182Q182 319 192 350T242 420Q286 463 302 484T319 527Q319 549 304 561T261 574Q230 574 205 554T164 502L32 593Q62 652 121 691T274 730ZM260 184Q302 184 331 154T361 83Q361 41 331 11T260 -18Q218 -18 188 11T159 83Q159 125 188 154T260 184Z" horiz-adv-x="526" unicode="?"/>
			<glyph d="M481 752Q604 752 706 699T867 554T927 351Q927 274 902 204T841 85H566V134Q545 103 514 90T443 78Q384 78 335 108T258 192T230 308Q230 370 258 422T335 505T443 536Q483 536 514 522T566 477V526H714V210H767Q804 269 804 351Q804 429 761 494T645 598T481 636Q391 636 317 592T200 474T158 310Q158 221 200 146T317 27T481 -16Q539 -16 592 -2T684 34L703 -81Q667 -103 606 -118T481 -133Q358 -133 256 -74T94 86T35 310Q35 432 94 533T256 693T481 752ZM474 405Q436 405 408 377T381 310Q381 271 408 243T474 215Q512 215 538 243T565 310Q565 349 538 377T474 405Z" horiz-adv-x="962" unicode="@"/>
			<glyph d="M263 710H472L727 0H526L470 172H255L199 0H8ZM362 505L302 320H422Z" horiz-adv-x="735" unicode="A"/>
			<glyph d="M70 710H366Q469 710 528 660T587 529Q587 479 564 438T492 371Q548 356 582 309T617 196Q617 139 590 94T514 25T398 0H70ZM260 557V427H335Q373 427 391 443T409 490Q409 522 389 539T335 557ZM260 282V152H357Q389 152 407 169T426 217Q426 248 408 265T357 282Z" horiz-adv-x="651" unicode="B"/>
			<glyph d="M407 720Q527 720 637 661L576 492Q534 516 496 529T415 543Q330 543 278 491T227 356Q227 274 277 220T415 167Q503 167 596 224L648 60Q597 26 537 8T399 -10Q290 -10 205 35T74 162T28 352Q28 462 76 545T211 674T407 720Z" horiz-adv-x="653" unicode="C"/>
			<glyph d="M70 710H369Q472 710 553 666T680 543T726 358Q726 253 680 171T553 45T369 0H70ZM260 547V163H337Q424 163 475 214T526 356Q526 448 475 497T337 547Z" horiz-adv-x="754" unicode="D"/>
			<glyph d="M70 710H528V545H260V434H520V275H260V165H537V0H70Z" horiz-adv-x="590" unicode="E"/>
			<glyph d="M70 710H525V545H260V429H511V264H260V0H70Z" horiz-adv-x="554" unicode="F"/>
			<glyph d="M405 720Q545 720 671 636L602 467Q558 502 508 522T406 543Q328 543 277 495T227 351Q227 259 273 213T394 168Q451 168 489 192T544 253H386V402H728V-1H556V65Q525 31 474 10T360 -11Q268 -11 192 34T72 161T28 350Q28 463 77 547T213 675T405 720Z" horiz-adv-x="778" unicode="G"/>
			<glyph d="M70 710H260V437H507V710H697V0H507V273H260V0H70Z" horiz-adv-x="767" unicode="H"/>
			<glyph d="M70 710H260V0H70Z" horiz-adv-x="330" unicode="I"/>
			<glyph d="M210 710H400V270Q400 138 333 64T150 -10Q70 -10 4 14L32 175Q78 159 116 159Q161 159 185 192T210 294Z" horiz-adv-x="455" unicode="J"/>
			<glyph d="M70 710H260V366L490 710H705L475 377L730 0H498L260 363V0H70Z" horiz-adv-x="730" unicode="K"/>
			<glyph d="M70 710H260V169H519V0H70Z" horiz-adv-x="539" unicode="L"/>
			<glyph d="M70 710H325L466 401L623 710H869V0H683V478L541 179H391L254 478V0H70Z" horiz-adv-x="939" unicode="M"/>
			<glyph d="M70 710H254L536 291V710H716V0H533L250 418V0H70Z" horiz-adv-x="786" unicode="N"/>
			<glyph d="M403 720Q510 720 595 675T729 548T778 358Q778 250 729 166T595 36T401 -10Q295 -10 210 35T76 162T28 355Q28 465 76 547T210 675T403 720ZM403 541Q324 541 275 489T227 355Q227 272 275 220T403 169Q482 169 530 220T579 355Q579 438 530 489T403 541Z" horiz-adv-x="806" unicode="O"/>
			<glyph d="M70 710H354Q433 710 489 677T573 591T602 477Q602 415 573 359T488 269T354 235H260V0H70ZM260 557V388H308Q352 388 377 410T402 477Q402 517 377 537T308 557Z" horiz-adv-x="624" unicode="P"/>
			<glyph d="M403 720Q510 720 595 675T729 548T778 358Q778 284 754 220T688 109L801 -10H585L557 19Q485 -10 401 -10Q295 -10 210 35T76 162T28 355Q28 465 76 547T210 675T403 720ZM403 541Q324 541 275 489T227 355Q227 272 275 220T403 169H414L305 284H521L553 251Q579 295 579 355Q579 438 530 489T403 541Z" horiz-adv-x="814" unicode="Q"/>
			<glyph d="M70 710H359Q438 710 494 681T578 603T606 497Q606 433 573 379T479 294L665 0H443L299 259H260V0H70ZM260 557V405H327Q364 405 385 425T406 482Q406 518 385 537T327 557Z" horiz-adv-x="665" unicode="R"/>
			<glyph d="M314 720Q375 720 437 704T537 667L482 510Q446 530 400 542T318 555Q285 555 265 544T245 515Q245 492 273 476T373 436Q437 413 476 388T537 325T559 228Q559 116 486 53T285 -10Q217 -10 151 8T35 58L82 232Q130 199 186 177T293 156Q365 156 365 203Q365 219 355 229T322 250T246 280Q147 317 99 365T52 496Q52 565 85 615T177 693T314 720Z" horiz-adv-x="594" unicode="S"/>
			<glyph d="M15 710H559V546H382V0H192V546H15Z" horiz-adv-x="574" unicode="T"/>
			<glyph d="M65 710H255V288Q255 229 285 199T369 169Q422 169 452 199T483 288V710H671V268Q671 181 633 118T528 23T368 -10Q276 -10 208 23T102 118T65 268Z" horiz-adv-x="736" unicode="U"/>
			<glyph d="M-6 710H200L346 219L492 710H696L449 0H241Z" horiz-adv-x="690" unicode="V"/>
			<glyph d="M-2 710H206L327 247L453 710H642L770 252L889 710H1076L864 0H663L537 444L408 0H210Z" horiz-adv-x="1074" unicode="W"/>
			<glyph d="M6 710H228L327 506L440 710H638L427 365L648 0H427L316 214L207 0H-2L213 360Z" horiz-adv-x="646" unicode="X"/>
			<glyph d="M-12 710H196L323 447L450 710H634L404 269V0H218V269Z" horiz-adv-x="622" unicode="Y"/>
			<glyph d="M48 710H563V604L280 163H567V0H24V106L307 546H48Z" horiz-adv-x="597" unicode="Z"/>
			<glyph d="M70 752H364V620H220V2H364V-130H70Z" horiz-adv-x="406" unicode="["/>
			<glyph d="M10 751H164L499 -169H345Z" horiz-adv-x="509" unicode="\"/>
			<glyph d="M42 752H336V-130H42V2H186V620H42Z" horiz-adv-x="406" unicode="]"/>
			<glyph d="M162 710H338L490 260H350L250 586L150 260H10Z" horiz-adv-x="500" unicode="^"/>
			<glyph d="M-5 -92H455V-137H-5Z" horiz-adv-x="450" unicode="_"/>
			<glyph d="M290 752H449L574 579H433Z" horiz-adv-x="400" unicode="`"/>
			<glyph d="M345 210Q274 208 244 194T214 153Q214 134 227 123T264 113Q299 113 322 133T345 190ZM293 520Q398 520 459 473T520 325V0H345V56Q320 26 279 7T191 -11Q120 -11 76 30T32 142Q32 230 110 269T345 311V317Q345 379 259 379Q185 379 109 333L71 466Q114 490 172 505T293 520Z" horiz-adv-x="573" unicode="a"/>
			<glyph d="M55 752H230V457Q252 486 289 503T376 520Q446 520 502 486T589 391T621 255Q621 179 589 118T502 24T375 -10Q325 -10 288 7T230 57V0H55ZM334 363Q289 363 258 333T227 255Q227 206 258 177T334 148Q382 148 411 176T440 255Q440 305 410 334T334 363Z" horiz-adv-x="653" unicode="b"/>
			<glyph d="M309 520Q361 520 405 507T479 475L428 330Q408 344 380 354T324 364Q277 364 246 333T216 254Q216 206 245 176T327 146Q351 146 382 155T442 181L483 39Q408 -10 309 -10Q228 -10 165 23T67 116T32 252Q32 331 69 392T169 486T309 520Z" horiz-adv-x="495" unicode="c"/>
			<glyph d="M423 752H598V0H423V57Q403 24 365 7T277 -10Q208 -10 152 24T64 118T32 255Q32 331 63 391T151 486T276 520Q326 520 364 503T423 458ZM319 363Q271 363 242 333T213 255Q213 206 242 177T319 148Q367 148 396 177T426 255Q426 304 396 333T319 363Z" horiz-adv-x="648" unicode="d"/>
			<glyph d="M293 390Q262 390 242 371T213 320H368Q364 352 342 371T293 390ZM293 520Q369 520 425 485T513 387T544 235V208H211Q228 133 329 133Q410 133 474 170L515 39Q431 -10 306 -10Q227 -10 164 23T67 116T32 254Q32 333 66 393T159 487T293 520Z" horiz-adv-x="569" unicode="e"/>
			<glyph d="M284 763Q352 763 416 735L386 591Q348 609 323 609Q272 609 272 548V510H387V365H272V0H97V365H15V510H97V554Q97 667 148 715T284 763Z" horiz-adv-x="397" unicode="f"/>
			<glyph d="M269 520Q368 520 423 452V510H598V30Q598 -53 559 -109T453 -193T302 -221Q223 -221 169 -208T67 -168L110 -11Q191 -67 291 -67Q353 -67 388 -40T423 33V78Q400 46 361 28T270 10Q204 10 149 41T63 129T32 263Q32 336 63 394T149 486T269 520ZM318 373Q270 373 240 343T211 266Q211 218 240 188T318 158Q364 158 393 189T423 266Q423 311 393 342T318 373Z" horiz-adv-x="648" unicode="g"/>
			<glyph d="M55 752H230V440Q256 481 300 501T400 521Q489 521 532 473T575 334V0H400V259Q400 316 382 340T325 365Q278 365 254 337T230 255V0H55Z" horiz-adv-x="628" unicode="h"/>
			<glyph d="M55 510H230V0H55ZM145 768Q186 768 214 739T243 670Q243 629 214 600T145 572Q104 572 75 600T47 670Q47 711 75 739T145 768Z" horiz-adv-x="285" unicode="i"/>
			<glyph d="M55 510H230V-17Q230 -215 62 -215Q31 -215 1 -211T-48 -201L-25 -54Q-2 -60 12 -60Q55 -60 55 -6ZM143 768Q184 768 212 739T241 670Q241 629 212 600T143 572Q102 572 73 600T45 670Q45 711 73 739T143 768Z" horiz-adv-x="285" unicode="j"/>
			<glyph d="M55 752H230V271L394 510H601L429 269L607 0H394L230 261V0H55Z" horiz-adv-x="607" unicode="k"/>
			<glyph d="M55 752H230V195Q230 141 276 141Q295 141 318 150L335 13Q283 -10 223 -10Q142 -10 98 33T55 165Z" horiz-adv-x="345" unicode="l"/>
			<glyph d="M390 521Q519 521 553 418Q577 469 623 495T725 521Q814 521 857 473T900 334V0H725V259Q725 317 709 341T655 365Q565 365 565 255V0H390V259Q390 317 374 341T320 365Q230 365 230 255V0H55V510H230V439Q257 480 299 500T390 521Z" horiz-adv-x="953" unicode="m"/>
			<glyph d="M399 521Q488 521 531 473T575 334V0H400V259Q400 317 383 341T324 365Q230 365 230 255V0H55V510H230V437Q257 479 302 500T399 521Z" horiz-adv-x="628" unicode="n"/>
			<glyph d="M317 520Q401 520 465 485T566 391T602 255Q602 179 566 119T465 24T317 -10Q234 -10 169 24T68 119T32 255Q32 330 68 390T169 485T317 520ZM318 361Q271 361 242 331T213 255Q213 207 241 178T317 149Q364 149 392 178T421 256Q421 303 392 332T318 361Z" horiz-adv-x="634" unicode="o"/>
			<glyph d="M376 520Q446 520 502 486T589 391T621 255Q621 179 589 118T502 24T375 -10Q325 -10 288 7T230 57V-210H55V510H230V457Q252 486 289 503T376 520ZM334 363Q289 363 258 333T227 255Q227 206 258 177T334 148Q382 148 411 176T440 255Q440 305 410 334T334 363Z" horiz-adv-x="653" unicode="p"/>
			<glyph d="M276 520Q326 520 364 503T423 458V510H598V-210H423V57Q403 24 365 7T277 -10Q208 -10 152 24T64 118T32 255Q32 331 63 391T151 486T276 520ZM319 363Q271 363 242 333T213 255Q213 206 242 177T319 148Q367 148 396 177T426 255Q426 304 396 333T319 363Z" horiz-adv-x="648" unicode="q"/>
			<glyph d="M348 521Q378 521 416 509L393 341Q368 350 338 350Q281 350 254 318T228 214V0H55V510H228V432Q249 478 280 499T348 521Z" horiz-adv-x="411" unicode="r"/>
			<glyph d="M259 521Q306 521 353 509T436 478L407 351Q375 370 333 383T257 396Q217 396 217 375Q217 361 234 353T290 336Q379 314 418 277T457 174Q457 89 399 39T236 -10Q181 -10 126 3T34 41L73 175Q112 147 159 131T246 115Q288 115 288 138Q288 154 269 163T194 192Q145 209 114 226T65 272T47 346Q47 427 104 474T259 521Z" horiz-adv-x="491" unicode="s"/>
			<glyph d="M269 668V510H399V365H269V209Q269 176 282 161T320 146Q351 146 404 170L429 32Q400 13 360 1T275 -10Q187 -10 140 39T94 184V365H11V510H94V648Z" horiz-adv-x="437" unicode="t"/>
			<glyph d="M53 510H228V251Q228 193 244 169T302 145Q397 145 397 255V510H572V0H397V72Q369 30 323 9T223 -11Q139 -11 96 37T53 176Z" horiz-adv-x="627" unicode="u"/>
			<glyph d="M0 510H192L285 216L378 510H556L366 0H193Z" horiz-adv-x="556" unicode="v"/>
			<glyph d="M10 510H202L284 216L366 510H507L595 217L671 510H850L693 0H516L432 260L358 0H180Z" horiz-adv-x="860" unicode="w"/>
			<glyph d="M12 510H228L306 390L388 510H589L407 264L592 0H382L304 129L223 0H7L196 259Z" horiz-adv-x="599" unicode="x"/>
			<glyph d="M0 510H191L286 212L377 510H557L348 -54Q319 -133 270 -171T139 -210Q80 -210 31 -190L51 -45Q78 -55 104 -55Q168 -55 188 -5L196 15Z" horiz-adv-x="557" unicode="y"/>
			<glyph d="M39 510H483V440L288 145H486V0H20V69L227 365H39Z" horiz-adv-x="506" unicode="z"/>
			<glyph d="M288 752H379V620H325Q294 620 277 609T260 570Q260 557 265 535T278 492Q300 426 300 397Q300 329 191 311Q300 293 300 225Q300 196 278 130Q271 108 265 86T260 52Q260 24 277 13T325 2H379V-130H288Q110 -130 110 -2Q110 21 116 46T133 110Q150 169 150 190Q150 215 126 230T58 245H29V377H58Q150 377 150 432Q150 453 133 512Q122 550 116 575T110 624Q110 752 288 752Z" horiz-adv-x="416" unicode="{"/>
			<glyph d="M90 752H240V-210H90Z" horiz-adv-x="330" unicode="|"/>
			<glyph d="M37 752H128Q306 752 306 624Q306 601 300 575T283 512Q266 453 266 432Q266 405 289 391T358 377H387V245H358Q313 245 289 231T266 190Q266 169 283 110Q294 72 300 46T306 -2Q306 -130 128 -130H37V2H91Q122 2 139 13T156 52Q156 65 150 86T138 130Q116 196 116 225Q116 293 225 311Q116 329 116 397Q116 426 138 492Q145 514 150 535T156 570Q156 598 139 609T91 620H37Z" horiz-adv-x="416" unicode="}"/>
			<glyph d="M183 444Q215 444 307 419L330 413Q347 408 362 404T391 401Q422 401 428 444H531Q531 391 514 353T472 295T421 276Q378 276 294 300Q288 302 266 308T232 316T211 319Q196 319 187 308T173 276H70Q70 334 86 371T128 426T183 444Z" unicode="~"/>
			<glyph d="" horiz-adv-x="190" unicode=" "/>
			<glyph d="M171 518Q213 518 242 488T272 417Q272 375 242 345T171 316Q129 316 99 345T70 417Q70 459 99 488T171 518ZM101 225H243L273 -210H71Z" horiz-adv-x="343" unicode="¡"/>
			<glyph d="M264 710H364V640Q403 636 437 625T496 601L445 455Q406 476 364 483V269Q415 273 467 298L508 156Q448 121 364 113V0H264V117Q159 134 95 204T32 377Q32 445 61 500T143 590T264 637ZM264 470Q216 444 216 377Q216 315 264 286Z" horiz-adv-x="528" unicode="¢"/>
			<glyph d="M382 730Q498 730 567 666L500 510Q475 538 449 550T392 563Q352 563 332 540T312 461V417H497V279H312V269Q312 237 299 206T259 158H573V0H41V158Q82 162 103 191T125 267V279H41V417H125V479Q125 599 192 664T382 730Z" horiz-adv-x="593" unicode="£"/>
			<glyph d="M170 640L238 572Q286 595 340 595Q394 595 442 572L510 640L630 520L562 452Q585 404 585 350Q585 296 562 248L630 180L510 60L442 128Q394 105 340 105Q286 105 238 128L170 60L50 180L118 248Q95 296 95 350Q95 404 118 452L50 520ZM340 425Q309 425 287 403T265 350Q265 319 287 297T340 275Q371 275 393 297T415 350Q415 381 393 403T340 425Z" horiz-adv-x="680" unicode="¤"/>
			<glyph d="M-4 710H204L301 458L398 710H582L417 342H538V262H382V202H538V122H382V0H196V122H40V202H196V262H40V342H161Z" horiz-adv-x="578" unicode="¥"/>
			<glyph d="M90 752H240V356H90ZM90 186H240V-210H90Z" horiz-adv-x="330" unicode="¦"/>
			<glyph d="M265 762Q307 762 356 750T442 719L408 592Q376 611 333 624T263 637Q218 637 218 611Q218 602 224 596T250 582T310 563Q396 537 429 503T463 410Q463 334 408 284Q434 263 445 235T457 169Q457 117 430 76T356 13T247 -10Q113 -10 34 41L73 175Q111 148 157 131T239 115Q263 115 275 122T288 143Q288 157 270 168T194 199Q114 226 78 259T42 353Q42 391 57 422T102 476Q48 518 48 594Q48 670 107 716T265 762ZM245 415Q230 415 221 406T212 386Q212 373 222 364T262 345Q277 345 285 353T294 375Q294 389 284 397T245 415Z" horiz-adv-x="491" unicode="§"/>
			<glyph d="M332 755Q367 755 391 731T415 673Q415 638 391 614T332 590Q298 590 274 614T250 673Q250 708 273 731T332 755ZM558 755Q592 755 616 731T640 673Q640 638 616 614T558 590Q523 590 499 614T475 673Q475 708 499 731T558 755Z" horiz-adv-x="400" unicode="¨"/>
			<glyph d="M405 720Q504 720 588 671T721 538T770 355Q770 256 721 172T588 39T405 -10Q306 -10 222 39T89 172T40 355Q40 454 89 538T222 671T405 720ZM405 633Q329 633 265 595T164 494T127 355Q127 279 164 215T265 114T405 77Q481 77 544 114T645 215T683 355Q683 431 645 494T544 595T405 633ZM416 580Q460 580 501 566T577 528L536 414Q475 460 418 460Q373 460 344 430T315 355Q315 309 344 279T422 250Q477 250 543 290L579 177Q509 130 421 130Q350 130 295 158T211 238T181 354Q181 419 211 470T295 551T416 580Z" horiz-adv-x="810" unicode="©"/>
			<glyph d="M195 720Q258 720 294 691T331 603V408H227V441Q210 424 186 412T135 401Q94 401 66 425T39 493Q39 547 85 570T227 594V599Q227 635 175 635Q129 635 85 608L62 687Q86 701 121 710T195 720ZM227 535Q183 535 165 526T148 500Q148 475 176 475Q196 475 211 488T227 522Z" horiz-adv-x="381" unicode="ª"/>
			<glyph d="M190 460H385L209 260L385 60H190L30 260ZM505 460H700L524 260L700 60H505L345 260Z" horiz-adv-x="730" unicode="«"/>
			<glyph d="M75 508H525V193H385V368H75Z" unicode="¬"/>
			<glyph d="M40 347H393V203H40Z" horiz-adv-x="433" unicode="­"/>
			<glyph d="M223 710Q280 710 325 684T397 612T423 510Q423 453 397 407T325 336T223 310Q166 310 120 336T49 407T23 510Q23 567 49 612T120 684T223 710ZM223 653Q159 653 119 613T80 510Q80 446 119 406T223 367Q287 367 326 406T366 510Q366 574 326 613T223 653ZM144 615H231Q265 615 285 597T306 550Q306 511 272 490L324 405H251L211 477H209V405H144ZM209 561V530H222Q238 530 238 546Q238 561 222 561Z" horiz-adv-x="446" unicode="®"/>
			<glyph d="M251 711H631V603H251Z" horiz-adv-x="400" unicode="¯"/>
			<glyph d="M199 710Q246 710 285 687T348 625T371 541Q371 495 348 456T285 395T199 372Q152 372 112 395T50 456T27 541Q27 587 50 625T112 687T199 710ZM199 590Q179 590 164 575T150 541Q150 521 164 506T199 492Q219 492 233 506T248 541Q248 561 233 575T199 590Z" horiz-adv-x="398" unicode="°"/>
			<glyph d="M230 597H370V491H525V365H370V259H230V365H75V491H230ZM75 230H525V104H75Z" unicode="±"/>
			<glyph d="M200 871Q274 871 319 834T364 739Q364 694 340 656T274 585L221 543H381V435H38V505L183 640Q214 669 226 688T238 722Q238 741 225 751T189 762Q163 762 135 749T82 713L29 804Q98 871 200 871Z" horiz-adv-x="413" unicode="²"/>
			<glyph d="M204 870Q271 870 311 838T352 754Q352 686 275 658Q324 643 347 619T371 553Q371 495 324 460T192 425Q142 425 99 437T27 475L84 574Q134 537 193 537Q222 537 235 544T248 565Q248 587 226 595T142 603V696Q230 696 230 731Q230 758 191 758Q168 758 142 747T93 718L40 811Q70 837 112 853T204 870Z" horiz-adv-x="413" unicode="³"/>
			<glyph d="M323 752H482L341 579H200Z" horiz-adv-x="400" unicode="´"/>
			<glyph d="M55 510H230V251Q230 197 249 171T315 145Q355 145 377 173T399 255V510H574V0H399V53Q379 21 350 5T290 -11Q259 -11 230 8V-209H55V225H56L55 226Z" horiz-adv-x="629" unicode="µ"/>
			<glyph d="M284 710H700V615H620V-210H520V615H424V-210H324V151H284Q208 151 150 185T61 283T30 431Q30 514 61 577T150 675T284 710Z" horiz-adv-x="730" unicode="¶"/>
			<glyph d="M156 447Q198 447 227 417T257 346Q257 304 227 274T156 245Q114 245 84 274T55 346Q55 388 84 417T156 447Z" horiz-adv-x="312" unicode="·"/>
			<glyph d="M258 0H339V-29Q408 -49 408 -119Q408 -234 228 -234V-149Q267 -149 282 -141T297 -115Q297 -96 287 -89T258 -83Z" horiz-adv-x="400" unicode="¸"/>
			<glyph d="M205 866H251V435H127V715L43 676V789Z" horiz-adv-x="328" unicode="¹"/>
			<glyph d="M201 720Q248 720 287 699T349 641T372 561Q372 517 349 480T287 423T201 402Q154 402 114 423T52 480T30 561Q30 605 52 641T114 699T201 720ZM200 623Q173 623 156 603T139 559Q139 532 157 515T201 499Q227 499 244 517T262 562Q262 589 244 606T200 623Z" horiz-adv-x="402" unicode="º"/>
			<glyph d="M30 460H225L385 260L225 60H30L206 260ZM345 460H540L700 260L540 60H345L521 260Z" horiz-adv-x="730" unicode="»"/>
			<glyph d="M205 716H251V285H127V565L43 526V639ZM628 710H767L256 0H117ZM704 426H834V167H879V69H834V0H711V69H522V156ZM711 278L636 167H711Z" horiz-adv-x="911" unicode="¼"/>
			<glyph d="M205 716H251V285H127V565L43 526V639ZM628 710H767L256 0H117ZM756 436Q830 436 875 399T920 304Q920 259 896 221T830 150L777 108H937V0H594V70L739 205Q770 234 782 253T794 287Q794 306 781 316T745 327Q719 327 691 314T638 278L585 369Q654 436 756 436Z" horiz-adv-x="969" unicode="½"/>
			<glyph d="M204 720Q271 720 311 688T352 604Q352 536 275 508Q324 493 347 469T371 403Q371 345 324 310T192 275Q142 275 99 287T27 325L84 424Q134 387 193 387Q222 387 235 394T248 415Q248 437 226 445T142 453V546Q230 546 230 581Q230 608 191 608Q168 608 142 597T93 568L40 661Q70 687 112 703T204 720ZM681 710H820L309 0H170ZM745 426H875V167H920V69H875V0H752V69H563V156ZM752 278L677 167H752Z" horiz-adv-x="952" unicode="¾"/>
			<glyph d="M266 520Q308 520 337 490T367 419Q367 377 337 347T266 318Q224 318 194 347T165 419Q165 461 194 490T266 520ZM199 227H344Q344 183 334 151T284 82Q240 39 223 17T207 -25Q207 -47 222 -59T265 -72Q296 -72 320 -52T362 0L494 -91Q464 -150 404 -189T252 -228Q186 -228 136 -204T59 -137T32 -42Q32 14 52 51T114 123Q199 196 199 227Z" horiz-adv-x="526" unicode="¿"/>
			<glyph d="M263 710H472L727 0H526L470 172H255L199 0H8ZM362 505L302 320H422ZM166 924H335L462 764H321Z" horiz-adv-x="735" unicode="À"/>
			<glyph d="M263 710H472L727 0H526L470 172H255L199 0H8ZM362 505L302 320H422ZM403 924H572L417 764H276Z" horiz-adv-x="735" unicode="Á"/>
			<glyph d="M263 710H472L727 0H526L470 172H255L199 0H8ZM362 505L302 320H422ZM287 924H449L586 764H445L368 828L291 764H150Z" horiz-adv-x="735" unicode="Â"/>
			<glyph d="M263 710H472L727 0H526L470 172H255L199 0H8ZM362 505L302 320H422ZM290 912Q317 912 377 887Q383 885 401 877T432 869Q458 869 465 912H558Q552 843 521 803T445 764Q414 764 360 788Q341 797 327 802T304 807Q291 807 282 797T269 764H176Q182 838 213 875T290 912Z" horiz-adv-x="735" unicode="Ã"/>
			<glyph d="M263 710H472L727 0H526L470 172H255L199 0H8ZM362 505L302 320H422ZM256 937Q291 937 315 913T339 855Q339 820 315 796T256 772Q222 772 198 796T174 855Q174 890 197 913T256 937ZM482 937Q516 937 540 913T564 855Q564 820 540 796T482 772Q447 772 423 796T399 855Q399 890 423 913T482 937Z" horiz-adv-x="735" unicode="Ä"/>
			<glyph d="M263 710H472L727 0H526L470 172H255L199 0H8ZM362 505L302 320H422ZM368 967Q418 967 453 932T488 849Q488 800 453 765T368 731Q317 731 281 765T246 849Q246 898 281 932T368 967ZM368 882Q353 882 343 872T333 849Q333 835 343 825T368 815Q382 815 392 825T402 849Q402 862 392 872T368 882ZZ" horiz-adv-x="735" unicode="Å"/>
			<glyph d="M263 710H873V545H605V434H865V275H605V165H882V0H415V172H256L199 0H8ZM381 545L306 320H415V545Z" horiz-adv-x="935" unicode="Æ"/>
			<glyph d="M407 720Q527 720 637 661L576 492Q534 516 496 529T415 543Q330 543 278 491T227 356Q227 274 277 220T415 167Q503 167 596 224L648 60Q551 -4 426 -9V-29Q495 -49 495 -119Q495 -234 315 -234V-149Q354 -149 369 -141T384 -115Q384 -96 374 -89T345 -83V-7Q250 4 178 51T67 176T28 352Q28 462 76 545T211 674T407 720Z" horiz-adv-x="653" unicode="Ç"/>
			<glyph d="M70 710H528V545H260V434H520V275H260V165H537V0H70ZM98 924H267L394 764H253Z" horiz-adv-x="590" unicode="È"/>
			<glyph d="M70 710H528V545H260V434H520V275H260V165H537V0H70ZM335 924H504L349 764H208Z" horiz-adv-x="590" unicode="É"/>
			<glyph d="M70 710H528V545H260V434H520V275H260V165H537V0H70ZM219 924H381L518 764H377L300 828L223 764H82Z" horiz-adv-x="590" unicode="Ê"/>
			<glyph d="M70 710H528V545H260V434H520V275H260V165H537V0H70ZM188 937Q223 937 247 913T271 855Q271 820 247 796T188 772Q154 772 130 796T106 855Q106 890 129 913T188 937ZM414 937Q448 937 472 913T496 855Q496 820 472 796T414 772Q379 772 355 796T331 855Q331 890 355 913T414 937Z" horiz-adv-x="590" unicode="Ë"/>
			<glyph d="M70 710H260V0H70ZM-37 924H132L259 764H118Z" horiz-adv-x="330" unicode="Ì"/>
			<glyph d="M70 710H260V0H70ZM200 924H369L214 764H73Z" horiz-adv-x="330" unicode="Í"/>
			<glyph d="M70 710H260V0H70ZM84 924H246L383 764H242L165 828L88 764H-53Z" horiz-adv-x="330" unicode="Î"/>
			<glyph d="M70 710H260V0H70ZM53 937Q88 937 112 913T136 855Q136 820 112 796T53 772Q19 772 -5 796T-29 855Q-29 890 -5 913T53 937ZM279 937Q313 937 337 913T361 855Q361 820 337 796T279 772Q244 772 220 796T196 855Q196 890 220 913T279 937Z" horiz-adv-x="330" unicode="Ï"/>
			<glyph d="M70 710H369Q472 710 553 666T680 543T726 358Q726 253 680 171T553 45T369 0H70V283H5V427H70ZM260 547V427H385V283H260V163H337Q424 163 475 214T526 356Q526 448 475 497T337 547Z" horiz-adv-x="754" unicode="Ð"/>
			<glyph d="M70 710H254L536 291V710H716V0H533L250 418V0H70ZM315 912Q342 912 402 887Q408 885 426 877T457 869Q483 869 490 912H583Q577 843 546 803T470 764Q439 764 385 788Q366 797 352 802T329 807Q316 807 307 797T294 764H201Q207 838 238 875T315 912Z" horiz-adv-x="786" unicode="Ñ"/>
			<glyph d="M403 720Q510 720 595 675T729 548T778 358Q778 250 729 166T595 36T401 -10Q295 -10 210 35T76 162T28 355Q28 465 76 547T210 675T403 720ZM403 541Q324 541 275 489T227 355Q227 272 275 220T403 169Q482 169 530 220T579 355Q579 438 530 489T403 541ZM199 924H368L495 764H354Z" horiz-adv-x="806" unicode="Ò"/>
			<glyph d="M403 720Q510 720 595 675T729 548T778 358Q778 250 729 166T595 36T401 -10Q295 -10 210 35T76 162T28 355Q28 465 76 547T210 675T403 720ZM403 541Q324 541 275 489T227 355Q227 272 275 220T403 169Q482 169 530 220T579 355Q579 438 530 489T403 541ZM436 924H605L450 764H309Z" horiz-adv-x="806" unicode="Ó"/>
			<glyph d="M403 720Q510 720 595 675T729 548T778 358Q778 250 729 166T595 36T401 -10Q295 -10 210 35T76 162T28 355Q28 465 76 547T210 675T403 720ZM403 541Q324 541 275 489T227 355Q227 272 275 220T403 169Q482 169 530 220T579 355Q579 438 530 489T403 541ZM320 924H482L619 764H478L401 828L324 764H183Z" horiz-adv-x="806" unicode="Ô"/>
			<glyph d="M403 720Q510 720 595 675T729 548T778 358Q778 250 729 166T595 36T401 -10Q295 -10 210 35T76 162T28 355Q28 465 76 547T210 675T403 720ZM403 541Q324 541 275 489T227 355Q227 272 275 220T403 169Q482 169 530 220T579 355Q579 438 530 489T403 541ZM323 912Q350 912 410 887Q416 885 434 877T465 869Q491 869 498 912H591Q585 843 554 803T478 764Q447 764 393 788Q374 797 360 802T337 807Q324 807 315 797T302 764H209Q215 838 246 875T323 912Z" horiz-adv-x="806" unicode="Õ"/>
			<glyph d="M403 720Q510 720 595 675T729 548T778 358Q778 250 729 166T595 36T401 -10Q295 -10 210 35T76 162T28 355Q28 465 76 547T210 675T403 720ZM403 541Q324 541 275 489T227 355Q227 272 275 220T403 169Q482 169 530 220T579 355Q579 438 530 489T403 541ZM289 937Q324 937 348 913T372 855Q372 820 348 796T289 772Q255 772 231 796T207 855Q207 890 230 913T289 937ZM515 937Q549 937 573 913T597 855Q597 820 573 796T515 772Q480 772 456 796T432 855Q432 890 456 913T515 937Z" horiz-adv-x="806" unicode="Ö"/>
			<glyph d="M430 579L529 480L399 350L529 220L430 121L300 251L171 122L72 221L201 350L72 479L171 578L300 449Z" unicode="×"/>
			<glyph d="M574 761H728L653 638Q713 589 745 517T778 358Q778 250 729 166T595 36T401 -10Q332 -10 270 10L233 -50H79L154 72Q94 121 61 193T28 355Q28 465 76 547T210 675T403 720Q474 720 537 700ZM403 541Q324 541 275 489T227 355Q227 290 258 243L438 538Q421 541 403 541ZM548 467L368 172Q385 169 403 169Q482 169 530 220T579 355Q579 421 548 467Z" horiz-adv-x="806" unicode="Ø"/>
			<glyph d="M65 710H255V288Q255 229 285 199T369 169Q422 169 452 199T483 288V710H671V268Q671 181 633 118T528 23T368 -10Q276 -10 208 23T102 118T65 268ZM166 924H335L462 764H321Z" horiz-adv-x="736" unicode="Ù"/>
			<glyph d="M65 710H255V288Q255 229 285 199T369 169Q422 169 452 199T483 288V710H671V268Q671 181 633 118T528 23T368 -10Q276 -10 208 23T102 118T65 268ZM403 924H572L417 764H276Z" horiz-adv-x="736" unicode="Ú"/>
			<glyph d="M65 710H255V288Q255 229 285 199T369 169Q422 169 452 199T483 288V710H671V268Q671 181 633 118T528 23T368 -10Q276 -10 208 23T102 118T65 268ZM287 924H449L586 764H445L368 828L291 764H150Z" horiz-adv-x="736" unicode="Û"/>
			<glyph d="M65 710H255V288Q255 229 285 199T369 169Q422 169 452 199T483 288V710H671V268Q671 181 633 118T528 23T368 -10Q276 -10 208 23T102 118T65 268ZM256 937Q291 937 315 913T339 855Q339 820 315 796T256 772Q222 772 198 796T174 855Q174 890 197 913T256 937ZM482 937Q516 937 540 913T564 855Q564 820 540 796T482 772Q447 772 423 796T399 855Q399 890 423 913T482 937Z" horiz-adv-x="736" unicode="Ü"/>
			<glyph d="M-12 710H196L323 447L450 710H634L404 269V0H218V269ZM346 924H515L360 764H219Z" horiz-adv-x="622" unicode="Ý"/>
			<glyph d="M70 710H260V597H354Q433 597 489 564T573 478T602 364Q602 302 573 246T488 156T354 122H260V0H70ZM260 444V275H308Q352 275 377 297T402 364Q402 404 377 424T308 444Z" horiz-adv-x="624" unicode="Þ"/>
			<glyph d="M310 759Q419 759 481 707T543 566Q543 461 452 412Q519 390 556 340T593 215Q593 147 563 96T482 18T364 -9Q334 -9 303 -3T255 9L276 156Q296 143 322 143Q364 143 386 167T409 229Q409 272 379 298T292 324H281V467L298 468Q330 470 351 489T372 540Q372 570 353 587T302 605Q267 605 247 582T228 513V0H55V515Q55 637 125 698T310 759Z" horiz-adv-x="625" unicode="ß"/>
			<glyph d="M345 210Q274 208 244 194T214 153Q214 134 227 123T264 113Q299 113 322 133T345 190ZM293 520Q398 520 459 473T520 325V0H345V56Q320 26 279 7T191 -11Q120 -11 76 30T32 142Q32 230 110 269T345 311V317Q345 379 259 379Q185 379 109 333L71 466Q114 490 172 505T293 520ZM118 752H277L402 579H261Z" horiz-adv-x="573" unicode="à"/>
			<glyph d="M345 210Q274 208 244 194T214 153Q214 134 227 123T264 113Q299 113 322 133T345 190ZM293 520Q398 520 459 473T520 325V0H345V56Q320 26 279 7T191 -11Q120 -11 76 30T32 142Q32 230 110 269T345 311V317Q345 379 259 379Q185 379 109 333L71 466Q114 490 172 505T293 520ZM319 752H478L337 579H196Z" horiz-adv-x="573" unicode="á"/>
			<glyph d="M345 210Q274 208 244 194T214 153Q214 134 227 123T264 113Q299 113 322 133T345 190ZM293 520Q398 520 459 473T520 325V0H345V56Q320 26 279 7T191 -11Q120 -11 76 30T32 142Q32 230 110 269T345 311V317Q345 379 259 379Q185 379 109 333L71 466Q114 490 172 505T293 520ZM213 752H375L512 579H371L294 661L217 579H76Z" horiz-adv-x="573" unicode="â"/>
			<glyph d="M345 210Q274 208 244 194T214 153Q214 134 227 123T264 113Q299 113 322 133T345 190ZM293 520Q398 520 459 473T520 325V0H345V56Q320 26 279 7T191 -11Q120 -11 76 30T32 142Q32 230 110 269T345 311V317Q345 379 259 379Q185 379 109 333L71 466Q114 490 172 505T293 520ZM215 745Q251 745 303 720Q320 712 333 707T355 702Q385 702 391 745H484Q478 673 446 635T369 597Q351 597 331 603T286 621Q268 629 254 634T231 640Q204 640 195 597H102Q108 673 140 709T215 745Z" horiz-adv-x="573" unicode="ã"/>
			<glyph d="M345 210Q274 208 244 194T214 153Q214 134 227 123T264 113Q299 113 322 133T345 190ZM293 520Q398 520 459 473T520 325V0H345V56Q320 26 279 7T191 -11Q120 -11 76 30T32 142Q32 230 110 269T345 311V317Q345 379 259 379Q185 379 109 333L71 466Q114 490 172 505T293 520ZM181 755Q216 755 240 731T264 673Q264 638 240 614T181 590Q147 590 123 614T99 673Q99 708 122 731T181 755ZM407 755Q441 755 465 731T489 673Q489 638 465 614T407 590Q372 590 348 614T324 673Q324 708 348 731T407 755Z" horiz-adv-x="573" unicode="ä"/>
			<glyph d="M345 210Q274 208 244 194T214 153Q214 134 227 123T264 113Q299 113 322 133T345 190ZM293 520Q398 520 459 473T520 325V0H345V56Q320 26 279 7T191 -11Q120 -11 76 30T32 142Q32 230 110 269T345 311V317Q345 379 259 379Q185 379 109 333L71 466Q114 490 172 505T293 520ZM297 800Q348 800 382 766T417 682Q417 632 382 598T297 564Q245 564 210 598T175 682Q175 732 210 766T297 800ZM297 715Q281 715 271 706T262 682Q262 667 271 657T297 648Q312 648 321 657T331 682Q331 696 322 705T297 715Z" horiz-adv-x="573" unicode="å"/>
			<glyph d="M302 520Q400 520 455 476Q523 520 607 520Q683 520 739 485T827 387T858 235V208H525Q542 133 643 133Q724 133 788 170L829 39Q745 -10 620 -10Q557 -10 504 11T414 71Q370 30 320 9T203 -11Q128 -11 80 28T32 146Q32 231 110 270T345 311V317Q345 379 260 379Q185 379 109 333L71 466Q117 490 172 505T302 520ZM607 390Q576 390 556 371T527 320H682Q678 352 656 371T607 390ZM345 210Q273 209 243 196T214 155Q214 134 228 123T265 113Q298 113 321 134T345 193Z" horiz-adv-x="883" unicode="æ"/>
			<glyph d="M309 520Q361 520 405 507T479 475L428 330Q408 344 380 354T324 364Q277 364 246 333T216 254Q216 206 245 176T327 146Q351 146 382 155T442 181L483 39Q414 -6 324 -10V-29Q393 -49 393 -119Q393 -234 213 -234V-149Q252 -149 267 -141T282 -115Q282 -96 272 -89T243 -83V-4Q147 15 89 84T32 252Q32 331 69 392T169 486T309 520Z" horiz-adv-x="495" unicode="ç"/>
			<glyph d="M293 390Q262 390 242 371T213 320H368Q364 352 342 371T293 390ZM293 520Q369 520 425 485T513 387T544 235V208H211Q228 133 329 133Q410 133 474 170L515 39Q431 -10 306 -10Q227 -10 164 23T67 116T32 254Q32 333 66 393T159 487T293 520ZM120 752H279L404 579H263Z" horiz-adv-x="569" unicode="è"/>
			<glyph d="M293 390Q262 390 242 371T213 320H368Q364 352 342 371T293 390ZM293 520Q369 520 425 485T513 387T544 235V208H211Q228 133 329 133Q410 133 474 170L515 39Q431 -10 306 -10Q227 -10 164 23T67 116T32 254Q32 333 66 393T159 487T293 520ZM321 752H480L339 579H198Z" horiz-adv-x="569" unicode="é"/>
			<glyph d="M293 390Q262 390 242 371T213 320H368Q364 352 342 371T293 390ZM293 520Q369 520 425 485T513 387T544 235V208H211Q228 133 329 133Q410 133 474 170L515 39Q431 -10 306 -10Q227 -10 164 23T67 116T32 254Q32 333 66 393T159 487T293 520ZM215 752H377L514 579H373L296 661L219 579H78Z" horiz-adv-x="569" unicode="ê"/>
			<glyph d="M293 390Q262 390 242 371T213 320H368Q364 352 342 371T293 390ZM293 520Q369 520 425 485T513 387T544 235V208H211Q228 133 329 133Q410 133 474 170L515 39Q431 -10 306 -10Q227 -10 164 23T67 116T32 254Q32 333 66 393T159 487T293 520ZM183 755Q218 755 242 731T266 673Q266 638 242 614T183 590Q149 590 125 614T101 673Q101 708 124 731T183 755ZM409 755Q443 755 467 731T491 673Q491 638 467 614T409 590Q374 590 350 614T326 673Q326 708 350 731T409 755Z" horiz-adv-x="569" unicode="ë"/>
			<glyph d="M55 510H230V0H55ZM-31 752H128L253 579H112Z" horiz-adv-x="285" unicode="ì"/>
			<glyph d="M55 510H230V0H55ZM170 752H329L188 579H47Z" horiz-adv-x="285" unicode="í"/>
			<glyph d="M55 510H230V0H55ZM64 752H226L343 579H202L145 656L88 579H-53Z" horiz-adv-x="285" unicode="î"/>
			<glyph d="M55 510H230V0H55ZM40 763Q78 763 104 737T131 673Q131 635 104 608T40 582Q2 582 -24 608T-50 673Q-50 711 -24 737T40 763ZM250 763Q288 763 314 737T340 673Q340 635 314 608T250 582Q212 582 185 608T159 673Q159 711 185 737T250 763Z" horiz-adv-x="285" unicode="ï"/>
			<glyph d="M213 767Q293 745 362 706L499 761L548 665L463 631Q531 565 566 476T602 283Q602 195 567 128T467 26T318 -10Q237 -10 172 20T69 109T32 249Q32 325 68 382T167 469T307 500Q346 500 383 490Q353 533 310 569L164 510L115 607L193 638Q151 656 103 668ZM317 357Q269 357 237 328T206 251Q206 203 237 172T316 142Q364 142 396 173T428 252Q428 300 397 328T317 357ZZ" horiz-adv-x="634" unicode="ð"/>
			<glyph d="M399 521Q488 521 531 473T575 334V0H400V259Q400 317 383 341T324 365Q230 365 230 255V0H55V510H230V437Q257 479 302 500T399 521ZM246 745Q282 745 334 720Q351 712 364 707T386 702Q416 702 422 745H515Q509 673 477 635T400 597Q382 597 362 603T317 621Q299 629 285 634T262 640Q235 640 226 597H133Q139 673 171 709T246 745Z" horiz-adv-x="628" unicode="ñ"/>
			<glyph d="M317 520Q401 520 465 485T566 391T602 255Q602 179 566 119T465 24T317 -10Q234 -10 169 24T68 119T32 255Q32 330 68 390T169 485T317 520ZM318 361Q271 361 242 331T213 255Q213 207 241 178T317 149Q364 149 392 178T421 256Q421 303 392 332T318 361ZM141 752H300L425 579H284Z" horiz-adv-x="634" unicode="ò"/>
			<glyph d="M317 520Q401 520 465 485T566 391T602 255Q602 179 566 119T465 24T317 -10Q234 -10 169 24T68 119T32 255Q32 330 68 390T169 485T317 520ZM318 361Q271 361 242 331T213 255Q213 207 241 178T317 149Q364 149 392 178T421 256Q421 303 392 332T318 361ZM342 752H501L360 579H219Z" horiz-adv-x="634" unicode="ó"/>
			<glyph d="M317 520Q401 520 465 485T566 391T602 255Q602 179 566 119T465 24T317 -10Q234 -10 169 24T68 119T32 255Q32 330 68 390T169 485T317 520ZM318 361Q271 361 242 331T213 255Q213 207 241 178T317 149Q364 149 392 178T421 256Q421 303 392 332T318 361ZM236 752H398L535 579H394L317 661L240 579H99Z" horiz-adv-x="634" unicode="ô"/>
			<glyph d="M317 520Q401 520 465 485T566 391T602 255Q602 179 566 119T465 24T317 -10Q234 -10 169 24T68 119T32 255Q32 330 68 390T169 485T317 520ZM318 361Q271 361 242 331T213 255Q213 207 241 178T317 149Q364 149 392 178T421 256Q421 303 392 332T318 361ZM238 745Q274 745 326 720Q343 712 356 707T378 702Q408 702 414 745H507Q501 673 469 635T392 597Q374 597 354 603T309 621Q291 629 277 634T254 640Q227 640 218 597H125Q131 673 163 709T238 745Z" horiz-adv-x="634" unicode="õ"/>
			<glyph d="M317 520Q401 520 465 485T566 391T602 255Q602 179 566 119T465 24T317 -10Q234 -10 169 24T68 119T32 255Q32 330 68 390T169 485T317 520ZM318 361Q271 361 242 331T213 255Q213 207 241 178T317 149Q364 149 392 178T421 256Q421 303 392 332T318 361ZM204 755Q239 755 263 731T287 673Q287 638 263 614T204 590Q170 590 146 614T122 673Q122 708 145 731T204 755ZM430 755Q464 755 488 731T512 673Q512 638 488 614T430 590Q395 590 371 614T347 673Q347 708 371 731T430 755Z" horiz-adv-x="634" unicode="ö"/>
			<glyph d="M300 625Q335 625 359 600T384 541Q384 506 359 481T300 457Q265 457 240 481T216 541Q216 576 240 600T300 625ZM75 420H525V280H75ZM300 243Q335 243 359 218T384 159Q384 124 359 99T300 75Q265 75 240 99T216 159Q216 194 240 218T300 243Z" unicode="÷"/>
			<glyph d="M458 554H581L511 451Q554 413 578 362T602 255Q602 182 564 121T461 25T317 -10Q260 -10 212 8L170 -54H47L123 59Q80 96 56 146T32 255Q32 328 70 388T173 484T317 520Q373 520 423 502ZM317 371Q270 371 236 338T203 255Q203 223 217 198L334 370Q328 371 317 371ZM417 312L301 140Q306 139 317 139Q364 139 397 172T431 255Q431 286 417 312Z" horiz-adv-x="634" unicode="ø"/>
			<glyph d="M53 510H228V251Q228 193 244 169T302 145Q397 145 397 255V510H572V0H397V72Q369 30 323 9T223 -11Q139 -11 96 37T53 176ZM138 752H297L422 579H281Z" horiz-adv-x="627" unicode="ù"/>
			<glyph d="M53 510H228V251Q228 193 244 169T302 145Q397 145 397 255V510H572V0H397V72Q369 30 323 9T223 -11Q139 -11 96 37T53 176ZM339 752H498L357 579H216Z" horiz-adv-x="627" unicode="ú"/>
			<glyph d="M53 510H228V251Q228 193 244 169T302 145Q397 145 397 255V510H572V0H397V72Q369 30 323 9T223 -11Q139 -11 96 37T53 176ZM233 752H395L532 579H391L314 661L237 579H96Z" horiz-adv-x="627" unicode="û"/>
			<glyph d="M53 510H228V251Q228 193 244 169T302 145Q397 145 397 255V510H572V0H397V72Q369 30 323 9T223 -11Q139 -11 96 37T53 176ZM201 755Q236 755 260 731T284 673Q284 638 260 614T201 590Q167 590 143 614T119 673Q119 708 142 731T201 755ZM427 755Q461 755 485 731T509 673Q509 638 485 614T427 590Q392 590 368 614T344 673Q344 708 368 731T427 755Z" horiz-adv-x="627" unicode="ü"/>
			<glyph d="M0 510H191L286 212L377 510H557L348 -54Q319 -133 270 -171T139 -210Q80 -210 31 -190L51 -45Q78 -55 104 -55Q168 -55 188 -5L196 15ZM309 752H468L327 579H186Z" horiz-adv-x="557" unicode="ý"/>
			<glyph d="M55 752H230V457Q252 486 289 503T376 520Q446 520 502 486T589 391T621 255Q621 179 589 118T502 24T375 -10Q325 -10 288 7T230 57V-210H55ZM334 363Q289 363 258 333T227 255Q227 206 258 177T334 148Q382 148 411 176T440 255Q440 305 410 334T334 363Z" horiz-adv-x="653" unicode="þ"/>
			<glyph d="M0 510H191L286 212L377 510H557L348 -54Q319 -133 270 -171T139 -210Q80 -210 31 -190L51 -45Q78 -55 104 -55Q168 -55 188 -5L196 15ZM171 755Q206 755 230 731T254 673Q254 638 230 614T171 590Q137 590 113 614T89 673Q89 708 112 731T171 755ZM397 755Q431 755 455 731T479 673Q479 638 455 614T397 590Q362 590 338 614T314 673Q314 708 338 731T397 755Z" horiz-adv-x="557" unicode="ÿ"/>
			<glyph d="M263 710H472L727 0H526L470 172H255L199 0H8ZM362 505L302 320H422ZM177 891H557V789H177Z" horiz-adv-x="735" unicode="Ā"/>
			<glyph d="M345 210Q274 208 244 194T214 153Q214 134 227 123T264 113Q299 113 322 133T345 190ZM293 520Q398 520 459 473T520 325V0H345V56Q320 26 279 7T191 -11Q120 -11 76 30T32 142Q32 230 110 269T345 311V317Q345 379 259 379Q185 379 109 333L71 466Q114 490 172 505T293 520ZM103 711H483V603H103Z" horiz-adv-x="573" unicode="ā"/>
			<glyph d="M263 710H472L727 0H526L470 172H255L199 0H8ZM362 505L302 320H422ZM190 924H307Q308 899 323 883T368 868Q396 868 411 883T429 924H546Q546 856 498 812T365 768Q279 768 234 811T190 924Z" horiz-adv-x="735" unicode="Ă"/>
			<glyph d="M345 210Q274 208 244 194T214 153Q214 134 227 123T264 113Q299 113 322 133T345 190ZM293 520Q398 520 459 473T520 325V0H345V56Q320 26 279 7T191 -11Q120 -11 76 30T32 142Q32 230 110 269T345 311V317Q345 379 259 379Q185 379 109 333L71 466Q114 490 172 505T293 520ZM115 752H232Q233 672 294 672Q353 672 356 752H473Q473 670 429 621T294 572Q203 572 159 621T115 752Z" horiz-adv-x="573" unicode="ă"/>
			<glyph d="M263 710H472L727 0H526L470 172H255L199 0H8ZM362 505L302 320H422ZM613 0H727Q644 -19 644 -79Q644 -100 653 -110T680 -121Q696 -121 717 -113L737 -198Q700 -212 659 -212Q599 -212 566 -184T533 -109Q533 -71 555 -43T613 0Z" horiz-adv-x="735" unicode="Ą"/>
			<glyph d="M345 210Q274 208 244 194T214 153Q214 134 227 123T264 113Q299 113 322 133T345 190ZM293 520Q398 520 459 473T520 325V0Q437 -19 437 -79Q437 -100 446 -110T473 -121Q489 -121 510 -113L530 -198Q493 -212 452 -212Q392 -212 359 -184T326 -109Q326 -71 348 -43T406 0H345V56Q320 26 279 7T191 -11Q120 -11 76 30T32 142Q32 230 110 269T345 311V317Q345 379 259 379Q185 379 109 333L71 466Q114 490 172 505T293 520Z" horiz-adv-x="573" unicode="ą"/>
			<glyph d="M407 720Q527 720 637 661L576 492Q534 516 496 529T415 543Q330 543 278 491T227 356Q227 274 277 220T415 167Q503 167 596 224L648 60Q597 26 537 8T399 -10Q290 -10 205 35T74 162T28 352Q28 462 76 545T211 674T407 720ZM432 924H601L446 764H305Z" horiz-adv-x="653" unicode="Ć"/>
			<glyph d="M309 520Q361 520 405 507T479 475L428 330Q408 344 380 354T324 364Q277 364 246 333T216 254Q216 206 245 176T327 146Q351 146 382 155T442 181L483 39Q408 -10 309 -10Q228 -10 165 23T67 116T32 252Q32 331 69 392T169 486T309 520ZM323 752H482L341 579H200Z" horiz-adv-x="495" unicode="ć"/>
			<glyph d="M407 720Q527 720 637 661L576 492Q534 516 496 529T415 543Q330 543 278 491T227 356Q227 274 277 220T415 167Q503 167 596 224L648 60Q597 26 537 8T399 -10Q290 -10 205 35T74 162T28 352Q28 462 76 545T211 674T407 720ZM316 924H478L615 764H474L397 828L320 764H179Z" horiz-adv-x="653" unicode="Ĉ"/>
			<glyph d="M309 520Q361 520 405 507T479 475L428 330Q408 344 380 354T324 364Q277 364 246 333T216 254Q216 206 245 176T327 146Q351 146 382 155T442 181L483 39Q408 -10 309 -10Q228 -10 165 23T67 116T32 252Q32 331 69 392T169 486T309 520ZM217 752H379L516 579H375L298 661L221 579H80Z" horiz-adv-x="495" unicode="ĉ"/>
			<glyph d="M407 720Q527 720 637 661L576 492Q534 516 496 529T415 543Q330 543 278 491T227 356Q227 274 277 220T415 167Q503 167 596 224L648 60Q597 26 537 8T399 -10Q290 -10 205 35T74 162T28 352Q28 462 76 545T211 674T407 720ZM397 953Q438 953 466 924T495 855Q495 814 466 785T397 757Q356 757 327 785T299 855Q299 896 327 924T397 953Z" horiz-adv-x="653" unicode="Ċ"/>
			<glyph d="M309 520Q361 520 405 507T479 475L428 330Q408 344 380 354T324 364Q277 364 246 333T216 254Q216 206 245 176T327 146Q351 146 382 155T442 181L483 39Q408 -10 309 -10Q228 -10 165 23T67 116T32 252Q32 331 69 392T169 486T309 520ZM298 768Q339 768 367 739T396 670Q396 629 367 600T298 572Q257 572 228 600T200 670Q200 711 228 739T298 768Z" horiz-adv-x="495" unicode="ċ"/>
			<glyph d="M407 720Q527 720 637 661L576 492Q534 516 496 529T415 543Q330 543 278 491T227 356Q227 274 277 220T415 167Q503 167 596 224L648 60Q597 26 537 8T399 -10Q290 -10 205 35T74 162T28 352Q28 462 76 545T211 674T407 720ZM178 924H319L396 860L473 924H614L477 764H315Z" horiz-adv-x="653" unicode="Č"/>
			<glyph d="M309 520Q361 520 405 507T479 475L428 330Q408 344 380 354T324 364Q277 364 246 333T216 254Q216 206 245 176T327 146Q351 146 382 155T442 181L483 39Q408 -10 309 -10Q228 -10 165 23T67 116T32 252Q32 331 69 392T169 486T309 520ZM82 752H223L298 675L371 752H512L379 579H217Z" horiz-adv-x="495" unicode="č"/>
			<glyph d="M70 710H369Q472 710 553 666T680 543T726 358Q726 253 680 171T553 45T369 0H70ZM260 547V163H337Q424 163 475 214T526 356Q526 448 475 497T337 547ZM144 924H285L362 860L439 924H580L443 764H281Z" horiz-adv-x="754" unicode="Ď"/>
			<glyph d="M423 752H598V0H423V57Q403 24 365 7T277 -10Q208 -10 152 24T64 118T32 255Q32 331 63 391T151 486T276 520Q326 520 364 503T423 458ZM319 363Q271 363 242 333T213 255Q213 206 242 177T319 148Q367 148 396 177T426 255Q426 304 396 333T319 363ZM724 752H903L825 537H683ZZ" horiz-adv-x="854" unicode="ď"/>
			<glyph d="M70 710H369Q472 710 553 666T680 543T726 358Q726 253 680 171T553 45T369 0H70V283H5V427H70ZM260 547V427H385V283H260V163H337Q424 163 475 214T526 356Q526 448 475 497T337 547Z" horiz-adv-x="754" unicode="Đ"/>
			<glyph d="M423 752H598V670H649V549H598V0H423V52Q403 22 365 6T277 -10Q208 -10 152 22T64 112T32 240Q32 311 63 368T151 457T276 489Q326 489 364 473T423 431V549H249V670H423ZM319 339Q271 339 242 311T213 240Q213 195 242 167T319 140Q367 140 396 167T426 240Q426 284 396 311T319 339ZZ" horiz-adv-x="644" unicode="đ"/>
			<glyph d="M70 710H528V545H260V434H520V275H260V165H537V0H70ZM109 891H489V789H109Z" horiz-adv-x="590" unicode="Ē"/>
			<glyph d="M293 390Q262 390 242 371T213 320H368Q364 352 342 371T293 390ZM293 520Q369 520 425 485T513 387T544 235V208H211Q228 133 329 133Q410 133 474 170L515 39Q431 -10 306 -10Q227 -10 164 23T67 116T32 254Q32 333 66 393T159 487T293 520ZM105 711H485V603H105Z" horiz-adv-x="569" unicode="ē"/>
			<glyph d="M70 710H528V545H260V434H520V275H260V165H537V0H70ZM122 924H239Q240 899 255 883T300 868Q328 868 343 883T361 924H478Q478 856 430 812T297 768Q211 768 166 811T122 924Z" horiz-adv-x="590" unicode="Ĕ"/>
			<glyph d="M293 390Q262 390 242 371T213 320H368Q364 352 342 371T293 390ZM293 520Q369 520 425 485T513 387T544 235V208H211Q228 133 329 133Q410 133 474 170L515 39Q431 -10 306 -10Q227 -10 164 23T67 116T32 254Q32 333 66 393T159 487T293 520ZM117 752H234Q235 672 296 672Q355 672 358 752H475Q475 670 431 621T296 572Q205 572 161 621T117 752Z" horiz-adv-x="569" unicode="ĕ"/>
			<glyph d="M70 710H528V545H260V434H520V275H260V165H537V0H70ZM300 953Q341 953 369 924T398 855Q398 814 369 785T300 757Q259 757 230 785T202 855Q202 896 230 924T300 953Z" horiz-adv-x="590" unicode="Ė"/>
			<glyph d="M293 390Q262 390 242 371T213 320H368Q364 352 342 371T293 390ZM293 520Q369 520 425 485T513 387T544 235V208H211Q228 133 329 133Q410 133 474 170L515 39Q431 -10 306 -10Q227 -10 164 23T67 116T32 254Q32 333 66 393T159 487T293 520ZM296 768Q337 768 365 739T394 670Q394 629 365 600T296 572Q255 572 226 600T198 670Q198 711 226 739T296 768Z" horiz-adv-x="569" unicode="ė"/>
			<glyph d="M70 710H528V545H260V434H520V275H260V165H537V0H70ZM423 0H537Q454 -19 454 -79Q454 -100 463 -110T490 -121Q506 -121 527 -113L547 -198Q510 -212 469 -212Q409 -212 376 -184T343 -109Q343 -71 365 -43T423 0Z" horiz-adv-x="590" unicode="Ę"/>
			<glyph d="M293 390Q262 390 242 371T213 320H368Q364 352 342 371T293 390ZM293 520Q369 520 425 485T513 387T544 235V208H211Q221 173 250 153T332 133Q399 133 477 164L515 34Q503 26 478 16Q428 -7 399 -28T371 -82Q371 -100 380 -110T407 -121Q423 -121 444 -113L464 -198Q427 -212 386 -212Q326 -212 293 -184T260 -109Q260 -45 320 -10H311Q229 -10 165 22T67 115T32 254Q32 333 66 393T159 487T293 520Z" horiz-adv-x="569" unicode="ę"/>
			<glyph d="M70 710H528V545H260V434H520V275H260V165H537V0H70ZM81 924H222L299 860L376 924H517L380 764H218Z" horiz-adv-x="590" unicode="Ě"/>
			<glyph d="M293 390Q262 390 242 371T213 320H368Q364 352 342 371T293 390ZM293 520Q369 520 425 485T513 387T544 235V208H211Q228 133 329 133Q410 133 474 170L515 39Q431 -10 306 -10Q227 -10 164 23T67 116T32 254Q32 333 66 393T159 487T293 520ZM80 752H221L296 675L369 752H510L377 579H215Z" horiz-adv-x="569" unicode="ě"/>
			<glyph d="M405 720Q545 720 671 636L602 467Q558 502 508 522T406 543Q328 543 277 495T227 351Q227 259 273 213T394 168Q451 168 489 192T544 253H386V402H728V-1H556V65Q525 31 474 10T360 -11Q268 -11 192 34T72 161T28 350Q28 463 77 547T213 675T405 720ZM308 924H470L607 764H466L389 828L312 764H171Z" horiz-adv-x="778" unicode="Ĝ"/>
			<glyph d="M269 520Q368 520 423 452V510H598V30Q598 -53 559 -109T453 -193T302 -221Q223 -221 169 -208T67 -168L110 -11Q191 -67 291 -67Q353 -67 388 -40T423 33V78Q400 46 361 28T270 10Q204 10 149 41T63 129T32 263Q32 336 63 394T149 486T269 520ZM318 373Q270 373 240 343T211 266Q211 218 240 188T318 158Q364 158 393 189T423 266Q423 311 393 342T318 373ZM240 752H402L539 579H398L321 661L244 579H103Z" horiz-adv-x="648" unicode="ĝ"/>
			<glyph d="M405 720Q545 720 671 636L602 467Q558 502 508 522T406 543Q328 543 277 495T227 351Q227 259 273 213T394 168Q451 168 489 192T544 253H386V402H728V-1H556V65Q525 31 474 10T360 -11Q268 -11 192 34T72 161T28 350Q28 463 77 547T213 675T405 720ZM211 924H328Q329 899 344 883T389 868Q417 868 432 883T450 924H567Q567 856 519 812T386 768Q300 768 255 811T211 924Z" horiz-adv-x="778" unicode="Ğ"/>
			<glyph d="M269 520Q368 520 423 452V510H598V30Q598 -53 559 -109T453 -193T302 -221Q223 -221 169 -208T67 -168L110 -11Q191 -67 291 -67Q353 -67 388 -40T423 33V78Q400 46 361 28T270 10Q204 10 149 41T63 129T32 263Q32 336 63 394T149 486T269 520ZM318 373Q270 373 240 343T211 266Q211 218 240 188T318 158Q364 158 393 189T423 266Q423 311 393 342T318 373ZM142 752H259Q260 672 321 672Q380 672 383 752H500Q500 670 456 621T321 572Q230 572 186 621T142 752Z" horiz-adv-x="648" unicode="ğ"/>
			<glyph d="M405 720Q545 720 671 636L602 467Q558 502 508 522T406 543Q328 543 277 495T227 351Q227 259 273 213T394 168Q451 168 489 192T544 253H386V402H728V-1H556V65Q525 31 474 10T360 -11Q268 -11 192 34T72 161T28 350Q28 463 77 547T213 675T405 720ZM389 953Q430 953 458 924T487 855Q487 814 458 785T389 757Q348 757 319 785T291 855Q291 896 319 924T389 953Z" horiz-adv-x="778" unicode="Ġ"/>
			<glyph d="M269 520Q368 520 423 452V510H598V30Q598 -53 559 -109T453 -193T302 -221Q223 -221 169 -208T67 -168L110 -11Q191 -67 291 -67Q353 -67 388 -40T423 33V78Q400 46 361 28T270 10Q204 10 149 41T63 129T32 263Q32 336 63 394T149 486T269 520ZM318 373Q270 373 240 343T211 266Q211 218 240 188T318 158Q364 158 393 189T423 266Q423 311 393 342T318 373ZM321 768Q362 768 390 739T419 670Q419 629 390 600T321 572Q280 572 251 600T223 670Q223 711 251 739T321 768Z" horiz-adv-x="648" unicode="ġ"/>
			<glyph d="M405 720Q545 720 671 636L602 467Q558 502 508 522T406 543Q328 543 277 495T227 351Q227 259 273 213T394 168Q451 168 489 192T544 253H386V402H728V-1H556V65Q525 31 474 10T360 -11Q268 -11 192 34T72 161T28 350Q28 463 77 547T213 675T405 720ZM312 -42H471L379 -221H241Z" horiz-adv-x="778" unicode="Ģ"/>
			<glyph d="M269 520Q368 520 423 452V510H598V30Q598 -53 559 -109T453 -193T302 -221Q223 -221 169 -208T67 -168L110 -11Q191 -67 291 -67Q353 -67 388 -40T423 33V78Q400 46 361 28T270 10Q204 10 149 41T63 129T32 263Q32 336 63 394T149 486T269 520ZM318 373Q270 373 240 343T211 266Q211 218 240 188T318 158Q364 158 393 189T423 266Q423 311 393 342T318 373ZM324 769H463L377 579H217Z" horiz-adv-x="648" unicode="ģ"/>
			<glyph d="M70 710H260V437H507V710H697V0H507V273H260V0H70ZM303 924H465L602 764H461L384 828L307 764H166Z" horiz-adv-x="767" unicode="Ĥ"/>
			<glyph d="M55 752H230V440Q256 481 300 501T400 521Q489 521 532 473T575 334V0H400V259Q400 316 382 340T325 365Q278 365 254 337T230 255V0H55ZM62 948H224L361 788H220L143 852L66 788H-75Z" horiz-adv-x="628" unicode="ĥ"/>
			<glyph d="M70 710H260V649H507V710H697V0H507V273H260V0H70ZM260 505V437H507V505Z" horiz-adv-x="767" unicode="Ħ"/>
			<glyph d="M55 752H230V670H399V545H230V410Q256 451 300 471T400 491Q489 491 532 443T575 304V0H400V229Q400 286 382 310T325 335Q278 335 254 307T230 225V0H55V545H11V670H55ZZ" horiz-adv-x="628" unicode="ħ"/>
			<glyph d="M70 710H260V0H70ZM87 912Q114 912 174 887Q180 885 198 877T229 869Q255 869 262 912H355Q349 843 318 803T242 764Q211 764 157 788Q138 797 124 802T101 807Q88 807 79 797T66 764H-27Q-21 838 10 875T87 912Z" horiz-adv-x="330" unicode="Ĩ"/>
			<glyph d="M55 510H230V0H55ZM74 745Q97 745 113 739T149 720Q178 702 195 702Q210 702 217 712T228 745H318Q312 670 285 633T211 597Q195 597 180 602T142 621Q122 632 112 636T93 640Q67 640 60 597H-31Q-25 672 -1 708T74 745Z" horiz-adv-x="285" unicode="ĩ"/>
			<glyph d="M70 710H260V0H70ZM-26 891H354V789H-26Z" horiz-adv-x="330" unicode="Ī"/>
			<glyph d="M55 510H230V0H55ZM-16 712H304V603H-16Z" horiz-adv-x="285" unicode="ī"/>
			<glyph d="M70 710H260V0H70ZM-13 924H104Q105 899 120 883T165 868Q193 868 208 883T226 924H343Q343 856 295 812T162 768Q76 768 31 811T-13 924Z" horiz-adv-x="330" unicode="Ĭ"/>
			<glyph d="M55 510H230V0H55ZM-24 752H93Q94 672 145 672Q194 672 197 752H314Q314 670 272 621T145 572Q59 572 17 621T-24 752Z" horiz-adv-x="285" unicode="ĭ"/>
			<glyph d="M70 710H260V0H70ZM146 0H260Q177 -19 177 -79Q177 -100 186 -110T213 -121Q229 -121 250 -113L270 -198Q233 -212 192 -212Q132 -212 99 -184T66 -109Q66 -71 88 -43T146 0Z" horiz-adv-x="330" unicode="Į"/>
			<glyph d="M55 510H230V0H55ZM145 768Q186 768 214 739T243 670Q243 629 214 600T145 572Q104 572 75 600T47 670Q47 711 75 739T145 768ZM116 0H230Q147 -19 147 -79Q147 -100 156 -110T183 -121Q199 -121 220 -113L240 -198Q203 -212 162 -212Q102 -212 69 -184T36 -109Q36 -71 58 -43T116 0Z" horiz-adv-x="285" unicode="į"/>
			<glyph d="M70 710H260V0H70ZM165 953Q206 953 234 924T263 855Q263 814 234 785T165 757Q124 757 95 785T67 855Q67 896 95 924T165 953Z" horiz-adv-x="330" unicode="İ"/>
			<glyph d="M55 510H230V0H55Z" horiz-adv-x="285" unicode="ı"/>
			<glyph d="M70 710H260V0H70ZM540 710H730V270Q730 138 663 64T480 -10Q400 -10 334 14L362 175Q408 159 446 159Q491 159 515 192T540 294Z" horiz-adv-x="785" unicode="Ĳ"/>
			<glyph d="M55 510H230V0H55ZM145 768Q186 768 214 739T243 670Q243 629 214 600T145 572Q104 572 75 600T47 670Q47 711 75 739T145 768ZM340 510H515V-17Q515 -215 347 -215Q316 -215 286 -211T237 -201L260 -54Q283 -60 297 -60Q340 -60 340 -6ZM428 768Q469 768 497 739T526 670Q526 629 497 600T428 572Q387 572 358 600T330 670Q330 711 358 739T428 768Z" horiz-adv-x="570" unicode="ĳ"/>
			<glyph d="M210 710H400V270Q400 138 333 64T150 -10Q70 -10 4 14L32 175Q78 159 116 159Q161 159 185 192T210 294ZM225 924H387L524 764H383L306 828L229 764H88Z" horiz-adv-x="455" unicode="Ĵ"/>
			<glyph d="M55 510H230V-17Q230 -215 62 -215Q31 -215 1 -211T-48 -201L-25 -54Q-2 -60 12 -60Q55 -60 55 -6ZM62 752H224L341 579H200L143 656L86 579H-55Z" horiz-adv-x="285" unicode="ĵ"/>
			<glyph d="M70 710H260V366L490 710H705L475 377L730 0H498L260 363V0H70ZM288 -42H447L355 -221H217Z" horiz-adv-x="730" unicode="Ķ"/>
			<glyph d="M55 752H230V271L394 510H601L429 269L607 0H394L230 261V0H55ZM230 -42H389L297 -221H159Z" horiz-adv-x="607" unicode="ķ"/>
			<glyph d="M55 510H230V271L394 510H601L429 269L607 0H394L230 261V0H55Z" horiz-adv-x="607" unicode="ĸ"/>
			<glyph d="M70 710H260V169H519V0H70ZM205 924H374L219 764H78Z" horiz-adv-x="539" unicode="Ĺ"/>
			<glyph d="M55 752H230V195Q230 141 276 141Q295 141 318 150L335 13Q283 -10 223 -10Q142 -10 98 33T55 165ZM190 947H359L204 787H63Z" horiz-adv-x="345" unicode="ĺ"/>
			<glyph d="M70 710H260V169H519V0H70ZM232 -42H391L299 -221H161Z" horiz-adv-x="539" unicode="Ļ"/>
			<glyph d="M55 752H230V195Q230 141 276 141Q295 141 318 150L335 13Q283 -10 223 -10Q142 -10 98 33T55 165ZM116 -42H275L183 -221H45Z" horiz-adv-x="345" unicode="ļ"/>
			<glyph d="M70 710H260V169H519V0H70ZM372 710H551L473 495H331ZZ" horiz-adv-x="539" unicode="Ľ"/>
			<glyph d="M55 752H230V195Q230 141 276 141Q295 141 318 150L335 13Q283 -10 223 -10Q142 -10 98 33T55 165ZM355 752H534L456 537H314ZZ" horiz-adv-x="485" unicode="ľ"/>
			<glyph d="M70 710H260V169H519V0H70ZM434 513Q475 513 503 484T532 415Q532 374 503 345T434 317Q393 317 364 345T336 415Q336 456 364 484T434 513Z" horiz-adv-x="539" unicode="Ŀ"/>
			<glyph d="M55 752H230V195Q230 141 276 141Q295 141 318 150L335 13Q283 -10 223 -10Q142 -10 98 33T55 165ZM360 510Q401 510 429 481T458 412Q458 371 429 342T360 314Q319 314 290 342T262 412Q262 453 290 481T360 510Z" horiz-adv-x="435" unicode="ŀ"/>
			<glyph d="M70 710H260V468L385 540V384L260 312V169H519V0H70V203L25 177V333L70 359Z" horiz-adv-x="539" unicode="Ł"/>
			<glyph d="M66 752H241V528L323 576V430L241 382V195Q241 141 287 141Q306 141 329 150L346 13Q294 -10 234 -10Q153 -10 109 33T66 165V278L18 250V396L66 424Z" horiz-adv-x="366" unicode="ł"/>
			<glyph d="M70 710H254L536 291V710H716V0H533L250 418V0H70ZM428 924H597L442 764H301Z" horiz-adv-x="786" unicode="Ń"/>
			<glyph d="M399 521Q488 521 531 473T575 334V0H400V259Q400 317 383 341T324 365Q230 365 230 255V0H55V510H230V437Q257 479 302 500T399 521ZM350 752H509L368 579H227Z" horiz-adv-x="628" unicode="ń"/>
			<glyph d="M70 710H254L536 291V710H716V0H533L250 418V0H70ZM316 -42H475L383 -221H245Z" horiz-adv-x="786" unicode="Ņ"/>
			<glyph d="M399 521Q488 521 531 473T575 334V0H400V259Q400 317 383 341T324 365Q230 365 230 255V0H55V510H230V437Q257 479 302 500T399 521ZM237 -42H396L304 -221H166Z" horiz-adv-x="628" unicode="ņ"/>
			<glyph d="M70 710H254L536 291V710H716V0H533L250 418V0H70ZM174 924H315L392 860L469 924H610L473 764H311Z" horiz-adv-x="786" unicode="Ň"/>
			<glyph d="M399 521Q488 521 531 473T575 334V0H400V259Q400 317 383 341T324 365Q230 365 230 255V0H55V510H230V437Q257 479 302 500T399 521ZM109 752H250L325 675L398 752H539L406 579H244Z" horiz-adv-x="628" unicode="ň"/>
			<glyph d="M7 710H186L98 474H-44ZM506 521Q595 521 638 473T682 334V0H507V259Q507 317 490 341T431 365Q337 365 337 255V0H162V510H337V437Q364 479 409 500T506 521Z" horiz-adv-x="735" unicode="ŉ"/>
			<glyph d="M70 710H254L536 329V710H716V57Q716 -75 649 -149T466 -223Q391 -223 330 -201L358 -55Q398 -69 432 -69Q536 -69 536 28V42L250 429V0H70Z" horiz-adv-x="786" unicode="Ŋ"/>
			<glyph d="M402 521Q488 521 531 472T575 334V-17Q575 -118 532 -166T403 -215Q376 -215 346 -211T297 -201L320 -54Q343 -60 358 -60Q400 -60 400 -6V259Q400 317 383 341T324 365Q230 365 230 255V0H55V510H230V437Q257 479 301 500T402 521Z" horiz-adv-x="628" unicode="ŋ"/>
			<glyph d="M403 720Q510 720 595 675T729 548T778 358Q778 250 729 166T595 36T401 -10Q295 -10 210 35T76 162T28 355Q28 465 76 547T210 675T403 720ZM403 541Q324 541 275 489T227 355Q227 272 275 220T403 169Q482 169 530 220T579 355Q579 438 530 489T403 541ZM210 891H590V789H210Z" horiz-adv-x="806" unicode="Ō"/>
			<glyph d="M317 520Q401 520 465 485T566 391T602 255Q602 179 566 119T465 24T317 -10Q234 -10 169 24T68 119T32 255Q32 330 68 390T169 485T317 520ZM318 361Q271 361 242 331T213 255Q213 207 241 178T317 149Q364 149 392 178T421 256Q421 303 392 332T318 361ZM126 711H506V603H126Z" horiz-adv-x="634" unicode="ō"/>
			<glyph d="M403 720Q510 720 595 675T729 548T778 358Q778 250 729 166T595 36T401 -10Q295 -10 210 35T76 162T28 355Q28 465 76 547T210 675T403 720ZM403 541Q324 541 275 489T227 355Q227 272 275 220T403 169Q482 169 530 220T579 355Q579 438 530 489T403 541ZM223 924H340Q341 899 356 883T401 868Q429 868 444 883T462 924H579Q579 856 531 812T398 768Q312 768 267 811T223 924Z" horiz-adv-x="806" unicode="Ŏ"/>
			<glyph d="M317 520Q401 520 465 485T566 391T602 255Q602 179 566 119T465 24T317 -10Q234 -10 169 24T68 119T32 255Q32 330 68 390T169 485T317 520ZM318 361Q271 361 242 331T213 255Q213 207 241 178T317 149Q364 149 392 178T421 256Q421 303 392 332T318 361ZM138 752H255Q256 672 317 672Q376 672 379 752H496Q496 670 452 621T317 572Q226 572 182 621T138 752Z" horiz-adv-x="634" unicode="ŏ"/>
			<glyph d="M403 720Q510 720 595 675T729 548T778 358Q778 250 729 166T595 36T401 -10Q295 -10 210 35T76 162T28 355Q28 465 76 547T210 675T403 720ZM403 541Q324 541 275 489T227 355Q227 272 275 220T403 169Q482 169 530 220T579 355Q579 438 530 489T403 541ZM354 924H513L362 764H221ZM570 924H729L578 764H437Z" horiz-adv-x="806" unicode="Ő"/>
			<glyph d="M317 520Q401 520 465 485T566 391T602 255Q602 179 566 119T465 24T317 -10Q234 -10 169 24T68 119T32 255Q32 330 68 390T169 485T317 520ZM318 361Q271 361 242 331T213 255Q213 207 241 178T317 149Q364 149 392 178T421 256Q421 303 392 332T318 361ZM252 752H411L262 579H121ZM468 752H627L478 579H337Z" horiz-adv-x="634" unicode="ő"/>
			<glyph d="M393 720Q497 720 577 672V710H1035V545H767V434H1027V275H767V165H1044V0H577V42Q494 -10 388 -10Q290 -10 207 34T76 160T28 354Q28 465 77 548T210 676T393 720ZM404 538Q327 538 278 488T230 354Q230 271 277 221T400 172Q451 172 491 195T553 260T576 357Q576 437 529 487T404 538Z" horiz-adv-x="1097" unicode="Œ"/>
			<glyph d="M317 520Q430 520 508 458Q543 488 587 504T683 520Q759 520 815 485T903 387T934 235V208H601Q618 133 719 133Q800 133 864 170L905 39Q821 -10 696 -10Q585 -10 509 53Q472 23 423 6T317 -10Q234 -10 169 24T68 119T32 255Q32 330 68 390T169 485T317 520ZM683 390Q652 390 632 371T603 320H758Q754 352 732 371T683 390ZM318 361Q271 361 242 331T213 255Q213 207 241 178T317 149Q364 149 392 178T421 256Q421 303 392 332T318 361Z" horiz-adv-x="959" unicode="œ"/>
			<glyph d="M70 710H359Q438 710 494 681T578 603T606 497Q606 433 573 379T479 294L665 0H443L299 259H260V0H70ZM260 557V405H327Q364 405 385 425T406 482Q406 518 385 537T327 557ZM368 924H537L382 764H241Z" horiz-adv-x="665" unicode="Ŕ"/>
			<glyph d="M348 521Q378 521 416 509L393 341Q368 350 338 350Q281 350 254 318T228 214V0H55V510H228V432Q249 478 280 499T348 521ZM253 752H412L271 579H130Z" horiz-adv-x="411" unicode="ŕ"/>
			<glyph d="M70 710H359Q438 710 494 681T578 603T606 497Q606 433 573 379T479 294L665 0H443L299 259H260V0H70ZM260 557V405H327Q364 405 385 425T406 482Q406 518 385 537T327 557ZM269 -42H428L336 -221H198Z" horiz-adv-x="665" unicode="Ŗ"/>
			<glyph d="M348 521Q378 521 416 509L393 341Q368 350 338 350Q281 350 254 318T228 214V0H55V510H228V432Q249 478 280 499T348 521ZM55 -42H214L122 -221H-16Z" horiz-adv-x="411" unicode="ŗ"/>
			<glyph d="M70 710H359Q438 710 494 681T578 603T606 497Q606 433 573 379T479 294L665 0H443L299 259H260V0H70ZM260 557V405H327Q364 405 385 425T406 482Q406 518 385 537T327 557ZM114 924H255L332 860L409 924H550L413 764H251Z" horiz-adv-x="665" unicode="Ř"/>
			<glyph d="M348 521Q378 521 416 509L393 341Q368 350 338 350Q281 350 254 318T228 214V0H55V510H228V432Q249 478 280 499T348 521ZM30 752H171L228 675L285 752H426L309 579H147Z" horiz-adv-x="411" unicode="ř"/>
			<glyph d="M314 720Q375 720 437 704T537 667L482 510Q446 530 400 542T318 555Q285 555 265 544T245 515Q245 492 273 476T373 436Q437 413 476 388T537 325T559 228Q559 116 486 53T285 -10Q217 -10 151 8T35 58L82 232Q130 199 186 177T293 156Q365 156 365 203Q365 219 355 229T322 250T246 280Q147 317 99 365T52 496Q52 565 85 615T177 693T314 720ZM342 924H511L356 764H215Z" horiz-adv-x="594" unicode="Ś"/>
			<glyph d="M259 521Q306 521 353 509T436 478L407 351Q375 370 333 383T257 396Q217 396 217 375Q217 361 234 353T290 336Q379 314 418 277T457 174Q457 89 399 39T236 -10Q181 -10 126 3T34 41L73 175Q112 147 159 131T246 115Q288 115 288 138Q288 154 269 163T194 192Q145 209 114 226T65 272T47 346Q47 427 104 474T259 521ZM284 752H443L302 579H161Z" horiz-adv-x="491" unicode="ś"/>
			<glyph d="M314 720Q375 720 437 704T537 667L482 510Q446 530 400 542T318 555Q285 555 265 544T245 515Q245 492 273 476T373 436Q437 413 476 388T537 325T559 228Q559 116 486 53T285 -10Q217 -10 151 8T35 58L82 232Q130 199 186 177T293 156Q365 156 365 203Q365 219 355 229T322 250T246 280Q147 317 99 365T52 496Q52 565 85 615T177 693T314 720ZM226 924H388L525 764H384L307 828L230 764H89Z" horiz-adv-x="594" unicode="Ŝ"/>
			<glyph d="M259 521Q306 521 353 509T436 478L407 351Q375 370 333 383T257 396Q217 396 217 375Q217 361 234 353T290 336Q379 314 418 277T457 174Q457 89 399 39T236 -10Q181 -10 126 3T34 41L73 175Q112 147 159 131T246 115Q288 115 288 138Q288 154 269 163T194 192Q145 209 114 226T65 272T47 346Q47 427 104 474T259 521ZM178 752H340L477 579H336L259 661L182 579H41Z" horiz-adv-x="491" unicode="ŝ"/>
			<glyph d="M314 720Q375 720 437 704T537 667L482 510Q446 530 400 542T318 555Q285 555 265 544T245 515Q245 492 273 476T373 436Q437 413 476 388T537 325T559 228Q559 122 493 60T313 -9V-29Q382 -49 382 -119Q382 -234 202 -234V-149Q241 -149 256 -141T271 -115Q271 -96 261 -89T232 -83V-7Q177 -2 126 15T35 58L82 232Q130 199 186 177T293 156Q365 156 365 203Q365 219 355 229T322 250T246 280Q147 317 99 365T52 496Q52 565 85 615T177 693T314 720Z" horiz-adv-x="594" unicode="Ş"/>
			<glyph d="M259 521Q306 521 353 509T436 478L407 351Q375 370 333 383T257 396Q217 396 217 375Q217 361 234 353T290 336Q379 314 418 277T457 174Q457 97 409 48T271 -8V-29Q340 -49 340 -119Q340 -234 160 -234V-149Q199 -149 214 -141T229 -115Q229 -96 219 -89T190 -83V-8Q145 -3 104 9T34 41L73 175Q112 147 159 131T246 115Q288 115 288 138Q288 154 269 163T194 192Q145 209 114 226T65 272T47 346Q47 427 104 474T259 521Z" horiz-adv-x="491" unicode="ş"/>
			<glyph d="M314 720Q375 720 437 704T537 667L482 510Q446 530 400 542T318 555Q285 555 265 544T245 515Q245 492 273 476T373 436Q437 413 476 388T537 325T559 228Q559 116 486 53T285 -10Q217 -10 151 8T35 58L82 232Q130 199 186 177T293 156Q365 156 365 203Q365 219 355 229T322 250T246 280Q147 317 99 365T52 496Q52 565 85 615T177 693T314 720ZM88 924H229L306 860L383 924H524L387 764H225Z" horiz-adv-x="594" unicode="Š"/>
			<glyph d="M259 521Q306 521 353 509T436 478L407 351Q375 370 333 383T257 396Q217 396 217 375Q217 361 234 353T290 336Q379 314 418 277T457 174Q457 89 399 39T236 -10Q181 -10 126 3T34 41L73 175Q112 147 159 131T246 115Q288 115 288 138Q288 154 269 163T194 192Q145 209 114 226T65 272T47 346Q47 427 104 474T259 521ZM43 752H184L259 675L332 752H473L340 579H178Z" horiz-adv-x="491" unicode="š"/>
			<glyph d="M15 710H559V546H382V0H192V546H15ZM239 0H320V-29Q389 -49 389 -119Q389 -234 209 -234V-149Q248 -149 263 -141T278 -115Q278 -96 268 -89T239 -83Z" horiz-adv-x="574" unicode="Ţ"/>
			<glyph d="M269 668V510H399V365H269V209Q269 176 282 161T320 146Q351 146 404 170L429 32Q402 14 364 2T283 -10V-29Q352 -49 352 -119Q352 -234 172 -234V-149Q211 -149 226 -141T241 -115Q241 -96 231 -89T202 -83V0H204Q150 17 122 63T94 184V365H11V510H94V648Z" horiz-adv-x="437" unicode="ţ"/>
			<glyph d="M15 710H559V546H382V0H192V546H15ZM68 924H209L286 860L363 924H504L367 764H205Z" horiz-adv-x="574" unicode="Ť"/>
			<glyph d="M269 668V510H399V365H269V209Q269 176 282 161T320 146Q351 146 404 170L429 32Q400 13 360 1T275 -10Q187 -10 140 39T94 184V365H11V510H94V648ZM403 782H582L504 567H362ZZ" horiz-adv-x="482" unicode="ť"/>
			<glyph d="M15 710H559V546H382V424H519V260H382V0H192V260H65V424H192V546H15Z" horiz-adv-x="574" unicode="Ŧ"/>
			<glyph d="M269 668V510H399V365H269V320H399V205H269Q270 146 320 146Q351 146 404 170L429 32Q400 13 360 1T275 -10Q187 -10 140 39T94 184V205H11V320H94V365H11V510H94V648Z" horiz-adv-x="437" unicode="ŧ"/>
			<glyph d="M65 710H255V288Q255 229 285 199T369 169Q422 169 452 199T483 288V710H671V268Q671 181 633 118T528 23T368 -10Q276 -10 208 23T102 118T65 268ZM290 912Q317 912 377 887Q383 885 401 877T432 869Q458 869 465 912H558Q552 843 521 803T445 764Q414 764 360 788Q341 797 327 802T304 807Q291 807 282 797T269 764H176Q182 838 213 875T290 912Z" horiz-adv-x="736" unicode="Ũ"/>
			<glyph d="M53 510H228V251Q228 193 244 169T302 145Q397 145 397 255V510H572V0H397V72Q369 30 323 9T223 -11Q139 -11 96 37T53 176ZM235 745Q271 745 323 720Q340 712 353 707T375 702Q405 702 411 745H504Q498 673 466 635T389 597Q371 597 351 603T306 621Q288 629 274 634T251 640Q224 640 215 597H122Q128 673 160 709T235 745Z" horiz-adv-x="627" unicode="ũ"/>
			<glyph d="M65 710H255V288Q255 229 285 199T369 169Q422 169 452 199T483 288V710H671V268Q671 181 633 118T528 23T368 -10Q276 -10 208 23T102 118T65 268ZM177 891H557V789H177Z" horiz-adv-x="736" unicode="Ū"/>
			<glyph d="M53 510H228V251Q228 193 244 169T302 145Q397 145 397 255V510H572V0H397V72Q369 30 323 9T223 -11Q139 -11 96 37T53 176ZM123 711H503V603H123Z" horiz-adv-x="627" unicode="ū"/>
			<glyph d="M65 710H255V288Q255 229 285 199T369 169Q422 169 452 199T483 288V710H671V268Q671 181 633 118T528 23T368 -10Q276 -10 208 23T102 118T65 268ZM190 924H307Q308 899 323 883T368 868Q396 868 411 883T429 924H546Q546 856 498 812T365 768Q279 768 234 811T190 924Z" horiz-adv-x="736" unicode="Ŭ"/>
			<glyph d="M53 510H228V251Q228 193 244 169T302 145Q397 145 397 255V510H572V0H397V72Q369 30 323 9T223 -11Q139 -11 96 37T53 176ZM135 752H252Q253 672 314 672Q373 672 376 752H493Q493 670 449 621T314 572Q223 572 179 621T135 752Z" horiz-adv-x="627" unicode="ŭ"/>
			<glyph d="M65 710H255V288Q255 229 285 199T369 169Q422 169 452 199T483 288V710H671V268Q671 181 633 118T528 23T368 -10Q276 -10 208 23T102 118T65 268ZM368 967Q418 967 453 932T488 849Q488 800 453 765T368 731Q317 731 281 765T246 849Q246 898 281 932T368 967ZM368 882Q353 882 343 872T333 849Q333 835 343 825T368 815Q382 815 392 825T402 849Q402 862 392 872T368 882ZZ" horiz-adv-x="736" unicode="Ů"/>
			<glyph d="M53 510H228V251Q228 193 244 169T302 145Q397 145 397 255V510H572V0H397V72Q369 30 323 9T223 -11Q139 -11 96 37T53 176ZM317 800Q368 800 402 766T437 682Q437 632 402 598T317 564Q265 564 230 598T195 682Q195 732 230 766T317 800ZM317 715Q301 715 291 706T282 682Q282 667 291 657T317 648Q332 648 341 657T351 682Q351 696 342 705T317 715Z" horiz-adv-x="627" unicode="ů"/>
			<glyph d="M65 710H255V288Q255 229 285 199T369 169Q422 169 452 199T483 288V710H671V268Q671 181 633 118T528 23T368 -10Q276 -10 208 23T102 118T65 268ZM321 924H480L329 764H188ZM537 924H696L545 764H404Z" horiz-adv-x="736" unicode="Ű"/>
			<glyph d="M53 510H228V251Q228 193 244 169T302 145Q397 145 397 255V510H572V0H397V72Q369 30 323 9T223 -11Q139 -11 96 37T53 176ZM249 752H408L259 579H118ZM465 752H624L475 579H334Z" horiz-adv-x="627" unicode="ű"/>
			<glyph d="M65 710H255V288Q255 233 286 201T369 169Q421 169 452 201T483 288V710H671V279Q671 186 638 133T558 45Q517 14 497 -11T477 -74Q477 -121 513 -121Q529 -121 550 -113L570 -198Q533 -212 491 -212Q432 -212 399 -183T366 -106Q366 -77 377 -51T408 -8Q378 -10 365 -10Q277 -10 208 26T102 128T65 279Z" horiz-adv-x="736" unicode="Ų"/>
			<glyph d="M53 510H228V251Q228 193 244 169T302 145Q397 145 397 255V510H572V0Q489 -19 489 -79Q489 -100 498 -110T525 -121Q541 -121 562 -113L582 -198Q545 -212 504 -212Q444 -212 411 -184T378 -109Q378 -71 400 -43T458 0H397V72Q369 30 323 9T223 -11Q139 -11 96 37T53 176Z" horiz-adv-x="627" unicode="ų"/>
			<glyph d="M-2 710H206L327 247L453 710H642L770 252L889 710H1076L864 0H663L537 444L408 0H210ZM465 924H627L764 764H623L546 828L469 764H328Z" horiz-adv-x="1074" unicode="Ŵ"/>
			<glyph d="M10 510H202L284 216L366 510H507L595 217L671 510H850L693 0H516L432 260L358 0H180ZM355 752H517L654 579H513L436 661L359 579H218Z" horiz-adv-x="860" unicode="ŵ"/>
			<glyph d="M-12 710H196L323 447L450 710H634L404 269V0H218V269ZM230 924H392L529 764H388L311 828L234 764H93Z" horiz-adv-x="622" unicode="Ŷ"/>
			<glyph d="M0 510H191L286 212L377 510H557L348 -54Q319 -133 270 -171T139 -210Q80 -210 31 -190L51 -45Q78 -55 104 -55Q168 -55 188 -5L196 15ZM203 752H365L502 579H361L284 661L207 579H66Z" horiz-adv-x="557" unicode="ŷ"/>
			<glyph d="M-12 710H196L323 447L450 710H634L404 269V0H218V269ZM199 937Q234 937 258 913T282 855Q282 820 258 796T199 772Q165 772 141 796T117 855Q117 890 140 913T199 937ZM425 937Q459 937 483 913T507 855Q507 820 483 796T425 772Q390 772 366 796T342 855Q342 890 366 913T425 937Z" horiz-adv-x="622" unicode="Ÿ"/>
			<glyph d="M48 710H563V604L280 163H567V0H24V106L307 546H48ZM334 924H503L348 764H207Z" horiz-adv-x="597" unicode="Ź"/>
			<glyph d="M39 510H483V440L288 145H486V0H20V69L227 365H39ZM283 752H442L301 579H160Z" horiz-adv-x="506" unicode="ź"/>
			<glyph d="M48 710H563V604L280 163H567V0H24V106L307 546H48ZM299 953Q340 953 368 924T397 855Q397 814 368 785T299 757Q258 757 229 785T201 855Q201 896 229 924T299 953Z" horiz-adv-x="597" unicode="Ż"/>
			<glyph d="M39 510H483V440L288 145H486V0H20V69L227 365H39ZM258 768Q299 768 327 739T356 670Q356 629 327 600T258 572Q217 572 188 600T160 670Q160 711 188 739T258 768Z" horiz-adv-x="506" unicode="ż"/>
			<glyph d="M48 710H563V604L280 163H567V0H24V106L307 546H48ZM80 924H221L298 860L375 924H516L379 764H217Z" horiz-adv-x="597" unicode="Ž"/>
			<glyph d="M39 510H483V440L288 145H486V0H20V69L227 365H39ZM42 752H183L258 675L331 752H472L339 579H177Z" horiz-adv-x="506" unicode="ž"/>
			<glyph d="M321 720Q430 720 514 675T645 547T692 358Q692 245 647 162T524 34T350 -10Q25 -10 25 369V412H484Q468 473 421 508T305 543Q217 543 124 486L72 650Q123 684 183 702T321 720ZM233 266Q238 218 269 188T350 159Q398 159 433 186T483 266Z" horiz-adv-x="720" unicode="Ə"/>
			<glyph d="M476 763Q545 763 603 735L548 591Q512 609 485 609Q460 609 445 593T427 553L420 510H535L509 365H394L330 1Q310 -114 249 -161T106 -209Q37 -209 -21 -181L34 -37Q70 -55 97 -55Q123 -55 137 -37T158 17L219 365H137L163 510H245L252 554Q270 667 330 715T476 763Z" unicode="ƒ"/>
			<glyph d="M755 867Q781 811 781 755Q781 645 679 613Q728 566 753 500T778 359Q778 250 729 166T595 36T401 -10Q295 -10 210 35T76 163T28 356Q28 466 76 548T211 675T408 720Q468 720 540 699Q564 692 584 692Q618 692 635 711T652 762Q652 797 632 834ZM403 541Q324 541 275 489T227 355Q227 272 275 220T403 169Q482 169 530 220T579 355Q579 438 530 489T403 541Z" horiz-adv-x="806" unicode="Ơ"/>
			<glyph d="M608 667Q634 611 634 552Q634 495 613 461T553 411Q602 343 602 255Q602 179 566 119T465 24T317 -10Q234 -10 169 24T68 119T32 255Q32 330 68 390T169 485T317 520Q344 520 392 512Q429 505 448 505Q478 505 491 518T505 562Q505 597 485 634ZM318 361Q271 361 242 331T213 255Q213 207 241 178T317 149Q364 149 392 178T421 256Q421 303 392 332T318 361Z" horiz-adv-x="634" unicode="ơ"/>
			<glyph d="M746 867Q772 811 772 752Q772 710 747 678T671 629V268Q671 181 633 118T528 23T368 -10Q276 -10 208 23T102 118T65 268V710H255V288Q255 229 285 199T369 169Q422 169 452 199T483 288V710H549Q598 710 620 719T643 762Q643 797 623 834Z" horiz-adv-x="736" unicode="Ư"/>
			<glyph d="M629 667Q655 611 655 552Q655 515 634 484T572 435V0H397V72Q369 30 323 9T223 -11Q139 -11 96 37T53 176V510H228V251Q228 193 244 169T302 145Q397 145 397 255V510H432Q481 510 503 519T526 562Q526 597 506 634Z" horiz-adv-x="627" unicode="ư"/>
			<glyph d="M403 1051H572L417 891H276ZM368 874Q418 874 453 839T488 756Q488 728 475 702L727 0H526L470 172H255L199 0H8L260 701Q246 727 246 756Q246 805 281 839T368 874ZM368 789Q353 789 343 779T333 756Q333 742 343 732T368 722Q382 722 392 732T402 756Q402 769 392 779T368 789ZM362 505L302 320H422ZZ" horiz-adv-x="735" unicode="Ǻ"/>
			<glyph d="M345 210Q274 208 244 194T214 153Q214 134 227 123T264 113Q299 113 322 133T345 190ZM293 520Q398 520 459 473T520 325V0H345V56Q320 26 279 7T191 -11Q120 -11 76 30T32 142Q32 230 110 269T345 311V317Q345 379 259 379Q185 379 109 333L71 466Q114 490 172 505T293 520ZM297 800Q348 800 382 766T417 682Q417 632 382 598T297 564Q245 564 210 598T175 682Q175 732 210 766T297 800ZM297 715Q281 715 271 706T262 682Q262 667 271 657T297 648Q312 648 321 657T331 682Q331 696 322 705T297 715ZM319 1042H478L337 869H196Z" horiz-adv-x="573" unicode="ǻ"/>
			<glyph d="M263 710H873V545H605V434H865V275H605V165H882V0H415V172H256L199 0H8ZM381 545L306 320H415V545ZM503 924H672L517 764H376Z" horiz-adv-x="935" unicode="Ǽ"/>
			<glyph d="M302 520Q400 520 455 476Q523 520 607 520Q683 520 739 485T827 387T858 235V208H525Q542 133 643 133Q724 133 788 170L829 39Q745 -10 620 -10Q557 -10 504 11T414 71Q370 30 320 9T203 -11Q128 -11 80 28T32 146Q32 231 110 270T345 311V317Q345 379 260 379Q185 379 109 333L71 466Q117 490 172 505T302 520ZM607 390Q576 390 556 371T527 320H682Q678 352 656 371T607 390ZM345 210Q273 209 243 196T214 155Q214 134 228 123T265 113Q298 113 321 134T345 193ZM470 752H629L488 579H347Z" horiz-adv-x="883" unicode="ǽ"/>
			<glyph d="M574 761H728L653 638Q713 589 745 517T778 358Q778 250 729 166T595 36T401 -10Q332 -10 270 10L233 -50H79L154 72Q94 121 61 193T28 355Q28 465 76 547T210 675T403 720Q474 720 537 700ZM403 541Q324 541 275 489T227 355Q227 290 258 243L438 538Q421 541 403 541ZM548 467L368 172Q385 169 403 169Q482 169 530 220T579 355Q579 421 548 467ZM437 924H606L451 764H310Z" horiz-adv-x="806" unicode="Ǿ"/>
			<glyph d="M458 554H581L511 451Q554 413 578 362T602 255Q602 182 564 121T461 25T317 -10Q260 -10 212 8L170 -54H47L123 59Q80 96 56 146T32 255Q32 328 70 388T173 484T317 520Q373 520 423 502ZM317 371Q270 371 236 338T203 255Q203 223 217 198L334 370Q328 371 317 371ZM417 312L301 140Q306 139 317 139Q364 139 397 172T431 255Q431 286 417 312ZM342 752H501L360 579H219Z" horiz-adv-x="634" unicode="ǿ"/>
			<glyph d="M314 720Q375 720 437 704T537 667L482 510Q446 530 400 542T318 555Q285 555 265 544T245 515Q245 492 273 476T373 436Q437 413 476 388T537 325T559 228Q559 116 486 53T285 -10Q217 -10 151 8T35 58L82 232Q130 199 186 177T293 156Q365 156 365 203Q365 219 355 229T322 250T246 280Q147 317 99 365T52 496Q52 565 85 615T177 693T314 720ZM193 -42H352L260 -221H122Z" horiz-adv-x="594" unicode="Ș"/>
			<glyph d="M259 521Q306 521 353 509T436 478L407 351Q375 370 333 383T257 396Q217 396 217 375Q217 361 234 353T290 336Q379 314 418 277T457 174Q457 89 399 39T236 -10Q181 -10 126 3T34 41L73 175Q112 147 159 131T246 115Q288 115 288 138Q288 154 269 163T194 192Q145 209 114 226T65 272T47 346Q47 427 104 474T259 521ZM151 -42H310L218 -221H80Z" horiz-adv-x="491" unicode="ș"/>
			<glyph d="M15 710H559V546H382V0H192V546H15ZM200 -42H359L267 -221H129Z" horiz-adv-x="574" unicode="Ț"/>
			<glyph d="M269 668V510H399V365H269V209Q269 176 282 161T320 146Q351 146 404 170L429 32Q400 13 360 1T275 -10Q187 -10 140 39T94 184V365H11V510H94V648ZM163 -42H322L230 -221H92Z" horiz-adv-x="437" unicode="ț"/>
			<glyph d="M55 510H230V-17Q230 -215 62 -215Q31 -215 1 -211T-48 -201L-25 -54Q-2 -60 12 -60Q55 -60 55 -6Z" horiz-adv-x="285" unicode="ȷ"/>
			<glyph d="M263 520Q342 520 404 487T502 394T537 256Q537 177 503 116T409 23T276 -10Q200 -10 143 24T56 123T25 275V302H358Q341 377 240 377Q159 377 95 340L54 471Q138 520 263 520ZM201 190Q205 158 226 139T276 120Q307 120 327 138T356 190Z" horiz-adv-x="569" unicode="ə"/>
			<glyph d="M81 710H260L172 474H30Z" horiz-adv-x="290" unicode="ʼ"/>
			<glyph d="M387 752H549L686 579H545L468 661L391 579H250Z" horiz-adv-x="400" unicode="ˆ"/>
			<glyph d="M250 752H391L466 675L539 752H680L547 579H385Z" horiz-adv-x="400" unicode="ˇ"/>
			<glyph d="M251 711H631V603H251Z" horiz-adv-x="400" unicode="ˉ"/>
			<glyph d="M250 752H367Q368 672 429 672Q488 672 491 752H608Q608 670 564 621T429 572Q338 572 294 621T250 752Z" horiz-adv-x="400" unicode="˘"/>
			<glyph d="M348 768Q389 768 417 739T446 670Q446 629 417 600T348 572Q307 572 278 600T250 670Q250 711 278 739T348 768Z" horiz-adv-x="400" unicode="˙"/>
			<glyph d="M372 800Q423 800 457 766T492 682Q492 632 457 598T372 564Q320 564 285 598T250 682Q250 732 285 766T372 800ZM372 715Q356 715 346 706T337 682Q337 667 346 657T372 648Q387 648 396 657T406 682Q406 696 397 705T372 715Z" horiz-adv-x="400" unicode="˚"/>
			<glyph d="M350 0H464Q381 -19 381 -79Q381 -100 390 -110T417 -121Q433 -121 454 -113L474 -198Q437 -212 396 -212Q336 -212 303 -184T270 -109Q270 -71 292 -43T350 0Z" horiz-adv-x="400" unicode="˛"/>
			<glyph d="M364 745Q400 745 452 720Q469 712 482 707T504 702Q534 702 540 745H633Q627 673 595 635T518 597Q500 597 480 603T435 621Q417 629 403 634T380 640Q353 640 344 597H251Q257 673 289 709T364 745Z" horiz-adv-x="400" unicode="˜"/>
			<glyph d="M341 752H500L351 579H210ZM557 752H716L567 579H426Z" horiz-adv-x="400" unicode="˝"/>
			<glyph d="M-334 752H-175L-50 579H-191Z" horiz-adv-x="0" unicode="̀"/>
			<glyph d="M-209 752H-50L-191 579H-332Z" horiz-adv-x="0" unicode="́"/>
			<glyph d="M-349 752H-187L-50 579H-191L-268 661L-345 579H-486Z" horiz-adv-x="0" unicode="̂"/>
			<glyph d="M-319 745Q-283 745 -231 720Q-214 712 -201 707T-179 702Q-149 702 -143 745H-50Q-56 673 -88 635T-165 597Q-183 597 -202 603T-248 621Q-266 629 -280 634T-303 640Q-330 640 -339 597H-432Q-426 673 -394 709T-319 745Z" horiz-adv-x="0" unicode="̃"/>
			<glyph d="M-430 711H-50V603H-430Z" horiz-adv-x="0" unicode="̄"/>
			<glyph d="M-408 752H-291Q-290 672 -229 672Q-170 672 -167 752H-50Q-50 670 -94 621T-229 572Q-320 572 -364 621T-408 752Z" horiz-adv-x="0" unicode="̆"/>
			<glyph d="M-148 768Q-107 768 -78 739T-50 670Q-50 629 -78 600T-148 572Q-189 572 -217 600T-246 670Q-246 711 -217 739T-148 768Z" horiz-adv-x="0" unicode="̇"/>
			<glyph d="M-358 755Q-323 755 -299 731T-275 673Q-275 638 -299 614T-358 590Q-392 590 -416 614T-440 673Q-440 708 -416 731T-358 755ZM-132 755Q-98 755 -74 731T-50 673Q-50 638 -74 614T-132 590Q-167 590 -191 614T-215 673Q-215 708 -191 731T-132 755Z" horiz-adv-x="0" unicode="̈"/>
			<glyph d="M-176 780Q-124 780 -87 756T-50 684Q-50 656 -62 639T-100 604Q-114 594 -120 588T-130 572H-244Q-244 597 -233 609T-204 632Q-186 641 -174 650T-163 672Q-163 694 -200 694Q-225 694 -254 684L-271 764Q-251 771 -224 775T-176 780Z" horiz-adv-x="0" unicode="̉"/>
			<glyph d="M-170 800Q-119 800 -84 766T-50 682Q-50 632 -84 598T-170 564Q-222 564 -257 598T-292 682Q-292 732 -257 766T-170 800ZM-170 715Q-186 715 -195 706T-205 682Q-205 667 -195 657T-170 648Q-155 648 -145 657T-136 682Q-136 696 -145 705T-170 715Z" horiz-adv-x="0" unicode="̊"/>
			<glyph d="M-425 752H-266L-415 579H-556ZM-209 752H-50L-199 579H-340Z" horiz-adv-x="0" unicode="̋"/>
			<glyph d="M-480 752H-339L-264 675L-191 752H-50L-183 579H-345Z" horiz-adv-x="0" unicode="̌"/>
			<glyph d="M-189 769H-50L-136 579H-296Z" horiz-adv-x="0" unicode="̒"/>
			<glyph d="M-76 667Q-50 611 -50 552Q-50 490 -104 451T-273 412V510Q-224 510 -201 519T-179 562Q-179 597 -199 634Z" horiz-adv-x="0" unicode="̛"/>
			<glyph d="M-148 -63Q-107 -63 -78 -91T-50 -161Q-50 -202 -78 -230T-148 -259Q-189 -259 -217 -230T-246 -161Q-246 -120 -217 -91T-148 -63Z" horiz-adv-x="0" unicode="̣"/>
			<glyph d="M-209 -42H-50L-142 -221H-280Z" horiz-adv-x="0" unicode="̦"/>
			<glyph d="M-200 0H-119V-29Q-50 -49 -50 -119Q-50 -234 -230 -234V-149Q-191 -149 -176 -141T-161 -115Q-161 -96 -171 -89T-200 -83Z" horiz-adv-x="0" unicode="̧"/>
			<glyph d="M-174 0H-60Q-143 -19 -143 -79Q-143 -100 -133 -110T-107 -121Q-91 -121 -70 -113L-50 -198Q-87 -212 -128 -212Q-188 -212 -221 -184T-254 -109Q-254 -71 -232 -43T-174 0Z" horiz-adv-x="0" unicode="̨"/>
			<glyph d="M-393 347H-40V203H-393Z" horiz-adv-x="0" unicode="̵"/>
			<glyph d="M133 765H312L197 435H55Z" horiz-adv-x="350" unicode="ʹ"/>
			<glyph d="M133 188H312L197 -142H55Z" horiz-adv-x="350" unicode="͵"/>
			<glyph d="M156 504Q198 504 227 474T257 403Q257 361 227 331T156 302Q114 302 84 331T55 403Q55 445 84 474T156 504ZM86 159H265L147 -144H-11Z" horiz-adv-x="312" unicode=";"/>
			<glyph d="M-25 765H154L69 579H-73Z" horiz-adv-x="0" unicode="΄"/>
			<glyph d="M-42 840H107L37 654H-60ZM-159 748Q-127 748 -105 726T-83 673Q-83 641 -105 619T-159 597Q-191 597 -212 619T-234 673Q-234 705 -212 726T-159 748ZM148 748Q180 748 201 726T223 673Q223 641 201 619T148 597Q116 597 94 619T72 673Q72 705 94 726T148 748Z" horiz-adv-x="0" unicode="΅"/>
			<glyph d="M263 710H472L727 0H526L470 172H255L199 0H8ZM362 505L302 320H422ZM14 765H193L108 579H-34Z" horiz-adv-x="735" unicode="Ά"/>
			<glyph d="M156 447Q198 447 227 417T257 346Q257 304 227 274T156 245Q114 245 84 274T55 346Q55 388 84 417T156 447Z" horiz-adv-x="312" unicode="·"/>
			<glyph d="M-25 765H154L69 579H-73ZM176 710H634V545H366V434H626V275H366V165H643V0H176Z" horiz-adv-x="696" unicode="Έ"/>
			<glyph d="M-25 765H154L69 579H-73ZM176 710H366V437H613V710H803V0H613V273H366V0H176Z" horiz-adv-x="873" unicode="Ή"/>
			<glyph d="M-25 765H154L69 579H-73ZM176 710H366V0H176Z" horiz-adv-x="436" unicode="Ί"/>
			<glyph d="M5 765H184L99 579H-43ZM453 720Q560 720 645 675T779 548T828 358Q828 250 779 166T645 36T451 -10Q345 -10 260 35T126 162T78 355Q78 465 126 547T260 675T453 720ZM453 541Q374 541 325 489T277 355Q277 272 325 220T453 169Q532 169 580 220T629 355Q629 438 580 489T453 541Z" horiz-adv-x="856" unicode="Ό"/>
			<glyph d="M5 765H184L159 710H366L493 447L620 710H804L574 269V0H388V269L158 709L99 579H-43Z" horiz-adv-x="792" unicode="Ύ"/>
			<glyph d="M5 765H184L99 579H-43ZM467 720Q577 720 662 682T794 576T842 415Q842 342 804 280T700 176V164H853V0H526V240Q577 255 608 294T640 385Q640 453 591 495T467 538Q391 538 342 495T294 385Q294 332 326 293T411 239V0H84V164H237V177Q169 214 130 276T92 415Q92 507 139 576T272 682T467 720Z" horiz-adv-x="888" unicode="Ώ"/>
			<glyph d="M55 510H230V202Q230 168 241 154T278 141Q307 141 339 153L359 18Q335 7 298 -1T223 -10Q142 -10 98 33T55 165ZM122 840H271L201 654H104ZM5 748Q37 748 59 726T81 673Q81 641 59 619T5 597Q-27 597 -48 619T-70 673Q-70 705 -48 726T5 748ZM312 748Q344 748 365 726T387 673Q387 641 365 619T312 597Q280 597 258 619T236 673Q236 705 258 726T312 748Z" horiz-adv-x="369" unicode="ΐ"/>
			<glyph d="M263 710H472L727 0H526L470 172H255L199 0H8ZM362 505L302 320H422Z" horiz-adv-x="735" unicode="Α"/>
			<glyph d="M70 710H366Q469 710 528 660T587 529Q587 479 564 438T492 371Q548 356 582 309T617 196Q617 139 590 94T514 25T398 0H70ZM260 557V427H335Q373 427 391 443T409 490Q409 522 389 539T335 557ZM260 282V152H357Q389 152 407 169T426 217Q426 248 408 265T357 282Z" horiz-adv-x="651" unicode="Β"/>
			<glyph d="M70 710H519V541H260V0H70Z" horiz-adv-x="534" unicode="Γ"/>
			<glyph d="M252 710H461L663 165V0H50V165ZM351 505L237 165H466Z" horiz-adv-x="713" unicode="Δ"/>
			<glyph d="M70 710H528V545H260V434H520V275H260V165H537V0H70Z" horiz-adv-x="590" unicode="Ε"/>
			<glyph d="M48 710H563V604L280 163H567V0H24V106L307 546H48Z" horiz-adv-x="597" unicode="Ζ"/>
			<glyph d="M70 710H260V437H507V710H697V0H507V273H260V0H70Z" horiz-adv-x="767" unicode="Η"/>
			<glyph d="M402 720Q511 720 596 676T729 551T778 358Q778 247 729 163T595 35T401 -10Q294 -10 209 34T76 160T28 356Q28 468 76 550T209 676T402 720ZM403 538Q325 538 277 489T230 355Q230 270 277 221T403 172Q481 172 528 221T576 355Q576 440 528 489T403 538ZM286 435H519V277H286Z" horiz-adv-x="806" unicode="Θ"/>
			<glyph d="M70 710H260V0H70Z" horiz-adv-x="330" unicode="Ι"/>
			<glyph d="M70 710H260V366L490 710H705L475 377L730 0H498L260 363V0H70Z" horiz-adv-x="730" unicode="Κ"/>
			<glyph d="M241 710H449L696 0H490L344 491L198 0H-6Z" horiz-adv-x="690" unicode="Λ"/>
			<glyph d="M70 710H325L466 401L623 710H869V0H683V478L541 179H391L254 478V0H70Z" horiz-adv-x="939" unicode="Μ"/>
			<glyph d="M70 710H254L536 291V710H716V0H533L250 418V0H70Z" horiz-adv-x="786" unicode="Ν"/>
			<glyph d="M72 710H575V544H72ZM119 439H528V276H119ZM53 165H594V0H53Z" horiz-adv-x="647" unicode="Ξ"/>
			<glyph d="M403 720Q510 720 595 675T729 548T778 358Q778 250 729 166T595 36T401 -10Q295 -10 210 35T76 162T28 355Q28 465 76 547T210 675T403 720ZM403 541Q324 541 275 489T227 355Q227 272 275 220T403 169Q482 169 530 220T579 355Q579 438 530 489T403 541Z" horiz-adv-x="806" unicode="Ο"/>
			<glyph d="M70 710H687V0H497V546H260V0H70Z" horiz-adv-x="757" unicode="Π"/>
			<glyph d="M70 710H354Q433 710 489 677T573 591T602 477Q602 415 573 359T488 269T354 235H260V0H70ZM260 557V388H308Q352 388 377 410T402 477Q402 517 377 537T308 557Z" horiz-adv-x="624" unicode="Ρ"/>
			<glyph d="M34 710H515V545H283L437 413V310L274 165H540V0H24V140L255 363L34 574Z" horiz-adv-x="561" unicode="Σ"/>
			<glyph d="M15 710H559V546H382V0H192V546H15Z" horiz-adv-x="574" unicode="Τ"/>
			<glyph d="M-12 710H196L323 447L450 710H634L404 269V0H218V269Z" horiz-adv-x="622" unicode="Υ"/>
			<glyph d="M357 730H537V645Q695 628 778 552T862 355Q862 238 777 160T537 65V-20H357V65Q199 82 115 158T32 355Q32 476 115 552T357 645ZM357 490Q224 465 224 355Q224 245 357 220ZM537 490V220Q670 245 670 355Q670 465 537 490Z" horiz-adv-x="894" unicode="Φ"/>
			<glyph d="M6 710H228L327 506L440 710H638L427 365L648 0H427L316 214L207 0H-2L213 360Z" horiz-adv-x="646" unicode="Χ"/>
			<glyph d="M52 710H232V487Q232 346 357 332V710H537V332Q662 346 662 487V710H842V477Q842 348 760 268T537 178V0H357V177Q214 188 133 265T52 477Z" horiz-adv-x="894" unicode="Ψ"/>
			<glyph d="M418 720Q528 720 613 682T745 576T793 415Q793 342 755 280T651 176V164H804V0H477V240Q528 255 559 294T591 385Q591 453 542 495T418 538Q342 538 293 495T245 385Q245 332 277 293T362 239V0H35V164H188V177Q120 214 81 276T43 415Q43 507 90 576T223 682T418 720Z" horiz-adv-x="839" unicode="Ω"/>
			<glyph d="M70 710H260V0H70ZM53 937Q88 937 112 913T136 855Q136 820 112 796T53 772Q19 772 -5 796T-29 855Q-29 890 -5 913T53 937ZM279 937Q313 937 337 913T361 855Q361 820 337 796T279 772Q244 772 220 796T196 855Q196 890 220 913T279 937Z" horiz-adv-x="330" unicode="Ϊ"/>
			<glyph d="M-12 710H196L323 447L450 710H634L404 269V0H218V269ZM199 937Q234 937 258 913T282 855Q282 820 258 796T199 772Q165 772 141 796T117 855Q117 890 140 913T199 937ZM425 937Q459 937 483 913T507 855Q507 820 483 796T425 772Q390 772 366 796T342 855Q342 890 366 913T425 937Z" horiz-adv-x="622" unicode="Ϋ"/>
			<glyph d="M275 520Q333 520 374 498T433 440Q439 473 453 510H623Q598 413 598 330V202Q598 169 608 155T639 141Q655 141 677 149L707 21Q682 8 647 -1T577 -10Q523 -10 488 12T442 73Q417 35 374 12T274 -10Q204 -10 149 23T63 116T32 256Q32 334 62 394T148 487T275 520ZM319 360Q273 360 244 330T216 254Q216 207 244 179T319 151Q365 151 394 179T423 254Q423 301 394 330T319 360ZM322 765H501L416 579H274Z" horiz-adv-x="697" unicode="ά"/>
			<glyph d="M293 520Q392 520 481 485L454 357Q381 389 310 389Q272 389 256 380T240 354Q240 335 264 327T357 319V199Q303 199 276 196T238 187T228 168Q228 129 311 129Q395 129 478 168L505 34Q466 17 408 3T276 -10Q165 -10 98 26T32 138Q32 239 155 265Q113 276 88 304T63 376Q63 440 120 480T293 520ZM245 765H424L339 579H197Z" horiz-adv-x="537" unicode="έ"/>
			<glyph d="M399 521Q488 521 531 473T575 334V-210H400V259Q400 317 383 341T324 365Q230 365 230 255V0H55V510H230V437Q257 479 302 500T399 521ZM287 765H466L381 579H239Z" horiz-adv-x="628" unicode="ή"/>
			<glyph d="M55 510H230V202Q230 168 241 154T278 141Q307 141 339 153L359 18Q335 7 298 -1T223 -10Q142 -10 98 33T55 165ZM136 765H315L230 579H88Z" horiz-adv-x="369" unicode="ί"/>
			<glyph d="M53 510H228V251Q228 197 248 171T312 145Q356 145 376 172T397 255V510H572V222Q572 143 534 91T436 14T308 -10Q240 -10 182 15T89 94T53 234ZM272 840H421L351 654H254ZM155 748Q187 748 209 726T231 673Q231 641 209 619T155 597Q123 597 101 619T80 673Q80 705 101 726T155 748ZM462 748Q494 748 515 726T537 673Q537 641 515 619T462 597Q430 597 408 619T386 673Q386 705 408 726T462 748Z" horiz-adv-x="625" unicode="ΰ"/>
			<glyph d="M275 520Q333 520 374 498T433 440Q439 473 453 510H623Q598 413 598 330V202Q598 169 608 155T639 141Q655 141 677 149L707 21Q682 8 647 -1T577 -10Q523 -10 488 12T442 73Q417 35 374 12T274 -10Q204 -10 149 23T63 116T32 256Q32 334 62 394T148 487T275 520ZM319 360Q273 360 244 330T216 254Q216 207 244 179T319 151Q365 151 394 179T423 254Q423 301 394 330T319 360Z" horiz-adv-x="697" unicode="α"/>
			<glyph d="M302 759Q408 759 470 707T532 566Q532 463 444 411Q506 389 543 341T580 217Q580 149 550 98T466 19T343 -9Q278 -9 228 15V-210H55V515Q55 635 122 697T302 759ZM299 605Q266 605 247 585T228 526V166Q261 142 307 142Q350 142 375 166T400 234Q400 275 374 299T292 324H281V467L298 468Q328 470 347 489T366 539Q366 570 348 587T299 605Z" horiz-adv-x="612" unicode="β"/>
			<glyph d="M0 510H192L298 175Q342 252 360 335T378 510H556Q556 385 508 264T369 0V-210H196V0Z" horiz-adv-x="586" unicode="γ"/>
			<glyph d="M80 752H560V606H347L512 452Q554 412 578 359T602 256Q602 177 566 117T466 23T318 -10Q234 -10 169 23T68 116T32 249Q32 343 87 409T231 498L80 645ZM317 358Q273 358 244 330T216 255Q216 208 244 180T317 152Q360 152 389 180T418 255Q418 303 389 330T317 358Z" horiz-adv-x="634" unicode="δ"/>
			<glyph d="M293 520Q392 520 481 485L454 357Q381 389 310 389Q272 389 256 380T240 354Q240 335 264 327T357 319V199Q303 199 276 196T238 187T228 168Q228 129 311 129Q395 129 478 168L505 34Q466 17 408 3T276 -10Q165 -10 98 26T32 138Q32 239 155 265Q113 276 88 304T63 376Q63 440 120 480T293 520Z" horiz-adv-x="537" unicode="ε"/>
			<glyph d="M70 752H520V644L293 401Q248 353 232 323T216 261Q216 221 234 197T281 162T365 135Q411 122 441 107T491 61T511 -22Q511 -71 494 -122T454 -210L315 -169Q345 -113 345 -71Q345 -49 336 -37T307 -19T240 0Q174 16 129 41T58 114T32 242Q32 299 46 340T88 417T163 496L281 606H70Z" horiz-adv-x="520" unicode="ζ"/>
			<glyph d="M399 521Q488 521 531 473T575 334V-210H400V259Q400 317 383 341T324 365Q230 365 230 255V0H55V510H230V437Q257 479 302 500T399 521Z" horiz-adv-x="628" unicode="η"/>
			<glyph d="M331 760Q474 760 541 662T608 374Q608 183 541 86T331 -10Q187 -10 119 87T52 374Q52 565 120 662T331 760ZM331 598Q281 598 261 560T237 444H425Q421 522 400 560T331 598ZM237 304Q241 227 261 189T331 152Q380 152 400 189T425 304Z" horiz-adv-x="660" unicode="θ"/>
			<glyph d="M55 510H230V202Q230 168 241 154T278 141Q307 141 339 153L359 18Q335 7 298 -1T223 -10Q142 -10 98 33T55 165Z" horiz-adv-x="369" unicode="ι"/>
			<glyph d="M55 510H230V293L394 510H596L411 286L604 0H400L294 176L230 119V0H55Z" horiz-adv-x="604" unicode="κ"/>
			<glyph d="M147 756Q229 756 277 717T353 600L567 0H383L296 298L187 0H0L214 496L199 536Q185 571 164 586T114 601Q84 601 57 591L37 736Q86 756 147 756Z" horiz-adv-x="567" unicode="λ"/>
			<glyph d="M55 510H230V251Q230 197 249 171T315 145Q355 145 377 173T399 255V510H574V0H399V53Q379 21 350 5T290 -11Q259 -11 230 8V-209H55V225H56L55 226Z" horiz-adv-x="629" unicode="μ"/>
			<glyph d="M0 510H192L298 175Q342 252 360 335T378 510H556Q556 384 508 263T371 0H193Z" horiz-adv-x="586" unicode="ν"/>
			<glyph d="M340 762Q398 762 445 749T523 718L471 575Q449 589 419 598T359 608Q317 608 295 588T273 537Q273 462 396 460V333Q216 333 216 236Q216 206 232 188T275 160T351 138Q405 125 439 107T492 59T511 -22Q511 -72 494 -123T454 -210L315 -169Q330 -141 337 -118T345 -74Q345 -50 335 -37T304 -17T240 0Q160 17 96 62T32 212Q32 290 75 342T201 410Q148 430 118 470T89 569Q89 627 119 670T205 738T340 762Z" horiz-adv-x="523" unicode="ξ"/>
			<glyph d="M317 520Q401 520 465 485T566 391T602 255Q602 179 566 119T465 24T317 -10Q234 -10 169 24T68 119T32 255Q32 330 68 390T169 485T317 520ZM318 361Q271 361 242 331T213 255Q213 207 241 178T317 149Q364 149 392 178T421 256Q421 303 392 332T318 361Z" horiz-adv-x="634" unicode="ο"/>
			<glyph d="M50 510H747V365H617V199Q617 140 666 140Q689 140 722 154L742 22Q716 6 684 -2T609 -10Q532 -10 487 33T442 158V365H315V0H140V365H20Z" horiz-adv-x="767" unicode="π"/>
			<glyph d="M345 520Q432 520 494 486T588 393T621 255Q621 179 590 118T503 24T375 -10Q325 -10 288 7T230 57V-210H55V217Q55 316 92 384T194 486T345 520ZM334 360Q290 360 260 330T230 255Q230 209 260 180T334 151Q378 151 407 180T437 255Q437 302 407 331T334 360Z" horiz-adv-x="653" unicode="ρ"/>
			<glyph d="M313 520Q363 520 409 508T485 479L434 333Q410 346 380 355T322 364Q274 364 245 334T216 254Q216 221 229 201T268 168T344 137Q389 121 417 104T462 57T480 -19Q480 -70 461 -120T416 -210L277 -169Q296 -138 305 -117T314 -73Q314 -46 300 -34T244 -9Q186 11 142 37T65 114T32 248Q32 331 68 392T167 487T313 520Z" horiz-adv-x="497" unicode="ς"/>
			<glyph d="M343 510H677V365H553Q602 312 602 233Q602 164 567 108T468 21T321 -10Q236 -10 170 23T68 116T32 250Q32 325 69 384T177 476T343 510ZM345 362Q284 362 250 331T216 251Q216 206 243 179T318 152Q366 152 392 179T418 253Q418 290 401 320T365 362Z" horiz-adv-x="677" unicode="σ"/>
			<glyph d="M50 510H468V365H308V205Q308 174 321 160T359 146Q386 146 428 160L453 22Q430 7 394 -1T319 -10Q133 -10 133 184V365H20Z" horiz-adv-x="488" unicode="τ"/>
			<glyph d="M53 510H228V251Q228 197 248 171T312 145Q356 145 376 172T397 255V510H572V222Q572 143 534 91T436 14T308 -10Q240 -10 182 15T89 94T53 234Z" horiz-adv-x="625" unicode="υ"/>
			<glyph d="M307 710H467V521Q602 504 672 431T742 255Q742 152 672 79T467 -11V-210H307V-11Q172 6 102 79T32 255Q32 358 102 431T307 521ZM467 379V132Q513 147 535 179T558 256Q558 302 535 333T467 379ZM307 378Q261 363 238 331T216 254Q216 208 239 176T307 131Z" horiz-adv-x="774" unicode="φ"/>
			<glyph d="M107 520Q172 520 210 492T278 400L298 356L357 510H553L390 156L557 -210H367L279 16L181 -210H0L192 188L140 307Q126 341 111 353T72 365Q60 365 49 362T27 355L7 500Q56 520 107 520Z" horiz-adv-x="557" unicode="χ"/>
			<glyph d="M322 710H482V144Q536 159 561 200T587 315V510H752V282Q752 160 678 87T482 -4V-210H322V-5Q195 12 124 87T53 294V510H218V311Q218 240 243 199T322 144Z" horiz-adv-x="805" unicode="ψ"/>
			<glyph d="M84 510H270Q242 462 226 398T211 262Q211 207 222 180T254 153Q279 153 290 203T301 377H466Q466 292 470 245T486 177T516 157Q556 157 556 262Q556 334 537 406T496 510H682Q704 477 720 403T737 244Q737 122 685 56T544 -10Q478 -10 438 24T388 113Q376 61 332 25T226 -10Q136 -10 83 57T30 244Q30 326 44 396T84 510Z" horiz-adv-x="767" unicode="ω"/>
			<glyph d="M55 510H230V202Q230 168 241 154T278 141Q307 141 339 153L359 18Q335 7 298 -1T223 -10Q142 -10 98 33T55 165ZM58 763Q96 763 122 737T149 673Q149 635 122 608T58 582Q20 582 -6 608T-32 673Q-32 711 -6 737T58 763ZM268 763Q306 763 332 737T358 673Q358 635 332 608T268 582Q230 582 203 608T177 673Q177 711 203 737T268 763Z" horiz-adv-x="369" unicode="ϊ"/>
			<glyph d="M53 510H228V251Q228 197 248 171T312 145Q356 145 376 172T397 255V510H572V222Q572 143 534 91T436 14T308 -10Q240 -10 182 15T89 94T53 234ZM200 755Q235 755 259 731T283 673Q283 638 259 614T200 590Q166 590 142 614T118 673Q118 708 141 731T200 755ZM426 755Q460 755 484 731T508 673Q508 638 484 614T426 590Q391 590 367 614T343 673Q343 708 367 731T426 755Z" horiz-adv-x="625" unicode="ϋ"/>
			<glyph d="M317 520Q401 520 465 485T566 391T602 255Q602 179 566 119T465 24T317 -10Q234 -10 169 24T68 119T32 255Q32 330 68 390T169 485T317 520ZM318 361Q271 361 242 331T213 255Q213 207 241 178T317 149Q364 149 392 178T421 256Q421 303 392 332T318 361ZM290 765H469L384 579H242Z" horiz-adv-x="634" unicode="ό"/>
			<glyph d="M53 510H228V251Q228 197 248 171T312 145Q356 145 376 172T397 255V510H572V222Q572 143 534 91T436 14T308 -10Q240 -10 182 15T89 94T53 234ZM286 765H465L380 579H238Z" horiz-adv-x="625" unicode="ύ"/>
			<glyph d="M84 510H270Q242 462 226 398T211 262Q211 207 222 180T254 153Q279 153 290 203T301 377H466Q466 292 470 245T486 177T516 157Q556 157 556 262Q556 334 537 406T496 510H682Q704 477 720 403T737 244Q737 122 685 56T544 -10Q478 -10 438 24T388 113Q376 61 332 25T226 -10Q136 -10 83 57T30 244Q30 326 44 396T84 510ZM357 765H536L451 579H309Z" horiz-adv-x="767" unicode="ώ"/>
			<glyph d="M209 710H383V510H580V278H443V373H383V0H209V373H149V278H12V510H209Z" horiz-adv-x="592" unicode="ϯ"/>
			<glyph d="M70 710H528V545H260V434H520V275H260V165H537V0H70ZM98 924H267L394 764H253Z" horiz-adv-x="590" unicode="Ѐ"/>
			<glyph d="M70 710H528V545H260V434H520V275H260V165H537V0H70ZM188 937Q223 937 247 913T271 855Q271 820 247 796T188 772Q154 772 130 796T106 855Q106 890 129 913T188 937ZM414 937Q448 937 472 913T496 855Q496 820 472 796T414 772Q379 772 355 796T331 855Q331 890 355 913T414 937Z" horiz-adv-x="590" unicode="Ё"/>
			<glyph d="M15 710H559V546H382V412Q424 437 467 452T571 468Q684 468 751 407T818 238Q818 165 787 108T700 21T569 -10Q503 -10 437 14L465 175Q511 159 545 159Q586 159 607 179T628 232Q628 268 602 288T531 309Q497 309 457 298T382 270V0H192V546H15Z" horiz-adv-x="840" unicode="Ђ"/>
			<glyph d="M70 710H519V541H260V0H70ZM327 924H496L341 764H200Z" horiz-adv-x="534" unicode="Ѓ"/>
			<glyph d="M407 720Q536 720 637 654L576 495Q538 523 498 538T415 553Q347 553 298 521T230 433H490V275H231Q252 221 299 189T415 157Q503 157 596 214L648 60Q543 -10 407 -10Q294 -10 208 35T75 162T28 352Q28 462 76 545T211 674T407 720Z" horiz-adv-x="653" unicode="Є"/>
			<glyph d="M314 720Q375 720 437 704T537 667L482 510Q446 530 400 542T318 555Q285 555 265 544T245 515Q245 492 273 476T373 436Q437 413 476 388T537 325T559 228Q559 116 486 53T285 -10Q217 -10 151 8T35 58L82 232Q130 199 186 177T293 156Q365 156 365 203Q365 219 355 229T322 250T246 280Q147 317 99 365T52 496Q52 565 85 615T177 693T314 720Z" horiz-adv-x="594" unicode="Ѕ"/>
			<glyph d="M70 710H260V0H70Z" horiz-adv-x="330" unicode="І"/>
			<glyph d="M70 710H260V0H70ZM53 937Q88 937 112 913T136 855Q136 820 112 796T53 772Q19 772 -5 796T-29 855Q-29 890 -5 913T53 937ZM279 937Q313 937 337 913T361 855Q361 820 337 796T279 772Q244 772 220 796T196 855Q196 890 220 913T279 937Z" horiz-adv-x="330" unicode="Ї"/>
			<glyph d="M210 710H400V270Q400 138 333 64T150 -10Q70 -10 4 14L32 175Q78 159 116 159Q161 159 185 192T210 294Z" horiz-adv-x="455" unicode="Ј"/>
			<glyph d="M184 710H676V444H797Q876 444 932 415T1016 338T1045 229Q1045 168 1016 116T932 32T797 0H486V546H349L315 201Q304 89 254 39T108 -11Q48 -11 0 8L32 162Q39 158 52 154T79 150Q106 150 119 170T137 241ZM676 291V153H761Q800 153 822 171T845 224Q845 258 823 274T761 291Z" horiz-adv-x="1067" unicode="Љ"/>
			<glyph d="M70 710H260V447H479V710H669V444H790Q869 444 925 415T1009 338T1038 229Q1038 168 1009 116T925 32T790 0H479V287H260V0H70ZM669 291V153H754Q793 153 815 171T838 224Q838 258 816 274T754 291Z" horiz-adv-x="1060" unicode="Њ"/>
			<glyph d="M15 710H559V546H382V407Q474 458 591 458Q692 458 752 405T812 248V1H622V211Q622 256 599 275T537 294Q500 294 459 286T382 264V0H192V546H15Z" horiz-adv-x="867" unicode="Ћ"/>
			<glyph d="M70 710H260V423H312L501 710H715L485 377L740 0H513L326 285H260V0H70ZM419 924H588L433 764H292Z" horiz-adv-x="740" unicode="Ќ"/>
			<glyph d="M70 710H250V284L532 710H716V0H536V428L253 0H70ZM191 924H360L487 764H346Z" horiz-adv-x="786" unicode="Ѝ"/>
			<glyph d="M4 710H210L360 374L492 710H696L473 203Q439 128 411 85T334 16T202 -10Q121 -10 55 14L93 165Q139 149 179 149Q206 149 224 156T260 185ZM156 924H273Q274 897 293 882T350 868Q421 868 426 924H543Q543 856 491 812T346 768Q253 768 204 811T156 924Z" horiz-adv-x="690" unicode="Ў"/>
			<glyph d="M70 710H260V164H497V710H687V0H455V-184H303V0H70Z" horiz-adv-x="757" unicode="Џ"/>
			<glyph d="M263 710H472L727 0H526L470 172H255L199 0H8ZM362 505L302 320H422Z" horiz-adv-x="735" unicode="А"/>
			<glyph d="M70 710H533V541H260V444H381Q460 444 516 415T600 338T629 229Q629 168 600 116T516 32T381 0H70ZM260 291V153H345Q384 153 406 171T429 224Q429 258 407 274T345 291Z" horiz-adv-x="651" unicode="Б"/>
			<glyph d="M70 710H366Q469 710 528 660T587 529Q587 479 564 438T492 371Q548 356 582 309T617 196Q617 139 590 94T514 25T398 0H70ZM260 557V427H335Q373 427 391 443T409 490Q409 522 389 539T335 557ZM260 282V152H357Q389 152 407 169T426 217Q426 248 408 265T357 282Z" horiz-adv-x="651" unicode="В"/>
			<glyph d="M70 710H519V541H260V0H70Z" horiz-adv-x="534" unicode="Г"/>
			<glyph d="M194 710H697V164H813V-184H661V0H162V-184H10V164H68Q104 164 122 199T148 300ZM357 546L329 287Q319 185 288 164H507V546Z" horiz-adv-x="833" unicode="Д"/>
			<glyph d="M70 710H528V545H260V434H520V275H260V165H537V0H70Z" horiz-adv-x="590" unicode="Е"/>
			<glyph d="M25 710H230L421 424H490V710H670V424H739L930 710H1135L905 377L1160 0H942L753 285H670V0H490V285H407L218 0H0L255 377Z" horiz-adv-x="1160" unicode="Ж"/>
			<glyph d="M295 720Q415 720 480 672T546 537Q546 475 514 434T424 374Q574 334 574 201Q574 138 540 90T439 16T277 -10Q191 -10 126 10T10 62L95 214Q170 154 268 154Q323 154 352 171T381 220Q381 255 337 271T189 288V433Q353 433 353 502Q353 528 330 543T269 559Q228 559 186 542T113 499L37 642Q145 720 295 720Z" horiz-adv-x="595" unicode="З"/>
			<glyph d="M70 710H250V284L532 710H716V0H536V428L253 0H70Z" horiz-adv-x="786" unicode="И"/>
			<glyph d="M70 710H250V284L532 710H716V0H536V428L253 0H70ZM199 924H316Q317 897 336 882T393 868Q464 868 469 924H586Q586 856 534 812T389 768Q296 768 247 811T199 924Z" horiz-adv-x="786" unicode="Й"/>
			<glyph d="M70 710H260V423H312L501 710H715L485 377L740 0H513L326 285H260V0H70Z" horiz-adv-x="740" unicode="К"/>
			<glyph d="M184 710H686V0H496V546H349L315 201Q304 89 254 39T108 -11Q48 -11 0 8L32 162Q39 158 52 154T77 150Q104 150 118 171T137 242Z" horiz-adv-x="756" unicode="Л"/>
			<glyph d="M70 710H325L466 401L623 710H869V0H683V478L541 179H391L254 478V0H70Z" horiz-adv-x="939" unicode="М"/>
			<glyph d="M70 710H260V437H507V710H697V0H507V273H260V0H70Z" horiz-adv-x="767" unicode="Н"/>
			<glyph d="M403 720Q510 720 595 675T729 548T778 358Q778 250 729 166T595 36T401 -10Q295 -10 210 35T76 162T28 355Q28 465 76 547T210 675T403 720ZM403 541Q324 541 275 489T227 355Q227 272 275 220T403 169Q482 169 530 220T579 355Q579 438 530 489T403 541Z" horiz-adv-x="806" unicode="О"/>
			<glyph d="M70 710H687V0H497V546H260V0H70Z" horiz-adv-x="757" unicode="П"/>
			<glyph d="M70 710H354Q433 710 489 677T573 591T602 477Q602 415 573 359T488 269T354 235H260V0H70ZM260 557V388H308Q352 388 377 410T402 477Q402 517 377 537T308 557Z" horiz-adv-x="624" unicode="Р"/>
			<glyph d="M407 720Q527 720 637 661L576 492Q534 516 496 529T415 543Q330 543 278 491T227 356Q227 274 277 220T415 167Q503 167 596 224L648 60Q597 26 537 8T399 -10Q290 -10 205 35T74 162T28 352Q28 462 76 545T211 674T407 720Z" horiz-adv-x="653" unicode="С"/>
			<glyph d="M15 710H559V546H382V0H192V546H15Z" horiz-adv-x="574" unicode="Т"/>
			<glyph d="M4 710H210L360 374L492 710H696L473 203Q439 128 411 85T334 16T202 -10Q121 -10 55 14L93 165Q139 149 179 149Q206 149 224 156T260 185Z" horiz-adv-x="690" unicode="У"/>
			<glyph d="M357 730H537V645Q695 628 778 552T862 355Q862 238 777 160T537 65V-20H357V65Q199 82 115 158T32 355Q32 476 115 552T357 645ZM357 490Q224 465 224 355Q224 245 357 220ZM537 490V220Q670 245 670 355Q670 465 537 490Z" horiz-adv-x="894" unicode="Ф"/>
			<glyph d="M6 710H228L327 506L440 710H638L427 365L648 0H427L316 214L207 0H-2L213 360Z" horiz-adv-x="646" unicode="Х"/>
			<glyph d="M70 710H260V164H497V710H687V164H803V-184H651V0H70Z" horiz-adv-x="823" unicode="Ц"/>
			<glyph d="M50 710H240V507Q240 385 350 385Q414 385 474 417V710H664V0H474V274Q444 257 398 244T295 231Q175 231 112 295T50 480Z" horiz-adv-x="734" unicode="Ч"/>
			<glyph d="M70 710H260V164H477V710H667V164H884V710H1074V0H70Z" horiz-adv-x="1144" unicode="Ш"/>
			<glyph d="M70 710H260V164H477V710H667V164H884V710H1074V164H1190V-184H1038V0H70Z" horiz-adv-x="1210" unicode="Щ"/>
			<glyph d="M15 710H386V444H507Q586 444 642 415T726 338T755 229Q755 168 726 116T642 32T507 0H196V541H15ZM386 291V153H471Q510 153 532 171T555 224Q555 258 533 274T471 291Z" horiz-adv-x="777" unicode="Ъ"/>
			<glyph d="M70 710H260V444H381Q460 444 516 415T600 338T629 229Q629 168 600 116T516 32T381 0H70ZM260 291V153H345Q384 153 406 171T429 224Q429 258 407 274T345 291ZM721 710H911V0H721Z" horiz-adv-x="981" unicode="Ы"/>
			<glyph d="M70 710H260V444H381Q460 444 516 415T600 338T629 229Q629 168 600 116T516 32T381 0H70ZM260 291V153H345Q384 153 406 171T429 224Q429 258 407 274T345 291Z" horiz-adv-x="651" unicode="Ь"/>
			<glyph d="M258 720Q362 720 445 674T577 544T625 352Q625 245 579 163T450 35T261 -10Q179 -10 117 8T5 60L57 214Q150 157 251 157Q313 157 357 188T422 275H163V433H427Q410 490 363 521T247 553Q196 553 155 539T75 500L16 654Q62 684 124 702T258 720Z" horiz-adv-x="653" unicode="Э"/>
			<glyph d="M710 720Q817 720 902 675T1036 548T1085 358Q1085 250 1036 166T902 36T708 -10Q616 -10 539 24T411 122T343 273H260V0H70V710H260V437H343Q360 524 411 588T539 686T710 720ZM710 541Q631 541 582 489T534 355Q534 272 582 220T710 169Q789 169 837 220T886 355Q886 438 837 489T710 541Z" horiz-adv-x="1113" unicode="Ю"/>
			<glyph d="M306 710H595V0H405V259H344L212 0H0L173 299Q117 331 88 383T59 497Q59 555 87 603T171 681T306 710ZM338 557Q301 557 280 537T259 482Q259 445 280 425T338 405H405V557Z" horiz-adv-x="665" unicode="Я"/>
			<glyph d="M345 210Q274 208 244 194T214 153Q214 134 227 123T264 113Q299 113 322 133T345 190ZM293 520Q398 520 459 473T520 325V0H345V56Q320 26 279 7T191 -11Q120 -11 76 30T32 142Q32 230 110 269T345 311V317Q345 379 259 379Q185 379 109 333L71 466Q114 490 172 505T293 520Z" horiz-adv-x="573" unicode="а"/>
			<glyph d="M512 761L541 611Q479 599 418 592Q345 584 323 580Q279 570 252 542T214 456Q278 500 358 500Q423 500 474 471T555 387T585 259Q585 179 550 118T453 23T312 -10Q188 -10 112 77T37 355Q37 664 252 721Q306 735 398 745Q438 749 512 761ZM313 354Q281 354 253 341T207 309Q212 222 238 183T310 145Q355 145 383 175T411 256Q411 304 384 329T313 354Z" horiz-adv-x="605" unicode="б"/>
			<glyph d="M55 510H308Q406 510 455 476T504 387Q504 340 477 307T407 268Q464 263 499 231T535 146Q535 73 479 36T329 0H55ZM230 395V316H275Q309 316 323 329T338 360Q338 378 326 386T284 395ZM230 201V115H298Q326 115 339 127T353 158Q353 179 335 190T277 201Z" horiz-adv-x="567" unicode="в"/>
			<glyph d="M55 510H415V365H230V0H55Z" horiz-adv-x="435" unicode="г"/>
			<glyph d="M165 510H595V143H712V-154H560V0H162V-154H10V143H62Q94 143 106 163T127 238ZM313 365L298 234Q291 176 263 143H420V365Z" horiz-adv-x="732" unicode="д"/>
			<glyph d="M293 390Q262 390 242 371T213 320H368Q364 352 342 371T293 390ZM293 520Q369 520 425 485T513 387T544 235V208H211Q228 133 329 133Q410 133 474 170L515 39Q431 -10 306 -10Q227 -10 164 23T67 116T32 254Q32 333 66 393T159 487T293 520Z" horiz-adv-x="569" unicode="е"/>
			<glyph d="M8 510H195L319 329H359V510H524V329H564L688 510H875L700 269L883 0H688L558 207H524V0H359V207H325L195 0H0L183 269Z" horiz-adv-x="883" unicode="ж"/>
			<glyph d="M254 520Q362 520 417 483T472 385Q472 342 444 310T375 268Q498 242 498 146Q498 69 426 29T248 -10Q111 -10 25 34L55 172Q143 129 220 129Q302 129 302 167Q302 180 292 186T255 196T173 199V319Q245 319 270 327T295 357Q295 389 225 389Q157 389 79 351L54 479Q88 497 141 508T254 520Z" horiz-adv-x="537" unicode="з"/>
			<glyph d="M55 510H220V225L431 510H596V0H431V285L220 0H55Z" horiz-adv-x="646" unicode="и"/>
			<glyph d="M55 510H220V225L431 510H596V0H431V285L220 0H55ZM134 752H251Q252 677 323 677Q392 677 395 752H512Q512 672 465 624T323 577Q227 577 180 624T134 752Z" horiz-adv-x="646" unicode="й"/>
			<glyph d="M55 510H220V330H260L384 510H571L396 269L579 0H384L254 207H220V0H55Z" horiz-adv-x="579" unicode="к"/>
			<glyph d="M176 510H616V0H441V365H332L306 168Q295 81 248 35T128 -11Q80 -11 51 -6T0 8L30 152Q37 147 50 143T79 140Q103 140 116 156T135 207Z" horiz-adv-x="666" unicode="л"/>
			<glyph d="M55 510H261L392 255L525 510H736V0H564V293L467 95H317L220 293V0H55Z" horiz-adv-x="786" unicode="м"/>
			<glyph d="M55 510H230V333H401V510H576V0H401V188H230V0H55Z" horiz-adv-x="626" unicode="н"/>
			<glyph d="M317 520Q401 520 465 485T566 391T602 255Q602 179 566 119T465 24T317 -10Q234 -10 169 24T68 119T32 255Q32 330 68 390T169 485T317 520ZM318 361Q271 361 242 331T213 255Q213 207 241 178T317 149Q364 149 392 178T421 256Q421 303 392 332T318 361Z" horiz-adv-x="634" unicode="о"/>
			<glyph d="M55 510H566V0H391V365H230V0H55Z" horiz-adv-x="616" unicode="п"/>
			<glyph d="M376 520Q446 520 502 486T589 391T621 255Q621 179 589 118T502 24T375 -10Q325 -10 288 7T230 57V-210H55V510H230V457Q252 486 289 503T376 520ZM334 363Q289 363 258 333T227 255Q227 206 258 177T334 148Q382 148 411 176T440 255Q440 305 410 334T334 363Z" horiz-adv-x="653" unicode="р"/>
			<glyph d="M309 520Q361 520 405 507T479 475L428 330Q408 344 380 354T324 364Q277 364 246 333T216 254Q216 206 245 176T327 146Q351 146 382 155T442 181L483 39Q408 -10 309 -10Q228 -10 165 23T67 116T32 252Q32 331 69 392T169 486T309 520Z" horiz-adv-x="495" unicode="с"/>
			<glyph d="M20 510H481V365H338V0H163V365H20Z" horiz-adv-x="501" unicode="т"/>
			<glyph d="M0 510H191L286 212L377 510H557L348 -54Q319 -133 270 -171T139 -210Q80 -210 31 -190L51 -45Q78 -55 104 -55Q168 -55 188 -5L196 15Z" horiz-adv-x="557" unicode="у"/>
			<glyph d="M413 752H588V455Q610 486 646 503T730 520Q802 520 856 487T939 395T969 256Q969 176 940 116T857 23T730 -10Q682 -10 645 7T588 57V-210H413V57Q392 24 355 7T270 -10Q198 -10 144 23T61 116T32 257Q32 335 61 395T143 487T269 520Q316 520 354 503T413 458ZM309 360Q265 360 240 330T216 254Q216 205 242 178T310 151Q355 151 384 181T413 257Q413 305 382 332T309 360ZM692 360Q649 360 618 332T588 257Q588 211 617 181T691 151Q733 151 759 178T785 254Q785 301 760 330T692 360Z" horiz-adv-x="1001" unicode="ф"/>
			<glyph d="M12 510H228L306 390L388 510H589L407 264L592 0H382L304 129L223 0H7L196 259Z" horiz-adv-x="599" unicode="х"/>
			<glyph d="M55 510H230V143H391V510H566V143H683V-154H531V0H55Z" horiz-adv-x="703" unicode="ц"/>
			<glyph d="M50 510H225V360Q225 323 245 301T303 279Q328 279 350 287T386 307V510H561V0H386V168Q328 135 250 135Q154 135 102 185T50 328Z" horiz-adv-x="611" unicode="ч"/>
			<glyph d="M55 510H230V143H381V510H556V143H707V510H882V0H55Z" horiz-adv-x="932" unicode="ш"/>
			<glyph d="M55 510H230V143H381V510H556V143H707V510H882V143H999V-154H847V0H55Z" horiz-adv-x="1019" unicode="щ"/>
			<glyph d="M11 510H337V336H433Q537 336 587 292T637 173Q637 94 581 47T424 0H162V365H11ZM337 221V115H398Q431 115 445 130T460 169Q460 221 397 221Z" horiz-adv-x="669" unicode="ъ"/>
			<glyph d="M55 510H230V336H326Q430 336 480 292T530 173Q530 94 474 47T317 0H55ZM573 510H748V0H573ZM230 221V115H291Q324 115 338 130T353 169Q353 221 290 221Z" horiz-adv-x="798" unicode="ы"/>
			<glyph d="M55 510H230V336H326Q430 336 480 292T530 173Q530 94 474 47T317 0H55ZM230 221V115H291Q324 115 338 130T353 169Q353 221 290 221Z" horiz-adv-x="562" unicode="ь"/>
			<glyph d="M202 520Q284 520 345 486T438 392T471 254Q471 173 436 113T337 22T187 -10Q80 -10 12 28L46 161Q103 131 170 131Q261 131 290 189H110V314H293Q266 379 174 379Q112 379 64 352L23 484Q99 520 202 520Z" horiz-adv-x="503" unicode="э"/>
			<glyph d="M579 520Q663 520 727 485T828 391T864 255Q864 179 828 119T727 24T579 -10Q473 -10 398 44T302 188H230V0H55V510H230V333H305Q330 418 403 469T579 520ZM580 361Q533 361 504 331T475 255Q475 207 503 178T579 149Q626 149 654 178T683 256Q683 303 654 332T580 361Z" horiz-adv-x="896" unicode="ю"/>
			<glyph d="M242 511H500V1H325V175H294L189 0H0L136 196Q88 216 64 254T41 342Q41 421 91 466T242 511ZM280 396Q218 396 218 343Q218 317 235 303T285 290H325V396Z" horiz-adv-x="550" unicode="я"/>
			<glyph d="M293 390Q262 390 242 371T213 320H368Q364 352 342 371T293 390ZM293 520Q369 520 425 485T513 387T544 235V208H211Q228 133 329 133Q410 133 474 170L515 39Q431 -10 306 -10Q227 -10 164 23T67 116T32 254Q32 333 66 393T159 487T293 520ZM120 752H279L404 579H263Z" horiz-adv-x="569" unicode="ѐ"/>
			<glyph d="M293 390Q262 390 242 371T213 320H368Q364 352 342 371T293 390ZM293 520Q369 520 425 485T513 387T544 235V208H211Q228 133 329 133Q410 133 474 170L515 39Q431 -10 306 -10Q227 -10 164 23T67 116T32 254Q32 333 66 393T159 487T293 520ZM183 755Q218 755 242 731T266 673Q266 638 242 614T183 590Q149 590 125 614T101 673Q101 708 124 731T183 755ZM409 755Q443 755 467 731T491 673Q491 638 467 614T409 590Q374 590 350 614T326 673Q326 708 350 731T409 755Z" horiz-adv-x="569" unicode="ё"/>
			<glyph d="M55 752H230V670H399V545H230V410Q256 451 300 471T400 491Q489 491 532 443T575 304V-17Q575 -118 532 -166T403 -215Q376 -215 346 -211T297 -201L320 -54Q343 -60 360 -60Q380 -60 390 -48T400 -6V229Q400 286 382 310T325 335Q278 335 254 307T230 225V0H55V545H11V670H55ZZ" horiz-adv-x="628" unicode="ђ"/>
			<glyph d="M55 510H415V365H230V0H55ZM264 752H423L282 579H141Z" horiz-adv-x="435" unicode="ѓ"/>
			<glyph d="M316 520Q408 520 484 484L439 352Q391 379 329 379Q237 379 210 314H393V189H213Q242 131 333 131Q400 131 457 161L491 28Q423 -10 316 -10Q230 -10 166 22T67 113T32 254Q32 333 65 393T163 486T316 520Z" horiz-adv-x="503" unicode="є"/>
			<glyph d="M259 521Q306 521 353 509T436 478L407 351Q375 370 333 383T257 396Q217 396 217 375Q217 361 234 353T290 336Q379 314 418 277T457 174Q457 89 399 39T236 -10Q181 -10 126 3T34 41L73 175Q112 147 159 131T246 115Q288 115 288 138Q288 154 269 163T194 192Q145 209 114 226T65 272T47 346Q47 427 104 474T259 521Z" horiz-adv-x="491" unicode="ѕ"/>
			<glyph d="M55 510H230V0H55ZM145 768Q186 768 214 739T243 670Q243 629 214 600T145 572Q104 572 75 600T47 670Q47 711 75 739T145 768Z" horiz-adv-x="285" unicode="і"/>
			<glyph d="M55 510H230V0H55ZM40 763Q78 763 104 737T131 673Q131 635 104 608T40 582Q2 582 -24 608T-50 673Q-50 711 -24 737T40 763ZM250 763Q288 763 314 737T340 673Q340 635 314 608T250 582Q212 582 185 608T159 673Q159 711 185 737T250 763Z" horiz-adv-x="285" unicode="ї"/>
			<glyph d="M55 510H230V-17Q230 -215 62 -215Q31 -215 1 -211T-48 -201L-25 -54Q-2 -60 12 -60Q55 -60 55 -6ZM143 768Q184 768 212 739T241 670Q241 629 212 600T143 572Q102 572 73 600T45 670Q45 711 73 739T143 768Z" horiz-adv-x="285" unicode="ј"/>
			<glyph d="M176 510H613V336H709Q813 336 863 292T913 173Q913 94 857 47T700 0H438V365H332L306 168Q295 81 248 35T128 -11Q80 -11 51 -6T0 8L30 152Q37 147 50 143T79 140Q103 140 116 156T135 207ZM613 221V115H674Q707 115 721 130T736 169Q736 221 673 221Z" horiz-adv-x="945" unicode="љ"/>
			<glyph d="M55 510H230V335H401V510H576V336H672Q776 336 826 292T876 173Q876 94 820 47T663 0H401V201H230V0H55ZM576 221V115H637Q670 115 684 130T699 169Q699 221 636 221Z" horiz-adv-x="908" unicode="њ"/>
			<glyph d="M55 752H230V670H399V545H230V410Q256 451 300 471T400 491Q489 491 532 443T575 304V0H400V229Q400 286 382 310T325 335Q278 335 254 307T230 225V0H55V545H11V670H55ZZ" horiz-adv-x="628" unicode="ћ"/>
			<glyph d="M55 510H220V330H260L384 510H571L396 269L579 0H384L254 207H220V0H55ZM335 752H494L353 579H212Z" horiz-adv-x="579" unicode="ќ"/>
			<glyph d="M55 510H220V225L431 510H596V0H431V285L220 0H55ZM147 752H306L431 579H290Z" horiz-adv-x="646" unicode="ѝ"/>
			<glyph d="M0 510H191L286 212L377 510H557L348 -54Q319 -133 270 -171T139 -210Q80 -210 31 -190L51 -45Q78 -55 104 -55Q168 -55 188 -5L196 15ZM95 752H212Q213 677 284 677Q353 677 356 752H473Q473 672 426 624T284 577Q188 577 141 624T95 752Z" horiz-adv-x="557" unicode="ў"/>
			<glyph d="M55 510H230V145H391V510H566V0H387V-154H235V0H55Z" horiz-adv-x="616" unicode="џ"/>
			<glyph d="M367 850H519V541H260V0H70V710H367Z" horiz-adv-x="534" unicode="Ґ"/>
			<glyph d="M263 634H415V365H230V0H55V510H263Z" horiz-adv-x="435" unicode="ґ"/>
			<glyph d="M70 710H519V541H260V395H403V248H260V0H70V248H10V395H70Z" horiz-adv-x="534" unicode="Ғ"/>
			<glyph d="M55 510H415V365H230V278H362V154H230V0H55V154H5V278H55Z" horiz-adv-x="435" unicode="ғ"/>
			<glyph d="M25 710H230L421 424H490V710H670V424H739L930 710H1135L905 377L1049 164H1196V-184H1044V0H942L753 285H670V0H490V285H407L218 0H0L255 377Z" horiz-adv-x="1220" unicode="Җ"/>
			<glyph d="M8 510H195L319 329H359V510H524V329H564L688 510H875L700 269L786 143H898V-154H746V0H688L558 207H524V0H359V207H325L195 0H0L183 269Z" horiz-adv-x="918" unicode="җ"/>
			<glyph d="M70 710H260V423H312L501 710H715L485 377L629 164H775V-184H623V0H513L326 285H260V0H70Z" horiz-adv-x="799" unicode="Қ"/>
			<glyph d="M55 510H220V330H260L384 510H571L396 269L482 143H594V-154H442V0H384L254 207H220V0H55Z" horiz-adv-x="614" unicode="қ"/>
			<glyph d="M70 710H260V423H298V581H414V439L561 710H765L575 377L790 0H573L418 285H414V114H298V285H260V0H70Z" horiz-adv-x="790" unicode="Ҝ"/>
			<glyph d="M55 510H220V330H256V419H343V330H352L438 510H613L488 269L621 0H438L348 207H343V104H256V207H220V0H55Z" horiz-adv-x="621" unicode="ҝ"/>
			<glyph d="M70 710H260V437H507V710H697V164H815V-184H663V0H507V273H260V0H70Z" horiz-adv-x="835" unicode="Ң"/>
			<glyph d="M55 510H230V333H401V510H576V143H687V-154H535V0H401V188H230V0H55Z" horiz-adv-x="707" unicode="ң"/>
			<glyph d="M-12 710H196L323 447L450 710H634L404 269V0H218V269Z" horiz-adv-x="622" unicode="Ү"/>
			<glyph d="M0 510H192L285 223L378 510H556L367 11V-210H192V10Z" horiz-adv-x="556" unicode="ү"/>
			<glyph d="M6 710H228L327 506L440 710H638L427 365L549 164H695V-184H543V0H427L316 214L207 0H-2L213 360Z" horiz-adv-x="719" unicode="Ҳ"/>
			<glyph d="M12 510H228L306 390L388 510H589L407 264L492 143H607V-154H455V0H382L304 129L223 0H7L196 259Z" horiz-adv-x="627" unicode="ҳ"/>
			<glyph d="M50 710H240V507Q240 416 302 393V551H418V394Q440 400 474 417V710H664V0H474V274Q448 260 418 250V84H302V231H295Q175 231 112 295T50 480ZZ" horiz-adv-x="734" unicode="Ҹ"/>
			<glyph d="M50 510H225V360Q225 336 234 318T259 290V373H346V286Q368 292 386 307V510H561V0H386V168Q364 156 346 150V58H259V135H250Q154 135 102 185T50 328ZZ" horiz-adv-x="611" unicode="ҹ"/>
			<glyph d="M70 710H260V436Q290 453 336 466T439 479Q559 479 621 414T684 230V0H494V203Q494 325 384 325Q320 325 260 293V0H70Z" horiz-adv-x="734" unicode="Һ"/>
			<glyph d="M55 752H230V440Q256 481 300 501T400 521Q489 521 532 473T575 334V0H400V259Q400 316 382 340T325 365Q278 365 254 337T230 255V0H55Z" horiz-adv-x="628" unicode="һ"/>
			<glyph d="M70 710H260V0H70Z" horiz-adv-x="330" unicode="Ӏ"/>
			<glyph d="M55 752H230V0H55Z" horiz-adv-x="285" unicode="ӏ"/>
			<glyph d="M321 720Q430 720 514 675T645 547T692 358Q692 245 647 162T524 34T350 -10Q25 -10 25 369V412H484Q468 473 421 508T305 543Q217 543 124 486L72 650Q123 684 183 702T321 720ZM233 266Q238 218 269 188T350 159Q398 159 433 186T483 266Z" horiz-adv-x="720" unicode="Ә"/>
			<glyph d="M263 520Q342 520 404 487T502 394T537 256Q537 177 503 116T409 23T276 -10Q200 -10 143 24T56 123T25 275V302H358Q341 377 240 377Q159 377 95 340L54 471Q138 520 263 520ZM201 190Q205 158 226 139T276 120Q307 120 327 138T356 190Z" horiz-adv-x="569" unicode="ә"/>
			<glyph d="M402 720Q511 720 596 676T729 551T778 358Q778 247 729 163T595 35T401 -10Q294 -10 209 34T76 160T28 356Q28 468 76 550T209 676T402 720ZM403 546Q343 546 300 516T240 430H566Q549 486 506 516T403 546ZM240 280Q258 224 300 194T403 164Q463 164 505 194T566 280Z" horiz-adv-x="806" unicode="Ө"/>
			<glyph d="M317 520Q401 520 465 485T566 391T602 255Q602 179 566 119T465 24T317 -10Q234 -10 169 24T68 119T32 255Q32 330 68 390T169 485T317 520ZM317 382Q279 382 252 363T214 310H419Q408 346 381 364T317 382ZM214 199Q226 164 252 146T316 128Q354 128 380 146T419 199Z" horiz-adv-x="634" unicode="ө"/>
			<glyph d="M-2 710H206L327 247L453 710H642L770 252L889 710H1076L864 0H663L537 444L408 0H210ZM344 924H513L640 764H499Z" horiz-adv-x="1074" unicode="Ẁ"/>
			<glyph d="M10 510H202L284 216L366 510H507L595 217L671 510H850L693 0H516L432 260L358 0H180ZM260 752H419L544 579H403Z" horiz-adv-x="860" unicode="ẁ"/>
			<glyph d="M-2 710H206L327 247L453 710H642L770 252L889 710H1076L864 0H663L537 444L408 0H210ZM581 924H750L595 764H454Z" horiz-adv-x="1074" unicode="Ẃ"/>
			<glyph d="M10 510H202L284 216L366 510H507L595 217L671 510H850L693 0H516L432 260L358 0H180ZM461 752H620L479 579H338Z" horiz-adv-x="860" unicode="ẃ"/>
			<glyph d="M-2 710H206L327 247L453 710H642L770 252L889 710H1076L864 0H663L537 444L408 0H210ZM434 937Q469 937 493 913T517 855Q517 820 493 796T434 772Q400 772 376 796T352 855Q352 890 375 913T434 937ZM660 937Q694 937 718 913T742 855Q742 820 718 796T660 772Q625 772 601 796T577 855Q577 890 601 913T660 937Z" horiz-adv-x="1074" unicode="Ẅ"/>
			<glyph d="M10 510H202L284 216L366 510H507L595 217L671 510H850L693 0H516L432 260L358 0H180ZM323 755Q358 755 382 731T406 673Q406 638 382 614T323 590Q289 590 265 614T241 673Q241 708 264 731T323 755ZM549 755Q583 755 607 731T631 673Q631 638 607 614T549 590Q514 590 490 614T466 673Q466 708 490 731T549 755Z" horiz-adv-x="860" unicode="ẅ"/>
			<glyph d="M406 720Q510 720 578 694T700 624V491L564 425Q664 421 720 369T776 228Q776 162 745 108T653 22T505 -10Q438 -10 386 1T288 34L339 185Q378 164 412 153T486 143Q533 143 557 166T582 224Q582 260 560 280T491 308T364 316V451L523 544Q475 573 410 573Q322 573 287 523T253 380V0H65V394Q65 549 155 634T406 720Z" horiz-adv-x="811" unicode="ẞ"/>
			<glyph d="M263 710H472L727 0H526L470 172H255L199 0H8ZM362 505L302 320H422ZM368 -63Q409 -63 437 -91T466 -161Q466 -202 437 -230T368 -259Q327 -259 298 -230T270 -161Q270 -120 298 -91T368 -63Z" horiz-adv-x="735" unicode="Ạ"/>
			<glyph d="M345 210Q274 208 244 194T214 153Q214 134 227 123T264 113Q299 113 322 133T345 190ZM293 520Q398 520 459 473T520 325V0H345V56Q320 26 279 7T191 -11Q120 -11 76 30T32 142Q32 230 110 269T345 311V317Q345 379 259 379Q185 379 109 333L71 466Q114 490 172 505T293 520ZM287 -63Q328 -63 356 -91T385 -161Q385 -202 356 -230T287 -259Q246 -259 217 -230T189 -161Q189 -120 217 -91T287 -63Z" horiz-adv-x="573" unicode="ạ"/>
			<glyph d="M263 710H472L727 0H526L470 172H255L199 0H8ZM362 505L302 320H422ZM375 980Q427 980 464 956T501 884Q501 856 488 839T451 804Q437 794 431 788T421 772H307Q307 797 317 809T347 832Q365 841 376 850T388 872Q388 894 351 894Q326 894 297 884L280 964Q300 971 326 975T375 980Z" horiz-adv-x="735" unicode="Ả"/>
			<glyph d="M345 210Q274 208 244 194T214 153Q214 134 227 123T264 113Q299 113 322 133T345 190ZM293 520Q398 520 459 473T520 325V0H345V56Q320 26 279 7T191 -11Q120 -11 76 30T32 142Q32 230 110 269T345 311V317Q345 379 259 379Q185 379 109 333L71 466Q114 490 172 505T293 520ZM301 780Q353 780 390 756T427 684Q427 656 414 639T377 604Q363 594 357 588T347 572H233Q233 597 243 609T273 632Q291 641 302 650T314 672Q314 694 277 694Q252 694 223 684L206 764Q226 771 252 775T301 780Z" horiz-adv-x="573" unicode="ả"/>
			<glyph d="M263 710H472L727 0H526L470 172H255L199 0H8ZM362 505L302 320H422ZM588 974H718L631 868H523ZM295 924H441L564 764H437L368 828L299 764H172Z" horiz-adv-x="735" unicode="Ấ"/>
			<glyph d="M345 210Q274 208 244 194T214 153Q214 134 227 123T264 113Q299 113 322 133T345 190ZM293 520Q398 520 459 473T520 325V0H345V56Q320 26 279 7T191 -11Q120 -11 76 30T32 142Q32 230 110 269T345 311V317Q345 379 259 379Q185 379 109 333L71 466Q114 490 172 505T293 520ZM515 803H645L558 697H450ZM221 752H367L490 579H363L294 661L225 579H98Z" horiz-adv-x="573" unicode="ấ"/>
			<glyph d="M263 710H472L727 0H526L470 172H255L199 0H8ZM362 505L302 320H422ZM19 973H149L214 867H106ZM296 924H442L565 764H438L369 828L300 764H173Z" horiz-adv-x="735" unicode="Ầ"/>
			<glyph d="M345 210Q274 208 244 194T214 153Q214 134 227 123T264 113Q299 113 322 133T345 190ZM293 520Q398 520 459 473T520 325V0H345V56Q320 26 279 7T191 -11Q120 -11 76 30T32 142Q32 230 110 269T345 311V317Q345 379 259 379Q185 379 109 333L71 466Q114 490 172 505T293 520ZM-56 803H74L139 697H31ZM220 752H366L489 579H362L293 661L224 579H97Z" horiz-adv-x="573" unicode="ầ"/>
			<glyph d="M263 710H472L727 0H526L470 172H255L199 0H8ZM362 505L302 320H422ZM590 1033Q637 1033 670 1012T704 947Q704 921 692 906T659 875Q646 865 641 859T632 846H529Q529 868 538 879T565 900Q602 917 602 936Q602 945 593 950T569 956Q547 956 520 947L505 1019Q522 1026 546 1029T590 1033ZM295 924H441L564 764H437L368 828L299 764H172Z" horiz-adv-x="735" unicode="Ẩ"/>
			<glyph d="M345 210Q274 208 244 194T214 153Q214 134 227 123T264 113Q299 113 322 133T345 190ZM293 520Q398 520 459 473T520 325V0H345V56Q320 26 279 7T191 -11Q120 -11 76 30T32 142Q32 230 110 269T345 311V317Q345 379 259 379Q185 379 109 333L71 466Q114 490 172 505T293 520ZM519 867Q566 867 599 846T633 781Q633 755 621 740T588 709Q575 699 570 693T561 680H458Q458 702 467 713T494 734Q531 751 531 770Q531 779 522 784T498 790Q476 790 449 781L434 853Q451 860 475 863T519 867ZM220 752H366L489 579H362L293 661L224 579H97Z" horiz-adv-x="573" unicode="ẩ"/>
			<glyph d="M263 710H472L727 0H526L470 172H255L199 0H8ZM362 505L302 320H422ZM297 1089Q329 1089 376 1067Q408 1051 423 1051Q437 1051 444 1060T455 1089H539Q533 1024 504 990T435 956Q419 956 402 961T361 978Q345 986 332 990T311 995Q286 995 279 956H195Q201 1024 229 1056T297 1089ZM287 924H449L586 764H445L368 828L291 764H150Z" horiz-adv-x="735" unicode="Ẫ"/>
			<glyph d="M345 210Q274 208 244 194T214 153Q214 134 227 123T264 113Q299 113 322 133T345 190ZM293 520Q398 520 459 473T520 325V0H345V56Q320 26 279 7T191 -11Q120 -11 76 30T32 142Q32 230 110 269T345 311V317Q345 379 259 379Q185 379 109 333L71 466Q114 490 172 505T293 520ZM223 928Q255 928 302 906Q334 890 349 890Q363 890 370 899T381 928H465Q459 863 430 829T361 795Q345 795 328 800T287 817Q271 825 258 829T237 834Q212 834 205 795H121Q127 863 155 895T223 928ZM213 752H375L512 579H371L294 661L217 579H76Z" horiz-adv-x="573" unicode="ẫ"/>
			<glyph d="M263 710H472L727 0H526L470 172H255L199 0H8ZM362 505L302 320H422ZM287 924H449L586 764H445L368 828L291 764H150ZM368 -63Q409 -63 437 -91T466 -161Q466 -202 437 -230T368 -259Q327 -259 298 -230T270 -161Q270 -120 298 -91T368 -63Z" horiz-adv-x="735" unicode="Ậ"/>
			<glyph d="M345 210Q274 208 244 194T214 153Q214 134 227 123T264 113Q299 113 322 133T345 190ZM293 520Q398 520 459 473T520 325V0H345V56Q320 26 279 7T191 -11Q120 -11 76 30T32 142Q32 230 110 269T345 311V317Q345 379 259 379Q185 379 109 333L71 466Q114 490 172 505T293 520ZM213 752H375L512 579H371L294 661L217 579H76ZM287 -63Q328 -63 356 -91T385 -161Q385 -202 356 -230T287 -259Q246 -259 217 -230T189 -161Q189 -120 217 -91T287 -63Z" horiz-adv-x="573" unicode="ậ"/>
			<glyph d="M263 710H472L727 0H526L470 172H255L199 0H8ZM362 505L302 320H422ZM377 1073H507L420 967H312ZM190 924H307Q308 899 323 883T368 868Q396 868 411 883T429 924H546Q546 856 498 812T365 768Q279 768 234 811T190 924Z" horiz-adv-x="735" unicode="Ắ"/>
			<glyph d="M345 210Q274 208 244 194T214 153Q214 134 227 123T264 113Q299 113 322 133T345 190ZM293 520Q398 520 459 473T520 325V0H345V56Q320 26 279 7T191 -11Q120 -11 76 30T32 142Q32 230 110 269T345 311V317Q345 379 259 379Q185 379 109 333L71 466Q114 490 172 505T293 520ZM303 905H433L346 799H238ZM115 752H232Q233 672 294 672Q353 672 356 752H473Q473 670 429 621T294 572Q203 572 159 621T115 752Z" horiz-adv-x="573" unicode="ắ"/>
			<glyph d="M263 710H472L727 0H526L470 172H255L199 0H8ZM362 505L302 320H422ZM229 1073H359L424 967H316ZM190 924H307Q308 899 323 883T368 868Q396 868 411 883T429 924H546Q546 856 498 812T365 768Q279 768 234 811T190 924Z" horiz-adv-x="735" unicode="Ằ"/>
			<glyph d="M345 210Q274 208 244 194T214 153Q214 134 227 123T264 113Q299 113 322 133T345 190ZM293 520Q398 520 459 473T520 325V0H345V56Q320 26 279 7T191 -11Q120 -11 76 30T32 142Q32 230 110 269T345 311V317Q345 379 259 379Q185 379 109 333L71 466Q114 490 172 505T293 520ZM155 905H285L350 799H242ZM115 752H232Q233 672 294 672Q353 672 356 752H473Q473 670 429 621T294 572Q203 572 159 621T115 752Z" horiz-adv-x="573" unicode="ằ"/>
			<glyph d="M263 710H472L727 0H526L470 172H255L199 0H8ZM362 505L302 320H422ZM374 1150Q421 1150 454 1129T488 1064Q488 1038 476 1023T443 992Q430 982 425 976T416 963H313Q313 985 322 996T349 1017Q386 1034 386 1053Q386 1062 377 1067T353 1073Q331 1073 304 1064L289 1136Q306 1143 330 1146T374 1150ZM190 924H307Q308 899 323 883T368 868Q396 868 411 883T429 924H546Q546 856 498 812T365 768Q279 768 234 811T190 924Z" horiz-adv-x="735" unicode="Ẳ"/>
			<glyph d="M345 210Q274 208 244 194T214 153Q214 134 227 123T264 113Q299 113 322 133T345 190ZM293 520Q398 520 459 473T520 325V0H345V56Q320 26 279 7T191 -11Q120 -11 76 30T32 142Q32 230 110 269T345 311V317Q345 379 259 379Q185 379 109 333L71 466Q114 490 172 505T293 520ZM300 982Q347 982 380 961T414 896Q414 870 402 855T369 824Q356 814 351 808T342 795H239Q239 817 248 828T275 849Q312 866 312 885Q312 894 303 899T279 905Q257 905 230 896L215 968Q232 975 256 978T300 982ZM115 752H232Q233 672 294 672Q353 672 356 752H473Q473 670 429 621T294 572Q203 572 159 621T115 752Z" horiz-adv-x="573" unicode="ẳ"/>
			<glyph d="M263 710H472L727 0H526L470 172H255L199 0H8ZM362 505L302 320H422ZM297 1118Q329 1118 376 1096Q408 1080 423 1080Q437 1080 444 1089T455 1118H539Q533 1053 504 1019T435 985Q419 985 402 990T361 1007Q345 1015 332 1019T311 1024Q286 1024 279 985H195Q201 1053 229 1085T297 1118ZM190 924H307Q308 899 323 883T368 868Q396 868 411 883T429 924H546Q546 856 498 812T365 768Q279 768 234 811T190 924Z" horiz-adv-x="735" unicode="Ẵ"/>
			<glyph d="M345 210Q274 208 244 194T214 153Q214 134 227 123T264 113Q299 113 322 133T345 190ZM293 520Q398 520 459 473T520 325V0H345V56Q320 26 279 7T191 -11Q120 -11 76 30T32 142Q32 230 110 269T345 311V317Q345 379 259 379Q185 379 109 333L71 466Q114 490 172 505T293 520ZM223 950Q255 950 302 928Q334 912 349 912Q363 912 370 921T381 950H465Q459 885 430 851T361 817Q345 817 328 822T287 839Q271 847 258 851T237 856Q212 856 205 817H121Q127 885 155 917T223 950ZM115 752H232Q233 672 294 672Q353 672 356 752H473Q473 670 429 621T294 572Q203 572 159 621T115 752Z" horiz-adv-x="573" unicode="ẵ"/>
			<glyph d="M263 710H472L727 0H526L470 172H255L199 0H8ZM362 505L302 320H422ZM190 924H307Q308 899 323 883T368 868Q396 868 411 883T429 924H546Q546 856 498 812T365 768Q279 768 234 811T190 924ZM368 -63Q409 -63 437 -91T466 -161Q466 -202 437 -230T368 -259Q327 -259 298 -230T270 -161Q270 -120 298 -91T368 -63Z" horiz-adv-x="735" unicode="Ặ"/>
			<glyph d="M345 210Q274 208 244 194T214 153Q214 134 227 123T264 113Q299 113 322 133T345 190ZM293 520Q398 520 459 473T520 325V0H345V56Q320 26 279 7T191 -11Q120 -11 76 30T32 142Q32 230 110 269T345 311V317Q345 379 259 379Q185 379 109 333L71 466Q114 490 172 505T293 520ZM115 752H232Q233 672 294 672Q353 672 356 752H473Q473 670 429 621T294 572Q203 572 159 621T115 752ZM287 -63Q328 -63 356 -91T385 -161Q385 -202 356 -230T287 -259Q246 -259 217 -230T189 -161Q189 -120 217 -91T287 -63Z" horiz-adv-x="573" unicode="ặ"/>
			<glyph d="M70 710H528V545H260V434H520V275H260V165H537V0H70ZM306 -63Q347 -63 375 -91T404 -161Q404 -202 375 -230T306 -259Q265 -259 236 -230T208 -161Q208 -120 236 -91T306 -63Z" horiz-adv-x="590" unicode="Ẹ"/>
			<glyph d="M293 390Q262 390 242 371T213 320H368Q364 352 342 371T293 390ZM293 520Q369 520 425 485T513 387T544 235V208H211Q228 133 329 133Q410 133 474 170L515 39Q431 -10 306 -10Q227 -10 164 23T67 116T32 254Q32 333 66 393T159 487T293 520ZM298 -63Q339 -63 367 -91T396 -161Q396 -202 367 -230T298 -259Q257 -259 228 -230T200 -161Q200 -120 228 -91T298 -63Z" horiz-adv-x="569" unicode="ẹ"/>
			<glyph d="M70 710H528V545H260V434H520V275H260V165H537V0H70ZM307 980Q359 980 396 956T433 884Q433 856 420 839T383 804Q369 794 363 788T353 772H239Q239 797 249 809T279 832Q297 841 308 850T320 872Q320 894 283 894Q258 894 229 884L212 964Q232 971 258 975T307 980Z" horiz-adv-x="590" unicode="Ẻ"/>
			<glyph d="M293 390Q262 390 242 371T213 320H368Q364 352 342 371T293 390ZM293 520Q369 520 425 485T513 387T544 235V208H211Q228 133 329 133Q410 133 474 170L515 39Q431 -10 306 -10Q227 -10 164 23T67 116T32 254Q32 333 66 393T159 487T293 520ZM303 780Q355 780 392 756T429 684Q429 656 416 639T379 604Q365 594 359 588T349 572H235Q235 597 245 609T275 632Q293 641 304 650T316 672Q316 694 279 694Q254 694 225 684L208 764Q228 771 254 775T303 780Z" horiz-adv-x="569" unicode="ẻ"/>
			<glyph d="M70 710H528V545H260V434H520V275H260V165H537V0H70ZM222 912Q249 912 309 887Q315 885 333 877T364 869Q390 869 397 912H490Q484 843 453 803T377 764Q346 764 292 788Q273 797 259 802T236 807Q223 807 214 797T201 764H108Q114 838 145 875T222 912Z" horiz-adv-x="590" unicode="Ẽ"/>
			<glyph d="M293 390Q262 390 242 371T213 320H368Q364 352 342 371T293 390ZM293 520Q369 520 425 485T513 387T544 235V208H211Q228 133 329 133Q410 133 474 170L515 39Q431 -10 306 -10Q227 -10 164 23T67 116T32 254Q32 333 66 393T159 487T293 520ZM217 745Q253 745 305 720Q322 712 335 707T357 702Q387 702 393 745H486Q480 673 448 635T371 597Q353 597 333 603T288 621Q270 629 256 634T233 640Q206 640 197 597H104Q110 673 142 709T217 745Z" horiz-adv-x="569" unicode="ẽ"/>
			<glyph d="M70 710H528V545H260V434H520V275H260V165H537V0H70ZM520 974H650L563 868H455ZM227 924H373L496 764H369L300 828L231 764H104Z" horiz-adv-x="590" unicode="Ế"/>
			<glyph d="M293 390Q262 390 242 371T213 320H368Q364 352 342 371T293 390ZM293 520Q369 520 425 485T513 387T544 235V208H211Q228 133 329 133Q410 133 474 170L515 39Q431 -10 306 -10Q227 -10 164 23T67 116T32 254Q32 333 66 393T159 487T293 520ZM517 803H647L560 697H452ZM223 752H369L492 579H365L296 661L227 579H100Z" horiz-adv-x="569" unicode="ế"/>
			<glyph d="M70 710H528V545H260V434H520V275H260V165H537V0H70ZM-49 973H81L146 867H38ZM228 924H374L497 764H370L301 828L232 764H105Z" horiz-adv-x="590" unicode="Ề"/>
			<glyph d="M293 390Q262 390 242 371T213 320H368Q364 352 342 371T293 390ZM293 520Q369 520 425 485T513 387T544 235V208H211Q228 133 329 133Q410 133 474 170L515 39Q431 -10 306 -10Q227 -10 164 23T67 116T32 254Q32 333 66 393T159 487T293 520ZM-54 803H76L141 697H33ZM222 752H368L491 579H364L295 661L226 579H99Z" horiz-adv-x="569" unicode="ề"/>
			<glyph d="M70 710H528V545H260V434H520V275H260V165H537V0H70ZM522 1033Q569 1033 602 1012T636 947Q636 921 624 906T591 875Q578 865 573 859T564 846H461Q461 868 470 879T497 900Q534 917 534 936Q534 945 525 950T501 956Q479 956 452 947L437 1019Q454 1026 478 1029T522 1033ZM227 924H373L496 764H369L300 828L231 764H104Z" horiz-adv-x="590" unicode="Ể"/>
			<glyph d="M293 390Q262 390 242 371T213 320H368Q364 352 342 371T293 390ZM293 520Q369 520 425 485T513 387T544 235V208H211Q228 133 329 133Q410 133 474 170L515 39Q431 -10 306 -10Q227 -10 164 23T67 116T32 254Q32 333 66 393T159 487T293 520ZM521 867Q568 867 601 846T635 781Q635 755 623 740T590 709Q577 699 572 693T563 680H460Q460 702 469 713T496 734Q533 751 533 770Q533 779 524 784T500 790Q478 790 451 781L436 853Q453 860 477 863T521 867ZM222 752H368L491 579H364L295 661L226 579H99Z" horiz-adv-x="569" unicode="ể"/>
			<glyph d="M70 710H528V545H260V434H520V275H260V165H537V0H70ZM229 1089Q261 1089 308 1067Q340 1051 355 1051Q369 1051 376 1060T387 1089H471Q465 1024 436 990T367 956Q351 956 334 961T293 978Q277 986 264 990T243 995Q218 995 211 956H127Q133 1024 161 1056T229 1089ZM219 924H381L518 764H377L300 828L223 764H82Z" horiz-adv-x="590" unicode="Ễ"/>
			<glyph d="M293 390Q262 390 242 371T213 320H368Q364 352 342 371T293 390ZM293 520Q369 520 425 485T513 387T544 235V208H211Q228 133 329 133Q410 133 474 170L515 39Q431 -10 306 -10Q227 -10 164 23T67 116T32 254Q32 333 66 393T159 487T293 520ZM225 928Q257 928 304 906Q336 890 351 890Q365 890 372 899T383 928H467Q461 863 432 829T363 795Q347 795 330 800T289 817Q273 825 260 829T239 834Q214 834 207 795H123Q129 863 157 895T225 928ZM215 752H377L514 579H373L296 661L219 579H78Z" horiz-adv-x="569" unicode="ễ"/>
			<glyph d="M70 710H528V545H260V434H520V275H260V165H537V0H70ZM219 924H381L518 764H377L300 828L223 764H82ZM306 -63Q347 -63 375 -91T404 -161Q404 -202 375 -230T306 -259Q265 -259 236 -230T208 -161Q208 -120 236 -91T306 -63Z" horiz-adv-x="590" unicode="Ệ"/>
			<glyph d="M293 390Q262 390 242 371T213 320H368Q364 352 342 371T293 390ZM293 520Q369 520 425 485T513 387T544 235V208H211Q228 133 329 133Q410 133 474 170L515 39Q431 -10 306 -10Q227 -10 164 23T67 116T32 254Q32 333 66 393T159 487T293 520ZM215 752H377L514 579H373L296 661L219 579H78ZM298 -63Q339 -63 367 -91T396 -161Q396 -202 367 -230T298 -259Q257 -259 228 -230T200 -161Q200 -120 228 -91T298 -63Z" horiz-adv-x="569" unicode="ệ"/>
			<glyph d="M70 710H260V0H70ZM172 980Q224 980 261 956T298 884Q298 856 285 839T248 804Q234 794 228 788T218 772H104Q104 797 114 809T144 832Q162 841 173 850T185 872Q185 894 148 894Q123 894 94 884L77 964Q97 971 123 975T172 980Z" horiz-adv-x="330" unicode="Ỉ"/>
			<glyph d="M55 510H230V0H55ZM152 780Q204 780 241 756T278 684Q278 656 265 639T228 604Q214 594 208 588T198 572H84Q84 597 94 609T124 632Q142 641 153 650T165 672Q165 694 128 694Q103 694 74 684L57 764Q77 771 103 775T152 780Z" horiz-adv-x="285" unicode="ỉ"/>
			<glyph d="M70 710H260V0H70ZM165 -63Q206 -63 234 -91T263 -161Q263 -202 234 -230T165 -259Q124 -259 95 -230T67 -161Q67 -120 95 -91T165 -63Z" horiz-adv-x="330" unicode="Ị"/>
			<glyph d="M55 510H230V0H55ZM145 768Q186 768 214 739T243 670Q243 629 214 600T145 572Q104 572 75 600T47 670Q47 711 75 739T145 768ZM143 -63Q184 -63 212 -91T241 -161Q241 -202 212 -230T143 -259Q102 -259 73 -230T45 -161Q45 -120 73 -91T143 -63Z" horiz-adv-x="285" unicode="ị"/>
			<glyph d="M403 720Q510 720 595 675T729 548T778 358Q778 250 729 166T595 36T401 -10Q295 -10 210 35T76 162T28 355Q28 465 76 547T210 675T403 720ZM403 541Q324 541 275 489T227 355Q227 272 275 220T403 169Q482 169 530 220T579 355Q579 438 530 489T403 541ZM403 -63Q444 -63 472 -91T501 -161Q501 -202 472 -230T403 -259Q362 -259 333 -230T305 -161Q305 -120 333 -91T403 -63Z" horiz-adv-x="806" unicode="Ọ"/>
			<glyph d="M317 520Q401 520 465 485T566 391T602 255Q602 179 566 119T465 24T317 -10Q234 -10 169 24T68 119T32 255Q32 330 68 390T169 485T317 520ZM318 361Q271 361 242 331T213 255Q213 207 241 178T317 149Q364 149 392 178T421 256Q421 303 392 332T318 361ZM322 -63Q363 -63 391 -91T420 -161Q420 -202 391 -230T322 -259Q281 -259 252 -230T224 -161Q224 -120 252 -91T322 -63Z" horiz-adv-x="634" unicode="ọ"/>
			<glyph d="M403 720Q510 720 595 675T729 548T778 358Q778 250 729 166T595 36T401 -10Q295 -10 210 35T76 162T28 355Q28 465 76 547T210 675T403 720ZM403 541Q324 541 275 489T227 355Q227 272 275 220T403 169Q482 169 530 220T579 355Q579 438 530 489T403 541ZM408 980Q460 980 497 956T534 884Q534 856 521 839T484 804Q470 794 464 788T454 772H340Q340 797 350 809T380 832Q398 841 409 850T421 872Q421 894 384 894Q359 894 330 884L313 964Q333 971 359 975T408 980Z" horiz-adv-x="806" unicode="Ỏ"/>
			<glyph d="M317 520Q401 520 465 485T566 391T602 255Q602 179 566 119T465 24T317 -10Q234 -10 169 24T68 119T32 255Q32 330 68 390T169 485T317 520ZM318 361Q271 361 242 331T213 255Q213 207 241 178T317 149Q364 149 392 178T421 256Q421 303 392 332T318 361ZM324 780Q376 780 413 756T450 684Q450 656 437 639T400 604Q386 594 380 588T370 572H256Q256 597 266 609T296 632Q314 641 325 650T337 672Q337 694 300 694Q275 694 246 684L229 764Q249 771 275 775T324 780Z" horiz-adv-x="634" unicode="ỏ"/>
			<glyph d="M403 720Q510 720 595 675T729 548T778 358Q778 250 729 166T595 36T401 -10Q295 -10 210 35T76 162T28 355Q28 465 76 547T210 675T403 720ZM403 541Q324 541 275 489T227 355Q227 272 275 220T403 169Q482 169 530 220T579 355Q579 438 530 489T403 541ZM621 974H751L664 868H556ZM328 924H474L597 764H470L401 828L332 764H205Z" horiz-adv-x="806" unicode="Ố"/>
			<glyph d="M317 520Q401 520 465 485T566 391T602 255Q602 179 566 119T465 24T317 -10Q234 -10 169 24T68 119T32 255Q32 330 68 390T169 485T317 520ZM318 361Q271 361 242 331T213 255Q213 207 241 178T317 149Q364 149 392 178T421 256Q421 303 392 332T318 361ZM538 803H668L581 697H473ZM244 752H390L513 579H386L317 661L248 579H121Z" horiz-adv-x="634" unicode="ố"/>
			<glyph d="M403 720Q510 720 595 675T729 548T778 358Q778 250 729 166T595 36T401 -10Q295 -10 210 35T76 162T28 355Q28 465 76 547T210 675T403 720ZM403 541Q324 541 275 489T227 355Q227 272 275 220T403 169Q482 169 530 220T579 355Q579 438 530 489T403 541ZM52 973H182L247 867H139ZM329 924H475L598 764H471L402 828L333 764H206Z" horiz-adv-x="806" unicode="Ồ"/>
			<glyph d="M317 520Q401 520 465 485T566 391T602 255Q602 179 566 119T465 24T317 -10Q234 -10 169 24T68 119T32 255Q32 330 68 390T169 485T317 520ZM318 361Q271 361 242 331T213 255Q213 207 241 178T317 149Q364 149 392 178T421 256Q421 303 392 332T318 361ZM-33 803H97L162 697H54ZM243 752H389L512 579H385L316 661L247 579H120Z" horiz-adv-x="634" unicode="ồ"/>
			<glyph d="M403 720Q510 720 595 675T729 548T778 358Q778 250 729 166T595 36T401 -10Q295 -10 210 35T76 162T28 355Q28 465 76 547T210 675T403 720ZM403 541Q324 541 275 489T227 355Q227 272 275 220T403 169Q482 169 530 220T579 355Q579 438 530 489T403 541ZM623 1033Q670 1033 703 1012T737 947Q737 921 725 906T692 875Q679 865 674 859T665 846H562Q562 868 571 879T598 900Q635 917 635 936Q635 945 626 950T602 956Q580 956 553 947L538 1019Q555 1026 579 1029T623 1033ZM328 924H474L597 764H470L401 828L332 764H205Z" horiz-adv-x="806" unicode="Ổ"/>
			<glyph d="M317 520Q401 520 465 485T566 391T602 255Q602 179 566 119T465 24T317 -10Q234 -10 169 24T68 119T32 255Q32 330 68 390T169 485T317 520ZM318 361Q271 361 242 331T213 255Q213 207 241 178T317 149Q364 149 392 178T421 256Q421 303 392 332T318 361ZM542 867Q589 867 622 846T656 781Q656 755 644 740T611 709Q598 699 593 693T584 680H481Q481 702 490 713T517 734Q554 751 554 770Q554 779 545 784T521 790Q499 790 472 781L457 853Q474 860 498 863T542 867ZM243 752H389L512 579H385L316 661L247 579H120Z" horiz-adv-x="634" unicode="ổ"/>
			<glyph d="M403 720Q510 720 595 675T729 548T778 358Q778 250 729 166T595 36T401 -10Q295 -10 210 35T76 162T28 355Q28 465 76 547T210 675T403 720ZM403 541Q324 541 275 489T227 355Q227 272 275 220T403 169Q482 169 530 220T579 355Q579 438 530 489T403 541ZM330 1089Q362 1089 409 1067Q441 1051 456 1051Q470 1051 477 1060T488 1089H572Q566 1024 537 990T468 956Q452 956 435 961T394 978Q378 986 365 990T344 995Q319 995 312 956H228Q234 1024 262 1056T330 1089ZM320 924H482L619 764H478L401 828L324 764H183Z" horiz-adv-x="806" unicode="Ỗ"/>
			<glyph d="M317 520Q401 520 465 485T566 391T602 255Q602 179 566 119T465 24T317 -10Q234 -10 169 24T68 119T32 255Q32 330 68 390T169 485T317 520ZM318 361Q271 361 242 331T213 255Q213 207 241 178T317 149Q364 149 392 178T421 256Q421 303 392 332T318 361ZM246 928Q278 928 325 906Q357 890 372 890Q386 890 393 899T404 928H488Q482 863 453 829T384 795Q368 795 351 800T310 817Q294 825 281 829T260 834Q235 834 228 795H144Q150 863 178 895T246 928ZM236 752H398L535 579H394L317 661L240 579H99Z" horiz-adv-x="634" unicode="ỗ"/>
			<glyph d="M403 720Q510 720 595 675T729 548T778 358Q778 250 729 166T595 36T401 -10Q295 -10 210 35T76 162T28 355Q28 465 76 547T210 675T403 720ZM403 541Q324 541 275 489T227 355Q227 272 275 220T403 169Q482 169 530 220T579 355Q579 438 530 489T403 541ZM320 924H482L619 764H478L401 828L324 764H183ZM403 -63Q444 -63 472 -91T501 -161Q501 -202 472 -230T403 -259Q362 -259 333 -230T305 -161Q305 -120 333 -91T403 -63Z" horiz-adv-x="806" unicode="Ộ"/>
			<glyph d="M317 520Q401 520 465 485T566 391T602 255Q602 179 566 119T465 24T317 -10Q234 -10 169 24T68 119T32 255Q32 330 68 390T169 485T317 520ZM318 361Q271 361 242 331T213 255Q213 207 241 178T317 149Q364 149 392 178T421 256Q421 303 392 332T318 361ZM236 752H398L535 579H394L317 661L240 579H99ZM322 -63Q363 -63 391 -91T420 -161Q420 -202 391 -230T322 -259Q281 -259 252 -230T224 -161Q224 -120 252 -91T322 -63Z" horiz-adv-x="634" unicode="ộ"/>
			<glyph d="M755 867Q781 811 781 755Q781 645 679 613Q728 566 753 500T778 359Q778 250 729 166T595 36T401 -10Q295 -10 210 35T76 163T28 356Q28 466 76 548T211 675T408 720Q468 720 540 699Q564 692 584 692Q618 692 635 711T652 762Q652 797 632 834ZM403 541Q324 541 275 489T227 355Q227 272 275 220T403 169Q482 169 530 220T579 355Q579 438 530 489T403 541ZM436 924H605L450 764H309Z" horiz-adv-x="806" unicode="Ớ"/>
			<glyph d="M608 667Q634 611 634 552Q634 495 613 461T553 411Q602 343 602 255Q602 179 566 119T465 24T317 -10Q234 -10 169 24T68 119T32 255Q32 330 68 390T169 485T317 520Q344 520 392 512Q429 505 448 505Q478 505 491 518T505 562Q505 597 485 634ZM318 361Q271 361 242 331T213 255Q213 207 241 178T317 149Q364 149 392 178T421 256Q421 303 392 332T318 361ZM342 752H501L360 579H219Z" horiz-adv-x="634" unicode="ớ"/>
			<glyph d="M755 867Q781 811 781 755Q781 645 679 613Q728 566 753 500T778 359Q778 250 729 166T595 36T401 -10Q295 -10 210 35T76 163T28 356Q28 466 76 548T211 675T408 720Q468 720 540 699Q564 692 584 692Q618 692 635 711T652 762Q652 797 632 834ZM403 541Q324 541 275 489T227 355Q227 272 275 220T403 169Q482 169 530 220T579 355Q579 438 530 489T403 541ZM199 924H368L495 764H354Z" horiz-adv-x="806" unicode="Ờ"/>
			<glyph d="M608 667Q634 611 634 552Q634 495 613 461T553 411Q602 343 602 255Q602 179 566 119T465 24T317 -10Q234 -10 169 24T68 119T32 255Q32 330 68 390T169 485T317 520Q344 520 392 512Q429 505 448 505Q478 505 491 518T505 562Q505 597 485 634ZM318 361Q271 361 242 331T213 255Q213 207 241 178T317 149Q364 149 392 178T421 256Q421 303 392 332T318 361ZM141 752H300L425 579H284Z" horiz-adv-x="634" unicode="ờ"/>
			<glyph d="M755 867Q781 811 781 755Q781 645 679 613Q728 566 753 500T778 359Q778 250 729 166T595 36T401 -10Q295 -10 210 35T76 163T28 356Q28 466 76 548T211 675T408 720Q468 720 540 699Q564 692 584 692Q618 692 635 711T652 762Q652 797 632 834ZM403 541Q324 541 275 489T227 355Q227 272 275 220T403 169Q482 169 530 220T579 355Q579 438 530 489T403 541ZM408 980Q460 980 497 956T534 884Q534 856 521 839T484 804Q470 794 464 788T454 772H340Q340 797 350 809T380 832Q398 841 409 850T421 872Q421 894 384 894Q359 894 330 884L313 964Q333 971 359 975T408 980Z" horiz-adv-x="806" unicode="Ở"/>
			<glyph d="M608 667Q634 611 634 552Q634 495 613 461T553 411Q602 343 602 255Q602 179 566 119T465 24T317 -10Q234 -10 169 24T68 119T32 255Q32 330 68 390T169 485T317 520Q344 520 392 512Q429 505 448 505Q478 505 491 518T505 562Q505 597 485 634ZM318 361Q271 361 242 331T213 255Q213 207 241 178T317 149Q364 149 392 178T421 256Q421 303 392 332T318 361ZM324 780Q376 780 413 756T450 684Q450 656 437 639T400 604Q386 594 380 588T370 572H256Q256 597 266 609T296 632Q314 641 325 650T337 672Q337 694 300 694Q275 694 246 684L229 764Q249 771 275 775T324 780Z" horiz-adv-x="634" unicode="ở"/>
			<glyph d="M755 867Q781 811 781 755Q781 645 679 613Q728 566 753 500T778 359Q778 250 729 166T595 36T401 -10Q295 -10 210 35T76 163T28 356Q28 466 76 548T211 675T408 720Q468 720 540 699Q564 692 584 692Q618 692 635 711T652 762Q652 797 632 834ZM403 541Q324 541 275 489T227 355Q227 272 275 220T403 169Q482 169 530 220T579 355Q579 438 530 489T403 541ZM323 912Q350 912 410 887Q416 885 434 877T465 869Q491 869 498 912H591Q585 843 554 803T478 764Q447 764 393 788Q374 797 360 802T337 807Q324 807 315 797T302 764H209Q215 838 246 875T323 912Z" horiz-adv-x="806" unicode="Ỡ"/>
			<glyph d="M608 667Q634 611 634 552Q634 495 613 461T553 411Q602 343 602 255Q602 179 566 119T465 24T317 -10Q234 -10 169 24T68 119T32 255Q32 330 68 390T169 485T317 520Q344 520 392 512Q429 505 448 505Q478 505 491 518T505 562Q505 597 485 634ZM318 361Q271 361 242 331T213 255Q213 207 241 178T317 149Q364 149 392 178T421 256Q421 303 392 332T318 361ZM238 745Q274 745 326 720Q343 712 356 707T378 702Q408 702 414 745H507Q501 673 469 635T392 597Q374 597 354 603T309 621Q291 629 277 634T254 640Q227 640 218 597H125Q131 673 163 709T238 745Z" horiz-adv-x="634" unicode="ỡ"/>
			<glyph d="M755 867Q781 811 781 755Q781 645 679 613Q728 566 753 500T778 359Q778 250 729 166T595 36T401 -10Q295 -10 210 35T76 163T28 356Q28 466 76 548T211 675T408 720Q468 720 540 699Q564 692 584 692Q618 692 635 711T652 762Q652 797 632 834ZM403 541Q324 541 275 489T227 355Q227 272 275 220T403 169Q482 169 530 220T579 355Q579 438 530 489T403 541ZM403 -63Q444 -63 472 -91T501 -161Q501 -202 472 -230T403 -259Q362 -259 333 -230T305 -161Q305 -120 333 -91T403 -63Z" horiz-adv-x="806" unicode="Ợ"/>
			<glyph d="M608 667Q634 611 634 552Q634 495 613 461T553 411Q602 343 602 255Q602 179 566 119T465 24T317 -10Q234 -10 169 24T68 119T32 255Q32 330 68 390T169 485T317 520Q344 520 392 512Q429 505 448 505Q478 505 491 518T505 562Q505 597 485 634ZM318 361Q271 361 242 331T213 255Q213 207 241 178T317 149Q364 149 392 178T421 256Q421 303 392 332T318 361ZM322 -63Q363 -63 391 -91T420 -161Q420 -202 391 -230T322 -259Q281 -259 252 -230T224 -161Q224 -120 252 -91T322 -63Z" horiz-adv-x="634" unicode="ợ"/>
			<glyph d="M65 710H255V288Q255 229 285 199T369 169Q422 169 452 199T483 288V710H671V268Q671 181 633 118T528 23T368 -10Q276 -10 208 23T102 118T65 268ZM368 -63Q409 -63 437 -91T466 -161Q466 -202 437 -230T368 -259Q327 -259 298 -230T270 -161Q270 -120 298 -91T368 -63Z" horiz-adv-x="736" unicode="Ụ"/>
			<glyph d="M53 510H228V251Q228 193 244 169T302 145Q397 145 397 255V510H572V0H397V72Q369 30 323 9T223 -11Q139 -11 96 37T53 176ZM314 -63Q355 -63 383 -91T412 -161Q412 -202 383 -230T314 -259Q273 -259 244 -230T216 -161Q216 -120 244 -91T314 -63Z" horiz-adv-x="627" unicode="ụ"/>
			<glyph d="M65 710H255V288Q255 229 285 199T369 169Q422 169 452 199T483 288V710H671V268Q671 181 633 118T528 23T368 -10Q276 -10 208 23T102 118T65 268ZM375 980Q427 980 464 956T501 884Q501 856 488 839T451 804Q437 794 431 788T421 772H307Q307 797 317 809T347 832Q365 841 376 850T388 872Q388 894 351 894Q326 894 297 884L280 964Q300 971 326 975T375 980Z" horiz-adv-x="736" unicode="Ủ"/>
			<glyph d="M53 510H228V251Q228 193 244 169T302 145Q397 145 397 255V510H572V0H397V72Q369 30 323 9T223 -11Q139 -11 96 37T53 176ZM321 780Q373 780 410 756T447 684Q447 656 434 639T397 604Q383 594 377 588T367 572H253Q253 597 263 609T293 632Q311 641 322 650T334 672Q334 694 297 694Q272 694 243 684L226 764Q246 771 272 775T321 780Z" horiz-adv-x="627" unicode="ủ"/>
			<glyph d="M746 867Q772 811 772 752Q772 710 747 678T671 629V268Q671 181 633 118T528 23T368 -10Q276 -10 208 23T102 118T65 268V710H255V288Q255 229 285 199T369 169Q422 169 452 199T483 288V710H549Q598 710 620 719T643 762Q643 797 623 834ZM403 924H572L417 764H276Z" horiz-adv-x="736" unicode="Ứ"/>
			<glyph d="M629 667Q655 611 655 552Q655 515 634 484T572 435V0H397V72Q369 30 323 9T223 -11Q139 -11 96 37T53 176V510H228V251Q228 193 244 169T302 145Q397 145 397 255V510H432Q481 510 503 519T526 562Q526 597 506 634ZM339 752H498L357 579H216Z" horiz-adv-x="627" unicode="ứ"/>
			<glyph d="M746 867Q772 811 772 752Q772 710 747 678T671 629V268Q671 181 633 118T528 23T368 -10Q276 -10 208 23T102 118T65 268V710H255V288Q255 229 285 199T369 169Q422 169 452 199T483 288V710H549Q598 710 620 719T643 762Q643 797 623 834ZM166 924H335L462 764H321Z" horiz-adv-x="736" unicode="Ừ"/>
			<glyph d="M629 667Q655 611 655 552Q655 515 634 484T572 435V0H397V72Q369 30 323 9T223 -11Q139 -11 96 37T53 176V510H228V251Q228 193 244 169T302 145Q397 145 397 255V510H432Q481 510 503 519T526 562Q526 597 506 634ZM138 752H297L422 579H281Z" horiz-adv-x="627" unicode="ừ"/>
			<glyph d="M746 867Q772 811 772 752Q772 710 747 678T671 629V268Q671 181 633 118T528 23T368 -10Q276 -10 208 23T102 118T65 268V710H255V288Q255 229 285 199T369 169Q422 169 452 199T483 288V710H549Q598 710 620 719T643 762Q643 797 623 834ZM375 980Q427 980 464 956T501 884Q501 856 488 839T451 804Q437 794 431 788T421 772H307Q307 797 317 809T347 832Q365 841 376 850T388 872Q388 894 351 894Q326 894 297 884L280 964Q300 971 326 975T375 980Z" horiz-adv-x="736" unicode="Ử"/>
			<glyph d="M629 667Q655 611 655 552Q655 515 634 484T572 435V0H397V72Q369 30 323 9T223 -11Q139 -11 96 37T53 176V510H228V251Q228 193 244 169T302 145Q397 145 397 255V510H432Q481 510 503 519T526 562Q526 597 506 634ZM321 780Q373 780 410 756T447 684Q447 656 434 639T397 604Q383 594 377 588T367 572H253Q253 597 263 609T293 632Q311 641 322 650T334 672Q334 694 297 694Q272 694 243 684L226 764Q246 771 272 775T321 780Z" horiz-adv-x="627" unicode="ử"/>
			<glyph d="M746 867Q772 811 772 752Q772 710 747 678T671 629V268Q671 181 633 118T528 23T368 -10Q276 -10 208 23T102 118T65 268V710H255V288Q255 229 285 199T369 169Q422 169 452 199T483 288V710H549Q598 710 620 719T643 762Q643 797 623 834ZM290 912Q317 912 377 887Q383 885 401 877T432 869Q458 869 465 912H558Q552 843 521 803T445 764Q414 764 360 788Q341 797 327 802T304 807Q291 807 282 797T269 764H176Q182 838 213 875T290 912Z" horiz-adv-x="736" unicode="Ữ"/>
			<glyph d="M629 667Q655 611 655 552Q655 515 634 484T572 435V0H397V72Q369 30 323 9T223 -11Q139 -11 96 37T53 176V510H228V251Q228 193 244 169T302 145Q397 145 397 255V510H432Q481 510 503 519T526 562Q526 597 506 634ZM235 745Q271 745 323 720Q340 712 353 707T375 702Q405 702 411 745H504Q498 673 466 635T389 597Q371 597 351 603T306 621Q288 629 274 634T251 640Q224 640 215 597H122Q128 673 160 709T235 745Z" horiz-adv-x="627" unicode="ữ"/>
			<glyph d="M746 867Q772 811 772 752Q772 710 747 678T671 629V268Q671 181 633 118T528 23T368 -10Q276 -10 208 23T102 118T65 268V710H255V288Q255 229 285 199T369 169Q422 169 452 199T483 288V710H549Q598 710 620 719T643 762Q643 797 623 834ZM368 -63Q409 -63 437 -91T466 -161Q466 -202 437 -230T368 -259Q327 -259 298 -230T270 -161Q270 -120 298 -91T368 -63Z" horiz-adv-x="736" unicode="Ự"/>
			<glyph d="M629 667Q655 611 655 552Q655 515 634 484T572 435V0H397V72Q369 30 323 9T223 -11Q139 -11 96 37T53 176V510H228V251Q228 193 244 169T302 145Q397 145 397 255V510H432Q481 510 503 519T526 562Q526 597 506 634ZM314 -63Q355 -63 383 -91T412 -161Q412 -202 383 -230T314 -259Q273 -259 244 -230T216 -161Q216 -120 244 -91T314 -63Z" horiz-adv-x="627" unicode="ự"/>
			<glyph d="M-12 710H196L323 447L450 710H634L404 269V0H218V269ZM109 924H278L405 764H264Z" horiz-adv-x="622" unicode="Ỳ"/>
			<glyph d="M0 510H191L286 212L377 510H557L348 -54Q319 -133 270 -171T139 -210Q80 -210 31 -190L51 -45Q78 -55 104 -55Q168 -55 188 -5L196 15ZM108 752H267L392 579H251Z" horiz-adv-x="557" unicode="ỳ"/>
			<glyph d="M-12 710H196L323 447L450 710H634L404 269V0H218V269ZM311 -63Q352 -63 380 -91T409 -161Q409 -202 380 -230T311 -259Q270 -259 241 -230T213 -161Q213 -120 241 -91T311 -63Z" horiz-adv-x="622" unicode="Ỵ"/>
			<glyph d="M0 510H191L286 212L377 510H557L348 -54Q319 -133 270 -171T139 -210Q80 -210 31 -190L51 -45Q78 -55 104 -55Q168 -55 188 -5L196 15ZM484 -8Q525 -8 553 -36T582 -106Q582 -147 553 -175T484 -204Q443 -204 414 -175T386 -106Q386 -65 414 -36T484 -8Z" horiz-adv-x="557" unicode="ỵ"/>
			<glyph d="M-12 710H196L323 447L450 710H634L404 269V0H218V269ZM318 980Q370 980 407 956T444 884Q444 856 431 839T394 804Q380 794 374 788T364 772H250Q250 797 260 809T290 832Q308 841 319 850T331 872Q331 894 294 894Q269 894 240 884L223 964Q243 971 269 975T318 980Z" horiz-adv-x="622" unicode="Ỷ"/>
			<glyph d="M0 510H191L286 212L377 510H557L348 -54Q319 -133 270 -171T139 -210Q80 -210 31 -190L51 -45Q78 -55 104 -55Q168 -55 188 -5L196 15ZM291 780Q343 780 380 756T417 684Q417 656 404 639T367 604Q353 594 347 588T337 572H223Q223 597 233 609T263 632Q281 641 292 650T304 672Q304 694 267 694Q242 694 213 684L196 764Q216 771 242 775T291 780Z" horiz-adv-x="557" unicode="ỷ"/>
			<glyph d="M-12 710H196L323 447L450 710H634L404 269V0H218V269ZM233 912Q260 912 320 887Q326 885 344 877T375 869Q401 869 408 912H501Q495 843 464 803T388 764Q357 764 303 788Q284 797 270 802T247 807Q234 807 225 797T212 764H119Q125 838 156 875T233 912Z" horiz-adv-x="622" unicode="Ỹ"/>
			<glyph d="M0 510H191L286 212L377 510H557L348 -54Q319 -133 270 -171T139 -210Q80 -210 31 -190L51 -45Q78 -55 104 -55Q168 -55 188 -5L196 15ZM205 745Q241 745 293 720Q310 712 323 707T345 702Q375 702 381 745H474Q468 673 436 635T359 597Q341 597 321 603T276 621Q258 629 244 634T221 640Q194 640 185 597H92Q98 673 130 709T205 745Z" horiz-adv-x="557" unicode="ỹ"/>
			<glyph d="M40 347H393V203H40Z" horiz-adv-x="433" unicode="‐"/>
			<glyph d="M40 347H500V203H40Z" horiz-adv-x="540" unicode="–"/>
			<glyph d="M40 347H1000V203H40Z" horiz-adv-x="1040" unicode="—"/>
			<glyph d="M40 347H1000V203H40Z" horiz-adv-x="1040" unicode="―"/>
			<glyph d="M-4 -187H456V-232H-4ZM-5 -92H455V-137H-5Z" horiz-adv-x="450" unicode="‗"/>
			<glyph d="M118 710H260L209 474H30Z" horiz-adv-x="290" unicode="‘"/>
			<glyph d="M81 710H260L172 474H30Z" horiz-adv-x="290" unicode="’"/>
			<glyph d="M81 118H260L172 -118H30Z" horiz-adv-x="290" unicode="‚"/>
			<glyph d="M30 710H209L260 474H118Z" horiz-adv-x="290" unicode="‛"/>
			<glyph d="M118 710H260L209 474H30ZM369 710H511L460 474H281Z" horiz-adv-x="541" unicode="“"/>
			<glyph d="M81 710H260L172 474H30ZM332 710H511L423 474H281Z" horiz-adv-x="541" unicode="”"/>
			<glyph d="M81 118H260L172 -118H30ZM332 118H511L423 -118H281Z" horiz-adv-x="541" unicode="„"/>
			<glyph d="M180 752H340L325 533L495 547V387L322 401L340 -116H180L198 402L25 387V547L196 531Z" horiz-adv-x="520" unicode="†"/>
			<glyph d="M180 752H340L325 533L495 547V387L320 401V247L495 261V101L325 115L340 -116H180L195 116L25 101V261L200 245V403L25 387V547L196 531Z" horiz-adv-x="520" unicode="‡"/>
			<glyph d="M195 456Q235 456 268 436T320 384T340 311Q340 271 320 238T268 185T195 166Q155 166 122 185T69 238T50 311Q50 351 69 384T122 436T195 456Z" horiz-adv-x="390" unicode="•"/>
			<glyph d="M468 184Q510 184 539 154T569 83Q569 41 539 11T468 -18Q426 -18 396 11T367 83Q367 125 396 154T468 184ZM780 184Q822 184 851 154T881 83Q881 41 851 11T780 -18Q738 -18 708 11T679 83Q679 125 708 154T780 184ZM156 184Q198 184 227 154T257 83Q257 41 227 11T156 -18Q114 -18 84 11T55 83Q55 125 84 154T156 184Z" horiz-adv-x="936" unicode="…"/>
			<glyph d="M226 716Q282 716 325 690T392 616T416 507Q416 445 392 397T325 323T226 297Q170 297 126 323T59 397T35 507Q35 569 59 616T126 690T226 716ZM656 710H795L325 0H186ZM226 599Q175 599 175 507Q175 414 226 414Q276 414 276 507Q276 599 226 599ZM753 413Q809 413 852 387T920 313T944 204Q944 142 920 94T852 20T753 -6Q697 -6 653 20T586 94T562 204Q562 266 586 313T653 387T753 413ZM1177 413Q1233 413 1276 387T1344 313T1368 204Q1368 142 1344 94T1276 20T1177 -6Q1121 -6 1078 20T1011 94T987 204Q987 266 1011 313T1078 387T1177 413ZM753 296Q702 296 702 204Q702 111 753 111Q804 111 804 204Q804 296 753 296ZM1177 296Q1127 296 1127 204Q1127 111 1177 111Q1228 111 1228 204Q1228 296 1177 296Z" horiz-adv-x="1403" unicode="‰"/>
			<glyph d="M190 460H385L209 260L385 60H190L30 260Z" horiz-adv-x="415" unicode="‹"/>
			<glyph d="M30 460H225L385 260L225 60H30L206 260Z" horiz-adv-x="415" unicode="›"/>
			<glyph d="M327 710H529L499 275H357ZM429 184Q471 184 500 154T530 83Q530 41 500 11T429 -18Q387 -18 357 11T328 83Q328 125 357 154T429 184ZM70 710H272L242 275H100ZM172 184Q214 184 243 154T273 83Q273 41 243 11T172 -18Q130 -18 100 11T71 83Q71 125 100 154T172 184Z" unicode="‼"/>
			<glyph d="M264 730Q343 730 398 706T483 640T512 544Q512 478 485 437T411 365Q365 335 346 315T327 275H191L183 590Q159 579 144 561T116 518L11 593Q73 730 264 730ZM316 593L308 452Q337 474 348 491T359 531Q359 550 348 567T316 593ZM260 184Q302 184 331 154T361 83Q361 41 331 11T260 -18Q218 -18 188 11T159 83Q159 125 188 154T260 184Z" horiz-adv-x="526" unicode="‽"/>
			<glyph d="M-5 828H455V783H-5ZZ" horiz-adv-x="450" unicode="‾"/>
			<glyph d="M264 710H403L-108 0H-247Z" horiz-adv-x="155" unicode="⁄"/>
			<glyph d="M208 869Q295 869 336 814T377 648Q377 535 336 481T208 427Q120 427 79 481T38 648Q38 760 79 814T208 869ZM208 759Q180 759 172 734T164 648Q164 587 172 562T208 537Q235 537 243 562T252 650Q252 709 243 734T208 759Z" horiz-adv-x="415" unicode="⁰"/>
			<glyph d="M200 861H330V602H375V504H330V435H207V504H18V591ZM207 713L132 602H207Z" horiz-adv-x="407" unicode="⁴"/>
			<glyph d="M82 861H356V753H173L166 707Q188 717 222 717Q286 717 329 681T373 576Q373 504 324 466T187 429Q135 429 96 442T23 480L82 577Q133 535 193 535Q250 535 250 578Q250 621 193 621Q161 621 136 606L54 630Z" horiz-adv-x="412" unicode="⁵"/>
			<glyph d="M323 871L348 770Q261 769 213 749T151 681Q188 707 236 707Q301 707 341 671T382 576Q382 510 335 468T212 426Q130 426 79 475T29 624Q29 736 103 803T323 871ZM206 618Q189 618 173 612T147 599Q156 519 208 519Q232 519 247 532T263 569Q263 592 248 605T206 618Z" horiz-adv-x="410" unicode="⁶"/>
			<glyph d="M40 861H373V792L210 435H76L235 753H40Z" horiz-adv-x="416" unicode="⁷"/>
			<glyph d="M210 872Q285 872 328 840T371 755Q371 719 353 696T303 657Q346 640 366 614T386 554Q386 495 338 460T210 426Q130 426 82 460T34 553Q34 589 54 614T117 657Q51 687 51 753Q51 806 94 839T210 872ZM211 788Q191 788 178 776T165 744Q165 724 177 713T211 702Q231 702 244 713T257 744Q257 764 244 776T211 788ZM212 606Q190 606 175 594T160 561Q160 539 175 527T212 516Q235 516 249 527T264 561Q264 583 249 594T212 606Z" horiz-adv-x="420" unicode="⁸"/>
			<glyph d="M198 871Q280 871 330 821T381 673Q381 561 307 493T87 426L62 527Q149 528 197 547T259 616Q222 590 174 590Q109 590 68 626T28 721Q28 787 75 829T198 871ZM202 778Q178 778 162 764T147 728Q147 705 162 692T204 679Q221 679 237 684T263 698Q254 778 202 778Z" horiz-adv-x="410" unicode="⁹"/>
			<glyph d="M140 795H252V690H356V578H252V474H140V578H35V690H140Z" horiz-adv-x="391" unicode="⁺"/>
			<glyph d="M35 690H356V578H35Z" horiz-adv-x="391" unicode="⁻"/>
			<glyph d="M35 783H356V671H35ZM35 601H356V489H35Z" horiz-adv-x="391" unicode="⁼"/>
			<glyph d="M285 945V843Q171 843 171 648Q171 455 285 455V353Q174 354 114 430T54 648Q54 789 115 866T285 945Z" horiz-adv-x="313" unicode="⁽"/>
			<glyph d="M28 945Q139 944 199 868T259 650Q259 509 198 431T28 353V455Q142 455 142 650Q142 843 28 843Z" horiz-adv-x="313" unicode="⁾"/>
			<glyph d="M255 719Q308 719 335 690T362 606V408H258V562Q258 626 212 626Q164 626 164 559V408H60V713H164V678Q196 719 255 719Z" horiz-adv-x="422" unicode="ⁿ"/>
			<glyph d="M208 289Q295 289 336 234T377 68Q377 -45 336 -99T208 -153Q120 -153 79 -98T38 68Q38 180 79 234T208 289ZM208 179Q180 179 172 154T164 68Q164 7 172 -18T208 -43Q235 -43 243 -17T252 70Q252 129 243 154T208 179Z" horiz-adv-x="415" unicode="₀"/>
			<glyph d="M205 286H251V-145H127V135L43 96V209Z" horiz-adv-x="328" unicode="₁"/>
			<glyph d="M200 291Q274 291 319 254T364 159Q364 114 340 76T274 5L221 -37H381V-145H38V-75L183 60Q214 89 226 108T238 142Q238 161 225 171T189 182Q163 182 135 169T82 133L29 224Q98 291 200 291Z" horiz-adv-x="413" unicode="₂"/>
			<glyph d="M204 290Q271 290 311 258T352 174Q352 106 275 78Q324 63 347 39T371 -27Q371 -85 324 -120T192 -155Q142 -155 99 -142T27 -105L84 -6Q134 -43 193 -43Q222 -43 235 -36T248 -15Q248 7 226 15T142 23V116Q230 116 230 151Q230 178 191 178Q168 178 142 167T93 138L40 231Q70 257 112 273T204 290Z" horiz-adv-x="413" unicode="₃"/>
			<glyph d="M200 281H330V22H375V-76H330V-145H207V-76H18V11ZM207 133L132 22H207Z" horiz-adv-x="407" unicode="₄"/>
			<glyph d="M82 281H356V173H173L166 127Q188 137 222 137Q286 137 329 101T373 -4Q373 -76 324 -113T187 -151Q135 -151 96 -138T23 -100L82 -3Q133 -45 193 -45Q250 -45 250 -2Q250 41 193 41Q161 41 136 26L54 50Z" horiz-adv-x="412" unicode="₅"/>
			<glyph d="M323 291L348 190Q261 189 213 169T151 101Q188 127 236 127Q301 127 341 91T382 -4Q382 -70 335 -112T212 -154Q130 -154 79 -104T29 44Q29 156 103 223T323 291ZM206 38Q189 38 173 32T147 19Q156 -61 208 -61Q232 -61 247 -47T263 -11Q263 12 248 25T206 38Z" horiz-adv-x="410" unicode="₆"/>
			<glyph d="M40 281H373V212L210 -145H76L235 173H40Z" horiz-adv-x="416" unicode="₇"/>
			<glyph d="M210 292Q285 292 328 260T371 175Q371 139 353 116T303 77Q346 60 366 34T386 -26Q386 -85 338 -119T210 -154Q130 -154 82 -119T34 -27Q34 9 54 34T117 77Q51 107 51 173Q51 226 94 259T210 292ZM211 208Q191 208 178 196T165 164Q165 144 177 133T211 122Q231 122 244 133T257 164Q257 184 244 196T211 208ZM212 26Q190 26 175 14T160 -19Q160 -41 175 -52T212 -64Q235 -64 249 -52T264 -19Q264 3 249 14T212 26Z" horiz-adv-x="420" unicode="₈"/>
			<glyph d="M198 291Q280 291 330 241T381 93Q381 -19 307 -86T87 -154L62 -53Q149 -52 197 -32T259 36Q222 10 174 10Q109 10 68 46T28 141Q28 207 75 249T198 291ZM202 198Q178 198 162 184T147 148Q147 125 162 112T204 99Q221 99 237 104T263 118Q254 198 202 198Z" horiz-adv-x="410" unicode="₉"/>
			<glyph d="M140 213H252V108H356V-4H252V-108H140V-4H35V108H140Z" horiz-adv-x="391" unicode="₊"/>
			<glyph d="M35 108H356V-4H35Z" horiz-adv-x="391" unicode="₋"/>
			<glyph d="M35 201H356V89H35ZM35 19H356V-93H35Z" horiz-adv-x="391" unicode="₌"/>
			<glyph d="M285 363V261Q171 261 171 66Q171 -127 285 -127V-229Q174 -228 114 -152T54 66Q54 207 115 284T285 363Z" horiz-adv-x="313" unicode="₍"/>
			<glyph d="M28 363Q139 362 199 286T259 68Q259 -73 198 -150T28 -229V-127Q142 -127 142 68Q142 261 28 261Z" horiz-adv-x="313" unicode="₎"/>
			<glyph d="M84 710H519V545H274V449H505V284H274V213H392V69H274V0H84V69H8V213H84Z" horiz-adv-x="554" unicode="₣"/>
			<glyph d="M385 730Q448 730 490 718T569 681L500 529Q475 547 451 555T397 563Q361 563 340 545T313 487H497V377H312V327H497V217H303Q289 177 259 158H573V0H41V158Q98 164 117 217H41V327H125V377H41V487H125Q127 603 196 666T385 730Z" horiz-adv-x="593" unicode="₤"/>
			<glyph d="M70 710H282Q404 710 477 653T567 498H618V368H565Q546 271 473 213T282 155H260V0H70V368H4V498H70ZM260 567V498H365Q354 533 328 549T260 567ZM260 368V298Q301 299 326 315T363 368Z" horiz-adv-x="624" unicode="₧"/>
			<glyph d="M364 714H495V658H533V568H495V174H364V213Q333 167 255 167Q204 167 162 191T96 257T73 353Q73 406 96 448T161 514T255 538Q293 538 321 527T364 495V568H235V658H364ZM287 427Q251 427 229 406T208 353Q208 319 229 298T287 278Q322 278 344 298T366 353Q366 385 344 406T287 427ZM88 128H506V0H88Z" horiz-adv-x="644" unicode="₫"/>
			<glyph d="M405 730Q494 730 566 694L525 530Q474 560 415 560Q321 560 294 470H445V390H281Q280 379 280 355V340H445V260H290Q317 149 413 149Q444 149 471 159T533 189L584 35Q544 8 497 -6T384 -21Q260 -21 182 51T84 260H13V340H78V355Q78 379 79 390H13V470H88Q112 596 192 663T405 730Z" unicode="€"/>
			<glyph d="M62 710H551V595H450Q462 575 471 540H551V431H468Q456 384 423 346T340 287L575 0H346L144 260H62V375H187Q219 375 242 389T277 431H63V540H276Q252 595 187 595H62Z" horiz-adv-x="575" unicode="₹"/>
			<glyph d="M81 710H271V579L414 630V550L271 499V449L414 500V420L271 369V169H313Q357 169 377 190T398 255V327H573V222Q573 146 535 96T437 23T313 0H81V300L24 280V360L81 380V430L24 410V490L81 510Z" horiz-adv-x="593" unicode="₺"/>
			<glyph d="M266 710H406V626Q506 608 563 537T620 354V0H448V334Q448 412 406 443V108H266V443Q224 412 224 334V0H54V354Q54 466 110 536T266 626Z" horiz-adv-x="675" unicode="₼"/>
			<glyph d="M278 557V418H306Q345 418 367 437T390 492Q390 524 368 540T306 557ZM98 710H332Q411 710 467 681T551 603T580 492Q580 430 551 378T467 295T332 265H278V210H424V72H278V0H98V72H30V210H98V265H30V418H98Z" horiz-adv-x="602" unicode="₽"/>
			<glyph d="M247 719Q286 719 319 709T376 685L337 575Q322 585 300 592T258 600Q222 600 199 577T176 517Q176 480 198 457T260 434Q279 434 303 441T348 461L379 353Q322 315 247 315Q185 315 137 340T62 411T35 515Q35 575 63 621T140 693T247 719ZM656 710H795L284 0H145ZM726 394Q789 394 838 368T915 296T943 192Q943 135 915 89T838 16T726 -10Q663 -10 613 16T535 89T508 192Q508 250 535 296T613 368T726 394ZM726 273Q690 273 668 250T646 192Q646 156 668 134T726 112Q762 112 783 134T805 193Q805 229 783 251T726 273Z" horiz-adv-x="978" unicode="℅"/>
			<glyph d="M327 710Q403 710 440 659T478 503Q478 387 435 301T303 168Q312 132 330 117T384 103Q418 103 454 115V-14Q404 -31 339 -31Q256 -31 214 7T157 120Q127 114 111 113V223Q144 229 146 229Q144 263 144 340Q144 527 184 618T327 710ZM321 570Q306 570 299 521T293 339V302Q319 336 329 387T340 515Q340 546 335 558T321 570Z" unicode="ℓ"/>
			<glyph d="M76 710H231L461 300V710H613V0H459L228 409V0H76ZM902 711Q972 711 1027 682T1112 601T1142 485Q1142 420 1111 368T1026 287T902 258Q832 258 777 287T693 368T663 485Q663 550 693 601T777 682T902 711ZM903 575Q863 575 839 550T815 485Q815 444 839 419T902 394Q942 394 966 419T990 486Q990 526 966 550T903 575ZM689 198H1106V54H689Z" horiz-adv-x="1197" unicode="№"/>
			<glyph d="M405 720Q504 720 588 671T721 538T770 355Q770 256 721 172T588 39T405 -10Q306 -10 222 39T89 172T40 355Q40 454 89 538T222 671T405 720ZM405 633Q329 633 265 595T164 494T127 355Q127 279 164 215T265 114T405 77Q481 77 544 114T645 215T683 355Q683 431 645 494T544 595T405 633ZM266 574H443Q511 574 554 533T598 428Q598 363 554 320T443 277H392V136H266ZM392 470V381H421Q440 381 453 394T466 427Q466 447 453 458T421 470Z" horiz-adv-x="810" unicode="℗"/>
			<glyph d="M15 710H352V609H236V326H131V609H15ZM392 710H497L619 515L740 710H845V326H740V537L650 388H588L497 537V326H392Z" horiz-adv-x="915" unicode="™"/>
			<glyph d="M418 720Q528 720 613 682T745 576T793 415Q793 342 755 280T651 176V164H804V0H477V240Q528 255 559 294T591 385Q591 453 542 495T418 538Q342 538 293 495T245 385Q245 332 277 293T362 239V0H35V164H188V177Q120 214 81 276T43 415Q43 507 90 576T223 682T418 720Z" horiz-adv-x="839" unicode="Ω"/>
			<glyph d="M420 621Q529 621 606 574T723 452T762 297V293H210L203 284V77Q286 3 404 3Q478 3 535 30T634 104H695Q640 42 571 6T398 -29Q308 -29 231 10T107 121T61 292Q61 385 110 460T241 578T420 621ZM420 588Q286 588 203 510V333L210 326H613L621 333V518Q578 559 528 573T420 588Z" horiz-adv-x="823" unicode="℮"/>
			<glyph d="M205 716H251V285H127V565L43 526V639ZM592 710H731L220 0H81ZM693 437Q768 437 811 405T854 320Q854 284 836 261T786 222Q829 205 849 179T869 119Q869 60 821 25T693 -9Q613 -9 565 25T517 118Q517 154 537 179T600 222Q534 252 534 318Q534 371 577 404T693 437ZM694 353Q674 353 661 341T648 309Q648 289 660 278T694 267Q714 267 727 278T740 309Q740 329 727 341T694 353ZM695 171Q673 171 658 159T643 126Q643 104 658 92T695 81Q718 81 732 92T747 126Q747 148 732 159T695 171Z" horiz-adv-x="903" unicode="⅛"/>
			<glyph d="M204 720Q271 720 311 688T352 604Q352 536 275 508Q324 493 347 469T371 403Q371 345 324 310T192 275Q142 275 99 287T27 325L84 424Q134 387 193 387Q222 387 235 394T248 415Q248 437 226 445T142 453V546Q230 546 230 581Q230 608 191 608Q168 608 142 597T93 568L40 661Q70 687 112 703T204 720ZM677 710H816L305 0H166ZM778 437Q853 437 896 405T939 320Q939 284 921 261T871 222Q914 205 934 179T954 119Q954 60 906 25T778 -9Q698 -9 650 25T602 118Q602 154 622 179T685 222Q619 252 619 318Q619 371 662 404T778 437ZM779 353Q759 353 746 341T733 309Q733 289 745 278T779 267Q799 267 812 278T825 309Q825 329 812 341T779 353ZM780 171Q758 171 743 159T728 126Q728 104 743 92T780 81Q803 81 817 92T832 126Q832 148 817 159T780 171Z" horiz-adv-x="988" unicode="⅜"/>
			<glyph d="M82 711H356V603H173L166 557Q188 567 222 567Q286 567 329 531T373 426Q373 354 324 316T187 279Q135 279 96 292T23 330L82 427Q133 385 193 385Q250 385 250 428Q250 471 193 471Q161 471 136 456L54 480ZM676 710H815L304 0H165ZM777 437Q852 437 895 405T938 320Q938 284 920 261T870 222Q913 205 933 179T953 119Q953 60 905 25T777 -9Q697 -9 649 25T601 118Q601 154 621 179T684 222Q618 252 618 318Q618 371 661 404T777 437ZM778 353Q758 353 745 341T732 309Q732 289 744 278T778 267Q798 267 811 278T824 309Q824 329 811 341T778 353ZM779 171Q757 171 742 159T727 126Q727 104 742 92T779 81Q802 81 816 92T831 126Q831 148 816 159T779 171Z" horiz-adv-x="987" unicode="⅝"/>
			<glyph d="M40 711H373V642L210 285H76L235 603H40ZM610 710H749L238 0H99ZM711 437Q786 437 829 405T872 320Q872 284 854 261T804 222Q847 205 867 179T887 119Q887 60 839 25T711 -9Q631 -9 583 25T535 118Q535 154 555 179T618 222Q552 252 552 318Q552 371 595 404T711 437ZM712 353Q692 353 679 341T666 309Q666 289 678 278T712 267Q732 267 745 278T758 309Q758 329 745 341T712 353ZM713 171Q691 171 676 159T661 126Q661 104 676 92T713 81Q736 81 750 92T765 126Q765 148 750 159T713 171Z" horiz-adv-x="921" unicode="⅞"/>
			<glyph d="M-6 710H200L346 219L492 710H696L449 0H241ZM760 710H950V0H760ZM1090 710H1280V0H1090Z" horiz-adv-x="1350" unicode="Ⅶ"/>
			<glyph d="M202 739Q295 712 376 647T506 485T556 268Q556 101 483 25T292 -51Q221 -51 164 -22T75 62T42 200Q42 277 67 336T139 427T246 460Q276 460 305 451T353 424H356Q321 490 258 541T115 629ZM301 343Q260 343 237 305T214 200Q214 145 238 113T304 82Q339 82 364 117T389 218Q389 280 364 311T301 343ZZZ" unicode="∂"/>
			<glyph d="M252 710H461L663 165V0H50V165ZM351 505L237 165H466Z" horiz-adv-x="713" unicode="∆"/>
			<glyph d="M70 710H687V-210H497V546H260V-210H70Z" horiz-adv-x="757" unicode="∏"/>
			<glyph d="M34 710H509V545H266L418 318V215L257 -45H539V-210H24V-70L233 272L34 574Z" horiz-adv-x="561" unicode="∑"/>
			<glyph d="M75 420H525V280H75Z" unicode="−"/>
			<glyph d="M616 710H781L371 0H206Z" horiz-adv-x="987" unicode="∕"/>
			<glyph d="M250 350Q292 350 321 320T351 249Q351 207 321 177T250 148Q208 148 178 177T149 249Q149 291 178 320T250 350Z" horiz-adv-x="500" unicode="∙"/>
			<glyph d="M429 710H587L431 -90H193L106 220H16V380H226L276 180Q277 176 278 170T282 157Q303 68 306 43H308Q316 95 333 184Z" unicode="√"/>
			<glyph d="M225 491Q280 491 322 468T399 395Q435 445 480 468T583 491Q638 491 679 466T743 398T766 298Q766 204 711 148T562 92Q508 92 465 114T387 188Q350 137 306 114T204 92Q150 92 108 117T43 185T20 285Q20 379 75 435T225 491ZM246 364Q214 364 194 343T175 288Q175 259 195 239T250 219Q274 219 296 237T335 288Q320 328 299 346T246 364ZM541 364Q514 364 492 343T453 291Q466 257 487 238T544 219Q573 219 593 239T613 288Q613 322 595 343T541 364Z" horiz-adv-x="786" unicode="∞"/>
			<glyph d="M391 720Q413 720 431 717T473 709L467 582Q448 586 433 586Q409 586 394 565T379 517V22Q379 -73 335 -121T206 -170Q186 -170 171 -167T127 -158L134 -31Q152 -36 165 -36Q188 -36 202 -15T216 33V528Q216 623 260 671T391 720Z" unicode="∫"/>
			<glyph d="M183 334Q215 334 307 309L330 303Q347 298 362 294T391 291Q422 291 428 334H531Q531 281 514 243T472 185T421 166Q378 166 294 190Q288 192 266 198T232 206T211 209Q196 209 187 198T173 166H70Q70 224 86 261T128 316T183 334ZM183 554Q215 554 307 529L330 523Q347 518 362 514T391 511Q422 511 428 554H531Q531 501 514 463T472 405T421 386Q378 386 294 410Q288 412 266 418T232 426T211 429Q196 429 187 418T173 386H70Q70 444 86 481T128 536T183 554Z" unicode="≈"/>
			<glyph d="M380 640H514L463 540H525V400H392L342 300H525V160H271L220 60H86L137 160H75V300H208L258 400H75V540H329Z" unicode="≠"/>
			<glyph d="M525 643V503L188 428L525 353V213L75 327V529ZM75 183H525V57H75Z" unicode="≤"/>
			<glyph d="M75 643L525 529V327L75 213V353L413 428L75 503ZM75 183H525V57H75Z" unicode="≥"/>
			<glyph d="M162 710H338L490 355L338 0H162L10 355ZM250 612L150 355L250 98L350 355Z" horiz-adv-x="500" unicode="◊"/>
			<glyph d="M608 710Q762 710 888 663T1086 536T1159 355Q1159 259 1085 177T886 48T614 0Q463 0 335 48T134 180T60 361Q60 458 133 538T332 664T608 710ZM611 667Q525 667 451 651T335 610T293 554Q293 520 346 492T485 450Q499 543 533 601T611 660Q654 660 688 601T736 450Q822 464 875 492T928 554Q928 585 885 610T770 651T611 667ZM1978 617Q2049 617 2110 580T2207 483T2243 352Q2243 279 2207 217T2110 120T1975 85Q1902 85 1842 119T1747 214T1713 349Q1713 421 1748 482T1845 580T1978 617ZM3025 617Q3095 617 3156 580T3253 483T3289 352Q3289 279 3253 217T3157 120T3025 85Q2952 85 2891 119T2795 214T2760 349Q2760 421 2796 482T2893 580T3025 617ZM1264 601H1688V507H1530V102H1417V507H1264ZM2246 601H2380L2502 393L2632 601H2760L2560 286V102H2445V289ZM3314 601H3741V507H3582V102H3470V507H3314ZM3906 601H4046L4245 102H4124L4080 215H3869L3828 102H3704ZM611 577Q585 577 563 540T532 445Q565 441 611 441Q652 441 689 444Q679 503 658 540T611 577ZM199 535Q137 459 137 372Q137 287 194 214T350 96T568 44Q528 76 502 158T477 344V362Q350 381 274 427T199 535ZM1020 533Q1020 494 985 459T888 399T744 362V344Q744 241 719 158T654 44Q773 52 870 97T1024 215T1081 372Q1081 459 1020 533ZM1978 517Q1914 517 1874 471T1831 352Q1831 276 1871 230T1978 184Q2041 184 2081 231T2122 352Q2122 425 2081 471T1978 517ZM3028 517Q2962 517 2921 471T2881 352Q2881 275 2920 229T3025 184Q3090 184 3129 230T3168 352Q3168 425 3129 471T3028 517ZM3974 495L3903 302H4046ZM526 356Q527 300 538 253T569 179T611 152Q633 152 652 179T682 253T695 356Q659 352 610 352Q562 352 526 356Z" horiz-adv-x="4305" unicode=""/>
			<glyph d="M551 710Q655 710 740 678T874 592T923 472Q923 407 873 351T738 263T555 231Q453 231 368 264T233 353T183 475Q183 540 232 594T365 679T551 710ZM553 680Q495 680 446 670T368 643T339 605Q339 582 374 563T469 535Q477 597 501 636T553 676Q582 676 605 636T637 535Q696 545 731 563T767 605Q767 626 738 643T660 670T553 680ZM553 620Q536 620 521 596T499 532Q526 529 553 529Q572 529 606 531Q599 571 584 595T553 620ZM277 592Q235 542 235 483Q235 426 273 376T378 296T525 262Q498 283 480 339T462 464V476Q377 489 327 520T277 592ZM828 590Q828 551 777 520T643 476V464Q643 395 626 339T583 262Q663 267 728 298T832 377T870 483Q870 544 828 590ZM496 473Q497 416 513 375T553 335Q576 335 592 375T610 473Q592 470 553 470Q515 470 496 473ZM299 171Q334 171 360 144T387 83Q387 46 361 19T297 -7Q261 -7 235 18T210 81Q210 118 236 144T299 171ZM648 171Q683 171 709 144T735 83Q735 46 709 19T648 -7Q610 -7 584 18T559 81Q559 118 585 144T648 171ZM60 165H202V134H149V-1H112V134H60ZM388 165H431L472 96L516 165H559L493 61V-1H453V62ZM744 165H886V134H833V-1H796V134H744ZM941 165H987L1054 -1H1013L999 37H929L915 -1H873ZM299 137Q277 137 263 122T249 83Q249 57 263 41T299 26Q319 26 332 42T346 83Q346 107 332 122T299 137ZM648 137Q626 137 613 122T600 83Q600 57 613 41T648 26Q669 26 681 41T694 83Q694 107 681 122T648 137ZM963 130L939 66H987Z" horiz-adv-x="1114" unicode=""/>
			<glyph d="M608 710Q762 710 888 663T1086 536T1159 355Q1159 259 1085 177T886 48T614 0Q463 0 335 48T134 180T60 361Q60 458 133 538T332 664T608 710ZM611 667Q525 667 451 651T335 610T293 554Q293 520 346 492T485 450Q499 543 533 601T611 660Q654 660 688 601T736 450Q822 464 875 492T928 554Q928 585 885 610T770 651T611 667ZM611 577Q585 577 563 540T532 445Q565 441 611 441Q652 441 689 444Q679 503 658 540T611 577ZM199 535Q137 459 137 372Q137 287 194 214T350 96T568 44Q528 76 502 158T477 344V362Q350 381 274 427T199 535ZM1020 533Q1020 494 985 459T888 399T744 362V344Q744 241 719 158T654 44Q773 52 870 97T1024 215T1081 372Q1081 459 1020 533ZM526 356Q527 300 538 253T569 179T611 152Q633 152 652 179T682 253T695 356Q659 352 610 352Q562 352 526 356Z" horiz-adv-x="1219" unicode=""/>
			<glyph d="M1099 733Q1200 733 1286 681T1424 543T1476 357Q1476 252 1425 164T1287 26T1095 -24Q992 -24 907 25T772 161T723 352Q723 454 773 541T910 681T1099 733ZM2588 733Q2688 733 2774 681T2912 543T2964 357Q2964 252 2913 165T2776 27T2588 -24Q2485 -24 2398 25T2261 161T2211 352Q2211 454 2262 541T2401 681T2588 733ZM84 710H687V576H462V0H302V576H84ZM1480 710H1671L1844 414L2030 710H2211L1927 263V0H1763V267ZM2999 710H3607V576H3381V0H3222V576H2999ZM3841 710H4040L4324 0H4151L4088 160H3788L3730 0H3554ZM1099 591Q1038 591 992 561T919 478T890 357Q890 285 916 231T990 147T1099 117Q1158 117 1205 147T1278 232T1304 357Q1304 424 1278 477T1205 561T1099 591ZM2592 591Q2531 591 2483 561T2410 477T2384 357Q2384 285 2409 230T2480 146T2588 117Q2649 117 2695 147T2767 232T2792 357Q2792 425 2767 478T2696 561T2592 591ZM3938 559L3837 285H4040Z" horiz-adv-x="4379" unicode=""/>
			<glyph d="M284 763Q352 763 416 735L386 591Q348 609 323 609Q272 609 272 548V510H387V365H272V0H97V365H15V510H97V554Q97 667 148 715T284 763ZM462 510H637V0H462ZM552 768Q593 768 621 739T650 670Q650 629 621 600T552 572Q511 572 482 600T454 670Q454 711 482 739T552 768Z" horiz-adv-x="692" unicode=""/>
			<glyph d="M284 763Q352 763 416 735L386 591Q348 609 323 609Q272 609 272 548V510H387V365H272V0H97V365H15V510H97V554Q97 667 148 715T284 763ZM462 752H637V195Q637 141 683 141Q702 141 725 150L742 13Q690 -10 630 -10Q549 -10 505 33T462 165Z" horiz-adv-x="752" unicode=""/>
			<glyph d="M195 456Q235 456 268 436T320 384T340 311Q340 271 320 238T268 185T195 166Q155 166 122 185T69 238T50 311Q50 351 69 384T122 436T195 456Z" horiz-adv-x="390" unicode=""/>
			<glyph d="M284 763Q352 763 416 735L386 591Q348 609 323 609Q272 609 272 548V510H387V365H272V0H97V365H15V510H97V554Q97 667 148 715T284 763ZM681 763Q749 763 813 735L783 591Q745 609 720 609Q669 609 669 548V510H784V365H669V0H494V365H412V510H494V554Q494 667 545 715T681 763Z" horiz-adv-x="794" unicode="ﬀ"/>
			<glyph d="M284 763Q352 763 416 735L386 591Q348 609 323 609Q272 609 272 548V510H387V365H272V0H97V365H15V510H97V554Q97 667 148 715T284 763ZM462 510H637V0H462ZM552 768Q593 768 621 739T650 670Q650 629 621 600T552 572Q511 572 482 600T454 670Q454 711 482 739T552 768Z" horiz-adv-x="692" unicode="ﬁ"/>
			<glyph d="M284 763Q352 763 416 735L386 591Q348 609 323 609Q272 609 272 548V510H387V365H272V0H97V365H15V510H97V554Q97 667 148 715T284 763ZM462 752H637V195Q637 141 683 141Q702 141 725 150L742 13Q690 -10 630 -10Q549 -10 505 33T462 165Z" horiz-adv-x="752" unicode="ﬂ"/>
			<glyph d="M284 763Q352 763 416 735L386 591Q348 609 323 609Q272 609 272 548V510H387V365H272V0H97V365H15V510H97V554Q97 667 148 715T284 763ZM681 763Q749 763 813 735L783 591Q745 609 720 609Q669 609 669 548V510H784V365H669V0H494V365H412V510H494V554Q494 667 545 715T681 763ZM859 510H1034V0H859ZM949 768Q990 768 1018 739T1047 670Q1047 629 1018 600T949 572Q908 572 879 600T851 670Q851 711 879 739T949 768Z" horiz-adv-x="1089" unicode="ﬃ"/>
			<glyph d="M284 763Q352 763 416 735L386 591Q348 609 323 609Q272 609 272 548V510H387V365H272V0H97V365H15V510H97V554Q97 667 148 715T284 763ZM681 763Q749 763 813 735L783 591Q745 609 720 609Q669 609 669 548V510H784V365H669V0H494V365H412V510H494V554Q494 667 545 715T681 763ZM859 752H1034V195Q1034 141 1080 141Q1099 141 1122 150L1139 13Q1087 -10 1027 -10Q946 -10 902 33T859 165Z" horiz-adv-x="1149" unicode="ﬄ"/>
			<glyph d="" horiz-adv-x="0" unicode="﻿"/>
		</font>
</defs>
</svg>
