<svg width="96" height="33" viewBox="0 0 96 33" fill="none" xmlns="http://www.w3.org/2000/svg">
<g id="image" clip-path="url(#clip0_4015_4636)">
<g id="Group">
<g id="Group_2">
<g id="Group_3">
<path id="Vector" d="M88.3552 0.621198H7.64916C7.35497 0.621198 7.06432 0.621198 6.77091 0.622803C6.52531 0.624407 6.28166 0.629068 6.03369 0.632991C5.49499 0.63933 4.95756 0.686722 4.42607 0.774756C3.89532 0.864706 3.3812 1.03429 2.9011 1.27776C2.42158 1.5233 1.98343 1.84235 1.60254 2.22334C1.21966 2.60326 0.900491 3.04239 0.65732 3.52385C0.413478 4.00436 0.244397 4.51926 0.155916 5.05078C0.0665952 5.58163 0.0185306 6.1186 0.012154 6.65688C0.00470918 6.90285 0.00392298 7.14963 0 7.39563V25.939C0.00392298 26.188 0.00470918 26.4294 0.012154 26.6785C0.0185325 27.2168 0.0665971 27.7537 0.155916 28.2846C0.244152 28.8164 0.413243 29.3316 0.65732 29.8123C0.900381 30.2922 1.21959 30.7295 1.60254 31.1073C1.98198 31.49 2.42042 31.8093 2.9011 32.0529C3.3812 32.2971 3.89526 32.4677 4.42607 32.559C4.95765 32.6463 5.49503 32.6937 6.03369 32.7008C6.28166 32.7063 6.52531 32.7094 6.77091 32.7094C7.06431 32.711 7.35499 32.711 7.64916 32.711H88.3552C88.6435 32.711 88.9365 32.711 89.2248 32.7094C89.4692 32.7094 89.7199 32.7063 89.9644 32.7008C90.502 32.6941 91.0384 32.6467 91.5689 32.559C92.1014 32.467 92.6173 32.2965 93.0997 32.0529C93.58 31.8091 94.018 31.4899 94.3971 31.1073C94.7791 30.7281 95.099 30.291 95.345 29.8123C95.5873 29.3312 95.7548 28.8161 95.8417 28.2846C95.9312 27.7537 95.9809 27.2168 95.9906 26.6785C95.9937 26.4294 95.9937 26.188 95.9937 25.939C96 25.6475 96 25.3576 96 25.0615V8.27152C96 7.97773 96 7.68629 95.9937 7.39563C95.9937 7.14963 95.9937 6.90285 95.9906 6.65685C95.9809 6.11853 95.9312 5.58167 95.8417 5.05075C95.7545 4.51954 95.5871 4.00467 95.345 3.52382C94.8498 2.55878 94.0646 1.77324 93.0997 1.27769C92.6173 1.03481 92.1013 0.865274 91.5689 0.774684C91.0385 0.686262 90.5021 0.638854 89.9644 0.632879C89.7199 0.628964 89.4692 0.624263 89.2248 0.622698C88.9365 0.621094 88.6435 0.621198 88.3552 0.621198Z" fill="#A6A6A6"/>
<path id="Vector_2" d="M6.77563 32.0101C6.5312 32.0101 6.29268 32.007 6.05017 32.0015C5.54779 31.995 5.04658 31.9513 4.55066 31.8707C4.08824 31.791 3.64028 31.6429 3.22155 31.4311C2.80666 31.2211 2.42825 30.9458 2.10081 30.6156C1.76863 30.2893 1.49208 29.9108 1.28211 29.4952C1.06983 29.0769 0.922915 28.6286 0.846491 28.1658C0.763959 27.6685 0.719306 27.1656 0.712917 26.6615C0.707831 26.4924 0.701172 25.929 0.701172 25.929V7.39669C0.701172 7.39669 0.708264 6.84201 0.712957 6.67905C0.719075 6.17579 0.763468 5.67372 0.845753 5.17719C0.922318 4.71311 1.06934 4.26345 1.28174 3.84378C1.49094 3.42846 1.76596 3.04974 2.09613 2.72228C2.42594 2.3917 2.80556 2.11492 3.22115 1.902C3.63892 1.69092 4.08604 1.54382 4.54752 1.46563C5.04507 1.38426 5.54802 1.34026 6.05214 1.33401L6.77603 1.32422H89.2217L89.9542 1.33441C90.4537 1.34034 90.9521 1.38395 91.4451 1.46484C91.9113 1.54401 92.363 1.69214 92.7856 1.90435C93.6182 2.33343 94.2956 3.01227 94.723 3.84573C94.932 4.26251 95.0768 4.7085 95.1524 5.16857C95.2356 5.66917 95.2822 6.17519 95.2918 6.68258C95.2941 6.90977 95.2941 7.15382 95.2941 7.39669C95.3005 7.69753 95.3004 7.98388 95.3004 8.27257V25.0625C95.3004 25.354 95.3005 25.6384 95.2941 25.9251C95.2941 26.186 95.2941 26.425 95.291 26.6709C95.2816 27.1693 95.2358 27.6663 95.1539 28.1579C95.079 28.6241 94.9329 29.0759 94.7207 29.4976C94.5092 29.9087 94.2342 30.2839 93.9059 30.6093C93.5782 30.9413 93.1991 31.2183 92.7832 31.4296C92.3619 31.643 91.9108 31.7917 91.4451 31.8707C90.9492 31.9517 90.448 31.9954 89.9455 32.0015C89.7106 32.007 89.4645 32.0101 89.2256 32.0101L88.356 32.0117L6.77563 32.0101Z" fill="black"/>
</g>
<g id="&#60;Group&#62;">
<g id="&#60;Group&#62;_2">
<g id="&#60;Group&#62;_3">
<path id="&#60;Path&#62;" d="M19.8711 16.9084C19.8797 16.2388 20.0576 15.5822 20.3881 14.9998C20.7187 14.4174 21.1912 13.9281 21.7616 13.5774C21.3992 13.0598 20.9211 12.6339 20.3653 12.3334C19.8095 12.0329 19.1913 11.8662 18.5597 11.8464C17.2126 11.705 15.9066 12.6525 15.2201 12.6525C14.5203 12.6525 13.4633 11.8605 12.3252 11.8839C11.589 11.9077 10.8715 12.1217 10.2426 12.5053C9.61375 12.8888 9.09495 13.4287 8.73678 14.0723C7.18523 16.7586 8.34254 20.7064 9.82879 22.8778C10.5724 23.9411 11.4415 25.1288 12.5786 25.0866C13.6914 25.0405 14.107 24.3771 15.4502 24.3771C16.7809 24.3771 17.1708 25.0866 18.331 25.0599C19.5251 25.0405 20.2774 23.9919 20.9949 22.9185C21.5292 22.1609 21.9403 21.3236 22.213 20.4376C21.5193 20.1442 20.9273 19.6531 20.5109 19.0255C20.0944 18.3979 19.8719 17.6616 19.8711 16.9084Z" fill="white"/>
<path id="&#60;Path&#62;_2" d="M17.6788 10.4175C18.3298 9.63597 18.6505 8.63141 18.5729 7.61719C17.5782 7.72166 16.6594 8.19703 15.9996 8.9486C15.677 9.31576 15.4299 9.74291 15.2725 10.2056C15.115 10.6683 15.0503 11.1575 15.0821 11.6453C15.5796 11.6504 16.0718 11.5426 16.5215 11.3299C16.9713 11.1172 17.367 10.8053 17.6788 10.4175Z" fill="white"/>
</g>
</g>
<g id="Group_4">
<path id="Vector_3" d="M33.9368 22.3946H30.1395L29.2275 25.0873H27.6191L31.2159 15.125H32.887L36.4838 25.0873H34.848L33.9368 22.3946ZM30.5328 21.152H33.5428L32.0589 16.782H32.0174L30.5328 21.152Z" fill="white"/>
<path id="Vector_4" d="M44.252 21.4555C44.252 23.7126 43.0439 25.1627 41.2208 25.1627C40.759 25.1869 40.2997 25.0805 39.8956 24.8558C39.4914 24.631 39.1587 24.297 38.9355 23.892H38.901V27.4895H37.4102V17.8234H38.8533V19.0315H38.8807C39.1141 18.6284 39.4525 18.2961 39.8597 18.07C40.2669 17.8439 40.7279 17.7324 41.1934 17.7474C43.0368 17.7474 44.252 19.2046 44.252 21.4555ZM42.7196 21.4555C42.7196 19.985 41.9596 19.0182 40.8001 19.0182C39.661 19.0182 38.8948 20.0053 38.8948 21.4555C38.8948 22.9189 39.661 23.899 40.8001 23.899C41.9596 23.899 42.7196 22.9393 42.7196 21.4555Z" fill="white"/>
<path id="Vector_5" d="M52.2461 21.4555C52.2461 23.7126 51.0381 25.1627 49.215 25.1627C48.7532 25.1869 48.2939 25.0805 47.8897 24.8558C47.4856 24.631 47.1528 24.297 46.9297 23.892H46.8952V27.4895H45.4043V17.8234H46.8474V19.0315H46.8748C47.1082 18.6284 47.4466 18.2961 47.8538 18.07C48.2611 17.8439 48.722 17.7324 49.1875 17.7474C51.031 17.7474 52.2461 19.2046 52.2461 21.4555ZM50.7137 21.4555C50.7137 19.985 49.9538 19.0182 48.7943 19.0182C47.6551 19.0182 46.8889 20.0053 46.8889 21.4555C46.8889 22.9189 47.6551 23.899 48.7943 23.899C49.9538 23.899 50.7137 22.9393 50.7137 21.4555Z" fill="white"/>
<path id="Vector_6" d="M57.5301 22.3097C57.6405 23.2976 58.6003 23.9463 59.9117 23.9463C61.1684 23.9463 62.0725 23.2976 62.0725 22.4068C62.0725 21.6335 61.5272 21.1705 60.2361 20.8532L58.945 20.5422C57.1156 20.1003 56.2664 19.2448 56.2664 17.8566C56.2664 16.1377 57.7643 14.957 59.8914 14.957C61.9965 14.957 63.4396 16.1377 63.4882 17.8566H61.9832C61.8931 16.8624 61.0712 16.2623 59.8702 16.2623C58.6692 16.2623 57.8474 16.8694 57.8474 17.7531C57.8474 18.4575 58.3723 18.8719 59.6563 19.1892L60.7539 19.4587C62.7979 19.9421 63.6472 20.7631 63.6472 22.2203C63.6472 24.0841 62.1626 25.2514 59.8013 25.2514C57.5919 25.2514 56.1003 24.1115 56.0039 22.3096L57.5301 22.3097Z" fill="white"/>
<path id="Vector_7" d="M66.8646 16.1016V17.8204H68.2458V19.0011H66.8646V23.0053C66.8646 23.6273 67.1411 23.9172 67.7483 23.9172C67.9123 23.9143 68.076 23.9028 68.2387 23.8827V25.0563C67.9657 25.1073 67.6883 25.1304 67.4106 25.1252C65.9401 25.1252 65.3666 24.5729 65.3666 23.1643V19.0011H64.3105V17.8204H65.3666V16.1016H66.8646Z" fill="white"/>
<path id="Vector_8" d="M69.0449 21.4557C69.0449 19.1704 70.3909 17.7344 72.4897 17.7344C74.5956 17.7344 75.9353 19.1704 75.9353 21.4557C75.9353 23.7473 74.6027 25.1771 72.4897 25.1771C70.3775 25.1771 69.0449 23.7473 69.0449 21.4557ZM74.4162 21.4557C74.4162 19.8881 73.6978 18.9628 72.4897 18.9628C71.2816 18.9628 70.564 19.8951 70.564 21.4557C70.564 23.0297 71.2816 23.9479 72.4897 23.9479C73.6978 23.9479 74.4162 23.0297 74.4162 21.4557Z" fill="white"/>
<path id="Vector_9" d="M77.1641 17.8234H78.586V19.0596H78.6205C78.7167 18.6735 78.9429 18.3323 79.2611 18.0933C79.5792 17.8543 79.97 17.7322 80.3676 17.7474C80.5394 17.7468 80.7107 17.7654 80.8784 17.803V19.1975C80.6615 19.1312 80.4352 19.1008 80.2085 19.1074C79.9919 19.0986 79.776 19.1368 79.5756 19.2194C79.3751 19.3019 79.1949 19.4268 79.0473 19.5856C78.8998 19.7444 78.7883 19.9332 78.7205 20.1391C78.6528 20.345 78.6304 20.5631 78.655 20.7785V25.0867H77.1641L77.1641 17.8234Z" fill="white"/>
<path id="Vector_10" d="M87.7531 22.9537C87.5525 24.2722 86.2685 25.1771 84.6256 25.1771C82.5127 25.1771 81.2012 23.7614 81.2012 21.4902C81.2012 19.212 82.5197 17.7344 84.5629 17.7344C86.5725 17.7344 87.8362 19.1148 87.8362 21.3171V21.8279H82.7062V21.918C82.6825 22.1853 82.716 22.4546 82.8043 22.7079C82.8927 22.9613 83.034 23.193 83.2188 23.3876C83.4036 23.5822 83.6277 23.7352 83.8762 23.8365C84.1247 23.9379 84.3919 23.9851 84.6601 23.9753C85.0124 24.0083 85.366 23.9267 85.6682 23.7426C85.9704 23.5586 86.2051 23.2819 86.3374 22.9537L87.7531 22.9537ZM82.7132 20.7859H86.3445C86.3579 20.5455 86.3214 20.305 86.2374 20.0794C86.1535 19.8538 86.0238 19.648 85.8565 19.4749C85.6892 19.3018 85.4879 19.1652 85.2653 19.0735C85.0427 18.9819 84.8036 18.9373 84.5629 18.9424C84.3201 18.941 84.0795 18.9876 83.8548 19.0797C83.6301 19.1717 83.4259 19.3074 83.254 19.4788C83.082 19.6502 82.9457 19.8539 82.8529 20.0782C82.7601 20.3026 82.7126 20.5431 82.7132 20.7859Z" fill="white"/>
</g>
</g>
</g>
<g id="&#60;Group&#62;_4">
<g id="Group_5">
<path id="Vector_11" d="M30.3462 7.62653C30.6588 7.6041 30.9725 7.65132 31.2646 7.76478C31.5567 7.87824 31.82 8.05512 32.0354 8.28266C32.2509 8.5102 32.4132 8.78272 32.5106 9.08057C32.608 9.37842 32.6381 9.69417 32.5986 10.0051C32.5986 11.5343 31.7721 12.4134 30.3462 12.4134H28.6172V7.62653H30.3462ZM29.3607 11.7364H30.2632C30.4865 11.7498 30.7101 11.7132 30.9175 11.6292C31.1249 11.5453 31.311 11.4162 31.4622 11.2513C31.6134 11.0864 31.7259 10.8898 31.7916 10.6759C31.8573 10.462 31.8744 10.2362 31.8418 10.0148C31.8721 9.79433 31.8532 9.56988 31.7865 9.35756C31.7198 9.14523 31.607 8.95028 31.4561 8.78668C31.3053 8.62308 31.1201 8.49487 30.9138 8.41125C30.7076 8.32763 30.4854 8.29066 30.2632 8.30299H29.3607V11.7364Z" fill="white"/>
<path id="Vector_12" d="M33.4377 10.6048C33.415 10.3674 33.4422 10.1279 33.5175 9.90161C33.5928 9.67532 33.7145 9.46726 33.8749 9.29078C34.0353 9.1143 34.2308 8.97329 34.4489 8.8768C34.667 8.78031 34.9029 8.73047 35.1413 8.73047C35.3798 8.73047 35.6157 8.78031 35.8338 8.8768C36.0519 8.97329 36.2474 9.1143 36.4078 9.29078C36.5682 9.46726 36.6899 9.67532 36.7652 9.90161C36.8405 10.1279 36.8677 10.3674 36.8449 10.6048C36.8681 10.8425 36.8412 11.0823 36.7662 11.309C36.6911 11.5356 36.5694 11.7441 36.409 11.9209C36.2485 12.0977 36.0529 12.239 35.8345 12.3357C35.6162 12.4324 35.3801 12.4824 35.1413 12.4824C34.9026 12.4824 34.6665 12.4324 34.4481 12.3357C34.2298 12.239 34.0342 12.0977 33.8737 11.9209C33.7133 11.7441 33.5916 11.5356 33.5165 11.309C33.4414 11.0823 33.4146 10.8425 33.4377 10.6048ZM36.1116 10.6048C36.1116 9.82177 35.7599 9.36385 35.1425 9.36385C34.5228 9.36385 34.1742 9.82177 34.1742 10.6048C34.1742 11.3941 34.5228 11.8485 35.1425 11.8485C35.7599 11.8485 36.1116 11.391 36.1116 10.6048Z" fill="white"/>
<path id="Vector_13" d="M41.3757 12.4132H40.6361L39.8895 9.75266H39.8331L39.0896 12.4132H38.3571L37.3613 8.80078H38.0844L38.7316 11.5573H38.7849L39.5276 8.80078H40.2115L40.9542 11.5573H41.0106L41.6546 8.80078H42.3675L41.3757 12.4132Z" fill="white"/>
<path id="Vector_14" d="M43.2051 8.79985H43.8914V9.37372H43.9447C44.035 9.16761 44.1875 8.99483 44.3807 8.87946C44.5739 8.76409 44.7984 8.71188 45.0227 8.73012C45.1984 8.7169 45.3749 8.74341 45.5391 8.80766C45.7032 8.87192 45.8508 8.97228 45.9709 9.10132C46.091 9.23036 46.1805 9.38476 46.2328 9.55308C46.2851 9.72141 46.2988 9.89935 46.273 10.0737V12.4123H45.5601V10.2527C45.5601 9.67222 45.3078 9.38352 44.7806 9.38352C44.6612 9.37796 44.5421 9.39827 44.4314 9.44306C44.3206 9.48785 44.2208 9.55606 44.1389 9.64301C44.057 9.72996 43.9948 9.8336 43.9567 9.94682C43.9186 10.06 43.9054 10.1802 43.918 10.299V12.4123H43.2051L43.2051 8.79985Z" fill="white"/>
<path id="Vector_15" d="M47.4082 7.39062H48.1211V12.4133H47.4082V7.39062Z" fill="white"/>
<path id="Vector_16" d="M49.1116 10.6049C49.0889 10.3675 49.116 10.1279 49.1913 9.90164C49.2666 9.67534 49.3884 9.46727 49.5488 9.29079C49.7092 9.11431 49.9048 8.9733 50.1229 8.87681C50.341 8.78031 50.5769 8.73047 50.8154 8.73047C51.0538 8.73047 51.2897 8.78031 51.5078 8.87681C51.7259 8.9733 51.9215 9.11431 52.0819 9.29079C52.2423 9.46727 52.3641 9.67534 52.4394 9.90164C52.5147 10.1279 52.5418 10.3675 52.5191 10.6049C52.5423 10.8425 52.5154 11.0824 52.4403 11.3091C52.3652 11.5357 52.2435 11.7441 52.083 11.921C51.9226 12.0978 51.7269 12.2391 51.5086 12.3358C51.2903 12.4325 51.0541 12.4824 50.8154 12.4824C50.5766 12.4824 50.3404 12.4325 50.1221 12.3358C49.9038 12.2391 49.7081 12.0978 49.5477 11.921C49.3872 11.7441 49.2655 11.5357 49.1904 11.3091C49.1153 11.0824 49.0884 10.8425 49.1116 10.6049ZM51.7854 10.6049C51.7854 9.82184 51.4337 9.36392 50.8163 9.36392C50.1966 9.36392 49.848 9.82184 49.848 10.6049C49.848 11.3942 50.1966 11.8486 50.8163 11.8486C51.4337 11.8486 51.7854 11.3911 51.7854 10.6049Z" fill="white"/>
<path id="Vector_17" d="M53.2695 11.391C53.2695 10.7408 53.7537 10.3659 54.6131 10.3126L55.5917 10.2562V9.94441C55.5917 9.56287 55.3394 9.34743 54.8521 9.34743C54.4541 9.34743 54.1783 9.49354 54.0992 9.74894H53.409C53.4818 9.12846 54.0655 8.73047 54.885 8.73047C55.7907 8.73047 56.3015 9.18133 56.3015 9.94441V12.4126H55.6152V11.905H55.5588C55.4443 12.0871 55.2835 12.2355 55.0929 12.3352C54.9022 12.4348 54.6886 12.4821 54.4737 12.4722C54.322 12.4879 54.1688 12.4718 54.0237 12.4247C53.8787 12.3776 53.7452 12.3006 53.6317 12.1988C53.5183 12.0969 53.4274 11.9724 53.3651 11.8333C53.3027 11.6942 53.2701 11.5435 53.2695 11.391ZM55.5917 11.0824V10.7803L54.7095 10.8367C54.212 10.87 53.9864 11.0393 53.9864 11.3577C53.9864 11.6829 54.2684 11.8721 54.6563 11.8721C54.7699 11.8836 54.8847 11.8721 54.9938 11.8383C55.1029 11.8046 55.2041 11.7492 55.2914 11.6755C55.3786 11.6018 55.4502 11.5113 55.5018 11.4094C55.5534 11.3075 55.5839 11.1963 55.5917 11.0824Z" fill="white"/>
<path id="Vector_18" d="M57.2383 10.6055C57.2383 9.46402 57.8251 8.7409 58.7378 8.7409C58.9636 8.7305 59.1876 8.78457 59.3838 8.8968C59.58 9.00903 59.7401 9.17478 59.8456 9.37467H59.8989V7.39062H60.6118V12.4133H59.9286V11.8425H59.8722C59.7586 12.0411 59.5929 12.2048 59.3929 12.3159C59.1929 12.427 58.9664 12.4812 58.7378 12.4728C57.8188 12.4729 57.2383 11.7497 57.2383 10.6055ZM57.9747 10.6055C57.9747 11.3717 58.3359 11.8328 58.94 11.8328C59.5408 11.8328 59.9122 11.3651 59.9122 10.6086C59.9122 9.85574 59.5369 9.38137 58.94 9.38137C58.3398 9.38137 57.9747 9.84555 57.9747 10.6055Z" fill="white"/>
<path id="Vector_19" d="M63.5627 10.6048C63.54 10.3674 63.5672 10.1279 63.6425 9.90161C63.7178 9.67532 63.8395 9.46726 63.9999 9.29078C64.1603 9.1143 64.3558 8.97329 64.5739 8.8768C64.792 8.78031 65.0279 8.73047 65.2663 8.73047C65.5048 8.73047 65.7407 8.78031 65.9588 8.8768C66.1769 8.97329 66.3724 9.1143 66.5328 9.29078C66.6932 9.46726 66.8149 9.67532 66.8902 9.90161C66.9655 10.1279 66.9927 10.3674 66.9699 10.6048C66.9931 10.8425 66.9662 11.0823 66.8912 11.309C66.8161 11.5356 66.6944 11.7441 66.534 11.9209C66.3735 12.0977 66.1779 12.239 65.9595 12.3357C65.7412 12.4324 65.5051 12.4824 65.2663 12.4824C65.0276 12.4824 64.7914 12.4324 64.5731 12.3357C64.3548 12.239 64.1592 12.0977 63.9987 11.9209C63.8383 11.7441 63.7166 11.5356 63.6415 11.309C63.5664 11.0823 63.5396 10.8425 63.5627 10.6048ZM66.2366 10.6048C66.2366 9.82177 65.8849 9.36385 65.2675 9.36385C64.6478 9.36385 64.2992 9.82177 64.2992 10.6048C64.2992 11.3941 64.6478 11.8485 65.2675 11.8485C65.8849 11.8485 66.2366 11.391 66.2366 10.6048Z" fill="white"/>
<path id="Vector_20" d="M67.9258 8.79985H68.6121V9.37372H68.6654C68.7557 9.16761 68.9082 8.99483 69.1014 8.87946C69.2946 8.76409 69.5191 8.71188 69.7434 8.73012C69.9191 8.7169 70.0956 8.74341 70.2598 8.80766C70.4239 8.87192 70.5715 8.97228 70.6916 9.10132C70.8117 9.23036 70.9012 9.38476 70.9535 9.55308C71.0058 9.72141 71.0195 9.89935 70.9937 10.0737V12.4123H70.2808V10.2527C70.2808 9.67222 70.0286 9.38352 69.5013 9.38352C69.382 9.37796 69.2628 9.39827 69.1521 9.44306C69.0413 9.48785 68.9415 9.55606 68.8596 9.64301C68.7777 9.72996 68.7155 9.8336 68.6774 9.94682C68.6393 10.06 68.6261 10.1802 68.6387 10.299V12.4123H67.9258V8.79985Z" fill="white"/>
<path id="Vector_21" d="M75.0216 7.90234V8.81819H75.8042V9.4187H75.0216V11.2762C75.0216 11.6546 75.1775 11.8203 75.5324 11.8203C75.6232 11.8201 75.714 11.8146 75.8042 11.8039V12.3977C75.6762 12.4206 75.5465 12.4328 75.4164 12.4342C74.6236 12.4342 74.3079 12.1553 74.3079 11.4588V9.41867H73.7344V8.81816H74.3079V7.90234H75.0216Z" fill="white"/>
<path id="Vector_22" d="M76.7793 7.39062H77.486V9.38136H77.5424C77.6371 9.17332 77.7938 8.99956 77.9909 8.88376C78.188 8.76796 78.416 8.71574 78.6438 8.73423C78.8187 8.72472 78.9935 8.75391 79.1558 8.81973C79.3181 8.88555 79.4638 8.98637 79.5826 9.115C79.7015 9.24363 79.7905 9.3969 79.8432 9.56387C79.896 9.73085 79.9113 9.90741 79.888 10.081V12.4133H79.1743V10.2568C79.1743 9.67984 78.9056 9.38762 78.4018 9.38762C78.2793 9.37757 78.1561 9.39441 78.0407 9.43697C77.9254 9.47954 77.8207 9.54679 77.7341 9.63402C77.6474 9.72125 77.5809 9.82636 77.5391 9.942C77.4974 10.0576 77.4814 10.181 77.4923 10.3035V12.4133H76.7793L76.7793 7.39062Z" fill="white"/>
<path id="Vector_23" d="M84.0444 11.4373C83.9475 11.7675 83.7377 12.0531 83.4515 12.2441C83.1653 12.4352 82.8211 12.5195 82.4791 12.4824C82.2411 12.4887 82.0045 12.4431 81.7859 12.3488C81.5673 12.2546 81.3718 12.1138 81.2131 11.9364C81.0543 11.759 80.936 11.5492 80.8665 11.3215C80.7969 11.0938 80.7778 10.8537 80.8103 10.6178C80.7786 10.3813 80.7981 10.1407 80.8675 9.91228C80.9369 9.6839 81.0545 9.4731 81.2125 9.29414C81.3704 9.11518 81.565 8.97224 81.7829 8.875C82.0009 8.77776 82.2372 8.72849 82.4759 8.73053C83.4811 8.73053 84.0875 9.41725 84.0875 10.5516V10.8004H81.5366V10.8403C81.5254 10.9729 81.5421 11.1064 81.5855 11.2321C81.6289 11.3579 81.6981 11.4731 81.7887 11.5706C81.8793 11.668 81.9892 11.7455 82.1115 11.7979C82.2337 11.8504 82.3656 11.8767 82.4986 11.8752C82.6692 11.8957 82.842 11.865 82.995 11.787C83.148 11.709 83.2744 11.5873 83.3581 11.4373L84.0444 11.4373ZM81.5366 10.2731H83.3612C83.3702 10.1519 83.3537 10.0301 83.3128 9.91561C83.2719 9.80112 83.2076 9.69644 83.1238 9.60831C83.0401 9.52017 82.9388 9.45053 82.8266 9.40386C82.7143 9.35719 82.5935 9.33452 82.472 9.33731C82.3487 9.33576 82.2263 9.35891 82.1121 9.4054C81.9979 9.45188 81.8941 9.52076 81.807 9.60798C81.7198 9.69519 81.6509 9.79898 81.6045 9.91321C81.5581 10.0274 81.535 10.1498 81.5366 10.2731Z" fill="white"/>
</g>
</g>
</g>
</g>
<defs>
<clipPath id="clip0_4015_4636">
<rect width="96" height="32.0898" fill="white" transform="translate(0 0.621094)"/>
</clipPath>
</defs>
</svg>
