<svg width="246" height="153" viewBox="0 0 246 153" fill="none" xmlns="http://www.w3.org/2000/svg">
<g id="Grow_your_business">
<path id="Background-46" d="M9.71926 56.2931C29.076 35.2736 63.3266 77.2258 100.061 43.698C120.307 25.218 137.254 25.4155 165.111 26.1975C195.029 27.0388 203.378 33.0816 205.345 58.9986C206.099 68.9712 196.952 77.4233 202.497 102.629C210.361 138.397 178.571 134.368 144.707 129.534C109.378 124.49 67.4579 116.69 50.143 123.89C-3.65789 145.834 -8.27098 75.8276 9.71926 56.2931Z" fill="#F2F5F8" fill-opacity="0.05"/>
<g id="object">
<path id="Vector" d="M237.223 86.1579L227.547 76.6709L227.254 76.6677C226.712 75.5068 226.168 74.3493 225.627 73.1885C222.763 67.0684 219.902 60.945 217.038 54.8249C214.519 49.4405 212.32 40.2611 205.103 40.137L136.498 38.94C128.878 38.8083 121.858 43.3046 118.463 50.4928L106.643 75.5223L105.501 75.5102L82.3914 82.3479C74.2574 86.1531 68.9993 94.259 68.8433 103.238L68.6063 116.731L242.798 119.773L243.134 100.577C243.229 95.1647 241.091 89.9486 237.226 86.1577L237.223 86.1579Z" fill="#9EA6AD"/>
<path id="Vector_2" d="M170.427 73.7345L216.201 74.5339L206.252 48.7475C205.757 47.4646 204.581 46.6159 203.263 46.5918L170.91 46.0285L170.427 73.7345Z" fill="#D1E7F5"/>
<path id="Vector_3" d="M163.08 45.8911L136.861 45.4323C131.304 45.3349 126.185 48.6145 123.71 53.857L114.784 72.7615L162.597 73.5971L163.08 45.8911Z" fill="#D1E7F5"/>
<g id="Group" opacity="0.2">
<path id="Vector_4" d="M207.402 54.9623C208.004 55.2983 208.606 55.6374 209.211 55.9732L206.49 48.9192C205.996 47.6364 204.819 46.7877 203.501 46.7635L192.295 46.5664C197.314 49.3954 202.372 52.1559 207.405 54.962L207.402 54.9623Z" fill="#FFFFF1"/>
<path id="Vector_5" d="M208.18 61.0854C199.857 56.3923 191.111 51.0787 182.879 46.2322L172.363 46.2148C179.461 52.5207 188.473 58.1735 196.429 63.2587C201.212 66.3172 206.102 69.2118 211.112 71.8792C212.755 72.7527 214.477 73.5517 216.202 74.3567L211.895 63.1936C210.661 62.4864 209.42 61.7797 208.18 61.0823L208.18 61.0854Z" fill="#FFFFF1"/>
<path id="Vector_6" d="M154.539 62.322C151.047 59.9758 147.421 57.8049 143.772 55.7105C140.078 53.5883 136.33 51.4575 132.45 49.6922C131.172 49.1099 129.878 48.5662 128.586 48.0161C126.547 49.4583 124.847 51.4462 123.709 53.8542L123.623 54.0384C127.532 56.8715 131.467 59.6715 135.346 62.5255C141.086 66.7484 147.445 69.9804 153.661 73.4382L162.594 73.5946L162.681 68.5756C159.969 66.4899 157.382 64.2358 154.536 62.3253L154.539 62.322Z" fill="#FFFFF1"/>
</g>
<path id="Vector_7" opacity="0.1" d="M134.55 117.881C134.717 117.101 134.81 116.299 134.825 115.481C134.964 107.42 127.371 100.748 117.861 100.581C114.148 100.516 110.696 101.458 107.854 103.103C113.695 104.439 118.813 107.46 122.961 111.371C125.073 113.364 126.709 115.485 127.96 117.723L134.55 117.878L134.55 117.881Z" fill="black"/>
<path id="Vector_8" opacity="0.1" d="M224.75 119.452C224.914 118.673 225.004 117.871 225.018 117.053C225.158 108.992 217.746 102.322 208.464 102.161C204.838 102.098 201.467 103.04 198.691 104.686C204.395 106.021 209.388 109.039 213.439 112.95C215.502 114.943 217.096 117.062 218.319 119.298L224.753 119.452L224.75 119.452Z" fill="black"/>
<path id="Vector_9" d="M125.633 125.837C131.157 119.431 130.441 109.759 124.034 104.235C117.628 98.7109 107.956 99.4265 102.432 105.833C96.9078 112.24 97.6234 121.912 104.03 127.436C110.437 132.96 120.109 132.244 125.633 125.837Z" fill="#5A626A"/>
<path id="Vector_10" d="M120.207 121.964C123.588 118.555 123.566 113.05 120.157 109.668C116.748 106.287 111.243 106.309 107.861 109.718C104.48 113.127 104.502 118.632 107.911 122.014C111.32 125.395 116.825 125.373 120.207 121.964Z" fill="#FFFFF1"/>
<path id="Vector_11" opacity="0.1" d="M115.453 121.918C117.114 121.82 118.798 121.265 119.994 120.104C119.454 121.613 118.13 122.818 116.578 123.214C116.051 123.35 115.506 123.396 114.962 123.424C114.387 123.454 113.804 123.46 113.236 123.368C111.702 123.119 110.311 122.118 109.586 120.746C109.825 121.19 111.522 121.532 111.943 121.617C113.095 121.846 114.276 121.99 115.453 121.918Z" fill="black"/>
<path id="Vector_12" d="M218.822 122.922C221.86 115.027 217.923 106.164 210.028 103.126C202.133 100.088 193.27 104.025 190.232 111.92C187.193 119.815 191.131 128.678 199.025 131.716C206.92 134.754 215.784 130.817 218.822 122.922Z" fill="#5A626A"/>
<path id="Vector_13" d="M206.446 125.901C211.129 124.837 214.062 120.179 212.998 115.497C211.934 110.814 207.276 107.881 202.593 108.945C197.911 110.009 194.978 114.667 196.042 119.349C197.106 124.032 201.764 126.965 206.446 125.901Z" fill="#FFFFF1"/>
<path id="Vector_14" opacity="0.1" d="M205.943 123.497C207.604 123.399 209.288 122.844 210.484 121.682C209.944 123.191 208.62 124.396 207.068 124.792C206.541 124.928 205.996 124.974 205.452 125.002C204.877 125.029 204.294 125.038 203.726 124.946C202.192 124.697 200.802 123.696 200.076 122.324C200.315 122.768 202.012 123.11 202.433 123.195C203.586 123.425 204.766 123.568 205.943 123.497Z" fill="black"/>
<path id="Vector_15" opacity="0.1" d="M157.403 81.3362L151.36 81.2308C150.73 81.2198 150.21 81.722 150.199 82.3524L150.176 83.6493C150.165 84.2798 150.667 84.7997 151.298 84.8107L157.341 84.916C157.971 84.927 158.491 84.4249 158.502 83.7945L158.525 82.4975C158.536 81.8671 158.034 81.3472 157.403 81.3362Z" fill="black"/>
</g>
<g id="Person-38">
<path id="Shape-3602" d="M44.3237 152.677C57.5794 152.677 68.3252 149.786 68.3252 146.219C68.3252 142.653 57.5794 139.762 44.3237 139.762C31.0681 139.762 20.3223 142.653 20.3223 146.219C20.3223 149.786 31.0681 152.677 44.3237 152.677Z" fill="#36323A"/>
<path id="Shape-3603" d="M65.6942 74.1028C65.5164 74.9402 62.4713 75.3233 61.7999 74.482C60.0977 72.3413 60.3544 70.6391 60.0977 70.4929L61.48 68.0798C61.796 67.5268 62.1633 69.3081 64.3118 70.7497C64.8687 71.1249 66.2866 71.3303 65.6942 74.1028Z" fill="#FFDFAE"/>
<path id="Shape-3604" d="M75.4549 56.4859C75.8814 57.2284 73.2905 58.1289 72.8877 58.1566C72.5085 58.1842 68.9973 56.6439 68.7051 56.6439V54.4993C68.7051 53.8634 70.5614 52.9076 71.3829 53.9661L75.4588 56.4819L75.4549 56.4859Z" fill="#FFDFAE"/>
<path id="Shape-3605" d="M54.7164 145.77L46.0471 145.94L44.4199 90.4799L53.7685 90.1719L55.1153 100.081L49.9888 141.808L55.1153 144.541L54.7204 145.77H54.7164Z" fill="#F4CA92"/>
<path id="Shape-3606" d="M55.1101 144.17C49.1858 145.015 47.8271 142.515 45.955 143.348C45.6311 143.495 45.6588 145.987 45.6588 145.987C45.6588 146.879 46.0932 147.602 46.6304 147.602L57.8827 146.923C58.2816 146.559 55.5603 144.107 55.1101 144.17Z" fill="#5A626A"/>
<path id="Shape-3607" d="M41.8275 146.599L33.1582 146.769L34.4932 103.513L33.4465 91.2461L48.8498 91.7003L46.5512 97.5693L37.0959 142.638L42.2224 145.371L41.8275 146.603V146.599Z" fill="#FFDFAE"/>
<path id="Shape-3608" d="M50.1371 8.62958C49.3196 5.71481 45.7729 4.82616 41.1953 5.88069C36.6178 6.93522 31.4597 11.5839 32.5813 15.5966C33.707 19.6094 35.4922 20.9996 39.1692 22.0778C43.6638 23.397 51.2627 12.6423 50.1371 8.62563V8.62958Z" fill="#694A52"/>
<path id="Shape-3609" d="M30.4254 30.1978C31.5826 34.325 34.6158 34.0881 36.0258 31.7341C37.9414 28.535 38.131 26.2087 36.9737 22.0814C35.8165 17.9541 30.8045 10.7343 32.3014 19.2101C33.5969 26.5444 29.2681 26.0665 30.4254 30.1978Z" fill="#694A52"/>
<path id="Shape-3610" d="M60.197 71.5964C60.197 71.5964 52.7047 59.0487 51.5277 55.8298C49.1027 49.1748 48.6445 28.9609 48.6445 28.9609L52.1833 30.0313C52.1833 30.0313 53.7987 45.1818 55.2245 50.5137C56.1447 53.9656 61.8045 67.9905 61.8045 67.9905L60.197 71.5964Z" fill="#D62F2F"/>
<path id="Shape-3611" d="M56.243 98.7585H32.838C29.5124 98.7585 34.5165 69.7174 34.5165 69.7174C34.5165 65.0332 50.9862 63.8009 54.6632 69.0025C57.2423 72.644 59.4698 98.7585 56.243 98.7585Z" fill="#5D5D7D"/>
<path id="Shape-3612" d="M57.4726 71.5982H29.8375C43.4319 54.8008 22.8547 36.2971 31.0382 28.8838C36.2555 24.1561 48.2464 25.2265 51.9432 28.9588C54.3445 31.3838 54.937 33.8405 56.422 36.9764C58.3494 41.0444 56.5286 46.0722 56.422 50.6103C56.2166 59.3309 57.4726 71.5982 57.4726 71.5982Z" fill="#D62F2F"/>
<path id="Shape-3613" d="M40.1953 17.4883L46.4751 21.7854L46.5738 26.355C47.0912 26.2366 50.1798 34.3884 50.1798 34.3884L40.1993 25.7784V17.4883H40.1953Z" fill="#FFDFAE"/>
<path id="Shape-3614" d="M46.2631 16.0938C46.2631 16.0938 42.4794 16.5164 40.082 17.8829C40.082 18.112 40.082 18.9414 40.082 19.3363C40.1136 20.4106 40.7693 21.3704 41.7566 21.789C43.218 22.4762 44.782 22.9265 46.3855 23.1161C46.3737 21.319 46.2631 16.0977 46.2631 16.0977V16.0938Z" fill="#F4CA92"/>
<path id="Shape-3615" d="M39.4376 17.645C39.8563 19.1301 41.1438 19.1498 42.4788 20.3228C44.8683 22.3529 48.0714 23.1468 51.1323 22.4635C53.502 21.9185 51.705 19.8528 51.9459 18.4113C52.1039 17.4634 54.8922 17.6924 53.4586 16.4641C52.9254 16.0099 51.9617 14.7974 51.1046 13.7784C50.3187 12.8463 50.5912 9.88811 49.6314 9.11399C48.7191 8.37542 47.8502 9.07845 46.3375 7.98047C46.689 8.45837 46.7759 9.0824 46.5745 9.63928C45.121 13.5454 42.2971 16.6497 42.2971 16.6497C40.6422 15.062 38.9123 15.7769 39.4376 17.645Z" fill="#FFDFAE"/>
<path id="Shape-3616" d="M56.1042 55.8275C56.1042 55.8275 56.669 47.0121 56.3767 44.0894C55.9976 40.2741 51.3687 28.9587 51.3687 28.9587L47.8457 28.0977L53.6634 40.2781L56.1042 55.8275Z" fill="#FF4747"/>
<path id="Shape-3617" d="M52.0883 36.9744C51.3537 35.2287 49.3354 31.6504 49.5369 30.4576C49.916 28.2221 53.1468 28.1945 51.8987 28.1392C50.4413 28.08 47.6055 25.2916 46.5312 24.707C46.5431 25.0309 46.5312 26.3461 46.5312 26.3461C47.5502 27.0768 47.1237 28.8857 48.668 31.4529C50.0977 33.8305 52.0883 36.9704 52.0883 36.9704V36.9744Z" fill="white"/>
<path id="Shape-3618" d="M56.0428 42.1365C56.5997 43.428 56.3745 47.2196 56.3745 47.2196L55.8453 54.1747C55.3872 52.8793 54.2971 42.1128 53.5822 41.2755C52.1209 39.5693 45.5054 34.5336 45.5054 34.5336L40.9199 30.9434L43.3765 27.1953C43.3765 27.1953 52.7094 34.3914 56.0467 42.1365H56.0428Z" fill="#FF4747"/>
<path id="Shape-3619" d="M47.4123 30.736C43.0006 26.0241 38.1822 30.886 38.5811 29.1917C38.8852 27.9002 38.044 27.6948 37.6924 26.6047C37.4397 25.8306 39.845 24.1797 39.845 24.1797C41.4682 24.1718 45.5284 28.3781 47.1793 30.262L47.4123 30.736Z" fill="white"/>
<path id="Shape-3620" d="M51.4924 63.7941C50.1851 65.6583 41.9819 66.3139 41.9819 66.3139L41.4961 62.7119L50.9711 60.8438C50.9711 60.8438 51.84 63.3043 51.4924 63.798V63.7941Z" fill="#FF4747"/>
<path id="Shape-3621" d="M69.2605 56.826L68.9919 54.0139L45.1879 51.8101C44.2045 41.0436 38.9279 32.5797 36.574 30.5891C35.5076 29.6846 32.1268 27.8994 31.0367 28.8868C25.3809 34.0094 36.0763 50.2816 40.1957 55.8307C43.6318 60.4556 69.2605 56.826 69.2605 56.826Z" fill="#FF4747"/>
<path id="Shape-3622" d="M42.2273 145.002C36.3029 145.847 34.9443 143.347 33.0722 144.18C32.7483 144.327 32.776 146.819 32.776 146.819C32.776 147.711 33.2104 148.434 33.7476 148.434L44.9999 147.755C45.3988 147.395 42.6775 144.939 42.2273 145.002Z" fill="#5A626A"/>
</g>
<g id="Person-39">
<path id="Shape-3623" d="M117.529 149.903C130.784 149.903 141.53 147.012 141.53 143.446C141.53 139.879 130.784 136.988 117.529 136.988C104.273 136.988 93.5273 139.879 93.5273 143.446C93.5273 147.012 104.273 149.903 117.529 149.903Z" fill="#36323A"/>
<path id="Shape-3624" d="M71.395 55.1203L74.4875 57.0714C74.4875 57.0714 76.1464 57.8337 77.268 57.3124L77.0903 54.6977C76.0555 54.9821 74.0768 52.8967 72.9472 53.193C72.6234 53.2759 68.6659 54.0145 69.2623 54.8715C69.6138 55.3771 71.395 55.1164 71.395 55.1164V55.1203Z" fill="#F6B89F"/>
<path id="Shape-3625" d="M109.378 137.391L114.35 137.008C114.35 137.008 118.62 84.123 117.391 70.7695H100.768L109.378 137.391Z" fill="#7F7E88"/>
<path id="Shape-3626" d="M127.833 137.007H132.842C132.842 137.007 132.02 83.7792 130.788 70.4297H114.164L127.837 137.007H127.833Z" fill="#7F7E88"/>
<path id="Shape-3627" d="M125.777 139.938C126.377 139.338 127.835 137.004 127.835 137.004H132.843C134.024 138.363 133.81 145.262 133.81 145.262H117.744C117.301 142.308 123.976 141.728 125.777 139.938Z" fill="#5A626A"/>
<path id="Shape-3628" d="M107.285 139.938C107.885 139.338 109.343 137.004 109.343 137.004H114.351C115.532 138.363 115.318 145.262 115.318 145.262H99.2515C98.8091 142.308 105.484 141.728 107.285 139.938Z" fill="#5A626A"/>
<path id="Shape-3629" d="M77.0859 54.6995L95.3408 50.4892C95.3408 50.4892 98.0897 31.2391 103.291 28.7746C104.369 28.2651 106.652 30.7493 107.241 32.499C108.738 36.9344 104.034 45.8525 98.9783 54.5889C95.9609 59.7983 80.7788 57.1877 77.2676 57.3101L77.0899 54.6955L77.0859 54.6995Z" fill="#64485D"/>
<path id="Shape-3630" d="M126.665 70.8635H101.005C101.005 70.8635 98.5679 35.8625 105.823 26.6521C109.856 21.5335 118.478 19.2625 123.016 23.9151C131.175 32.2921 126.669 70.8635 126.669 70.8635H126.665Z" fill="#F2F5F8"/>
<path id="Shape-3631" d="M110.527 72.7761C110.855 61.3895 110.433 61.5633 110.907 52.7795C111.215 47.0605 111.436 43.4901 111.973 37.7948C112.119 36.2703 112.554 34.7497 112.411 33.2252C111.392 22.1901 112.001 22.5337 112.001 22.5337C111.55 22.3086 103.375 28.0987 103.375 28.0987C96.937 35.9148 103.406 50.777 98.9434 72.8867L110.52 72.7761H110.527Z" fill="#7D5C69"/>
<path id="Shape-3632" d="M128.241 25.3485C126.222 23.5198 124.307 22.7378 120.511 22.4258C120.472 27.6668 117.541 32.5959 116.909 37.7935C116.261 43.1254 115.855 48.4929 115.476 53.8524C114.832 62.9404 112.873 63.9001 113.9 72.8853L132.81 71.6175C132.81 71.6175 136.629 32.9356 128.241 25.3445V25.3485Z" fill="#7D5C69"/>
<path id="Shape-3633" d="M118.758 12.4649L109.852 20.1428L112.036 22.4415C112.036 22.4415 112.091 24.4518 112.561 24.8665C114.054 26.1778 120.037 24.2188 120.037 24.2188L118.754 12.4609L118.758 12.4649Z" fill="#F6B89F"/>
<path id="Shape-3634" d="M108.288 24.0822C108.679 23.1936 112.336 22.2852 112.336 22.2852C111.657 22.8499 112.629 27.7592 112.803 35.2713C113.118 48.8736 110.678 61.2831 110.678 61.2831C110.678 61.2831 108.968 40.8876 107.309 31.2901C107.159 30.4133 109.896 31.2546 109.896 31.2546C109.896 31.2546 108.217 28.9836 108.249 28.4544C108.379 26.1557 107.818 25.1525 108.288 24.0822Z" fill="#64485D"/>
<path id="Shape-3635" d="M123.011 23.9178C122.857 22.9541 119.662 20.7305 119.662 20.7305C119.962 22.2826 117.36 27.188 115.827 34.5342C113.133 47.4295 114.314 62.0626 114.314 62.0626C114.314 62.0626 119.733 44.5819 122.131 32.1289C122.3 31.256 119.638 31.414 119.638 31.414C119.638 31.414 121.826 29.6604 121.929 29.1391C122.375 26.8839 123.197 25.075 123.011 23.9138V23.9178Z" fill="#64485D"/>
<g id="Laptop-5">
<path id="Shape-3636" d="M140.12 80.0893L115.648 87.5777C114.404 87.9726 113.077 87.2854 112.682 86.0453C112.642 85.9189 112.615 85.7925 112.595 85.6621L109.475 68.5092C109.222 66.9965 110.099 65.5234 111.544 65.0257L136.016 57.5373C137.256 57.1424 138.587 57.8296 138.982 59.0698C139.022 59.1962 139.053 59.3225 139.069 59.4529L142.189 76.6058C142.442 78.1185 141.569 79.5917 140.12 80.0893Z" fill="#D8D6DD"/>
<path id="Shape-3637" d="M126.173 74.9085C127.41 74.9085 128.412 73.9059 128.412 72.6691C128.412 71.4323 127.41 70.4297 126.173 70.4297C124.936 70.4297 123.934 71.4323 123.934 72.6691C123.934 73.9059 124.936 74.9085 126.173 74.9085Z" fill="white"/>
</g>
<path id="Path_39" d="M131.113 83.9748C132.519 83.7299 135.169 82.8175 134.865 81.688C134.091 78.8206 132.376 77.3474 132.416 77.0314L129.339 76.6444C128.636 76.5575 129.28 77.9793 129.134 80.7717C129.098 81.4944 128.008 84.508 131.113 83.9669V83.9748Z" fill="#F6B89F"/>
<path id="Shape-3638" d="M128.806 79.1087C128.806 79.1087 123.218 47.9585 125.927 36.5324C126.531 33.981 128.917 27.4366 130.386 29.4193C134.707 35.2488 133.929 62.3428 133.68 78.3188L128.806 79.1126V79.1087Z" fill="#64485D"/>
<path id="Shape-3639" d="M111.371 21.7362C111.371 21.7362 116.119 20.7054 119.085 18.4107C119.085 18.4107 118.883 13.0788 116.64 12.119C114.219 11.0843 109.685 14.4651 107.99 16.0962C106.62 17.4154 111.371 21.7362 111.371 21.7362Z" fill="#EFA88F"/>
<path id="Shape-3640" d="M105.818 14.6403C105.818 15.6475 107.355 15.2367 107.382 16.0227C107.694 24.1785 110.009 20.7661 112.173 19.597C115.274 17.9224 118.528 14.5377 118.528 9.46642C118.528 4.39519 112.548 2.91016 109.574 2.91016C108.22 2.91016 108.125 5.88022 107.256 8.3724C106.802 9.6797 107.762 10.2445 107.382 11.5044C106.897 13.1119 105.818 13.0921 105.818 14.6364V14.6403Z" fill="#F6B89F"/>
<path id="Shape-3641" d="M122.661 10.9284C122.104 14.0841 121.686 18.7644 119.462 18.9263C118.34 19.0092 114.525 14.6963 114.711 13.2824C114.79 12.686 115.923 13.156 115.291 11.2088C114.88 9.93709 113.336 11.2602 113.482 10.1701C113.921 6.96702 114.126 7.1724 113.395 6.55232C111.413 4.87375 105.512 6.18501 106.195 4.00485C107.013 1.38629 112.057 0 116.464 0C120.872 0 123.569 5.76241 122.661 10.9245V10.9284Z" fill="#37474F"/>
<g id="Shape-3642">
<path id="Shape-3643" d="M69.6885 49.1453L69.4336 49.332L71.2586 51.8237L71.5135 51.637L69.6885 49.1453Z" fill="#37474F"/>
<path id="Shape-3644" d="M76.8535 51.1187L73.9102 52.0547L74.0059 52.3558L76.9492 51.4199L76.8535 51.1187Z" fill="#37474F"/>
<path id="Shape-3645" d="M73.7344 48.2708L72.9199 51.25L73.2247 51.3333L74.0392 48.3541L73.7344 48.2708Z" fill="#37474F"/>
</g>
</g>
</g>
</svg>
