<svg width="16" height="16" viewBox="0 0 16 16" fill="none" xmlns="http://www.w3.org/2000/svg">
<g id="info-circle">
<path id="Solid" fill-rule="evenodd" clip-rule="evenodd" d="M7.99935 0.664062C3.94926 0.664062 0.666016 3.94731 0.666016 7.9974C0.666016 12.0475 3.94926 15.3307 7.99935 15.3307C12.0494 15.3307 15.3327 12.0475 15.3327 7.9974C15.3327 3.94731 12.0494 0.664062 7.99935 0.664062ZM7.99935 4.66406C7.63116 4.66406 7.33268 4.96254 7.33268 5.33073C7.33268 5.69892 7.63116 5.9974 7.99935 5.9974H8.00602C8.37421 5.9974 8.67268 5.69892 8.67268 5.33073C8.67268 4.96254 8.37421 4.66406 8.00602 4.66406H7.99935ZM8.66602 7.9974C8.66602 7.62921 8.36754 7.33073 7.99935 7.33073C7.63116 7.33073 7.33268 7.62921 7.33268 7.9974V10.6641C7.33268 11.0323 7.63116 11.3307 7.99935 11.3307C8.36754 11.3307 8.66602 11.0323 8.66602 10.6641V7.9974Z" fill="#A8AAAC"/>
</g>
</svg>
