<svg width="15" height="15" viewBox="0 0 15 15" fill="none" xmlns="http://www.w3.org/2000/svg">
<path id="Vector" d="M4.78986 0.809776C4.15172 0.835823 3.59171 0.940011 3.10984 1.12234C2.65402 1.30467 2.2503 1.57165 1.89867 1.92328C1.54703 2.27491 1.28005 2.68515 1.09773 3.15399C0.915398 3.62283 0.811211 4.18284 0.785164 4.83401C0.759117 5.43309 0.746094 6.38054 0.746094 7.67637C0.746094 8.9722 0.759117 9.92616 0.785164 10.5383C0.824234 11.1764 0.934933 11.7364 1.11726 12.2183C1.29959 12.6741 1.56657 13.0778 1.9182 13.4295C2.26983 13.7811 2.68007 14.0481 3.14891 14.2304C3.61776 14.4127 4.17125 14.5169 4.8094 14.543C5.4215 14.569 6.37546 14.582 7.67129 14.582C8.96712 14.582 9.91457 14.569 10.5136 14.543C11.1648 14.5039 11.7248 14.3932 12.1937 14.2109C12.6625 14.0285 13.0728 13.7616 13.4244 13.4099C13.776 13.0583 14.0365 12.6481 14.2058 12.1792C14.4011 11.7104 14.5118 11.1569 14.5379 10.5187C14.5639 9.90663 14.5737 8.95266 14.5672 7.65683C14.5607 6.361 14.5444 5.41355 14.5183 4.81448C14.4923 4.1633 14.3881 3.6033 14.2058 3.13445C14.0235 2.66561 13.7565 2.25537 13.4048 1.90374C13.0532 1.55211 12.643 1.28513 12.1741 1.1028C11.6923 0.920475 11.1323 0.816288 10.4941 0.790241C9.88202 0.764194 8.93131 0.751171 7.64199 0.751171C6.33965 0.751171 5.38894 0.770706 4.78986 0.809776ZM4.868 13.3122C4.36009 13.2862 3.93032 13.2081 3.57869 13.0778C3.27915 12.9606 3.01868 12.7848 2.79728 12.5504C2.56286 12.329 2.38704 12.0685 2.26983 11.769C2.1396 11.4173 2.06146 10.9876 2.03541 10.4797C2.00936 9.8936 1.99634 8.96243 1.99634 7.68614C1.98332 6.42287 1.98983 5.49169 2.01588 4.89262C2.04192 4.3847 2.12006 3.95493 2.2503 3.6033C2.36751 3.30376 2.54007 3.04004 2.76798 2.81213C2.99589 2.58422 3.25961 2.41166 3.55915 2.29445C3.91078 2.15119 4.34055 2.06653 4.84847 2.04049C5.43452 2.01444 6.36569 2.00142 7.64199 2.00142C8.91828 2.00142 9.84946 2.01444 10.4355 2.04049C10.9434 2.06653 11.3732 2.14468 11.7248 2.27491C12.0244 2.39212 12.2881 2.56468 12.516 2.79259C12.7439 3.0205 12.9165 3.28422 13.0337 3.58376C13.1769 3.93539 13.2551 4.36517 13.2681 4.87308C13.3072 5.45913 13.3267 6.39031 13.3267 7.6666C13.3267 8.9429 13.3137 9.87407 13.2876 10.4601C13.2616 10.968 13.1834 11.3913 13.0532 11.7299C12.936 12.0425 12.7634 12.3127 12.5355 12.5406C12.3076 12.7685 12.0439 12.9411 11.7444 13.0583C11.3927 13.1885 10.963 13.2667 10.455 13.2927C9.86899 13.3188 8.93782 13.3318 7.66152 13.3318C6.39825 13.3448 5.46708 13.3383 4.868 13.3122ZM10.5136 3.97446C10.5136 4.14377 10.5592 4.29679 10.6504 4.43354C10.7416 4.57029 10.8653 4.67122 11.0216 4.73633C11.1778 4.80145 11.3374 4.81773 11.5002 4.78517C11.663 4.75261 11.803 4.67773 11.9202 4.56052C12.0374 4.44331 12.1123 4.30331 12.1448 4.14051C12.1774 3.97772 12.1644 3.81818 12.1058 3.6619C12.0472 3.50562 11.9462 3.37864 11.803 3.28097C11.6597 3.18329 11.5034 3.13445 11.3341 3.13445C11.1127 3.14748 10.9206 3.23213 10.7578 3.38841C10.595 3.54469 10.5136 3.74004 10.5136 3.97446ZM5.14149 5.16611C5.14149 5.16611 4.96893 5.33867 4.62381 5.68379C4.27869 6.02891 4.10613 6.6931 4.10613 7.67637C4.10613 8.65964 4.45451 9.49639 5.15126 10.1866C5.84801 10.8769 6.68477 11.222 7.66152 11.222C8.63828 11.222 9.47503 10.8736 10.1718 10.1769C10.8685 9.48011 11.2137 8.64336 11.2071 7.6666C11.2006 6.68985 10.8523 5.85309 10.162 5.15634C9.47178 4.45959 8.63502 4.11447 7.65176 4.12098C6.66849 4.12749 5.83173 4.47587 5.14149 5.16611ZM5.35638 7.6666C5.35638 7.21078 5.48336 6.78752 5.73732 6.39682C5.99127 6.00612 6.33314 5.72286 6.76291 5.54704C7.19268 5.37123 7.63873 5.32564 8.10106 5.4103C8.5634 5.49495 8.95735 5.70332 9.28294 6.03542C9.60852 6.36752 9.8169 6.76147 9.90806 7.21729C9.99923 7.67311 9.9569 8.11591 9.78108 8.54568C9.60527 8.97545 9.32526 9.32057 8.94107 9.58104C8.55688 9.84151 8.13037 9.97174 7.66152 9.97174C7.34896 9.97174 7.05268 9.91314 6.77268 9.79593C6.49267 9.67872 6.24523 9.51267 6.03034 9.29778C5.81546 9.0829 5.64941 8.83545 5.5322 8.55545C5.41499 8.27545 5.35638 7.97916 5.35638 7.6666Z" fill="#2C2830"/>
</svg>
