<svg width="15" height="15" viewBox="0 0 15 15" fill="none" xmlns="http://www.w3.org/2000/svg">
<path id="Vector" d="M3.69593 5.30285H0.804734V14.5234H3.69593V5.30285ZM11.51 5.1075C11.4318 5.09448 11.3211 5.08145 11.1779 5.06843C10.683 5.05541 10.2207 5.1368 9.79089 5.31262C9.36111 5.48844 9.0453 5.661 8.84343 5.8303C8.64157 5.99961 8.46901 6.18193 8.32575 6.37728L8.18901 6.5531V5.32239H5.43456V14.543H8.32575V11.7299V10.2257C8.32575 10.1866 8.32575 10.0987 8.32575 9.96198C8.32575 9.82523 8.32575 9.72756 8.32575 9.66895C8.32575 9.61034 8.32575 9.52244 8.32575 9.40523C8.32575 9.28802 8.33226 9.1936 8.34529 9.12197C8.35831 9.05034 8.37459 8.96569 8.39413 8.86801C8.41366 8.77034 8.43971 8.67917 8.47227 8.59452C8.50482 8.50987 8.54064 8.42847 8.57971 8.35033C8.8532 7.86846 9.28297 7.62753 9.86903 7.62753C10.1686 7.62753 10.429 7.67962 10.6504 7.78381C10.8718 7.888 11.0346 8.00847 11.1388 8.14521C11.243 8.28196 11.3244 8.43498 11.383 8.60429C11.4416 8.77359 11.4774 8.90057 11.4904 8.98522C11.5035 9.06987 11.51 9.14476 11.51 9.20988V9.22941V14.582H14.4012V8.56522C14.4012 7.54939 14.1505 6.74519 13.6491 6.15263C13.1477 5.56007 12.4346 5.21169 11.51 5.1075ZM1.05869 3.62283C1.05869 3.62283 1.14009 3.70423 1.30288 3.86702C1.46567 4.02981 1.77823 4.11121 2.24056 4.11121C2.7029 4.11121 3.09685 3.94842 3.42244 3.62283C3.74802 3.29725 3.91082 2.90329 3.91082 2.44096C3.91082 1.97863 3.74802 1.58141 3.42244 1.24932C3.09685 0.917219 2.7029 0.751171 2.24056 0.751171C1.77823 0.751171 1.38428 0.917219 1.05869 1.24932C0.733105 1.58141 0.570312 1.97863 0.570312 2.44096C0.570312 2.90329 0.733105 3.29725 1.05869 3.62283Z" fill="#2C2830"/>
</svg>
